<svg width="1217" height="916" viewBox="0 0 1217 916" fill="none" xmlns="http://www.w3.org/2000/svg">
<path d="M51.8555 263.385H135.938L141.357 237.018H159.668V294H14.3555V270.27C52.0508 240.973 77.7344 217.682 91.4062 200.396C105.078 183.111 111.914 166.412 111.914 150.299C111.914 137.115 108.643 126.813 102.1 119.391C95.5566 111.969 86.5234 108.258 75 108.258C72.2656 108.258 69.3848 108.6 66.3574 109.283C63.4277 109.869 60.498 110.748 57.5684 111.92V150.592C54.248 152.35 51.0254 153.717 47.9004 154.693C44.7754 155.572 41.6992 156.012 38.6719 156.012C32.1289 156.012 26.9043 154.107 22.998 150.299C19.0918 146.49 17.1387 141.412 17.1387 135.064C17.1387 121.881 23.7305 110.943 36.9141 102.252C50.0977 93.4629 66.9922 89.0684 87.5977 89.0684C107.422 89.0684 123.34 94.4395 135.352 105.182C147.363 115.826 153.369 129.986 153.369 147.662C153.369 164.557 145.996 181.549 131.25 198.639C116.602 215.729 90.1367 237.311 51.8555 263.385Z" fill="white"/>
<path d="M1130.18 105.914C1118.46 105.914 1109.63 113.189 1103.67 127.74C1097.71 142.291 1094.73 163.824 1094.73 192.34C1094.73 221.734 1097.66 243.805 1103.52 258.551C1109.48 273.199 1118.37 280.523 1130.18 280.523C1142 280.523 1150.84 273.248 1156.7 258.697C1162.65 244.146 1165.63 222.32 1165.63 193.219C1165.63 164.117 1162.65 142.291 1156.7 127.74C1150.84 113.189 1142 105.914 1130.18 105.914ZM1129.89 89.0684C1153.52 89.0684 1172.18 98.3945 1185.85 117.047C1199.52 135.602 1206.36 161.09 1206.36 193.512C1206.36 225.934 1199.52 251.422 1185.85 269.977C1172.27 288.434 1153.62 297.662 1129.89 297.662C1106.26 297.662 1087.7 288.434 1074.23 269.977C1060.75 251.422 1054.01 225.934 1054.01 193.512C1054.01 160.992 1060.75 135.455 1074.23 116.9C1087.8 98.3457 1106.36 89.0684 1129.89 89.0684Z" fill="white"/>
<path d="M66.6504 749.811C60.1074 755.67 55.3711 761.578 52.4414 767.535C49.5117 773.395 48.0469 779.889 48.0469 787.018C48.0469 799.518 51.8066 809.869 59.3262 818.072C66.8457 826.178 76.3672 830.23 87.8906 830.23C98.6328 830.23 107.324 827.301 113.965 821.441C120.605 815.484 123.926 807.818 123.926 798.443C123.926 788.775 119.971 780.475 112.061 773.541C104.15 766.51 89.0137 758.6 66.6504 749.811ZM118.213 737.213C133.057 742.486 143.994 749.371 151.025 757.867C158.154 766.363 161.719 776.861 161.719 789.361C161.719 807.232 154.785 821.588 140.918 832.428C127.148 843.17 108.594 848.541 85.2539 848.541C63.6719 848.541 46.1426 843.121 32.666 832.281C19.2871 821.344 12.5977 807.33 12.5977 790.24C12.5977 778.619 16.0156 768.756 22.8516 760.65C29.7852 752.545 39.8438 746.539 53.0273 742.633C42.5781 737.848 34.668 731.5 29.2969 723.59C23.9258 715.68 21.2402 706.402 21.2402 695.758C21.2402 678.473 27.5879 664.605 40.2832 654.156C52.9785 643.707 69.873 638.482 90.9668 638.482C109.619 638.482 124.707 643.365 136.23 653.131C147.852 662.799 153.662 675.299 153.662 690.631C153.662 700.787 150.635 709.82 144.58 717.73C138.623 725.641 129.834 732.135 118.213 737.213ZM104.15 730.328C109.229 725.445 113.086 719.928 115.723 713.775C118.359 707.525 119.678 700.738 119.678 693.414C119.678 682.477 116.748 673.59 110.889 666.754C105.029 659.918 97.3633 656.5 87.8906 656.5C79.5898 656.5 72.7051 659.381 67.2363 665.143C61.7676 670.807 59.0332 678.033 59.0332 686.822C59.0332 695.807 62.5488 703.717 69.5801 710.553C76.6113 717.389 88.1348 723.98 104.15 730.328Z" fill="white"/>
<path d="M1130.18 655.914C1118.46 655.914 1109.63 663.189 1103.67 677.74C1097.71 692.291 1094.73 713.824 1094.73 742.34C1094.73 771.734 1097.66 793.805 1103.52 808.551C1109.48 823.199 1118.37 830.523 1130.18 830.523C1142 830.523 1150.84 823.248 1156.7 808.697C1162.65 794.146 1165.63 772.32 1165.63 743.219C1165.63 714.117 1162.65 692.291 1156.7 677.74C1150.84 663.189 1142 655.914 1130.18 655.914ZM1129.89 639.068C1153.52 639.068 1172.18 648.395 1185.85 667.047C1199.52 685.602 1206.36 711.09 1206.36 743.512C1206.36 775.934 1199.52 801.422 1185.85 819.977C1172.27 838.434 1153.62 847.662 1129.89 847.662C1106.26 847.662 1087.7 838.434 1074.23 819.977C1060.75 801.422 1054.01 775.934 1054.01 743.512C1054.01 710.992 1060.75 685.455 1074.23 666.9C1087.8 648.346 1106.36 639.068 1129.89 639.068Z" fill="white"/>
</svg>
