<svg width="228" height="23" viewBox="0 0 228 23" fill="none" xmlns="http://www.w3.org/2000/svg">
<path d="M14.87 6.7C14.83 5.78 14.63 4.98 14.27 4.3C13.93 3.62 13.46 3.05 12.86 2.59C12.26 2.13 11.54 1.79 10.7 1.57C9.88 1.33 8.98 1.21 8 1.21C7.4 1.21 6.75 1.28 6.05 1.42C5.37 1.56 4.73 1.81 4.13 2.17C3.55 2.51 3.07 2.98 2.69 3.58C2.31 4.16 2.12 4.89 2.12 5.77C2.12 6.63 2.33 7.33 2.75 7.87C3.17 8.41 3.72 8.85 4.4 9.19C5.08 9.51 5.86 9.77 6.74 9.97C7.62 10.17 8.51 10.36 9.41 10.54C10.33 10.72 11.22 10.94 12.08 11.2C12.96 11.44 13.74 11.78 14.42 12.22C15.12 12.64 15.68 13.2 16.1 13.9C16.52 14.58 16.73 15.44 16.73 16.48C16.73 17.6 16.49 18.54 16.01 19.3C15.53 20.06 14.92 20.68 14.18 21.16C13.46 21.64 12.65 21.98 11.75 22.18C10.87 22.4 10.02 22.51 9.2 22.51C7.94 22.51 6.76 22.37 5.66 22.09C4.56 21.83 3.6 21.4 2.78 20.8C1.96 20.18 1.31 19.39 0.83 18.43C0.37 17.47 0.15 16.3 0.17 14.92H1.49C1.43 16.1 1.6 17.1 2 17.92C2.4 18.72 2.95 19.38 3.65 19.9C4.37 20.42 5.21 20.8 6.17 21.04C7.13 21.26 8.14 21.37 9.2 21.37C9.84 21.37 10.52 21.29 11.24 21.13C11.98 20.97 12.65 20.7 13.25 20.32C13.87 19.94 14.38 19.44 14.78 18.82C15.2 18.2 15.41 17.42 15.41 16.48C15.41 15.58 15.2 14.85 14.78 14.29C14.36 13.71 13.8 13.25 13.1 12.91C12.42 12.55 11.64 12.27 10.76 12.07C9.9 11.85 9.01 11.65 8.09 11.47C7.19 11.29 6.3 11.08 5.42 10.84C4.54 10.6 3.76 10.28 3.08 9.88C2.4 9.46 1.85 8.93 1.43 8.29C1.01 7.63 0.8 6.79 0.8 5.77C0.8 4.75 1.01 3.88 1.43 3.16C1.87 2.42 2.43 1.83 3.11 1.39C3.81 0.929999 4.59 0.599999 5.45 0.399999C6.31 0.18 7.16 0.0699998 8 0.0699998C9.12 0.0699998 10.16 0.199999 11.12 0.459998C12.1 0.699999 12.95 1.09 13.67 1.63C14.41 2.15 15 2.83 15.44 3.67C15.88 4.51 16.13 5.52 16.19 6.7H14.87ZM18.9765 11.29C18.9765 9.73 19.2065 8.27 19.6665 6.91C20.1265 5.53 20.7865 4.34 21.6465 3.34C22.5265 2.32 23.5965 1.52 24.8565 0.939999C26.1365 0.36 27.5765 0.0699998 29.1765 0.0699998C30.4365 0.0699998 31.5265 0.239999 32.4465 0.579999C33.3665 0.899999 34.1365 1.31 34.7565 1.81C35.3965 2.29 35.9165 2.82 36.3165 3.4C36.7165 3.98 37.0165 4.53 37.2165 5.05C37.4365 5.55 37.5865 5.99 37.6665 6.37C37.7465 6.73 37.7865 6.93 37.7865 6.97H36.4665C36.3265 6.07 36.0365 5.27 35.5965 4.57C35.1565 3.85 34.6065 3.24 33.9465 2.74C33.2865 2.24 32.5465 1.86 31.7265 1.6C30.9265 1.34 30.0765 1.21 29.1765 1.21C27.7765 1.21 26.5265 1.48 25.4265 2.02C24.3265 2.56 23.3965 3.29 22.6365 4.21C21.8765 5.11 21.2965 6.17 20.8965 7.39C20.4965 8.61 20.2965 9.91 20.2965 11.29C20.2965 12.67 20.4965 13.97 20.8965 15.19C21.2965 16.41 21.8765 17.48 22.6365 18.4C23.3965 19.3 24.3265 20.02 25.4265 20.56C26.5265 21.1 27.7765 21.37 29.1765 21.37C30.2165 21.37 31.1865 21.16 32.0865 20.74C33.0065 20.3 33.8065 19.73 34.4865 19.03C35.1665 18.31 35.7065 17.49 36.1065 16.57C36.5265 15.63 36.7665 14.66 36.8265 13.66H38.1465C38.0265 14.94 37.7065 16.12 37.1865 17.2C36.6865 18.28 36.0365 19.22 35.2365 20.02C34.4565 20.8 33.5465 21.41 32.5065 21.85C31.4665 22.29 30.3565 22.51 29.1765 22.51C27.5765 22.51 26.1365 22.22 24.8565 21.64C23.5965 21.06 22.5265 20.27 21.6465 19.27C20.7865 18.25 20.1265 17.06 19.6665 15.7C19.2065 14.32 18.9765 12.85 18.9765 11.29ZM40.9095 0.579999H49.8495C50.7895 0.579999 51.6695 0.679999 52.4895 0.879998C53.3095 1.06 54.0295 1.37 54.6495 1.81C55.2695 2.23 55.7495 2.79 56.0895 3.49C56.4495 4.19 56.6295 5.06 56.6295 6.1C56.6295 7.54 56.2195 8.76 55.3995 9.76C54.5995 10.74 53.4795 11.35 52.0395 11.59V11.65C53.0195 11.77 53.7895 12.03 54.3495 12.43C54.9295 12.83 55.3595 13.32 55.6395 13.9C55.9195 14.48 56.0995 15.12 56.1795 15.82C56.2595 16.52 56.2995 17.22 56.2995 17.92C56.2995 18.34 56.2995 18.75 56.2995 19.15C56.2995 19.55 56.3195 19.93 56.3595 20.29C56.3995 20.63 56.4595 20.95 56.5395 21.25C56.6395 21.55 56.7695 21.8 56.9295 22H55.4595C55.1795 21.5 55.0195 20.92 54.9795 20.26C54.9595 19.58 54.9495 18.88 54.9495 18.16C54.9495 17.44 54.9195 16.73 54.8595 16.03C54.7995 15.31 54.6095 14.67 54.2895 14.11C53.9695 13.55 53.4595 13.1 52.7595 12.76C52.0795 12.42 51.1095 12.25 49.8495 12.25H42.2295V22H40.9095V0.579999ZM49.8495 11.11C50.6295 11.11 51.3495 11.02 52.0095 10.84C52.6895 10.64 53.2695 10.34 53.7495 9.94C54.2295 9.54 54.6095 9.03 54.8895 8.41C55.1695 7.79 55.3095 7.05 55.3095 6.19C55.3095 5.39 55.1595 4.71 54.8595 4.15C54.5595 3.57 54.1595 3.1 53.6595 2.74C53.1595 2.38 52.5795 2.12 51.9195 1.96C51.2595 1.8 50.5695 1.72 49.8495 1.72H42.2295V11.11H49.8495ZM79.216 11.29C79.216 12.85 78.986 14.32 78.526 15.7C78.066 17.06 77.396 18.25 76.516 19.27C75.656 20.27 74.596 21.06 73.336 21.64C72.076 22.22 70.646 22.51 69.046 22.51C67.446 22.51 66.006 22.22 64.726 21.64C63.466 21.06 62.396 20.27 61.516 19.27C60.656 18.25 59.996 17.06 59.536 15.7C59.076 14.32 58.846 12.85 58.846 11.29C58.846 9.73 59.076 8.27 59.536 6.91C59.996 5.53 60.656 4.34 61.516 3.34C62.396 2.32 63.466 1.52 64.726 0.939999C66.006 0.36 67.446 0.0699998 69.046 0.0699998C70.646 0.0699998 72.076 0.36 73.336 0.939999C74.596 1.52 75.656 2.32 76.516 3.34C77.396 4.34 78.066 5.53 78.526 6.91C78.986 8.27 79.216 9.73 79.216 11.29ZM60.166 11.29C60.166 12.67 60.366 13.97 60.766 15.19C61.166 16.41 61.746 17.48 62.506 18.4C63.266 19.3 64.196 20.02 65.296 20.56C66.396 21.1 67.646 21.37 69.046 21.37C70.446 21.37 71.686 21.1 72.766 20.56C73.866 20.02 74.796 19.3 75.556 18.4C76.316 17.48 76.896 16.41 77.296 15.19C77.696 13.97 77.896 12.67 77.896 11.29C77.896 9.91 77.696 8.61 77.296 7.39C76.896 6.17 76.316 5.11 75.556 4.21C74.796 3.29 73.866 2.56 72.766 2.02C71.686 1.48 70.446 1.21 69.046 1.21C67.646 1.21 66.396 1.48 65.296 2.02C64.196 2.56 63.266 3.29 62.506 4.21C61.746 5.11 61.166 6.17 60.766 7.39C60.366 8.61 60.166 9.91 60.166 11.29ZM82.0423 0.579999H83.3623V20.86H95.5123V22H82.0423V0.579999ZM97.0423 0.579999H98.3623V20.86H110.512V22H97.0423V0.579999ZM119.882 22C119.942 21.04 120.162 20.18 120.542 19.42C120.922 18.64 121.402 17.94 121.982 17.32C122.582 16.68 123.242 16.09 123.962 15.55C124.702 15.01 125.452 14.49 126.212 13.99C126.952 13.49 127.682 12.99 128.402 12.49C129.122 11.97 129.762 11.42 130.322 10.84C130.902 10.26 131.362 9.63 131.702 8.95C132.042 8.25 132.212 7.46 132.212 6.58C132.212 5.88 132.072 5.25 131.792 4.69C131.512 4.11 131.132 3.62 130.652 3.22C130.192 2.8 129.652 2.48 129.032 2.26C128.432 2.04 127.792 1.93 127.112 1.93C126.172 1.93 125.352 2.1 124.652 2.44C123.952 2.76 123.372 3.21 122.912 3.79C122.452 4.35 122.102 5.02 121.862 5.8C121.642 6.56 121.532 7.39 121.532 8.29H120.392C120.512 5.77 121.112 3.92 122.192 2.74C123.292 1.54 124.872 0.939999 126.932 0.939999C127.812 0.939999 128.642 1.06 129.422 1.3C130.202 1.52 130.882 1.87 131.462 2.35C132.042 2.81 132.502 3.4 132.842 4.12C133.182 4.82 133.352 5.65 133.352 6.61C133.352 7.83 133.062 8.91 132.482 9.85C131.922 10.77 131.202 11.61 130.322 12.37C129.462 13.13 128.522 13.84 127.502 14.5C126.502 15.16 125.552 15.82 124.652 16.48C123.772 17.12 123.012 17.8 122.372 18.52C121.752 19.22 121.402 20 121.322 20.86H133.682V22H119.882ZM159.391 6.7C159.351 5.78 159.151 4.98 158.791 4.3C158.451 3.62 157.981 3.05 157.381 2.59C156.781 2.13 156.061 1.79 155.221 1.57C154.401 1.33 153.501 1.21 152.521 1.21C151.921 1.21 151.271 1.28 150.571 1.42C149.891 1.56 149.251 1.81 148.651 2.17C148.071 2.51 147.591 2.98 147.211 3.58C146.831 4.16 146.641 4.89 146.641 5.77C146.641 6.63 146.851 7.33 147.271 7.87C147.691 8.41 148.241 8.85 148.921 9.19C149.601 9.51 150.381 9.77 151.261 9.97C152.141 10.17 153.031 10.36 153.931 10.54C154.851 10.72 155.741 10.94 156.601 11.2C157.481 11.44 158.261 11.78 158.941 12.22C159.641 12.64 160.201 13.2 160.621 13.9C161.041 14.58 161.251 15.44 161.251 16.48C161.251 17.6 161.011 18.54 160.531 19.3C160.051 20.06 159.441 20.68 158.701 21.16C157.981 21.64 157.171 21.98 156.271 22.18C155.391 22.4 154.541 22.51 153.721 22.51C152.461 22.51 151.281 22.37 150.181 22.09C149.081 21.83 148.121 21.4 147.301 20.8C146.481 20.18 145.831 19.39 145.351 18.43C144.891 17.47 144.671 16.3 144.691 14.92H146.011C145.951 16.1 146.121 17.1 146.521 17.92C146.921 18.72 147.471 19.38 148.171 19.9C148.891 20.42 149.731 20.8 150.691 21.04C151.651 21.26 152.661 21.37 153.721 21.37C154.361 21.37 155.041 21.29 155.761 21.13C156.501 20.97 157.171 20.7 157.771 20.32C158.391 19.94 158.901 19.44 159.301 18.82C159.721 18.2 159.931 17.42 159.931 16.48C159.931 15.58 159.721 14.85 159.301 14.29C158.881 13.71 158.321 13.25 157.621 12.91C156.941 12.55 156.161 12.27 155.281 12.07C154.421 11.85 153.531 11.65 152.611 11.47C151.711 11.29 150.821 11.08 149.941 10.84C149.061 10.6 148.281 10.28 147.601 9.88C146.921 9.46 146.371 8.93 145.951 8.29C145.531 7.63 145.321 6.79 145.321 5.77C145.321 4.75 145.531 3.88 145.951 3.16C146.391 2.42 146.951 1.83 147.631 1.39C148.331 0.929999 149.111 0.599999 149.971 0.399999C150.831 0.18 151.681 0.0699998 152.521 0.0699998C153.641 0.0699998 154.681 0.199999 155.641 0.459998C156.621 0.699999 157.471 1.09 158.191 1.63C158.931 2.15 159.521 2.83 159.961 3.67C160.401 4.51 160.651 5.52 160.711 6.7H159.391ZM161.324 1.72V0.579999H177.734V1.72H170.174V22H168.854V1.72H161.324ZM183.207 0.579999H184.647L193.107 22H191.697L188.997 15.13H178.737L176.007 22H174.597L183.207 0.579999ZM188.577 13.99L183.987 1.87H183.927L179.157 13.99H188.577ZM194.63 0.579999H203.57C204.51 0.579999 205.39 0.679999 206.21 0.879998C207.03 1.06 207.75 1.37 208.37 1.81C208.99 2.23 209.47 2.79 209.81 3.49C210.17 4.19 210.35 5.06 210.35 6.1C210.35 7.54 209.94 8.76 209.12 9.76C208.32 10.74 207.2 11.35 205.76 11.59V11.65C206.74 11.77 207.51 12.03 208.07 12.43C208.65 12.83 209.08 13.32 209.36 13.9C209.64 14.48 209.82 15.12 209.9 15.82C209.98 16.52 210.02 17.22 210.02 17.92C210.02 18.34 210.02 18.75 210.02 19.15C210.02 19.55 210.04 19.93 210.08 20.29C210.12 20.63 210.18 20.95 210.26 21.25C210.36 21.55 210.49 21.8 210.65 22H209.18C208.9 21.5 208.74 20.92 208.7 20.26C208.68 19.58 208.67 18.88 208.67 18.16C208.67 17.44 208.64 16.73 208.58 16.03C208.52 15.31 208.33 14.67 208.01 14.11C207.69 13.55 207.18 13.1 206.48 12.76C205.8 12.42 204.83 12.25 203.57 12.25H195.95V22H194.63V0.579999ZM203.57 11.11C204.35 11.11 205.07 11.02 205.73 10.84C206.41 10.64 206.99 10.34 207.47 9.94C207.95 9.54 208.33 9.03 208.61 8.41C208.89 7.79 209.03 7.05 209.03 6.19C209.03 5.39 208.88 4.71 208.58 4.15C208.28 3.57 207.88 3.1 207.38 2.74C206.88 2.38 206.3 2.12 205.64 1.96C204.98 1.8 204.29 1.72 203.57 1.72H195.95V11.11H203.57ZM211.187 1.72V0.579999H227.597V1.72H220.037V22H218.717V1.72H211.187Z" fill="white"/>
</svg>
