<svg width="32161" height="1202" viewBox="0 0 32161 1202" fill="none" xmlns="http://www.w3.org/2000/svg" xmlns:xlink="http://www.w3.org/1999/xlink"><rect width="1920" height="1080" transform="translate(0 13)" fill="black"/><rect x="865" y="13" width="31296" height="1080" fill="black"/><rect x="25544" y="13" width="4694" height="1080" fill="white"/><rect x="10677" y="13" width="3894" height="1080" fill="white"/><rect x="31699" y="1059" width="1006" height="304" transform="rotate(-90 31699 1059)" fill="url(#img1671272215712_pattern0)"/><rect x="30829" y="846" width="745" height="225" fill="url(#img1671272215712_pattern1)"/><rect x="30828" y="34" width="747" height="800" fill="url(#img1671272215712_pattern2)"/><text transform="translate(30743 1073) rotate(-90)" fill="white" xml:space="preserve" style="white-space: pre" font-family="Helvetica" font-size="67" font-weight="bold" letter-spacing="0em"><tspan x="0" y="59.613">New beginnings</tspan></text><rect x="30389" y="1059" width="1006" height="304" transform="rotate(-90 30389 1059)" fill="url(#img1671272215712_pattern3)"/><rect x="29126" y="660" width="958" height="418" fill="url(#img1671272215712_pattern4)"/><text fill="black" xml:space="preserve" style="white-space: pre" font-family="Charter" font-size="25" letter-spacing="0em"><tspan x="29112" y="582.747">The soldiers and harriers in the story of Fidelion wear gas masks for the sake </tspan><tspan x="29112" y="609.747">of either protecting their identity from severe negative repercussions or </tspan><tspan x="29112" y="636.747">providing fear to their enemies. The color red symbolizes the meaning of </tspan><tspan x="29112" y="663.747">death, courage, and war.</tspan></text><rect x="29119" y="28" width="1004" height="530" fill="url(#img1671272215712_pattern5)"/><rect x="28825" y="449" width="259" height="644" fill="url(#img1671272215712_pattern6)"/><text fill="black" xml:space="preserve" style="white-space: pre" font-family="Charter" font-size="25" letter-spacing="0em"><tspan x="28313.1" y="842.747">Fidelia’s gas mask seems to occupy alternate </tspan><tspan x="28412.7" y="869.747">roles depending on their context as </tspan><tspan x="28352.5" y="896.747">emblematic of dehumanized, uniformed, </tspan><tspan x="28300.1" y="923.747">oppressive, nefarious individuals and regimes </tspan><tspan x="28337.9" y="950.747">or for individuals dissenting from a power </tspan><tspan x="28343.6" y="977.747">structure. Fidelia’s gas mask aesthetic is a </tspan><tspan x="28377" y="1004.75">feeling of dread and the implication of </tspan><tspan x="28479" y="1031.75">violence and potential doom.</tspan></text><rect x="28326" y="423" width="451" height="393" fill="url(#img1671272215712_pattern7)"/><text fill="black" xml:space="preserve" style="white-space: pre" font-family="JACKPORT REGULAR NCV" font-size="200" letter-spacing="0em"><tspan x="28672" y="422.4">Fs8</tspan></text><rect x="28358" y="99" width="300" height="323" fill="url(#img1671272215712_pattern8)"/><text fill="black" xml:space="preserve" style="white-space: pre" font-family="Charter" font-size="25" letter-spacing="0em"><tspan x="27510" y="54.7468">The Titan serves as a significant addition to the Fidelian </tspan><tspan x="27510" y="81.7468">Empire of battlefields. The two-legged beast is armed with a </tspan><tspan x="27510" y="108.747">single protracted canon and two beaming lights in the front. </tspan><tspan x="27510" y="135.747">The Fidelian Empire uses the Titan through their battles </tspan><tspan x="27510" y="162.747">against their enemies. The Titan moves through engine and </tspan><tspan x="27510" y="189.747">diesel.</tspan></text><rect x="26996" y="183" width="1235" height="885" fill="url(#img1671272215712_pattern9)"/><text fill="black" xml:space="preserve" style="white-space: pre" font-family="Charter" font-size="25" letter-spacing="0em"><tspan x="26468" y="934.747">Under Jake’s command, an aide and brilliant engineer </tspan><tspan x="26468" y="961.747">developed an even more powerful military technology. They </tspan><tspan x="26468" y="988.747">eventually created a destructive weapon of absolute power as </tspan><tspan x="26468" y="1015.75">a bipedal weapon.</tspan></text><rect x="26566" y="553" width="484" height="315" fill="url(#img1671272215712_pattern10)"/><text fill="black" xml:space="preserve" style="white-space: pre" font-family="JACKPORT REGULAR NCV" font-size="200" letter-spacing="0em"><tspan x="26866" y="422.4">17sp</tspan></text><rect x="26555" y="99" width="300" height="323" fill="url(#img1671272215712_pattern11)"/><rect x="25619" y="840" width="739" height="224" fill="url(#img1671272215712_pattern12)"/><rect x="25978" y="433" width="406" height="389" fill="url(#img1671272215712_pattern13)"/><rect x="25620" y="441" width="350" height="376" fill="url(#img1671272215712_pattern14)"/><rect x="26008" y="55" width="350" height="376" fill="url(#img1671272215712_pattern15)"/><rect x="25589" y="43" width="406" height="389" fill="url(#img1671272215712_pattern16)"/><text fill="white" xml:space="preserve" style="white-space: pre" font-family="Charter" font-size="25" letter-spacing="0em"><tspan x="25062" y="650.747">In the background of such a powerful </tspan><tspan x="25062" y="677.747">military regime, General Rowan Frederik </tspan><tspan x="25062" y="704.747">and General Celine Adelle had a strong </tspan><tspan x="25062" y="731.747">presence.
</tspan><tspan x="25062" y="758.747">
</tspan><tspan x="25062" y="785.747">Even before the war, Rowan served as </tspan><tspan x="25062" y="812.747">Jake&apos;s right-hand man and still is the best </tspan><tspan x="25062" y="839.747">tactician Fidelian Empire possesses.
</tspan><tspan x="25062" y="866.747">
</tspan><tspan x="25062" y="893.747">Celine, a woman who was found in an </tspan><tspan x="25062" y="920.747">ordinary village, caught Jake&apos;s eye and </tspan><tspan x="25062" y="947.747">broke out on the map of Fidelia. Although </tspan><tspan x="25062" y="974.747">she had no military experience, she was </tspan><tspan x="25062" y="1001.75">more than capable of leading Fidelian&apos;s </tspan><tspan x="25062" y="1028.75">army. She became a general immediately.</tspan></text><rect x="25110" y="326" width="423" height="290" fill="url(#img1671272215712_pattern17)"/><text fill="white" xml:space="preserve" style="white-space: pre" font-family="Charter" font-size="25" letter-spacing="0em"><tspan x="25067" y="101.747">For years, the Empire ruled through fear, </tspan><tspan x="25067" y="128.747">intimidation, and tyranny. The Fidelian </tspan><tspan x="25067" y="155.747">army quickly established dominance </tspan><tspan x="25067" y="182.747">across North America, utilizing highly </tspan><tspan x="25067" y="209.747">trained soldiers. With powerful allies </tspan><tspan x="25067" y="236.747">such as Kossacks and Hunters, Jake </tspan><tspan x="25067" y="263.747">Marcus&apos; regime was unstoppable. Others </tspan><tspan x="25067" y="290.747">would not dare to respond.</tspan></text><rect x="24600" y="43" width="437" height="1022" fill="url(#img1671272215712_pattern18)"/><rect x="24275" y="1058" width="1011" height="305" transform="rotate(-90 24275 1058)" fill="url(#img1671272215712_pattern19)"/><text fill="white" xml:space="preserve" style="white-space: pre" font-family="Charter" font-size="25" letter-spacing="0em"><tspan x="22558" y="970.747">The Fidelian army is highly trained and ready to combat any threat. People&apos;s understanding of Fidelian&apos;s military is </tspan><tspan x="22558" y="997.747">limited to what they have learned. The Fidelian army has its own culture, language, and military practices. The </tspan><tspan x="22558" y="1024.75">Fidelian army may appear overwhelming, strict, and intimidating to those who have had little or no personal </tspan><tspan x="22558" y="1051.75">experience with military culture.</tspan></text><rect x="22442" y="954" width="93" height="100" fill="url(#img1671272215712_pattern20)"/><rect x="19745" y="164" width="4075" height="783" fill="url(#img1671272215712_pattern21)"/><rect x="17440" y="13" width="1906" height="1080" fill="url(#img1671272215712_pattern22)"/><text fill="white" xml:space="preserve" style="white-space: pre" font-family="Charter" font-size="25" letter-spacing="0em"><tspan x="17634" y="561.747">The Fidelion is established like a vertical society, where </tspan><tspan x="17634" y="588.747">your status rises as you move up the social ladder. The </tspan><tspan x="17634" y="615.747">Fidelion is both a fort and an oil drilling device.
</tspan><tspan x="17634" y="642.747">It stands in the center of Fidelia and has three pillars </tspan><tspan x="17634" y="669.747">that support the machine&apos;s base. It continuously pumps </tspan><tspan x="17634" y="696.747">oil. Jake Marcus views crude as valuable as gold. Not </tspan><tspan x="17634" y="723.747">only he but everybody values oil as gold.
</tspan><tspan x="17634" y="750.747">
</tspan><tspan x="17634" y="777.747">The master and Jake&apos;s rooms are in the middle and the </tspan><tspan x="17634" y="804.747">top structure in Fidelion. Jake can see Fidelia&apos;s people </tspan><tspan x="17634" y="831.747">and the city up close from his balcony. Jake is making </tspan><tspan x="17634" y="858.747">announcements, living large, and controlling this </tspan><tspan x="17634" y="885.747">masterpiece up top.</tspan></text><text fill="white" xml:space="preserve" style="white-space: pre" font-family="Charter" font-size="25" letter-spacing="0em"><tspan x="16556" y="715.747">Jake eventually raids the surrounding villages, forcing them to join their army </tspan><tspan x="16556" y="742.747">and work for them. People around him have already noticed that his greed </tspan><tspan x="16556" y="769.747">has become excessive, as opposed to before. However, they still follow him </tspan><tspan x="16556" y="796.747">because of his meticulous leadership.
</tspan><tspan x="16556" y="823.747">
</tspan><tspan x="16556" y="850.747">Jake, who initially showed favoritism toward the village, gradually began to </tspan><tspan x="16556" y="877.747">treat them as a colony. The town was attacked and forcibly annexed, the </tspan><tspan x="16556" y="904.747">strong men became slaves and soldiers, and the women and children became </tspan><tspan x="16556" y="931.747">workers and slaves.</tspan></text><rect x="15809" y="594" width="701" height="499" fill="url(#img1671272215712_pattern23)"/><rect x="16067" y="13" width="1359" height="559" fill="url(#img1671272215712_pattern24)"/><text fill="white" xml:space="preserve" style="white-space: pre" font-family="Charter" font-size="25" letter-spacing="0em"><tspan x="15646.4" y="197.747">The Texas city he discovered thrived. </tspan><tspan x="15718.9" y="224.747">The situation has dramatically </tspan><tspan x="15643" y="251.747">improved, and they are now entering </tspan><tspan x="15660.2" y="278.747">a period of relatively stable growth. </tspan><tspan x="15695" y="305.747">Jake, on the other hand, wanted </tspan><tspan x="15676.9" y="332.747">more as he grew older. He needed </tspan><tspan x="15690.7" y="359.747">more military might and cutting-</tspan><tspan x="15719.9" y="386.747">edge technology to protect his </tspan><tspan x="15811.9" y="413.747">people and resources.</tspan></text><rect x="14561" y="13" width="1056" height="1080" fill="url(#img1671272215712_pattern25)"/><rect x="14469" y="1047" width="64" height="46" fill="url(#img1671272215712_pattern26)"/><rect x="14469" y="960" width="64" height="68" fill="url(#img1671272215712_pattern27)"/><rect x="14469" y="873" width="64" height="68" fill="url(#img1671272215712_pattern28)"/><rect x="14469" y="786" width="64" height="68" fill="url(#img1671272215712_pattern29)"/><rect x="14469" y="699" width="64" height="68" fill="url(#img1671272215712_pattern30)"/><rect x="14469" y="612" width="64" height="68" fill="url(#img1671272215712_pattern31)"/><rect x="14469" y="525" width="64" height="68" fill="url(#img1671272215712_pattern32)"/><rect x="14469" y="438" width="64" height="68" fill="url(#img1671272215712_pattern33)"/><rect x="14469" y="351" width="64" height="68" fill="url(#img1671272215712_pattern34)"/><rect x="14469" y="264" width="64" height="68" fill="url(#img1671272215712_pattern35)"/><rect x="14469" y="177" width="64" height="68" fill="url(#img1671272215712_pattern36)"/><rect x="14469" y="90" width="64" height="68" fill="url(#img1671272215712_pattern37)"/><rect x="14469" y="13" width="64" height="58" fill="url(#img1671272215712_pattern38)"/><text fill="black" xml:space="preserve" style="white-space: pre" font-family="Helvetica" font-size="23" letter-spacing="0.215em"><tspan x="13834" y="1060.43">Directed by Hokyo Lim</tspan></text><rect x="13556" y="760" width="887" height="269" fill="url(#img1671272215712_pattern39)"/><rect x="13556" y="51" width="887" height="711" fill="url(#img1671272215712_pattern40)"/><rect x="12072" y="13" width="879" height="1080" fill="url(#img1671272215712_pattern41)"/><text fill="black" xml:space="preserve" style="white-space: pre" font-family="Charter" font-size="25" letter-spacing="0em"><tspan x="12909" y="58.2468">There </tspan><tspan x="12979.3" y="58.2468">are </tspan><tspan x="13021" y="58.2468">many </tspan><tspan x="13088.5" y="58.2468">kinds </tspan><tspan x="13153.9" y="58.2468">of </tspan><tspan x="13182.6" y="58.2468">balance </tspan><tspan x="13273.3" y="58.2468">in </tspan><tspan x="13301.6" y="58.2468">the </tspan><tspan x="13343.5" y="58.2468">world. </tspan><tspan x="12909" y="85.2468">Up </tspan><tspan x="12948.9" y="85.2468">and </tspan><tspan x="12998.8" y="85.2468">down, </tspan><tspan x="13075.6" y="85.2468">rich </tspan><tspan x="13126.3" y="85.2468">and </tspan><tspan x="13176.1" y="85.2468">poor, </tspan><tspan x="13239.4" y="85.2468">coexistence </tspan><tspan x="13373" y="85.2468">and </tspan><tspan x="12909" y="112.247">division, </tspan><tspan x="13024.1" y="112.247">order </tspan><tspan x="13106" y="112.247">and </tspan><tspan x="13169.9" y="112.247">chaos. </tspan><tspan x="13261.2" y="112.247">The </tspan><tspan x="13325.4" y="112.247">Fidelion </tspan><tspan x="12909" y="139.247">building </tspan><tspan x="13011.7" y="139.247">architect </tspan><tspan x="13118.7" y="139.247">has </tspan><tspan x="13168" y="139.247">a </tspan><tspan x="13193.1" y="139.247">style </tspan><tspan x="13255.6" y="139.247">that </tspan><tspan x="13311.5" y="139.247">embraces </tspan><tspan x="12909" y="166.247">and </tspan><tspan x="12963.8" y="166.247">accommodates </tspan><tspan x="13139.1" y="166.247">all </tspan><tspan x="13179.7" y="166.247">of </tspan><tspan x="13215" y="166.247">these </tspan><tspan x="13285.8" y="166.247">things </tspan><tspan x="13366.3" y="166.247">in </tspan><tspan x="13401.3" y="166.247">a </tspan><tspan x="12909" y="193.247">balanced </tspan><tspan x="13013.6" y="193.247">way.
</tspan><tspan x="12909" y="220.247">
</tspan><tspan x="12909" y="247.247">The </tspan><tspan x="12960.5" y="247.247">cognitive </tspan><tspan x="13069.6" y="247.247">system, </tspan><tspan x="13160.9" y="247.247">class </tspan><tspan x="13222" y="247.247">society, </tspan><tspan x="13310.4" y="247.247">and </tspan><tspan x="13361.6" y="247.247">roles </tspan><tspan x="12909" y="274.247">assigned </tspan><tspan x="13024.1" y="274.247">to </tspan><tspan x="13067.7" y="274.247">them </tspan><tspan x="13145.2" y="274.247">all </tspan><tspan x="13193.7" y="274.247">over </tspan><tspan x="13263.1" y="274.247">Fidelia </tspan><tspan x="13358.4" y="274.247">seem </tspan><tspan x="12909" y="301.247">unstable </tspan><tspan x="13012.3" y="301.247">and </tspan><tspan x="13064.4" y="301.247">dangerous </tspan><tspan x="13189.1" y="301.247">at </tspan><tspan x="13221.2" y="301.247">first </tspan><tspan x="13275.2" y="301.247">glance. </tspan><tspan x="13363.7" y="301.247">Still, </tspan><tspan x="12909" y="328.247">inside, </tspan><tspan x="12992.9" y="328.247">we </tspan><tspan x="13036.8" y="328.247">can </tspan><tspan x="13087.1" y="328.247">see </tspan><tspan x="13134" y="328.247">that </tspan><tspan x="13189.8" y="328.247">the </tspan><tspan x="13236.8" y="328.247">harmony </tspan><tspan x="13346.6" y="328.247">of </tspan><tspan x="13380.4" y="328.247">yin </tspan><tspan x="12909" y="355.247">and </tspan><tspan x="12976.9" y="355.247">yang </tspan><tspan x="13056.1" y="355.247">silently </tspan><tspan x="13161.3" y="355.247">support </tspan><tspan x="13271.3" y="355.247">the </tspan><tspan x="13332.9" y="355.247">system. </tspan><tspan x="12909" y="382.247">Furthermore, </tspan><tspan x="13062.8" y="382.247">the </tspan><tspan x="13106.4" y="382.247">harmony </tspan><tspan x="13212.8" y="382.247">of </tspan><tspan x="13243.2" y="382.247">yin </tspan><tspan x="13285.8" y="382.247">and </tspan><tspan x="13335.7" y="382.247">yang </tspan><tspan x="13397" y="382.247">is </tspan><tspan x="12909" y="409.247">in </tspan><tspan x="12944.6" y="409.247">the </tspan><tspan x="12993.8" y="409.247">architectural </tspan><tspan x="13146.3" y="409.247">style, </tspan><tspan x="13217.8" y="409.247">and </tspan><tspan x="13273.2" y="409.247">a </tspan><tspan x="13300.3" y="409.247">precarious </tspan><tspan x="12909" y="436.247">balance </tspan><tspan x="12999.5" y="436.247">is </tspan><tspan x="13023.5" y="436.247">achieved </tspan><tspan x="13126.4" y="436.247">in </tspan><tspan x="13154.6" y="436.247">their </tspan><tspan x="13212.8" y="436.247">society.</tspan></text><text fill="black" xml:space="preserve" style="white-space: pre" font-family="Charter" font-size="25" letter-spacing="0em"><tspan x="11621" y="656.747">Jake </tspan><tspan x="11680.6" y="656.747">controls </tspan><tspan x="11778.5" y="656.747">the </tspan><tspan x="11823.8" y="656.747">only </tspan><tspan x="11881.6" y="656.747">oil </tspan><tspan x="11919.7" y="656.747">system </tspan><tspan x="12004.4" y="656.747">in </tspan><tspan x="12036.3" y="656.747">the </tspan><tspan x="11621" y="683.747">post-apocalyptic </tspan><tspan x="11817.2" y="683.747">world </tspan><tspan x="11899.9" y="683.747">and </tspan><tspan x="11960.1" y="683.747">owns </tspan><tspan x="12036.3" y="683.747">the </tspan><tspan x="11621" y="710.747">majority </tspan><tspan x="11729.6" y="710.747">of </tspan><tspan x="11768.5" y="710.747">the </tspan><tspan x="11820.6" y="710.747">human </tspan><tspan x="11914.4" y="710.747">population </tspan><tspan x="12049.8" y="710.747">in </tspan><tspan x="11621" y="737.747">North </tspan><tspan x="11702" y="737.747">America. </tspan><tspan x="11816.5" y="737.747">Jake </tspan><tspan x="11883.2" y="737.747">employs </tspan><tspan x="11991" y="737.747">the </tspan><tspan x="12043.5" y="737.747">oil </tspan><tspan x="11621" y="764.747">resource </tspan><tspan x="11726" y="764.747">to </tspan><tspan x="11760.2" y="764.747">keep </tspan><tspan x="11823.9" y="764.747">Fidelia </tspan><tspan x="11909.9" y="764.747">under </tspan><tspan x="11986.8" y="764.747">control. </tspan><tspan x="11621" y="791.747">When </tspan><tspan x="11697.8" y="791.747">the </tspan><tspan x="11745.6" y="791.747">empire </tspan><tspan x="11834.5" y="791.747">confines </tspan><tspan x="11937.9" y="791.747">people </tspan><tspan x="12023.5" y="791.747">to </tspan><tspan x="12058.3" y="791.747">a </tspan><tspan x="11621" y="818.747">state </tspan><tspan x="11683.1" y="818.747">of </tspan><tspan x="11715.1" y="818.747">bare </tspan><tspan x="11773.5" y="818.747">survival, </tspan><tspan x="11876.2" y="818.747">they </tspan><tspan x="11933.7" y="818.747">react </tspan><tspan x="11998.2" y="818.747">in </tspan><tspan x="12029.9" y="818.747">two </tspan><tspan x="11621" y="845.747">ways. </tspan><tspan x="11696.3" y="845.747">Fidelians </tspan><tspan x="11808.1" y="845.747">will </tspan><tspan x="11862.6" y="845.747">either </tspan><tspan x="11940.1" y="845.747">rise </tspan><tspan x="11993" y="845.747">against </tspan><tspan x="11621" y="872.747">the </tspan><tspan x="11670.8" y="872.747">selfish </tspan><tspan x="11754.4" y="872.747">leader </tspan><tspan x="11837.5" y="872.747">or </tspan><tspan x="11875.6" y="872.747">forget </tspan><tspan x="11955.4" y="872.747">everything </tspan><tspan x="11621" y="899.747">and </tspan><tspan x="11676.7" y="899.747">care </tspan><tspan x="11737" y="899.747">only </tspan><tspan x="11798.7" y="899.747">about </tspan><tspan x="11875.6" y="899.747">the </tspan><tspan x="11925" y="899.747">few </tspan><tspan x="11979.2" y="899.747">valuable </tspan><tspan x="11621" y="926.747">items </tspan><tspan x="11691.7" y="926.747">they </tspan><tspan x="11750.8" y="926.747">receive. </tspan><tspan x="11846.6" y="926.747">Fidelia&apos;s </tspan><tspan x="11946.5" y="926.747">lower </tspan><tspan x="12020.1" y="926.747">class </tspan><tspan x="11621" y="953.747">citizens </tspan><tspan x="11723.9" y="953.747">do </tspan><tspan x="11772.6" y="953.747">not </tspan><tspan x="11829.8" y="953.747">have </tspan><tspan x="11902.4" y="953.747">the </tspan><tspan x="11958.3" y="953.747">luxury </tspan><tspan x="12049.5" y="953.747">of </tspan><tspan x="11621" y="980.747">focusing </tspan><tspan x="11720.8" y="980.747">on </tspan><tspan x="11757.1" y="980.747">other </tspan><tspan x="11823.4" y="980.747">issues. </tspan><tspan x="11902.5" y="980.747">Their </tspan><tspan x="11969" y="980.747">only </tspan><tspan x="12024.7" y="980.747">goal </tspan><tspan x="11621" y="1007.75">is </tspan><tspan x="11645" y="1007.75">to </tspan><tspan x="11673.8" y="1007.75">survive.</tspan></text><path d="M11615.5 625H12092.5" stroke="black"/><path d="M12900 454H13405" stroke="black"/><rect x="11811" y="300" width="1398" height="445" fill="url(#img1671272215712_pattern42)"/><rect x="10703" y="742" width="846" height="299" fill="url(#img1671272215712_pattern43)"/><rect x="11149" y="121" width="349" height="374" fill="url(#img1671272215712_pattern44)"/><rect x="11020" y="121" width="113" height="374" fill="url(#img1671272215712_pattern45)"/><rect x="10717" y="43" width="303" height="676" fill="url(#img1671272215712_pattern46)"/><text fill="white" xml:space="preserve" style="white-space: pre" font-family="Charter" font-size="25" letter-spacing="0em"><tspan x="9865" y="934.747">The workers are represented in the lower left corner of the logo, the </tspan><tspan x="9865" y="961.747">pipe that distributes the oil is represented in the middle, and the </tspan><tspan x="9865" y="988.747">armies and soldiers are represented in the right corner of the logo. </tspan><tspan x="9865" y="1015.75">These three bars are assisting Fidelion.</tspan></text><text fill="white" xml:space="preserve" style="white-space: pre" font-family="Charter" font-size="25" letter-spacing="0em"><tspan x="10196" y="541.747">The central part of the logo is like 
</tspan><tspan x="10196" y="568.747">the heart of Fidelion, an empire 
</tspan><tspan x="10196" y="595.747">dominated by the upper class.</tspan></text><text fill="white" xml:space="preserve" style="white-space: pre" font-family="Charter" font-size="25" letter-spacing="0em"><tspan x="9996" y="128.747">The upper part of the logo is the oil factory, </tspan><tspan x="9996" y="155.747">where Fidelia is developing and pumping oil </tspan><tspan x="9996" y="182.747">from the ground underneath.</tspan></text><path d="M9674 887L9831.5 954" stroke="white" stroke-width="2"/><path d="M10186.2 403L10331.7 493.146" stroke="white" stroke-width="2"/><path d="M9840 205.42L9974 153" stroke="white" stroke-width="2"/><rect x="9579" y="236" width="577" height="619" fill="url(#img1671272215712_pattern47)"/><text fill="white" xml:space="preserve" style="white-space: pre" font-family="Charter" font-size="25" letter-spacing="0em"><tspan x="8948" y="460.747">In Fidelia, there is no such thing as a </tspan><tspan x="8948" y="487.747">middle class. There are only upper </tspan><tspan x="8948" y="514.747">and lower classes, with Jake’s desire </tspan><tspan x="8948" y="541.747">to separate himself from the lower </tspan><tspan x="8948" y="568.747">class and prevent the lower class </tspan><tspan x="8948" y="595.747">citizens from crossing over. The army </tspan><tspan x="8948" y="622.747">created this rule to show the city they </tspan><tspan x="8948" y="649.747">are more robust and are elevating to </tspan><tspan x="8948" y="676.747">the top.</tspan></text><rect x="8303" y="84" width="598" height="938" fill="url(#img1671272215712_pattern48)"/><text fill="white" xml:space="preserve" style="white-space: pre" font-family="Charter" font-size="25" letter-spacing="0em"><tspan x="7486" y="442.747">Jake and Jake’s followers discovered that oil would be </tspan><tspan x="7486" y="469.747">the most crucial resource for the current human </tspan><tspan x="7486" y="496.747">population. With powerful EMPs from the nuclear war, </tspan><tspan x="7486" y="523.747">all electronic devices lost their functions, and most pre-</tspan><tspan x="7486" y="550.747">war internal combustion engines that used electronic </tspan><tspan x="7486" y="577.747">devices could not be used. Fortunately, machines with </tspan><tspan x="7486" y="604.747">mechanical control devices preserved knowledge, and </tspan><tspan x="7486" y="631.747">older engines were installed. Production was also </tspan><tspan x="7486" y="658.747">possible. Naturally, the survival of humanity’s interest </tspan><tspan x="7486" y="685.747">was to secure ‘fuel’ to run the engine along with food </tspan><tspan x="7486" y="712.747">production.
</tspan><tspan x="7486" y="739.747">
</tspan><tspan x="7486" y="766.747">After a long journey, Jake and his followers finally </tspan><tspan x="7486" y="793.747">established a new civilization by restarting oil drilling </tspan><tspan x="7486" y="820.747">activities. The settlement of their new journey caused a </tspan><tspan x="7486" y="847.747">massive upheaval by a group of bandits and gangsters. </tspan><tspan x="7486" y="874.747">They threatened and defeated Jake’s new home by </tspan><tspan x="7486" y="901.747">attacking the villagers and stealing their valuables. </tspan><tspan x="7486" y="928.747">Through various strategies and the motivation of </tspan><tspan x="7486" y="955.747">vengeance. Jake led his small group of army and decided </tspan><tspan x="7486" y="982.747">to bring back justice. Furthermore, Jake gained support </tspan><tspan x="7486" y="1009.75">from his villagers. Jake decided to use every strength </tspan><tspan x="7486" y="1036.75">within his ability to advance toward his dreams.</tspan></text><rect x="6350" y="13" width="1098" height="1080" fill="url(#img1671272215712_pattern49)"/><text fill="white" xml:space="preserve" style="white-space: pre" font-family="Helvetica Neue" font-size="155" font-weight="bold" letter-spacing="0em"><tspan x="6474" y="740.245">New
</tspan><tspan x="6474" y="873.245">Journey
</tspan><tspan x="6474" y="1006.24">Begins</tspan></text><rect x="5493" y="442" width="792" height="499" fill="url(#img1671272215712_pattern50)"/><text fill="white" xml:space="preserve" style="white-space: pre" font-family="Charter" font-size="25" letter-spacing="0em"><tspan x="5494" y="258.747">One day, a riot breaks out inside the underworld due to a </tspan><tspan x="5494" y="285.747">shortage of resources. Although he didn’t mean to, Jake </tspan><tspan x="5494" y="312.747">unintentionally plays the role of the person who started the </tspan><tspan x="5494" y="339.747">riot and became the rebels’ leader. He eventually emerges </tspan><tspan x="5494" y="366.747">from the underworld with remaining supplies and weapons </tspan><tspan x="5494" y="393.747">with people who follow him.</tspan></text><rect x="4106" y="13" width="1335" height="1080" fill="url(#img1671272215712_pattern51)"/><text fill="white" xml:space="preserve" style="white-space: pre" font-family="Charter" font-size="25" letter-spacing="0em"><tspan x="4194" y="266.747">When a nuclear war broke out while Jake was 5 years old, </tspan><tspan x="4194" y="293.747">Jake and his parents took refuge in an underground bunker, </tspan><tspan x="4194" y="320.747">where they spent 15 years under strict control.
</tspan><tspan x="4194" y="347.747">
</tspan><tspan x="4194" y="374.747">Jake was not the brightest kid of his age before, but through </tspan><tspan x="4194" y="401.747">this tragic event of humanity, he lost his smile, childhood, and </tspan><tspan x="4194" y="428.747">happiness. From then on, he didn’t understand the meaning of </tspan><tspan x="4194" y="455.747">life.</tspan></text><text fill="white" xml:space="preserve" style="white-space: pre" font-family="Charter" font-size="25" letter-spacing="0em"><tspan x="2892" y="923.747">His bizarre thinking manifested in deformed ways, such as mistreating </tspan><tspan x="2892" y="950.747">insects and animals. On the other hand, Jake was sharp-witted, had a </tspan><tspan x="2892" y="977.747">clear mind, and had a keen interest in and talent for art. His favorite </tspan><tspan x="2892" y="1004.75">musical piece was Beethoven’s sole opera, “Fidelio,” which his mother </tspan><tspan x="2892" y="1031.75">used to play frequently.</tspan></text><text fill="white" xml:space="preserve" style="white-space: pre" font-family="Charter" font-size="25" letter-spacing="0em"><tspan x="2892" y="732.747">Before the war, Jake Marcus was an average kid growing up in a </tspan><tspan x="2892" y="759.747">wealthy family background. Jake was raised with higher-level ideas and </tspan><tspan x="2892" y="786.747">aristocratic-centered views; he found it difficult and was reluctant to </tspan><tspan x="2892" y="813.747">interact with regular people. During his formative years, he struggled </tspan><tspan x="2892" y="840.747">with confusion about justice and was mainly preoccupied with </tspan><tspan x="2892" y="867.747">determining his life’s worth.</tspan></text><rect x="2892" y="50" width="626" height="640" fill="url(#img1671272215712_pattern52)"/><rect x="1999" y="13" width="787" height="1080" fill="url(#img1671272215712_pattern53)"/><rect x="1270" y="13" width="657" height="1080" fill="url(#img1671272215712_pattern54)"/><text fill="white" xml:space="preserve" style="white-space: pre" font-family="Charter" font-size="25" letter-spacing="0em"><tspan x="1068" y="335.247">2024 was when the world lost it’s hope.
</tspan><tspan x="1068" y="365.247">
</tspan><tspan x="1068" y="395.247">Due to the indiscriminate bombing of </tspan><tspan x="1068" y="425.247">nuclear weapons, the world was </tspan><tspan x="1068" y="455.247">transformed into a significantly different </tspan><tspan x="1068" y="485.247">form. The system that created the society </tspan><tspan x="1068" y="515.247">and civilization was not working. The </tspan><tspan x="1068" y="545.247">world entered an era of lawlessness.
</tspan><tspan x="1068" y="575.247">
</tspan><tspan x="1068" y="605.247">The survivors are struggling continuously, </tspan><tspan x="1068" y="635.247">and 94% of humanity has gone through </tspan><tspan x="1068" y="665.247">hell from the post-war. Those who </tspan><tspan x="1068" y="695.247">survived by entering the underground </tspan><tspan x="1068" y="725.247">bunker by chance or thorough </tspan><tspan x="1068" y="755.247">preparation continued their desperation </tspan><tspan x="1068" y="785.247">to survive.
</tspan><tspan x="1068" y="815.247">
</tspan><tspan x="1068" y="845.247">Historically, war is always affected by </tspan><tspan x="1068" y="875.247">anger, but the pain lasts forever.</tspan></text><path d="M1037.5 0.5V1202" stroke="white"/><text fill="white" xml:space="preserve" style="white-space: pre" font-family="Helvetica Neue" font-size="45" letter-spacing="0em"><tspan x="146" y="1033.63">Scroll &amp; Drag.</tspan></text><rect x="284" y="150" width="581" height="801" fill="url(#img1671272215712_pattern55)"/><text fill="white" xml:space="preserve" style="white-space: pre" font-family="Helvetica Neue" font-size="45" letter-spacing="0em"><tspan x="146" y="92.6275">Fidelion</tspan></text><defs><pattern id="img1671272215712_pattern0" patternContentUnits="objectBoundingBox" width="1" height="1"><use xlink:href="#image0_450_655" transform="translate(0 -0.00146146) scale(0.000438596 0.00145141)"/></pattern><pattern id="img1671272215712_pattern1" patternContentUnits="objectBoundingBox" width="1" height="1"><use xlink:href="#image0_450_655" transform="translate(0 -0.00174951) scale(0.000438596 0.00145224)"/></pattern><pattern id="img1671272215712_pattern2" patternContentUnits="objectBoundingBox" width="1" height="1"><use xlink:href="#image1_450_655" transform="scale(0.000670241 0.000625838)"/></pattern><pattern id="img1671272215712_pattern3" patternContentUnits="objectBoundingBox" width="1" height="1"><use xlink:href="#image0_450_655" transform="translate(0 -0.00146146) scale(0.000438596 0.00145141)"/></pattern><pattern id="img1671272215712_pattern4" patternContentUnits="objectBoundingBox" width="1" height="1"><use xlink:href="#image2_450_655" transform="scale(0.000521921 0.00119617)"/></pattern><pattern id="img1671272215712_pattern5" patternContentUnits="objectBoundingBox" width="1" height="1"><use xlink:href="#image3_450_655" transform="translate(0 -0.000469638) scale(0.000545852 0.00103403)"/></pattern><pattern id="img1671272215712_pattern6" patternContentUnits="objectBoundingBox" width="1" height="1"><use xlink:href="#image4_450_655" transform="scale(0.0019305 0.000776398)"/></pattern><pattern id="img1671272215712_pattern7" patternContentUnits="objectBoundingBox" width="1" height="1"><use xlink:href="#image5_450_655" transform="scale(0.00110865 0.00127226)"/></pattern><pattern id="img1671272215712_pattern8" patternContentUnits="objectBoundingBox" width="1" height="1"><use xlink:href="#image6_450_655" transform="translate(-0.00201074) scale(0.00108426 0.00100705)"/></pattern><pattern id="img1671272215712_pattern9" patternContentUnits="objectBoundingBox" width="1" height="1"><use xlink:href="#image7_450_655" transform="scale(0.000404858 0.000564972)"/></pattern><pattern id="img1671272215712_pattern10" patternContentUnits="objectBoundingBox" width="1" height="1"><use xlink:href="#image8_450_655" transform="scale(0.00103306 0.0015873)"/></pattern><pattern id="img1671272215712_pattern11" patternContentUnits="objectBoundingBox" width="1" height="1"><use xlink:href="#image6_450_655" transform="translate(-0.00201074) scale(0.00108426 0.00100705)"/></pattern><pattern id="img1671272215712_pattern12" patternContentUnits="objectBoundingBox" width="1" height="1"><use xlink:href="#image9_450_655" transform="scale(0.000438657 0.00144718)"/></pattern><pattern id="img1671272215712_pattern13" patternContentUnits="objectBoundingBox" width="1" height="1"><use xlink:href="#image10_450_655" transform="translate(0 -0.000735545) scale(0.000722543 0.00075412)"/></pattern><pattern id="img1671272215712_pattern14" patternContentUnits="objectBoundingBox" width="1" height="1"><use xlink:href="#image6_450_655" transform="translate(-0.00090059) scale(0.00108186 0.00100705)"/></pattern><pattern id="img1671272215712_pattern15" patternContentUnits="objectBoundingBox" width="1" height="1"><use xlink:href="#image6_450_655" transform="translate(-0.00090059) scale(0.00108186 0.00100705)"/></pattern><pattern id="img1671272215712_pattern16" patternContentUnits="objectBoundingBox" width="1" height="1"><use xlink:href="#image10_450_655" transform="translate(0 -0.000735545) scale(0.000722543 0.00075412)"/></pattern><pattern id="img1671272215712_pattern17" patternContentUnits="objectBoundingBox" width="1" height="1"><use xlink:href="#image11_450_655" transform="scale(0.00118203 0.00172414)"/></pattern><pattern id="img1671272215712_pattern18" patternContentUnits="objectBoundingBox" width="1" height="1"><use xlink:href="#image12_450_655" transform="translate(0 -0.000283757) scale(0.000606061 0.000259147)"/></pattern><pattern id="img1671272215712_pattern19" patternContentUnits="objectBoundingBox" width="1" height="1"><use xlink:href="#image0_450_655" transform="translate(0 -0.0023015) scale(0.000438596 0.00145384)"/></pattern><pattern id="img1671272215712_pattern20" patternContentUnits="objectBoundingBox" width="1" height="1"><use xlink:href="#image13_450_655" transform="translate(-0.00135898) scale(0.00108285 0.00100705)"/></pattern><pattern id="img1671272215712_pattern21" patternContentUnits="objectBoundingBox" width="1" height="1"><use xlink:href="#image14_450_655" transform="scale(0.000244152 0.00127065)"/></pattern><pattern id="img1671272215712_pattern22" patternContentUnits="objectBoundingBox" width="1" height="1"><use xlink:href="#image15_450_655" transform="translate(-7.8561e-05 -0.0222222) scale(0.000261411 0.000461341)"/></pattern><pattern id="img1671272215712_pattern23" patternContentUnits="objectBoundingBox" width="1" height="1"><use xlink:href="#image16_450_655" transform="scale(0.000713267 0.001002)"/></pattern><pattern id="img1671272215712_pattern24" patternContentUnits="objectBoundingBox" width="1" height="1"><use xlink:href="#image17_450_655" transform="translate(0 -0.0161002) scale(0.000367918 0.000894454)"/></pattern><pattern id="img1671272215712_pattern25" patternContentUnits="objectBoundingBox" width="1" height="1"><use xlink:href="#image18_450_655" transform="translate(-0.000625931 -0.012037) scale(0.000415285 0.000406056)"/></pattern><pattern id="img1671272215712_pattern26" patternContentUnits="objectBoundingBox" width="1" height="1"><use xlink:href="#image6_450_655" transform="translate(0 -0.0068551) scale(0.00107991 0.00150249)"/></pattern><pattern id="img1671272215712_pattern27" patternContentUnits="objectBoundingBox" width="1" height="1"><use xlink:href="#image6_450_655" transform="translate(0 -0.00463728) scale(0.00107991 0.00101639)"/></pattern><pattern id="img1671272215712_pattern28" patternContentUnits="objectBoundingBox" width="1" height="1"><use xlink:href="#image6_450_655" transform="translate(0 -0.00463728) scale(0.00107991 0.00101639)"/></pattern><pattern id="img1671272215712_pattern29" patternContentUnits="objectBoundingBox" width="1" height="1"><use xlink:href="#image6_450_655" transform="translate(0 -0.00463728) scale(0.00107991 0.00101639)"/></pattern><pattern id="img1671272215712_pattern30" patternContentUnits="objectBoundingBox" width="1" height="1"><use xlink:href="#image6_450_655" transform="translate(0 -0.00463728) scale(0.00107991 0.00101639)"/></pattern><pattern id="img1671272215712_pattern31" patternContentUnits="objectBoundingBox" width="1" height="1"><use xlink:href="#image6_450_655" transform="translate(0 -0.00463728) scale(0.00107991 0.00101639)"/></pattern><pattern id="img1671272215712_pattern32" patternContentUnits="objectBoundingBox" width="1" height="1"><use xlink:href="#image6_450_655" transform="translate(0 -0.00463728) scale(0.00107991 0.00101639)"/></pattern><pattern id="img1671272215712_pattern33" patternContentUnits="objectBoundingBox" width="1" height="1"><use xlink:href="#image6_450_655" transform="translate(0 -0.00463728) scale(0.00107991 0.00101639)"/></pattern><pattern id="img1671272215712_pattern34" patternContentUnits="objectBoundingBox" width="1" height="1"><use xlink:href="#image6_450_655" transform="translate(0 -0.00463728) scale(0.00107991 0.00101639)"/></pattern><pattern id="img1671272215712_pattern35" patternContentUnits="objectBoundingBox" width="1" height="1"><use xlink:href="#image6_450_655" transform="translate(0 -0.00463728) scale(0.00107991 0.00101639)"/></pattern><pattern id="img1671272215712_pattern36" patternContentUnits="objectBoundingBox" width="1" height="1"><use xlink:href="#image6_450_655" transform="translate(0 -0.00463728) scale(0.00107991 0.00101639)"/></pattern><pattern id="img1671272215712_pattern37" patternContentUnits="objectBoundingBox" width="1" height="1"><use xlink:href="#image6_450_655" transform="translate(0 -0.00463728) scale(0.00107991 0.00101639)"/></pattern><pattern id="img1671272215712_pattern38" patternContentUnits="objectBoundingBox" width="1" height="1"><use xlink:href="#image6_450_655" transform="translate(0 -0.177851) scale(0.00107991 0.00119163)"/></pattern><pattern id="img1671272215712_pattern39" patternContentUnits="objectBoundingBox" width="1" height="1"><use xlink:href="#image9_450_655" transform="translate(-0.000328756) scale(0.000438885 0.00144718)"/></pattern><pattern id="img1671272215712_pattern40" patternContentUnits="objectBoundingBox" width="1" height="1"><use xlink:href="#image19_450_655" transform="scale(0.00031275 0.000390168)"/></pattern><pattern id="img1671272215712_pattern41" patternContentUnits="objectBoundingBox" width="1" height="1"><use xlink:href="#image20_450_655" transform="translate(-5.10681e-05 -0.0111111) scale(0.000368769 0.000300137)"/></pattern><pattern id="img1671272215712_pattern42" patternContentUnits="objectBoundingBox" width="1" height="1"><use xlink:href="#image21_450_655" transform="translate(-0.00030907) scale(0.000244292 0.00076746)"/></pattern><pattern id="img1671272215712_pattern43" patternContentUnits="objectBoundingBox" width="1" height="1"><use xlink:href="#image22_450_655" transform="scale(0.00058709 0.00166113)"/></pattern><pattern id="img1671272215712_pattern44" patternContentUnits="objectBoundingBox" width="1" height="1"><use xlink:href="#image6_450_655" transform="translate(0 -0.00033639) scale(0.00107991 0.00100773)"/></pattern><pattern id="img1671272215712_pattern45" patternContentUnits="objectBoundingBox" width="1" height="1"><use xlink:href="#image23_450_655" transform="translate(-0.00154091) scale(0.00145164 0.000438596)"/></pattern><pattern id="img1671272215712_pattern46" patternContentUnits="objectBoundingBox" width="1" height="1"><use xlink:href="#image24_450_655" transform="scale(0.00165017 0.000739645)"/></pattern><pattern id="img1671272215712_pattern47" patternContentUnits="objectBoundingBox" width="1" height="1"><use xlink:href="#image25_450_655" transform="scale(0.000866551 0.000807754)"/></pattern><pattern id="img1671272215712_pattern48" patternContentUnits="objectBoundingBox" width="1" height="1"><use xlink:href="#image26_450_655" transform="scale(0.00083612 0.000533049)"/></pattern><pattern id="img1671272215712_pattern49" patternContentUnits="objectBoundingBox" width="1" height="1"><use xlink:href="#image27_450_655" transform="translate(0 -0.00648148) scale(0.000455373 0.000462963)"/></pattern><pattern id="img1671272215712_pattern50" patternContentUnits="objectBoundingBox" width="1" height="1"><use xlink:href="#image28_450_655" transform="scale(0.000631313 0.001002)"/></pattern><pattern id="img1671272215712_pattern51" patternContentUnits="objectBoundingBox" width="1" height="1"><use xlink:href="#image29_450_655" transform="translate(0 -0.0907407) scale(0.000374532 0.000462963)"/></pattern><pattern id="img1671272215712_pattern52" patternContentUnits="objectBoundingBox" width="1" height="1"><use xlink:href="#image30_450_655" transform="translate(0 -0.0083321) scale(0.000788022 0.000770784)"/></pattern><pattern id="img1671272215712_pattern53" patternContentUnits="objectBoundingBox" width="1" height="1"><use xlink:href="#image31_450_655" transform="translate(0 -0.00740741) scale(0.000635324 0.000462963)"/></pattern><pattern id="img1671272215712_pattern54" patternContentUnits="objectBoundingBox" width="1" height="1"><use xlink:href="#image32_450_655" transform="translate(0 -0.0240741) scale(0.000761035 0.000462963)"/></pattern><pattern id="img1671272215712_pattern55" patternContentUnits="objectBoundingBox" width="1" height="1"><use xlink:href="#image33_450_655" transform="scale(0.000860585 0.00062422)"/></pattern><image id="image0_450_655" width="2280" height="691" xlink:href="/story/2/1.png"/><image id="image1_450_655" width="1492" height="1598" xlink:href="/story/2/2.png"/><image id="image2_450_655" width="1916" height="836" xlink:href="/story/2/3.png"/><image id="image3_450_655" width="1832" height="968" xlink:href="/story/2/4.png"/><image id="image4_450_655" width="518" height="1288" xlink:href="/story/2/5.png"/><image id="image5_450_655" width="902" height="786" xlink:href="/story/2/6.png"/><image id="image6_450_655" width="926" height="993" xlink:href="/story/2/7.png"/><image id="image7_450_655" width="2470" height="1770" xlink:href="/story/2/8.png"/><image id="image8_450_655" width="968" height="630" xlink:href="/story/2/9.png"/><image id="image9_450_655" width="2280" height="691" xlink:href="/story/2/10.png"/><image id="image10_450_655" width="1384" height="1328" xlink:href="/story/2/11.png"/><image id="image11_450_655" width="846" height="580" xlink:href="/story/2/12.png"/><image id="image12_450_655" width="1650" height="3861" xlink:href="/story/2/13.png"/><image id="image13_450_655" width="926" height="993" xlink:href="/story/2/14.png"/><image id="image14_450_655" width="4096" height="787" xlink:href="/story/2/15.png"/><image id="image15_450_655" width="3826" height="2284" xlink:href="/story/2/16.png"/><image id="image16_450_655" width="1402" height="1000" xlink:href="/story/2/17.png"/><image id="image17_450_655" width="2718" height="1136" xlink:href="/story/2/18.png"/><image id="image18_450_655" width="2411" height="2522" xlink:href="/story/2/19.png"/><image id="image19_450_655" width="3198" height="2563" xlink:href="/story/2/20.png"/><image id="image20_450_655" width="2712" height="3375" xlink:href="/story/2/21.png"/><image id="image21_450_655" width="4096" height="1303" xlink:href="/story/2/22.png"/><image id="image22_450_655" width="1704" height="602" xlink:href="/story/2/23.png"/><image id="image23_450_655" width="691" height="2280" xlink:href="/story/2/24.png"/><image id="image24_450_655" width="606" height="1352" xlink:href="/story/2/25.png"/><image id="image25_450_655" width="1154" height="1238" xlink:href="/story/2/26.png"/><image id="image26_450_655" width="1196" height="1876" xlink:href="/story/2/27.png"/><image id="image27_450_655" width="2196" height="2192" xlink:href="/story/2/28.png"/><image id="image28_450_655" width="1584" height="998" xlink:href="/story/2/29.png"/><image id="image29_450_655" width="2670" height="2440" xlink:href="/story/2/30.png"/><image id="image30_450_655" width="1269" height="1319" xlink:href="/story/2/31.png"/><image id="image31_450_655" width="1574" height="2192" xlink:href="/story/2/32.png"/><image id="image32_450_655" width="1314" height="2320" xlink:href="/story/2/33.png"/><image id="image33_450_655" width="1162" height="1602" xlink:href="/story/2/34.png"/></defs></svg>