<svg width="32161" height="1080" viewBox="0 0 32161 1080" fill="none" xmlns="http://www.w3.org/2000/svg" xmlns:xlink="http://www.w3.org/1999/xlink"><rect width="1920" height="1080" fill="black"/><rect x="865" width="31296" height="1080" fill="black"/><rect x="25544" width="4694" height="1080" fill="white"/><rect x="10677" width="3894" height="1080" fill="white"/><image x="31699" y="1046" width="1006" height="304" transform="rotate(-90 31699 1046)" fill="url(#img1672752897799_pattern0)" xlink:href="/story/2/1.png" preserveAspectRatio="xMidYMid slice"/><image x="30829" y="833" width="745" height="225" fill="url(#img1672752897799_pattern1)" xlink:href="/story/2/1.png" preserveAspectRatio="xMidYMid slice"/><image x="30828" y="21" width="747" height="800" fill="url(#img1672752897799_pattern2)" xlink:href="/story/2/2.png" preserveAspectRatio="xMidYMid slice"/><text transform="translate(30743 1060) rotate(-90)" fill="white" xml:space="preserve" style="white-space: pre" font-family="Helvetica" font-size="67" font-weight="bold" letter-spacing="0em"><tspan x="0" y="59.613">New beginnings</tspan></text><image x="30389" y="1046" width="1006" height="304" transform="rotate(-90 30389 1046)" fill="url(#img1672752897799_pattern3)" xlink:href="/story/2/1.png" preserveAspectRatio="xMidYMid slice"/><image x="29126" y="647" width="958" height="418" fill="url(#img1672752897799_pattern4)" xlink:href="/story/2/3.png" preserveAspectRatio="xMidYMid slice"/><text fill="black" xml:space="preserve" style="white-space: pre" font-family="Charter" font-size="25" letter-spacing="0em"><tspan x="29112" y="579.747">In the story of Fidelion, soldiers and harriers wear gas masks either to </tspan><tspan x="29112" y="606.747">protect their identity from severe consequences or to instill fear in their </tspan><tspan x="29112" y="633.747">enemies. The color red is associated with death, blood, and war.</tspan></text><image x="29119" y="15" width="1004" height="530" fill="url(#img1672752897799_pattern5)" xlink:href="/story/2/4.png" preserveAspectRatio="xMidYMid slice"/><image x="28825" y="436" width="259" height="644" fill="url(#img1672752897799_pattern6)" xlink:href="/story/2/5.png" preserveAspectRatio="xMidYMid slice"/><text fill="black" xml:space="preserve" style="white-space: pre" font-family="Charter" font-size="25" letter-spacing="0em"><tspan x="28298.2" y="842.747">In Fidelia, gas masks can symbolize either the </tspan><tspan x="28337.9" y="869.747">dehumanized, uniformed, oppressive, and </tspan><tspan x="28391.6" y="896.747">nefarious individuals and regimes, or </tspan><tspan x="28364.3" y="923.747">individuals who dissent from the power </tspan><tspan x="28347" y="950.747">structure. The use of gas masks in Fidelia </tspan><tspan x="28286.7" y="977.747">evokes feelings of dread and the implication of </tspan><tspan x="28479" y="1004.75">violence and potential doom.</tspan></text><image x="28326" y="410" width="451" height="393" fill="url(#img1672752897799_pattern7)" xlink:href="/story/2/6.png" preserveAspectRatio="xMidYMid slice"/><text fill="black" xml:space="preserve" style="white-space: pre" font-family="JACKPORT REGULAR NCV" font-size="200" letter-spacing="0em"><tspan x="28672" y="409.4">Fs8</tspan></text><image x="28358" y="86" width="300" height="323" fill="url(#img1672752897799_pattern8)" xlink:href="/story/2/7.png" preserveAspectRatio="xMidYMid slice"/><text fill="black" xml:space="preserve" style="white-space: pre" font-family="Charter" font-size="25" letter-spacing="0em"><tspan x="27510" y="61.7468">This two-legged beast serves as a significant addition to the </tspan><tspan x="27510" y="88.7468">Fidelian Empire&apos;s arsenal, equipped with a single extended </tspan><tspan x="27510" y="115.747">cannon and two beaming lights on the front. It is powered by </tspan><tspan x="27510" y="142.747">engine and diesel and is used by the Fidelian Empire in their </tspan><tspan x="27510" y="169.747">battles against their enemies.</tspan></text><image x="26996" y="170" width="1235" height="885" fill="url(#img1672752897799_pattern9)" xlink:href="/story/2/8.png" preserveAspectRatio="xMidYMid slice"/><text fill="black" xml:space="preserve" style="white-space: pre" font-family="Charter" font-size="25" letter-spacing="0em"><tspan x="26468" y="921.747">Under Jake&apos;s command, an aide and brilliant engineer </tspan><tspan x="26468" y="948.747">developed even more advanced military technology, </tspan><tspan x="26468" y="975.747">eventually creating a powerful and destructive bipedal </tspan><tspan x="26468" y="1002.75">weapon known as the Titan.</tspan></text><image x="26566" y="540" width="484" height="315" fill="url(#img1672752897799_pattern10)" xlink:href="/story/2/9.png" preserveAspectRatio="xMidYMid slice"/><text fill="black" xml:space="preserve" style="white-space: pre" font-family="JACKPORT REGULAR NCV" font-size="200" letter-spacing="0em"><tspan x="26866" y="409.4">17sp</tspan></text><image x="26555" y="86" width="300.929" height="324" fill="url(#img1672752897799_pattern11)" xlink:href="/story/2/7.png" preserveAspectRatio="xMidYMid slice"/><image x="25619" y="827" width="739" height="224" fill="url(#img1672752897799_pattern12)" xlink:href="/story/2/10.png" preserveAspectRatio="xMidYMid slice"/><image x="25978" y="420" width="406" height="389" fill="url(#img1672752897799_pattern13)" xlink:href="/story/2/11.png" preserveAspectRatio="xMidYMid slice"/><image x="25620" y="428" width="350" height="376" fill="url(#img1672752897799_pattern14)" xlink:href="/story/2/7.png" preserveAspectRatio="xMidYMid slice"/><image x="26008" y="42" width="350" height="376" fill="url(#img1672752897799_pattern15)" xlink:href="/story/2/7.png" preserveAspectRatio="xMidYMid slice"/><image x="25589" y="30" width="406" height="389" fill="url(#img1672752897799_pattern16)" xlink:href="/story/2/11.png" preserveAspectRatio="xMidYMid slice"/><text fill="white" xml:space="preserve" style="white-space: pre" font-family="Charter" font-size="25" letter-spacing="0em"><tspan x="25062" y="637.747">In the background of this powerful </tspan><tspan x="25062" y="664.747">military regime, General Rowan Frederik </tspan><tspan x="25062" y="691.747">and General Celine Adelle played </tspan><tspan x="25062" y="718.747">prominent roles.
</tspan><tspan x="25062" y="745.747">
</tspan><tspan x="25062" y="772.747">Rowan had served as Jake&apos;s right-hand </tspan><tspan x="25062" y="799.747">man even before the war and is still </tspan><tspan x="25062" y="826.747">considered the best tactician in the </tspan><tspan x="25062" y="853.747">Fidelian Empire.
</tspan><tspan x="25062" y="880.747">
</tspan><tspan x="25062" y="907.747">Celine, who was discovered in a small </tspan><tspan x="25062" y="934.747">village, caught Jake&apos;s attention and </tspan><tspan x="25062" y="961.747">quickly rose to prominence in Fidelia </tspan><tspan x="25062" y="988.747">despite having no military experience.</tspan></text><image x="25110" y="313" width="423" height="290" fill="url(#img1672752897799_pattern17)" xlink:href="/story/2/12.png" preserveAspectRatio="xMidYMid slice"/><text fill="white" xml:space="preserve" style="white-space: pre" font-family="Charter" font-size="25" letter-spacing="0em"><tspan x="25067" y="88.7468">For years, the Fidelian Empire ruled </tspan><tspan x="25067" y="115.747">through fear, intimidation, and tyranny, </tspan><tspan x="25067" y="142.747">using highly trained soldiers to establish </tspan><tspan x="25067" y="169.747">dominance across North America. With </tspan><tspan x="25067" y="196.747">the support of powerful allies such as the </tspan><tspan x="25067" y="223.747">Kossacks and Hunters, Jake Marcus&apos; </tspan><tspan x="25067" y="250.747">regime was unstoppable, and no one </tspan><tspan x="25067" y="277.747">dared to challenge it.</tspan></text><image x="24600" y="30" width="437" height="1022" fill="url(#img1672752897799_pattern18)" xlink:href="/story/2/13.png" preserveAspectRatio="xMidYMid slice"/><image x="24275" y="1045" width="1011" height="305" transform="rotate(-90 24275 1045)" fill="url(#img1672752897799_pattern19)" xlink:href="/story/2/1.png" preserveAspectRatio="xMidYMid slice"/><text fill="white" xml:space="preserve" style="white-space: pre" font-family="Charter" font-size="25" letter-spacing="0em"><tspan x="22558" y="957.747">The Fidelian army is well-trained and prepared to face any threat. However, the general public&apos;s understanding of </tspan><tspan x="22558" y="984.747">the Fidelian military is limited to what they have been taught. The Fidelian army has its own unique culture, </tspan><tspan x="22558" y="1011.75">language, and military practices, and may seem overwhelming, strict, and intimidating to those who have had </tspan><tspan x="22558" y="1038.75">little or no exposure to military culture.</tspan></text><image x="22442" y="941" width="93" height="100" fill="url(#img1672752897799_pattern20)" xlink:href="/story/2/14.png" preserveAspectRatio="xMidYMid slice"/><image x="19745" y="151" width="4075" height="783" fill="url(#img1672752897799_pattern21)" xlink:href="/story/2/15.png" preserveAspectRatio="xMidYMid slice"/><image x="17440" width="1906" height="1080" fill="url(#img1672752897799_pattern22)" xlink:href="/story/2/16.png" preserveAspectRatio="xMidYMid slice"/><text fill="white" xml:space="preserve" style="white-space: pre" font-family="Charter" font-size="25" letter-spacing="0em"><tspan x="17634" y="548.747">Fidelion is organized as a vertical society, with social </tspan><tspan x="17634" y="575.747">status determined by one&apos;s position on the ladder. It </tspan><tspan x="17634" y="602.747">serves as both a fort and an oil drilling device, standing </tspan><tspan x="17634" y="629.747">at the center of Fidelia and supported by three pillars. It </tspan><tspan x="17634" y="656.747">continuously extracts oil, which is considered as </tspan><tspan x="17634" y="683.747">valuable as gold by Jake Marcus and everyone else.
</tspan><tspan x="17634" y="710.747">
</tspan><tspan x="17634" y="737.747">The Jake&apos;s room is located in the middle and top of </tspan><tspan x="17634" y="764.747">Fidelion, respectively, and Jake can oversee the city and </tspan><tspan x="17634" y="791.747">its people from his balcony. From this vantage point, he </tspan><tspan x="17634" y="818.747">makes announcements, lives extravagantly, and wields </tspan><tspan x="17634" y="845.747">control over this engineering masterpiece.</tspan></text><text fill="white" xml:space="preserve" style="white-space: pre" font-family="Charter" font-size="25" letter-spacing="0em"><tspan x="16556" y="702.747">To achieve this, he began raiding surrounding villages and forcing them to </tspan><tspan x="16556" y="729.747">join his army and work for him. Although people noticed that his greed had </tspan><tspan x="16556" y="756.747">become excessive, they still followed him due to his effective leadership.
</tspan><tspan x="16556" y="783.747">
</tspan><tspan x="16556" y="810.747">
</tspan><tspan x="16556" y="837.747">Over time, Jake began to treat the villages as colonies, attacking and </tspan><tspan x="16556" y="864.747">annexing them, forcing the men to become slaves and soldiers, and the </tspan><tspan x="16556" y="891.747">women and children to become workers and slaves.</tspan></text><image x="15809" y="581" width="701" height="499" fill="url(#img1672752897799_pattern23)" xlink:href="/story/2/17.png" preserveAspectRatio="xMidYMid slice"/><image x="16067" width="1359" height="559" fill="url(#img1672752897799_pattern24)" xlink:href="/story/2/18.png" preserveAspectRatio="xMidYMid slice"/><text fill="white" xml:space="preserve" style="white-space: pre" font-family="Charter" font-size="25" letter-spacing="0em"><tspan x="15725.4" y="184.747">The oil city of Texas that Jake </tspan><tspan x="15695.2" y="211.747">discovered was thriving and had </tspan><tspan x="15797.8" y="238.747">experienced significant </tspan><tspan x="15673.4" y="265.747">improvement, entering a period of </tspan><tspan x="15893.4" y="292.747">stable growth.
</tspan><tspan x="16049" y="319.747">
</tspan><tspan x="15699.4" y="346.747">However, as he grew older, Jake </tspan><tspan x="15660.6" y="373.747">wanted more and sought to acquire </tspan><tspan x="15730.1" y="400.747">military power and advanced </tspan><tspan x="15651.1" y="427.747">technology to protect his people and </tspan><tspan x="15939.5" y="454.747">resources.</tspan></text><image x="14561" width="1056" height="1080" fill="url(#img1672752897799_pattern25)" xlink:href="/story/2/19.png" preserveAspectRatio="xMidYMid slice"/><image x="14469" y="1034" width="64" height="46" fill="url(#img1672752897799_pattern26)" xlink:href="/story/2/7.png" preserveAspectRatio="xMidYMid slice"/><image x="14469" y="947" width="64" height="68" fill="url(#img1672752897799_pattern27)" xlink:href="/story/2/7.png" preserveAspectRatio="xMidYMid slice"/><image x="14469" y="860" width="64" height="68" fill="url(#img1672752897799_pattern28)" xlink:href="/story/2/7.png" preserveAspectRatio="xMidYMid slice"/><image x="14469" y="773" width="64" height="68" fill="url(#img1672752897799_pattern29)" xlink:href="/story/2/7.png" preserveAspectRatio="xMidYMid slice"/><image x="14469" y="686" width="64" height="68" fill="url(#img1672752897799_pattern30)" xlink:href="/story/2/7.png" preserveAspectRatio="xMidYMid slice"/><image x="14469" y="599" width="64" height="68" fill="url(#img1672752897799_pattern31)" xlink:href="/story/2/7.png" preserveAspectRatio="xMidYMid slice"/><image x="14469" y="512" width="64" height="68" fill="url(#img1672752897799_pattern32)" xlink:href="/story/2/7.png" preserveAspectRatio="xMidYMid slice"/><image x="14469" y="425" width="64" height="68" fill="url(#img1672752897799_pattern33)" xlink:href="/story/2/7.png" preserveAspectRatio="xMidYMid slice"/><image x="14469" y="338" width="64" height="68" fill="url(#img1672752897799_pattern34)" xlink:href="/story/2/7.png" preserveAspectRatio="xMidYMid slice"/><image x="14469" y="251" width="64" height="68" fill="url(#img1672752897799_pattern35)" xlink:href="/story/2/7.png" preserveAspectRatio="xMidYMid slice"/><image x="14469" y="164" width="64" height="68" fill="url(#img1672752897799_pattern36)" xlink:href="/story/2/7.png" preserveAspectRatio="xMidYMid slice"/><image x="14469" y="77" width="64" height="68" fill="url(#img1672752897799_pattern37)" xlink:href="/story/2/7.png" preserveAspectRatio="xMidYMid slice"/><image x="14469" width="64" height="58" fill="url(#img1672752897799_pattern38)" xlink:href="/story/2/7.png" preserveAspectRatio="xMidYMid slice"/><text fill="black" xml:space="preserve" style="white-space: pre" font-family="Helvetica" font-size="23" letter-spacing="0.215em"><tspan x="13834" y="1047.43">Directed by Hokyo Lim</tspan></text><image x="13556" y="747" width="887" height="269" fill="url(#img1672752897799_pattern39)" xlink:href="/story/2/10.png" preserveAspectRatio="xMidYMid slice"/><image x="13556" y="38" width="887" height="711" fill="url(#img1672752897799_pattern40)" xlink:href="/story/2/20.png" preserveAspectRatio="xMidYMid slice"/><image x="12072" width="879" height="1080" fill="url(#img1672752897799_pattern41)" xlink:href="/story/2/21.png" preserveAspectRatio="xMidYMid slice"/><text fill="black" xml:space="preserve" style="white-space: pre" font-family="Charter" font-size="25" letter-spacing="0em"><tspan x="12909" y="58.7468">There </tspan><tspan x="12979.5" y="58.7468">are </tspan><tspan x="13021.4" y="58.7468">many </tspan><tspan x="13089" y="58.7468">types </tspan><tspan x="13153.2" y="58.7468">of </tspan><tspan x="13182" y="58.7468">balance </tspan><tspan x="13272.9" y="58.7468">in </tspan><tspan x="13301.5" y="58.7468">the </tspan><tspan x="13343.5" y="58.7468">world, </tspan><tspan x="12909" y="85.7468">such </tspan><tspan x="12981.1" y="85.7468">as </tspan><tspan x="13026.5" y="85.7468">up </tspan><tspan x="13077.1" y="85.7468">and </tspan><tspan x="13140.7" y="85.7468">down, </tspan><tspan x="13231.4" y="85.7468">rich </tspan><tspan x="13295.9" y="85.7468">and </tspan><tspan x="13359.5" y="85.7468">poor, </tspan><tspan x="12909" y="112.747">coexistence </tspan><tspan x="13055" y="112.747">and </tspan><tspan x="13117.2" y="112.747">division, </tspan><tspan x="13230.6" y="112.747">and </tspan><tspan x="13292.8" y="112.747">order </tspan><tspan x="13373" y="112.747">and </tspan><tspan x="12909" y="139.747">chaos. </tspan><tspan x="13001.3" y="139.747">The </tspan><tspan x="13066.6" y="139.747">architecture </tspan><tspan x="13221.3" y="139.747">of </tspan><tspan x="13266.7" y="139.747">the </tspan><tspan x="13325.4" y="139.747">Fidelion </tspan><tspan x="12909" y="166.747">building </tspan><tspan x="13013.8" y="166.747">reflects </tspan><tspan x="13107" y="166.747">this </tspan><tspan x="13161" y="166.747">balance </tspan><tspan x="13259.1" y="166.747">by </tspan><tspan x="13299.5" y="166.747">embracing </tspan><tspan x="12909" y="193.747">and </tspan><tspan x="12957" y="193.747">accommodating </tspan><tspan x="13137.5" y="193.747">these </tspan><tspan x="13201.5" y="193.747">various </tspan><tspan x="13287.7" y="193.747">elements.
</tspan><tspan x="12909" y="220.747">
</tspan><tspan x="12909" y="247.747">At </tspan><tspan x="12948.8" y="247.747">first </tspan><tspan x="13007.5" y="247.747">glance, </tspan><tspan x="13100.8" y="247.747">the </tspan><tspan x="13151.4" y="247.747">cognitive </tspan><tspan x="13266.2" y="247.747">system, </tspan><tspan x="13363.1" y="247.747">class </tspan><tspan x="12909" y="274.747">society, </tspan><tspan x="13003.8" y="274.747">and </tspan><tspan x="13061.3" y="274.747">assigned </tspan><tspan x="13171.2" y="274.747">roles </tspan><tspan x="13240.1" y="274.747">in </tspan><tspan x="13277.8" y="274.747">Fidelia </tspan><tspan x="13367.9" y="274.747">may </tspan><tspan x="12909" y="301.747">appear </tspan><tspan x="12991.7" y="301.747">unstable </tspan><tspan x="13091.9" y="301.747">and </tspan><tspan x="13140.9" y="301.747">dangerous. </tspan><tspan x="13269.4" y="301.747">However, </tspan><tspan x="13379.3" y="301.747">the </tspan><tspan x="12909" y="328.747">balance </tspan><tspan x="13002.7" y="328.747">of </tspan><tspan x="13034.3" y="328.747">yin </tspan><tspan x="13078.1" y="328.747">and </tspan><tspan x="13129.2" y="328.747">yang </tspan><tspan x="13191.7" y="328.747">supports </tspan><tspan x="13295" y="328.747">the </tspan><tspan x="13339.9" y="328.747">system </tspan><tspan x="12909" y="355.747">from </tspan><tspan x="12977.4" y="355.747">within </tspan><tspan x="13063.6" y="355.747">and </tspan><tspan x="13120.9" y="355.747">can </tspan><tspan x="13175.2" y="355.747">also </tspan><tspan x="13234.7" y="355.747">be </tspan><tspan x="13276.7" y="355.747">seen </tspan><tspan x="13341.8" y="355.747">in </tspan><tspan x="13379.3" y="355.747">the </tspan><tspan x="12909" y="382.747">architectural </tspan><tspan x="13067" y="382.747">style, </tspan><tspan x="13144" y="382.747">achieving </tspan><tspan x="13267.7" y="382.747">a </tspan><tspan x="13300.3" y="382.747">precarious </tspan><tspan x="12909" y="409.747">balance </tspan><tspan x="12999.5" y="409.747">in </tspan><tspan x="13027.7" y="409.747">their </tspan><tspan x="13085.9" y="409.747">society.</tspan></text><text fill="black" xml:space="preserve" style="white-space: pre" font-family="Charter" font-size="25" letter-spacing="0em"><tspan x="11621" y="643.747">Jake </tspan><tspan x="11688.8" y="643.747">controls </tspan><tspan x="11794.8" y="643.747">one </tspan><tspan x="11853.6" y="643.747">of </tspan><tspan x="11893.9" y="643.747">the </tspan><tspan x="11947.4" y="643.747">biggest </tspan><tspan x="12043.5" y="643.747">oil </tspan><tspan x="11621" y="670.747">system </tspan><tspan x="11706.7" y="670.747">in </tspan><tspan x="11739.6" y="670.747">the </tspan><tspan x="11786" y="670.747">post-apocalyptic </tspan><tspan x="11974.6" y="670.747">world </tspan><tspan x="12049.8" y="670.747">in </tspan><tspan x="11621" y="697.747">North </tspan><tspan x="11694" y="697.747">America. </tspan><tspan x="11800.3" y="697.747">He </tspan><tspan x="11840.7" y="697.747">uses </tspan><tspan x="11896.9" y="697.747">the </tspan><tspan x="11941.3" y="697.747">oil </tspan><tspan x="11978.5" y="697.747">resource </tspan><tspan x="11621" y="724.747">to </tspan><tspan x="11653.4" y="724.747">maintain </tspan><tspan x="11761.3" y="724.747">control </tspan><tspan x="11849.1" y="724.747">over </tspan><tspan x="11907.4" y="724.747">Fidelia. </tspan><tspan x="11998.6" y="724.747">In </tspan><tspan x="12031.5" y="724.747">this </tspan><tspan x="11621" y="751.747">empire, </tspan><tspan x="11711.1" y="751.747">people </tspan><tspan x="11790.9" y="751.747">are </tspan><tspan x="11832.6" y="751.747">kept </tspan><tspan x="11887.2" y="751.747">in </tspan><tspan x="11915.6" y="751.747">a </tspan><tspan x="11935.5" y="751.747">state </tspan><tspan x="11994.3" y="751.747">of </tspan><tspan x="12023" y="751.747">bare </tspan><tspan x="11621" y="778.747">survival </tspan><tspan x="11713.2" y="778.747">and </tspan><tspan x="11761.2" y="778.747">they </tspan><tspan x="11815.2" y="778.747">react </tspan><tspan x="11876.2" y="778.747">in </tspan><tspan x="11904.4" y="778.747">two </tspan><tspan x="11952.4" y="778.747">ways.
</tspan><tspan x="11621" y="805.747">
</tspan><tspan x="11621" y="832.747">They </tspan><tspan x="11686.1" y="832.747">either </tspan><tspan x="11761.2" y="832.747">rise </tspan><tspan x="11811.4" y="832.747">up </tspan><tspan x="11850.9" y="832.747">against </tspan><tspan x="11940.3" y="832.747">their </tspan><tspan x="12003" y="832.747">leader </tspan><tspan x="11621" y="859.747">or </tspan><tspan x="11655.5" y="859.747">they </tspan><tspan x="11714.1" y="859.747">forget </tspan><tspan x="11790.4" y="859.747">their </tspan><tspan x="11853.2" y="859.747">other </tspan><tspan x="11922.4" y="859.747">concerns </tspan><tspan x="12030" y="859.747">and </tspan><tspan x="11621" y="886.747">focus </tspan><tspan x="11691" y="886.747">solely </tspan><tspan x="11766.3" y="886.747">on </tspan><tspan x="11807" y="886.747">the </tspan><tspan x="11854.8" y="886.747">few </tspan><tspan x="11907.4" y="886.747">valuable </tspan><tspan x="12012.3" y="886.747">items </tspan><tspan x="11621" y="913.747">they </tspan><tspan x="11678.4" y="913.747">receive. </tspan><tspan x="11772.6" y="913.747">The </tspan><tspan x="11824.3" y="913.747">lower </tspan><tspan x="11896.2" y="913.747">class </tspan><tspan x="11957.5" y="913.747">citizens </tspan><tspan x="12049.5" y="913.747">of </tspan><tspan x="11621" y="940.747">Fidelia </tspan><tspan x="11717.1" y="940.747">do </tspan><tspan x="11767.2" y="940.747">not </tspan><tspan x="11825.8" y="940.747">have </tspan><tspan x="11899.7" y="940.747">the </tspan><tspan x="11957" y="940.747">luxury </tspan><tspan x="12049.5" y="940.747">of </tspan><tspan x="11621" y="967.747">focusing </tspan><tspan x="11719.2" y="967.747">on </tspan><tspan x="11753.8" y="967.747">anything </tspan><tspan x="11856.8" y="967.747">other </tspan><tspan x="11921.5" y="967.747">than </tspan><tspan x="11977.8" y="967.747">survival.
</tspan></text><path d="M11615.5 612H12092.5" stroke="black"/><path d="M12900 441H13405" stroke="black"/><image x="11811" y="287" width="1398" height="445" fill="url(#img1672752897799_pattern42)" xlink:href="/story/2/22.png" preserveAspectRatio="xMidYMid slice"/><image x="10703" y="729" width="846" height="299" fill="url(#img1672752897799_pattern43)" xlink:href="/story/2/23.png" preserveAspectRatio="xMidYMid slice"/><image x="11149" y="108" width="349" height="374" fill="url(#img1672752897799_pattern44)" xlink:href="/story/2/7.png" preserveAspectRatio="xMidYMid slice"/><image x="11020" y="108" width="113" height="374" fill="url(#img1672752897799_pattern45)" xlink:href="/story/2/24.png" preserveAspectRatio="xMidYMid slice"/><image x="10717" y="30" width="303" height="676" fill="url(#img1672752897799_pattern46)" xlink:href="/story/2/25.png" preserveAspectRatio="xMidYMid slice"/><text fill="white" xml:space="preserve" style="white-space: pre" font-family="Charter" font-size="25" letter-spacing="0em"><tspan x="9865" y="921.747">The workers are depicted in the lower left corner of the logo, the </tspan><tspan x="9865" y="948.747">pipe that transports the oil is depicted in the middle, and the armies </tspan><tspan x="9865" y="975.747">and soldiers are depicted in the right corner. These three bars </tspan><tspan x="9865" y="1002.75">represent the support that Fidelion receives.</tspan></text><text fill="white" xml:space="preserve" style="white-space: pre" font-family="Charter" font-size="25" letter-spacing="0em"><tspan x="10196" y="528.747">The central part of the logo </tspan><tspan x="10196" y="555.747">represents the heart of Fidelion, an </tspan><tspan x="10196" y="582.747">empire ruled by the upper class.</tspan></text><text fill="white" xml:space="preserve" style="white-space: pre" font-family="Charter" font-size="25" letter-spacing="0em"><tspan x="9996" y="115.747">The upper part of the logo represents the oil </tspan><tspan x="9996" y="142.747">factory, where Fidelia extracts and processes </tspan><tspan x="9996" y="169.747">oil from the ground beneath it.</tspan></text><path d="M9674 874L9831.5 941" stroke="white" stroke-width="2"/><path d="M10186.2 390L10331.7 480.146" stroke="white" stroke-width="2"/><path d="M9840 192.42L9974 140" stroke="white" stroke-width="2"/><image x="9579" y="223" width="577" height="619" fill="url(#img1672752897799_pattern47)" xlink:href="/story/2/26.png" preserveAspectRatio="xMidYMid slice"/><text fill="white" xml:space="preserve" style="white-space: pre" font-family="Charter" font-size="25" letter-spacing="0em"><tspan x="8948" y="447.747">In Fidelia, there is a strict division </tspan><tspan x="8948" y="474.747">between the upper and lower classes, </tspan><tspan x="8948" y="501.747">with Jake&apos;s army working to keep the </tspan><tspan x="8948" y="528.747">lower class in its place and prevent </tspan><tspan x="8948" y="555.747">them from rising up. The army uses </tspan><tspan x="8948" y="582.747">this rule to demonstrate its strength </tspan><tspan x="8948" y="609.747">and superiority to the city.</tspan></text><image x="8303" y="71" width="598" height="938" fill="url(#img1672752897799_pattern48)" xlink:href="/story/2/27.png" preserveAspectRatio="xMidYMid slice"/><text fill="white" xml:space="preserve" style="white-space: pre" font-family="Charter" font-size="25" letter-spacing="0em"><tspan x="7486" y="429.747">Jake and his followers realized that oil would be a </tspan><tspan x="7486" y="456.747">crucial resource for the surviving human population. Due </tspan><tspan x="7486" y="483.747">to the powerful EMPs from the nuclear war, all electronic </tspan><tspan x="7486" y="510.747">devices had stopped functioning, and most pre-war </tspan><tspan x="7486" y="537.747">internal combustion engines that relied on electronic </tspan><tspan x="7486" y="564.747">devices could not be used. However, machines with </tspan><tspan x="7486" y="591.747">mechanical control devices had preserved knowledge, </tspan><tspan x="7486" y="618.747">and older engines could be installed and used for </tspan><tspan x="7486" y="645.747">production. Ensuring a supply of fuel to run these </tspan><tspan x="7486" y="672.747">engines, along with producing food, became a top </tspan><tspan x="7486" y="699.747">priority for the survival of humanity.
</tspan><tspan x="7486" y="726.747">
</tspan><tspan x="7486" y="753.747">After a long journey, Jake and his followers were able to </tspan><tspan x="7486" y="780.747">establish a new civilization by restarting oil drilling </tspan><tspan x="7486" y="807.747">operations. However, their settlement was disrupted by a </tspan><tspan x="7486" y="834.747">group of bandits and gangsters who threatened and </tspan><tspan x="7486" y="861.747">attacked their village, stealing valuable resources. </tspan><tspan x="7486" y="888.747">Determined to bring justice, Jake led a small group of </tspan><tspan x="7486" y="915.747">soldiers in a campaign against the bandits, using various </tspan><tspan x="7486" y="942.747">strategies and motivated by a desire for revenge. With </tspan><tspan x="7486" y="969.747">the support of the villagers, Jake used all of his strength </tspan><tspan x="7486" y="996.747">and abilities to achieve his goals.
</tspan></text><image x="6350" width="1098" height="1080" fill="url(#img1672752897799_pattern49)" xlink:href="/story/2/28.png" preserveAspectRatio="xMidYMid slice"/><text fill="white" xml:space="preserve" style="white-space: pre" font-family="Helvetica Neue" font-size="155" font-weight="bold" letter-spacing="0em"><tspan x="6474" y="727.245">New
</tspan><tspan x="6474" y="860.245">Journey
</tspan><tspan x="6474" y="993.245">Begins</tspan></text><image x="5493" y="429" width="792" height="499" fill="url(#img1672752897799_pattern50)" xlink:href="/story/2/29.png" preserveAspectRatio="xMidYMid slice"/><text fill="white" xml:space="preserve" style="white-space: pre" font-family="Charter" font-size="25" letter-spacing="0em"><tspan x="5494" y="260.747">One day, a riot broke out due to a shortage of resources. Jake, </tspan><tspan x="5494" y="287.747">who did not intend to cause the riot, ended up playing a role </tspan><tspan x="5494" y="314.747">in starting it and became the leader of the rebels. He emerged </tspan><tspan x="5494" y="341.747">from the bunker with some supplies and weapons, followed </tspan><tspan x="5494" y="368.747">by a group of people.</tspan></text><image x="4106" width="1335" height="1080" fill="url(#img1672752897799_pattern51)" xlink:href="/story/2/30.png" preserveAspectRatio="xMidYMid slice"/><text fill="white" xml:space="preserve" style="white-space: pre" font-family="Charter" font-size="25" letter-spacing="0em"><tspan x="4194" y="253.747">When Jake was five years old, a nuclear war broke out and he, </tspan><tspan x="4194" y="280.747">along with his parents, took refuge in an underground bunker </tspan><tspan x="4194" y="307.747">where they lived for 15 years under strict control.
</tspan><tspan x="4194" y="334.747">
</tspan><tspan x="4194" y="361.747">Jake was not the brightest kid of his age before, but through </tspan><tspan x="4194" y="388.747">this tragic event of humanity, he lost his smile, childhood, and </tspan><tspan x="4194" y="415.747">sense of happiness. From then on, he struggled to understand </tspan><tspan x="4194" y="442.747">the meaning of life.</tspan></text><text fill="white" xml:space="preserve" style="white-space: pre" font-family="Charter" font-size="25" letter-spacing="0em"><tspan x="2892" y="910.747">Jake&apos;s distorted thinking manifested in cruel behavior towards insects </tspan><tspan x="2892" y="937.747">and animals. However, he was also intelligent and had a natural talent </tspan><tspan x="2892" y="964.747">for art. He particularly enjoyed listening to Beethoven&apos;s only opera, </tspan><tspan x="2892" y="991.747">&quot;Fidelio,&quot; which his mother often played for him.</tspan></text><text fill="white" xml:space="preserve" style="white-space: pre" font-family="Charter" font-size="25" letter-spacing="0em"><tspan x="2892" y="741.747">Before the war, Jake Marcus was a typical child from a wealthy family. </tspan><tspan x="2892" y="768.747">He was raised with a privileged perspective and had difficulty </tspan><tspan x="2892" y="795.747">connecting with people outside of his social circle. As he was growing </tspan><tspan x="2892" y="822.747">up, he grappled with questions about justice and struggled to find </tspan><tspan x="2892" y="849.747">purpose in life.</tspan></text><image x="2892" y="37" width="626" height="640" fill="url(#img1672752897799_pattern52)" xlink:href="/story/2/31.png" preserveAspectRatio="xMidYMid slice"/><image x="1999" width="787" height="1080" fill="url(#img1672752897799_pattern53)" xlink:href="/story/2/32.png" preserveAspectRatio="xMidYMid slice"/><image x="1270" width="657" height="1080" fill="url(#img1672752897799_pattern54)" xlink:href="/story/2/33.png" preserveAspectRatio="xMidYMid slice"/><text fill="white" xml:space="preserve" style="white-space: pre" font-family="Charter" font-size="25" letter-spacing="0em"><tspan x="1068" y="322.247">In 2024, the world lost hope.
</tspan><tspan x="1068" y="352.247">
</tspan><tspan x="1068" y="382.247">The indiscriminate use of nuclear </tspan><tspan x="1068" y="412.247">weapons had drastically changed the </tspan><tspan x="1068" y="442.247">world. The systems that supported society </tspan><tspan x="1068" y="472.247">and civilization were no longer </tspan><tspan x="1068" y="502.247">functioning, and the world was plunged </tspan><tspan x="1068" y="532.247">into a state of lawlessness.
</tspan><tspan x="1068" y="562.247">
</tspan><tspan x="1068" y="592.247">The survivors struggled to survive in the </tspan><tspan x="1068" y="622.247">aftermath of the war, and 94% of </tspan><tspan x="1068" y="652.247">humanity suffered greatly. Some were </tspan><tspan x="1068" y="682.247">lucky enough to find shelter in </tspan><tspan x="1068" y="712.247">underground bunkers, while others had </tspan><tspan x="1068" y="742.247">prepared in advance, but all were </tspan><tspan x="1068" y="772.247">desperate to survive
</tspan><tspan x="1068" y="802.247">
</tspan><tspan x="1068" y="832.247">War is often fueled by anger, but the pain </tspan><tspan x="1068" y="862.247">it causes lasts forever.&quot;</tspan></text><path d="M1037.5 0V1080" stroke="white"/><text fill="white" xml:space="preserve" style="white-space: pre" font-family="Helvetica Neue" font-size="45" letter-spacing="0em"><tspan x="146" y="1020.63">Scroll &amp; Drag.</tspan></text><image x="284" y="137" width="581" height="801" fill="url(#img1672752897799_pattern55)" xlink:href="/story/2/34.png" preserveAspectRatio="xMidYMid slice"/><text fill="white" xml:space="preserve" style="white-space: pre" font-family="Helvetica Neue" font-size="45" letter-spacing="0em"><tspan x="146" y="79.6275">Fidelion</tspan></text><defs><pattern id="img1672752897799_pattern0" patternContentUnits="objectBoundingBox" width="1" height="1"><use xlink:href="#image0_450_655" transform="translate(0 -0.00146146) scale(0.000438596 0.00145141)"/></pattern><pattern id="img1672752897799_pattern1" patternContentUnits="objectBoundingBox" width="1" height="1"><use xlink:href="#image0_450_655" transform="translate(0 -0.00174951) scale(0.000438596 0.00145224)"/></pattern><pattern id="img1672752897799_pattern2" patternContentUnits="objectBoundingBox" width="1" height="1"><use xlink:href="#image1_450_655" transform="scale(0.000670241 0.000625838)"/></pattern><pattern id="img1672752897799_pattern3" patternContentUnits="objectBoundingBox" width="1" height="1"><use xlink:href="#image0_450_655" transform="translate(0 -0.00146146) scale(0.000438596 0.00145141)"/></pattern><pattern id="img1672752897799_pattern4" patternContentUnits="objectBoundingBox" width="1" height="1"><use xlink:href="#image2_450_655" transform="scale(0.000521921 0.00119617)"/></pattern><pattern id="img1672752897799_pattern5" patternContentUnits="objectBoundingBox" width="1" height="1"><use xlink:href="#image3_450_655" transform="translate(0 -0.000469638) scale(0.000545852 0.00103403)"/></pattern><pattern id="img1672752897799_pattern6" patternContentUnits="objectBoundingBox" width="1" height="1"><use xlink:href="#image4_450_655" transform="scale(0.0019305 0.000776398)"/></pattern><pattern id="img1672752897799_pattern7" patternContentUnits="objectBoundingBox" width="1" height="1"><use xlink:href="#image5_450_655" transform="scale(0.00110865 0.00127226)"/></pattern><pattern id="img1672752897799_pattern8" patternContentUnits="objectBoundingBox" width="1" height="1"><use xlink:href="#image6_450_655" transform="translate(-0.00201074) scale(0.00108426 0.00100705)"/></pattern><pattern id="img1672752897799_pattern9" patternContentUnits="objectBoundingBox" width="1" height="1"><use xlink:href="#image7_450_655" transform="scale(0.000404858 0.000564972)"/></pattern><pattern id="img1672752897799_pattern10" patternContentUnits="objectBoundingBox" width="1" height="1"><use xlink:href="#image8_450_655" transform="scale(0.00103306 0.0015873)"/></pattern><pattern id="img1672752897799_pattern11" patternContentUnits="objectBoundingBox" width="1" height="1"><use xlink:href="#image6_450_655" transform="translate(-0.00201073) scale(0.00108426 0.00100705)"/></pattern><pattern id="img1672752897799_pattern12" patternContentUnits="objectBoundingBox" width="1" height="1"><use xlink:href="#image9_450_655" transform="scale(0.000438657 0.00144718)"/></pattern><pattern id="img1672752897799_pattern13" patternContentUnits="objectBoundingBox" width="1" height="1"><use xlink:href="#image10_450_655" transform="translate(0 -0.000735545) scale(0.000722543 0.00075412)"/></pattern><pattern id="img1672752897799_pattern14" patternContentUnits="objectBoundingBox" width="1" height="1"><use xlink:href="#image6_450_655" transform="translate(-0.00090059) scale(0.00108186 0.00100705)"/></pattern><pattern id="img1672752897799_pattern15" patternContentUnits="objectBoundingBox" width="1" height="1"><use xlink:href="#image6_450_655" transform="translate(-0.00090059) scale(0.00108186 0.00100705)"/></pattern><pattern id="img1672752897799_pattern16" patternContentUnits="objectBoundingBox" width="1" height="1"><use xlink:href="#image10_450_655" transform="translate(0 -0.000735545) scale(0.000722543 0.00075412)"/></pattern><pattern id="img1672752897799_pattern17" patternContentUnits="objectBoundingBox" width="1" height="1"><use xlink:href="#image11_450_655" transform="scale(0.00118203 0.00172414)"/></pattern><pattern id="img1672752897799_pattern18" patternContentUnits="objectBoundingBox" width="1" height="1"><use xlink:href="#image12_450_655" transform="translate(0 -0.000283757) scale(0.000606061 0.000259147)"/></pattern><pattern id="img1672752897799_pattern19" patternContentUnits="objectBoundingBox" width="1" height="1"><use xlink:href="#image0_450_655" transform="translate(0 -0.0023015) scale(0.000438596 0.00145384)"/></pattern><pattern id="img1672752897799_pattern20" patternContentUnits="objectBoundingBox" width="1" height="1"><use xlink:href="#image13_450_655" transform="translate(-0.00135898) scale(0.00108285 0.00100705)"/></pattern><pattern id="img1672752897799_pattern21" patternContentUnits="objectBoundingBox" width="1" height="1"><use xlink:href="#image14_450_655" transform="scale(0.000244152 0.00127065)"/></pattern><pattern id="img1672752897799_pattern22" patternContentUnits="objectBoundingBox" width="1" height="1"><use xlink:href="#image15_450_655" transform="translate(-7.8561e-05 -0.0222222) scale(0.000261411 0.000461341)"/></pattern><pattern id="img1672752897799_pattern23" patternContentUnits="objectBoundingBox" width="1" height="1"><use xlink:href="#image16_450_655" transform="scale(0.000713267 0.001002)"/></pattern><pattern id="img1672752897799_pattern24" patternContentUnits="objectBoundingBox" width="1" height="1"><use xlink:href="#image17_450_655" transform="translate(0 -0.0161002) scale(0.000367918 0.000894454)"/></pattern><pattern id="img1672752897799_pattern25" patternContentUnits="objectBoundingBox" width="1" height="1"><use xlink:href="#image18_450_655" transform="translate(-0.000625931 -0.012037) scale(0.000415285 0.000406056)"/></pattern><pattern id="img1672752897799_pattern26" patternContentUnits="objectBoundingBox" width="1" height="1"><use xlink:href="#image6_450_655" transform="translate(0 -0.0068551) scale(0.00107991 0.00150249)"/></pattern><pattern id="img1672752897799_pattern27" patternContentUnits="objectBoundingBox" width="1" height="1"><use xlink:href="#image6_450_655" transform="translate(0 -0.00463728) scale(0.00107991 0.00101639)"/></pattern><pattern id="img1672752897799_pattern28" patternContentUnits="objectBoundingBox" width="1" height="1"><use xlink:href="#image6_450_655" transform="translate(0 -0.00463728) scale(0.00107991 0.00101639)"/></pattern><pattern id="img1672752897799_pattern29" patternContentUnits="objectBoundingBox" width="1" height="1"><use xlink:href="#image6_450_655" transform="translate(0 -0.00463728) scale(0.00107991 0.00101639)"/></pattern><pattern id="img1672752897799_pattern30" patternContentUnits="objectBoundingBox" width="1" height="1"><use xlink:href="#image6_450_655" transform="translate(0 -0.00463728) scale(0.00107991 0.00101639)"/></pattern><pattern id="img1672752897799_pattern31" patternContentUnits="objectBoundingBox" width="1" height="1"><use xlink:href="#image6_450_655" transform="translate(0 -0.00463728) scale(0.00107991 0.00101639)"/></pattern><pattern id="img1672752897799_pattern32" patternContentUnits="objectBoundingBox" width="1" height="1"><use xlink:href="#image6_450_655" transform="translate(0 -0.00463728) scale(0.00107991 0.00101639)"/></pattern><pattern id="img1672752897799_pattern33" patternContentUnits="objectBoundingBox" width="1" height="1"><use xlink:href="#image6_450_655" transform="translate(0 -0.00463728) scale(0.00107991 0.00101639)"/></pattern><pattern id="img1672752897799_pattern34" patternContentUnits="objectBoundingBox" width="1" height="1"><use xlink:href="#image6_450_655" transform="translate(0 -0.00463728) scale(0.00107991 0.00101639)"/></pattern><pattern id="img1672752897799_pattern35" patternContentUnits="objectBoundingBox" width="1" height="1"><use xlink:href="#image6_450_655" transform="translate(0 -0.00463728) scale(0.00107991 0.00101639)"/></pattern><pattern id="img1672752897799_pattern36" patternContentUnits="objectBoundingBox" width="1" height="1"><use xlink:href="#image6_450_655" transform="translate(0 -0.00463728) scale(0.00107991 0.00101639)"/></pattern><pattern id="img1672752897799_pattern37" patternContentUnits="objectBoundingBox" width="1" height="1"><use xlink:href="#image6_450_655" transform="translate(0 -0.00463728) scale(0.00107991 0.00101639)"/></pattern><pattern id="img1672752897799_pattern38" patternContentUnits="objectBoundingBox" width="1" height="1"><use xlink:href="#image6_450_655" transform="translate(0 -0.177851) scale(0.00107991 0.00119163)"/></pattern><pattern id="img1672752897799_pattern39" patternContentUnits="objectBoundingBox" width="1" height="1"><use xlink:href="#image9_450_655" transform="translate(-0.000328756) scale(0.000438885 0.00144718)"/></pattern><pattern id="img1672752897799_pattern40" patternContentUnits="objectBoundingBox" width="1" height="1"><use xlink:href="#image19_450_655" transform="scale(0.00031275 0.000390168)"/></pattern><pattern id="img1672752897799_pattern41" patternContentUnits="objectBoundingBox" width="1" height="1"><use xlink:href="#image20_450_655" transform="translate(-5.10681e-05 -0.0111111) scale(0.000368769 0.000300137)"/></pattern><pattern id="img1672752897799_pattern42" patternContentUnits="objectBoundingBox" width="1" height="1"><use xlink:href="#image21_450_655" transform="translate(-0.00030907) scale(0.000244292 0.00076746)"/></pattern><pattern id="img1672752897799_pattern43" patternContentUnits="objectBoundingBox" width="1" height="1"><use xlink:href="#image22_450_655" transform="scale(0.00058709 0.00166113)"/></pattern><pattern id="img1672752897799_pattern44" patternContentUnits="objectBoundingBox" width="1" height="1"><use xlink:href="#image6_450_655" transform="translate(0 -0.00033639) scale(0.00107991 0.00100773)"/></pattern><pattern id="img1672752897799_pattern45" patternContentUnits="objectBoundingBox" width="1" height="1"><use xlink:href="#image23_450_655" transform="translate(-0.00154091) scale(0.00145164 0.000438596)"/></pattern><pattern id="img1672752897799_pattern46" patternContentUnits="objectBoundingBox" width="1" height="1"><use xlink:href="#image24_450_655" transform="scale(0.00165017 0.000739645)"/></pattern><pattern id="img1672752897799_pattern47" patternContentUnits="objectBoundingBox" width="1" height="1"><use xlink:href="#image25_450_655" transform="scale(0.000866551 0.000807754)"/></pattern><pattern id="img1672752897799_pattern48" patternContentUnits="objectBoundingBox" width="1" height="1"><use xlink:href="#image26_450_655" transform="scale(0.00083612 0.000533049)"/></pattern><pattern id="img1672752897799_pattern49" patternContentUnits="objectBoundingBox" width="1" height="1"><use xlink:href="#image27_450_655" transform="translate(0 -0.00648148) scale(0.000455373 0.000462963)"/></pattern><pattern id="img1672752897799_pattern50" patternContentUnits="objectBoundingBox" width="1" height="1"><use xlink:href="#image28_450_655" transform="scale(0.000631313 0.001002)"/></pattern><pattern id="img1672752897799_pattern51" patternContentUnits="objectBoundingBox" width="1" height="1"><use xlink:href="#image29_450_655" transform="translate(0 -0.0907407) scale(0.000374532 0.000462963)"/></pattern><pattern id="img1672752897799_pattern52" patternContentUnits="objectBoundingBox" width="1" height="1"><use xlink:href="#image30_450_655" transform="translate(0 -0.0083321) scale(0.000788022 0.000770784)"/></pattern><pattern id="img1672752897799_pattern53" patternContentUnits="objectBoundingBox" width="1" height="1"><use xlink:href="#image31_450_655" transform="translate(0 -0.00740741) scale(0.000635324 0.000462963)"/></pattern><pattern id="img1672752897799_pattern54" patternContentUnits="objectBoundingBox" width="1" height="1"><use xlink:href="#image32_450_655" transform="translate(0 -0.0240741) scale(0.000761035 0.000462963)"/></pattern><pattern id="img1672752897799_pattern55" patternContentUnits="objectBoundingBox" width="1" height="1"><use xlink:href="#image33_450_655" transform="scale(0.000860585 0.00062422)"/></pattern><image id="image0_450_655" width="2280" height="691" xlink:href="/story/2/1.png"/><image id="image1_450_655" width="1492" height="1598" xlink:href="/story/2/2.png"/><image id="image2_450_655" width="1916" height="836" xlink:href="/story/2/3.png"/><image id="image3_450_655" width="1832" height="968" xlink:href="/story/2/4.png"/><image id="image4_450_655" width="518" height="1288" xlink:href="/story/2/5.png"/><image id="image5_450_655" width="902" height="786" xlink:href="/story/2/6.png"/><image id="image6_450_655" width="926" height="993" xlink:href="/story/2/7.png"/><image id="image7_450_655" width="2470" height="1770" xlink:href="/story/2/8.png"/><image id="image8_450_655" width="968" height="630" xlink:href="/story/2/9.png"/><image id="image9_450_655" width="2280" height="691" xlink:href="/story/2/10.png"/><image id="image10_450_655" width="1384" height="1328" xlink:href="/story/2/11.png"/><image id="image11_450_655" width="846" height="580" xlink:href="/story/2/12.png"/><image id="image12_450_655" width="1650" height="3861" xlink:href="/story/2/13.png"/><image id="image13_450_655" width="926" height="993" xlink:href="/story/2/14.png"/><image id="image14_450_655" width="4096" height="787" xlink:href="/story/2/15.png"/><image id="image15_450_655" width="3826" height="2284" xlink:href="/story/2/16.png"/><image id="image16_450_655" width="1402" height="1000" xlink:href="/story/2/17.png"/><image id="image17_450_655" width="2718" height="1136" xlink:href="/story/2/18.png"/><image id="image18_450_655" width="2411" height="2522" xlink:href="/story/2/19.png"/><image id="image19_450_655" width="3198" height="2563" xlink:href="/story/2/20.png"/><image id="image20_450_655" width="2712" height="3375" xlink:href="/story/2/21.png"/><image id="image21_450_655" width="4096" height="1303" xlink:href="/story/2/22.png"/><image id="image22_450_655" width="1704" height="602" xlink:href="/story/2/23.png"/><image id="image23_450_655" width="691" height="2280" xlink:href="/story/2/24.png"/><image id="image24_450_655" width="606" height="1352" xlink:href="/story/2/25.png"/><image id="image25_450_655" width="1154" height="1238" xlink:href="/story/2/26.png"/><image id="image26_450_655" width="1196" height="1876" xlink:href="/story/2/27.png"/><image id="image27_450_655" width="2196" height="2192" xlink:href="/story/2/28.png"/><image id="image28_450_655" width="1584" height="998" xlink:href="/story/2/29.png"/><image id="image29_450_655" width="2670" height="2440" xlink:href="/story/2/30.png"/><image id="image30_450_655" width="1269" height="1319" xlink:href="/story/2/31.png"/><image id="image31_450_655" width="1574" height="2192" xlink:href="/story/2/32.png"/><image id="image32_450_655" width="1314" height="2320" xlink:href="/story/2/33.png"/><image id="image33_450_655" width="1162" height="1602" xlink:href="/story/2/34.png"/></defs></svg>