<svg width="10258" height="1080" viewBox="0 0 10258 1080" fill="none" xmlns="http://www.w3.org/2000/svg" xmlns:xlink="http://www.w3.org/1999/xlink"><g clip-path="url(#clip0_3813_71)"><rect width="10258" height="1080" fill="black"/><g clip-path="url(#clip1_3813_71)"><image width="2528" height="1080" fill="url(#img1719307912142_pattern0_3813_71)" xlink:href="/story/fidelion-6/1.png"/><text fill="white" xml:space="preserve" style="white-space: pre" font-family="Pretendard-Black" font-size="250" letter-spacing="0em"><tspan x="1181" y="916.867">Biography</tspan></text></g><path d="M3212.78 140V579.515C3211.89 705.094 3113.72 789.107 2973.1 789.107C2851.05 789.107 2751.12 728.086 2752.01 583.053H2920.04C2921.81 631.686 2944.81 657.338 2983.72 657.338C3022.63 657.338 3045.63 630.809 3046.51 579.515V140H3212.77H3212.78Z" fill="white"/><path d="M3196.62 780.257L3409.77 140H3638.83L3851.08 780.257H3669.78L3631.75 654.678H3416.84L3378.81 780.257H3196.62ZM3592.83 527.334L3526.5 312.44H3521.2L3455.75 527.334H3592.83Z" fill="white"/><path d="M3892.13 140H4060.16V401.764H4069L4267.11 140H4464.33L4244.99 425.642L4468.74 780.257H4267.1L4119.41 537.061L4060.15 613.11V780.248H3892.12V140H3892.13Z" fill="white"/><path d="M4494.77 140H4952V276.184H4662.8V392.037H4928.12V528.221H4662.8V644.073H4951.11V780.257H4494.77V140Z" fill="white"/><text fill="white" xml:space="preserve" style="white-space: pre" font-family="Noto Serif JP" font-size="25" letter-spacing="0em"><tspan x="2752" y="855.92">フィデリオン皇帝ジェイクは貴族の家庭に育った。あらゆる知識を素早く習得する才能に恵まれたジェイクは、特に母親からの英才教育を受けて育ち、その精神的な洞察力と芸術的才能が彼をユ</tspan><tspan x="2752" y="887.92">ニークなものにしました。彼には別の側面もありました。彼はまた、家族の祖先からの専制的な傾向と冷酷さを引き継ぎ、それが彼を自分の家族やペット以外の生活からやや遠ざけていました。多</tspan><tspan x="2752" y="919.92">忙で距離を置く父親と、家で孤独で孤独に悩む母親のもとで過ごした幼少期は、彼に複雑な影響を与えた。特に、幼いジェイクが母親の不倫を偶然目撃した日の記憶は、彼の女性観を揺るがすのに</tspan><tspan x="2752" y="951.92">十分だった。その結果、ジェイクは大人になっても真実の愛の感情を簡単に理解することができませんでした。彼にとって女性は常に謎めいた存在であり、彼の正直さと孤独の瞳に惹かれる多くの</tspan><tspan x="2752" y="983.92">女性がこの感情を共有している。彼は敏感な性格と不眠症と闘うためにアルコールとタバコを使用しており、政治や文化全般についてのインスピレーションを麻薬や女性に求めることもあります。</tspan></text><image x="6249" y="53" width="2178" height="974" fill="url(#img1719307912142_pattern1_3813_71)" xlink:href="/story/fidelion-6/2.png"/><text fill="white" xml:space="preserve" style="white-space: pre" font-family="Noto Serif JP" font-size="30" letter-spacing="0em"><tspan x="8232" y="788.975">氏名
</tspan><tspan x="8232" y="828.975">性別
</tspan><tspan x="8232" y="868.975">年齢
</tspan><tspan x="8232" y="908.975">国籍
</tspan><tspan x="8232" y="948.975">所属
</tspan><tspan x="8232" y="988.975">役職</tspan></text><text fill="white" xml:space="preserve" style="white-space: pre" font-family="Noto Serif JP" font-size="30" font-weight="600" letter-spacing="0em"><tspan x="8314" y="788.975">ジェイク・マーカス
</tspan><tspan x="8314" y="828.975">男性 
</tspan><tspan x="8314" y="868.975">30代
</tspan><tspan x="8314" y="908.975">イギリス
</tspan><tspan x="8314" y="948.975">アメリカ合衆国
</tspan><tspan x="8314" y="988.975">フィデリオン皇帝</tspan></text><text fill="white" xml:space="preserve" style="white-space: pre" font-family="Noto Serif JP" font-size="25" letter-spacing="0em"><tspan x="8931" y="331.812">彼は子供の頃から本にインスピレーションを受けており、大人になっても読書は彼の数少ない趣</tspan><tspan x="8931" y="363.812">味の </tspan><tspan x="8988.06" y="363.812">1 </tspan><tspan x="9006.44" y="363.812">つです。彼は自分の好みに合った本を見つけると、何日も続けて読んでしまうこともよく</tspan><tspan x="8931" y="395.812">あります。そのため知識レベルはフィデリア帝国随一とされており、口数の少ない彼が一度議論</tspan><tspan x="8931" y="427.812">を始めると論理を曲げられる人は多くない。彼は主に歴史、経済学、人類学、政治学に興味を</tspan><tspan x="8931" y="459.812">持っており、彼の崇拝者にはピカソ、ベートーベン、カール・ポパー、フリッツ・ハーバーが含</tspan><tspan x="8931" y="491.812">まれます。これらの過去の芸術家や学者から彼が受けたインスピレーションは、後にフィデリア</tspan><tspan x="8931" y="523.812">帝国の基礎となるイデオロギーの形成に役立ちました。特にカール・ポパーの『開かれた社会</tspan><tspan x="8931" y="555.812">論』は彼に最も影響を与えた本であり、『フィデリア』の初期の基本的な思想的枠組みはこれに</tspan><tspan x="8931" y="587.812">基づいていると言っても過言ではない。</tspan></text><text fill="white" xml:space="preserve" style="white-space: pre" font-family="Noto Serif JP" font-size="25" letter-spacing="0em"><tspan x="8931" y="646.812">ジェイクのオープンな社会主義は最終的には失敗する運命にあり、これを認識する過程で、彼は</tspan><tspan x="8931" y="678.812">人類への愛と信頼が完全に裏切られたと初めて感じます。この認識により、彼は大義を理解して</tspan><tspan x="8931" y="710.812">いない大衆のために適切な政治システムを組織する方法についてより深く考えることを余儀なく</tspan><tspan x="8931" y="742.812">され、その過程で、彼は存在することを知らなかった内なる狂気を発見します。初期の理想主義</tspan><tspan x="8931" y="774.812">によって腐敗したリーダー - ジェイクはフィデリオンが新しいアイデアとイデオロギーを必要と</tspan><tspan x="8931" y="806.812">していることに気づき、独裁制の確立を目指す運動であるフィデリズムを結成します。現在の政</tspan><tspan x="8931" y="838.812">治制度の下では、ジェイクにとって不可能なことは何もありません。しかし同時に、彼は自分の</tspan><tspan x="8931" y="870.812">知らない世界、外の敵、そして何よりも自分自身について常に恐れています。</tspan></text><image x="8570" y="51" width="224" height="1009" fill="url(#img1719307912142_pattern2_3813_71)" xlink:href="/story/fidelion-6/3.png"/><image x="5240" width="1087" height="1080" fill="url(#img1719307912142_pattern3_3813_71)" xlink:href="/story/fidelion-6/4.png"/></g><defs><pattern id="img1719307912142_pattern0_3813_71" patternContentUnits="objectBoundingBox" width="1" height="1"><use xlink:href="#image0_3813_71" transform="scale(0.00039557 0.000925926)"/></pattern><pattern id="img1719307912142_pattern1_3813_71" patternContentUnits="objectBoundingBox" width="1" height="1"><use xlink:href="#image1_3813_71" transform="scale(0.000459137 0.00102669)"/></pattern><pattern id="img1719307912142_pattern2_3813_71" patternContentUnits="objectBoundingBox" width="1" height="1"><use xlink:href="#image2_3813_71" transform="matrix(0.00109972 0 0 0.000244141 -0.00037384 0)"/></pattern><pattern id="img1719307912142_pattern3_3813_71" patternContentUnits="objectBoundingBox" width="1" height="1"><use xlink:href="#image3_3813_71" transform="scale(0.000333333 0.000335494)"/></pattern><clipPath id="clip0_3813_71"><rect width="10258" height="1080" fill="white"/></clipPath><clipPath id="clip1_3813_71"><rect width="2528" height="1080" fill="white"/></clipPath><image id="image0_3813_71" width="2528" height="1080" xlink:href="/story/fidelion-6/1.png"/><image id="image1_3813_71" width="2178" height="974" xlink:href="/story/fidelion-6/2.png"/><image id="image2_3813_71" width="910" height="4096" xlink:href="/story/fidelion-6/3.png"/><image id="image3_3813_71" width="3000" height="2981" xlink:href="/story/fidelion-6/4.png"/></defs></svg>