<svg width="8998" height="1080" viewBox="0 0 8998 1080" fill="none" xmlns="http://www.w3.org/2000/svg" xmlns:xlink="http://www.w3.org/1999/xlink"><g clip-path="url(#clip0_4038_458)"><rect width="8998" height="1080" fill="black"/><image x="1553" width="5744" height="1080" fill="url(#img1720084219212_pattern0_4038_458)" xlink:href="/story/fidelion-5-2/1.png"/><image x="4719" y="29" width="437" height="1022" fill="url(#img1720084219212_pattern1_4038_458)" xlink:href="/story/fidelion-5-2/2.png"/><text fill="white" xml:space="preserve" style="white-space: pre" font-family="Pretendard" font-size="25" letter-spacing="0em"><tspan x="5212.5" y="63.3867">다년간 </tspan><tspan x="5287.44" y="63.3867">피델리아 </tspan><tspan x="5383.98" y="63.3867">제국은 </tspan><tspan x="5458.92" y="63.3867">공포정치를 </tspan><tspan x="5577.07" y="63.3867">기반으로 </tspan><tspan x="5212.5" y="95.3867">한 </tspan><tspan x="5240.92" y="95.3867">정치체계를 </tspan><tspan x="5355.77" y="95.3867">기반으로 </tspan><tspan x="5449.01" y="95.3867">국가를 </tspan><tspan x="5520.65" y="95.3867">통치했으며, </tspan><tspan x="5641.89" y="95.3867">혹</tspan><tspan x="5212.5" y="127.387">독하게 </tspan><tspan x="5284.07" y="127.387">훈련을 </tspan><tspan x="5355.63" y="127.387">받은 </tspan><tspan x="5405.59" y="127.387">군인들을 </tspan><tspan x="5498.76" y="127.387">통해 </tspan><tspan x="5548.72" y="127.387">텍사스 </tspan><tspan x="5620.29" y="127.387">전역</tspan><tspan x="5212.5" y="159.387">에 </tspan><tspan x="5240.94" y="159.387">압도적인 </tspan><tspan x="5334.2" y="159.387">군사적 </tspan><tspan x="5405.86" y="159.387">우위를 </tspan><tspan x="5477.51" y="159.387">확립했다. </tspan><tspan x="5577.07" y="159.387">코삭스와 </tspan><tspan x="5212.5" y="191.387">헌터즈와 </tspan><tspan x="5305.67" y="191.387">같은 </tspan><tspan x="5355.63" y="191.387">동맹 </tspan><tspan x="5405.59" y="191.387">집단의 </tspan><tspan x="5477.16" y="191.387">지원까지 </tspan><tspan x="5570.33" y="191.387">가세한 </tspan><tspan x="5641.89" y="191.387">현 </tspan><tspan x="5212.5" y="223.387">시점에서 </tspan><tspan x="5305.67" y="223.387">제이크 </tspan><tspan x="5377.24" y="223.387">마커스의 </tspan><tspan x="5470.41" y="223.387">독재 </tspan><tspan x="5520.37" y="223.387">체제를 </tspan><tspan x="5591.93" y="223.387">막을 </tspan><tspan x="5641.89" y="223.387">수 </tspan><tspan x="5212.5" y="255.387">있는 </tspan><tspan x="5261.99" y="255.387">세력은 </tspan><tspan x="5333.08" y="255.387">존재하지 </tspan><tspan x="5425.78" y="255.387">않는 </tspan><tspan x="5475.27" y="255.387">것으로 </tspan><tspan x="5546.36" y="255.387">보인다.</tspan></text><g style="mix-blend-mode:lighten"><image x="5203" y="312" width="470" height="324" fill="url(#img1720084219212_pattern2_4038_458)" xlink:href="/story/fidelion-5-2/3.png"/></g><text fill="white" xml:space="preserve" style="white-space: pre" font-family="Pretendard" font-size="25" letter-spacing="0em"><tspan x="5217.5" y="710.387">강력한 </tspan><tspan x="5292.74" y="710.387">군사 </tspan><tspan x="5346.37" y="710.387">체제의 </tspan><tspan x="5421.6" y="710.387">중심에는 </tspan><tspan x="5518.44" y="710.387">유능한 </tspan><tspan x="5593.68" y="710.387">인재들</tspan><tspan x="5217.5" y="742.387">이 </tspan><tspan x="5245.63" y="742.387">큰 </tspan><tspan x="5273.77" y="742.387">역할을 </tspan><tspan x="5345.11" y="742.387">하는데, </tspan><tspan x="5422.86" y="742.387">이에는 </tspan><tspan x="5494.2" y="742.387">로안 </tspan><tspan x="5543.94" y="742.387">프레드릭 </tspan><tspan x="5636.89" y="742.387">장</tspan><tspan x="5217.5" y="774.387">군과 </tspan><tspan x="5266.99" y="774.387">셀린 </tspan><tspan x="5316.47" y="774.387">아델 </tspan><tspan x="5365.96" y="774.387">장군의 </tspan><tspan x="5437.06" y="774.387">역할이 </tspan><tspan x="5508.15" y="774.387">간과될 </tspan><tspan x="5579.24" y="774.387">수 </tspan><tspan x="5607.12" y="774.387">없다. </tspan><tspan x="5656.64" y="774.387">
</tspan><tspan x="5217.5" y="810.387">로안은 </tspan><tspan x="5292.74" y="810.387">제이크의 </tspan><tspan x="5389.58" y="810.387">오른팔로서 </tspan><tspan x="5508.03" y="810.387">오랜 </tspan><tspan x="5561.66" y="810.387">기간 </tspan><tspan x="5615.29" y="810.387">그를 </tspan><tspan x="5217.5" y="842.387">섬겨왔으며, </tspan><tspan x="5341.07" y="842.387">여전히 </tspan><tspan x="5415.02" y="842.387">피델리아 </tspan><tspan x="5510.59" y="842.387">제국 </tspan><tspan x="5562.94" y="842.387">최고의 </tspan><tspan x="5636.89" y="842.387">전</tspan><tspan x="5217.5" y="874.387">략가로 </tspan><tspan x="5289.95" y="874.387">여겨진다. </tspan><tspan x="5390.31" y="874.387">피델리아 </tspan><tspan x="5484.36" y="874.387">확장 </tspan><tspan x="5535.21" y="874.387">초기 </tspan><tspan x="5586.05" y="874.387">작은 </tspan><tspan x="5636.89" y="874.387">마</tspan><tspan x="5217.5" y="906.387">을에서 </tspan><tspan x="5289.76" y="906.387">강제 </tspan><tspan x="5340.41" y="906.387">징집된 </tspan><tspan x="5412.67" y="906.387">인원 </tspan><tspan x="5463.33" y="906.387">중 </tspan><tspan x="5492.37" y="906.387">하나인 </tspan><tspan x="5564.63" y="906.387">셀린은 </tspan><tspan x="5636.89" y="906.387">비</tspan><tspan x="5217.5" y="938.387">록 </tspan><tspan x="5247.79" y="938.387">군인으로서의 </tspan><tspan x="5386.11" y="938.387">경험이나 </tspan><tspan x="5481.21" y="938.387">정치 </tspan><tspan x="5533.11" y="938.387">지식 </tspan><tspan x="5585" y="938.387">등은 </tspan><tspan x="5636.89" y="938.387">매</tspan><tspan x="5217.5" y="970.387">우 </tspan><tspan x="5248.24" y="970.387">결여되었으나, </tspan><tspan x="5393.42" y="970.387">제이크의 </tspan><tspan x="5488.98" y="970.387">주목을 </tspan><tspan x="5562.94" y="970.387">받아 </tspan><tspan x="5615.29" y="970.387">누구</tspan><tspan x="5217.5" y="1002.39">보다도 </tspan><tspan x="5295.34" y="1002.39">빠르게 </tspan><tspan x="5373.18" y="1002.39">급성장한 </tspan><tspan x="5472.63" y="1002.39">명실상부 </tspan><tspan x="5572.07" y="1002.39">피델리아 </tspan><tspan x="5217.5" y="1034.39">최고 </tspan><tspan x="5266.99" y="1034.39">권력의 </tspan><tspan x="5338.08" y="1034.39">중심인물이 </tspan><tspan x="5452.39" y="1034.39">되었다.</tspan></text><path d="M7756 371.639V302.34L7674.67 259.795H7756V201.848H7649.26V173.265V167.003V164H7646.38H7639.96H7528.12H7525.24H7521.31L7524.59 166.221L7576.19 201.848H7465V259.795H7546.33L7465 302.34V384.559V475H7537.95V371.639H7489.62L7576.19 326.351V475H7649.26V328.702L7731.38 371.639H7683.05V475H7756V371.639Z" fill="white"/><path d="M7834.2 374.402V356.602H7815.2V394.802H7833.6V387.402H7847.6V418.402H7833.6V411.002H7815.2V448.002H7823.6V475.002H7784V448.002H7792.4V356.602H7784V329.602H7856.2V374.402H7834.2Z" fill="white"/><path d="M7937.6 455.602C7936.54 460.802 7934.47 465.002 7931.4 468.202C7928.47 471.268 7924.47 473.535 7919.4 475.002H7887C7881.94 473.535 7877.87 471.268 7874.8 468.202C7871.87 465.002 7869.87 460.802 7868.8 455.602V430.202H7891.4V442.602C7891.4 445.268 7891.87 447.068 7892.8 448.002C7893.87 448.802 7895 449.468 7896.2 450.002H7908.2C7909.4 449.468 7910.47 448.802 7911.4 448.002C7912.47 447.068 7913 445.268 7913 442.602L7913.2 439.002V430.402C7913.2 427.868 7912.94 426.068 7912.4 425.002C7912 423.935 7910.74 422.668 7908.6 421.202L7877.4 401.002C7875.14 399.402 7873 396.935 7871 393.602C7869.14 390.268 7868.2 386.468 7868.2 382.202V350.002C7868.74 347.068 7869.74 344.335 7871.2 341.802C7872.67 339.268 7874.34 337.135 7876.2 335.402C7878.2 333.535 7880.34 332.135 7882.6 331.202C7885 330.135 7887.34 329.602 7889.6 329.602H7907.6L7913.8 336.402V329.602H7937V374.402H7913.8V356.602H7897.2C7896 357.668 7895 358.802 7894.2 360.002C7893.54 361.068 7893.2 362.935 7893.2 365.602V379.202C7893.2 380.935 7893.47 382.335 7894 383.402C7894.67 384.468 7896.07 385.735 7898.2 387.202L7929.2 407.202C7931.74 408.935 7933.74 411.335 7935.2 414.402C7936.8 417.468 7937.6 420.335 7937.6 423.002V455.602Z" fill="white"/><path d="M7950.65 349.002C7951.72 343.802 7953.72 339.668 7956.65 336.602C7959.72 333.402 7963.78 331.068 7968.85 329.602H8000.65C8005.72 331.068 8009.72 333.402 8012.65 336.602C8015.72 339.668 8017.78 343.802 8018.85 349.002V392.402C8018.18 394.802 8017.12 396.802 8015.65 398.402C8014.18 400.002 8012.32 401.535 8010.05 403.002C8012.32 404.468 8014.18 406.002 8015.65 407.602C8017.12 409.202 8018.18 411.202 8018.85 413.602V455.602C8017.78 460.802 8015.72 465.002 8012.65 468.202C8009.72 471.268 8005.72 473.535 8000.65 475.002H7968.85C7963.78 473.535 7959.72 471.268 7956.65 468.202C7953.72 465.002 7951.72 460.802 7950.65 455.602V413.602C7951.32 411.202 7952.38 409.202 7953.85 407.602C7955.32 406.002 7957.18 404.468 7959.45 403.002C7957.18 401.535 7955.32 400.002 7953.85 398.402C7952.38 396.802 7951.32 394.802 7950.65 392.402V349.002ZM7973.25 440.602C7973.25 443.268 7973.72 445.068 7974.65 446.002C7975.72 446.802 7976.85 447.468 7978.05 448.002H7991.45C7992.65 447.468 7993.72 446.802 7994.65 446.002C7995.72 445.068 7996.25 443.268 7996.25 440.602V417.802C7995.98 415.135 7994.85 413.402 7992.85 412.602H7976.65C7974.65 413.402 7973.52 415.135 7973.25 417.802V440.602ZM7973.25 388.002C7973.52 390.668 7974.65 392.402 7976.65 393.202H7992.85C7994.85 392.402 7995.98 390.668 7996.25 388.002V364.002C7996.25 361.335 7995.72 359.602 7994.65 358.802C7993.72 357.868 7992.65 357.135 7991.45 356.602H7978.05C7976.85 357.135 7975.72 357.868 7974.65 358.802C7973.72 359.602 7973.25 361.335 7973.25 364.002V388.002Z" fill="white"/><text fill="white" xml:space="preserve" style="white-space: pre" font-family="Pretendard" font-size="25" letter-spacing="0em"><tspan x="7465" y="529.887">또한 피델리아의 군인은 적들에게 공포를 심어주기 위해 </tspan><tspan x="7465" y="559.887">붉은 가스 마스크를 착용하곤 한다. 빨간색은 죽음, 피, 그</tspan><tspan x="7465" y="589.887">리고 전쟁을 상징한다.</tspan></text><image x="2804" width="298" height="782" fill="url(#img1720084219212_pattern3_4038_458)" xlink:href="/story/fidelion-5-2/4.png"/><text fill="white" xml:space="preserve" style="white-space: pre" font-family="Pretendard" font-size="22" font-weight="bold" letter-spacing="0em"><tspan x="2827" y="73.8203">병사</tspan></text><text fill="white" xml:space="preserve" style="white-space: pre" font-family="Pretendard" font-size="50" font-weight="bold" letter-spacing="0em"><tspan x="2827" y="126.773">PRIVATE</tspan></text><text fill="white" xml:space="preserve" style="white-space: pre" font-family="Pretendard" font-size="20" letter-spacing="0em"><tspan x="2804" y="819.609">Sergeant</tspan></text><text fill="white" xml:space="preserve" style="white-space: pre" font-family="Pretendard" font-size="20" letter-spacing="0em"><tspan x="3067" y="819.609">병장</tspan></text><text fill="white" xml:space="preserve" style="white-space: pre" font-family="Pretendard" font-size="20" letter-spacing="0em"><tspan x="2804" y="842.609">Corporal</tspan></text><text fill="white" xml:space="preserve" style="white-space: pre" font-family="Pretendard" font-size="20" letter-spacing="0em"><tspan x="3067" y="842.609">상병</tspan></text><text fill="white" xml:space="preserve" style="white-space: pre" font-family="Pretendard" font-size="20" letter-spacing="0em"><tspan x="2804" y="865.609">Private First Class</tspan></text><text fill="white" xml:space="preserve" style="white-space: pre" font-family="Pretendard" font-size="20" letter-spacing="0em"><tspan x="3067" y="865.609">일병</tspan></text><text fill="white" xml:space="preserve" style="white-space: pre" font-family="Pretendard" font-size="20" letter-spacing="0em"><tspan x="2804" y="888.609">Private</tspan></text><text fill="white" xml:space="preserve" style="white-space: pre" font-family="Pretendard" font-size="20" letter-spacing="0em"><tspan x="3067" y="888.609">이병</tspan></text><image x="3434" width="298" height="782" fill="url(#img1720084219212_pattern4_4038_458)" xlink:href="/story/fidelion-5-2/5.png"/><text fill="white" xml:space="preserve" style="white-space: pre" font-family="Pretendard" font-size="22" font-weight="bold" letter-spacing="0em"><tspan x="3457" y="73.8203">위관</tspan></text><text fill="white" xml:space="preserve" style="white-space: pre" font-family="Pretendard" font-size="50" font-weight="bold" letter-spacing="0em"><tspan x="3457" y="126.773">COMPANY
</tspan><tspan x="3457" y="176.773">OFFICER</tspan></text><text fill="white" xml:space="preserve" style="white-space: pre" font-family="Pretendard" font-size="20" letter-spacing="0em"><tspan x="3434" y="819.609">Captain</tspan></text><text fill="white" xml:space="preserve" style="white-space: pre" font-family="Pretendard" font-size="20" letter-spacing="0em"><tspan x="3697" y="819.609">대위</tspan></text><text fill="white" xml:space="preserve" style="white-space: pre" font-family="Pretendard" font-size="20" letter-spacing="0em"><tspan x="3434" y="842.609">First Lieutenant</tspan></text><text fill="white" xml:space="preserve" style="white-space: pre" font-family="Pretendard" font-size="20" letter-spacing="0em"><tspan x="3697" y="842.609">중위</tspan></text><text fill="white" xml:space="preserve" style="white-space: pre" font-family="Pretendard" font-size="20" letter-spacing="0em"><tspan x="3434" y="865.609">Second Lieutenant</tspan></text><text fill="white" xml:space="preserve" style="white-space: pre" font-family="Pretendard" font-size="20" letter-spacing="0em"><tspan x="3697" y="865.609">소위</tspan></text><image x="3119" width="298" height="782" fill="url(#img1720084219212_pattern5_4038_458)" xlink:href="/story/fidelion-5-2/6.png"/><text fill="white" xml:space="preserve" style="white-space: pre" font-family="Pretendard" font-size="22" font-weight="bold" letter-spacing="0em"><tspan x="3142" y="73.8203">부사관</tspan></text><text fill="white" xml:space="preserve" style="white-space: pre" font-family="Pretendard" font-size="50" font-weight="bold" letter-spacing="0em"><tspan x="3142" y="126.773">NCO</tspan></text><text fill="white" xml:space="preserve" style="white-space: pre" font-family="Pretendard" font-size="20" letter-spacing="0em"><tspan x="3119" y="819.609">Sergeant Major</tspan></text><text fill="white" xml:space="preserve" style="white-space: pre" font-family="Pretendard" font-size="20" letter-spacing="0em"><tspan x="3382" y="819.609">원사</tspan></text><text fill="white" xml:space="preserve" style="white-space: pre" font-family="Pretendard" font-size="20" letter-spacing="0em"><tspan x="3119" y="842.609">Master Sergeant</tspan></text><text fill="white" xml:space="preserve" style="white-space: pre" font-family="Pretendard" font-size="20" letter-spacing="0em"><tspan x="3382" y="842.609">상사</tspan></text><text fill="white" xml:space="preserve" style="white-space: pre" font-family="Pretendard" font-size="20" letter-spacing="0em"><tspan x="3119" y="865.609">Sergeant First Class</tspan></text><text fill="white" xml:space="preserve" style="white-space: pre" font-family="Pretendard" font-size="20" letter-spacing="0em"><tspan x="3382" y="865.609">중사</tspan></text><text fill="white" xml:space="preserve" style="white-space: pre" font-family="Pretendard" font-size="20" letter-spacing="0em"><tspan x="3119" y="888.609">Staff Sergeant</tspan></text><text fill="white" xml:space="preserve" style="white-space: pre" font-family="Pretendard" font-size="20" letter-spacing="0em"><tspan x="3382" y="888.609">하사</tspan></text><image x="3749" width="298" height="782" fill="url(#img1720084219212_pattern6_4038_458)" xlink:href="/story/fidelion-5-2/7.png"/><text fill="white" xml:space="preserve" style="white-space: pre" font-family="Pretendard" font-size="22" font-weight="bold" letter-spacing="0em"><tspan x="3772" y="73.8203">영관</tspan></text><text fill="white" xml:space="preserve" style="white-space: pre" font-family="Pretendard" font-size="50" font-weight="bold" letter-spacing="0em"><tspan x="3772" y="126.773">FIELD
</tspan><tspan x="3772" y="176.773">OFFICER</tspan></text><text fill="white" xml:space="preserve" style="white-space: pre" font-family="Pretendard" font-size="20" letter-spacing="0em"><tspan x="3749" y="819.609">Colonel</tspan></text><text fill="white" xml:space="preserve" style="white-space: pre" font-family="Pretendard" font-size="20" letter-spacing="0em"><tspan x="4012" y="819.609">대령</tspan></text><text fill="white" xml:space="preserve" style="white-space: pre" font-family="Pretendard" font-size="20" letter-spacing="0em"><tspan x="3749" y="842.609">Lieutenant Colonel</tspan></text><text fill="white" xml:space="preserve" style="white-space: pre" font-family="Pretendard" font-size="20" letter-spacing="0em"><tspan x="4012" y="842.609">중령</tspan></text><text fill="white" xml:space="preserve" style="white-space: pre" font-family="Pretendard" font-size="20" letter-spacing="0em"><tspan x="3749" y="865.609">Major</tspan></text><text fill="white" xml:space="preserve" style="white-space: pre" font-family="Pretendard" font-size="20" letter-spacing="0em"><tspan x="4012" y="865.609">소령</tspan></text><image x="4064" width="298" height="782" fill="url(#img1720084219212_pattern7_4038_458)" xlink:href="/story/fidelion-5-2/8.png"/><text fill="white" xml:space="preserve" style="white-space: pre" font-family="Pretendard" font-size="22" font-weight="bold" letter-spacing="0em"><tspan x="4087" y="73.8203">장군</tspan></text><text fill="white" xml:space="preserve" style="white-space: pre" font-family="Pretendard" font-size="50" font-weight="bold" letter-spacing="0em"><tspan x="4087" y="126.773">GENERAL
</tspan><tspan x="4087" y="176.773">OFFICER</tspan></text><text fill="white" xml:space="preserve" style="white-space: pre" font-family="Pretendard" font-size="20" letter-spacing="0em"><tspan x="4064" y="819.609">General of the Army</tspan></text><text fill="white" xml:space="preserve" style="white-space: pre" font-family="Pretendard" font-size="20" letter-spacing="0em"><tspan x="4327" y="819.609">원수</tspan></text><text fill="white" xml:space="preserve" style="white-space: pre" font-family="Pretendard" font-size="20" letter-spacing="0em"><tspan x="4064" y="842.609">General</tspan></text><text fill="white" xml:space="preserve" style="white-space: pre" font-family="Pretendard" font-size="20" letter-spacing="0em"><tspan x="4327" y="842.609">대장</tspan></text><text fill="white" xml:space="preserve" style="white-space: pre" font-family="Pretendard" font-size="20" letter-spacing="0em"><tspan x="4064" y="865.609">Lieutenant General</tspan></text><text fill="white" xml:space="preserve" style="white-space: pre" font-family="Pretendard" font-size="20" letter-spacing="0em"><tspan x="4327" y="865.609">중장</tspan></text><text fill="white" xml:space="preserve" style="white-space: pre" font-family="Pretendard" font-size="20" letter-spacing="0em"><tspan x="4064" y="888.609">Major General</tspan></text><text fill="white" xml:space="preserve" style="white-space: pre" font-family="Pretendard" font-size="20" letter-spacing="0em"><tspan x="4327" y="888.609">소장</tspan></text><text fill="white" xml:space="preserve" style="white-space: pre" font-family="Pretendard" font-size="20" letter-spacing="0em"><tspan x="4064" y="911.609">Brigadier General</tspan></text><text fill="white" xml:space="preserve" style="white-space: pre" font-family="Pretendard" font-size="20" letter-spacing="0em"><tspan x="4327" y="911.609">준장</tspan></text><g style="mix-blend-mode:lighten"><image x="5811" y="380" width="598" height="700" fill="url(#img1720084219212_pattern8_4038_458)" xlink:href="/story/fidelion-5-2/9.png"/></g><path d="M1944.61 796H1955.57V872H1944.61V796ZM2031.78 806.883H2069.87V796H2031.78V806.88V806.883ZM2031.78 871.997H2069.87V861.117H2031.78V871.997ZM2069.04 828.695H2036.14V839.575H2069.04V828.695ZM2144.63 872H2155.59V796H2144.63V872ZM1919.44 839.44V828.56H1897.96V806.88H1925.09V796H1887V872H1897.96V839.44H1919.44ZM2099.05 860.679V796H2088.09V872H2126.18V861.12H2099.04V860.679H2099.05ZM2249.41 833.998C2249.41 854.951 2232.25 871.997 2211.15 871.997C2190.05 871.997 2172.88 854.951 2172.88 833.998C2172.88 813.045 2190.05 796 2211.15 796C2232.25 796 2249.41 813.045 2249.41 833.998ZM2238.46 833.998C2238.46 819.043 2226.2 806.876 2211.15 806.876C2196.09 806.876 2183.84 819.043 2183.84 833.998C2183.84 848.953 2196.09 861.12 2211.15 861.12C2226.2 861.12 2238.46 848.953 2238.46 833.998ZM2010.01 809.158C2016.03 816.061 2019.34 824.883 2019.34 833.998C2019.34 843.114 2016.03 851.936 2010.01 858.839C2004.05 865.67 1995.86 870.186 1986.93 871.552C1985.29 871.806 1977.56 871.954 1975.6 871.99V796H1981.07C1981.27 796.007 1985.09 796.161 1986.93 796.444C1995.86 797.811 2004.05 802.327 2010.01 809.158ZM2008.39 833.998C2008.39 827.816 2006.23 821.762 2002.31 816.956C1998.44 812.219 1993.04 808.878 1987.1 807.545L1986.55 807.423V860.577L1987.1 860.455C1993.04 859.122 1998.44 855.778 2002.31 851.044C2006.23 846.238 2008.39 840.184 2008.39 834.002V833.998ZM2266.12 796.148L2252.79 796.158L2297.8 871.997H2309V796H2298.04V850.619L2297.22 849.204L2266.12 796.148Z" fill="white"/><g clip-path="url(#clip1_4038_458)"><path d="M1887 886.484H1892.32C1896 886.484 1897.67 888.465 1897.67 891.177C1897.67 893.187 1896.74 894.777 1894.75 895.452L1898.27 901.726H1896L1892.73 895.787L1892.35 895.81H1888.95V901.726H1887V886.484ZM1892.26 894.084C1894.75 894.084 1895.74 892.99 1895.74 891.177C1895.74 889.365 1894.75 888.168 1892.24 888.168H1888.95V894.084H1892.26ZM1919.51 896.065C1919.51 892.506 1921.67 890.148 1924.87 890.148C1928.08 890.148 1930.2 892.506 1930.2 896.065C1930.2 899.623 1928.06 901.961 1924.87 901.961C1921.69 901.961 1919.51 899.626 1919.51 896.065ZM1928.33 896.065C1928.33 893.79 1927.23 891.748 1924.87 891.748C1922.52 891.748 1921.37 893.79 1921.37 896.065C1921.37 898.339 1922.47 900.358 1924.87 900.358C1927.27 900.358 1928.33 898.335 1928.33 896.065ZM1956.44 895.116C1957.18 895.065 1959.09 894.968 1959.62 894.948V894.023C1959.62 892.571 1958.73 891.729 1956.96 891.729C1955.46 891.729 1954.58 892.403 1954.32 893.265H1952.37C1952.61 891.432 1954.45 890.148 1957.05 890.148C1958.58 890.148 1961.46 890.59 1961.46 894.19V901.729H1959.62V900.171H1959.53C1959.14 900.948 1958.06 902.003 1956.03 902.003C1953.8 902.003 1952.03 900.719 1952.03 898.487C1952.03 895.855 1954.41 895.265 1956.44 895.119V895.116ZM1956.35 900.381C1958.45 900.381 1959.62 899.013 1959.62 897.581V896.423L1956.65 896.632C1954.97 896.739 1953.89 897.326 1953.89 898.568C1953.89 899.81 1954.92 900.377 1956.35 900.377L1956.35 900.381ZM1983.83 896.042C1983.83 892.419 1985.91 890.145 1988.85 890.145C1991.12 890.145 1991.85 891.494 1992.24 892.103H1992.37V886.484H1994.26V901.726H1992.44V899.977H1992.24C1991.83 900.61 1991.08 901.958 1988.83 901.958C1985.91 901.958 1983.83 899.665 1983.83 896.042ZM1992.44 896C1992.44 893.474 1991.27 891.768 1989.08 891.768C1986.9 891.768 1985.71 893.619 1985.71 896C1985.71 898.381 1986.86 900.339 1989.08 900.339C1991.31 900.339 1992.44 898.571 1992.44 896ZM2048.06 891.81H2045.59V898.442C2045.59 899.916 2046.33 900.148 2047.13 900.148C2047.47 900.148 2047.95 900.126 2048.23 900.106V901.79C2047.95 901.832 2047.47 901.874 2046.93 901.874C2045.37 901.874 2043.71 900.926 2043.71 898.906V891.81H2041.94V890.294H2043.71V887.558H2045.59V890.294H2048.06V891.81ZM2069.72 896.065C2069.72 892.506 2071.89 890.148 2075.09 890.148C2078.29 890.148 2080.42 892.506 2080.42 896.065C2080.42 899.623 2078.27 901.961 2075.09 901.961C2071.91 901.961 2069.72 899.626 2069.72 896.065ZM2078.55 896.065C2078.55 893.79 2077.45 891.748 2075.09 891.748C2072.73 891.748 2071.59 893.79 2071.59 896.065C2071.59 898.339 2072.69 900.358 2075.09 900.358C2077.49 900.358 2078.55 898.335 2078.55 896.065ZM2128.55 886.484H2137.98V888.168H2130.5V893.261H2137.27V894.926H2130.5V901.726H2128.55V886.484H2128.55ZM2160.22 887.2C2160.22 886.526 2160.8 886 2161.52 886C2162.24 886 2162.84 886.526 2162.84 887.2C2162.84 887.874 2162.23 888.4 2161.52 888.4C2160.81 888.4 2160.22 887.874 2160.22 887.2ZM2160.59 890.294H2162.45V901.726H2160.59V890.294ZM2184.8 896.042C2184.8 892.419 2186.88 890.145 2189.82 890.145C2192.09 890.145 2192.82 891.494 2193.21 892.103H2193.34V886.484H2195.23V901.726H2193.41V899.977H2193.21C2192.8 900.61 2192.05 901.958 2189.8 901.958C2186.88 901.958 2184.8 899.665 2184.8 896.042ZM2193.41 896C2193.41 893.474 2192.24 891.768 2190.06 891.768C2187.87 891.768 2186.68 893.619 2186.68 896C2186.68 898.381 2187.83 900.339 2190.06 900.339C2192.28 900.339 2193.41 898.571 2193.41 896ZM2217.83 896.106C2217.83 892.59 2219.96 890.148 2223.16 890.148C2225.62 890.148 2228.22 891.623 2228.22 895.855V896.613H2219.69C2219.78 899.035 2221.23 900.361 2223.33 900.361C2224.74 900.361 2225.62 899.771 2226.06 899.055H2228.04C2227.48 900.781 2225.75 901.961 2223.33 901.961C2219.93 901.961 2217.83 899.626 2217.83 896.11L2217.83 896.106ZM2226.34 895.074C2226.34 893.158 2225.08 891.748 2223.16 891.748C2221.12 891.748 2219.83 893.306 2219.72 895.074H2226.34ZM2252.45 901.729H2250.59V886.484H2252.45V901.726V901.729ZM2274.99 887.2C2274.99 886.526 2275.58 886 2276.29 886C2277.01 886 2277.61 886.526 2277.61 887.2C2277.61 887.874 2277 888.4 2276.29 888.4C2275.58 888.4 2274.99 887.874 2274.99 887.2ZM2275.36 890.294H2277.22V901.726H2275.36V890.294ZM2303.98 895.116C2304.73 895.065 2306.63 894.968 2307.16 894.948V894.023C2307.16 892.571 2306.27 891.729 2304.5 891.729C2303.01 891.729 2302.12 892.403 2301.86 893.265H2299.91C2300.15 891.432 2301.99 890.148 2304.59 890.148C2306.12 890.148 2309 890.59 2309 894.19V901.729H2307.16V900.171H2307.07C2306.69 900.948 2305.6 902.003 2303.57 902.003C2301.34 902.003 2299.57 900.719 2299.57 898.487C2299.57 895.855 2301.95 895.265 2303.98 895.119V895.116ZM2303.89 900.381C2305.99 900.381 2307.16 899.013 2307.16 897.581V896.423L2304.2 896.632C2302.51 896.739 2301.43 897.326 2301.43 898.568C2301.43 899.81 2302.47 900.377 2303.9 900.377L2303.89 900.381Z" fill="white"/></g><image x="109" width="1625.76" height="1080" fill="url(#img1720084219212_pattern9_4038_458)" xlink:href="/story/fidelion-5-2/10.png"/><image x="6771" y="360" width="578" height="552" fill="url(#img1720084219212_pattern10_4038_458)" xlink:href="/story/fidelion-5-2/11.png"/><text fill="white" xml:space="preserve" style="white-space: pre" font-family="Pretendard" font-size="25" letter-spacing="0em"><tspan x="6449" y="831.887">본 이족보행 탱크는 사실상 피델리아 제국 최강의 전쟁 병기로, 전면에 단일 연장형 자주포와 두 기의 기관총을 장착하고 있다. 본 병기는 기본적으</tspan><tspan x="6449" y="863.887">로 디젤을 연료로 활용하며, 다수의 적군을 상대로도 어마어마한 전투력을 보이기 때문에 피델리아에 저항하는 세력 사이에서는 매우 악명이 높다.
</tspan><tspan x="6449" y="899.887">
</tspan><tspan x="6449" y="935.887">피델리아의 붉은 가스 마스크는 비인간적이고 억압된 피델리온의 철권 체제를 상징하기도 하며, 동시에 독재 구조 아래에 억압당하는 국민들을 표</tspan><tspan x="6449" y="967.887">방하기도 한다. 피델리아 군대에서의 붉은 가스 마스크는 이를 보는 사람으로 하여금 공포와 권력에 대한 탐욕을 떠올리게 하는데, 피델리아에서는 </tspan><tspan x="6449" y="999.887">이를 의도적으로 착용하여 공포정치의 일환으로 활용되기도 한다.</tspan></text><path d="M6369.4 204.4H6379V231.4H6337V204.4H6346.6V113H6337V90L6349.4 86H6369.4V204.4Z" fill="white"/><path d="M6426.15 204.4H6435.15V231.4H6392.55V204.4H6401.35L6435.35 120.6V113H6411.35V130.8H6389.35V86H6460.55V116.6L6426.15 204.4Z" fill="white"/><path d="M6541.38 212C6540.32 217.2 6538.25 221.4 6535.18 224.6C6532.25 227.667 6528.25 229.933 6523.18 231.4H6490.78C6485.72 229.933 6481.65 227.667 6478.58 224.6C6475.65 221.4 6473.65 217.2 6472.58 212V186.6H6495.18V199C6495.18 201.667 6495.65 203.467 6496.58 204.4C6497.65 205.2 6498.78 205.867 6499.98 206.4H6511.98C6513.18 205.867 6514.25 205.2 6515.18 204.4C6516.25 203.467 6516.78 201.667 6516.78 199L6516.98 195.4V186.8C6516.98 184.267 6516.72 182.467 6516.18 181.4C6515.78 180.333 6514.52 179.067 6512.38 177.6L6481.18 157.4C6478.92 155.8 6476.78 153.333 6474.78 150C6472.92 146.667 6471.98 142.867 6471.98 138.6V106.4C6472.52 103.467 6473.52 100.733 6474.98 98.2C6476.45 95.6667 6478.12 93.5333 6479.98 91.8C6481.98 89.9333 6484.12 88.5333 6486.38 87.6C6488.78 86.5333 6491.12 86 6493.38 86H6511.38L6517.58 92.8V86H6540.78V130.8H6517.58V113H6500.98C6499.78 114.067 6498.78 115.2 6497.98 116.4C6497.32 117.467 6496.98 119.333 6496.98 122V135.6C6496.98 137.333 6497.25 138.733 6497.78 139.8C6498.45 140.867 6499.85 142.133 6501.98 143.6L6532.98 163.6C6535.52 165.333 6537.52 167.733 6538.98 170.8C6540.58 173.867 6541.38 176.733 6541.38 179.4V212Z" fill="white"/><path d="M6605.03 126.2C6605.03 123.133 6604.83 120.467 6604.43 118.2C6604.03 115.933 6602.1 114.2 6598.63 113H6583.63V163.6H6598.63C6602.1 162.4 6604.03 160.667 6604.43 158.4C6604.83 156.133 6605.03 153.467 6605.03 150.4V126.2ZM6610.03 86C6615.1 87.4667 6619.1 89.8 6622.03 93C6624.96 96.0667 6626.96 100.2 6628.03 105.4V162C6627.76 164.133 6627.1 166.333 6626.03 168.6C6624.96 170.867 6623.5 173 6621.63 175C6619.9 177 6617.76 178.667 6615.23 180C6612.83 181.333 6610.1 182.2 6607.03 182.6H6583.63V204.4H6592.03V231.4H6552.43V204.4H6560.83V113H6552.43V86H6610.03Z" fill="white"/><text fill="white" xml:space="preserve" style="white-space: pre" font-family="Pretendard" font-size="25" letter-spacing="0em"><tspan x="6337" y="280.285">피델리아의 군 보좌관과 엔지니어들은 제</tspan><tspan x="6337" y="312.285">이크의 지휘 아래 진보된 병기 기술을 개</tspan><tspan x="6337" y="344.285">발하고 발전시키는 데에 최선을 다해왔다.
</tspan><tspan x="6337" y="380.285">이러한 노력은 당대 기술과 상식 수준으로</tspan><tspan x="6337" y="412.285">는 미치기 어려운, 이족보행 전투 병기 &apos;티</tspan><tspan x="6337" y="444.285">탄&apos;을 만들어낼 수 있는 우월한 기술력을 </tspan><tspan x="6337" y="476.285">확보하는 결과를 가져왔다.</tspan></text><image x="8242" width="756" height="1080" fill="url(#img1720084219212_pattern11_4038_458)" xlink:href="/story/fidelion-5-2/12.png"/></g><defs><pattern id="img1720084219212_pattern0_4038_458" patternContentUnits="objectBoundingBox" width="1" height="1"><use xlink:href="#image0_4038_458" transform="scale(0.0002442 0.00129878)"/></pattern><pattern id="img1720084219212_pattern1_4038_458" patternContentUnits="objectBoundingBox" width="1" height="1"><use xlink:href="#image1_4038_458" transform="matrix(0.000606061 0 0 0.000259147 0 -0.000283757)"/></pattern><pattern id="img1720084219212_pattern2_4038_458" patternContentUnits="objectBoundingBox" width="1" height="1"><use xlink:href="#image2_4038_458" transform="matrix(0.00118855 0 0 0.00172414 -0.00275862 0)"/></pattern><pattern id="img1720084219212_pattern3_4038_458" patternContentUnits="objectBoundingBox" width="1" height="1"><use xlink:href="#image3_4038_458" transform="scale(0.00167785 0.000639386)"/></pattern><pattern id="img1720084219212_pattern4_4038_458" patternContentUnits="objectBoundingBox" width="1" height="1"><use xlink:href="#image4_4038_458" transform="scale(0.00167785 0.000639386)"/></pattern><pattern id="img1720084219212_pattern5_4038_458" patternContentUnits="objectBoundingBox" width="1" height="1"><use xlink:href="#image5_4038_458" transform="scale(0.00167785 0.000639386)"/></pattern><pattern id="img1720084219212_pattern6_4038_458" patternContentUnits="objectBoundingBox" width="1" height="1"><use xlink:href="#image6_4038_458" transform="scale(0.00167785 0.000639386)"/></pattern><pattern id="img1720084219212_pattern7_4038_458" patternContentUnits="objectBoundingBox" width="1" height="1"><use xlink:href="#image7_4038_458" transform="scale(0.00167785 0.000639386)"/></pattern><pattern id="img1720084219212_pattern8_4038_458" patternContentUnits="objectBoundingBox" width="1" height="1"><use xlink:href="#image8_4038_458" transform="scale(0.00041806 0.000357143)"/></pattern><pattern id="img1720084219212_pattern9_4038_458" patternContentUnits="objectBoundingBox" width="1" height="1"><use xlink:href="#image9_4038_458" transform="scale(0.000244141 0.000367512)"/></pattern><pattern id="img1720084219212_pattern10_4038_458" patternContentUnits="objectBoundingBox" width="1" height="1"><use xlink:href="#image10_4038_458" transform="matrix(0.000291075 0 0 0.000304785 -0.000649118 0)"/></pattern><pattern id="img1720084219212_pattern11_4038_458" patternContentUnits="objectBoundingBox" width="1" height="1"><use xlink:href="#image11_4038_458" transform="matrix(0.000414199 0 0 0.000289939 -0.000352069 0)"/></pattern><clipPath id="clip0_4038_458"><rect width="8998" height="1080" fill="white"/></clipPath><clipPath id="clip1_4038_458"><rect width="422" height="16" fill="white" transform="translate(1887 886)"/></clipPath><image id="image0_4038_458" width="4095" height="770" xlink:href="/story/fidelion-5-2/fidelion-5-2/1.png"/><image id="image1_4038_458" width="1650" height="3861" xlink:href="/story/fidelion-5-2/fidelion-5-2/2.png"/><image id="image2_4038_458" width="846" height="580" xlink:href="/story/fidelion-5-2/fidelion-5-2/3.png"/><image id="image3_4038_458" width="596" height="1564" xlink:href="/story/fidelion-5-2/fidelion-5-2/4.png"/><image id="image4_4038_458" width="596" height="1564" xlink:href="/story/fidelion-5-2/fidelion-5-2/5.png"/><image id="image5_4038_458" width="596" height="1564" xlink:href="/story/fidelion-5-2/fidelion-5-2/6.png"/><image id="image6_4038_458" width="596" height="1564" xlink:href="/story/fidelion-5-2/fidelion-5-2/7.png"/><image id="image7_4038_458" width="596" height="1564" xlink:href="/story/fidelion-5-2/fidelion-5-2/8.png"/><image id="image8_4038_458" width="2392" height="2800" xlink:href="/story/fidelion-5-2/fidelion-5-2/9.png"/><image id="image9_4038_458" width="4096" height="2721" xlink:href="/story/fidelion-5-2/fidelion-5-2/10.png"/><image id="image10_4038_458" width="3440" height="3281" xlink:href="/story/fidelion-5-2/fidelion-5-2/11.png"/><image id="image11_4038_458" width="2416" height="3449" xlink:href="/story/fidelion-5-2/fidelion-5-2/12.png"/></defs></svg>