<svg width="10205" height="1080" viewBox="0 0 10205 1080" fill="none" xmlns="http://www.w3.org/2000/svg" xmlns:xlink="http://www.w3.org/1999/xlink"><rect width="10205" height="1080" fill="#CC0000"/><path d="M0 311.398V0H117.112C148.857 0 176.383 6.23656 199.692 18.7097C223 31.1828 240.945 49.104 253.529 72.4732C266.112 95.8423 272.404 123.584 272.404 155.699C272.404 187.814 266.112 215.556 253.529 238.925C241.088 262.294 223.214 280.215 199.906 292.688C176.741 305.161 149.429 311.398 117.97 311.398H0ZM114.967 241.72C131.698 241.72 145.497 239.068 156.364 233.764C167.375 228.315 175.74 219.355 181.46 206.882C187.18 194.265 190.039 177.204 190.039 155.699C190.039 134.194 187.108 117.133 181.245 104.516C175.525 91.8997 167.017 82.9391 155.721 77.6345C144.567 72.3298 130.268 69.6775 112.823 69.6775H81.5068V241.72H114.967Z" fill="black"/><path d="M393.806 311.398H312.3V0H393.806V311.398Z" fill="black"/><path d="M603.15 100.645C602.292 89.8925 598.288 81.7205 591.138 76.1291C583.989 70.3943 573.55 67.5269 559.823 67.5269C546.667 67.5269 536.801 69.8925 530.223 74.6237C523.645 79.2115 520.356 85.4481 520.356 93.3334C520.356 100.932 523.86 107.097 530.866 111.828C537.873 116.416 548.669 120.287 563.255 123.441L588.994 129.462C621.882 136.488 646.191 147.957 661.921 163.871C677.65 179.642 685.658 199.713 685.944 224.086C685.801 244.301 680.724 261.577 670.715 275.914C660.705 290.107 646.334 300.932 627.602 308.387C608.87 315.842 586.42 319.57 560.252 319.57C518.926 319.57 486.538 310.251 463.087 291.613C439.636 272.975 427.696 245.018 427.267 207.742H505.342C505.914 221.936 510.919 232.903 520.356 240.645C529.794 248.244 542.663 252.043 558.965 252.043C572.549 252.043 583.059 249.534 590.495 244.516C598.074 239.355 602.006 232.545 602.292 224.086C602.006 216.488 598.288 210.323 591.138 205.591C584.132 200.86 571.977 196.559 554.675 192.688L523.359 185.807C464.731 172.903 435.418 143.799 435.418 98.4947C435.275 79.1398 440.494 62.0072 451.076 47.0968C461.657 32.1864 476.386 20.6452 495.261 12.4731C514.136 4.15771 535.657 0 559.823 0C584.418 0 605.867 4.15771 624.17 12.4731C642.473 20.7885 656.558 32.5448 666.425 47.7419C676.435 62.9391 681.511 80.5735 681.654 100.645H603.15Z" fill="black"/><path d="M710.396 0.102161H978.081V66.3387H884.563V311.5H803.914V66.3387H710.396V0.102161Z" fill="black"/><path d="M1011.11 0.102192H1143.24C1166.26 0.102192 1186.42 4.33158 1203.73 12.7904C1221.17 21.2491 1234.61 33.4355 1244.05 49.3495C1253.49 65.1201 1258.21 83.8298 1258.21 105.479C1258.21 126.697 1253.56 144.905 1244.26 160.102C1235.11 175.299 1222.03 186.912 1205.01 194.941L1268.5 311.5H1179.7L1124.58 207.844H1092.62V311.5H1011.11V0.102192ZM1124.36 143.758C1140.24 143.758 1152.25 140.676 1160.4 134.511C1168.69 128.346 1172.84 118.669 1172.84 105.479C1172.84 92.0019 1168.69 81.966 1160.4 75.371C1152.11 68.7761 1140.09 65.4786 1124.36 65.4786H1092.62V143.758H1124.36Z" fill="black"/><path d="M1376.61 311.398H1295.1V0H1376.61V311.398Z" fill="black"/><path d="M1623.27 120C1621.98 105.09 1616.48 93.2617 1606.76 84.5162C1597.17 75.7707 1584.23 71.3979 1567.93 71.3979C1553.78 71.3979 1541.62 74.9104 1531.47 81.9355C1521.46 88.9606 1513.81 99.1398 1508.52 112.473C1503.23 125.663 1500.58 141.505 1500.58 160C1500.58 188.961 1506.37 210.968 1517.96 226.022C1529.68 241.075 1546.2 248.602 1567.5 248.602C1582.95 248.602 1595.53 244.66 1605.25 236.774C1615.12 228.746 1621.13 217.778 1623.27 203.871L1706.06 204.731C1704.49 223.513 1698.06 241.792 1686.76 259.57C1675.61 277.204 1659.66 291.684 1638.93 303.011C1618.34 314.337 1593.96 320 1565.79 320C1537.05 320 1511.38 313.763 1488.79 301.29C1466.19 288.817 1448.46 270.538 1435.59 246.452C1422.86 222.366 1416.5 193.548 1416.5 160C1416.5 126.452 1423.01 97.6345 1436.02 73.5484C1449.03 49.4624 1466.84 31.1828 1489.43 18.7097C1512.02 6.23656 1537.47 0 1565.79 0C1591.67 0 1614.76 4.73118 1635.07 14.1935C1655.37 23.5125 1671.67 37.2043 1683.97 55.2688C1696.41 73.3333 1703.78 94.9104 1706.06 120H1623.27Z" fill="black"/><path d="M1736.52 0.102192H2004.21V66.3388H1910.69V311.5H1830.04V66.3388H1736.52V0.102192Z" fill="black"/><path d="M2300.21 100.645C2299.35 89.8925 2295.34 81.7205 2288.19 76.1291C2281.04 70.3943 2270.61 67.5269 2256.88 67.5269C2243.72 67.5269 2233.86 69.8925 2227.28 74.6237C2220.7 79.2115 2217.41 85.4481 2217.41 93.3334C2217.41 100.932 2220.92 107.097 2227.92 111.828C2234.93 116.416 2245.73 120.287 2260.31 123.441L2286.05 129.462C2318.94 136.488 2343.25 147.957 2358.98 163.871C2374.71 179.642 2382.71 199.713 2383 224.086C2382.86 244.301 2377.78 261.577 2367.77 275.914C2357.76 290.107 2343.39 300.932 2324.66 308.387C2305.93 315.842 2283.48 319.57 2257.31 319.57C2215.98 319.57 2183.59 310.251 2160.14 291.613C2136.69 272.975 2124.75 245.018 2124.32 207.742H2202.4C2202.97 221.936 2207.97 232.903 2217.41 240.645C2226.85 248.244 2239.72 252.043 2256.02 252.043C2269.61 252.043 2280.12 249.534 2287.55 244.516C2295.13 239.355 2299.06 232.545 2299.35 224.086C2299.06 216.488 2295.34 210.323 2288.19 205.591C2281.19 200.86 2269.03 196.559 2251.73 192.688L2220.42 185.807C2161.79 172.903 2132.47 143.799 2132.47 98.4947C2132.33 79.1398 2137.55 62.0072 2148.13 47.0968C2158.71 32.1864 2173.44 20.6452 2192.32 12.4731C2211.19 4.15771 2232.71 0 2256.88 0C2281.47 0 2302.92 4.15771 2321.23 12.4731C2339.53 20.7885 2353.61 32.5448 2363.48 47.7419C2373.49 62.9391 2378.57 80.5735 2378.71 100.645H2300.21Z" fill="black"/><text fill="black" xml:space="preserve" style="white-space: pre" font-family="Pretendard" font-size="25" letter-spacing="0em"><tspan x="0" y="418.887">피델리아에서 가장 많은 인구도를 차지하고 있는 계급은 노예와 노동자 계급이다. 노예와 노동자들</tspan><tspan x="0" y="450.887">은 피델리온 외부에 존재하는 마을에서 잡혀 온 자들이나 전쟁에서 패배한 군인들 혹은 그들의 가족</tspan><tspan x="0" y="482.887">으로 대부분 구성되어 있다. 한 번 노예가 될 경우, 시민과의 구분을 목적으로 몸과 얼굴 등에 문신을 </tspan><tspan x="0" y="514.887">강제적으로 새겨넣게 된다. </tspan><tspan x="0" y="546.887"> </tspan><tspan x="0" y="578.887">이 구역은 철저하게 통제된 구역으로 탈출하기가 거의 불가능한 수준이다. 높은 성벽과 굳게 닫혀 있</tspan><tspan x="0" y="610.887">는 성문은 어떤 무기로도 쉽게 부서지지 않는 구조로 이루어져 있다. 노예와 노동자의 계급사회답게 </tspan><tspan x="0" y="642.887">내부의 위생을 포함한 거주환경 역시 참담한 수준이며, 심지어 공간 자체도 넓지 않아서 서로 간의 마</tspan><tspan x="0" y="674.887">찰을 일으키며 힘들게 살아갈 수밖에 없는 환경이다. </tspan><tspan x="0" y="706.887"> </tspan><tspan x="0" y="738.887">철저한 감시하에 고된 노동을 겪으며 살아가는 노동자 및 노예계급에게 주어진 유일한 낙은 특수약</tspan><tspan x="0" y="770.887">물 ‘델라’를 복용하는 것과 매주 열리는 아레나의 혈투를 관전하는 것 정도이다. 피델리아 제국은 전</tspan><tspan x="0" y="802.887">략적으로 사회구조를 더욱 암담하게 구성했는데, 지속적인 약물 공급으로 인한 육체적 쾌락과 아레</tspan><tspan x="0" y="834.887">나를 통한 오락 등 1차원적인 욕구를 해결해 주는 문화를 통해 차별적인 사회구조 속 고통받는 현실</tspan><tspan x="0" y="866.887">을 타개할 수 있도록 회피처를 &apos;제공&apos;하는 셈이다. </tspan><tspan x="0" y="898.887"> </tspan><tspan x="0" y="930.887">그럼에도 불구하고 이 구역에서는 타 구역에 비해 탈출을 시도하는 자들이 매우 많은 편이며, 자살률 </tspan><tspan x="0" y="962.887">또한 높다. 또한 만에 하나 탈출에 성공하더라도 제국의 개 ‘헌터즈’에 의해 영원히 도망 다니는 삶이 </tspan><tspan x="0" y="994.887">기다리고 있다는 사실은 이러한 희망 없는 사회에 더욱 어두운 그림자를 드리우고 있다고 할 수 있다.</tspan></text><image x="1009" y="393" width="1374" height="687" fill="url(#img1719222508234_pattern0_3894_310)" xlink:href="/story/fidelion-4-2/1.png"/><g clip-path="url(#clip0_3894_310)"><text fill="black" xml:space="preserve" style="white-space: pre" font-family="Pretendard" font-size="25" letter-spacing="0em"><tspan x="2551" y="450.887">피델리아 군인은 기본적으로 노동자보다 높은 계급에 위치한다. 그들은 기본적으로 군대 기지 내 병영에서 생활하는데, 기</tspan><tspan x="2551" y="482.887">본적인 생활 공간으로서 음식점, 휴게공간 등 다양한 기능을 포함한 거주 공간이라고 할 수 있다. 제이크는 군인 양성을 위</tspan><tspan x="2551" y="514.887">한 자원분배를 아끼지 않는 편이다. 군인은 기본적으로 성과에 따른 인센티브 제공이 확실한데, 더 많은 업적과 성과를 낸 </tspan><tspan x="2551" y="546.887">군인은 군대 내의 계급이 상승할 수 있는 기회를 가질뿐더러 더 높은 계급인 상급 시민이 될 수 있는 기회도 가질 수 있다. </tspan><tspan x="2551" y="578.887">디스트릭트 S에 비하면 확실히 희망이 있는 구역이라고 할 수 있다. </tspan><tspan x="2551" y="610.887"> </tspan><tspan x="2551" y="642.887">이 구역 내에는 육체의 강인함을 단련하는 체력 훈련장과 특수 제작된 신체 강화 약물을 통해 신체적인 한계를 뛰어넘을 수 </tspan><tspan x="2551" y="674.887">있도록 하는 메디컬 센터가 있다. 또한 이 구획 안에서는 군인들을 대상으로 한 교육 시설 역시 존재하는데, 이는 단순한 군</tspan><tspan x="2551" y="706.887">사교육을 제공하는 것뿐만 아니라 피델리아 제국에 대한 충성도를 높이기 위한 세뇌 교육 역시 이행되고 있다. 교육센터에</tspan><tspan x="2551" y="738.887">서의 코스를 이수한 군인들은 제이크와 제국을 위해 목숨을 내놓고 싸울 수 있는 강력한 군인으로 거듭난다.</tspan></text><path d="M2551 311.699V0.301075H2672.11C2704.94 0.301075 2733.4 6.53763 2757.51 19.0108C2781.61 31.4839 2800.17 49.405 2813.18 72.7742C2826.19 96.1434 2832.7 123.885 2832.7 156C2832.7 188.115 2826.19 215.857 2813.18 239.226C2800.32 262.595 2781.83 280.516 2757.73 292.989C2733.77 305.462 2705.53 311.699 2673 311.699H2551ZM2669.89 242.022C2687.19 242.022 2701.46 239.369 2712.7 234.065C2724.09 228.617 2732.74 219.656 2738.65 207.183C2744.57 194.566 2747.53 177.505 2747.53 156C2747.53 134.495 2744.49 117.434 2738.43 104.817C2732.52 92.2007 2723.72 83.2401 2712.04 77.9355C2700.5 72.6308 2685.71 69.9785 2667.67 69.9785H2635.29V242.022H2669.89Z" fill="black"/><path d="M2958.25 311.699H2873.96V0.301075H2958.25V311.699Z" fill="black"/><path d="M3174.73 96.6452C3173.85 85.8925 3169.71 77.7204 3162.31 72.129C3154.92 66.3943 3144.12 63.5269 3129.93 63.5269C3116.32 63.5269 3106.12 65.8925 3099.32 70.6237C3092.52 75.2115 3089.12 81.448 3089.12 89.3333C3089.12 96.9319 3092.74 103.097 3099.98 107.828C3107.23 112.416 3118.39 116.287 3133.48 119.441L3160.1 125.462C3194.11 132.487 3219.24 143.957 3235.51 159.871C3251.78 175.642 3260.06 195.713 3260.35 220.086C3260.21 240.301 3254.96 257.577 3244.61 271.914C3234.25 286.108 3219.39 296.932 3200.02 304.387C3180.65 311.842 3157.43 315.57 3130.37 315.57C3087.64 315.57 3054.14 306.251 3029.89 287.613C3005.64 268.975 2993.29 241.018 2992.85 203.742H3073.59C3074.18 217.935 3079.36 228.903 3089.12 236.645C3098.88 244.244 3112.18 248.043 3129.04 248.043C3143.09 248.043 3153.96 245.534 3161.65 240.516C3169.49 235.355 3173.55 228.545 3173.85 220.086C3173.55 212.487 3169.71 206.323 3162.31 201.591C3155.07 196.86 3142.5 192.559 3124.61 188.688L3092.22 181.806C3031.59 168.903 3001.28 139.799 3001.28 94.4946C3001.13 75.1398 3006.53 58.0072 3017.47 43.0968C3028.41 28.1864 3043.64 16.6452 3063.16 8.47312C3082.68 0.157706 3104.94 -4 3129.93 -4C3155.36 -4 3177.54 0.157706 3196.47 8.47312C3215.4 16.7885 3229.97 28.5448 3240.17 43.7419C3250.52 58.9391 3255.77 76.5735 3255.92 96.6452H3174.73Z" fill="black"/><path d="M3285.64 0.301075H3562.46V66.5376H3465.75V311.699H3382.35V66.5376H3285.64V0.301075Z" fill="black"/><path d="M3596.62 0.301075H3733.26C3757.06 0.301075 3777.92 4.53047 3795.81 12.9892C3813.85 21.448 3827.75 33.6344 3837.51 49.5484C3847.27 65.319 3852.15 84.0287 3852.15 105.677C3852.15 126.896 3847.34 145.104 3837.73 160.301C3828.27 175.498 3814.74 187.111 3797.14 195.14L3862.79 311.699H3770.96L3713.96 208.043H3680.91V311.699H3596.62V0.301075ZM3713.74 143.957C3730.15 143.957 3742.57 140.875 3751 134.71C3759.58 128.545 3763.87 118.867 3763.87 105.677C3763.87 92.2007 3759.58 82.1649 3751 75.5699C3742.43 68.9749 3730 65.6774 3713.74 65.6774H3680.91V143.957H3713.74Z" fill="black"/><path d="M3974.59 311.699H3890.3V0.301075H3974.59V311.699Z" fill="black"/><path d="M4229.67 116C4228.34 101.09 4222.65 89.2617 4212.59 80.5161C4202.68 71.7706 4189.3 67.3979 4172.44 67.3979C4157.8 67.3979 4145.24 70.9104 4134.74 77.9355C4124.39 84.9606 4116.47 95.1398 4111 108.473C4105.53 121.663 4102.8 137.505 4102.8 156C4102.8 184.961 4108.78 206.968 4120.76 222.022C4132.89 237.075 4149.97 244.602 4172 244.602C4187.97 244.602 4200.98 240.66 4211.04 232.774C4221.24 224.746 4227.45 213.778 4229.67 199.871L4315.29 200.731C4313.66 219.513 4307.01 237.792 4295.33 255.57C4283.79 273.204 4267.31 287.685 4245.86 299.011C4224.57 310.337 4199.36 316 4170.23 316C4140.5 316 4113.96 309.763 4090.6 297.29C4067.23 284.817 4048.9 266.538 4035.59 242.452C4022.43 218.366 4015.85 189.548 4015.85 156C4015.85 122.452 4022.57 93.6344 4036.03 69.5484C4049.49 45.4624 4067.9 27.1828 4091.26 14.7097C4114.63 2.23656 4140.95 -4 4170.23 -4C4196.99 -4 4220.87 0.731183 4241.87 10.1935C4262.87 19.5125 4279.73 33.2043 4292.44 51.2688C4305.31 69.3333 4312.93 90.9104 4315.29 116H4229.67Z" fill="black"/><path d="M4346.79 0.301075H4623.61V66.5376H4526.9V311.699H4443.5V66.5376H4346.79V0.301075Z" fill="black"/><path d="M4744.72 311.699L4851.63 0.301075H4966.53L5073 311.699H4982.06L4962.76 250.624H4855.18L4836.11 311.699H4744.72ZM4943.24 188.688L4910.19 84.172H4907.53L4874.7 188.688H4943.24Z" fill="black"/><image x="3769" y="426" width="1305" height="654" fill="url(#img1719222508234_pattern1_3894_310)" xlink:href="/story/fidelion-4-2/2.png"/></g><g clip-path="url(#clip1_3894_310)"><text fill="black" xml:space="preserve" style="white-space: pre" font-family="Pretendard" font-size="25" letter-spacing="0em"><tspan x="7269" y="95.8867">콜로세움의 </tspan><tspan x="7384.03" y="95.8867">형태로 </tspan><tspan x="7455.85" y="95.8867">만들어진 </tspan><tspan x="7549.27" y="95.8867">본 </tspan><tspan x="7577.88" y="95.8867">아레나는, </tspan><tspan x="7677.7" y="95.8867">고단한 </tspan><tspan x="7749.52" y="95.8867">노동과 </tspan><tspan x="7821.33" y="95.8867">전투로 </tspan><tspan x="7893.15" y="95.8867">지친 </tspan><tspan x="7943.36" y="95.8867">피델리아 </tspan><tspan x="8036.79" y="95.8867">시민들이 </tspan><tspan x="8130.21" y="95.8867">모여서 </tspan><tspan x="8202.03" y="95.8867">스트레스를 </tspan><tspan x="8317.06" y="95.8867">풀고 </tspan><tspan x="8367.27" y="95.8867">도박과 </tspan><tspan x="8439.09" y="95.8867">술, </tspan><tspan x="8474.09" y="95.8867">그리고 </tspan><tspan x="8545.91" y="95.8867">인간의 </tspan><tspan x="8617.73" y="95.8867">혈투를 </tspan><tspan x="8689.55" y="95.8867">관람할 </tspan><tspan x="8761.36" y="95.8867">수 </tspan><tspan x="8789.97" y="95.8867">있는 </tspan><tspan x="8840.18" y="95.8867">시설이</tspan><tspan x="7269" y="127.887">다. </tspan><tspan x="7303.94" y="127.887">겉으로는 </tspan><tspan x="7397.39" y="127.887">시민의 </tspan><tspan x="7469.25" y="127.887">복지를 </tspan><tspan x="7541.1" y="127.887">위해 </tspan><tspan x="7591.34" y="127.887">구축된 </tspan><tspan x="7663.19" y="127.887">시설이라고는 </tspan><tspan x="7799.86" y="127.887">하나, </tspan><tspan x="7856.51" y="127.887">실제로는 </tspan><tspan x="7949.96" y="127.887">내부에서 </tspan><tspan x="8043.42" y="127.887">쌓일 </tspan><tspan x="8093.67" y="127.887">수 </tspan><tspan x="8122.3" y="127.887">있는 </tspan><tspan x="8172.55" y="127.887">시민들의 </tspan><tspan x="8266.01" y="127.887">불만과 </tspan><tspan x="8337.86" y="127.887">스트레스, </tspan><tspan x="8437.71" y="127.887">반발 </tspan><tspan x="8487.96" y="127.887">등을 </tspan><tspan x="8538.2" y="127.887">무마시키고 </tspan><tspan x="8653.27" y="127.887">원초적인 </tspan><tspan x="8746.72" y="127.887">욕구만을 </tspan><tspan x="8840.18" y="127.887">추구하</tspan><tspan x="7269" y="159.887">도록 </tspan><tspan x="7318.73" y="159.887">유도하기 </tspan><tspan x="7411.67" y="159.887">위해 </tspan><tspan x="7461.4" y="159.887">만들어진 </tspan><tspan x="7554.34" y="159.887">전략적인 </tspan><tspan x="7647.28" y="159.887">국가 </tspan><tspan x="7697.01" y="159.887">운영설비라고 </tspan><tspan x="7833.16" y="159.887">할 </tspan><tspan x="7861.28" y="159.887">수 </tspan><tspan x="7889.4" y="159.887">있다. </tspan><tspan x="7945.43" y="159.887">주로 </tspan><tspan x="7995.16" y="159.887">열리는 </tspan><tspan x="8066.49" y="159.887">경기는 </tspan><tspan x="8137.83" y="159.887">일대일의 </tspan><tspan x="8230.77" y="159.887">싱글 </tspan><tspan x="8280.5" y="159.887">매치, </tspan><tspan x="8336.62" y="159.887">다수 </tspan><tspan x="8386.35" y="159.887">대 </tspan><tspan x="8414.47" y="159.887">다수의 </tspan><tspan x="8485.81" y="159.887">그룹 </tspan><tspan x="8535.53" y="159.887">매치, </tspan><tspan x="8591.66" y="159.887">동물이나 </tspan><tspan x="8684.6" y="159.887">대형 </tspan><tspan x="8734.33" y="159.887">괴수와의 </tspan><tspan x="8827.27" y="159.887">매치, </tspan><tspan x="8883.39" y="159.887">서</tspan><tspan x="7269" y="191.887">바이벌, </tspan><tspan x="7347.27" y="191.887">텍사스 </tspan><tspan x="7419.14" y="191.887">럼블 </tspan><tspan x="7469.41" y="191.887">등의 </tspan><tspan x="7519.67" y="191.887">다양한 </tspan><tspan x="7591.55" y="191.887">방식으로 </tspan><tspan x="7685.03" y="191.887">구성되어 </tspan><tspan x="7778.5" y="191.887">있으며, </tspan><tspan x="7856.77" y="191.887">대부분의 </tspan><tspan x="7950.25" y="191.887">경우 </tspan><tspan x="8000.52" y="191.887">무기에 </tspan><tspan x="8072.39" y="191.887">제한을 </tspan><tspan x="8144.26" y="191.887">두지 </tspan><tspan x="8194.53" y="191.887">않는 </tspan><tspan x="8244.8" y="191.887">자유 </tspan><tspan x="8295.06" y="191.887">전투를 </tspan><tspan x="8366.93" y="191.887">지향한다. </tspan><tspan x="8466.71" y="191.887">승패는 </tspan><tspan x="8538.58" y="191.887">대부분 </tspan><tspan x="8610.46" y="191.887">한 </tspan><tspan x="8639.12" y="191.887">쪽의 </tspan><tspan x="8689.38" y="191.887">전투 </tspan><tspan x="8739.65" y="191.887">불능에 </tspan><tspan x="8811.52" y="191.887">의해 </tspan><tspan x="8861.79" y="191.887">판별</tspan><tspan x="7269" y="223.887">되는데, </tspan><tspan x="7346.49" y="223.887">기권하는 </tspan><tspan x="7439.19" y="223.887">것도 </tspan><tspan x="7488.68" y="223.887">가능하나 </tspan><tspan x="7581.38" y="223.887">이 </tspan><tspan x="7609.26" y="223.887">경우에도 </tspan><tspan x="7701.96" y="223.887">판정관에 </tspan><tspan x="7794.66" y="223.887">의해 </tspan><tspan x="7844.15" y="223.887">사형으로 </tspan><tspan x="7936.85" y="223.887">목숨을 </tspan><tspan x="8007.94" y="223.887">잃는 </tspan><tspan x="8057.43" y="223.887">안타까운 </tspan><tspan x="8150.13" y="223.887">일이 </tspan><tspan x="8199.62" y="223.887">벌어지기도 </tspan><tspan x="8313.92" y="223.887">한다.
</tspan><tspan x="7269" y="259.887">
</tspan><tspan x="7269" y="295.887">경기장의 </tspan><tspan x="7363.04" y="295.887">총괄 </tspan><tspan x="7413.86" y="295.887">운영자는 </tspan><tspan x="7507.9" y="295.887">매브릭 </tspan><tspan x="7580.33" y="295.887">존슨 </tspan><tspan x="7631.15" y="295.887">(Mebric </tspan><tspan x="7724.6" y="295.887">Johnson)으로, </tspan><tspan x="7885.9" y="295.887">경기장 </tspan><tspan x="7958.33" y="295.887">전반을 </tspan><tspan x="8030.76" y="295.887">관리하면서 </tspan><tspan x="8146.41" y="295.887">동시에 </tspan><tspan x="8218.84" y="295.887">새로운 </tspan><tspan x="8291.27" y="295.887">형태의 </tspan><tspan x="8363.7" y="295.887">경기를 </tspan><tspan x="8436.13" y="295.887">기획하고 </tspan><tspan x="8530.16" y="295.887">이행하는 </tspan><tspan x="8624.2" y="295.887">전략가이기도 </tspan><tspan x="8761.45" y="295.887">하다. </tspan><tspan x="8818.57" y="295.887">도박장을 </tspan><tspan x="7269" y="327.887">운영하는 </tspan><tspan x="7361.7" y="327.887">사람답게 </tspan><tspan x="7454.4" y="327.887">돈과 </tspan><tspan x="7503.89" y="327.887">여자를 </tspan><tspan x="7574.98" y="327.887">매우 </tspan><tspan x="7624.47" y="327.887">탐닉하며, </tspan><tspan x="7723.57" y="327.887">이를 </tspan><tspan x="7773.05" y="327.887">위해선 </tspan><tspan x="7844.15" y="327.887">승부의 </tspan><tspan x="7915.24" y="327.887">조작 </tspan><tspan x="7964.73" y="327.887">역시 </tspan><tspan x="8014.21" y="327.887">서슴지 </tspan><tspan x="8085.31" y="327.887">않는다고 </tspan><tspan x="8178.01" y="327.887">한다.</tspan></text><text fill="black" xml:space="preserve" style="white-space: pre" font-family="Pretendard" font-size="25" letter-spacing="0em"><tspan x="9039" y="692.887">피델리아에서의 대부분 상품 거래는 크고 작은 시장에서 이루어지는데, 그중 정부에서 운영되는 본 시장이 가장 큰 </tspan><tspan x="9039" y="724.887">규모로 거래가 이루어지는 곳이라고 볼 수 있다. 이곳에서는 다양한 물품들의 물물교환이나 화폐를 통한 거래가 이</tspan><tspan x="9039" y="756.887">루어지는데, 주로 군인들이나 헌터즈 인원이 외곽에서 약탈해 온 물품들이 거래 대상이 된다. 제이크는 이곳에서 이</tspan><tspan x="9039" y="788.887">루어지는 거래에 대해서는 그다지 엄격하게 통제하지는 않는다. 그렇기에 시장 내에서의 가격 결정 방식 등은 대부</tspan><tspan x="9039" y="820.887">분 수요 공급에 의해 결정되는데, 비록 규제가 심하지는 않지만 지나친 폭리를 취하여 시민들의 이해에 심각한 문제</tspan><tspan x="9039" y="852.887">가 발생하게 될 경우 마찬가지로 사형까지도 집행이 가능하다. 시장 내에서는 자그마한 장신구부터 사람까지 다양</tspan><tspan x="9039" y="884.887">하게 거래가 이루어지는데, 단순 노예 판매뿐만 아니라 매춘 역시 적나라하게 이루어지는 곳이다. 본 시장 내에는 </tspan><tspan x="9039" y="916.887">술집도 존재하는데, 술은 피델리아 제국 내에서는 상당한 사치품으로 여겨지고 있기 때문에 그 규모가 크지는 않다. </tspan><tspan x="9039" y="948.887">술집의 주 방문객은 피델리아 국군 장교나 코삭스 용병부대 정도가 전부로, 실제로 이곳에서 술을 마시기 위해선 자</tspan><tspan x="9039" y="980.887">금뿐만 아니라 두 그룹 사이에서 주눅 들지 않을 담력도 있어야만 한다고 여겨진다.</tspan></text><path d="M5457.62 119.583C5456.3 104.228 5450.67 92.0465 5440.71 83.0399C5430.89 74.0332 5417.64 69.5299 5400.94 69.5299C5386.44 69.5299 5373.99 73.1473 5363.59 80.3822C5353.34 87.617 5345.5 98.1002 5340.08 111.832C5334.66 125.416 5331.96 141.731 5331.96 160.778C5331.96 190.603 5337.89 213.267 5349.75 228.771C5361.76 244.274 5378.68 252.026 5400.5 252.026C5416.32 252.026 5429.21 247.965 5439.17 239.845C5449.27 231.576 5455.43 220.281 5457.62 205.959L5542.43 206.845C5540.82 226.187 5534.22 245.012 5522.65 263.321C5511.23 281.482 5494.9 296.395 5473.66 308.059C5452.57 319.723 5427.6 325.556 5398.74 325.556C5369.3 325.556 5343.01 319.133 5319.87 306.287C5296.73 293.442 5278.57 274.616 5265.39 249.811C5252.35 225.006 5245.83 195.328 5245.83 160.778C5245.83 126.228 5252.5 96.5499 5265.83 71.7446C5279.15 46.9394 5297.39 28.1139 5320.53 15.2684C5343.67 2.42279 5369.74 -4 5398.74 -4C5425.25 -4 5448.91 0.872461 5469.71 10.6174C5490.5 20.2147 5507.2 34.3153 5519.8 52.9192C5532.54 71.5231 5540.08 93.7445 5542.43 119.583H5457.62Z" fill="black"/><path d="M5666.34 321.126H5582.85V0.42951H5666.34V321.126Z" fill="black"/><path d="M5700.17 0.42951H5974.35V68.644H5878.57V321.126H5795.96V68.644H5700.17V0.42951Z" fill="black"/><path d="M6091.67 321.126H6008.19V0.42951H6091.67V321.126Z" fill="black"/><path d="M6135.17 274.173L6286.77 68.644H6135.61V0.42951H6393.1V47.3823L6241.51 252.912H6392.66V321.126H6135.17V274.173Z" fill="black"/><path d="M6436.6 0.42951H6663.77V68.644H6520.09V126.671H6651.91V194.885H6520.09V252.912H6663.33V321.126H6436.6V0.42951Z" fill="black"/><path d="M6981.45 321.126H6911.59L6793.39 147.932H6791.19V321.126H6707.71V0.42951H6778.89L6895.33 172.737H6897.97V0.42951H6981.45V321.126Z" fill="black"/><path d="M5352.17 380.43L5427.74 566.913H5431.7L5507.27 380.43H5611.41V701.127H5529.68V512.43H5527.05L5454.55 698.912H5404.46L5332.39 511.101H5329.76V701.127H5248.03V380.43H5352.17Z" fill="black"/><path d="M5642.61 701.127L5748.5 380.43H5862.31L5967.76 701.127H5877.69L5858.57 638.228H5752.02L5733.13 701.127H5642.61ZM5839.24 574.443L5806.5 466.806H5803.87L5771.35 574.443H5839.24Z" fill="black"/><path d="M5999.4 380.43H6134.73C6158.32 380.43 6178.97 384.786 6196.69 393.497C6214.56 402.209 6228.33 414.759 6237.99 431.148C6247.66 447.39 6252.49 466.658 6252.49 488.953C6252.49 510.806 6247.73 529.557 6238.21 545.208C6228.84 560.859 6215.44 572.819 6198.01 581.087L6263.04 701.127H6172.08L6115.62 594.376H6082.89V701.127H5999.4V380.43ZM6115.4 528.376C6131.66 528.376 6143.96 525.201 6152.31 518.852C6160.81 512.504 6165.05 502.537 6165.05 488.953C6165.05 475.074 6160.81 464.739 6152.31 457.947C6143.82 451.155 6131.51 447.759 6115.4 447.759H6082.89V528.376H6115.4Z" fill="black"/><path d="M6290.28 380.43H6373.77V511.544H6378.16L6476.59 380.43H6574.57L6465.6 523.503L6576.77 701.127H6476.59L6403.21 579.315L6373.77 617.409V701.127H6290.28V380.43Z" fill="black"/><path d="M6600.94 380.43H6828.1V448.645H6684.42V506.671H6816.24V574.886H6684.42V632.912H6827.66V701.127H6600.94V380.43Z" fill="black"/><path d="M6862.82 380.43H7137V448.645H7041.21V701.127H6958.6V448.645H6862.82V380.43Z" fill="black"/><path d="M5350.41 1086C5328.29 1086 5308.96 1082.01 5292.41 1074.04C5275.86 1066.07 5263.12 1055.29 5254.18 1041.7C5245.39 1027.97 5241 1012.77 5241 996.081C5241 984.417 5243.2 973.933 5247.59 964.631C5251.98 955.33 5258.14 946.84 5266.05 939.162C5273.95 931.484 5284.06 923.437 5296.36 915.021C5278.79 890.659 5270 866.887 5270 843.706C5270 827.464 5273.88 812.625 5281.64 799.189C5289.41 785.753 5300.25 775.122 5314.16 767.297C5328.22 759.471 5344.26 755.559 5362.27 755.559C5379.56 755.559 5394.72 759.176 5407.75 766.411C5420.79 773.498 5430.82 783.169 5437.85 795.424C5444.88 807.679 5448.4 821.263 5448.4 836.176C5448.4 850.941 5444.73 864.82 5437.41 877.813C5430.09 890.659 5419.69 901.88 5406.21 911.477L5390.4 922.994L5432.58 970.168C5441.95 953.336 5446.64 935.101 5446.64 915.464H5512.99C5512.99 937.169 5510.42 957.397 5505.3 976.148C5500.17 994.752 5492.34 1011.07 5481.79 1025.09L5531.88 1081.13H5448.4L5431.48 1062.97C5408.48 1078.32 5381.46 1086 5350.41 1086ZM5320.53 989.88C5320.53 999.329 5323.75 1006.79 5330.2 1012.25C5336.79 1017.71 5345.58 1020.44 5356.56 1020.44C5366.37 1020.44 5376.11 1018.23 5385.78 1013.8L5336.79 961.531C5331.66 965.665 5327.63 969.947 5324.71 974.376C5321.92 978.806 5320.53 983.974 5320.53 989.88ZM5337.67 844.592C5337.67 849.907 5338.99 855.37 5341.62 860.981C5344.26 866.444 5348.21 872.571 5353.49 879.363L5367.11 870.726C5373.84 866.444 5378.75 861.793 5381.83 856.773C5384.9 851.753 5386.44 846.806 5386.44 841.934C5386.44 836.176 5384.32 831.377 5380.07 827.538C5375.97 823.552 5370.04 821.558 5362.27 821.558C5354.8 821.854 5348.8 824.068 5344.26 828.203C5339.86 832.337 5337.67 837.8 5337.67 844.592Z" fill="black"/><path d="M5579.35 1081.13L5685.24 760.431H5799.04L5904.5 1081.13H5814.42L5795.31 1018.23H5688.76L5669.86 1081.13H5579.35ZM5775.98 954.444L5743.24 846.807H5740.6L5708.09 954.444H5775.98Z" fill="black"/><path d="M5936.14 760.431H6071.47C6095.05 760.431 6115.7 764.787 6133.43 773.498C6151.29 782.209 6165.06 794.76 6174.73 811.149C6184.4 827.39 6189.23 846.659 6189.23 868.954C6189.23 890.806 6184.47 909.558 6174.95 925.209C6165.58 940.86 6152.17 952.819 6134.74 961.088L6199.77 1081.13H6108.82L6052.36 974.376H6019.62V1081.13H5936.14V760.431ZM6052.14 908.377C6068.4 908.377 6080.7 905.202 6089.05 898.853C6097.54 892.504 6101.79 882.538 6101.79 868.954C6101.79 855.075 6097.54 844.739 6089.05 837.947C6080.55 831.156 6068.25 827.76 6052.14 827.76H6019.62V908.377H6052.14Z" fill="black"/><path d="M6227.02 760.431H6454.19V828.646H6310.5V886.672H6442.32V954.887H6310.5V1012.91H6453.75V1081.13H6227.02V760.431Z" fill="black"/><path d="M6771.87 1081.13H6702.01L6583.81 907.934H6581.61V1081.13H6498.13V760.431H6569.31L6685.75 932.739H6688.38V760.431H6771.87V1081.13Z" fill="black"/><path d="M6803.07 1081.13L6908.96 760.431H7022.77L7128.22 1081.13H7038.15L7019.03 1018.23H6912.48L6893.58 1081.13H6803.07ZM6999.7 954.444L6966.96 846.807H6964.33L6931.81 954.444H6999.7Z" fill="black"/><image x="7229" y="385" width="1636" height="695" fill="url(#img1719222508234_pattern2_3894_310)" xlink:href="/story/fidelion-4-2/3.png"/><image x="9039" width="1166" height="626" fill="url(#img1719222508234_pattern3_3894_310)" xlink:href="/story/fidelion-4-2/4.png"/></g><defs><pattern id="img1719222508234_pattern0_3894_310" patternContentUnits="objectBoundingBox" width="1" height="1"><use xlink:href="#image0_3894_310" transform="scale(0.000727802 0.0014556)"/></pattern><pattern id="img1719222508234_pattern1_3894_310" patternContentUnits="objectBoundingBox" width="1" height="1"><use xlink:href="#image1_3894_310" transform="scale(0.000766284 0.00152905)"/></pattern><pattern id="img1719222508234_pattern2_3894_310" patternContentUnits="objectBoundingBox" width="1" height="1"><use xlink:href="#image2_3894_310" transform="matrix(0.000305623 0 0 0.000719424 0 -0.0266187)"/></pattern><pattern id="img1719222508234_pattern3_3894_310" patternContentUnits="objectBoundingBox" width="1" height="1"><use xlink:href="#image3_3894_310" transform="scale(0.000428816 0.000798722)"/></pattern><clipPath id="clip0_3894_310"><rect width="2690" height="1080" fill="white" transform="translate(2551)"/></clipPath><clipPath id="clip1_3894_310"><rect width="4964" height="1080" fill="white" transform="translate(5241)"/></clipPath><image id="image0_3894_310" width="1374" height="687" xlink:href="/story/fidelion-4-2/fidelion-4-2/1.png"/><image id="image1_3894_310" width="1305" height="654" xlink:href="/story/fidelion-4-2/fidelion-4-2/2.png"/><image id="image2_3894_310" width="3272" height="1464" xlink:href="/story/fidelion-4-2/fidelion-4-2/3.png"/><image id="image3_3894_310" width="2332" height="1252" xlink:href="/story/fidelion-4-2/fidelion-4-2/4.png"/></defs></svg>