<svg width="8261" height="1080" viewBox="0 0 8261 1080" fill="none" xmlns="http://www.w3.org/2000/svg" xmlns:xlink="http://www.w3.org/1999/xlink"><g clip-path="url(#clip0_3894_199)"><rect width="8261" height="1080" fill="black"/><image x="457" width="4883" height="1080" fill="url(#img1719309320150_pattern0_3894_199)" xlink:href="/story/fidelion-1-1/1.png"/><text fill="white" xml:space="preserve" style="white-space: pre" font-family="Pretendard" font-size="45" letter-spacing="0em"><tspan x="68" y="78.9961">Fidelion</tspan></text><path d="M743 936H185V600.5L230.124 546.6L522.882 426.7L532.787 415.7V342L518.479 327.7H409.521L395.213 342V411.3H185V260.6L279.651 166H648.349L743 260.6V503.7L698.976 555.4L405.118 675.3L395.213 687.4V774.3H532.787V686.3H743V936Z" fill="white"/><text fill="white" xml:space="preserve" style="white-space: pre" font-family="Pretendard" font-size="45" letter-spacing="0em"><tspan x="68" y="1020">Scroll &amp; Drag.</tspan></text><text fill="white" xml:space="preserve" style="white-space: pre" font-family="Charis SIL" font-size="25" letter-spacing="0em"><tspan x="1087" y="760.46">Beneath the melting polar ice, deadly germs that had been </tspan><tspan x="1087" y="790.46">dormant for millennia spread across the globe. Diseases of </tspan><tspan x="1087" y="820.46">all kinds rapidly overwhelmed humanity, and a series of </tspan><tspan x="1087" y="850.46">natural disasters began to destroy the planet.
</tspan><tspan x="1087" y="884.46">
</tspan><tspan x="1087" y="918.46">Dwindling resources and petty disputes between nations </tspan><tspan x="1087" y="948.46">stood in the way of their united stand against the </tspan><tspan x="1087" y="978.46">catastrophe, so their last opportunity passed in vain.</tspan></text><text fill="white" xml:space="preserve" style="white-space: pre" font-family="Charis SIL" font-size="25" letter-spacing="0em"><tspan x="2856" y="789.46">In the year 2050 AD, humanity has reached a singularity.
</tspan><tspan x="2856" y="823.46">After a prolonged period of consumption, human </tspan><tspan x="2856" y="853.46">civilization has rapidly exhausted the planet&apos;s resources, 
</tspan><tspan x="2856" y="887.46">and the place they call home is devastated.</tspan></text><text fill="white" xml:space="preserve" style="white-space: pre" font-family="Charis SIL" font-size="25" letter-spacing="0em"><tspan x="3678" y="934.46">In 2051, the first missile was fired, signaling the beginning of World War III. No one knows what triggered it. It could have been a localized war </tspan><tspan x="3678" y="964.46">between hated enemies, terrorism by a fanatical religious organization, or simply a blind missile launched due to a technical error, but the truth </tspan><tspan x="3678" y="994.46">didn&apos;t matter to anyone. It was a savage, brutal war with no laws, no rules, or morals. Humanity utilized its deadliest weapons on each other as </tspan><tspan x="3678" y="1024.46">if it were trying to use up all the weapons it had ever accumulated. </tspan></text><text fill="white" xml:space="preserve" style="white-space: pre" font-family="Charis SIL" font-size="25" letter-spacing="0em"><tspan x="5435" y="244.46">Every </tspan><tspan x="5508.25" y="244.46">day, </tspan><tspan x="5565.49" y="244.46">missiles </tspan><tspan x="5661.65" y="244.46">and </tspan><tspan x="5712.81" y="244.46">shells </tspan><tspan x="5784.33" y="244.46">flew </tspan><tspan x="5841.89" y="244.46">like </tspan><tspan x="5892.66" y="244.46">birds </tspan><tspan x="5958.15" y="244.46">of </tspan><tspan x="5990.04" y="244.46">prey </tspan><tspan x="6049.48" y="244.46">as </tspan><tspan x="6082.3" y="244.46">the </tspan><tspan x="6127.56" y="244.46">automated </tspan><tspan x="6255.6" y="244.46">systems </tspan><tspan x="6350.9" y="244.46">humanity </tspan><tspan x="5435" y="274.46">had </tspan><tspan x="5490.97" y="274.46">developed </tspan><tspan x="5618.99" y="274.46">captured </tspan><tspan x="5731.02" y="274.46">the </tspan><tspan x="5780.91" y="274.46">enemy. </tspan><tspan x="5875.92" y="274.46">The </tspan><tspan x="5932.3" y="274.46">enemy </tspan><tspan x="6020.31" y="274.46">changed </tspan><tspan x="6127.5" y="274.46">every </tspan><tspan x="6203.07" y="274.46">day, </tspan><tspan x="6264.95" y="274.46">and </tspan><tspan x="6320.76" y="274.46">the </tspan><tspan x="6370.65" y="274.46">factions </tspan><tspan x="5435" y="304.46">changed </tspan><tspan x="5542.98" y="304.46">every </tspan><tspan x="5619.34" y="304.46">day. </tspan><tspan x="5682.01" y="304.46">It </tspan><tspan x="5714.33" y="304.46">was </tspan><tspan x="5772.16" y="304.46">a </tspan><tspan x="5800.46" y="304.46">struggle </tspan><tspan x="5904.46" y="304.46">to </tspan><tspan x="5942.13" y="304.46">escape </tspan><tspan x="6030.52" y="304.46">the </tspan><tspan x="6081.2" y="304.46">approaching </tspan><tspan x="6234.5" y="304.46">doom </tspan><tspan x="6312.64" y="304.46">as </tspan><tspan x="6350.9" y="304.46">humanity </tspan><tspan x="5435" y="334.46">continued </tspan><tspan x="5553.84" y="334.46">to </tspan><tspan x="5584.48" y="334.46">attack </tspan><tspan x="5660.45" y="334.46">without </tspan><tspan x="5755.35" y="334.46">knowing </tspan><tspan x="5859.52" y="334.46">who </tspan><tspan x="5915.6" y="334.46">they </tspan><tspan x="5972.5" y="334.46">were </tspan><tspan x="6034.92" y="334.46">firing </tspan><tspan x="6103.89" y="334.46">at. </tspan><tspan x="6140.66" y="334.46">But </tspan><tspan x="6187.06" y="334.46">despite </tspan><tspan x="6274.27" y="334.46">the </tspan><tspan x="6317.92" y="334.46">struggle, </tspan><tspan x="6421.89" y="334.46">the </tspan><tspan x="5435" y="364.46">end </tspan><tspan x="5483.24" y="364.46">came </tspan><tspan x="5548.81" y="364.46">suddenly. </tspan><tspan x="5663.04" y="364.46">The </tspan><tspan x="5712.33" y="364.46">war </tspan><tspan x="5762.1" y="364.46">erased </tspan><tspan x="5840.88" y="364.46">vast </tspan><tspan x="5892.98" y="364.46">numbers </tspan><tspan x="5996.24" y="364.46">of </tspan><tspan x="6025.68" y="364.46">humans </tspan><tspan x="6120.09" y="364.46">from </tspan><tspan x="6180.58" y="364.46">the </tspan><tspan x="6223.38" y="364.46">face </tspan><tspan x="6275.84" y="364.46">of </tspan><tspan x="6305.28" y="364.46">the </tspan><tspan x="6348.07" y="364.46">earth, </tspan><tspan x="6420.38" y="364.46">but </tspan><tspan x="5435" y="394.46">humanity </tspan><tspan x="5557.53" y="394.46">was </tspan><tspan x="5616.21" y="394.46">not </tspan><tspan x="5668.91" y="394.46">extinct. </tspan><tspan x="5767.75" y="394.46">Some </tspan><tspan x="5844.33" y="394.46">fled </tspan><tspan x="5902.7" y="394.46">the </tspan><tspan x="5954.23" y="394.46">catastrophe </tspan><tspan x="6098.68" y="394.46">in </tspan><tspan x="6136.88" y="394.46">various </tspan><tspan x="6234.43" y="394.46">ways: </tspan><tspan x="6313.37" y="394.46">underground </tspan><tspan x="5435" y="424.46">bunkers, </tspan><tspan x="5537" y="424.46">natural </tspan><tspan x="5623.89" y="424.46">mountain </tspan><tspan x="5737.49" y="424.46">caves, </tspan><tspan x="5811.64" y="424.46">and </tspan><tspan x="5859.98" y="424.46">remote </tspan><tspan x="5944.96" y="424.46">islands. </tspan><tspan x="6027.92" y="424.46">
</tspan><tspan x="5435" y="458.46">
</tspan><tspan x="5435" y="492.46">They </tspan><tspan x="5497.58" y="492.46">survived </tspan><tspan x="5599.71" y="492.46">the </tspan><tspan x="5642.53" y="492.46">war, </tspan><tspan x="5699.35" y="492.46">and </tspan><tspan x="5748.08" y="492.46">they </tspan><tspan x="5804.16" y="492.46">survived </tspan><tspan x="5906.29" y="492.46">the </tspan><tspan x="5949.12" y="492.46">carnage </tspan><tspan x="6043.29" y="492.46">of </tspan><tspan x="6072.76" y="492.46">runaway </tspan><tspan x="6176.96" y="492.46">automatons. </tspan><tspan x="6320.96" y="492.46">The </tspan><tspan x="6370.28" y="492.46">humans </tspan><tspan x="5435" y="522.46">who </tspan><tspan x="5490.81" y="522.46">didn&apos;t </tspan><tspan x="5561.86" y="522.46">come </tspan><tspan x="5628.9" y="522.46">out </tspan><tspan x="5673.51" y="522.46">easily, </tspan><tspan x="5752" y="522.46">fearing </tspan><tspan x="5838.11" y="522.46">that </tspan><tspan x="5890.46" y="522.46">the </tspan><tspan x="5933.84" y="522.46">war </tspan><tspan x="5984.21" y="522.46">might </tspan><tspan x="6057.33" y="522.46">not </tspan><tspan x="6101.89" y="522.46">be </tspan><tspan x="6136.31" y="522.46">over </tspan><tspan x="6193.47" y="522.46">yet, </tspan><tspan x="6242.76" y="522.46">didn&apos;t </tspan><tspan x="6313.81" y="522.46">come </tspan><tspan x="6380.85" y="522.46">out </tspan><tspan x="6425.46" y="522.46">for </tspan><tspan x="5435" y="552.46">a </tspan><tspan x="5456.96" y="552.46">long </tspan><tspan x="5514.55" y="552.46">time </tspan><tspan x="5573.4" y="552.46">after </tspan><tspan x="5634.06" y="552.46">the </tspan><tspan x="5678.41" y="552.46">war </tspan><tspan x="5729.75" y="552.46">ended. </tspan><tspan x="5812.92" y="552.46">And </tspan><tspan x="5867.3" y="552.46">when </tspan><tspan x="5936.92" y="552.46">they </tspan><tspan x="5994.53" y="552.46">finally </tspan><tspan x="6074.5" y="552.46">gathered </tspan><tspan x="6180.86" y="552.46">the </tspan><tspan x="6225.22" y="552.46">courage </tspan><tspan x="6321.84" y="552.46">to </tspan><tspan x="6353.18" y="552.46">step </tspan><tspan x="6407.12" y="552.46">onto </tspan><tspan x="5435" y="582.46">the </tspan><tspan x="5478.42" y="582.46">ground </tspan><tspan x="5565.79" y="582.46">for </tspan><tspan x="5605.64" y="582.46">the </tspan><tspan x="5649.07" y="582.46">first </tspan><tspan x="5701.35" y="582.46">time, </tspan><tspan x="5766.28" y="582.46">they </tspan><tspan x="5822.96" y="582.46">found </tspan><tspan x="5895.55" y="582.46">a </tspan><tspan x="5916.59" y="582.46">world </tspan><tspan x="5989.4" y="582.46">in </tspan><tspan x="6019.49" y="582.46">ruins. </tspan><tspan x="6090.58" y="582.46">Not </tspan><tspan x="6139.03" y="582.46">a </tspan><tspan x="6160.06" y="582.46">blade </tspan><tspan x="6228.77" y="582.46">of </tspan><tspan x="6258.84" y="582.46">grass </tspan><tspan x="6322.72" y="582.46">grew </tspan><tspan x="6385.8" y="582.46">on </tspan><tspan x="6421.89" y="582.46">the </tspan><tspan x="5435" y="612.46">scorched </tspan><tspan x="5541.56" y="612.46">earth </tspan><tspan x="5608.38" y="612.46">as </tspan><tspan x="5640.26" y="612.46">a </tspan><tspan x="5662.18" y="612.46">result </tspan><tspan x="5733.54" y="612.46">of </tspan><tspan x="5764.49" y="612.46">the </tspan><tspan x="5808.8" y="612.46">chemical </tspan><tspan x="5916.9" y="612.46">weapons, </tspan><tspan x="6029.39" y="612.46">as </tspan><tspan x="6061.27" y="612.46">the </tspan><tspan x="6105.58" y="612.46">air </tspan><tspan x="6144.88" y="612.46">filled </tspan><tspan x="6211.01" y="612.46">with </tspan><tspan x="6270.24" y="612.46">radioactive </tspan><tspan x="6403.19" y="612.46">dust. </tspan><tspan x="5435" y="642.46">The </tspan><tspan x="5485.61" y="642.46">carcasses </tspan><tspan x="5595.28" y="642.46">of </tspan><tspan x="5626.04" y="642.46">dead </tspan><tspan x="5688.25" y="642.46">animals </tspan><tspan x="5783.12" y="642.46">floated </tspan><tspan x="5868.89" y="642.46">in </tspan><tspan x="5899.67" y="642.46">the </tspan><tspan x="5943.79" y="642.46">toxic </tspan><tspan x="6006.88" y="642.46">rivers, </tspan><tspan x="6085.52" y="642.46">and </tspan><tspan x="6135.54" y="642.46">unexplained </tspan><tspan x="6280.24" y="642.46">electromagnetic </tspan><tspan x="5435" y="672.46">storms </tspan><tspan x="5516.22" y="672.46">raged </tspan><tspan x="5586.38" y="672.46">periodically </tspan><tspan x="5725.92" y="672.46">- </tspan><tspan x="5742.08" y="672.46">A </tspan><tspan x="5767.07" y="672.46">world </tspan><tspan x="5839.73" y="672.46">of </tspan><tspan x="5869.63" y="672.46">ash </tspan><tspan x="5914.81" y="672.46">and </tspan><tspan x="5963.98" y="672.46">dust. </tspan><tspan x="6025.93" y="672.46">That&apos;s </tspan><tspan x="6098.88" y="672.46">what </tspan><tspan x="6162.18" y="672.46">the </tspan><tspan x="6205.43" y="672.46">humans </tspan><tspan x="6300.3" y="672.46">who </tspan><tspan x="6355.98" y="672.46">had </tspan><tspan x="6405.32" y="672.46">once </tspan><tspan x="5435" y="702.46">again </tspan><tspan x="5502.68" y="702.46">set </tspan><tspan x="5540.71" y="702.46">foot </tspan><tspan x="5591.88" y="702.46">on </tspan><tspan x="5626.99" y="702.46">the </tspan><tspan x="5669.42" y="702.46">earth </tspan><tspan x="5734.37" y="702.46">had </tspan><tspan x="5782.88" y="702.46">always </tspan><tspan x="5865.86" y="702.46">called </tspan><tspan x="5938.76" y="702.46">their </tspan><tspan x="5998.57" y="702.46">world.
</tspan><tspan x="5435" y="736.46">
</tspan><tspan x="5435" y="770.46">One </tspan><tspan x="5491.56" y="770.46">day, </tspan><tspan x="5550.48" y="770.46">the </tspan><tspan x="5597.42" y="770.46">war </tspan><tspan x="5651.34" y="770.46">ended </tspan><tspan x="5730.09" y="770.46">as </tspan><tspan x="5764.6" y="770.46">abruptly </tspan><tspan x="5870.23" y="770.46">as </tspan><tspan x="5904.75" y="770.46">it </tspan><tspan x="5932.66" y="770.46">had </tspan><tspan x="5985.68" y="770.46">begun. </tspan><tspan x="6072.22" y="770.46">No </tspan><tspan x="6115.69" y="770.46">one </tspan><tspan x="6167.56" y="770.46">knew </tspan><tspan x="6238.77" y="770.46">why </tspan><tspan x="6297.79" y="770.46">it </tspan><tspan x="6325.71" y="770.46">started, </tspan><tspan x="6420.38" y="770.46">but </tspan><tspan x="5435" y="800.46">everyone </tspan><tspan x="5548.69" y="800.46">knew </tspan><tspan x="5620.93" y="800.46">why </tspan><tspan x="5680.98" y="800.46">it </tspan><tspan x="5709.93" y="800.46">ended. </tspan><tspan x="5796.72" y="800.46">No </tspan><tspan x="5841.22" y="800.46">human </tspan><tspan x="5930.84" y="800.46">being </tspan><tspan x="6004.76" y="800.46">was </tspan><tspan x="6059.89" y="800.46">left </tspan><tspan x="6109.08" y="800.46">on </tspan><tspan x="6149.72" y="800.46">the </tspan><tspan x="6197.69" y="800.46">face </tspan><tspan x="6255.33" y="800.46">of </tspan><tspan x="6289.94" y="800.46">the </tspan><tspan x="6337.91" y="800.46">earth. </tspan><tspan x="6415.4" y="800.46">The </tspan><tspan x="5435" y="830.46">governments </tspan><tspan x="5585.93" y="830.46">of </tspan><tspan x="5616.25" y="830.46">the </tspan><tspan x="5659.93" y="830.46">nations </tspan><tspan x="5749.24" y="830.46">had </tspan><tspan x="5799" y="830.46">been </tspan><tspan x="5860.16" y="830.46">incinerated </tspan><tspan x="5993.56" y="830.46">by </tspan><tspan x="6029.28" y="830.46">the </tspan><tspan x="6072.96" y="830.46">nuclear </tspan><tspan x="6163.78" y="830.46">weapons </tspan><tspan x="6268.64" y="830.46">they </tspan><tspan x="6325.58" y="830.46">had </tspan><tspan x="6375.33" y="830.46">fired </tspan><tspan x="6435.78" y="830.46">at </tspan><tspan x="5435" y="860.46">each </tspan><tspan x="5496.23" y="860.46">other </tspan><tspan x="5564.98" y="860.46">in </tspan><tspan x="5597.02" y="860.46">the </tspan><tspan x="5642.38" y="860.46">closing </tspan><tspan x="5730.18" y="860.46">days </tspan><tspan x="5790.48" y="860.46">of </tspan><tspan x="5822.49" y="860.46">the </tspan><tspan x="5867.85" y="860.46">war. </tspan><tspan x="5927.21" y="860.46">But </tspan><tspan x="5975.33" y="860.46">even </tspan><tspan x="6037.51" y="860.46">without </tspan><tspan x="6134.12" y="860.46">governments, </tspan><tspan x="6293.74" y="860.46">the </tspan><tspan x="6339.1" y="860.46">automated </tspan><tspan x="5435" y="890.46">weapons </tspan><tspan x="5540.72" y="890.46">systems </tspan><tspan x="5635.32" y="890.46">of </tspan><tspan x="5666.5" y="890.46">the </tspan><tspan x="5711.05" y="890.46">nations </tspan><tspan x="5801.22" y="890.46">carried </tspan><tspan x="5888.56" y="890.46">out </tspan><tspan x="5934.32" y="890.46">their </tspan><tspan x="5996.25" y="890.46">orders, </tspan><tspan x="6082.2" y="890.46">and </tspan><tspan x="6132.65" y="890.46">the </tspan><tspan x="6177.19" y="890.46">war </tspan><tspan x="6228.72" y="890.46">was </tspan><tspan x="6280.41" y="890.46">over </tspan><tspan x="6338.73" y="890.46">only </tspan><tspan x="6396.62" y="890.46">when </tspan><tspan x="5435" y="920.46">the </tspan><tspan x="5480.1" y="920.46">automated </tspan><tspan x="5607.99" y="920.46">weapons, </tspan><tspan x="5721.28" y="920.46">transformed </tspan><tspan x="5865.6" y="920.46">into </tspan><tspan x="5919.47" y="920.46">killing </tspan><tspan x="6000.17" y="920.46">machines, </tspan><tspan x="6121.15" y="920.46">roamed </tspan><tspan x="6214.88" y="920.46">the </tspan><tspan x="6259.98" y="920.46">earth, </tspan><tspan x="6334.6" y="920.46">wiping </tspan><tspan x="6420.67" y="920.46">out </tspan><tspan x="5435" y="950.46">every </tspan><tspan x="5504.48" y="950.46">last </tspan><tspan x="5551.77" y="950.46">human </tspan><tspan x="5637.22" y="950.46">being </tspan><tspan x="5706.97" y="950.46">on </tspan><tspan x="5743.45" y="950.46">the </tspan><tspan x="5787.25" y="950.46">planet. </tspan><tspan x="5872.01" y="950.46">As </tspan><tspan x="5907.51" y="950.46">a </tspan><tspan x="5928.92" y="950.46">result, </tspan><tspan x="6006.78" y="950.46">all </tspan><tspan x="6043.03" y="950.46">traces </tspan><tspan x="6116.59" y="950.46">of </tspan><tspan x="6147.04" y="950.46">humanity </tspan><tspan x="6261.83" y="950.46">were </tspan><tspan x="6324.41" y="950.46">erased </tspan><tspan x="6404.19" y="950.46">from </tspan><tspan x="5435" y="980.46">the </tspan><tspan x="5478.07" y="980.46">ruined </tspan><tspan x="5558.2" y="980.46">world, </tspan><tspan x="5637.68" y="980.46">and </tspan><tspan x="5686.66" y="980.46">one </tspan><tspan x="5734.66" y="980.46">by </tspan><tspan x="5769.77" y="980.46">one, </tspan><tspan x="5824.78" y="980.46">the </tspan><tspan x="5867.85" y="980.46">aimless </tspan><tspan x="5956.99" y="980.46">machines </tspan><tspan x="6068.94" y="980.46">shut </tspan><tspan x="6123.95" y="980.46">down. </tspan><tspan x="6200.39" y="980.46">The </tspan><tspan x="6249.96" y="980.46">war </tspan><tspan x="6300.01" y="980.46">had </tspan><tspan x="6349.16" y="980.46">destroyed </tspan><tspan x="5435" y="1010.46">human </tspan><tspan x="5519.08" y="1010.46">nations </tspan><tspan x="5607.14" y="1010.46">and </tspan><tspan x="5655.48" y="1010.46">societies, </tspan><tspan x="5763.17" y="1010.46">but </tspan><tspan x="5807.12" y="1010.46">it </tspan><tspan x="5830.53" y="1010.46">had </tspan><tspan x="5879.04" y="1010.46">not </tspan><tspan x="5922.65" y="1010.46">destroyed </tspan><tspan x="6037.81" y="1010.46">humanity </tspan><tspan x="6151.24" y="1010.46">just </tspan><tspan x="6198.55" y="1010.46">yet. </tspan></text><image x="6552" width="1709" height="1080" fill="url(#img1719309320150_pattern1_3894_199)" xlink:href="/story/fidelion-1-1/2.png"/><text fill="black" xml:space="preserve" style="white-space: pre" font-family="Charis SIL" font-size="25" letter-spacing="0em"><tspan x="6636" y="866.46">Humanity&apos;s greatest challenge upon returning to the surface was survival. To find uncontaminated land, build </tspan><tspan x="6636" y="896.46">facilities to purify water, and find areas where they could be self-sufficient. In a world of ash and dust, they had to </tspan><tspan x="6636" y="926.46">face death daily to survive. There was no meaning to nations or people before the war. In a world where so much </tspan><tspan x="6636" y="956.46">of humanity was gone, humans cooperated and formed tribes to survive. With great sacrifice, they found the few </tspan><tspan x="6636" y="986.46">remaining viable areas on the ground and put down roots. Humanity, once destroyed by war, was rebuilding its </tspan><tspan x="6636" y="1016.46">society once again, and it was around this time that the name Jake Marcus came to the forefront of history.</tspan></text></g><defs><pattern id="img1719309320150_pattern0_3894_199" patternContentUnits="objectBoundingBox" width="1" height="1"><use xlink:href="#image0_3894_199" transform="scale(0.000244123 0.00110375)"/></pattern><pattern id="img1719309320150_pattern1_3894_199" patternContentUnits="objectBoundingBox" width="1" height="1"><use xlink:href="#image1_3894_199" transform="scale(0.000244184 0.000386399)"/></pattern><clipPath id="clip0_3894_199"><rect width="8261" height="1080" fill="white"/></clipPath><image id="image0_3894_199" width="4096" height="906" xlink:href="/story/fidelion-1-1/1.png"/><image id="image1_3894_199" width="4096" height="2588" xlink:href="/story/fidelion-1-1/2.png"/></defs></svg>