<svg width="7954" height="1080" viewBox="0 0 7954 1080" fill="none" xmlns="http://www.w3.org/2000/svg" xmlns:xlink="http://www.w3.org/1999/xlink"><g clip-path="url(#clip0_3891_30)"><rect width="7954" height="1080" fill="black"/><image x="457" width="4883" height="1080" fill="url(#img1719221476398_pattern0_3891_30)" xlink:href="/story/fidelion-1-1/1.png"/><text fill="white" xml:space="preserve" style="white-space: pre" font-family="Pretendard" font-size="45" letter-spacing="0em"><tspan x="68" y="78.9961">Fidelion</tspan></text><path d="M743 936H185V600.5L230.124 546.6L522.882 426.7L532.787 415.7V342L518.479 327.7H409.521L395.213 342V411.3H185V260.6L279.651 166H648.349L743 260.6V503.7L698.976 555.4L405.118 675.3L395.213 687.4V774.3H532.787V686.3H743V936Z" fill="white"/><text fill="white" xml:space="preserve" style="white-space: pre" font-family="Pretendard" font-size="45" letter-spacing="0em"><tspan x="68" y="1020">Scroll &amp; Drag.</tspan></text><text fill="white" xml:space="preserve" style="white-space: pre" font-family="Pretendard" font-size="25" letter-spacing="0em"><tspan x="1087" y="700.887">온난화로 녹아내린 극지의 얼음 아래에서, 수천 년 동안 잠들어 있</tspan><tspan x="1087" y="732.887">던 치명적인 세균들이 전 세계로 퍼져나갔다. 갖가지 질병들이 급</tspan><tspan x="1087" y="764.887">속도로 인류를 덮쳤으며, 동시다발적으로 발생하는 자연재해가 인</tspan><tspan x="1087" y="796.887">류의 터전을 짓밟기 시작했다.</tspan><tspan x="1087" y="832.887"></tspan><tspan x="1087" y="868.887">갑작스러운, 그러나 예정되어 있었던 대재해에 인류는 그동안 쌓</tspan><tspan x="1087" y="900.887">아 올린 과학기술로 맞섰다.그러나 이미 바닥을 드러내기 시작한 </tspan><tspan x="1087" y="932.887">자원과 각 국가 간의 사소한 분쟁은 그들이 하나 되어재앙에 맞서</tspan><tspan x="1087" y="964.887">는 길을 가로막았고, 그렇게 마지막 골든타임마저 허무하게 지나</tspan><tspan x="1087" y="996.887">가고 있었다.</tspan></text><text fill="white" xml:space="preserve" style="white-space: pre" font-family="Pretendard" font-size="25" letter-spacing="0em"><tspan x="2856" y="789.887">서기 2050년. 인류는 특이점에 도달해 있었다.</tspan><tspan x="2856" y="825.887">오랜 시간 동안 소비를 거듭한 인류의 문명은 지구상의 자원을 빠르게 </tspan><tspan x="2856" y="857.887">소모하였고, 자신들의생활 터전인 지구를 급속히 파괴해 나갔다.</tspan></text><text fill="white" xml:space="preserve" style="white-space: pre" font-family="Pretendard" font-size="25" letter-spacing="0em"><tspan x="3730" y="950.887">2051년, 세계 대전의 막을 여는 신호탄이 발사되었다. 계기는 아무도 알지 못했다. 서로 반목하던 적대국 간의 국지전이었는지, 광신적인 종교 단체의 테러였는지. </tspan><tspan x="3730" y="982.887">어쩌면 단순히 기술적 오류로 인해 발사된 눈 먼 미사일이 원인이었는지도 모르지만, 이미 그 진위는 누구에게도 중요하지 않았다. 법도 규칙도, 인류 최후의 도덕</tspan><tspan x="3730" y="1014.89">조차 없는 야만스럽고 잔혹한 전쟁이었다. 마치 그동안 모아둔 모든 무기를 소모하려는 것처럼 인류는 서로를 향해 가장 치명적인 무기들을 아낌없이 사용하였다. </tspan></text><text fill="white" xml:space="preserve" style="white-space: pre" font-family="Pretendard" font-size="25" letter-spacing="0em"><tspan x="5421" y="160.887">인류가 발전시킨 자동화 시스템이 적을 포착했고, 매일같이 미사일과 포탄이 </tspan><tspan x="5421" y="192.887">새처럼 날아다녔다. 매일같이 적이 바뀌었고, 매일같이 진영이 바뀌었다. 이미 </tspan><tspan x="5421" y="224.887">누구를 향해 쏘아대는지도 알 수 없어진 채 계속해서 공격을 거듭하는 인류의 </tspan><tspan x="5421" y="256.887">모습은 마치 다가오는 파멸에서 도망치려는 몸부림과도 같았다. 그러나 그런 </tspan><tspan x="5421" y="288.887">몸부림도 무색하게, 끝은 갑작스럽게 다가왔다. 전쟁은 지상에서 엄청난 숫자</tspan><tspan x="5421" y="320.887">의 인간들을 지웠지만, 인류는 절멸하지 않았다.지하 벙커, 산 속의 천연 동굴, </tspan><tspan x="5421" y="352.887">외딴 섬 등 갖가지 방법으로 재앙을 피해 도망친 인간들이 있었던 것이다. </tspan><tspan x="5421" y="388.887"></tspan><tspan x="5421" y="424.887">그들은 전쟁을 피해 살아남았고, 폭주한 자동기계에 의한 살육에서도 목숨을 </tspan><tspan x="5421" y="456.887">건질 수 있었다.전쟁이 아직 끝나지 않았을지 모른다는 공포에 쉽사리 바깥으</tspan><tspan x="5421" y="488.887">로 나오지 못했던 인간들은 전쟁이 끝나고도 한참이나 밖으로 나오지 못했다. </tspan><tspan x="5421" y="520.887">그리고 마침내 용기를 낸 그들이 처음으로 지상에 발을 디뎠을 때, 그들이 발</tspan><tspan x="5421" y="552.887">견한 것은 폐허가 된 세계였다.화학무기로 인해 불타 버린 대지에서는 풀 한 </tspan><tspan x="5421" y="584.887">포기 자라지 않았고, 대기에는 방사능에 오염된 먼지가 가득했다. 유독물질로 </tspan><tspan x="5421" y="616.887">오염된 강에는 죽은 생물들의 시체가 떠다녔고, 정체를 알 수 없는 전자기 폭</tspan><tspan x="5421" y="648.887">풍마저 주기적으로 몰아치고 있었다. 재와 먼지의 세계.다시금 대지에 발을 </tspan><tspan x="5421" y="680.887">디딘 인간들은, 언제부턴가 자신들이 놓인 세계를 그렇게 부르고 있었다.</tspan><tspan x="5421" y="716.887"></tspan><tspan x="5421" y="752.887">어느 날, 전쟁은 시작했던 것처럼 갑작스럽게 끝났다. 시작된 이유는 누구도 </tspan><tspan x="5421" y="784.887">알지 못했지만, 끝난 이유는 누구라도 알 수 있었다. 지상에 남은 인간이 한 명</tspan><tspan x="5421" y="816.887">도 없었으니까. 각국의 정부는 전쟁이 막바지에 이르렀을 때 서로 쏘아댄 핵무</tspan><tspan x="5421" y="848.887">기에 의해 불타 사라졌다. 국가는 붕괴되었고, 인간들은 뿔뿔이 흩어졌다. 그</tspan><tspan x="5421" y="880.887">러나 정부가 사라졌음에도 자동화시킨 각국의 무기 시스템은 명령을 수행했</tspan><tspan x="5421" y="912.887">고, 살육 기계로 변한 자동화 무기들이 대지를 활보하며 지상에 남은 마지막 </tspan><tspan x="5421" y="944.887">인간까지 없애 버렸을 때 비로소 전쟁은 끝났다. 폐허만 남은 지상에서 인류의 </tspan><tspan x="5421" y="976.887">흔적은 지워졌고, 목표가 없어진 기계들은 차례로 작동을 멈추었다. 전쟁은 </tspan><tspan x="5421" y="1008.89">인간의 국가와 사회를 멸망시켰다.그러나, 그럼에도 인류는 멸망하지 않았다. </tspan></text><image x="6245" width="1709" height="1080" fill="url(#img1719221476398_pattern1_3891_30)" xlink:href="/story/fidelion-1-1/2.png"/><text fill="black" xml:space="preserve" style="white-space: pre" font-family="Pretendard" font-size="25" letter-spacing="0em"><tspan x="6329" y="866.887">다시 지상에 발을 디딘 인류의 최대 과제는 생존이었다. 오염되지 않은 대지를 찾아내고, 물을 정화하는 시설을 마련하여, 자급자</tspan><tspan x="6329" y="898.887">족이 가능한 지역을 찾아내는 것. 재와 먼지의 세계에서 그들은 하루하루 생존을 위해 죽음과 직면해야 했다.이미 전쟁 전의 국가</tspan><tspan x="6329" y="930.887">나 민족에 의미는 없었다. 엄청난 수의 인류가 사라진 세상에서, 인간들은 살아남기 위해 서로 협력했고, 무리를 만들었다. 많은 희</tspan><tspan x="6329" y="962.887">생을 치렀지만 그들은 이윽고 지상에 남은 생존 가능한 지역을 찾아낼 수 있었고, 곧 그 지역을 중심으로 무리를 형성하며 뿌리를 </tspan><tspan x="6329" y="994.887">내리기 시작했다. 전쟁으로 한 번 멸망했던 인류는 그렇게 다시금 사회를 재건하고 있었다. ‘제이크 마커스’라는 이름이 역사의 전</tspan><tspan x="6329" y="1026.89">면에 모습을 드러낸 것은, 그 무렵이었다.</tspan></text></g><defs><pattern id="img1719221476398_pattern0_3891_30" patternContentUnits="objectBoundingBox" width="1" height="1"><use xlink:href="#image0_3891_30" transform="scale(0.000244123 0.00110375)"/></pattern><pattern id="img1719221476398_pattern1_3891_30" patternContentUnits="objectBoundingBox" width="1" height="1"><use xlink:href="#image1_3891_30" transform="scale(0.000244184 0.000386399)"/></pattern><clipPath id="clip0_3891_30"><rect width="7954" height="1080" fill="white"/></clipPath><image id="image0_3891_30" width="4096" height="906" xlink:href="/story/fidelion-1-1/fidelion-1-1/1.png"/><image id="image1_3891_30" width="4096" height="2588" xlink:href="/story/fidelion-1-1/fidelion-1-1/2.png"/></defs></svg>