<svg width="9384" height="1080" viewBox="0 0 9384 1080" fill="none" xmlns="http://www.w3.org/2000/svg" xmlns:xlink="http://www.w3.org/1999/xlink"><g clip-path="url(#clip0_3933_159)"><rect width="9384" height="1080" fill="black"/><image x="1553" width="5744" height="1080" fill="url(#img1719307888210_pattern0_3933_159)" xlink:href="/story/fidelion-5-2/1.png"/><image x="7926" width="1186" height="1080" fill="url(#img1719307888210_pattern1_3933_159)" xlink:href="/story/fidelion-5-2/2.png"/><image x="4719" y="29" width="437" height="1022" fill="url(#img1719307888210_pattern2_3933_159)" xlink:href="/story/fidelion-5-2/3.png"/><text fill="white" xml:space="preserve" style="white-space: pre" font-family="Noto Serif JP" font-size="25" letter-spacing="0em"><tspan x="5212.5" y="65.3125">フィデリア帝国は長年にわたって恐怖に</tspan><tspan x="5212.5" y="97.3125">基づく政治体制で国を統治し、厳しく訓</tspan><tspan x="5212.5" y="129.312">練された兵士によってテキサス全土に圧</tspan><tspan x="5212.5" y="161.312">倒的な軍事的優位性を確立してきた。コ</tspan><tspan x="5212.5" y="193.312">サックやハンターなどの同盟グループの</tspan><tspan x="5212.5" y="225.312">支援があれば、ジェイク・マーカスの独</tspan><tspan x="5212.5" y="257.312">裁を阻止できる勢力はないようだ。</tspan></text><g style="mix-blend-mode:lighten"><image x="5203" y="298" width="470" height="324" fill="url(#img1719307888210_pattern3_3933_159)" xlink:href="/story/fidelion-5-2/4.png"/></g><text fill="white" xml:space="preserve" style="white-space: pre" font-family="Noto Serif JP" font-size="25" letter-spacing="0em"><tspan x="5217.5" y="684.312">強力な軍事システムの中心には有能な</tspan><tspan x="5217.5" y="716.312">人材がおり、ローン・フレデリック将</tspan><tspan x="5217.5" y="748.312">軍とセリーン・アデル将軍の役割は無</tspan><tspan x="5217.5" y="780.312">視できません。ローンは長年ジェイク</tspan><tspan x="5217.5" y="812.312">の右腕として働き、今でもフィデリア</tspan><tspan x="5217.5" y="844.312">帝国で最高の戦略家とみなされていま</tspan><tspan x="5217.5" y="876.312">す。フィデリア拡大初期の小さな町か</tspan><tspan x="5217.5" y="908.312">らの最初の新兵の一人であるセレーネ</tspan><tspan x="5217.5" y="940.312">には軍事経験も政治知識もほとんどな</tspan><tspan x="5217.5" y="972.312">かったが、ジェイクが彼女を指導下に</tspan><tspan x="5217.5" y="1004.31">置き、彼女はすぐに出世してフィデリ</tspan><tspan x="5217.5" y="1036.31">ア最高権力の事実上の中心となった。</tspan></text><path d="M9220 0H9123V1080H9220V0Z" fill="#CC0000"/><path d="M7756 371.639V302.34L7674.67 259.795H7756V201.848H7649.26V173.265V167.003V164H7646.38H7639.96H7528.12H7525.24H7521.31L7524.59 166.221L7576.19 201.848H7465V259.795H7546.33L7465 302.34V384.559V475H7537.95V371.639H7489.62L7576.19 326.351V475H7649.26V328.702L7731.38 371.639H7683.05V475H7756V371.639Z" fill="white"/><path d="M7834.2 374.4V356.6H7815.2V394.8H7833.6V387.4H7847.6V418.4H7833.6V411H7815.2V448H7823.6V475H7784V448H7792.4V356.6H7784V329.6H7856.2V374.4H7834.2Z" fill="white"/><path d="M7937.6 455.6C7936.54 460.8 7934.47 465 7931.4 468.2C7928.47 471.266 7924.47 473.533 7919.4 475H7887C7881.94 473.533 7877.87 471.266 7874.8 468.2C7871.87 465 7869.87 460.8 7868.8 455.6V430.2H7891.4V442.6C7891.4 445.266 7891.87 447.066 7892.8 448C7893.87 448.8 7895 449.466 7896.2 450H7908.2C7909.4 449.466 7910.47 448.8 7911.4 448C7912.47 447.066 7913 445.266 7913 442.6L7913.2 439V430.4C7913.2 427.866 7912.94 426.066 7912.4 425C7912 423.933 7910.74 422.666 7908.6 421.2L7877.4 401C7875.14 399.4 7873 396.933 7871 393.6C7869.14 390.266 7868.2 386.466 7868.2 382.2V350C7868.74 347.066 7869.74 344.333 7871.2 341.8C7872.67 339.266 7874.34 337.133 7876.2 335.4C7878.2 333.533 7880.34 332.133 7882.6 331.2C7885 330.133 7887.34 329.6 7889.6 329.6H7907.6L7913.8 336.4V329.6H7937V374.4H7913.8V356.6H7897.2C7896 357.666 7895 358.8 7894.2 360C7893.54 361.066 7893.2 362.933 7893.2 365.6V379.2C7893.2 380.933 7893.47 382.333 7894 383.4C7894.67 384.466 7896.07 385.733 7898.2 387.2L7929.2 407.2C7931.74 408.933 7933.74 411.333 7935.2 414.4C7936.8 417.466 7937.6 420.333 7937.6 423V455.6Z" fill="white"/><path d="M7950.65 349C7951.72 343.8 7953.72 339.666 7956.65 336.6C7959.72 333.4 7963.78 331.066 7968.85 329.6H8000.65C8005.72 331.066 8009.72 333.4 8012.65 336.6C8015.72 339.666 8017.78 343.8 8018.85 349V392.4C8018.18 394.8 8017.12 396.8 8015.65 398.4C8014.18 400 8012.32 401.533 8010.05 403C8012.32 404.466 8014.18 406 8015.65 407.6C8017.12 409.2 8018.18 411.2 8018.85 413.6V455.6C8017.78 460.8 8015.72 465 8012.65 468.2C8009.72 471.266 8005.72 473.533 8000.65 475H7968.85C7963.78 473.533 7959.72 471.266 7956.65 468.2C7953.72 465 7951.72 460.8 7950.65 455.6V413.6C7951.32 411.2 7952.38 409.2 7953.85 407.6C7955.32 406 7957.18 404.466 7959.45 403C7957.18 401.533 7955.32 400 7953.85 398.4C7952.38 396.8 7951.32 394.8 7950.65 392.4V349ZM7973.25 440.6C7973.25 443.266 7973.72 445.066 7974.65 446C7975.72 446.8 7976.85 447.466 7978.05 448H7991.45C7992.65 447.466 7993.72 446.8 7994.65 446C7995.72 445.066 7996.25 443.266 7996.25 440.6V417.8C7995.98 415.133 7994.85 413.4 7992.85 412.6H7976.65C7974.65 413.4 7973.52 415.133 7973.25 417.8V440.6ZM7973.25 388C7973.52 390.666 7974.65 392.4 7976.65 393.2H7992.85C7994.85 392.4 7995.98 390.666 7996.25 388V364C7996.25 361.333 7995.72 359.6 7994.65 358.8C7993.72 357.866 7992.65 357.133 7991.45 356.6H7978.05C7976.85 357.133 7975.72 357.866 7974.65 358.8C7973.72 359.6 7973.25 361.333 7973.25 364V388Z" fill="white"/><text fill="white" xml:space="preserve" style="white-space: pre" font-family="Noto Serif JP" font-size="25" letter-spacing="0em"><tspan x="7465" y="532.812">フィデリアの兵士も敵に恐怖を植え付けるために</tspan><tspan x="7465" y="564.812">赤いガスマスクを着用しています。赤は死、血、</tspan><tspan x="7465" y="596.812">戦争を象徴します。</tspan></text><image x="2804" width="298" height="782" fill="url(#img1719307888210_pattern4_3933_159)" xlink:href="/story/fidelion-5-2/5.png"/><text fill="white" xml:space="preserve" style="white-space: pre" font-family="Pretendard-Bold" font-size="50" font-weight="bold" letter-spacing="0em"><tspan x="2827" y="97.7734">PRIVATE</tspan></text><text fill="white" xml:space="preserve" style="white-space: pre" font-family="Pretendard" font-size="20" letter-spacing="0em"><tspan x="2804" y="819.609">Sergeant</tspan></text><text fill="white" xml:space="preserve" style="white-space: pre" font-family="Noto Sans JP" font-size="20" font-weight="300" letter-spacing="0em"><tspan x="3062" y="821.22">軍曹</tspan></text><text fill="white" xml:space="preserve" style="white-space: pre" font-family="Pretendard" font-size="20" letter-spacing="0em"><tspan x="2804" y="842.609">Corporal</tspan></text><text fill="white" xml:space="preserve" style="white-space: pre" font-family="Noto Sans JP" font-size="20" font-weight="300" letter-spacing="0em"><tspan x="3062" y="844.22">伍長</tspan></text><text fill="white" xml:space="preserve" style="white-space: pre" font-family="Pretendard" font-size="20" letter-spacing="0em"><tspan x="2804" y="865.609">Private First Class</tspan></text><text fill="white" xml:space="preserve" style="white-space: pre" font-family="Noto Sans JP" font-size="20" font-weight="300" letter-spacing="0em"><tspan x="3042" y="867.22">一等兵</tspan></text><text fill="white" xml:space="preserve" style="white-space: pre" font-family="Pretendard" font-size="20" letter-spacing="0em"><tspan x="2804" y="888.609">Private</tspan></text><text fill="white" xml:space="preserve" style="white-space: pre" font-family="Noto Sans JP" font-size="20" font-weight="300" letter-spacing="0em"><tspan x="3042" y="890.22">二等兵</tspan></text><image x="3434" width="298" height="782" fill="url(#img1719307888210_pattern5_3933_159)" xlink:href="/story/fidelion-5-2/6.png"/><text fill="white" xml:space="preserve" style="white-space: pre" font-family="Pretendard-Bold" font-size="50" font-weight="bold" letter-spacing="0em"><tspan x="3457" y="97.7734">COMPANY
</tspan><tspan x="3457" y="147.773">OFFICER</tspan></text><text fill="white" xml:space="preserve" style="white-space: pre" font-family="Pretendard" font-size="20" letter-spacing="0em"><tspan x="3434" y="819.609">Captain</tspan></text><text fill="white" xml:space="preserve" style="white-space: pre" font-family="Noto Sans JP" font-size="20" font-weight="300" letter-spacing="0em"><tspan x="3692" y="821.22">大尉</tspan></text><text fill="white" xml:space="preserve" style="white-space: pre" font-family="Pretendard" font-size="20" letter-spacing="0em"><tspan x="3434" y="842.609">First Lieutenant</tspan></text><text fill="white" xml:space="preserve" style="white-space: pre" font-family="Noto Sans JP" font-size="20" font-weight="300" letter-spacing="0em"><tspan x="3692" y="844.22">中尉</tspan></text><text fill="white" xml:space="preserve" style="white-space: pre" font-family="Pretendard" font-size="20" letter-spacing="0em"><tspan x="3434" y="865.609">Second Lieutenant</tspan></text><text fill="white" xml:space="preserve" style="white-space: pre" font-family="Noto Sans JP" font-size="20" font-weight="300" letter-spacing="0em"><tspan x="3692" y="867.22">少尉</tspan></text><image x="3119" width="298" height="782" fill="url(#img1719307888210_pattern6_3933_159)" xlink:href="/story/fidelion-5-2/7.png"/><text fill="white" xml:space="preserve" style="white-space: pre" font-family="Pretendard-Bold" font-size="50" font-weight="bold" letter-spacing="0em"><tspan x="3142" y="97.7734">NCO</tspan></text><text fill="white" xml:space="preserve" style="white-space: pre" font-family="Pretendard" font-size="20" letter-spacing="0em"><tspan x="3119" y="819.609">Sergeant Major</tspan></text><text fill="white" xml:space="preserve" style="white-space: pre" font-family="Noto Sans JP" font-size="20" font-weight="300" letter-spacing="0em"><tspan x="3337" y="821.22">上級曹長</tspan></text><text fill="white" xml:space="preserve" style="white-space: pre" font-family="Pretendard" font-size="20" letter-spacing="0em"><tspan x="3119" y="842.609">Master Sergeant</tspan></text><text fill="white" xml:space="preserve" style="white-space: pre" font-family="Noto Sans JP" font-size="20" font-weight="300" letter-spacing="0em"><tspan x="3377" y="844.22">曹長</tspan></text><text fill="white" xml:space="preserve" style="white-space: pre" font-family="Pretendard" font-size="20" letter-spacing="0em"><tspan x="3119" y="865.609">Sergeant First Class</tspan></text><text fill="white" xml:space="preserve" style="white-space: pre" font-family="Noto Sans JP" font-size="20" font-weight="300" letter-spacing="0em"><tspan x="3337" y="867.22">一等軍曹</tspan></text><text fill="white" xml:space="preserve" style="white-space: pre" font-family="Pretendard" font-size="20" letter-spacing="0em"><tspan x="3119" y="888.609">Staff Sergeant</tspan></text><text fill="white" xml:space="preserve" style="white-space: pre" font-family="Noto Sans JP" font-size="20" font-weight="300" letter-spacing="0em"><tspan x="3337" y="890.22">二等軍曹</tspan></text><image x="3749" width="298" height="782" fill="url(#img1719307888210_pattern7_3933_159)" xlink:href="/story/fidelion-5-2/8.png"/><text fill="white" xml:space="preserve" style="white-space: pre" font-family="Pretendard-Bold" font-size="50" font-weight="bold" letter-spacing="0em"><tspan x="3772" y="97.7734">FIELD
</tspan><tspan x="3772" y="147.773">OFFICER</tspan></text><text fill="white" xml:space="preserve" style="white-space: pre" font-family="Pretendard" font-size="20" letter-spacing="0em"><tspan x="3749" y="819.609">Colonel</tspan></text><text fill="white" xml:space="preserve" style="white-space: pre" font-family="Noto Sans JP" font-size="20" font-weight="300" letter-spacing="0em"><tspan x="4007" y="821.22">大佐</tspan></text><text fill="white" xml:space="preserve" style="white-space: pre" font-family="Pretendard" font-size="20" letter-spacing="0em"><tspan x="3749" y="842.609">Lieutenant Colonel</tspan></text><text fill="white" xml:space="preserve" style="white-space: pre" font-family="Noto Sans JP" font-size="20" font-weight="300" letter-spacing="0em"><tspan x="4007" y="844.22">中佐</tspan></text><text fill="white" xml:space="preserve" style="white-space: pre" font-family="Pretendard" font-size="20" letter-spacing="0em"><tspan x="3749" y="865.609">Major</tspan></text><text fill="white" xml:space="preserve" style="white-space: pre" font-family="Noto Sans JP" font-size="20" font-weight="300" letter-spacing="0em"><tspan x="4007" y="867.22">少佐</tspan></text><image x="4064" width="298" height="782" fill="url(#img1719307888210_pattern8_3933_159)" xlink:href="/story/fidelion-5-2/9.png"/><text fill="white" xml:space="preserve" style="white-space: pre" font-family="Pretendard-Bold" font-size="50" font-weight="bold" letter-spacing="0em"><tspan x="4087" y="97.7734">GENERAL
</tspan><tspan x="4087" y="147.773">OFFICER</tspan></text><text fill="white" xml:space="preserve" style="white-space: pre" font-family="Pretendard" font-size="20" letter-spacing="0em"><tspan x="4064" y="819.609">General of the Army</tspan></text><text fill="white" xml:space="preserve" style="white-space: pre" font-family="Noto Sans JP" font-size="20" font-weight="300" letter-spacing="0em"><tspan x="4322" y="821.22">元帥</tspan></text><text fill="white" xml:space="preserve" style="white-space: pre" font-family="Pretendard" font-size="20" letter-spacing="0em"><tspan x="4064" y="842.609">General</tspan></text><text fill="white" xml:space="preserve" style="white-space: pre" font-family="Noto Sans JP" font-size="20" font-weight="300" letter-spacing="0em"><tspan x="4322" y="844.22">大将</tspan></text><text fill="white" xml:space="preserve" style="white-space: pre" font-family="Pretendard" font-size="20" letter-spacing="0em"><tspan x="4064" y="865.609">Lieutenant General</tspan></text><text fill="white" xml:space="preserve" style="white-space: pre" font-family="Noto Sans JP" font-size="20" font-weight="300" letter-spacing="0em"><tspan x="4322" y="867.22">中将</tspan></text><text fill="white" xml:space="preserve" style="white-space: pre" font-family="Pretendard" font-size="20" letter-spacing="0em"><tspan x="4064" y="888.609">Major General</tspan></text><text fill="white" xml:space="preserve" style="white-space: pre" font-family="Noto Sans JP" font-size="20" font-weight="300" letter-spacing="0em"><tspan x="4322" y="890.22">少将</tspan></text><text fill="white" xml:space="preserve" style="white-space: pre" font-family="Pretendard" font-size="20" letter-spacing="0em"><tspan x="4064" y="911.609">Brigadier General</tspan></text><text fill="white" xml:space="preserve" style="white-space: pre" font-family="Noto Sans JP" font-size="20" font-weight="300" letter-spacing="0em"><tspan x="4322" y="913.22">准将</tspan></text><g style="mix-blend-mode:lighten"><image x="5811" y="380" width="598" height="700" fill="url(#img1719307888210_pattern9_3933_159)" xlink:href="/story/fidelion-5-2/10.png"/></g><path d="M1944.61 433H1955.57V509H1944.61V433ZM2031.78 443.883H2069.87V433H2031.78V443.88V443.883ZM2031.78 508.997H2069.87V498.117H2031.78V508.997ZM2069.04 465.695H2036.14V476.575H2069.04V465.695ZM2144.63 509H2155.59V433H2144.63V509ZM1919.44 476.44V465.56H1897.96V443.88H1925.09V433H1887V509H1897.96V476.44H1919.44ZM2099.05 497.679V433H2088.09V509H2126.18V498.12H2099.04V497.679H2099.05ZM2249.41 470.998C2249.41 491.951 2232.25 508.997 2211.15 508.997C2190.05 508.997 2172.88 491.951 2172.88 470.998C2172.88 450.045 2190.05 433 2211.15 433C2232.25 433 2249.41 450.045 2249.41 470.998ZM2238.46 470.998C2238.46 456.043 2226.2 443.876 2211.15 443.876C2196.09 443.876 2183.84 456.043 2183.84 470.998C2183.84 485.953 2196.09 498.12 2211.15 498.12C2226.2 498.12 2238.46 485.953 2238.46 470.998ZM2010.01 446.158C2016.03 453.061 2019.34 461.883 2019.34 470.998C2019.34 480.114 2016.03 488.936 2010.01 495.839C2004.05 502.67 1995.86 507.186 1986.93 508.552C1985.29 508.806 1977.56 508.954 1975.6 508.99V433H1981.07C1981.27 433.007 1985.09 433.161 1986.93 433.444C1995.86 434.811 2004.05 439.327 2010.01 446.158ZM2008.39 470.998C2008.39 464.816 2006.23 458.762 2002.31 453.956C1998.44 449.219 1993.04 445.878 1987.1 444.545L1986.55 444.423V497.577L1987.1 497.455C1993.04 496.122 1998.44 492.778 2002.31 488.044C2006.23 483.238 2008.39 477.184 2008.39 471.002V470.998ZM2266.12 433.148L2252.79 433.158L2297.8 508.997H2309V433H2298.04V487.619L2297.22 486.204L2266.12 433.148Z" fill="white"/><g clip-path="url(#clip1_3933_159)"><path d="M1887 523.484H1892.32C1896 523.484 1897.67 525.465 1897.67 528.177C1897.67 530.187 1896.74 531.777 1894.75 532.452L1898.27 538.726H1896L1892.73 532.787L1892.35 532.81H1888.95V538.726H1887V523.484ZM1892.26 531.084C1894.75 531.084 1895.74 529.99 1895.74 528.177C1895.74 526.365 1894.75 525.168 1892.24 525.168H1888.95V531.084H1892.26ZM1919.51 533.065C1919.51 529.506 1921.67 527.148 1924.87 527.148C1928.08 527.148 1930.2 529.506 1930.2 533.065C1930.2 536.623 1928.06 538.961 1924.87 538.961C1921.69 538.961 1919.51 536.626 1919.51 533.065ZM1928.33 533.065C1928.33 530.79 1927.23 528.748 1924.87 528.748C1922.52 528.748 1921.37 530.79 1921.37 533.065C1921.37 535.339 1922.47 537.358 1924.87 537.358C1927.27 537.358 1928.33 535.335 1928.33 533.065ZM1956.44 532.116C1957.18 532.065 1959.09 531.968 1959.62 531.948V531.023C1959.62 529.571 1958.73 528.729 1956.96 528.729C1955.46 528.729 1954.58 529.403 1954.32 530.265H1952.37C1952.61 528.432 1954.45 527.148 1957.05 527.148C1958.58 527.148 1961.46 527.59 1961.46 531.19V538.729H1959.62V537.171H1959.53C1959.14 537.948 1958.06 539.003 1956.03 539.003C1953.8 539.003 1952.03 537.719 1952.03 535.487C1952.03 532.855 1954.41 532.265 1956.44 532.119V532.116ZM1956.35 537.381C1958.45 537.381 1959.62 536.013 1959.62 534.581V533.423L1956.65 533.632C1954.97 533.739 1953.89 534.326 1953.89 535.568C1953.89 536.81 1954.92 537.377 1956.35 537.377L1956.35 537.381ZM1983.83 533.042C1983.83 529.419 1985.91 527.145 1988.85 527.145C1991.12 527.145 1991.85 528.494 1992.24 529.103H1992.37V523.484H1994.26V538.726H1992.44V536.977H1992.24C1991.83 537.61 1991.08 538.958 1988.83 538.958C1985.91 538.958 1983.83 536.665 1983.83 533.042ZM1992.44 533C1992.44 530.474 1991.27 528.768 1989.08 528.768C1986.9 528.768 1985.71 530.619 1985.71 533C1985.71 535.381 1986.86 537.339 1989.08 537.339C1991.31 537.339 1992.44 535.571 1992.44 533ZM2048.06 528.81H2045.59V535.442C2045.59 536.916 2046.33 537.148 2047.13 537.148C2047.47 537.148 2047.95 537.126 2048.23 537.106V538.79C2047.95 538.832 2047.47 538.874 2046.93 538.874C2045.37 538.874 2043.71 537.926 2043.71 535.906V528.81H2041.94V527.294H2043.71V524.558H2045.59V527.294H2048.06V528.81ZM2069.72 533.065C2069.72 529.506 2071.89 527.148 2075.09 527.148C2078.29 527.148 2080.42 529.506 2080.42 533.065C2080.42 536.623 2078.27 538.961 2075.09 538.961C2071.91 538.961 2069.72 536.626 2069.72 533.065ZM2078.55 533.065C2078.55 530.79 2077.45 528.748 2075.09 528.748C2072.73 528.748 2071.59 530.79 2071.59 533.065C2071.59 535.339 2072.69 537.358 2075.09 537.358C2077.49 537.358 2078.55 535.335 2078.55 533.065ZM2128.55 523.484H2137.98V525.168H2130.5V530.261H2137.27V531.926H2130.5V538.726H2128.55V523.484H2128.55ZM2160.22 524.2C2160.22 523.526 2160.8 523 2161.52 523C2162.24 523 2162.84 523.526 2162.84 524.2C2162.84 524.874 2162.23 525.4 2161.52 525.4C2160.81 525.4 2160.22 524.874 2160.22 524.2ZM2160.59 527.294H2162.45V538.726H2160.59V527.294ZM2184.8 533.042C2184.8 529.419 2186.88 527.145 2189.82 527.145C2192.09 527.145 2192.82 528.494 2193.21 529.103H2193.34V523.484H2195.23V538.726H2193.41V536.977H2193.21C2192.8 537.61 2192.05 538.958 2189.8 538.958C2186.88 538.958 2184.8 536.665 2184.8 533.042ZM2193.41 533C2193.41 530.474 2192.24 528.768 2190.06 528.768C2187.87 528.768 2186.68 530.619 2186.68 533C2186.68 535.381 2187.83 537.339 2190.06 537.339C2192.28 537.339 2193.41 535.571 2193.41 533ZM2217.83 533.106C2217.83 529.59 2219.96 527.148 2223.16 527.148C2225.62 527.148 2228.22 528.623 2228.22 532.855V533.613H2219.69C2219.78 536.035 2221.23 537.361 2223.33 537.361C2224.74 537.361 2225.62 536.771 2226.06 536.055H2228.04C2227.48 537.781 2225.75 538.961 2223.33 538.961C2219.93 538.961 2217.83 536.626 2217.83 533.11L2217.83 533.106ZM2226.34 532.074C2226.34 530.158 2225.08 528.748 2223.16 528.748C2221.12 528.748 2219.83 530.306 2219.72 532.074H2226.34ZM2252.45 538.729H2250.59V523.484H2252.45V538.726V538.729ZM2274.99 524.2C2274.99 523.526 2275.58 523 2276.29 523C2277.01 523 2277.61 523.526 2277.61 524.2C2277.61 524.874 2277 525.4 2276.29 525.4C2275.58 525.4 2274.99 524.874 2274.99 524.2ZM2275.36 527.294H2277.22V538.726H2275.36V527.294ZM2303.98 532.116C2304.73 532.065 2306.63 531.968 2307.16 531.948V531.023C2307.16 529.571 2306.27 528.729 2304.5 528.729C2303.01 528.729 2302.12 529.403 2301.86 530.265H2299.91C2300.15 528.432 2301.99 527.148 2304.59 527.148C2306.12 527.148 2309 527.59 2309 531.19V538.729H2307.16V537.171H2307.07C2306.69 537.948 2305.6 539.003 2303.57 539.003C2301.34 539.003 2299.57 537.719 2299.57 535.487C2299.57 532.855 2301.95 532.265 2303.98 532.119V532.116ZM2303.89 537.381C2305.99 537.381 2307.16 536.013 2307.16 534.581V533.423L2304.2 533.632C2302.51 533.739 2301.43 534.326 2301.43 535.568C2301.43 536.81 2302.47 537.377 2303.9 537.377L2303.89 537.381Z" fill="white"/></g><image x="109" width="1625.76" height="1080" fill="url(#img1719307888210_pattern10_3933_159)" xlink:href="/story/fidelion-5-2/11.png"/><image x="6645" y="204" width="768" height="732" fill="url(#img1719307888210_pattern11_3933_159)" xlink:href="/story/fidelion-5-2/12.png"/><text fill="white" xml:space="preserve" style="white-space: pre" font-family="Noto Serif JP" font-size="25" letter-spacing="0em"><tspan x="6449" y="799.812">この二足歩行戦車はフィデリア帝国の最も強力な戦争兵器であり、前面に 1 門の拡張自走砲と 2 門の機関銃を備えていま</tspan><tspan x="6449" y="831.812">す。主にディーゼルを燃料とし、多数の敵対勢力に対してさえその驚異的な戦闘力により、フィデリアに抵抗する人々の間で</tspan><tspan x="6449" y="863.812">は悪名が高い。
</tspan><tspan x="6449" y="899.812">
</tspan><tspan x="6449" y="935.812">フィデリアの赤いガスマスクは、フィデリオンの非人間的で抑圧的な鉄の拳を象徴すると同時に、独裁体制の下で抑圧されて</tspan><tspan x="6449" y="967.812">いる人々を象徴しています。フィデリア軍の赤いガスマスクは恐怖と権力への貪欲を呼び起こし、フィデリアでは恐怖政治の</tspan><tspan x="6449" y="999.812">一環として意図的に着用され、利用されている。</tspan></text><path d="M6369.4 204.4H6379V231.4H6337V204.4H6346.6V113H6337V90L6349.4 86H6369.4V204.4Z" fill="white"/><path d="M6426.15 204.4H6435.15V231.4H6392.55V204.4H6401.35L6435.35 120.6V113H6411.35V130.8H6389.35V86H6460.55V116.6L6426.15 204.4Z" fill="white"/><path d="M6541.38 212C6540.32 217.2 6538.25 221.4 6535.18 224.6C6532.25 227.667 6528.25 229.933 6523.18 231.4H6490.78C6485.72 229.933 6481.65 227.667 6478.58 224.6C6475.65 221.4 6473.65 217.2 6472.58 212V186.6H6495.18V199C6495.18 201.667 6495.65 203.467 6496.58 204.4C6497.65 205.2 6498.78 205.867 6499.98 206.4H6511.98C6513.18 205.867 6514.25 205.2 6515.18 204.4C6516.25 203.467 6516.78 201.667 6516.78 199L6516.98 195.4V186.8C6516.98 184.267 6516.72 182.467 6516.18 181.4C6515.78 180.333 6514.52 179.067 6512.38 177.6L6481.18 157.4C6478.92 155.8 6476.78 153.333 6474.78 150C6472.92 146.667 6471.98 142.867 6471.98 138.6V106.4C6472.52 103.467 6473.52 100.733 6474.98 98.2C6476.45 95.6667 6478.12 93.5333 6479.98 91.8C6481.98 89.9333 6484.12 88.5333 6486.38 87.6C6488.78 86.5333 6491.12 86 6493.38 86H6511.38L6517.58 92.8V86H6540.78V130.8H6517.58V113H6500.98C6499.78 114.067 6498.78 115.2 6497.98 116.4C6497.32 117.467 6496.98 119.333 6496.98 122V135.6C6496.98 137.333 6497.25 138.733 6497.78 139.8C6498.45 140.867 6499.85 142.133 6501.98 143.6L6532.98 163.6C6535.52 165.333 6537.52 167.733 6538.98 170.8C6540.58 173.867 6541.38 176.733 6541.38 179.4V212Z" fill="white"/><path d="M6605.03 126.2C6605.03 123.133 6604.83 120.467 6604.43 118.2C6604.03 115.933 6602.1 114.2 6598.63 113H6583.63V163.6H6598.63C6602.1 162.4 6604.03 160.667 6604.43 158.4C6604.83 156.133 6605.03 153.467 6605.03 150.4V126.2ZM6610.03 86C6615.1 87.4667 6619.1 89.8 6622.03 93C6624.96 96.0667 6626.96 100.2 6628.03 105.4V162C6627.76 164.133 6627.1 166.333 6626.03 168.6C6624.96 170.867 6623.5 173 6621.63 175C6619.9 177 6617.76 178.667 6615.23 180C6612.83 181.333 6610.1 182.2 6607.03 182.6H6583.63V204.4H6592.03V231.4H6552.43V204.4H6560.83V113H6552.43V86H6610.03Z" fill="white"/><text fill="white" xml:space="preserve" style="white-space: pre" font-family="Noto Serif JP" font-size="25" letter-spacing="0em"><tspan x="6337" y="282.213">ジェイクのリーダーシップの下、</tspan><tspan x="6337" y="314.213">フィデリアの軍事補佐官や技術者は</tspan><tspan x="6337" y="346.213">高度な兵器技術の開発と進歩に熱心</tspan><tspan x="6337" y="378.213">に取り組んできた。これらの努力の</tspan><tspan x="6337" y="410.213">結果、当時の技術と常識をはるかに</tspan><tspan x="6337" y="442.213">超えた二足歩行戦闘車両タイタンが</tspan><tspan x="6337" y="474.213">誕生しました。</tspan></text></g><defs><pattern id="img1719307888210_pattern0_3933_159" patternContentUnits="objectBoundingBox" width="1" height="1"><use xlink:href="#image0_3933_159" transform="scale(0.0002442 0.00129878)"/></pattern><pattern id="img1719307888210_pattern1_3933_159" patternContentUnits="objectBoundingBox" width="1" height="1"><use xlink:href="#image1_3933_159" transform="scale(0.000244141 0.000268103)"/></pattern><pattern id="img1719307888210_pattern2_3933_159" patternContentUnits="objectBoundingBox" width="1" height="1"><use xlink:href="#image2_3933_159" transform="matrix(0.000606061 0 0 0.000259147 0 -0.000283757)"/></pattern><pattern id="img1719307888210_pattern3_3933_159" patternContentUnits="objectBoundingBox" width="1" height="1"><use xlink:href="#image3_3933_159" transform="matrix(0.00118855 0 0 0.00172414 -0.00275862 0)"/></pattern><pattern id="img1719307888210_pattern4_3933_159" patternContentUnits="objectBoundingBox" width="1" height="1"><use xlink:href="#image4_3933_159" transform="scale(0.00131234 0.000500097)"/></pattern><pattern id="img1719307888210_pattern5_3933_159" patternContentUnits="objectBoundingBox" width="1" height="1"><use xlink:href="#image5_3933_159" transform="scale(0.00131234 0.000500097)"/></pattern><pattern id="img1719307888210_pattern6_3933_159" patternContentUnits="objectBoundingBox" width="1" height="1"><use xlink:href="#image6_3933_159" transform="scale(0.00131234 0.000500097)"/></pattern><pattern id="img1719307888210_pattern7_3933_159" patternContentUnits="objectBoundingBox" width="1" height="1"><use xlink:href="#image7_3933_159" transform="scale(0.00131234 0.000500097)"/></pattern><pattern id="img1719307888210_pattern8_3933_159" patternContentUnits="objectBoundingBox" width="1" height="1"><use xlink:href="#image8_3933_159" transform="scale(0.00131234 0.000500097)"/></pattern><pattern id="img1719307888210_pattern9_3933_159" patternContentUnits="objectBoundingBox" width="1" height="1"><use xlink:href="#image9_3933_159" transform="scale(0.00041806 0.000357143)"/></pattern><pattern id="img1719307888210_pattern10_3933_159" patternContentUnits="objectBoundingBox" width="1" height="1"><use xlink:href="#image10_3933_159" transform="scale(0.000244141 0.000367512)"/></pattern><pattern id="img1719307888210_pattern11_3933_159" patternContentUnits="objectBoundingBox" width="1" height="1"><use xlink:href="#image11_3933_159" transform="matrix(0.000290698 0 0 0.000304994 0 -0.000343119)"/></pattern><clipPath id="clip0_3933_159"><rect width="9384" height="1080" fill="white"/></clipPath><clipPath id="clip1_3933_159"><rect width="422" height="16" fill="white" transform="translate(1887 523)"/></clipPath><image id="image0_3933_159" width="4095" height="770" xlink:href="/story/fidelion-5-2/1.png"/><image id="image1_3933_159" width="4096" height="3731" xlink:href="/story/fidelion-5-2/2.png"/><image id="image2_3933_159" width="1650" height="3861" xlink:href="/story/fidelion-5-2/3.png"/><image id="image3_3933_159" width="846" height="580" xlink:href="/story/fidelion-5-2/4.png"/><image id="image4_3933_159" width="762" height="2000" xlink:href="/story/fidelion-5-2/5.png"/><image id="image5_3933_159" width="762" height="2000" xlink:href="/story/fidelion-5-2/6.png"/><image id="image6_3933_159" width="762" height="2000" xlink:href="/story/fidelion-5-2/7.png"/><image id="image7_3933_159" width="762" height="2000" xlink:href="/story/fidelion-5-2/8.png"/><image id="image8_3933_159" width="762" height="2000" xlink:href="/story/fidelion-5-2/9.png"/><image id="image9_3933_159" width="2392" height="2800" xlink:href="/story/fidelion-5-2/10.png"/><image id="image10_3933_159" width="4096" height="2721" xlink:href="/story/fidelion-5-2/11.png"/><image id="image11_3933_159" width="3440" height="3281" xlink:href="/story/fidelion-5-2/12.png"/></defs></svg>