<svg width="10258" height="1080" viewBox="0 0 10258 1080" fill="none" xmlns="http://www.w3.org/2000/svg" xmlns:xlink="http://www.w3.org/1999/xlink"><g clip-path="url(#clip0_3813_338)"><rect width="10258" height="1080" fill="black"/><g clip-path="url(#clip1_3813_338)"><image width="2528" height="1080" fill="url(#img1719382556903_pattern0_3813_338)" xlink:href="/story/fidelion-6/1.png"/><text fill="white" xml:space="preserve" style="white-space: pre" font-family="Pretendard-Black" font-size="250" letter-spacing="0em"><tspan x="1181" y="916.867">Biography</tspan></text></g><path d="M3212.78 140V579.515C3211.89 705.094 3113.72 789.107 2973.1 789.107C2851.05 789.107 2751.12 728.086 2752.01 583.053H2920.04C2921.81 631.686 2944.81 657.338 2983.72 657.338C3022.63 657.338 3045.63 630.809 3046.51 579.515V140H3212.77H3212.78Z" fill="white"/><path d="M3196.62 780.257L3409.77 140H3638.83L3851.08 780.257H3669.78L3631.75 654.678H3416.84L3378.81 780.257H3196.62ZM3592.83 527.334L3526.5 312.44H3521.2L3455.75 527.334H3592.83Z" fill="white"/><path d="M3892.13 140H4060.16V401.764H4069L4267.11 140H4464.33L4244.99 425.642L4468.74 780.257H4267.1L4119.41 537.061L4060.15 613.11V780.248H3892.12V140H3892.13Z" fill="white"/><path d="M4494.77 140H4952V276.184H4662.8V392.037H4928.12V528.221H4662.8V644.073H4951.11V780.257H4494.77V140Z" fill="white"/><text fill="white" xml:space="preserve" style="white-space: pre" font-family="Charis SIL" font-size="25" letter-spacing="0em"><tspan x="2752" y="853.567">Jake, </tspan><tspan x="2819.05" y="853.567">the </tspan><tspan x="2863.73" y="853.567">Emperor </tspan><tspan x="2968.57" y="853.567">of </tspan><tspan x="2999.91" y="853.567">Fidelion, </tspan><tspan x="3106.77" y="853.567">was </tspan><tspan x="3158.61" y="853.567">raised </tspan><tspan x="3234.62" y="853.567">in </tspan><tspan x="3265.97" y="853.567">a </tspan><tspan x="3288.27" y="853.567">noble </tspan><tspan x="3359.2" y="853.567">family. </tspan><tspan x="3446.2" y="853.567">Gifted </tspan><tspan x="3523.77" y="853.567">with </tspan><tspan x="3583.37" y="853.567">an </tspan><tspan x="3619.85" y="853.567">aptitude </tspan><tspan x="3721.32" y="853.567">for </tspan><tspan x="3762.44" y="853.567">rapidly </tspan><tspan x="3850.9" y="853.567">acquiring </tspan><tspan x="3965.1" y="853.567">any </tspan><tspan x="4014.83" y="853.567">knowledge, </tspan><tspan x="4151.32" y="853.567">Jake </tspan><tspan x="4211.36" y="853.567">grew </tspan><tspan x="4275.7" y="853.567">up </tspan><tspan x="4313.5" y="853.567">with </tspan><tspan x="4373.1" y="853.567">an </tspan><tspan x="4409.58" y="853.567">excellent </tspan><tspan x="4517.84" y="853.567">education, </tspan><tspan x="4643.26" y="853.567">especially </tspan><tspan x="4761.36" y="853.567">from </tspan><tspan x="4823.75" y="853.567">his </tspan><tspan x="4865.23" y="853.567">mother, </tspan><tspan x="2752" y="883.567">whose </tspan><tspan x="2829.47" y="883.567">spiritual </tspan><tspan x="2928.98" y="883.567">insight </tspan><tspan x="3012.01" y="883.567">and </tspan><tspan x="3060.75" y="883.567">artistic </tspan><tspan x="3144.76" y="883.567">talent </tspan><tspan x="3216.05" y="883.567">made </tspan><tspan x="3284.12" y="883.567">him </tspan><tspan x="3335.05" y="883.567">unique. There </tspan><tspan x="3496.96" y="883.567">was </tspan><tspan x="3546.94" y="883.567">another </tspan><tspan x="3640.06" y="883.567">side </tspan><tspan x="3691.69" y="883.567">to </tspan><tspan x="3721.51" y="883.567">him, </tspan><tspan x="3779.44" y="883.567">too. </tspan><tspan x="3829.86" y="883.567">He </tspan><tspan x="3868.41" y="883.567">also </tspan><tspan x="3919.83" y="883.567">inherited </tspan><tspan x="4028.18" y="883.567">his </tspan><tspan x="4067.8" y="883.567">ancestors&apos; </tspan><tspan x="4182.41" y="883.567">autocratic </tspan><tspan x="4301.06" y="883.567">tendencies </tspan><tspan x="4425.72" y="883.567">and </tspan><tspan x="4474.45" y="883.567">coldness, </tspan><tspan x="4582.32" y="883.567">which </tspan><tspan x="4657.56" y="883.567">made </tspan><tspan x="4725.63" y="883.567">him </tspan><tspan x="4776.56" y="883.567">somewhat </tspan><tspan x="4896.51" y="883.567">aloof </tspan><tspan x="2752" y="913.567">from </tspan><tspan x="2814.95" y="913.567">life </tspan><tspan x="2860.51" y="913.567">outside </tspan><tspan x="2950.9" y="913.567">of </tspan><tspan x="2982.79" y="913.567">his </tspan><tspan x="3024.83" y="913.567">own </tspan><tspan x="3082.34" y="913.567">family </tspan><tspan x="3162.88" y="913.567">and </tspan><tspan x="3214.04" y="913.567">pets. </tspan><tspan x="3275.88" y="913.567">His </tspan><tspan x="3322.16" y="913.567">childhood, </tspan><tspan x="3450.09" y="913.567">having </tspan><tspan x="3535.45" y="913.567">a </tspan><tspan x="3558.31" y="913.567">busy </tspan><tspan x="3619.79" y="913.567">and </tspan><tspan x="3670.94" y="913.567">distant </tspan><tspan x="3756.64" y="913.567">father </tspan><tspan x="3832.55" y="913.567">and </tspan><tspan x="3883.7" y="913.567">a </tspan><tspan x="3906.56" y="913.567">mother </tspan><tspan x="3996.46" y="913.567">who </tspan><tspan x="4054.13" y="913.567">struggled </tspan><tspan x="4166.81" y="913.567">with </tspan><tspan x="4226.97" y="913.567">being </tspan><tspan x="4298.17" y="913.567">alone </tspan><tspan x="4368.49" y="913.567">and </tspan><tspan x="4419.64" y="913.567">lonely </tspan><tspan x="4497.92" y="913.567">at </tspan><tspan x="4529.28" y="913.567">home, </tspan><tspan x="4607.89" y="913.567">had </tspan><tspan x="4659.22" y="913.567">a </tspan><tspan x="4682.08" y="913.567">mixed </tspan><tspan x="4760.18" y="913.567">effect </tspan><tspan x="4831.28" y="913.567">on </tspan><tspan x="4869.21" y="913.567">him. </tspan><tspan x="4929.56" y="913.567">In </tspan><tspan x="2752" y="943.567">particular, </tspan><tspan x="2875.58" y="943.567">the </tspan><tspan x="2918.87" y="943.567">memory </tspan><tspan x="3018.47" y="943.567">of </tspan><tspan x="3048.4" y="943.567">the </tspan><tspan x="3091.69" y="943.567">day </tspan><tspan x="3139.95" y="943.567">young </tspan><tspan x="3216.53" y="943.567">Jake </tspan><tspan x="3275.18" y="943.567">accidentally </tspan><tspan x="3416.82" y="943.567">witnessed </tspan><tspan x="3533.4" y="943.567">his </tspan><tspan x="3573.48" y="943.567">mother&apos;s </tspan><tspan x="3675.65" y="943.567">infidelity </tspan><tspan x="3784.47" y="943.567">was </tspan><tspan x="3834.9" y="943.567">enough </tspan><tspan x="3924.84" y="943.567">to </tspan><tspan x="3955.11" y="943.567">shake </tspan><tspan x="4025.94" y="943.567">his </tspan><tspan x="4066.02" y="943.567">view </tspan><tspan x="4126.86" y="943.567">of </tspan><tspan x="4156.79" y="943.567">women. </tspan><tspan x="4252.86" y="943.567">As </tspan><tspan x="4287.84" y="943.567">a </tspan><tspan x="4308.73" y="943.567">result, </tspan><tspan x="4386.08" y="943.567">even </tspan><tspan x="4446.18" y="943.567">as </tspan><tspan x="4477.04" y="943.567">an </tspan><tspan x="4512.12" y="943.567">adult, </tspan><tspan x="4584.28" y="943.567">Jake </tspan><tspan x="4642.92" y="943.567">could </tspan><tspan x="4712.11" y="943.567">not </tspan><tspan x="4756.57" y="943.567">easily </tspan><tspan x="4827.95" y="943.567">understand </tspan><tspan x="2752" y="973.567">the </tspan><tspan x="2795.07" y="973.567">emotion </tspan><tspan x="2894.03" y="973.567">of </tspan><tspan x="2923.75" y="973.567">true </tspan><tspan x="2976.49" y="973.567">love. </tspan><tspan x="3037.97" y="973.567">Women </tspan><tspan x="3130.53" y="973.567">have </tspan><tspan x="3191.06" y="973.567">always </tspan><tspan x="3274.68" y="973.567">seemed </tspan><tspan x="3364.75" y="973.567">to </tspan><tspan x="3394.81" y="973.567">be </tspan><tspan x="3428.93" y="973.567">a </tspan><tspan x="3449.61" y="973.567">mystery </tspan><tspan x="3545.86" y="973.567">to </tspan><tspan x="3575.92" y="973.567">him, </tspan><tspan x="3634.1" y="973.567">a </tspan><tspan x="3654.79" y="973.567">sentiment </tspan><tspan x="3771.45" y="973.567">shared </tspan><tspan x="3852.6" y="973.567">by </tspan><tspan x="3887.72" y="973.567">many </tspan><tspan x="3957.11" y="973.567">women </tspan><tspan x="4045.96" y="973.567">attracted </tspan><tspan x="4152.65" y="973.567">to </tspan><tspan x="4182.72" y="973.567">his </tspan><tspan x="4222.59" y="973.567">honesty </tspan><tspan x="4316.66" y="973.567">and </tspan><tspan x="4365.64" y="973.567">loneliness </tspan><tspan x="4482.45" y="973.567">in </tspan><tspan x="4512.19" y="973.567">his </tspan><tspan x="4552.07" y="973.567">eyes. </tspan><tspan x="4614.77" y="973.567">He </tspan><tspan x="4653.57" y="973.567">uses </tspan><tspan x="4707.94" y="973.567">alcohol </tspan><tspan x="4796.67" y="973.567">and </tspan><tspan x="4845.65" y="973.567">cigarettes </tspan><tspan x="2752" y="1003.57">to </tspan><tspan x="2781.42" y="1003.57">combat </tspan><tspan x="2870.36" y="1003.57">his </tspan><tspan x="2909.59" y="1003.57">sensitive </tspan><tspan x="3012.45" y="1003.57">nature </tspan><tspan x="3091.45" y="1003.57">and </tspan><tspan x="3139.79" y="1003.57">insomnia </tspan><tspan x="3248.22" y="1003.57">and </tspan><tspan x="3296.56" y="1003.57">sometimes </tspan><tspan x="3420.53" y="1003.57">looks </tspan><tspan x="3485.79" y="1003.57">to </tspan><tspan x="3515.21" y="1003.57">drugs </tspan><tspan x="3583.76" y="1003.57">or </tspan><tspan x="3614.48" y="1003.57">women </tspan><tspan x="3702.68" y="1003.57">for </tspan><tspan x="3741.55" y="1003.57">inspiration </tspan><tspan x="3868.58" y="1003.57">on </tspan><tspan x="3903.68" y="1003.57">politics </tspan><tspan x="3991.31" y="1003.57">and </tspan><tspan x="4039.65" y="1003.57">culture </tspan><tspan x="4125.05" y="1003.57">in </tspan><tspan x="4154.15" y="1003.57">general.</tspan></text><image x="6249" y="53" width="2178" height="974" fill="url(#img1719382556903_pattern1_3813_338)" xlink:href="/story/fidelion-6/2.png"/><text fill="white" xml:space="preserve" style="white-space: pre" font-family="Charis SIL" font-size="30" font-weight="bold" letter-spacing="0em"><tspan x="8089" y="781.353">Jake Marcus
</tspan><tspan x="8089" y="821.353">Male
</tspan><tspan x="8089" y="861.353">30s
</tspan><tspan x="8089" y="901.353">United Kingdom / United States 
</tspan><tspan x="8089" y="941.353">Fidelion 
</tspan><tspan x="8089" y="981.353">Emperor</tspan></text><text fill="white" xml:space="preserve" style="white-space: pre" font-family="Charis SIL" font-size="25" letter-spacing="0em"><tspan x="8931" y="334.46">Inspired </tspan><tspan x="9029.61" y="334.46">by </tspan><tspan x="9065.24" y="334.46">books </tspan><tspan x="9138.12" y="334.46">since </tspan><tspan x="9202.23" y="334.46">he </tspan><tspan x="9237.32" y="334.46">was </tspan><tspan x="9288.05" y="334.46">a </tspan><tspan x="9309.25" y="334.46">kid, </tspan><tspan x="9359.79" y="334.46">reading </tspan><tspan x="9452.05" y="334.46">remains </tspan><tspan x="9548.3" y="334.46">one </tspan><tspan x="9596.81" y="334.46">of </tspan><tspan x="9627.04" y="334.46">his </tspan><tspan x="9667.42" y="334.46">few </tspan><tspan x="9715.89" y="334.46">hobbies </tspan><tspan x="9809.91" y="334.46">as </tspan><tspan x="9841.07" y="334.46">an </tspan><tspan x="9876.45" y="334.46">adult. </tspan><tspan x="9948.91" y="334.46">When </tspan><tspan x="8931" y="364.46">he </tspan><tspan x="8964.99" y="364.46">finds </tspan><tspan x="9026.34" y="364.46">a </tspan><tspan x="9046.44" y="364.46">book </tspan><tspan x="9108.25" y="364.46">that </tspan><tspan x="9159.7" y="364.46">suits </tspan><tspan x="9217.32" y="364.46">his </tspan><tspan x="9256.6" y="364.46">tastes, </tspan><tspan x="9332.87" y="364.46">he </tspan><tspan x="9366.86" y="364.46">will </tspan><tspan x="9416.25" y="364.46">often </tspan><tspan x="9480.32" y="364.46">read </tspan><tspan x="9536.57" y="364.46">for </tspan><tspan x="9575.49" y="364.46">days </tspan><tspan x="9632.91" y="364.46">on </tspan><tspan x="9668.07" y="364.46">end. </tspan><tspan x="9723" y="364.46">As </tspan><tspan x="9757.18" y="364.46">a </tspan><tspan x="9777.28" y="364.46">result, </tspan><tspan x="9853.82" y="364.46">his </tspan><tspan x="9893.1" y="364.46">knowledge </tspan><tspan x="8931" y="394.46">level </tspan><tspan x="8994.09" y="394.46">is </tspan><tspan x="9022.15" y="394.46">considered </tspan><tspan x="9152.16" y="394.46">among </tspan><tspan x="9237.57" y="394.46">the </tspan><tspan x="9283.18" y="394.46">best </tspan><tspan x="9338.29" y="394.46">in </tspan><tspan x="9370.57" y="394.46">the </tspan><tspan x="9416.19" y="394.46">Fidelian </tspan><tspan x="9516.1" y="394.46">Empire, </tspan><tspan x="9613.07" y="394.46">and </tspan><tspan x="9664.6" y="394.46">for </tspan><tspan x="9706.64" y="394.46">a </tspan><tspan x="9729.87" y="394.46">man </tspan><tspan x="9788.54" y="394.46">of </tspan><tspan x="9820.8" y="394.46">few </tspan><tspan x="9871.29" y="394.46">words, </tspan><tspan x="9955.85" y="394.46">there </tspan><tspan x="8931" y="424.46">aren&apos;t </tspan><tspan x="9000.59" y="424.46">many </tspan><tspan x="9069.88" y="424.46">people </tspan><tspan x="9151.26" y="424.46">who </tspan><tspan x="9206.66" y="424.46">can </tspan><tspan x="9253.07" y="424.46">bend </tspan><tspan x="9315.38" y="424.46">him </tspan><tspan x="9366.46" y="424.46">to </tspan><tspan x="9396.42" y="424.46">logic </tspan><tspan x="9457.68" y="424.46">once </tspan><tspan x="9517.24" y="424.46">he </tspan><tspan x="9551.71" y="424.46">starts </tspan><tspan x="9619" y="424.46">a </tspan><tspan x="9639.59" y="424.46">debate. </tspan><tspan x="9728.19" y="424.46">He </tspan><tspan x="9766.9" y="424.46">is </tspan><tspan x="9792.32" y="424.46">primarily </tspan><tspan x="9903.6" y="424.46">interested </tspan><tspan x="8931" y="454.46">in </tspan><tspan x="8965.63" y="454.46">history, </tspan><tspan x="9062.54" y="454.46">economics, </tspan><tspan x="9198.15" y="454.46">anthropology, </tspan><tspan x="9366.16" y="454.46">and </tspan><tspan x="9420.03" y="454.46">political </tspan><tspan x="9523.36" y="454.46">science, </tspan><tspan x="9622.76" y="454.46">and </tspan><tspan x="9676.63" y="454.46">his </tspan><tspan x="9721.4" y="454.46">admirers </tspan><tspan x="9831.74" y="454.46">include </tspan><tspan x="9926.04" y="454.46">Picasso, </tspan><tspan x="8931" y="484.46">Beethoven, </tspan><tspan x="9066.3" y="484.46">Karl </tspan><tspan x="9124.72" y="484.46">Popper, </tspan><tspan x="9222.35" y="484.46">and </tspan><tspan x="9275.89" y="484.46">Fritz </tspan><tspan x="9339.36" y="484.46">Haber. </tspan><tspan x="9426.13" y="484.46">The </tspan><tspan x="9480.25" y="484.46">inspiration </tspan><tspan x="9612.47" y="484.46">he </tspan><tspan x="9651.61" y="484.46">received </tspan><tspan x="9757.27" y="484.46">from </tspan><tspan x="9822.6" y="484.46">these </tspan><tspan x="9892.45" y="484.46">artists </tspan><tspan x="9971.98" y="484.46">and </tspan><tspan x="8931" y="514.46">scholars </tspan><tspan x="9033.75" y="514.46">of </tspan><tspan x="9068.8" y="514.46">the </tspan><tspan x="9117.2" y="514.46">past </tspan><tspan x="9175.67" y="514.46">was </tspan><tspan x="9231.22" y="514.46">instrumental </tspan><tspan x="9385.12" y="514.46">in </tspan><tspan x="9420.19" y="514.46">shaping </tspan><tspan x="9519.43" y="514.46">the </tspan><tspan x="9567.83" y="514.46">ideology </tspan><tspan x="9676.1" y="514.46">that </tspan><tspan x="9733.46" y="514.46">would </tspan><tspan x="9815.7" y="514.46">later </tspan><tspan x="9879.68" y="514.46">become </tspan><tspan x="9977.89" y="514.46">the </tspan><tspan x="8931" y="544.46">foundation </tspan><tspan x="9059.28" y="544.46">of </tspan><tspan x="9088.43" y="544.46">the </tspan><tspan x="9130.95" y="544.46">Fidelian </tspan><tspan x="9227.75" y="544.46">Empire. </tspan><tspan x="9321.63" y="544.46">In </tspan><tspan x="9351.47" y="544.46">particular, </tspan><tspan x="9474.28" y="544.46">Karl </tspan><tspan x="9527.59" y="544.46">Popper&apos;s </tspan><tspan x="9627.32" y="544.46">Open </tspan><tspan x="9693.44" y="544.46">Society </tspan><tspan x="9780.73" y="544.46">Theory </tspan><tspan x="9866.38" y="544.46">was </tspan><tspan x="9916.05" y="544.46">the </tspan><tspan x="9958.56" y="544.46">book </tspan><tspan x="8931" y="574.46">that </tspan><tspan x="8984.45" y="574.46">inspired </tspan><tspan x="9083.32" y="574.46">him </tspan><tspan x="9135.92" y="574.46">the </tspan><tspan x="9180.42" y="574.46">most, </tspan><tspan x="9250.13" y="574.46">and </tspan><tspan x="9300.53" y="574.46">it&apos;s </tspan><tspan x="9340.24" y="574.46">safe </tspan><tspan x="9392.72" y="574.46">to </tspan><tspan x="9424.2" y="574.46">say </tspan><tspan x="9469.53" y="574.46">that </tspan><tspan x="9522.98" y="574.46">Fidelia&apos;s </tspan><tspan x="9621.82" y="574.46">initial </tspan><tspan x="9696.81" y="574.46">basic </tspan><tspan x="9762.01" y="574.46">ideological </tspan><tspan x="9892.49" y="574.46">framework </tspan><tspan x="8931" y="604.46">was </tspan><tspan x="8980.58" y="604.46">based </tspan><tspan x="9050.85" y="604.46">on </tspan><tspan x="9085.96" y="604.46">it.</tspan></text><text fill="white" xml:space="preserve" style="white-space: pre" font-family="Charis SIL" font-size="25" letter-spacing="0em"><tspan x="8931" y="661.46">Jake&apos;s open socialism was ultimately doomed to failure, and in the process of realizing this, he </tspan><tspan x="8931" y="691.46">felt for the first time that his love and trust in humanity had been thoroughly betrayed. This </tspan><tspan x="8931" y="721.46">realization forced him to more deeply consider how to organize a proper political system for a </tspan><tspan x="8931" y="751.46">public that doesn&apos;t understand the cause. In the process, he discovered an inner madness he never </tspan><tspan x="8931" y="781.46">knew he had. A Leader Corrupted by Early Idealism - Jake recognized that Fidelion needed new </tspan><tspan x="8931" y="811.46">ideas and ideologies, so he formed Fidelism, a movement that sought to establish a dictatorship. </tspan><tspan x="8931" y="841.46">Under the current political system, nothing is impossible for Jake. But at the same time, he is </tspan><tspan x="8931" y="871.46">always afraid. Of the world he doesn&apos;t know, of the enemies outside, and most of all, of himself.</tspan></text><image x="8570" y="51" width="224" height="1009" fill="url(#img1719382556903_pattern2_3813_338)" xlink:href="/story/fidelion-6/3.png"/><image x="5240" width="1087" height="1080" fill="url(#img1719382556903_pattern3_3813_338)" xlink:href="/story/fidelion-6/4.png"/></g><defs><pattern id="img1719382556903_pattern0_3813_338" patternContentUnits="objectBoundingBox" width="1" height="1"><use xlink:href="#image0_3813_338" transform="scale(0.00039557 0.000925926)"/></pattern><pattern id="img1719382556903_pattern1_3813_338" patternContentUnits="objectBoundingBox" width="1" height="1"><use xlink:href="#image1_3813_338" transform="scale(0.000459137 0.00102669)"/></pattern><pattern id="img1719382556903_pattern2_3813_338" patternContentUnits="objectBoundingBox" width="1" height="1"><use xlink:href="#image2_3813_338" transform="matrix(0.00109972 0 0 0.000244141 -0.00037384 0)"/></pattern><pattern id="img1719382556903_pattern3_3813_338" patternContentUnits="objectBoundingBox" width="1" height="1"><use xlink:href="#image3_3813_338" transform="scale(0.000333333 0.000335494)"/></pattern><clipPath id="clip0_3813_338"><rect width="10258" height="1080" fill="white"/></clipPath><clipPath id="clip1_3813_338"><rect width="2528" height="1080" fill="white"/></clipPath><image id="image0_3813_338" width="2528" height="1080" xlink:href="/story/fidelion-6/1.png"/><image id="image1_3813_338" width="2178" height="974" xlink:href="/story/fidelion-6/2.png"/><image id="image2_3813_338" width="910" height="4096" xlink:href="/story/fidelion-6/3.png"/><image id="image3_3813_338" width="3000" height="2981" xlink:href="/story/fidelion-6/4.png"/></defs></svg>