<svg width="10032" height="1080" viewBox="0 0 10032 1080" fill="none" xmlns="http://www.w3.org/2000/svg" xmlns:xlink="http://www.w3.org/1999/xlink"><g clip-path="url(#clip0_4045_1486)"><rect width="10032" height="1080" fill="white"/><image x="3086" width="1069" height="1080" fill="url(#img1720074657167_pattern0_4045_1486)" xlink:href="/story/fidelion-7-1/1.png"/><path d="M584.555 326.5C580.004 274.952 545.117 240.839 486.72 240.839C410.878 240.839 367.649 299.21 367.649 397C367.649 500.097 411.637 553.161 485.961 553.161C541.325 553.161 576.971 522.839 584.555 474.323L730.928 475.839C723.344 569.839 640.677 679 482.928 679C332.003 679 219 578.935 219 397C219 214.306 335.037 115 482.928 115C619.442 115 718.794 191.565 730.928 326.5H584.555Z" fill="#C4C4C4"/><path d="M800.702 671.419V122.581H1192.8V239.323H944.801V338.629H1172.32V455.371H944.801V554.677H1192.04V671.419H800.702Z" fill="#C4C4C4"/><path d="M1268.64 671.419V122.581H1412.74V554.677H1636.47V671.419H1268.64Z" fill="#C4C4C4"/><path d="M1842.76 122.581V671.419H1698.66V122.581H1842.76Z" fill="#C4C4C4"/><path d="M2389.58 122.581V671.419H2268.99L2064.98 375.016H2061.18V671.419H1917.09V122.581H2039.95L2240.93 417.468H2245.48V122.581H2389.58Z" fill="#C4C4C4"/><path d="M2463.9 671.419V122.581H2856V239.323H2608V338.629H2835.52V455.371H2608V554.677H2855.24V671.419H2463.9Z" fill="#C4C4C4"/><text fill="black" xml:space="preserve" style="white-space: pre" font-family="Charis SIL" font-size="25" letter-spacing="0em"><tspan x="916" y="743.46">Celine </tspan><tspan x="992.717" y="743.46">was </tspan><tspan x="1042.31" y="743.46">born </tspan><tspan x="1101.11" y="743.46">the </tspan><tspan x="1143.55" y="743.46">youngest </tspan><tspan x="1250" y="743.46">child </tspan><tspan x="1312.46" y="743.46">of </tspan><tspan x="1341.55" y="743.46">a </tspan><tspan x="1361.6" y="743.46">poor </tspan><tspan x="1419.91" y="743.46">family </tspan><tspan x="1497.65" y="743.46">in </tspan><tspan x="1526.76" y="743.46">a </tspan><tspan x="1546.81" y="743.46">small </tspan><tspan x="1612.94" y="743.46">village </tspan><tspan x="1694.05" y="743.46">not </tspan><tspan x="1737.66" y="743.46">far </tspan><tspan x="1775.66" y="743.46">from </tspan><tspan x="1835.8" y="743.46">the </tspan><tspan x="1878.24" y="743.46">Fidelian </tspan><tspan x="1974.97" y="743.46">Empire. </tspan><tspan x="2068.78" y="743.46">Her </tspan><tspan x="2116.74" y="743.46">mother, </tspan><tspan x="2210.84" y="743.46">who </tspan><tspan x="2265.71" y="743.46">was </tspan><tspan x="2315.3" y="743.46">already </tspan><tspan x="2404.91" y="743.46">frail, </tspan><tspan x="2464.93" y="743.46">hemorrhaged </tspan><tspan x="2619.89" y="743.46">to </tspan><tspan x="2649.32" y="743.46">death </tspan><tspan x="2718.59" y="743.46">while </tspan><tspan x="2787.13" y="743.46">giving </tspan><tspan x="916" y="773.46">birth </tspan><tspan x="977.996" y="773.46">to </tspan><tspan x="1007.96" y="773.46">Celine, </tspan><tspan x="1092.22" y="773.46">and </tspan><tspan x="1141.11" y="773.46">her </tspan><tspan x="1185.38" y="773.46">father, </tspan><tspan x="1266.03" y="773.46">obsessed </tspan><tspan x="1369.89" y="773.46">with </tspan><tspan x="1427.79" y="773.46">the </tspan><tspan x="1470.77" y="773.46">idea </tspan><tspan x="1525.32" y="773.46">that </tspan><tspan x="1577.25" y="773.46">he </tspan><tspan x="1611.73" y="773.46">had </tspan><tspan x="1660.79" y="773.46">lost </tspan><tspan x="1708.14" y="773.46">his </tspan><tspan x="1747.92" y="773.46">wife </tspan><tspan x="1803.37" y="773.46">because </tspan><tspan x="1898.2" y="773.46">of </tspan><tspan x="1927.83" y="773.46">Celine, </tspan><tspan x="2012.09" y="773.46">was </tspan><tspan x="2062.22" y="773.46">especially </tspan><tspan x="2178.61" y="773.46">harsh </tspan><tspan x="2247.66" y="773.46">with </tspan><tspan x="2305.56" y="773.46">her. </tspan><tspan x="2356.83" y="773.46">Her </tspan><tspan x="2405.33" y="773.46">older </tspan><tspan x="2470.38" y="773.46">sister, </tspan><tspan x="2543.31" y="773.46">Elaine, </tspan><tspan x="2626.94" y="773.46">took </tspan><tspan x="2683.85" y="773.46">pity </tspan><tspan x="2735.06" y="773.46">on </tspan><tspan x="2770.71" y="773.46">her </tspan><tspan x="2814.98" y="773.46">and </tspan><tspan x="916" y="803.46">helped </tspan><tspan x="998.234" y="803.46">and </tspan><tspan x="1047.09" y="803.46">cared </tspan><tspan x="1115.46" y="803.46">for </tspan><tspan x="1154.85" y="803.46">her </tspan><tspan x="1199.09" y="803.46">beyond </tspan><tspan x="1288.24" y="803.46">measure. </tspan><tspan x="1395.57" y="803.46">Celine </tspan><tspan x="1472.8" y="803.46">is </tspan><tspan x="1498.2" y="803.46">a </tspan><tspan x="1518.76" y="803.46">quiet </tspan><tspan x="1582.9" y="803.46">child, </tspan><tspan x="1652.88" y="803.46">weak </tspan><tspan x="1718.64" y="803.46">and </tspan><tspan x="1767.5" y="803.46">soft-spoken, </tspan><tspan x="1907.91" y="803.46">just </tspan><tspan x="1955.74" y="803.46">like </tspan><tspan x="2004.21" y="803.46">her </tspan><tspan x="2048.46" y="803.46">mother, </tspan><tspan x="2143.07" y="803.46">and </tspan><tspan x="2191.93" y="803.46">Elaine </tspan><tspan x="2268.52" y="803.46">is </tspan><tspan x="2293.92" y="803.46">her </tspan><tspan x="2338.17" y="803.46">only </tspan><tspan x="2394.47" y="803.46">support </tspan><tspan x="2486.38" y="803.46">in </tspan><tspan x="2516" y="803.46">life, </tspan><tspan x="2566.27" y="803.46">acting </tspan><tspan x="2641.89" y="803.46">as </tspan><tspan x="2672.42" y="803.46">her </tspan><tspan x="2716.66" y="803.46">mother. </tspan><tspan x="2811.27" y="803.46">One </tspan><tspan x="916" y="833.46">day, </tspan><tspan x="970.877" y="833.46">the </tspan><tspan x="1013.77" y="833.46">entire </tspan><tspan x="1086.12" y="833.46">village </tspan><tspan x="1167.69" y="833.46">was </tspan><tspan x="1217.73" y="833.46">attacked </tspan><tspan x="1319.31" y="833.46">by </tspan><tspan x="1354.24" y="833.46">Fidelion&apos;s </tspan><tspan x="1466.54" y="833.46">army </tspan><tspan x="1531.35" y="833.46">because </tspan><tspan x="1626.1" y="833.46">the </tspan><tspan x="1668.99" y="833.46">village </tspan><tspan x="1750.55" y="833.46">chief </tspan><tspan x="1812.33" y="833.46">and </tspan><tspan x="1861.13" y="833.46">his </tspan><tspan x="1900.82" y="833.46">followers </tspan><tspan x="2010.39" y="833.46">had </tspan><tspan x="2059.36" y="833.46">been </tspan><tspan x="2119.73" y="833.46">discovered </tspan><tspan x="2246.06" y="833.46">to </tspan><tspan x="2275.94" y="833.46">be </tspan><tspan x="2309.87" y="833.46">plotting </tspan><tspan x="2404.56" y="833.46">a </tspan><tspan x="2425.07" y="833.46">revolution </tspan><tspan x="2547.25" y="833.46">against </tspan><tspan x="2633.84" y="833.46">Fidelia&apos;s </tspan><tspan x="2731.08" y="833.46">orders. </tspan><tspan x="2815.38" y="833.46">Her </tspan><tspan x="916" y="863.46">father </tspan><tspan x="991.031" y="863.46">was </tspan><tspan x="1042.55" y="863.46">summarily </tspan><tspan x="1169.32" y="863.46">executed </tspan><tspan x="1276.57" y="863.46">for </tspan><tspan x="1317.38" y="863.46">resisting </tspan><tspan x="1419.6" y="863.46">Fidelia&apos;s </tspan><tspan x="1518.32" y="863.46">forces </tspan><tspan x="1592.98" y="863.46">in </tspan><tspan x="1624.02" y="863.46">defense </tspan><tspan x="1716.46" y="863.46">of </tspan><tspan x="1747.47" y="863.46">his </tspan><tspan x="1788.64" y="863.46">children, </tspan><tspan x="1896.26" y="863.46">and </tspan><tspan x="1946.54" y="863.46">soldiers </tspan><tspan x="2040.49" y="863.46">forcibly </tspan><tspan x="2135.1" y="863.46">took </tspan><tspan x="2193.41" y="863.46">young </tspan><tspan x="2271.08" y="863.46">Celine </tspan><tspan x="2349.72" y="863.46">to </tspan><tspan x="2381.08" y="863.46">Fidelia. </tspan><tspan x="2472.56" y="863.46">As </tspan><tspan x="2508.63" y="863.46">a </tspan><tspan x="2530.61" y="863.46">slave </tspan><tspan x="2595.46" y="863.46">in </tspan><tspan x="2626.49" y="863.46">the </tspan><tspan x="2670.86" y="863.46">Fidelian </tspan><tspan x="2769.53" y="863.46">Empire, </tspan><tspan x="916" y="893.46">Celine </tspan><tspan x="994.094" y="893.46">was </tspan><tspan x="1045.06" y="893.46">forced </tspan><tspan x="1123.33" y="893.46">to </tspan><tspan x="1154.13" y="893.46">perform </tspan><tspan x="1251.68" y="893.46">all </tspan><tspan x="1287.96" y="893.46">sorts </tspan><tspan x="1348.47" y="893.46">of </tspan><tspan x="1378.93" y="893.46">hard </tspan><tspan x="1438.62" y="893.46">labor, </tspan><tspan x="1511.76" y="893.46">even </tspan><tspan x="1572.39" y="893.46">at </tspan><tspan x="1602.32" y="893.46">a </tspan><tspan x="1623.75" y="893.46">young </tspan><tspan x="1700.86" y="893.46">age. </tspan><tspan x="1754.69" y="893.46">As </tspan><tspan x="1790.2" y="893.46">hard </tspan><tspan x="1849.89" y="893.46">as </tspan><tspan x="1881.28" y="893.46">it </tspan><tspan x="1906.08" y="893.46">was </tspan><tspan x="1957.05" y="893.46">to </tspan><tspan x="1987.85" y="893.46">live </tspan><tspan x="2037.06" y="893.46">through </tspan><tspan x="2133.73" y="893.46">the </tspan><tspan x="2177.55" y="893.46">daily </tspan><tspan x="2241.36" y="893.46">hell </tspan><tspan x="2291.53" y="893.46">of </tspan><tspan x="2321.99" y="893.46">her </tspan><tspan x="2367.1" y="893.46">life, </tspan><tspan x="2418.24" y="893.46">she </tspan><tspan x="2463.52" y="893.46">grieved </tspan><tspan x="2554.6" y="893.46">the </tspan><tspan x="2598.42" y="893.46">loss </tspan><tspan x="2648.07" y="893.46">of </tspan><tspan x="2678.53" y="893.46">her </tspan><tspan x="2723.64" y="893.46">sister </tspan><tspan x="2790.41" y="893.46">in </tspan><tspan x="2820.89" y="893.46">the </tspan><tspan x="916" y="923.46">process. </tspan><tspan x="1012.24" y="923.46">Unable </tspan><tspan x="1098.53" y="923.46">to </tspan><tspan x="1128.66" y="923.46">cope, </tspan><tspan x="1195.18" y="923.46">she </tspan><tspan x="1239.78" y="923.46">tried </tspan><tspan x="1300.05" y="923.46">to </tspan><tspan x="1330.18" y="923.46">commit </tspan><tspan x="1422.07" y="923.46">suicide </tspan><tspan x="1507.49" y="923.46">several </tspan><tspan x="1593.15" y="923.46">times, </tspan><tspan x="1667.76" y="923.46">only </tspan><tspan x="1724.25" y="923.46">to </tspan><tspan x="1754.37" y="923.46">be </tspan><tspan x="1788.54" y="923.46">discovered </tspan><tspan x="1915.13" y="923.46">by </tspan><tspan x="1950.3" y="923.46">her </tspan><tspan x="1994.73" y="923.46">coworkers </tspan><tspan x="2116.33" y="923.46">and </tspan><tspan x="2165.38" y="923.46">managers. </tspan><tspan x="2286.44" y="923.46">Over </tspan><tspan x="2348.03" y="923.46">the </tspan><tspan x="2391.17" y="923.46">years, </tspan><tspan x="2464.19" y="923.46">she </tspan><tspan x="2508.79" y="923.46">began </tspan><tspan x="2583" y="923.46">to </tspan><tspan x="2613.12" y="923.46">adjust </tspan><tspan x="2687.97" y="923.46">to </tspan><tspan x="2718.09" y="923.46">her </tspan><tspan x="2762.52" y="923.46">life </tspan><tspan x="2805.98" y="923.46">with </tspan><tspan x="916" y="953.46">her </tspan><tspan x="959.894" y="953.46">enslaved </tspan><tspan x="1063.53" y="953.46">companions, </tspan><tspan x="1210.77" y="953.46">reading </tspan><tspan x="1302.05" y="953.46">books </tspan><tspan x="1373.95" y="953.46">and </tspan><tspan x="1422.46" y="953.46">cooking </tspan><tspan x="1517.06" y="953.46">delicious </tspan><tspan x="1622.96" y="953.46">meals </tspan><tspan x="1694.08" y="953.46">together. </tspan><tspan x="1800.96" y="953.46">When </tspan><tspan x="1872.54" y="953.46">she </tspan><tspan x="1916.61" y="953.46">was </tspan><tspan x="1966.36" y="953.46">16, </tspan><tspan x="2009.03" y="953.46">she </tspan><tspan x="2053.1" y="953.46">was </tspan><tspan x="2102.85" y="953.46">taken </tspan><tspan x="2171.36" y="953.46">by </tspan><tspan x="2206" y="953.46">her </tspan><tspan x="2249.89" y="953.46">best </tspan><tspan x="2301.99" y="953.46">friend </tspan><tspan x="2375.57" y="953.46">Jamie </tspan><tspan x="2449.03" y="953.46">to </tspan><tspan x="2478.62" y="953.46">watch </tspan><tspan x="2552.91" y="953.46">a </tspan><tspan x="2573.12" y="953.46">parade </tspan><tspan x="2656.2" y="953.46">to </tspan><tspan x="2685.79" y="953.46">welcome </tspan><tspan x="2791.3" y="953.46">Jake&apos;s </tspan><tspan x="916" y="983.46">army. </tspan><tspan x="988.093" y="983.46">As </tspan><tspan x="1022.96" y="983.46">she </tspan><tspan x="1067.58" y="983.46">watches </tspan><tspan x="1164.65" y="983.46">Jake </tspan><tspan x="1223.17" y="983.46">enter </tspan><tspan x="1288.21" y="983.46">through </tspan><tspan x="1384.23" y="983.46">the </tspan><tspan x="1427.39" y="983.46">city </tspan><tspan x="1476.44" y="983.46">gates </tspan><tspan x="1541.06" y="983.46">to </tspan><tspan x="1571.21" y="983.46">the </tspan><tspan x="1614.37" y="983.46">enthusiastic </tspan><tspan x="1753.92" y="983.46">cheers </tspan><tspan x="1832.24" y="983.46">of </tspan><tspan x="1862.05" y="983.46">the </tspan><tspan x="1905.21" y="983.46">crowds </tspan><tspan x="1991.95" y="983.46">in </tspan><tspan x="2021.79" y="983.46">Fidelion </tspan><tspan x="2120.13" y="983.46">Square, </tspan><tspan x="2210.94" y="983.46">Celine </tspan><tspan x="2288.38" y="983.46">feels </tspan><tspan x="2346.49" y="983.46">a </tspan><tspan x="2367.26" y="983.46">subtle </tspan><tspan x="2441.58" y="983.46">connection </tspan><tspan x="2571.02" y="983.46">to </tspan><tspan x="2601.17" y="983.46">him </tspan><tspan x="2652.44" y="983.46">that </tspan><tspan x="2704.56" y="983.46">she </tspan><tspan x="2749.19" y="983.46">has </tspan><tspan x="2794.28" y="983.46">never </tspan><tspan x="916" y="1013.46">felt </tspan><tspan x="959.652" y="1013.46">before. </tspan><tspan x="1043.93" y="1013.46">As </tspan><tspan x="1078.06" y="1013.46">Jake </tspan><tspan x="1135.85" y="1013.46">and </tspan><tspan x="1184.19" y="1013.46">Celine&apos;s </tspan><tspan x="1275.13" y="1013.46">eyes </tspan><tspan x="1330.18" y="1013.46">met, </tspan><tspan x="1386.53" y="1013.46">she </tspan><tspan x="1430.43" y="1013.46">was </tspan><tspan x="1480.01" y="1013.46">overcome </tspan><tspan x="1594.98" y="1013.46">with </tspan><tspan x="1652.33" y="1013.46">a </tspan><tspan x="1672.37" y="1013.46">strange </tspan><tspan x="1760.24" y="1013.46">feeling. </tspan><tspan x="1849.57" y="1013.46">She </tspan><tspan x="1896.54" y="1013.46">quickly </tspan><tspan x="1985.09" y="1013.46">turned </tspan><tspan x="2065.49" y="1013.46">her </tspan><tspan x="2109.21" y="1013.46">head </tspan><tspan x="2169.98" y="1013.46">away </tspan><tspan x="2235.58" y="1013.46">and </tspan><tspan x="2283.92" y="1013.46">made </tspan><tspan x="2351.6" y="1013.46">her </tspan><tspan x="2395.32" y="1013.46">way </tspan><tspan x="2448.2" y="1013.46">through </tspan><tspan x="2543.49" y="1013.46">the </tspan><tspan x="2585.92" y="1013.46">crowd.</tspan></text><text fill="black" xml:space="preserve" style="white-space: pre" font-family="Charis SIL" font-size="30" font-weight="bold" letter-spacing="0em"><tspan x="4273" y="119.353">Celine Adele
</tspan><tspan x="4273" y="159.353">Female
</tspan><tspan x="4273" y="199.353">20s
</tspan><tspan x="4273" y="239.353">United States
</tspan><tspan x="4273" y="279.353">Fidelion
</tspan><tspan x="4273" y="319.353">Empress</tspan></text><image x="4390" y="136" width="1747" height="808" fill="url(#img1720074657167_pattern1_4045_1486)" xlink:href="/story/fidelion-7-1/2.png"/><text fill="black" xml:space="preserve" style="white-space: pre" font-family="Charis SIL" font-size="25" letter-spacing="0em"><tspan x="6109" y="824.46">For the following days after, Celine still lay awake at night thinking about Jake&apos;s appearance at the parade. </tspan><tspan x="6109" y="854.46">One day, amid these unexplained feelings, soldiers burst into her home, seized her, and dragged her to the </tspan><tspan x="6109" y="884.46">Fidelion Tower. Summoned before the Emperor, without speaking a word, Jake raised her rank to a citizen </tspan><tspan x="6109" y="914.46">without further explanation and ordered her to work in the Fidelion Tower. While this is not unheard of, it </tspan><tspan x="6109" y="944.46">was an unprecedented rise in rank within the Empire, and her treatment at the tower was understandably less </tspan><tspan x="6109" y="974.46">than favorable. She struggled to rise to the occasion, working hard, wondering why she was suddenly </tspan><tspan x="6109" y="1004.46">promoted to her rank, and occasionally longing for her old life.</tspan></text><g style="mix-blend-mode:multiply"><image x="6553" y="139" width="632" height="632" fill="url(#img1720074657167_pattern2_4045_1486)" xlink:href="/story/fidelion-7-1/3.png"/></g><text fill="black" xml:space="preserve" style="white-space: pre" font-family="Charis SIL" font-size="25" letter-spacing="0em"><tspan x="7217" y="163.46">Despite her jealousy and envy, Celine does her best to fulfill her duties at the palace, which is to say, the menial </tspan><tspan x="7217" y="193.46">tasks. One day, she is assigned to clean Jake&apos;s office, and when she runs into him again, he somehow assigns her the </tspan><tspan x="7217" y="223.46">sole responsibility of cleaning his office the next day. Despite the envy and jealousy of the other workers, Celine </tspan><tspan x="7217" y="253.46">stuck to her task and fulfilled her duties. Although the work was hard and lonely, it wasn&apos;t a bad experience to </tspan><tspan x="7217" y="283.46">casually bump into and talk to Jake. Jake didn&apos;t treat her as a maid, and her curiosity about him grew. As their </tspan><tspan x="7217" y="313.46">conversations became more casual and she grew closer to him, she gradually developed feelings for him.</tspan></text><text fill="black" xml:space="preserve" style="white-space: pre" font-family="Charis SIL" font-size="25" letter-spacing="0em"><tspan x="8420" y="392.46">Meanwhile, her position at the company was rising by the day. Jake recognized her talent early on and reassigned </tspan><tspan x="8420" y="422.46">her to the military ranks. There, she picked up the military training so quickly that, at some point, she was no </tspan><tspan x="8420" y="452.46">longer a janitor but a soldier. Before long, she had become an integral part of Fidelia&apos;s military. As Jake watched, </tspan><tspan x="8420" y="482.46">he realized Celine had grown to hold a large place in his heart. Eventually, against the wishes of many, Jake </tspan><tspan x="8420" y="512.46">crowned her Empress, and she rose to the highest position in the Empire.</tspan></text><image x="7527" y="576" width="2315" height="504" fill="url(#img1720074657167_pattern3_4045_1486)" xlink:href="/story/fidelion-7-1/4.png"/></g><defs><pattern id="img1720074657167_pattern0_4045_1486" patternContentUnits="objectBoundingBox" width="1" height="1"><use xlink:href="#image0_4045_1486" transform="matrix(0.000333539 0 0 0.000330142 -0.000308678 0)"/></pattern><pattern id="img1720074657167_pattern1_4045_1486" patternContentUnits="objectBoundingBox" width="1" height="1"><use xlink:href="#image1_4045_1486" transform="scale(0.000667557 0.00123762)"/></pattern><pattern id="img1720074657167_pattern2_4045_1486" patternContentUnits="objectBoundingBox" width="1" height="1"><use xlink:href="#image2_4045_1486" transform="scale(0.000976562)"/></pattern><pattern id="img1720074657167_pattern3_4045_1486" patternContentUnits="objectBoundingBox" width="1" height="1"><use xlink:href="#image3_4045_1486" transform="scale(0.000244141 0.0011214)"/></pattern><clipPath id="clip0_4045_1486"><rect width="10032" height="1080" fill="white"/></clipPath><image id="image0_4045_1486" width="3000" height="3029" xlink:href="/story/fidelion-7-1/1.png"/><image id="image1_4045_1486" width="1498" height="808" xlink:href="/story/fidelion-7-1/2.png"/><image id="image2_4045_1486" width="1024" height="1024" xlink:href="/story/fidelion-7-1/3.png"/><image id="image3_4045_1486" width="4096" height="892" xlink:href="/story/fidelion-7-1/4.png"/></defs></svg>