<svg width="10205" height="1080" viewBox="0 0 10205 1080" fill="none" xmlns="http://www.w3.org/2000/svg" xmlns:xlink="http://www.w3.org/1999/xlink"><rect width="10205" height="1080" fill="#CC0000"/><path d="M0 311.398V0H117.112C148.857 0 176.383 6.23656 199.692 18.7097C223 31.1828 240.945 49.104 253.529 72.4732C266.112 95.8423 272.404 123.584 272.404 155.699C272.404 187.814 266.112 215.556 253.529 238.925C241.088 262.294 223.214 280.215 199.906 292.688C176.741 305.161 149.429 311.398 117.97 311.398H0ZM114.967 241.72C131.698 241.72 145.497 239.068 156.364 233.764C167.375 228.315 175.74 219.355 181.46 206.882C187.18 194.265 190.039 177.204 190.039 155.699C190.039 134.194 187.108 117.133 181.245 104.516C175.525 91.8997 167.017 82.9391 155.721 77.6345C144.567 72.3298 130.268 69.6775 112.823 69.6775H81.5068V241.72H114.967Z" fill="black"/><path d="M393.806 311.398H312.3V0H393.806V311.398Z" fill="black"/><path d="M603.15 100.645C602.292 89.8925 598.288 81.7205 591.138 76.1291C583.989 70.3943 573.55 67.5269 559.823 67.5269C546.667 67.5269 536.801 69.8925 530.223 74.6237C523.645 79.2115 520.356 85.4481 520.356 93.3334C520.356 100.932 523.86 107.097 530.866 111.828C537.873 116.416 548.669 120.287 563.255 123.441L588.994 129.462C621.882 136.488 646.191 147.957 661.921 163.871C677.65 179.642 685.658 199.713 685.944 224.086C685.801 244.301 680.724 261.577 670.715 275.914C660.705 290.107 646.334 300.932 627.602 308.387C608.87 315.842 586.42 319.57 560.252 319.57C518.926 319.57 486.538 310.251 463.087 291.613C439.636 272.975 427.696 245.018 427.267 207.742H505.342C505.914 221.936 510.919 232.903 520.356 240.645C529.794 248.244 542.663 252.043 558.965 252.043C572.549 252.043 583.059 249.534 590.495 244.516C598.074 239.355 602.006 232.545 602.292 224.086C602.006 216.488 598.288 210.323 591.138 205.591C584.132 200.86 571.977 196.559 554.675 192.688L523.359 185.807C464.731 172.903 435.418 143.799 435.418 98.4947C435.275 79.1398 440.494 62.0072 451.076 47.0968C461.657 32.1864 476.386 20.6452 495.261 12.4731C514.136 4.15771 535.657 0 559.823 0C584.418 0 605.867 4.15771 624.17 12.4731C642.473 20.7885 656.558 32.5448 666.425 47.7419C676.435 62.9391 681.511 80.5735 681.654 100.645H603.15Z" fill="black"/><path d="M710.396 0.102161H978.081V66.3387H884.563V311.5H803.914V66.3387H710.396V0.102161Z" fill="black"/><path d="M1011.11 0.102192H1143.24C1166.26 0.102192 1186.42 4.33158 1203.73 12.7904C1221.17 21.2491 1234.61 33.4355 1244.05 49.3495C1253.49 65.1201 1258.21 83.8298 1258.21 105.479C1258.21 126.697 1253.56 144.905 1244.26 160.102C1235.11 175.299 1222.03 186.912 1205.01 194.941L1268.5 311.5H1179.7L1124.58 207.844H1092.62V311.5H1011.11V0.102192ZM1124.36 143.758C1140.24 143.758 1152.25 140.676 1160.4 134.511C1168.69 128.346 1172.84 118.669 1172.84 105.479C1172.84 92.0019 1168.69 81.966 1160.4 75.371C1152.11 68.7761 1140.09 65.4786 1124.36 65.4786H1092.62V143.758H1124.36Z" fill="black"/><path d="M1376.61 311.398H1295.1V0H1376.61V311.398Z" fill="black"/><path d="M1623.27 120C1621.98 105.09 1616.48 93.2617 1606.76 84.5162C1597.17 75.7707 1584.23 71.3979 1567.93 71.3979C1553.78 71.3979 1541.62 74.9104 1531.47 81.9355C1521.46 88.9606 1513.81 99.1398 1508.52 112.473C1503.23 125.663 1500.58 141.505 1500.58 160C1500.58 188.961 1506.37 210.968 1517.96 226.022C1529.68 241.075 1546.2 248.602 1567.5 248.602C1582.95 248.602 1595.53 244.66 1605.25 236.774C1615.12 228.746 1621.13 217.778 1623.27 203.871L1706.06 204.731C1704.49 223.513 1698.06 241.792 1686.76 259.57C1675.61 277.204 1659.66 291.684 1638.93 303.011C1618.34 314.337 1593.96 320 1565.79 320C1537.05 320 1511.38 313.763 1488.79 301.29C1466.19 288.817 1448.46 270.538 1435.59 246.452C1422.86 222.366 1416.5 193.548 1416.5 160C1416.5 126.452 1423.01 97.6345 1436.02 73.5484C1449.03 49.4624 1466.84 31.1828 1489.43 18.7097C1512.02 6.23656 1537.47 0 1565.79 0C1591.67 0 1614.76 4.73118 1635.07 14.1935C1655.37 23.5125 1671.67 37.2043 1683.97 55.2688C1696.41 73.3333 1703.78 94.9104 1706.06 120H1623.27Z" fill="black"/><path d="M1736.52 0.102192H2004.21V66.3388H1910.69V311.5H1830.04V66.3388H1736.52V0.102192Z" fill="black"/><path d="M2300.21 100.645C2299.35 89.8925 2295.34 81.7205 2288.19 76.1291C2281.04 70.3943 2270.61 67.5269 2256.88 67.5269C2243.72 67.5269 2233.86 69.8925 2227.28 74.6237C2220.7 79.2115 2217.41 85.4481 2217.41 93.3334C2217.41 100.932 2220.92 107.097 2227.92 111.828C2234.93 116.416 2245.73 120.287 2260.31 123.441L2286.05 129.462C2318.94 136.488 2343.25 147.957 2358.98 163.871C2374.71 179.642 2382.71 199.713 2383 224.086C2382.86 244.301 2377.78 261.577 2367.77 275.914C2357.76 290.107 2343.39 300.932 2324.66 308.387C2305.93 315.842 2283.48 319.57 2257.31 319.57C2215.98 319.57 2183.59 310.251 2160.14 291.613C2136.69 272.975 2124.75 245.018 2124.32 207.742H2202.4C2202.97 221.936 2207.97 232.903 2217.41 240.645C2226.85 248.244 2239.72 252.043 2256.02 252.043C2269.61 252.043 2280.12 249.534 2287.55 244.516C2295.13 239.355 2299.06 232.545 2299.35 224.086C2299.06 216.488 2295.34 210.323 2288.19 205.591C2281.19 200.86 2269.03 196.559 2251.73 192.688L2220.42 185.807C2161.79 172.903 2132.47 143.799 2132.47 98.4947C2132.33 79.1398 2137.55 62.0072 2148.13 47.0968C2158.71 32.1864 2173.44 20.6452 2192.32 12.4731C2211.19 4.15771 2232.71 0 2256.88 0C2281.47 0 2302.92 4.15771 2321.23 12.4731C2339.53 20.7885 2353.61 32.5448 2363.48 47.7419C2373.49 62.9391 2378.57 80.5735 2378.71 100.645H2300.21Z" fill="black"/><text fill="black" xml:space="preserve" style="white-space: pre" font-family="Charis SIL" font-size="25" letter-spacing="0em"><tspan x="0" y="418.46">The classes that make up the largest population of Fidelia are the slave and labor classes. Slaves and </tspan><tspan x="0" y="448.46">laborers are mostly made up of captured people from towns outside of Fidelion, as well as defeated </tspan><tspan x="0" y="478.46">soldiers and their families. Once enslaved, they are forcibly tattooed on their bodies and faces to </tspan><tspan x="0" y="508.46">distinguish them from citizens.
</tspan><tspan x="0" y="542.46">
</tspan><tspan x="0" y="576.46">The area is so tightly controlled that it is almost impossible to escape: the high walls and tightly </tspan><tspan x="0" y="606.46">closed gates are impenetrable by any weapon. As a class society of slaves and laborers, the living </tspan><tspan x="0" y="636.46">conditions, including the hygiene inside, are appalling, and even the area itself is not spacious </tspan><tspan x="0" y="666.46">enough, forcing people to live in friction with each other. 
</tspan><tspan x="0" y="700.46">
</tspan><tspan x="0" y="734.46">The only solace for the laborers and slave class, who live under close surveillance and perform hard </tspan><tspan x="0" y="764.46">labor, is to take a particular drug called &apos;dela&apos; and watch the weekly arena battles. The Fidelian </tspan><tspan x="0" y="794.46">Empire has strategically structured its society to be even more bleak, &quot;providing&quot; an escape from the </tspan><tspan x="0" y="824.46">suffering of a discriminatory social structure through a culture that addresses one-dimensional needs, </tspan><tspan x="0" y="854.46">such as physical pleasure through a constant supply of drugs and entertainment through the Arena.  
</tspan><tspan x="0" y="888.46">
</tspan><tspan x="0" y="922.46">Nevertheless, the number of escape attempts in these zones is much higher than in other zones, and </tspan><tspan x="0" y="952.46">the suicide rate is also high. The fact that even those who manage to escape are forever on the run </tspan><tspan x="0" y="982.46">from the Hunters, the dogs of the Empire, casts an even darker shadow over this hopeless society.</tspan></text><image x="1191" y="393" width="1192" height="687" fill="url(#img1719382519401_pattern0_3798_2458)" xlink:href="/story/fidelion-4-2/1.png"/><g clip-path="url(#clip0_3798_2458)"><text fill="black" xml:space="preserve" style="white-space: pre" font-family="Charis SIL" font-size="25" letter-spacing="0em"><tspan x="2551" y="450.46">Fidelian soldiers are essentially a higher class than laborers. They live in barracks on military bases, </tspan><tspan x="2551" y="480.46">living quarters with various functions such as restaurants and rest areas. Jake is very generous in </tspan><tspan x="2551" y="510.46">allocating resources to train soldiers. Soldiers are incentivized based on their performance, and those </tspan><tspan x="2551" y="540.46">with more achievements and accomplishments have the opportunity to not only rise in rank within the </tspan><tspan x="2551" y="570.46">military but also become higher-ranking citizens. Compared to District S, this is undoubtedly a zone of </tspan><tspan x="2551" y="600.46">hope.  
</tspan><tspan x="2551" y="634.46">
</tspan><tspan x="2551" y="668.46">This district has physical training grounds to develop physical toughness and a medical center to push </tspan><tspan x="2551" y="698.46">the limits of physical strength with specially formulated body-enhancing drugs. Also within this sector is </tspan><tspan x="2551" y="728.46">a training facility for soldiers, which not only provides military training but also brainwashing to </tspan><tspan x="2551" y="758.46">increase their loyalty to the Fidelian Empire. After completing the courses at the training center, soldiers </tspan><tspan x="2551" y="788.46">are transformed into powerful soldiers capable of fighting and dying for Jake and the Empire.</tspan></text><path d="M2551 311.699V0.301075H2672.11C2704.94 0.301075 2733.4 6.53763 2757.51 19.0108C2781.61 31.4839 2800.17 49.405 2813.18 72.7742C2826.19 96.1434 2832.7 123.885 2832.7 156C2832.7 188.115 2826.19 215.857 2813.18 239.226C2800.32 262.595 2781.83 280.516 2757.73 292.989C2733.77 305.462 2705.53 311.699 2673 311.699H2551ZM2669.89 242.022C2687.19 242.022 2701.46 239.369 2712.7 234.065C2724.09 228.617 2732.74 219.656 2738.65 207.183C2744.57 194.566 2747.53 177.505 2747.53 156C2747.53 134.495 2744.49 117.434 2738.43 104.817C2732.52 92.2007 2723.72 83.2401 2712.04 77.9355C2700.5 72.6308 2685.71 69.9785 2667.67 69.9785H2635.29V242.022H2669.89Z" fill="black"/><path d="M2958.25 311.699H2873.96V0.301075H2958.25V311.699Z" fill="black"/><path d="M3174.73 96.6452C3173.85 85.8925 3169.71 77.7204 3162.31 72.129C3154.92 66.3943 3144.12 63.5269 3129.93 63.5269C3116.32 63.5269 3106.12 65.8925 3099.32 70.6237C3092.52 75.2115 3089.12 81.448 3089.12 89.3333C3089.12 96.9319 3092.74 103.097 3099.98 107.828C3107.23 112.416 3118.39 116.287 3133.48 119.441L3160.1 125.462C3194.11 132.487 3219.24 143.957 3235.51 159.871C3251.78 175.642 3260.06 195.713 3260.35 220.086C3260.21 240.301 3254.96 257.577 3244.61 271.914C3234.25 286.108 3219.39 296.932 3200.02 304.387C3180.65 311.842 3157.43 315.57 3130.37 315.57C3087.64 315.57 3054.14 306.251 3029.89 287.613C3005.64 268.975 2993.29 241.018 2992.85 203.742H3073.59C3074.18 217.935 3079.36 228.903 3089.12 236.645C3098.88 244.244 3112.18 248.043 3129.04 248.043C3143.09 248.043 3153.96 245.534 3161.65 240.516C3169.49 235.355 3173.55 228.545 3173.85 220.086C3173.55 212.487 3169.71 206.323 3162.31 201.591C3155.07 196.86 3142.5 192.559 3124.61 188.688L3092.22 181.806C3031.59 168.903 3001.28 139.799 3001.28 94.4946C3001.13 75.1398 3006.53 58.0072 3017.47 43.0968C3028.41 28.1864 3043.64 16.6452 3063.16 8.47312C3082.68 0.157706 3104.94 -4 3129.93 -4C3155.36 -4 3177.54 0.157706 3196.47 8.47312C3215.4 16.7885 3229.97 28.5448 3240.17 43.7419C3250.52 58.9391 3255.77 76.5735 3255.92 96.6452H3174.73Z" fill="black"/><path d="M3285.64 0.301075H3562.46V66.5376H3465.75V311.699H3382.35V66.5376H3285.64V0.301075Z" fill="black"/><path d="M3596.62 0.301075H3733.26C3757.06 0.301075 3777.92 4.53047 3795.81 12.9892C3813.85 21.448 3827.75 33.6344 3837.51 49.5484C3847.27 65.319 3852.15 84.0287 3852.15 105.677C3852.15 126.896 3847.34 145.104 3837.73 160.301C3828.27 175.498 3814.74 187.111 3797.14 195.14L3862.79 311.699H3770.96L3713.96 208.043H3680.91V311.699H3596.62V0.301075ZM3713.74 143.957C3730.15 143.957 3742.57 140.875 3751 134.71C3759.58 128.545 3763.87 118.867 3763.87 105.677C3763.87 92.2007 3759.58 82.1649 3751 75.5699C3742.43 68.9749 3730 65.6774 3713.74 65.6774H3680.91V143.957H3713.74Z" fill="black"/><path d="M3974.59 311.699H3890.3V0.301075H3974.59V311.699Z" fill="black"/><path d="M4229.67 116C4228.34 101.09 4222.65 89.2617 4212.59 80.5161C4202.68 71.7706 4189.3 67.3979 4172.44 67.3979C4157.8 67.3979 4145.24 70.9104 4134.74 77.9355C4124.39 84.9606 4116.47 95.1398 4111 108.473C4105.53 121.663 4102.8 137.505 4102.8 156C4102.8 184.961 4108.78 206.968 4120.76 222.022C4132.89 237.075 4149.97 244.602 4172 244.602C4187.97 244.602 4200.98 240.66 4211.04 232.774C4221.24 224.746 4227.45 213.778 4229.67 199.871L4315.29 200.731C4313.66 219.513 4307.01 237.792 4295.33 255.57C4283.79 273.204 4267.31 287.685 4245.86 299.011C4224.57 310.337 4199.36 316 4170.23 316C4140.5 316 4113.96 309.763 4090.6 297.29C4067.23 284.817 4048.9 266.538 4035.59 242.452C4022.43 218.366 4015.85 189.548 4015.85 156C4015.85 122.452 4022.57 93.6344 4036.03 69.5484C4049.49 45.4624 4067.9 27.1828 4091.26 14.7097C4114.63 2.23656 4140.95 -4 4170.23 -4C4196.99 -4 4220.87 0.731183 4241.87 10.1935C4262.87 19.5125 4279.73 33.2043 4292.44 51.2688C4305.31 69.3333 4312.93 90.9104 4315.29 116H4229.67Z" fill="black"/><path d="M4346.79 0.301075H4623.61V66.5376H4526.9V311.699H4443.5V66.5376H4346.79V0.301075Z" fill="black"/><path d="M4744.72 311.699L4851.63 0.301075H4966.53L5073 311.699H4982.06L4962.76 250.624H4855.18L4836.11 311.699H4744.72ZM4943.24 188.688L4910.19 84.172H4907.53L4874.7 188.688H4943.24Z" fill="black"/><image x="3769" y="426" width="1305" height="654" fill="url(#img1719382519401_pattern1_3798_2458)" xlink:href="/story/fidelion-4-2/2.png"/></g><g clip-path="url(#clip1_3798_2458)"><text fill="black" xml:space="preserve" style="white-space: pre" font-family="Charis SIL" font-size="25" letter-spacing="0em"><tspan x="7269" y="95.4604">Built </tspan><tspan x="7332.16" y="95.4604">like </tspan><tspan x="7383.06" y="95.4604">a </tspan><tspan x="7406.06" y="95.4604">coliseum, </tspan><tspan x="7521.32" y="95.4604">the </tspan><tspan x="7566.7" y="95.4604">Arena </tspan><tspan x="7642.78" y="95.4604">is </tspan><tspan x="7670.61" y="95.4604">a </tspan><tspan x="7693.61" y="95.4604">place </tspan><tspan x="7761.92" y="95.4604">for </tspan><tspan x="7803.74" y="95.4604">the </tspan><tspan x="7849.12" y="95.4604">citizens </tspan><tspan x="7942.68" y="95.4604">of </tspan><tspan x="7974.71" y="95.4604">Fidelia </tspan><tspan x="8060.21" y="95.4604">to </tspan><tspan x="8092.58" y="95.4604">gather </tspan><tspan x="8173.61" y="95.4604">and </tspan><tspan x="8224.9" y="95.4604">relax </tspan><tspan x="8290.11" y="95.4604">after </tspan><tspan x="8351.8" y="95.4604">hard </tspan><tspan x="8413.06" y="95.4604">labor </tspan><tspan x="8480.76" y="95.4604">and </tspan><tspan x="8532.05" y="95.4604">battle, </tspan><tspan x="8612.62" y="95.4604">gamble, </tspan><tspan x="8710.59" y="95.4604">drink, </tspan><tspan x="8786.91" y="95.4604">and </tspan><tspan x="8838.2" y="95.4604">watch </tspan><tspan x="7269" y="125.46">human </tspan><tspan x="7355.12" y="125.46">combat. </tspan><tspan x="7453.11" y="125.46">While </tspan><tspan x="7527.39" y="125.46">ostensibly </tspan><tspan x="7647.37" y="125.46">built </tspan><tspan x="7708.37" y="125.46">for </tspan><tspan x="7749.27" y="125.46">the </tspan><tspan x="7793.74" y="125.46">well-being </tspan><tspan x="7918.85" y="125.46">of </tspan><tspan x="7949.97" y="125.46">the </tspan><tspan x="7994.44" y="125.46">citizens, </tspan><tspan x="8094.09" y="125.46">it </tspan><tspan x="8119.54" y="125.46">is </tspan><tspan x="8146.45" y="125.46">a </tspan><tspan x="8168.54" y="125.46">strategic </tspan><tspan x="8271.99" y="125.46">state-run </tspan><tspan x="8379.5" y="125.46">facility </tspan><tspan x="8465.74" y="125.46">designed </tspan><tspan x="8572.71" y="125.46">to </tspan><tspan x="8604.17" y="125.46">help </tspan><tspan x="8661.55" y="125.46">the </tspan><tspan x="8706.03" y="125.46">citizens </tspan><tspan x="8798.66" y="125.46">of </tspan><tspan x="8829.78" y="125.46">Fidelia </tspan><tspan x="7269" y="155.46">dismiss </tspan><tspan x="7361.96" y="155.46">their </tspan><tspan x="7426.97" y="155.46">internal </tspan><tspan x="7526.13" y="155.46">discontent, </tspan><tspan x="7660.18" y="155.46">stress, </tspan><tspan x="7740.13" y="155.46">and </tspan><tspan x="7793.66" y="155.46">rebellion </tspan><tspan x="7904.59" y="155.46">and </tspan><tspan x="7958.12" y="155.46">to </tspan><tspan x="7992.73" y="155.46">encourage </tspan><tspan x="8119.07" y="155.46">them </tspan><tspan x="8187.96" y="155.46">to </tspan><tspan x="8222.57" y="155.46">pursue </tspan><tspan x="8309.55" y="155.46">their </tspan><tspan x="8374.55" y="155.46">most </tspan><tspan x="8440.39" y="155.46">primal </tspan><tspan x="8525.69" y="155.46">desires. </tspan><tspan x="8621.14" y="155.46">The </tspan><tspan x="8675.26" y="155.46">matches </tspan><tspan x="8778.47" y="155.46">are </tspan><tspan x="8825.75" y="155.46">usually </tspan><tspan x="7269" y="185.46">organized </tspan><tspan x="7390.34" y="185.46">in </tspan><tspan x="7424.53" y="185.46">various </tspan><tspan x="7518.07" y="185.46">ways, </tspan><tspan x="7593" y="185.46">such </tspan><tspan x="7655.6" y="185.46">as </tspan><tspan x="7690.69" y="185.46">one-on-one </tspan><tspan x="7826.98" y="185.46">singles </tspan><tspan x="7913.9" y="185.46">matches, </tspan><tspan x="8024.01" y="185.46">many </tspan><tspan x="8097.84" y="185.46">vs. </tspan><tspan x="8140.45" y="185.46">many </tspan><tspan x="8214.29" y="185.46">group </tspan><tspan x="8291.44" y="185.46">matches, </tspan><tspan x="8401.55" y="185.46">matches </tspan><tspan x="8504.66" y="185.46">against </tspan><tspan x="8595.88" y="185.46">animals </tspan><tspan x="8694.15" y="185.46">or </tspan><tspan x="8729.95" y="185.46">giant </tspan><tspan x="8798.48" y="185.46">monsters, </tspan><tspan x="7269" y="215.46">survival, </tspan><tspan x="7371.9" y="215.46">Texas </tspan><tspan x="7442.29" y="215.46">Rumble, </tspan><tspan x="7542.31" y="215.46">and </tspan><tspan x="7591.04" y="215.46">more. </tspan><tspan x="7662.67" y="215.46">Wins </tspan><tspan x="7725.41" y="215.46">and </tspan><tspan x="7774.14" y="215.46">losses </tspan><tspan x="7845.01" y="215.46">are </tspan><tspan x="7887.49" y="215.46">usually </tspan><tspan x="7974.45" y="215.46">determined </tspan><tspan x="8108.48" y="215.46">by </tspan><tspan x="8143.35" y="215.46">one </tspan><tspan x="8191.1" y="215.46">party&apos;s </tspan><tspan x="8271.3" y="215.46">inability </tspan><tspan x="8371.76" y="215.46">to </tspan><tspan x="8401.57" y="215.46">fight, </tspan><tspan x="8468" y="215.46">although </tspan><tspan x="8574.02" y="215.46">it&apos;s </tspan><tspan x="8612.06" y="215.46">possible </tspan><tspan x="8708.45" y="215.46">to </tspan><tspan x="8738.25" y="215.46">withdraw </tspan><tspan x="8852.19" y="215.46">from </tspan><tspan x="7269" y="245.46">the </tspan><tspan x="7311.43" y="245.46">fight, </tspan><tspan x="7377.47" y="245.46">which </tspan><tspan x="7452.33" y="245.46">is </tspan><tspan x="7477.2" y="245.46">often </tspan><tspan x="7541.22" y="245.46">punishable </tspan><tspan x="7669.15" y="245.46">by </tspan><tspan x="7703.62" y="245.46">death </tspan><tspan x="7772.88" y="245.46">by </tspan><tspan x="7807.35" y="245.46">the </tspan><tspan x="7849.79" y="245.46">referee.
</tspan><tspan x="7269" y="279.46">
</tspan><tspan x="7269" y="313.46">The </tspan><tspan x="7319.72" y="313.46">general </tspan><tspan x="7410.6" y="313.46">manager </tspan><tspan x="7515.79" y="313.46">of </tspan><tspan x="7546.67" y="313.46">the </tspan><tspan x="7590.9" y="313.46">Arena </tspan><tspan x="7665.81" y="313.46">is </tspan><tspan x="7692.49" y="313.46">Mebric </tspan><tspan x="7778.68" y="313.46">Johnson, </tspan><tspan x="7886.82" y="313.46">who </tspan><tspan x="7943.48" y="313.46">not </tspan><tspan x="7988.88" y="313.46">only </tspan><tspan x="8046.46" y="313.46">manages </tspan><tspan x="8151.82" y="313.46">the </tspan><tspan x="8196.05" y="313.46">entire </tspan><tspan x="8269.74" y="313.46">venue </tspan><tspan x="8345.03" y="313.46">but </tspan><tspan x="8390.77" y="313.46">is </tspan><tspan x="8417.44" y="313.46">also </tspan><tspan x="8470.26" y="313.46">a </tspan><tspan x="8492.1" y="313.46">strategist </tspan><tspan x="8602.13" y="313.46">who </tspan><tspan x="8658.78" y="313.46">plans </tspan><tspan x="8726.18" y="313.46">and </tspan><tspan x="8776.31" y="313.46">implements </tspan><tspan x="7269" y="343.46">new </tspan><tspan x="7322.34" y="343.46">forms </tspan><tspan x="7392.44" y="343.46">of </tspan><tspan x="7421.51" y="343.46">competition. </tspan><tspan x="7568.56" y="343.46">As </tspan><tspan x="7602.69" y="343.46">a </tspan><tspan x="7622.74" y="343.46">gambling </tspan><tspan x="7733.4" y="343.46">house </tspan><tspan x="7805.13" y="343.46">owner, </tspan><tspan x="7888.87" y="343.46">he </tspan><tspan x="7922.81" y="343.46">has </tspan><tspan x="7967.17" y="343.46">a </tspan><tspan x="7987.21" y="343.46">strong </tspan><tspan x="8063.7" y="343.46">appetite </tspan><tspan x="8160.82" y="343.46">for </tspan><tspan x="8199.69" y="343.46">money </tspan><tspan x="8281.57" y="343.46">and </tspan><tspan x="8329.91" y="343.46">women, </tspan><tspan x="8425.13" y="343.46">and </tspan><tspan x="8473.47" y="343.46">he&apos;s </tspan><tspan x="8521.64" y="343.46">not </tspan><tspan x="8565.24" y="343.46">afraid </tspan><tspan x="8637.65" y="343.46">to </tspan><tspan x="8667.07" y="343.46">rig </tspan><tspan x="8704.91" y="343.46">the </tspan><tspan x="8747.34" y="343.46">games.</tspan></text><text fill="black" xml:space="preserve" style="white-space: pre" font-family="Charis SIL" font-size="25" letter-spacing="0em"><tspan x="9039" y="692.46">Most commodity trading in Fidelia takes place in large and small markets, with the government-run </tspan><tspan x="9039" y="722.46">main market being the largest. A wide variety of goods are traded here, either through barter or </tspan><tspan x="9039" y="752.46">currency, mainly for goods looted from the outskirts by soldiers and Hunters. Jake has a limited </tspan><tspan x="9039" y="782.46">amount of control over what is traded here. As such, how prices are set in the marketplace is largely </tspan><tspan x="9039" y="812.46">determined by supply and demand, which, while not heavily regulated, is still punishable by death </tspan><tspan x="9039" y="842.46">for those who go too far and cause severe problems for the citizens&apos; interests. Everything from </tspan><tspan x="9039" y="872.46">trinkets to people is traded within the marketplace, and it&apos;s not just slaves that are sold, but </tspan><tspan x="9039" y="902.46">prostitution as well. There is also a tavern within the marketplace, though it is not large, as alcohol </tspan><tspan x="9039" y="932.46">is considered quite a luxury within the Fidelian Empire. The prominent patrons of the taverns are </tspan><tspan x="9039" y="962.46">either Fidelian military officers or Kossack mercenaries, and it&apos;s believed that to drink here, one </tspan><tspan x="9039" y="992.46">must have not only the funds but also the courage to not be intimidated by either group.</tspan></text><path d="M5457.62 119.583C5456.3 104.228 5450.67 92.0465 5440.71 83.0399C5430.89 74.0332 5417.64 69.5299 5400.94 69.5299C5386.44 69.5299 5373.99 73.1473 5363.59 80.3822C5353.34 87.617 5345.5 98.1002 5340.08 111.832C5334.66 125.416 5331.96 141.731 5331.96 160.778C5331.96 190.603 5337.89 213.267 5349.75 228.771C5361.76 244.274 5378.68 252.026 5400.5 252.026C5416.32 252.026 5429.21 247.965 5439.17 239.845C5449.27 231.576 5455.43 220.281 5457.62 205.959L5542.43 206.845C5540.82 226.187 5534.22 245.012 5522.65 263.321C5511.23 281.482 5494.9 296.395 5473.66 308.059C5452.57 319.723 5427.6 325.556 5398.74 325.556C5369.3 325.556 5343.01 319.133 5319.87 306.287C5296.73 293.442 5278.57 274.616 5265.39 249.811C5252.35 225.006 5245.83 195.328 5245.83 160.778C5245.83 126.228 5252.5 96.5499 5265.83 71.7446C5279.15 46.9394 5297.39 28.1139 5320.53 15.2684C5343.67 2.42279 5369.74 -4 5398.74 -4C5425.25 -4 5448.91 0.872461 5469.71 10.6174C5490.5 20.2147 5507.2 34.3153 5519.8 52.9192C5532.54 71.5231 5540.08 93.7445 5542.43 119.583H5457.62Z" fill="black"/><path d="M5666.34 321.126H5582.85V0.42951H5666.34V321.126Z" fill="black"/><path d="M5700.17 0.42951H5974.35V68.644H5878.57V321.126H5795.96V68.644H5700.17V0.42951Z" fill="black"/><path d="M6091.67 321.126H6008.19V0.42951H6091.67V321.126Z" fill="black"/><path d="M6135.17 274.173L6286.77 68.644H6135.61V0.42951H6393.1V47.3823L6241.51 252.912H6392.66V321.126H6135.17V274.173Z" fill="black"/><path d="M6436.6 0.42951H6663.77V68.644H6520.09V126.671H6651.91V194.885H6520.09V252.912H6663.33V321.126H6436.6V0.42951Z" fill="black"/><path d="M6981.45 321.126H6911.59L6793.39 147.932H6791.19V321.126H6707.71V0.42951H6778.89L6895.33 172.737H6897.97V0.42951H6981.45V321.126Z" fill="black"/><path d="M5352.17 380.43L5427.74 566.913H5431.7L5507.27 380.43H5611.41V701.127H5529.68V512.43H5527.05L5454.55 698.912H5404.46L5332.39 511.101H5329.76V701.127H5248.03V380.43H5352.17Z" fill="black"/><path d="M5642.61 701.127L5748.5 380.43H5862.31L5967.76 701.127H5877.69L5858.57 638.228H5752.02L5733.13 701.127H5642.61ZM5839.24 574.443L5806.5 466.806H5803.87L5771.35 574.443H5839.24Z" fill="black"/><path d="M5999.4 380.43H6134.73C6158.32 380.43 6178.97 384.786 6196.69 393.497C6214.56 402.209 6228.33 414.759 6237.99 431.148C6247.66 447.39 6252.49 466.658 6252.49 488.953C6252.49 510.806 6247.73 529.557 6238.21 545.208C6228.84 560.859 6215.44 572.819 6198.01 581.087L6263.04 701.127H6172.08L6115.62 594.376H6082.89V701.127H5999.4V380.43ZM6115.4 528.376C6131.66 528.376 6143.96 525.201 6152.31 518.852C6160.81 512.504 6165.05 502.537 6165.05 488.953C6165.05 475.074 6160.81 464.739 6152.31 457.947C6143.82 451.155 6131.51 447.759 6115.4 447.759H6082.89V528.376H6115.4Z" fill="black"/><path d="M6290.28 380.43H6373.77V511.544H6378.16L6476.59 380.43H6574.57L6465.6 523.503L6576.77 701.127H6476.59L6403.21 579.315L6373.77 617.409V701.127H6290.28V380.43Z" fill="black"/><path d="M6600.94 380.43H6828.1V448.645H6684.42V506.671H6816.24V574.886H6684.42V632.912H6827.66V701.127H6600.94V380.43Z" fill="black"/><path d="M6862.82 380.43H7137V448.645H7041.21V701.127H6958.6V448.645H6862.82V380.43Z" fill="black"/><path d="M5350.41 1086C5328.29 1086 5308.96 1082.01 5292.41 1074.04C5275.86 1066.07 5263.12 1055.29 5254.18 1041.7C5245.39 1027.97 5241 1012.77 5241 996.081C5241 984.417 5243.2 973.933 5247.59 964.631C5251.98 955.33 5258.14 946.84 5266.05 939.162C5273.95 931.484 5284.06 923.437 5296.36 915.021C5278.79 890.659 5270 866.887 5270 843.706C5270 827.464 5273.88 812.625 5281.64 799.189C5289.41 785.753 5300.25 775.122 5314.16 767.297C5328.22 759.471 5344.26 755.559 5362.27 755.559C5379.56 755.559 5394.72 759.176 5407.75 766.411C5420.79 773.498 5430.82 783.169 5437.85 795.424C5444.88 807.679 5448.4 821.263 5448.4 836.176C5448.4 850.941 5444.73 864.82 5437.41 877.813C5430.09 890.659 5419.69 901.88 5406.21 911.477L5390.4 922.994L5432.58 970.168C5441.95 953.336 5446.64 935.101 5446.64 915.464H5512.99C5512.99 937.169 5510.42 957.397 5505.3 976.148C5500.17 994.752 5492.34 1011.07 5481.79 1025.09L5531.88 1081.13H5448.4L5431.48 1062.97C5408.48 1078.32 5381.46 1086 5350.41 1086ZM5320.53 989.88C5320.53 999.329 5323.75 1006.79 5330.2 1012.25C5336.79 1017.71 5345.58 1020.44 5356.56 1020.44C5366.37 1020.44 5376.11 1018.23 5385.78 1013.8L5336.79 961.531C5331.66 965.665 5327.63 969.947 5324.71 974.376C5321.92 978.806 5320.53 983.974 5320.53 989.88ZM5337.67 844.592C5337.67 849.907 5338.99 855.37 5341.62 860.981C5344.26 866.444 5348.21 872.571 5353.49 879.363L5367.11 870.726C5373.84 866.444 5378.75 861.793 5381.83 856.773C5384.9 851.753 5386.44 846.806 5386.44 841.934C5386.44 836.176 5384.32 831.377 5380.07 827.538C5375.97 823.552 5370.04 821.558 5362.27 821.558C5354.8 821.854 5348.8 824.068 5344.26 828.203C5339.86 832.337 5337.67 837.8 5337.67 844.592Z" fill="black"/><path d="M5579.35 1081.13L5685.24 760.431H5799.04L5904.5 1081.13H5814.42L5795.31 1018.23H5688.76L5669.86 1081.13H5579.35ZM5775.98 954.444L5743.24 846.807H5740.6L5708.09 954.444H5775.98Z" fill="black"/><path d="M5936.14 760.431H6071.47C6095.05 760.431 6115.7 764.787 6133.43 773.498C6151.29 782.209 6165.06 794.76 6174.73 811.149C6184.4 827.39 6189.23 846.659 6189.23 868.954C6189.23 890.806 6184.47 909.558 6174.95 925.209C6165.58 940.86 6152.17 952.819 6134.74 961.088L6199.77 1081.13H6108.82L6052.36 974.376H6019.62V1081.13H5936.14V760.431ZM6052.14 908.377C6068.4 908.377 6080.7 905.202 6089.05 898.853C6097.54 892.504 6101.79 882.538 6101.79 868.954C6101.79 855.075 6097.54 844.739 6089.05 837.947C6080.55 831.156 6068.25 827.76 6052.14 827.76H6019.62V908.377H6052.14Z" fill="black"/><path d="M6227.02 760.431H6454.19V828.646H6310.5V886.672H6442.32V954.887H6310.5V1012.91H6453.75V1081.13H6227.02V760.431Z" fill="black"/><path d="M6771.87 1081.13H6702.01L6583.81 907.934H6581.61V1081.13H6498.13V760.431H6569.31L6685.75 932.739H6688.38V760.431H6771.87V1081.13Z" fill="black"/><path d="M6803.07 1081.13L6908.96 760.431H7022.77L7128.22 1081.13H7038.15L7019.03 1018.23H6912.48L6893.58 1081.13H6803.07ZM6999.7 954.444L6966.96 846.807H6964.33L6931.81 954.444H6999.7Z" fill="black"/><image x="7230" y="385" width="1636" height="695" fill="url(#img1719382519401_pattern2_3798_2458)" xlink:href="/story/fidelion-4-2/3.png"/><image x="9039" width="1166" height="626" fill="url(#img1719382519401_pattern3_3798_2458)" xlink:href="/story/fidelion-4-2/4.png"/></g><defs><pattern id="img1719382519401_pattern0_3798_2458" patternContentUnits="objectBoundingBox" width="1" height="1"><use xlink:href="#image0_3798_2458" transform="matrix(0.000838926 0 0 0.0014556 -0.0763423 0)"/></pattern><pattern id="img1719382519401_pattern1_3798_2458" patternContentUnits="objectBoundingBox" width="1" height="1"><use xlink:href="#image1_3798_2458" transform="scale(0.000766284 0.00152905)"/></pattern><pattern id="img1719382519401_pattern2_3798_2458" patternContentUnits="objectBoundingBox" width="1" height="1"><use xlink:href="#image2_3798_2458" transform="matrix(0.000305623 0 0 0.000719424 0 -0.0266187)"/></pattern><pattern id="img1719382519401_pattern3_3798_2458" patternContentUnits="objectBoundingBox" width="1" height="1"><use xlink:href="#image3_3798_2458" transform="scale(0.000428816 0.000798722)"/></pattern><clipPath id="clip0_3798_2458"><rect width="2690" height="1080" fill="white" transform="translate(2551)"/></clipPath><clipPath id="clip1_3798_2458"><rect width="4964" height="1080" fill="white" transform="translate(5241)"/></clipPath><image id="image0_3798_2458" width="1374" height="687" xlink:href="/story/fidelion-4-2/1.png"/><image id="image1_3798_2458" width="1305" height="654" xlink:href="/story/fidelion-4-2/2.png"/><image id="image2_3798_2458" width="3272" height="1464" xlink:href="/story/fidelion-4-2/3.png"/><image id="image3_3798_2458" width="2332" height="1252" xlink:href="/story/fidelion-4-2/4.png"/></defs></svg>