<svg width="11237" height="1080" viewBox="0 0 11237 1080" fill="none" xmlns="http://www.w3.org/2000/svg" xmlns:xlink="http://www.w3.org/1999/xlink"><g clip-path="url(#clip0_3798_2547)"><rect width="11237" height="1080" fill="black"/><rect width="1733" height="1080" fill="white"/><image x="931" width="802" height="1080" fill="url(#img1719309372141_pattern0_3798_2547)" xlink:href="/story/fidelion-1-2/1.png"/><text fill="black" xml:space="preserve" style="white-space: pre" font-family="Charis SIL" font-size="25" letter-spacing="0em"><tspan x="87" y="728.46">Jake Marcus is the only child of a wealthy family. His father is a </tspan><tspan x="87" y="758.46">businessman who owns and runs a multinational corporation with </tspan><tspan x="87" y="788.46">manufacturing plants worldwide, and his mother is a sensitive </tspan><tspan x="87" y="818.46">woman with a love for art.
</tspan><tspan x="87" y="852.46">
</tspan><tspan x="87" y="886.46">Jake&apos;s family had long been wealthy in the military business. </tspan><tspan x="87" y="916.46">Although Jake&apos;s father&apos;s generation had retired from the military, </tspan><tspan x="87" y="946.46">the human and material resources accumulated over the years had </tspan><tspan x="87" y="976.46">served his father&apos;s business and his family well, allowing Jake to </tspan><tspan x="87" y="1006.46">grow up in a more affluent and generous environment than most.</tspan></text><rect width="9504" height="1080" transform="translate(1733)" fill="white"/><image x="2227" width="9010" height="1080" fill="url(#img1719309372141_pattern1_3798_2547)" xlink:href="/story/fidelion-1-2/2.png"/><path d="M10981.1 411.918H11068.6L11081.2 399.314V134.285L11066.5 119.592H10982L10967.8 133.779L10968.1 398.984L10981 411.896L10981.1 411.918ZM10984.8 126.191H11063.8L11074.6 137.013V396.587L11065.9 405.319H10983.8L10974.7 396.279L10974.4 136.529L10984.8 126.213V126.191ZM11229.9 720.609V609.243L11162.3 543.013H10892.6L10825.6 609.837V777.886L10859.4 817.655L11072.8 902.647L11077.9 909.048V958.253L11069.7 966.765H10987L10979.7 958.956V902.427H10842L10780.8 543.013H10511.1L10439.1 963.444L10390.3 813.893L10480.9 543.013H10316.3L10259.6 745.97H10247.6L10190.9 543.013H9352.94V678.97H9470.57V1080.02H9623.23V678.398H9707.91V1080.02H10193.3L10248.3 879.793H10261L10317.7 1080.02H10577.8L10592.1 973.936H10699.9L10714.3 1080.02H10871.6L10868.9 1058.99L10888.8 1080.02H11165.1L11229.9 1017.11V845.567L11193.7 805.271L10985.9 720.191L10978.3 713.548V667.972L10987.1 659.592H11068.7L11076.6 668.918V720.63H11229.9V720.609ZM11071.8 652.949H10984.5L10971.7 665.091V716.495L10982.3 725.822L11189.8 810.748L11223.3 848.053V1014.28L11159 1076.68H10894.8L10859.7 1039.73L10864.5 1076.68H10720.5L10705.7 967.293H10586.4L10571.6 1076.68H10323.6L10266 873.15H10243.3L10187.4 1076.68H9714.51V671.756H9616.63V1076.68H9477.17V672.327H9359.54V549.568H10185.9L10242.6 752.525H10264.6L10321.3 549.568H10471.7L10383.3 813.827L10441.1 990.807L10516.6 549.568H10775.2L10836.4 908.982H10973V961.508L10984 973.32H11072.4L11084.4 960.87V906.694L11076.8 897.126L10863.4 812.09L10832.1 775.422V612.543L10895.2 549.59H11159.6L11223.2 611.993V714.01H11083.2V666.455L11071.7 652.949H11071.8ZM9423.22 537.69H9664.4L9731.2 469.503V270.792L9775.33 537.69H10042.8L10096.9 206.63V537.69H10467.1V408.09H10247.6V327.519H10437.4V205.42H10249.8V123.947H10467.1V0H10456.4L10099.6 176.033L9981.56 0H9974.26L9918.74 388.844H9902.38L9844.68 0H9837.66L9731.23 216.418V112.685L9581.92 0H9579.45L9603.96 405.891H9579.78L9586.36 399.314V134.285L9571.69 119.592H9487.18L9479.59 127.18V0H9136.7L9085.58 248.906H9082.13L9028.87 0H8820V537.69H8963.19V215.318H8965.75L9015.48 440.204H9150L9199.76 215.318H9204.51V534.391L9211.11 534.611L9230.6 231.397L9333.27 239.954L9333.14 472.143L9339.65 478.807L9341.13 534.501L9347.73 534.413V487.056L9397.2 537.712H9423.19L9423.22 537.69ZM10103.5 181.488L10460.6 5.30102V117.326H10243.3V211.997H10430.8V320.899H10241V414.667H10460.6V531.07H10103.5V181.488ZM9839.62 10.954L9896.68 395.443H9924.46L9979.65 8.97434L10094.5 180.191L10037.2 531.092H9780.91L9731.31 231.111L9839.62 10.954ZM9630.33 531.092H9618.12L9610.95 412.49H9630.33V531.092ZM9586.78 11.9438L9724.63 115.985V229.835L9724.49 230.099L9724.63 230.869V466.798L9661.65 531.092H9636.95V405.891H9610.58L9586.8 11.9438H9586.78ZM9489.91 126.191H9568.94L9579.76 137.013V396.587L9571.03 405.319H9488.94L9479.9 396.279L9479.59 136.529L9489.93 126.191H9489.91ZM9479.57 405.297L9480.16 405.891H9479.57V405.297ZM9479.57 412.49H9604.35L9611.52 531.092H9479.59V412.49H9479.57ZM9078.74 359.765L9060.83 255.505H9076.25L9078.74 359.765ZM9020.8 433.606L8971.07 208.719H8956.62V531.092H8826.6V3.29939H9022.82L9075.42 248.906H9053L9079.82 405.055L9080.5 433.606H9020.8ZM9083.89 299.079L9082.85 255.505H9084.94L9083.89 299.079ZM9091.5 255.505H9111.18L9088.83 367.508L9091.5 255.505ZM9333.32 233.311L9224.48 224.248L9211.15 431.604V208.719H9194.5L9144.75 433.606H9087.25L9087.91 405.803L9119.21 248.906H9092.29L9142.75 3.29939H9274.92L9333.41 60.9287L9333.3 233.311H9333.32ZM9341.15 283.923L9339.92 236.874L9340.03 58.1572L9284.31 3.29939H9341.13V283.923H9341.15ZM9472.97 531.092H9429.82V412.49H9472.97V531.092ZM9347.75 3.29939H9472.97V133.779V134.703V405.891H9423.22V531.092H9399.99L9347.75 477.598V3.29939ZM10627.1 662.055L10602.8 845.875H10688.9L10663.1 662.055H10627.1ZM10610.3 839.277L10632.9 668.654H10657.4L10681.3 839.277H10610.3ZM10590.5 537.69H10743.5V131.954H10823.5V469.151L10891.2 537.668H11158.8L11226.4 469.151V64.1401L11162.1 0H10473V132.547H10590.5V537.712V537.69ZM10479.6 125.949V3.29939H11156.1L11219.8 66.8676V466.446L11156 531.07H10893.9L10830.1 466.446V125.355H10736.9V531.092H10597.1V125.949H10479.6H10479.6ZM9853.32 665.729V758.156H10046V867.673H9853.32V961.794H10076.9L10127.7 813.761L10076.9 665.729H9853.32ZM10072.2 955.195H9859.92V874.272H10052.6V751.557H9859.92V672.327H10072.2L10120.7 813.761L10072.2 955.195Z" fill="black"/><text fill="white" xml:space="preserve" style="white-space: pre" font-family="Charis SIL" font-size="25" letter-spacing="0em"><tspan x="3162" y="785.46">But </tspan><tspan x="3207.21" y="785.46">as </tspan><tspan x="3237.24" y="785.46">expected, </tspan><tspan x="3349.35" y="785.46">the </tspan><tspan x="3391.81" y="785.46">war </tspan><tspan x="3441.24" y="785.46">dragged </tspan><tspan x="3537.85" y="785.46">on </tspan><tspan x="3572.98" y="785.46">for </tspan><tspan x="3611.87" y="785.46">years, </tspan><tspan x="3684.21" y="785.46">and </tspan><tspan x="3732.57" y="785.46">life </tspan><tspan x="3775.34" y="785.46">in </tspan><tspan x="3804.47" y="785.46">the </tspan><tspan x="3846.92" y="785.46">bunker </tspan><tspan x="3931.98" y="785.46">became </tspan><tspan x="4023.36" y="785.46">increasingly </tspan><tspan x="4164.45" y="785.46">difficult. </tspan><tspan x="4266.21" y="785.46">Then, </tspan><tspan x="3162" y="815.46">something </tspan><tspan x="3285.83" y="815.46">happened: </tspan><tspan x="3409.69" y="815.46">his </tspan><tspan x="3450.59" y="815.46">father </tspan><tspan x="3525.35" y="815.46">left </tspan><tspan x="3570.67" y="815.46">the </tspan><tspan x="3614.76" y="815.46">bunker </tspan><tspan x="3701.46" y="815.46">to </tspan><tspan x="3732.55" y="815.46">check </tspan><tspan x="3804.79" y="815.46">on </tspan><tspan x="3841.57" y="815.46">the </tspan><tspan x="3885.66" y="815.46">situation </tspan><tspan x="3991.53" y="815.46">on </tspan><tspan x="4028.3" y="815.46">the </tspan><tspan x="4072.4" y="815.46">ground </tspan><tspan x="4160.44" y="815.46">and </tspan><tspan x="4210.45" y="815.46">discovered </tspan><tspan x="3162" y="845.46">the </tspan><tspan x="3204.76" y="845.46">bunker&apos;s </tspan><tspan x="3304.36" y="845.46">location. </tspan><tspan x="3408.27" y="845.46">Unbeknownst </tspan><tspan x="3567.41" y="845.46">to </tspan><tspan x="3597.16" y="845.46">them, </tspan><tspan x="3668.19" y="845.46">the </tspan><tspan x="3710.95" y="845.46">war </tspan><tspan x="3760.69" y="845.46">was </tspan><tspan x="3810.61" y="845.46">coming </tspan><tspan x="3899.68" y="845.46">to </tspan><tspan x="3929.43" y="845.46">a </tspan><tspan x="3949.8" y="845.46">close, </tspan><tspan x="4019.34" y="845.46">and </tspan><tspan x="4068.01" y="845.46">the </tspan><tspan x="4110.77" y="845.46">ground </tspan><tspan x="4197.47" y="845.46">was </tspan><tspan x="4247.38" y="845.46">turning </tspan><tspan x="3162" y="875.46">into </tspan><tspan x="3213.48" y="875.46">hell </tspan><tspan x="3262.55" y="875.46">on </tspan><tspan x="3297.94" y="875.46">earth. </tspan><tspan x="3370.17" y="875.46">The </tspan><tspan x="3419.38" y="875.46">survivors </tspan><tspan x="3528.38" y="875.46">had </tspan><tspan x="3577.18" y="875.46">turned </tspan><tspan x="3657.86" y="875.46">into </tspan><tspan x="3709.34" y="875.46">mobs, </tspan><tspan x="3782.67" y="875.46">roaming </tspan><tspan x="3882.56" y="875.46">in </tspan><tspan x="3911.95" y="875.46">packs, </tspan><tspan x="3988.24" y="875.46">and </tspan><tspan x="4036.86" y="875.46">Jake&apos;s </tspan><tspan x="4109.17" y="875.46">family&apos;s </tspan><tspan x="4201.42" y="875.46">bunker </tspan><tspan x="4286.74" y="875.46">was </tspan><tspan x="3162" y="905.46">nothing </tspan><tspan x="3256.89" y="905.46">more </tspan><tspan x="3323.14" y="905.46">than </tspan><tspan x="3382.23" y="905.46">easy </tspan><tspan x="3439.76" y="905.46">prey. </tspan><tspan x="3505.4" y="905.46">Eventually, </tspan><tspan x="3639.55" y="905.46">the </tspan><tspan x="3683.99" y="905.46">mob </tspan><tspan x="3742.09" y="905.46">attacked, </tspan><tspan x="3852.23" y="905.46">and </tspan><tspan x="3902.59" y="905.46">his </tspan><tspan x="3943.84" y="905.46">father </tspan><tspan x="4018.95" y="905.46">and </tspan><tspan x="4069.3" y="905.46">mother </tspan><tspan x="4158.41" y="905.46">died </tspan><tspan x="4215.82" y="905.46">protecting </tspan><tspan x="3162" y="935.46">him. </tspan><tspan x="3223.24" y="935.46">Jake, </tspan><tspan x="3291.73" y="935.46">still </tspan><tspan x="3343.64" y="935.46">a </tspan><tspan x="3367.38" y="935.46">child, </tspan><tspan x="3440.53" y="935.46">had </tspan><tspan x="3492.73" y="935.46">his </tspan><tspan x="3535.66" y="935.46">own </tspan><tspan x="3594.04" y="935.46">near-death </tspan><tspan x="3723.96" y="935.46">experience, </tspan><tspan x="3860.95" y="935.46">but </tspan><tspan x="3908.59" y="935.46">with </tspan><tspan x="3969.64" y="935.46">the </tspan><tspan x="4015.76" y="935.46">help </tspan><tspan x="4074.8" y="935.46">of </tspan><tspan x="4107.57" y="935.46">Melphine, </tspan><tspan x="4229.55" y="935.46">the </tspan><tspan x="4275.68" y="935.46">most </tspan><tspan x="3162" y="965.46">skilled </tspan><tspan x="3244.62" y="965.46">of </tspan><tspan x="3276.88" y="965.46">the </tspan><tspan x="3322.49" y="965.46">users </tspan><tspan x="3389.19" y="965.46">who </tspan><tspan x="3447.23" y="965.46">had </tspan><tspan x="3498.92" y="965.46">taken </tspan><tspan x="3570.43" y="965.46">refuge </tspan><tspan x="3650.76" y="965.46">with </tspan><tspan x="3711.29" y="965.46">his </tspan><tspan x="3753.7" y="965.46">family, </tspan><tspan x="3841.62" y="965.46">he </tspan><tspan x="3878.73" y="965.46">managed </tspan><tspan x="3989.63" y="965.46">to </tspan><tspan x="4022.22" y="965.46">escape. </tspan><tspan x="4112.56" y="965.46">Jake </tspan><tspan x="4173.53" y="965.46">and </tspan><tspan x="4225.04" y="965.46">Melphine </tspan><tspan x="3162" y="995.46">managed </tspan><tspan x="3269.71" y="995.46">to </tspan><tspan x="3299.13" y="995.46">escape </tspan><tspan x="3379.29" y="995.46">the </tspan><tspan x="3421.72" y="995.46">bunker </tspan><tspan x="3506.75" y="995.46">and </tspan><tspan x="3555.09" y="995.46">find </tspan><tspan x="3606.43" y="995.46">another </tspan><tspan x="3699.16" y="995.46">group </tspan><tspan x="3771.23" y="995.46">shelter </tspan><tspan x="3853.09" y="995.46">where </tspan><tspan x="3928.65" y="995.46">they </tspan><tspan x="3984.34" y="995.46">could </tspan><tspan x="4052.67" y="995.46">hide.</tspan></text><text fill="white" xml:space="preserve" style="white-space: pre" font-family="Charis SIL" font-size="25" letter-spacing="0em"><tspan x="4425" y="599.46">Compared </tspan><tspan x="4546.53" y="599.46">to </tspan><tspan x="4576.76" y="599.46">his </tspan><tspan x="4616.8" y="599.46">family&apos;s </tspan><tspan x="4709.57" y="599.46">time </tspan><tspan x="4767.31" y="599.46">in </tspan><tspan x="4797.22" y="599.46">the </tspan><tspan x="4840.46" y="599.46">bunker, </tspan><tspan x="4933.31" y="599.46">life </tspan><tspan x="4976.86" y="599.46">in </tspan><tspan x="5006.77" y="599.46">the </tspan><tspan x="5050.01" y="599.46">camp </tspan><tspan x="5117.76" y="599.46">was </tspan><tspan x="5168.15" y="599.46">much </tspan><tspan x="5237.78" y="599.46">more </tspan><tspan x="5302.82" y="599.46">challenging: </tspan><tspan x="5446.01" y="599.46">water </tspan><tspan x="5516.98" y="599.46">and </tspan><tspan x="4425" y="629.46">food </tspan><tspan x="4483.2" y="629.46">were </tspan><tspan x="4545.82" y="629.46">always </tspan><tspan x="4630.22" y="629.46">scarce, </tspan><tspan x="4713.99" y="629.46">and </tspan><tspan x="4763.74" y="629.46">young </tspan><tspan x="4840.89" y="629.46">Jake </tspan><tspan x="4900.09" y="629.46">was </tspan><tspan x="4951.1" y="629.46">at </tspan><tspan x="4981.05" y="629.46">the </tspan><tspan x="5024.9" y="629.46">bottom </tspan><tspan x="5112.98" y="629.46">of </tspan><tspan x="5143.48" y="629.46">the </tspan><tspan x="5187.32" y="629.46">hierarchy, </tspan><tspan x="5308.83" y="629.46">treated </tspan><tspan x="5395.7" y="629.46">like </tspan><tspan x="5445.06" y="629.46">a </tspan><tspan x="5466.52" y="629.46">slave </tspan><tspan x="5530.85" y="629.46">by </tspan><tspan x="4425" y="659.46">the </tspan><tspan x="4468.97" y="659.46">other </tspan><tspan x="4536.32" y="659.46">evacuees, </tspan><tspan x="4650.75" y="659.46">who </tspan><tspan x="4707.14" y="659.46">were </tspan><tspan x="4769.89" y="659.46">more </tspan><tspan x="4835.66" y="659.46">like </tspan><tspan x="4885.14" y="659.46">tramps. </tspan><tspan x="4977.23" y="659.46">With </tspan><tspan x="5039.82" y="659.46">Melphine&apos;s </tspan><tspan x="5166.87" y="659.46">dedicated </tspan><tspan x="5283.03" y="659.46">help, </tspan><tspan x="5346.92" y="659.46">he </tspan><tspan x="5382.39" y="659.46">was </tspan><tspan x="5433.51" y="659.46">barely </tspan><tspan x="5511.71" y="659.46">able </tspan><tspan x="4425" y="689.46">to </tspan><tspan x="4456.15" y="689.46">stay </tspan><tspan x="4509.65" y="689.46">alive, </tspan><tspan x="4578.93" y="689.46">but </tspan><tspan x="4624.61" y="689.46">everything </tspan><tspan x="4752.23" y="689.46">else </tspan><tspan x="4803.18" y="689.46">was </tspan><tspan x="4854.5" y="689.46">a </tspan><tspan x="4876.28" y="689.46">trial </tspan><tspan x="4931.36" y="689.46">for </tspan><tspan x="4971.96" y="689.46">young </tspan><tspan x="5049.42" y="689.46">Jake. </tspan><tspan x="5115.95" y="689.46">Ironically, </tspan><tspan x="5237.9" y="689.46">however, </tspan><tspan x="5349.04" y="689.46">it </tspan><tspan x="5374.18" y="689.46">was </tspan><tspan x="5425.5" y="689.46">in </tspan><tspan x="5456.34" y="689.46">that </tspan><tspan x="5509.46" y="689.46">very </tspan><tspan x="4425" y="719.46">refuge </tspan><tspan x="4504.38" y="719.46">that </tspan><tspan x="4558.01" y="719.46">Jake </tspan><tspan x="4618.03" y="719.46">realized </tspan><tspan x="4715.29" y="719.46">his </tspan><tspan x="4756.76" y="719.46">true </tspan><tspan x="4811.09" y="719.46">talent. </tspan><tspan x="4891.24" y="719.46">With </tspan><tspan x="4954.53" y="719.46">Melphine&apos;s </tspan><tspan x="5082.28" y="719.46">help, </tspan><tspan x="5146.87" y="719.46">Jake </tspan><tspan x="5206.89" y="719.46">learned </tspan><tspan x="5299.19" y="719.46">the </tspan><tspan x="5343.86" y="719.46">ins </tspan><tspan x="5385.16" y="719.46">and </tspan><tspan x="5435.73" y="719.46">outs </tspan><tspan x="5491.58" y="719.46">of </tspan><tspan x="5522.89" y="719.46">the </tspan><tspan x="4425" y="749.46">asylum&apos;s </tspan><tspan x="4526.12" y="749.46">relationships </tspan><tspan x="4676.07" y="749.46">and </tspan><tspan x="4725.11" y="749.46">the </tspan><tspan x="4768.25" y="749.46">conflicts </tspan><tspan x="4868.98" y="749.46">between </tspan><tspan x="4969.93" y="749.46">those </tspan><tspan x="5036.63" y="749.46">with </tspan><tspan x="5094.68" y="749.46">knowledge </tspan><tspan x="5222.61" y="749.46">and </tspan><tspan x="5271.65" y="749.46">power </tspan><tspan x="5348.9" y="749.46">and </tspan><tspan x="5397.94" y="749.46">those </tspan><tspan x="5464.64" y="749.46">without. </tspan><tspan x="4425" y="779.46">He </tspan><tspan x="4463.16" y="779.46">began </tspan><tspan x="4536.67" y="779.46">to </tspan><tspan x="4566.09" y="779.46">cunningly </tspan><tspan x="4683.25" y="779.46">work </tspan><tspan x="4746.9" y="779.46">his </tspan><tspan x="4786.13" y="779.46">way </tspan><tspan x="4839.01" y="779.46">through </tspan><tspan x="4934.3" y="779.46">the </tspan><tspan x="4976.73" y="779.46">cracks </tspan><tspan x="5053.17" y="779.46">to </tspan><tspan x="5082.59" y="779.46">build </tspan><tspan x="5147.17" y="779.46">his </tspan><tspan x="5186.4" y="779.46">side.</tspan></text><text fill="black" xml:space="preserve" style="white-space: pre" font-family="Charis SIL" font-size="25" letter-spacing="0em"><tspan x="5747.22" y="259.46">Even at such a young age, the brilliant speech and intelligence he had inherited from his parents </tspan><tspan x="5794.42" y="289.46">and the knowledge he had cultivated became an extraordinary charisma that drew everyone </tspan><tspan x="5854.11" y="319.46">around him to his side. It became his strength, building a force. It took less than a year
</tspan><tspan x="5890.83" y="353.46">for the entirety of the refuge to follow his lead, and Jake led the organized refugees
</tspan><tspan x="6013.65" y="387.46">in a raid on his family&apos;s former mob-occupied bunker, slaughtering them
</tspan><tspan x="6422.15" y="421.46">all to avenge his father and mother.
</tspan><tspan x="6819" y="455.46">
</tspan><tspan x="5903.33" y="489.46">Even after the war was over, it took some time for the ashes of death to clear from
</tspan><tspan x="6108.79" y="523.46">the skies so that people couldn&apos;t return to the land immediately.
</tspan><tspan x="6055.65" y="557.46">It wasn&apos;t until several years after the war, when the shelter&apos;s supplies
</tspan><tspan x="5999.76" y="591.46">were nearly depleted, that Jake emerged, followed by his faithful servant,
</tspan><tspan x="6058.62" y="625.46">Melphine, and his fellow evacuees, now fully converted to his cause.
</tspan><tspan x="5987.99" y="659.46">Jake, who had come of age during his time in the bunker, led his followers
</tspan><tspan x="6324.05" y="693.46">on a long trek to find a home on the surface.
</tspan><tspan x="6205.28" y="727.46">It was a tough decision for those who had just emerged
</tspan><tspan x="6182.79" y="761.46">from the shelter, but everyone decided to follow his lead.</tspan></text><text fill="black" xml:space="preserve" style="white-space: pre" font-family="Pretendard-Black" font-size="160" letter-spacing="-0.05em"><tspan x="6894" y="180.375">JAKE AND
</tspan><tspan x="6894" y="323.375">HIS FELLOWS</tspan></text><text fill="black" xml:space="preserve" style="white-space: pre" font-family="Charis SIL" font-size="25" letter-spacing="0em"><tspan x="1874" y="106.46">When Jake was seven years old, war broke out. The global war was an inevitable </tspan><tspan x="1874" y="136.46">disaster for him and his family, but his family&apos;s wealth provided them a way to survive. </tspan><tspan x="1874" y="166.46">Jake&apos;s father took the family to a pre-designed and built underground bunker. Unlike a </tspan><tspan x="1874" y="196.46">typical shelter, this was a sturdy, secure bunker explicitly built for a limited number of </tspan><tspan x="1874" y="226.46">people. Jake and his family took refuge in the bunker with only a few trusted users, </tspan><tspan x="1874" y="256.46">thinking the war would end quickly.</tspan></text><image x="1874" y="309" width="544" height="623" fill="url(#img1719309372141_pattern2_3798_2547)" xlink:href="/story/fidelion-1-2/3.png"/></g><defs><pattern id="img1719309372141_pattern0_3798_2547" patternContentUnits="objectBoundingBox" width="1" height="1"><use xlink:href="#image0_3798_2547" transform="scale(0.000415628 0.000308642)"/></pattern><pattern id="img1719309372141_pattern1_3798_2547" patternContentUnits="objectBoundingBox" width="1" height="1"><use xlink:href="#image1_3798_2547" transform="scale(0.000244141 0.00203677)"/></pattern><pattern id="img1719309372141_pattern2_3798_2547" patternContentUnits="objectBoundingBox" width="1" height="1"><use xlink:href="#image2_3798_2547" transform="scale(0.00128101 0.00111857)"/></pattern><clipPath id="clip0_3798_2547"><rect width="11237" height="1080" fill="white"/></clipPath><image id="image0_3798_2547" width="2406" height="3240" xlink:href="/story/fidelion-1-2/1.png"/><image id="image1_3798_2547" width="4096" height="491" xlink:href="/story/fidelion-1-2/2.png"/><image id="image2_3798_2547" width="781" height="894" xlink:href="/story/fidelion-1-2/3.png"/></defs></svg>