<svg width="9899" height="1080" viewBox="0 0 9899 1080" fill="none" xmlns="http://www.w3.org/2000/svg" xmlns:xlink="http://www.w3.org/1999/xlink"><g clip-path="url(#clip0_3813_298)"><rect width="9899" height="1080" fill="white"/><image x="2953" width="1069" height="1080" fill="url(#img1719382565636_pattern0_3813_298)" xlink:href="/story/fidelion-7-1/1.png"/><path d="M566.118 316C561.797 267.011 528.669 234.591 473.217 234.591C401.201 234.591 360.152 290.065 360.152 383C360.152 480.978 401.921 531.409 472.497 531.409C525.068 531.409 558.916 502.591 566.118 456.484L705.109 457.925C697.907 547.258 619.41 651 469.616 651C326.304 651 219 555.903 219 383C219 209.376 329.185 115 469.616 115C599.245 115 693.586 187.763 705.109 316H566.118Z" fill="#868686"/><path d="M771.364 643.796V122.204H1143.69V233.151H908.194V327.527H1124.24V438.473H908.194V532.849H1142.97V643.796H771.364Z" fill="#868686"/><path d="M1215.7 643.796V122.204H1352.53V532.849H1564.98V643.796H1215.7Z" fill="#868686"/><path d="M1760.86 122.204V643.796H1624.03V122.204H1760.86Z" fill="#868686"/><path d="M2280.1 122.204V643.796H2165.6L1971.87 362.108H1968.27V643.796H1831.44V122.204H1948.11L2138.95 402.452H2143.27V122.204H2280.1Z" fill="#868686"/><path d="M2350.68 643.796V122.204H2723V233.151H2487.51V327.527H2703.56V438.473H2487.51V532.849H2722.28V643.796H2350.68Z" fill="#868686"/><text fill="black" xml:space="preserve" style="white-space: pre" font-family="Charis SIL" font-size="25" letter-spacing="0em"><tspan x="789" y="715.887">Celine </tspan><tspan x="866.168" y="715.887">was </tspan><tspan x="918.775" y="715.887">born </tspan><tspan x="977.778" y="715.887">the </tspan><tspan x="1021.84" y="715.887">youngest </tspan><tspan x="1133.09" y="715.887">child </tspan><tspan x="1193.44" y="715.887">of </tspan><tspan x="1223.44" y="715.887">a </tspan><tspan x="1244.21" y="715.887">poor </tspan><tspan x="1303.19" y="715.887">family </tspan><tspan x="1376.96" y="715.887">in </tspan><tspan x="1403.71" y="715.887">a </tspan><tspan x="1424.48" y="715.887">small </tspan><tspan x="1489.4" y="715.887">village </tspan><tspan x="1568.03" y="715.887">not </tspan><tspan x="1612.02" y="715.887">far </tspan><tspan x="1649.56" y="715.887">from </tspan><tspan x="1708.71" y="715.887">the </tspan><tspan x="1752.77" y="715.887">Fidelian </tspan><tspan x="1846.3" y="715.887">Empire. </tspan><tspan x="1937.07" y="715.887">Her </tspan><tspan x="1984.67" y="715.887">mother, </tspan><tspan x="2077.39" y="715.887">who </tspan><tspan x="2132.46" y="715.887">was </tspan><tspan x="2185.07" y="715.887">already </tspan><tspan x="2274.78" y="715.887">frail, </tspan><tspan x="2329.98" y="715.887">hemorrhaged </tspan><tspan x="2488.27" y="715.887">to </tspan><tspan x="2518.2" y="715.887">death </tspan><tspan x="2590.41" y="715.887">while </tspan><tspan x="2656.01" y="715.887">giving </tspan><tspan x="789" y="747.887">birth </tspan><tspan x="848.59" y="747.887">to </tspan><tspan x="878.077" y="747.887">Celine, </tspan><tspan x="961.202" y="747.887">and </tspan><tspan x="1010.22" y="747.887">her </tspan><tspan x="1053.8" y="747.887">father, </tspan><tspan x="1132.45" y="747.887">obsessed </tspan><tspan x="1247.97" y="747.887">with </tspan><tspan x="1302.66" y="747.887">the </tspan><tspan x="1346.28" y="747.887">idea </tspan><tspan x="1400.65" y="747.887">that </tspan><tspan x="1452.33" y="747.887">he </tspan><tspan x="1487.16" y="747.887">had </tspan><tspan x="1536.32" y="747.887">lost </tspan><tspan x="1583.81" y="747.887">his </tspan><tspan x="1622.67" y="747.887">wife </tspan><tspan x="1676.18" y="747.887">because </tspan><tspan x="1778.37" y="747.887">of </tspan><tspan x="1807.93" y="747.887">Celine, </tspan><tspan x="1891.06" y="747.887">was </tspan><tspan x="1943.22" y="747.887">especially </tspan><tspan x="2060.87" y="747.887">harsh </tspan><tspan x="2130.47" y="747.887">with </tspan><tspan x="2185.15" y="747.887">her. </tspan><tspan x="2233.51" y="747.887">Her </tspan><tspan x="2280.68" y="747.887">older </tspan><tspan x="2344.59" y="747.887">sister, </tspan><tspan x="2417.58" y="747.887">Elaine, </tspan><tspan x="2497.12" y="747.887">took </tspan><tspan x="2553.7" y="747.887">pity </tspan><tspan x="2602.31" y="747.887">on </tspan><tspan x="2637.36" y="747.887">her </tspan><tspan x="2680.93" y="747.887">and </tspan><tspan x="789" y="779.887">helped </tspan><tspan x="872.563" y="779.887">and </tspan><tspan x="921.799" y="779.887">cared </tspan><tspan x="992.471" y="779.887">for </tspan><tspan x="1030.43" y="779.887">her </tspan><tspan x="1074.22" y="779.887">beyond </tspan><tspan x="1165.18" y="779.887">measure. </tspan><tspan x="1275.04" y="779.887">Celine </tspan><tspan x="1351.98" y="779.887">is </tspan><tspan x="1377" y="779.887">a </tspan><tspan x="1397.55" y="779.887">quiet </tspan><tspan x="1460.78" y="779.887">child, </tspan><tspan x="1527.3" y="779.887">weak </tspan><tspan x="1593.58" y="779.887">and </tspan><tspan x="1642.81" y="779.887">soft-spoken, </tspan><tspan x="1791.37" y="779.887">just </tspan><tspan x="1838.7" y="779.887">like </tspan><tspan x="1882.93" y="779.887">her </tspan><tspan x="1926.72" y="779.887">mother, </tspan><tspan x="2019.22" y="779.887">and </tspan><tspan x="2068.46" y="779.887">Elaine </tspan><tspan x="2141.82" y="779.887">is </tspan><tspan x="2166.83" y="779.887">her </tspan><tspan x="2210.63" y="779.887">only </tspan><tspan x="2264.57" y="779.887">support </tspan><tspan x="2359.17" y="779.887">in </tspan><tspan x="2385.7" y="779.887">life, </tspan><tspan x="2431.84" y="779.887">acting </tspan><tspan x="2507.96" y="779.887">as </tspan><tspan x="2540.91" y="779.887">her </tspan><tspan x="2584.7" y="779.887">mother. </tspan><tspan x="2677.1" y="779.887">One </tspan><tspan x="789" y="811.887">day, </tspan><tspan x="842.185" y="811.887">the </tspan><tspan x="885.58" y="811.887">entire </tspan><tspan x="956.1" y="811.887">village </tspan><tspan x="1034.07" y="811.887">was </tspan><tspan x="1086.01" y="811.887">attacked </tspan><tspan x="1190.66" y="811.887">by </tspan><tspan x="1224.9" y="811.887">Fidelion&apos;s </tspan><tspan x="1335.99" y="811.887">army </tspan><tspan x="1398.43" y="811.887">because </tspan><tspan x="1500.39" y="811.887">the </tspan><tspan x="1543.79" y="811.887">village </tspan><tspan x="1621.75" y="811.887">chief </tspan><tspan x="1683.46" y="811.887">and </tspan><tspan x="1732.25" y="811.887">his </tspan><tspan x="1770.89" y="811.887">followers </tspan><tspan x="1878.25" y="811.887">had </tspan><tspan x="1927.18" y="811.887">been </tspan><tspan x="1990.23" y="811.887">discovered </tspan><tspan x="2119.95" y="811.887">to </tspan><tspan x="2149.21" y="811.887">be </tspan><tspan x="2184.53" y="811.887">plotting </tspan><tspan x="2276.19" y="811.887">a </tspan><tspan x="2296.29" y="811.887">revolution </tspan><tspan x="2412.96" y="811.887">against </tspan><tspan x="2501.18" y="811.887">Fidelia&apos;s </tspan><tspan x="2597.55" y="811.887">orders. </tspan><tspan x="2682.79" y="811.887">Her </tspan><tspan x="789" y="843.887">father </tspan><tspan x="864.469" y="843.887">was </tspan><tspan x="918.331" y="843.887">summarily </tspan><tspan x="1041.14" y="843.887">executed </tspan><tspan x="1153.33" y="843.887">for </tspan><tspan x="1192.76" y="843.887">resisting </tspan><tspan x="1296.11" y="843.887">Fidelia&apos;s </tspan><tspan x="1394.41" y="843.887">forces </tspan><tspan x="1472.85" y="843.887">in </tspan><tspan x="1500.86" y="843.887">defense </tspan><tspan x="1599.92" y="843.887">of </tspan><tspan x="1631.17" y="843.887">his </tspan><tspan x="1671.73" y="843.887">children, </tspan><tspan x="1775.76" y="843.887">and </tspan><tspan x="1826.47" y="843.887">soldiers </tspan><tspan x="1922.33" y="843.887">forcibly </tspan><tspan x="2013.45" y="843.887">took </tspan><tspan x="2071.73" y="843.887">young </tspan><tspan x="2149.52" y="843.887">Celine </tspan><tspan x="2227.94" y="843.887">to </tspan><tspan x="2259.12" y="843.887">Fidelia. </tspan><tspan x="2346.28" y="843.887">As </tspan><tspan x="2383.45" y="843.887">a </tspan><tspan x="2405.47" y="843.887">slave </tspan><tspan x="2471.42" y="843.887">in </tspan><tspan x="2499.43" y="843.887">the </tspan><tspan x="2544.75" y="843.887">Fidelian </tspan><tspan x="2639.53" y="843.887">Empire, </tspan><tspan x="789" y="875.887">Celine </tspan><tspan x="866.727" y="875.887">was </tspan><tspan x="919.893" y="875.887">forced </tspan><tspan x="1000.01" y="875.887">to </tspan><tspan x="1030.5" y="875.887">perform </tspan><tspan x="1127.95" y="875.887">all </tspan><tspan x="1160.17" y="875.887">sorts </tspan><tspan x="1224.93" y="875.887">of </tspan><tspan x="1255.49" y="875.887">hard </tspan><tspan x="1313.96" y="875.887">labor, </tspan><tspan x="1383.31" y="875.887">even </tspan><tspan x="1445.14" y="875.887">at </tspan><tspan x="1474.97" y="875.887">a </tspan><tspan x="1496.3" y="875.887">young </tspan><tspan x="1573.39" y="875.887">age. </tspan><tspan x="1629.32" y="875.887">As </tspan><tspan x="1665.78" y="875.887">hard </tspan><tspan x="1724.25" y="875.887">as </tspan><tspan x="1757.98" y="875.887">it </tspan><tspan x="1779.87" y="875.887">was </tspan><tspan x="1833.04" y="875.887">to </tspan><tspan x="1863.53" y="875.887">live </tspan><tspan x="1908.93" y="875.887">through </tspan><tspan x="2004.57" y="875.887">the </tspan><tspan x="2049.2" y="875.887">daily </tspan><tspan x="2109.42" y="875.887">hell </tspan><tspan x="2156.14" y="875.887">of </tspan><tspan x="2186.7" y="875.887">her </tspan><tspan x="2231.27" y="875.887">life, </tspan><tspan x="2278.19" y="875.887">she </tspan><tspan x="2326.42" y="875.887">grieved </tspan><tspan x="2417.77" y="875.887">the </tspan><tspan x="2462.39" y="875.887">loss </tspan><tspan x="2514.78" y="875.887">of </tspan><tspan x="2545.34" y="875.887">her </tspan><tspan x="2589.91" y="875.887">sister </tspan><tspan x="2659.02" y="875.887">in </tspan><tspan x="2686.33" y="875.887">the </tspan><tspan x="789" y="907.887">process. </tspan><tspan x="890.541" y="907.887">Unable </tspan><tspan x="975.969" y="907.887">to </tspan><tspan x="1004.93" y="907.887">cope, </tspan><tspan x="1073.46" y="907.887">she </tspan><tspan x="1120.17" y="907.887">tried </tspan><tspan x="1177.86" y="907.887">to </tspan><tspan x="1206.82" y="907.887">commit </tspan><tspan x="1296.3" y="907.887">suicide </tspan><tspan x="1381.65" y="907.887">several </tspan><tspan x="1467.98" y="907.887">times, </tspan><tspan x="1541.82" y="907.887">only </tspan><tspan x="1595.02" y="907.887">to </tspan><tspan x="1623.98" y="907.887">be </tspan><tspan x="1658.99" y="907.887">discovered </tspan><tspan x="1788.41" y="907.887">by </tspan><tspan x="1822.35" y="907.887">her </tspan><tspan x="1865.39" y="907.887">coworkers </tspan><tspan x="1988.03" y="907.887">and </tspan><tspan x="2036.52" y="907.887">managers. </tspan><tspan x="2160.2" y="907.887">Over </tspan><tspan x="2220.09" y="907.887">the </tspan><tspan x="2263.19" y="907.887">years, </tspan><tspan x="2337.09" y="907.887">she </tspan><tspan x="2383.8" y="907.887">began </tspan><tspan x="2460.58" y="907.887">to </tspan><tspan x="2489.54" y="907.887">adjust </tspan><tspan x="2564.28" y="907.887">to </tspan><tspan x="2593.23" y="907.887">her </tspan><tspan x="2636.28" y="907.887">life </tspan><tspan x="2675.27" y="907.887">with </tspan><tspan x="789" y="939.887">her </tspan><tspan x="834.004" y="939.887">enslaved </tspan><tspan x="942.191" y="939.887">companions, </tspan><tspan x="1092.96" y="939.887">reading </tspan><tspan x="1185.45" y="939.887">books </tspan><tspan x="1262.29" y="939.887">and </tspan><tspan x="1312.73" y="939.887">cooking </tspan><tspan x="1409.47" y="939.887">delicious </tspan><tspan x="1516.41" y="939.887">meals </tspan><tspan x="1590.69" y="939.887">together. </tspan><tspan x="1700.1" y="939.887">When </tspan><tspan x="1773.15" y="939.887">she </tspan><tspan x="1821.82" y="939.887">was </tspan><tspan x="1875.42" y="939.887">16, </tspan><tspan x="1915.66" y="939.887">she </tspan><tspan x="1964.33" y="939.887">was </tspan><tspan x="2017.92" y="939.887">taken </tspan><tspan x="2088.27" y="939.887">by </tspan><tspan x="2124.17" y="939.887">her </tspan><tspan x="2169.17" y="939.887">best </tspan><tspan x="2227.04" y="939.887">friend </tspan><tspan x="2300.54" y="939.887">Jamie </tspan><tspan x="2375.3" y="939.887">to </tspan><tspan x="2406.22" y="939.887">watch </tspan><tspan x="2483.06" y="939.887">a </tspan><tspan x="2504.82" y="939.887">parade </tspan><tspan x="2591.74" y="939.887">to </tspan><tspan x="2622.66" y="939.887">welcome </tspan><tspan x="789" y="971.887">Jake&apos;s </tspan><tspan x="866.477" y="971.887">army. </tspan><tspan x="935.263" y="971.887">As </tspan><tspan x="971.383" y="971.887">she </tspan><tspan x="1019.27" y="971.887">watches </tspan><tspan x="1121.55" y="971.887">Jake </tspan><tspan x="1181.6" y="971.887">enter </tspan><tspan x="1247.85" y="971.887">through </tspan><tspan x="1343.14" y="971.887">the </tspan><tspan x="1387.42" y="971.887">city </tspan><tspan x="1435.43" y="971.887">gates </tspan><tspan x="1505.46" y="971.887">to </tspan><tspan x="1535.6" y="971.887">the </tspan><tspan x="1579.87" y="971.887">enthusiastic </tspan><tspan x="1722.68" y="971.887">cheers </tspan><tspan x="1806.36" y="971.887">of </tspan><tspan x="1836.57" y="971.887">the </tspan><tspan x="1880.85" y="971.887">crowds </tspan><tspan x="1969.9" y="971.887">in </tspan><tspan x="1996.86" y="971.887">Fidelion </tspan><tspan x="2091.4" y="971.887">Square, </tspan><tspan x="2184.38" y="971.887">Celine </tspan><tspan x="2261.76" y="971.887">feels </tspan><tspan x="2322.71" y="971.887">a </tspan><tspan x="2343.69" y="971.887">subtle </tspan><tspan x="2420.34" y="971.887">connection </tspan><tspan x="2552.29" y="971.887">to </tspan><tspan x="2582.43" y="971.887">him </tspan><tspan x="2630.39" y="971.887">that </tspan><tspan x="2682.72" y="971.887">she </tspan><tspan x="789" y="1003.89">has </tspan><tspan x="835.118" y="1003.89">never </tspan><tspan x="904.015" y="1003.89">felt </tspan><tspan x="945.909" y="1003.89">before. </tspan><tspan x="1031.24" y="1003.89">As </tspan><tspan x="1066.03" y="1003.89">Jake </tspan><tspan x="1124.74" y="1003.89">and </tspan><tspan x="1173.08" y="1003.89">Celine&apos;s </tspan><tspan x="1266.56" y="1003.89">eyes </tspan><tspan x="1325.21" y="1003.89">met, </tspan><tspan x="1381.04" y="1003.89">she </tspan><tspan x="1427.6" y="1003.89">was </tspan><tspan x="1479.09" y="1003.89">overcome </tspan><tspan x="1596.01" y="1003.89">with </tspan><tspan x="1650.01" y="1003.89">a </tspan><tspan x="1669.66" y="1003.89">strange </tspan><tspan x="1761.14" y="1003.89">feeling. </tspan><tspan x="1848.5" y="1003.89">She </tspan><tspan x="1897.84" y="1003.89">quickly </tspan><tspan x="1982.68" y="1003.89">turned </tspan><tspan x="2062.51" y="1003.89">her </tspan><tspan x="2105.41" y="1003.89">head </tspan><tspan x="2167.71" y="1003.89">away </tspan><tspan x="2232.92" y="1003.89">and </tspan><tspan x="2281.26" y="1003.89">made </tspan><tspan x="2350.35" y="1003.89">her </tspan><tspan x="2393.25" y="1003.89">way </tspan><tspan x="2445.08" y="1003.89">through </tspan><tspan x="2539.05" y="1003.89">the </tspan><tspan x="2581.99" y="1003.89">crowd.</tspan></text><text fill="black" xml:space="preserve" style="white-space: pre" font-family="Charis SIL" font-size="30" font-weight="bold" letter-spacing="0em"><tspan x="4140" y="119.353">Celine Adele
</tspan><tspan x="4140" y="159.353">Female
</tspan><tspan x="4140" y="199.353">20s
</tspan><tspan x="4140" y="239.353">United States
</tspan><tspan x="4140" y="279.353">Fidelion
</tspan><tspan x="4140" y="319.353">Empress</tspan></text><image x="4257" y="136" width="1747" height="808" fill="url(#img1719382565636_pattern1_3813_298)" xlink:href="/story/fidelion-7-1/2.png"/><text fill="black" xml:space="preserve" style="white-space: pre" font-family="Charis SIL" font-size="25" letter-spacing="0em"><tspan x="5976" y="824.46">For the following days after, Celine still lay awake at night thinking about Jake&apos;s appearance at the parade. </tspan><tspan x="5976" y="854.46">One day, amid these unexplained feelings, soldiers burst into her home, seized her, and dragged her to the </tspan><tspan x="5976" y="884.46">Fidelion Tower. Summoned before the Emperor, without speaking a word, Jake raised her rank to a citizen </tspan><tspan x="5976" y="914.46">without further explanation and ordered her to work in the Fidelion Tower. While this is not unheard of, it </tspan><tspan x="5976" y="944.46">was an unprecedented rise in rank within the Empire, and her treatment at the tower was understandably less </tspan><tspan x="5976" y="974.46">than favorable. She struggled to rise to the occasion, working hard, wondering why she was suddenly </tspan><tspan x="5976" y="1004.46">promoted to her rank, and occasionally longing for her old life.</tspan></text><g style="mix-blend-mode:multiply"><image x="6420" y="139" width="632" height="632" fill="url(#img1719382565636_pattern2_3813_298)" xlink:href="/story/fidelion-7-1/3.png"/></g><text fill="black" xml:space="preserve" style="white-space: pre" font-family="Charis SIL" font-size="25" letter-spacing="0em"><tspan x="7084" y="163.46">Despite her jealousy and envy, Celine does her best to fulfill her duties at the palace, which is to say, the menial </tspan><tspan x="7084" y="193.46">tasks. One day, she is assigned to clean Jake&apos;s office, and when she runs into him again, he somehow assigns her the </tspan><tspan x="7084" y="223.46">sole responsibility of cleaning his office the next day. Despite the envy and jealousy of the other workers, Celine </tspan><tspan x="7084" y="253.46">stuck to her task and fulfilled her duties. Although the work was hard and lonely, it wasn&apos;t a bad experience to </tspan><tspan x="7084" y="283.46">casually bump into and talk to Jake. Jake didn&apos;t treat her as a maid, and her curiosity about him grew. As their </tspan><tspan x="7084" y="313.46">conversations became more casual and she grew closer to him, she gradually developed feelings for him.</tspan></text><text fill="black" xml:space="preserve" style="white-space: pre" font-family="Charis SIL" font-size="25" letter-spacing="0em"><tspan x="8287" y="392.46">Meanwhile, her position at the company was rising by the day. Jake recognized her talent early on and reassigned </tspan><tspan x="8287" y="422.46">her to the military ranks. There, she picked up the military training so quickly that, at some point, she was no </tspan><tspan x="8287" y="452.46">longer a janitor but a soldier. Before long, she had become an integral part of Fidelia&apos;s military. As Jake watched, </tspan><tspan x="8287" y="482.46">he realized Celine had grown to hold a large place in his heart. Eventually, against the wishes of many, Jake </tspan><tspan x="8287" y="512.46">crowned her Empress, and she rose to the highest position in the Empire.</tspan></text><image x="7394" y="576" width="2315" height="504" fill="url(#img1719382565636_pattern3_3813_298)" xlink:href="/story/fidelion-7-1/4.png"/></g><defs><pattern id="img1719382565636_pattern0_3813_298" patternContentUnits="objectBoundingBox" width="1" height="1"><use xlink:href="#image0_3813_298" transform="matrix(0.000333539 0 0 0.000330142 -0.000308678 0)"/></pattern><pattern id="img1719382565636_pattern1_3813_298" patternContentUnits="objectBoundingBox" width="1" height="1"><use xlink:href="#image1_3813_298" transform="scale(0.000667557 0.00123762)"/></pattern><pattern id="img1719382565636_pattern2_3813_298" patternContentUnits="objectBoundingBox" width="1" height="1"><use xlink:href="#image2_3813_298" transform="scale(0.000976562)"/></pattern><pattern id="img1719382565636_pattern3_3813_298" patternContentUnits="objectBoundingBox" width="1" height="1"><use xlink:href="#image3_3813_298" transform="scale(0.000244141 0.0011214)"/></pattern><clipPath id="clip0_3813_298"><rect width="9899" height="1080" fill="white"/></clipPath><image id="image0_3813_298" width="3000" height="3029" xlink:href="/story/fidelion-7-1/1.png"/><image id="image1_3813_298" width="1498" height="808" xlink:href="/story/fidelion-7-1/2.png"/><image id="image2_3813_298" width="1024" height="1024" xlink:href="/story/fidelion-7-1/3.png"/><image id="image3_3813_298" width="4096" height="892" xlink:href="/story/fidelion-7-1/4.png"/></defs></svg>