<svg width="14931" height="1080" viewBox="0 0 14931 1080" fill="none" xmlns="http://www.w3.org/2000/svg" xmlns:xlink="http://www.w3.org/1999/xlink"><g clip-path="url(#clip0_3798_2523)"><rect width="14931" height="1080" fill="black"/><image width="4051" height="1080" fill="url(#img1719309381754_pattern0_3798_2523)" xlink:href="/story/fidelion-2/1.png"/><image x="3271" width="3505" height="1080" fill="url(#img1719309381754_pattern1_3798_2523)" xlink:href="/story/fidelion-2/2.png"/><text fill="white" xml:space="preserve" style="white-space: pre" font-family="Pretendard-Black" font-size="260" letter-spacing="-0.03em"><tspan x="1629" y="261.422">The
</tspan><tspan x="1629" y="473.422">Beginning</tspan></text><text fill="black" xml:space="preserve" style="white-space: pre" font-family="Charis SIL" font-size="25" letter-spacing="0em"><tspan x="1657" y="834.46">After </tspan><tspan x="1722.06" y="834.46">a </tspan><tspan x="1744.31" y="834.46">journey </tspan><tspan x="1838.45" y="834.46">through </tspan><tspan x="1935.93" y="834.46">the </tspan><tspan x="1980.57" y="834.46">wasteland, </tspan><tspan x="2108.54" y="834.46">Jake </tspan><tspan x="2168.53" y="834.46">and </tspan><tspan x="2219.07" y="834.46">his </tspan><tspan x="2260.5" y="834.46">followers </tspan><tspan x="2371.81" y="834.46">arrived </tspan><tspan x="2460.82" y="834.46">in </tspan><tspan x="2492.12" y="834.46">what </tspan><tspan x="2556.79" y="834.46">used </tspan><tspan x="2616.88" y="834.46">to </tspan><tspan x="2648.5" y="834.46">be </tspan><tspan x="2684.17" y="834.46">the </tspan><tspan x="2728.8" y="834.46">state </tspan><tspan x="2790.25" y="834.46">of </tspan><tspan x="1657" y="864.46">Texas, </tspan><tspan x="1737.68" y="864.46">where </tspan><tspan x="1816.92" y="864.46">human </tspan><tspan x="1904.69" y="864.46">settlements </tspan><tspan x="2040.74" y="864.46">had </tspan><tspan x="2092.93" y="864.46">already </tspan><tspan x="2186.21" y="864.46">formed </tspan><tspan x="2276.39" y="864.46">around </tspan><tspan x="2366.03" y="864.46">the </tspan><tspan x="2412.14" y="864.46">uncontaminated </tspan><tspan x="2602.83" y="864.46">rivers. </tspan><tspan x="2683.47" y="864.46">There </tspan><tspan x="2758.12" y="864.46">were </tspan><tspan x="1657" y="894.46">collective </tspan><tspan x="1773.89" y="894.46">farms </tspan><tspan x="1847.1" y="894.46">for </tspan><tspan x="1889.97" y="894.46">food </tspan><tspan x="1950.75" y="894.46">production, </tspan><tspan x="2090.32" y="894.46">and </tspan><tspan x="2142.66" y="894.46">oil </tspan><tspan x="2182.6" y="894.46">was </tspan><tspan x="2236.18" y="894.46">being </tspan><tspan x="2308.56" y="894.46">extracted </tspan><tspan x="2422.4" y="894.46">from </tspan><tspan x="2486.53" y="894.46">an </tspan><tspan x="2524.76" y="894.46">undamaged </tspan><tspan x="2664.81" y="894.46">refinery. </tspan><tspan x="2770.4" y="894.46">The </tspan><tspan x="1657" y="924.46">problem </tspan><tspan x="1760.8" y="924.46">was </tspan><tspan x="1814.65" y="924.46">that </tspan><tspan x="1870.3" y="924.46">there </tspan><tspan x="1939.05" y="924.46">was </tspan><tspan x="1992.9" y="924.46">already </tspan><tspan x="2086.76" y="924.46">a </tspan><tspan x="2111.07" y="924.46">ruler </tspan><tspan x="2176.15" y="924.46">in </tspan><tspan x="2209.51" y="924.46">the </tspan><tspan x="2256.21" y="924.46">area. </tspan><tspan x="2322.29" y="924.46">The </tspan><tspan x="2375.48" y="924.46">Wolf </tspan><tspan x="2439.53" y="924.46">Gang </tspan><tspan x="2508.54" y="924.46">was </tspan><tspan x="2562.39" y="924.46">an </tspan><tspan x="2600.88" y="924.46">armed </tspan><tspan x="2682.61" y="924.46">and </tspan><tspan x="2735.22" y="924.46">violent </tspan><tspan x="1657" y="954.46">organization </tspan><tspan x="1809.43" y="954.46">that </tspan><tspan x="1866.77" y="954.46">monopolized </tspan><tspan x="2023.21" y="954.46">the </tspan><tspan x="2071.59" y="954.46">farms, </tspan><tspan x="2153.76" y="954.46">refineries, </tspan><tspan x="2277.85" y="954.46">and </tspan><tspan x="2332.14" y="954.46">other </tspan><tspan x="2403.91" y="954.46">facilities </tspan><tspan x="2510.62" y="954.46">and </tspan><tspan x="2564.9" y="954.46">kept </tspan><tspan x="2626.27" y="954.46">the </tspan><tspan x="2674.65" y="954.46">survivors </tspan><tspan x="2789.32" y="954.46">as </tspan><tspan x="1657" y="984.46">slaves. </tspan><tspan x="1738" y="984.46">They </tspan><tspan x="1801.29" y="984.46">commanded </tspan><tspan x="1944.89" y="984.46">the </tspan><tspan x="1988.44" y="984.46">people </tspan><tspan x="2070.39" y="984.46">who </tspan><tspan x="2126.36" y="984.46">gathered </tspan><tspan x="2231.92" y="984.46">for </tspan><tspan x="2271.9" y="984.46">food </tspan><tspan x="2329.8" y="984.46">to </tspan><tspan x="2360.33" y="984.46">organize </tspan><tspan x="2463.6" y="984.46">production, </tspan><tspan x="2600.28" y="984.46">but </tspan><tspan x="2645.34" y="984.46">they </tspan><tspan x="2702.15" y="984.46">kept </tspan><tspan x="2758.68" y="984.46">most </tspan><tspan x="1657" y="1014.46">of </tspan><tspan x="1686.85" y="1014.46">the </tspan><tspan x="1730.05" y="1014.46">fruits </tspan><tspan x="1796.38" y="1014.46">of </tspan><tspan x="1826.23" y="1014.46">their </tspan><tspan x="1886.82" y="1014.46">labor </tspan><tspan x="1952.33" y="1014.46">for </tspan><tspan x="1991.97" y="1014.46">themselves. </tspan><tspan x="2128.54" y="1014.46">There, </tspan><tspan x="2207.29" y="1014.46">Jake </tspan><tspan x="2265.85" y="1014.46">met </tspan><tspan x="2315.96" y="1014.46">someone </tspan><tspan x="2421.18" y="1014.46">he </tspan><tspan x="2455.89" y="1014.46">remembered—a </tspan><tspan x="2640.84" y="1014.46">retired </tspan><tspan x="2723.23" y="1014.46">general, </tspan><tspan x="1657" y="1044.46">General </tspan><tspan x="1750.33" y="1044.46">Nagano, </tspan><tspan x="1849.07" y="1044.46">who </tspan><tspan x="1903.92" y="1044.46">was </tspan><tspan x="1953.51" y="1044.46">once </tspan><tspan x="2012.52" y="1044.46">his </tspan><tspan x="2051.75" y="1044.46">father&apos;s </tspan><tspan x="2139.08" y="1044.46">close </tspan><tspan x="2201.29" y="1044.46">friend </tspan><tspan x="2274.7" y="1044.46">and </tspan><tspan x="2323.04" y="1044.46">mentor.</tspan></text><text fill="white" xml:space="preserve" style="white-space: pre" font-family="Charis SIL" font-size="25" letter-spacing="0em"><tspan x="3197" y="692.46">Realizing that Jake possessed exceptional leadership qualities, Nagano decided that it would be more </tspan><tspan x="3197" y="722.46">advantageous for him to fight under Jake&apos;s command than for him to fight against the Wolf Gang as two </tspan><tspan x="3197" y="752.46">separate groups of equals, so he decided to take a group of his men and joined Jake&apos;s group. To Jake, who </tspan><tspan x="3197" y="782.46">had built his organization from scratch in a bunker, and General Nagano, who is hardened by battle-honed </tspan><tspan x="3197" y="812.46">combat experience, the Wolf Gang was nothing more than a ragtag group of thugs. Falsely feigning </tspan><tspan x="3197" y="842.46">submission to the Wolf gang, Nagano and his followers quickly took control of the people and set up shop, </tspan><tspan x="3197" y="872.46">only to turn against them as soon as they were ready. Although the Wolf Gang had control of the facilities, </tspan><tspan x="3197" y="902.46">supplies, and ample weapons, they were no match for Jake, who knew their situation like the back of his </tspan><tspan x="3197" y="932.46">hand and had a plan in place. In the end, they were stripped of their weapons, supplies, and even their </tspan><tspan x="3197" y="962.46">lives. Jake and his followers were welcomed by the local population as liberators.</tspan></text><text fill="white" xml:space="preserve" style="white-space: pre" font-family="Charis SIL" font-size="25" letter-spacing="0em"><tspan x="5380" y="548.46">The citizens of Old Texas wanted Jake to be their new leader. Embracing his role as a </tspan><tspan x="5380" y="578.46">leader, Jake rebuilt the refinery that the Wolf Gang had used so poorly, making it more </tspan><tspan x="5380" y="608.46">efficient at producing oil. He also revitalized many of the ravaged farms to boost the food </tspan><tspan x="5380" y="638.46">supply. Weapons and vehicles were overhauled to keep outlaws from raiding and </tspan><tspan x="5380" y="668.46">protecting the people, and specialized personnel were selected to identify and utilize </tspan><tspan x="5380" y="698.46">available pre-war equipment and facilities, laying the foundation for fundamental </tspan><tspan x="5380" y="728.46">technological advances.
</tspan><tspan x="5380" y="762.46">
</tspan><tspan x="5380" y="796.46">Although he was not an expert in any singular field, Jake&apos;s judgment, determination, and </tspan><tspan x="5380" y="826.46">charisma were more than enough to get those under his command to follow his instructions </tspan><tspan x="5380" y="856.46">willingly. What was once a tiny village controlled by the Wolf Gang had grown into a small </tspan><tspan x="5380" y="886.46">city, completed with housing, food production areas, and a marketplace. Jake named the </tspan><tspan x="5380" y="916.46">city Fidelia after the opera Fidelio, which he listened to as a boy growing up in the bunker. </tspan><tspan x="5380" y="946.46">He envisioned Fidelia as an idealized version of the opera&apos;s beautifully melodic and </tspan><tspan x="5380" y="976.46">harmonious score, where no one was in charge, and everyone was in harmony.</tspan></text><text fill="white" xml:space="preserve" style="white-space: pre" font-family="Charis SIL" font-size="25" letter-spacing="0em"><tspan x="6596" y="90.4604">When Jake drove the Wolf Gangs out, their territory covered about 150 square kilometers, with people living in </tspan><tspan x="6596" y="120.46">the area they controlled. Naturally, the provisional territory of early Fidelia was also defined by the </tspan><tspan x="6596" y="150.46">approximate boundaries of that area. In addition, during the time of the Wolf Gang&apos;s dominance, there were </tspan><tspan x="6596" y="180.46">men under their command who were in charge of the different regions. Jake chose to retain a few of them as </tspan><tspan x="6596" y="210.46">local representatives rather than expel them to facilitate his initial city management, which recognized the fact </tspan><tspan x="6596" y="240.46">that they were merely following orders from the Wolf Gang and not actively participating in their evil deeds.
</tspan><tspan x="6596" y="274.46">
</tspan><tspan x="6596" y="308.46">Jake divided Fidelia into sections according to their use and assigned each section to a local representative to </tspan><tspan x="6596" y="338.46">manage. Only the veteran General Nagano pointed out that leaving those who had done evil in the past with </tspan><tspan x="6596" y="368.46">the same group could cause problems in the future, but Jake did not follow his advice. At the time, Jake </tspan><tspan x="6596" y="398.46">believed the city should be governed by a collective effort rather than a single absolute. Doing so would be to </tspan><tspan x="6596" y="428.46">blame the current members of the city for what had happened under the previous regime, which would only </tspan><tspan x="6596" y="458.46">perpetuate the grudges of the past in the city. This was to create the ideal city-state he was aiming for, and at </tspan><tspan x="6596" y="488.46">the time, he assumed that others would be willing to share his ideals. However, his judgment proved to be a </tspan><tspan x="6596" y="518.46">rash mistake. He failed to be clear about what he was and wasn&apos;t willing to do as a ruler, and it didn&apos;t take long </tspan><tspan x="6596" y="548.46">for the consequences to become painful.</tspan></text><image x="6684" y="614" width="1242" height="466" fill="url(#img1719309381754_pattern2_3798_2523)" xlink:href="/story/fidelion-2/3.png"/><text fill="black" xml:space="preserve" style="white-space: pre" font-family="Charis SIL" font-size="25" letter-spacing="0em"><tspan x="2934" y="71.9604">The </tspan><tspan x="2995.8" y="71.9604">Nagano </tspan><tspan x="3100.39" y="71.9604">family </tspan><tspan x="3191" y="71.9604">is </tspan><tspan x="3228.75" y="71.9604">a </tspan><tspan x="3261.66" y="71.9604">venerable </tspan><tspan x="3389.87" y="71.9604">military </tspan><tspan x="2934" y="101.96">family </tspan><tspan x="3018.03" y="101.96">whose </tspan><tspan x="3101.41" y="101.96">ancestors </tspan><tspan x="3217.65" y="101.96">had </tspan><tspan x="3272.46" y="101.96">been </tspan><tspan x="3338.67" y="101.96">close </tspan><tspan x="3407.17" y="101.96">to </tspan><tspan x="3442.89" y="101.96">the </tspan><tspan x="2934" y="131.96">Marcus </tspan><tspan x="3023.83" y="131.96">family </tspan><tspan x="3103.83" y="131.96">for </tspan><tspan x="3144.95" y="131.96">generations, </tspan><tspan x="3289.72" y="131.96">and </tspan><tspan x="3340.32" y="131.96">Nagano </tspan><tspan x="3434.3" y="131.96">also </tspan><tspan x="2934" y="161.96">remembered </tspan><tspan x="3081.67" y="161.96">who </tspan><tspan x="3137.75" y="161.96">Jake </tspan><tspan x="3196.75" y="161.96">was. </tspan><tspan x="3254.55" y="161.96">Unable </tspan><tspan x="3341.36" y="161.96">to </tspan><tspan x="3371.99" y="161.96">recognize </tspan><tspan x="2934" y="191.96">the </tspan><tspan x="2978.76" y="191.96">inherent </tspan><tspan x="3081.53" y="191.96">unreasonableness </tspan><tspan x="3284.76" y="191.96">of </tspan><tspan x="3316.17" y="191.96">things, </tspan><tspan x="3400.55" y="191.96">he </tspan><tspan x="3436.81" y="191.96">had </tspan><tspan x="2934" y="221.96">been </tspan><tspan x="2999.26" y="221.96">gathering </tspan><tspan x="3117.6" y="221.96">those </tspan><tspan x="3188.95" y="221.96">who </tspan><tspan x="3249.16" y="221.96">disagreed </tspan><tspan x="3367.77" y="221.96">with </tspan><tspan x="3430.47" y="221.96">how </tspan><tspan x="2934" y="251.96">things </tspan><tspan x="3014.49" y="251.96">were, </tspan><tspan x="3088.15" y="251.96">hoping </tspan><tspan x="3177.78" y="251.96">to </tspan><tspan x="3212.64" y="251.96">strike </tspan><tspan x="3286.86" y="251.96">back </tspan><tspan x="3351.24" y="251.96">even </tspan><tspan x="3415.94" y="251.96">as </tspan><tspan x="3451.39" y="251.96">he </tspan><tspan x="2934" y="281.96">struggled </tspan><tspan x="3043.86" y="281.96">under </tspan><tspan x="3115.76" y="281.96">the </tspan><tspan x="3158.19" y="281.96">Wolf </tspan><tspan x="3217.98" y="281.96">Gang. </tspan><tspan x="3282.41" y="281.96">
</tspan><tspan x="2934" y="315.96">Jake </tspan><tspan x="2994.79" y="315.96">approached </tspan><tspan x="3134.3" y="315.96">General </tspan><tspan x="3230.63" y="315.96">Nagano </tspan><tspan x="3325.36" y="315.96">and </tspan><tspan x="3376.71" y="315.96">proposed </tspan><tspan x="2934" y="345.96">they </tspan><tspan x="2991.54" y="345.96">join </tspan><tspan x="3043.39" y="345.96">forces </tspan><tspan x="3117.98" y="345.96">to </tspan><tspan x="3149.25" y="345.96">overthrow </tspan><tspan x="3273.12" y="345.96">the </tspan><tspan x="3317.41" y="345.96">Wolf </tspan><tspan x="3379.05" y="345.96">Gang. </tspan><tspan x="3452.66" y="345.96">At </tspan><tspan x="2934" y="375.96">first, </tspan><tspan x="2996.58" y="375.96">Nagano </tspan><tspan x="3092.59" y="375.96">was </tspan><tspan x="3146.46" y="375.96">skeptical </tspan><tspan x="3255.51" y="375.96">of </tspan><tspan x="3288.87" y="375.96">the </tspan><tspan x="3335.58" y="375.96">young </tspan><tspan x="3415.6" y="375.96">man&apos;s </tspan><tspan x="2934" y="405.96">skills </tspan><tspan x="3011.88" y="405.96">and </tspan><tspan x="3075.06" y="405.96">character, </tspan><tspan x="3207.65" y="405.96">but </tspan><tspan x="3266.43" y="405.96">through </tspan><tspan x="3376.56" y="405.96">his </tspan><tspan x="3430.64" y="405.96">own </tspan><tspan x="2934" y="435.96">experiences </tspan><tspan x="3070.49" y="435.96">and </tspan><tspan x="3119.07" y="435.96">the </tspan><tspan x="3161.74" y="435.96">stories </tspan><tspan x="3240.96" y="435.96">he&apos;s </tspan><tspan x="3289.36" y="435.96">heard </tspan><tspan x="3360.16" y="435.96">from </tspan><tspan x="3420.53" y="435.96">Jake, </tspan><tspan x="2934" y="465.96">he </tspan><tspan x="2971.4" y="465.96">understood </tspan><tspan x="3106.53" y="465.96">how </tspan><tspan x="3164.85" y="465.96">Jake </tspan><tspan x="3226.1" y="465.96">had </tspan><tspan x="3278.08" y="465.96">attracted </tspan><tspan x="3387.6" y="465.96">his </tspan><tspan x="3430.29" y="465.96">men </tspan><tspan x="2934" y="495.96">and </tspan><tspan x="2982.34" y="495.96">how </tspan><tspan x="3037.2" y="495.96">he </tspan><tspan x="3071.13" y="495.96">was </tspan><tspan x="3120.72" y="495.96">winning </tspan><tspan x="3218.5" y="495.96">their </tspan><tspan x="3278.31" y="495.96">hearts.</tspan></text><image x="7926" width="1362" height="1080" fill="url(#img1719309381754_pattern3_3798_2523)" xlink:href="/story/fidelion-2/4.png"/><text fill="white" xml:space="preserve" style="white-space: pre" font-family="Charis SIL" font-size="25" letter-spacing="0em"><tspan x="9004" y="226.46">Trouble </tspan><tspan x="9099.94" y="226.46">began </tspan><tspan x="9175.88" y="226.46">to </tspan><tspan x="9207.73" y="226.46">brew </tspan><tspan x="9273.01" y="226.46">as </tspan><tspan x="9305.44" y="226.46">the </tspan><tspan x="9350.31" y="226.46">representatives </tspan><tspan x="9527.3" y="226.46">of </tspan><tspan x="9558.81" y="226.46">the </tspan><tspan x="9603.68" y="226.46">districts </tspan><tspan x="9701.08" y="226.46">gradually </tspan><tspan x="9815.64" y="226.46">slipped </tspan><tspan x="9904.72" y="226.46">out </tspan><tspan x="9950.81" y="226.46">of </tspan><tspan x="9982.32" y="226.46">Jake&apos;s </tspan><tspan x="10056.8" y="226.46">control; </tspan><tspan x="10152.3" y="226.46">they </tspan><tspan x="10210.4" y="226.46">were </tspan><tspan x="10274" y="226.46">responsible </tspan><tspan x="10408.7" y="226.46">for </tspan><tspan x="10450" y="226.46">managing </tspan><tspan x="10568.7" y="226.46">the </tspan><tspan x="10613.5" y="226.46">districts </tspan><tspan x="10710.9" y="226.46">and </tspan><tspan x="10761.7" y="226.46">producing </tspan><tspan x="9004" y="256.46">goods </tspan><tspan x="9076.5" y="256.46">to </tspan><tspan x="9106.7" y="256.46">enrich </tspan><tspan x="9184.62" y="256.46">the </tspan><tspan x="9227.83" y="256.46">city </tspan><tspan x="9276.92" y="256.46">further, </tspan><tspan x="9369.1" y="256.46">but </tspan><tspan x="9413.82" y="256.46">slowly, </tspan><tspan x="9500.16" y="256.46">they </tspan><tspan x="9556.62" y="256.46">began </tspan><tspan x="9630.91" y="256.46">to </tspan><tspan x="9661.1" y="256.46">corrupt </tspan><tspan x="9750.74" y="256.46">themselves </tspan><tspan x="9880.3" y="256.46">to </tspan><tspan x="9910.5" y="256.46">enjoy </tspan><tspan x="9979.19" y="256.46">the </tspan><tspan x="10022.4" y="256.46">luxuries </tspan><tspan x="10118.7" y="256.46">of </tspan><tspan x="10148.6" y="256.46">their </tspan><tspan x="10209.2" y="256.46">Wolf </tspan><tspan x="10269.7" y="256.46">Gang </tspan><tspan x="10335.3" y="256.46">days. </tspan><tspan x="10400.4" y="256.46">The </tspan><tspan x="10450.1" y="256.46">delegates </tspan><tspan x="10560.8" y="256.46">siphoned </tspan><tspan x="10669" y="256.46">off </tspan><tspan x="10707" y="256.46">the </tspan><tspan x="10750.2" y="256.46">taxes </tspan><tspan x="10814.5" y="256.46">owed </tspan><tspan x="9004" y="286.46">to </tspan><tspan x="9033.8" y="286.46">the </tspan><tspan x="9076.61" y="286.46">city </tspan><tspan x="9125.3" y="286.46">and </tspan><tspan x="9174.02" y="286.46">hoarded </tspan><tspan x="9272.67" y="286.46">them </tspan><tspan x="9336.74" y="286.46">for </tspan><tspan x="9375.99" y="286.46">themselves, </tspan><tspan x="9512.16" y="286.46">using </tspan><tspan x="9578.97" y="286.46">the </tspan><tspan x="9621.78" y="286.46">money </tspan><tspan x="9704.04" y="286.46">to </tspan><tspan x="9733.84" y="286.46">organize </tspan><tspan x="9836.36" y="286.46">their </tspan><tspan x="9896.56" y="286.46">private </tspan><tspan x="9982.34" y="286.46">armies. </tspan><tspan x="10070.6" y="286.46">They </tspan><tspan x="10133.2" y="286.46">sabotaged, </tspan><tspan x="10258.8" y="286.46">failed </tspan><tspan x="10328.7" y="286.46">to </tspan><tspan x="10358.5" y="286.46">produce </tspan><tspan x="10455.9" y="286.46">goods </tspan><tspan x="10528" y="286.46">on </tspan><tspan x="10563.5" y="286.46">schedule, </tspan><tspan x="10674.4" y="286.46">and </tspan><tspan x="10723.1" y="286.46">openly </tspan><tspan x="10805.5" y="286.46">defied </tspan><tspan x="9004" y="316.46">the </tspan><tspan x="9046.89" y="316.46">city&apos;s </tspan><tspan x="9109.9" y="316.46">orders. </tspan><tspan x="9194.2" y="316.46">As </tspan><tspan x="9228.8" y="316.46">the </tspan><tspan x="9271.69" y="316.46">city </tspan><tspan x="9320.47" y="316.46">grew, </tspan><tspan x="9390.02" y="316.46">these </tspan><tspan x="9455.13" y="316.46">small </tspan><tspan x="9521.71" y="316.46">and </tspan><tspan x="9570.51" y="316.46">large </tspan><tspan x="9633.62" y="316.46">rebellions </tspan><tspan x="9749.78" y="316.46">began </tspan><tspan x="9823.75" y="316.46">to </tspan><tspan x="9853.63" y="316.46">occur </tspan><tspan x="9922.33" y="316.46">simultaneously </tspan><tspan x="10096.7" y="316.46">in </tspan><tspan x="10126.3" y="316.46">different </tspan><tspan x="10229.1" y="316.46">neighborhoods. </tspan><tspan x="10408.3" y="316.46">Jake </tspan><tspan x="10466.5" y="316.46">was </tspan><tspan x="10516.6" y="316.46">greatly </tspan><tspan x="10601.4" y="316.46">disturbed, </tspan><tspan x="10720.7" y="316.46">but </tspan><tspan x="10765.1" y="316.46">his </tspan><tspan x="10804.8" y="316.46">power </tspan><tspan x="9004" y="346.46">was </tspan><tspan x="9054.94" y="346.46">insufficient </tspan><tspan x="9187.67" y="346.46">to </tspan><tspan x="9218.45" y="346.46">control </tspan><tspan x="9305.87" y="346.46">them. </tspan><tspan x="9377.93" y="346.46">As </tspan><tspan x="9413.42" y="346.46">an </tspan><tspan x="9449.01" y="346.46">equal </tspan><tspan x="9518.04" y="346.46">representative </tspan><tspan x="9684" y="346.46">of </tspan><tspan x="9714.44" y="346.46">the </tspan><tspan x="9758.23" y="346.46">citizens, </tspan><tspan x="9857.19" y="346.46">not </tspan><tspan x="9902.16" y="346.46">a </tspan><tspan x="9923.56" y="346.46">ruler, </tspan><tspan x="9992.74" y="346.46">he </tspan><tspan x="10028" y="346.46">had </tspan><tspan x="10077.9" y="346.46">no </tspan><tspan x="10114.4" y="346.46">authority </tspan><tspan x="10225.6" y="346.46">to </tspan><tspan x="10256.4" y="346.46">punish </tspan><tspan x="10339.4" y="346.46">anyone </tspan><tspan x="10428.3" y="346.46">by </tspan><tspan x="10464.1" y="346.46">force. </tspan><tspan x="10535.2" y="346.46">Punishment </tspan><tspan x="10674.9" y="346.46">for </tspan><tspan x="10715.1" y="346.46">the </tspan><tspan x="10758.9" y="346.46">guilty </tspan><tspan x="10831.7" y="346.46">was </tspan><tspan x="9004" y="376.46">delayed, </tspan><tspan x="9104.46" y="376.46">and </tspan><tspan x="9152.8" y="376.46">the </tspan><tspan x="9195.24" y="376.46">slippage </tspan><tspan x="9293.62" y="376.46">of </tspan><tspan x="9322.7" y="376.46">control </tspan><tspan x="9408.76" y="376.46">accelerated </tspan><tspan x="9541.4" y="376.46">until </tspan><tspan x="9600.66" y="376.46">a </tspan><tspan x="9620.7" y="376.46">catastrophic </tspan><tspan x="9763.03" y="376.46">event </tspan><tspan x="9830.78" y="376.46">struck </tspan><tspan x="9905.59" y="376.46">the </tspan><tspan x="9948.02" y="376.46">city </tspan><tspan x="9996.33" y="376.46">amid </tspan><tspan x="10059.3" y="376.46">the </tspan><tspan x="10101.8" y="376.46">growing </tspan><tspan x="10200.1" y="376.46">chaos.</tspan></text><text fill="white" xml:space="preserve" style="white-space: pre" font-family="Charis SIL" font-size="25" letter-spacing="0em"><tspan x="9004" y="427.46">Centered </tspan><tspan x="9112.51" y="427.46">in </tspan><tspan x="9143.78" y="427.46">the </tspan><tspan x="9188.38" y="427.46">western </tspan><tspan x="9284.39" y="427.46">neighborhoods, </tspan><tspan x="9465.31" y="427.46">an </tspan><tspan x="9501.71" y="427.46">unidentified </tspan><tspan x="9645.94" y="427.46">and </tspan><tspan x="9696.44" y="427.46">deadly </tspan><tspan x="9779.81" y="427.46">plague, </tspan><tspan x="9870.06" y="427.46">accompanied </tspan><tspan x="10025.3" y="427.46">by </tspan><tspan x="10061.9" y="427.46">high </tspan><tspan x="10120.8" y="427.46">fevers </tspan><tspan x="10196" y="427.46">and </tspan><tspan x="10246.5" y="427.46">bleeding, </tspan><tspan x="10357.8" y="427.46">spread </tspan><tspan x="10440.2" y="427.46">rapidly </tspan><tspan x="10528.5" y="427.46">across </tspan><tspan x="10605.7" y="427.46">Fidelia. </tspan><tspan x="10697.4" y="427.46">The </tspan><tspan x="10748.5" y="427.46">plague </tspan><tspan x="10831.7" y="427.46">was </tspan><tspan x="9004" y="457.46">dubbed </tspan><tspan x="9094.2" y="457.46">the </tspan><tspan x="9137.01" y="457.46">&quot;Red </tspan><tspan x="9195.63" y="457.46">Plague&quot; </tspan><tspan x="9285.9" y="457.46">because </tspan><tspan x="9380.57" y="457.46">of </tspan><tspan x="9410.02" y="457.46">the </tspan><tspan x="9452.83" y="457.46">red </tspan><tspan x="9496.69" y="457.46">spots </tspan><tspan x="9560.4" y="457.46">that </tspan><tspan x="9612.17" y="457.46">appeared </tspan><tspan x="9721.7" y="457.46">all </tspan><tspan x="9756.96" y="457.46">over </tspan><tspan x="9813.54" y="457.46">the </tspan><tspan x="9856.35" y="457.46">body </tspan><tspan x="9918.91" y="457.46">when </tspan><tspan x="9986.99" y="457.46">infected. </tspan><tspan x="10090.4" y="457.46">Jake </tspan><tspan x="10148.6" y="457.46">hastily </tspan><tspan x="10230.1" y="457.46">convened </tspan><tspan x="10343.2" y="457.46">a </tspan><tspan x="10363.7" y="457.46">meeting </tspan><tspan x="10460.5" y="457.46">of </tspan><tspan x="10490" y="457.46">local </tspan><tspan x="10550.5" y="457.46">administrators </tspan><tspan x="10718.5" y="457.46">to </tspan><tspan x="10748.3" y="457.46">address </tspan><tspan x="10838.9" y="457.46">the </tspan><tspan x="9004" y="487.46">problem </tspan><tspan x="9104.54" y="487.46">and </tspan><tspan x="9153.88" y="487.46">decreed </tspan><tspan x="9248.63" y="487.46">strict </tspan><tspan x="9312.94" y="487.46">quarantine </tspan><tspan x="9441.16" y="487.46">of </tspan><tspan x="9471.24" y="487.46">the </tspan><tspan x="9514.67" y="487.46">plague-affected </tspan><tspan x="9692.55" y="487.46">areas </tspan><tspan x="9758.32" y="487.46">and </tspan><tspan x="9807.66" y="487.46">the </tspan><tspan x="9851.1" y="487.46">introduction </tspan><tspan x="9996.95" y="487.46">of </tspan><tspan x="10027" y="487.46">residents </tspan><tspan x="10134" y="487.46">from </tspan><tspan x="10195.1" y="487.46">neighboring </tspan><tspan x="10337.1" y="487.46">communities. </tspan><tspan x="10494.6" y="487.46">This </tspan><tspan x="10549.8" y="487.46">was </tspan><tspan x="10600.4" y="487.46">the </tspan><tspan x="10643.8" y="487.46">best </tspan><tspan x="10696.7" y="487.46">measure </tspan><tspan x="10797.5" y="487.46">to </tspan><tspan x="10828" y="487.46">stop </tspan><tspan x="9004" y="517.46">the </tspan><tspan x="9046.89" y="517.46">spread </tspan><tspan x="9127.49" y="517.46">of </tspan><tspan x="9157.03" y="517.46">the </tspan><tspan x="9199.91" y="517.46">disease, </tspan><tspan x="9293.56" y="517.46">but </tspan><tspan x="9337.96" y="517.46">the </tspan><tspan x="9380.84" y="517.46">delegates </tspan><tspan x="9491.23" y="517.46">from </tspan><tspan x="9551.82" y="517.46">the </tspan><tspan x="9594.71" y="517.46">affected </tspan><tspan x="9690.28" y="517.46">regions </tspan><tspan x="9778.58" y="517.46">disobeyed </tspan><tspan x="9897.39" y="517.46">the </tspan><tspan x="9940.28" y="517.46">order </tspan><tspan x="10007.6" y="517.46">and </tspan><tspan x="10056.4" y="517.46">rose </tspan><tspan x="10109.8" y="517.46">against </tspan><tspan x="10196.4" y="517.46">him </tspan><tspan x="10247.4" y="517.46">outright. </tspan><tspan x="10351.8" y="517.46">At </tspan><tspan x="10385" y="517.46">the </tspan><tspan x="10427.9" y="517.46">same </tspan><tspan x="10491.8" y="517.46">time, </tspan><tspan x="10556.2" y="517.46">delegates </tspan><tspan x="10666.6" y="517.46">from </tspan><tspan x="10727.2" y="517.46">other </tspan><tspan x="10793.5" y="517.46">regions </tspan><tspan x="9004" y="547.46">who </tspan><tspan x="9058.99" y="547.46">had </tspan><tspan x="9107.63" y="547.46">grown </tspan><tspan x="9185.37" y="547.46">dissatisfied </tspan><tspan x="9315.3" y="547.46">with </tspan><tspan x="9372.78" y="547.46">Jake&apos;s </tspan><tspan x="9444.93" y="547.46">regime </tspan><tspan x="9528.68" y="547.46">joined </tspan><tspan x="9605.17" y="547.46">in, </tspan><tspan x="9641.41" y="547.46">leading </tspan><tspan x="9730.28" y="547.46">to </tspan><tspan x="9759.83" y="547.46">a </tspan><tspan x="9780" y="547.46">full-scale </tspan><tspan x="9886.7" y="547.46">rebellion </tspan><tspan x="9992.56" y="547.46">that </tspan><tspan x="10044.1" y="547.46">spanned </tspan><tspan x="10142.9" y="547.46">four </tspan><tspan x="10196.2" y="547.46">regions. </tspan><tspan x="10291.1" y="547.46">Each </tspan><tspan x="10351.9" y="547.46">of </tspan><tspan x="10381.1" y="547.46">the </tspan><tspan x="10423.7" y="547.46">rebellions </tspan><tspan x="10539.5" y="547.46">was </tspan><tspan x="10589.2" y="547.46">led </tspan><tspan x="10630.4" y="547.46">by </tspan><tspan x="10665" y="547.46">the </tspan><tspan x="10707.6" y="547.46">same </tspan><tspan x="10771.3" y="547.46">people </tspan><tspan x="10852.2" y="547.46">in </tspan><tspan x="9004" y="577.46">charge </tspan><tspan x="9087.74" y="577.46">since </tspan><tspan x="9153.22" y="577.46">the </tspan><tspan x="9198.17" y="577.46">Wolf </tspan><tspan x="9260.47" y="577.46">Gang </tspan><tspan x="9327.73" y="577.46">regime. </tspan><tspan x="9420.87" y="577.46">The </tspan><tspan x="9472.31" y="577.46">rebellion </tspan><tspan x="9580.56" y="577.46">devastated </tspan><tspan x="9708.76" y="577.46">the </tspan><tspan x="9753.71" y="577.46">city, </tspan><tspan x="9811.55" y="577.46">which </tspan><tspan x="9888.91" y="577.46">had </tspan><tspan x="9939.94" y="577.46">a </tspan><tspan x="9962.5" y="577.46">large </tspan><tspan x="10027.7" y="577.46">population </tspan><tspan x="10157.3" y="577.46">and </tspan><tspan x="10208.2" y="577.46">was </tspan><tspan x="10260.3" y="577.46">the </tspan><tspan x="10305.2" y="577.46">heart </tspan><tspan x="10372.7" y="577.46">of </tspan><tspan x="10404.3" y="577.46">the </tspan><tspan x="10449.2" y="577.46">city </tspan><tspan x="10500" y="577.46">where </tspan><tspan x="10578.1" y="577.46">many </tspan><tspan x="10649.4" y="577.46">resource </tspan><tspan x="10752.8" y="577.46">production </tspan><tspan x="9004" y="607.46">bases </tspan><tspan x="9070.11" y="607.46">and </tspan><tspan x="9118.45" y="607.46">factories </tspan><tspan x="9219.99" y="607.46">were </tspan><tspan x="9281.2" y="607.46">built. </tspan></text><path d="M9259.31 666H9307.86V1004.81H9259.31V666ZM9645.54 714.517H9814.34V666H9645.54V714.502V714.517ZM9645.54 1004.79H9814.34V956.293H9645.54V1004.79ZM9810.69 811.755H9664.88V860.257H9810.69V811.755ZM10145.6 1004.81H10194.2V666H10145.6V1004.81ZM9147.74 859.656V811.154H9052.55V714.502H9172.8V666H9004V1004.81H9052.55V859.656H9147.74ZM9943.64 954.341V666H9895.09V1004.81H10063.9V956.307H9943.63V954.341H9943.64ZM10610 835.397C10610 928.806 10533.9 1004.79 10440.4 1004.79C10346.9 1004.79 10270.8 928.806 10270.8 835.397C10270.8 741.989 10346.9 666 10440.4 666C10533.9 666 10610 741.989 10610 835.397ZM10561.4 835.397C10561.4 768.727 10507.1 714.487 10440.4 714.487C10373.7 714.487 10319.4 768.727 10319.4 835.397C10319.4 902.067 10373.7 956.307 10440.4 956.307C10507.1 956.307 10561.4 902.067 10561.4 835.397ZM9549.09 724.657C9575.75 755.431 9590.44 794.761 9590.44 835.397C9590.44 876.033 9575.75 915.363 9549.09 946.137C9522.69 976.589 9486.38 996.723 9446.82 1002.81C9439.54 1003.94 9405.29 1004.6 9396.6 1004.77V666H9420.84C9421.75 666.029 9438.65 666.719 9446.82 667.981C9486.38 674.071 9522.69 694.206 9549.09 724.657ZM9541.89 835.397C9541.89 807.837 9532.33 780.849 9514.95 759.423C9497.84 738.305 9473.89 723.41 9447.56 717.466L9445.15 716.923V953.886L9447.56 953.343C9473.89 947.399 9497.82 932.489 9514.95 911.386C9532.33 889.96 9541.89 862.972 9541.89 835.412V835.397ZM10684 666.66L10624.9 666.704L10824.3 1004.79H10874V666H10825.5V909.493L10821.8 903.183L10684 666.66Z" fill="#CC0000"/><image x="11940" width="1719" height="1080" fill="url(#img1719309381754_pattern4_3798_2523)" xlink:href="/story/fidelion-2/5.png"/><text fill="white" xml:space="preserve" style="white-space: pre" font-family="Charis SIL" font-size="25" letter-spacing="0em"><tspan x="11120" y="383.46">The rebellion of the delegates from the four regions was put down before long. This was due to the rapid deployment </tspan><tspan x="11120" y="413.46">of private soldiers that Melphine and General Nagano had reserved because of past crises in the city, as well as Jake&apos;s </tspan><tspan x="11120" y="443.46">quick recovery from the panic and the hiring of mercenaries from outside the city to mount a major counterattack. </tspan><tspan x="11120" y="473.46">Jake&apos;s proactive approach to halting the spread of the Red Plague was also a significant factor, as it solidified the </tspan><tspan x="11120" y="503.46">support of the citizens and prevented the contagion from spreading further. The rebellions in the four regions 
</tspan><tspan x="11120" y="537.46">were defeated and dispersed, and the ringleaders were arrested. Although the rebellions were quelled, Jake 
</tspan><tspan x="11120" y="571.46">was devastated, as his idealistic city plan was shaken to its core. He realized that his idea of an ideal community </tspan><tspan x="11120" y="601.46">where everyone can share their opinions and ideas was nothing more than a boy&apos;s dream in a bunker and that 
</tspan><tspan x="11120" y="635.46">a powerful force must be at the center of it to create an ideal society. Jake decided to become that force, 
</tspan><tspan x="11120" y="669.46">and he took the first step by publicly executing all of the rebellion&apos;s leaders.</tspan></text><text fill="white" xml:space="preserve" style="white-space: pre" font-family="Charis SIL" font-size="25" letter-spacing="0em"><tspan x="13100" y="88.4604">While some considered his actions to be cruel, Jake pressed all opposition. He no longer hesitated, abolished the old system of 
</tspan><tspan x="13100" y="122.46">  representatives, and reorganized all regions to be governed by a centralized government, with local officials at the center. 
</tspan><tspan x="13100" y="156.46">   He placed himself at the center of this government as an uncontested supreme ruler. When the city spread out to the periphery, 
</tspan><tspan x="13100" y="190.46">    covering some 500 square kilometers in all directions, he proclaimed himself the first Fidelian Empire emperor. 
</tspan><tspan x="13100" y="224.46">   There were dissenters, but their voices were no longer heard in Fidelia. Realizing that unified discipline was the only way
</tspan><tspan x="13100" y="258.46">  to keep the community together, Jake chose to repress and control the voices of dissent to prevent them from spreading. 
</tspan><tspan x="13100" y="292.46">     Fidelia was transformed from a small city into an empire, with Jake at the center of it all, an emperor, and a ruler overall.</tspan></text><text fill="white" xml:space="preserve" style="white-space: pre" font-family="Charis SIL" font-size="25" letter-spacing="0em"><tspan x="13160" y="442.46">Afterward, Jake no longer revealed himself to the people easily. Dwelling in the great tower he built in the 
</tspan><tspan x="13160" y="476.46"> center of Fidelia; he preferred to keep his presence as invisible as possible, except on very few occasions, 
</tspan><tspan x="13160" y="510.46">  such as official propaganda events. Only a select few, including his loyal and longtime subordinate Melphine, 
</tspan><tspan x="13160" y="544.46">   had access to him. &quot;The Emperor of the Empire must be perfect, strong, and superhuman.&quot; Jake&apos;s reign continued after 
</tspan><tspan x="13160" y="578.46">    Fidelia was established and the country&apos;s foundations were laid, but his subjects knew little of him beyond his outward appearance. 
</tspan><tspan x="13160" y="612.46">     He exists in a deliberate shroud of mystery and continues to rule the Empire today as a living, immortal Emperor.</tspan></text></g><defs><pattern id="img1719309381754_pattern0_3798_2523" patternContentUnits="objectBoundingBox" width="1" height="1"><use xlink:href="#image0_3798_2523" transform="scale(0.000244141 0.000915753)"/></pattern><pattern id="img1719309381754_pattern1_3798_2523" patternContentUnits="objectBoundingBox" width="1" height="1"><use xlink:href="#image1_3798_2523" transform="scale(0.000244161 0.000792393)"/></pattern><pattern id="img1719309381754_pattern2_3798_2523" patternContentUnits="objectBoundingBox" width="1" height="1"><use xlink:href="#image2_3798_2523" transform="scale(0.000402576 0.00107296)"/></pattern><pattern id="img1719309381754_pattern3_3798_2523" patternContentUnits="objectBoundingBox" width="1" height="1"><use xlink:href="#image3_3798_2523" transform="scale(0.000734214 0.000925926)"/></pattern><pattern id="img1719309381754_pattern4_3798_2523" patternContentUnits="objectBoundingBox" width="1" height="1"><use xlink:href="#image4_3798_2523" transform="scale(0.000581734 0.000925926)"/></pattern><clipPath id="clip0_3798_2523"><rect width="14931" height="1080" fill="white"/></clipPath><image id="image0_3798_2523" width="4096" height="1092" xlink:href="/story/fidelion-2/1.png"/><image id="image1_3798_2523" width="4096" height="1262" xlink:href="/story/fidelion-2/2.png"/><image id="image2_3798_2523" width="2484" height="932" xlink:href="/story/fidelion-2/3.png"/><image id="image3_3798_2523" width="1362" height="1080" xlink:href="/story/fidelion-2/4.png"/><image id="image4_3798_2523" width="1719" height="1080" xlink:href="/story/fidelion-2/5.png"/></defs></svg>