<svg width="13019" height="1080" viewBox="0 0 13019 1080" fill="none" xmlns="http://www.w3.org/2000/svg" xmlns:xlink="http://www.w3.org/1999/xlink"><rect width="13019" height="1080" fill="#CC0000"/><text fill="black" xml:space="preserve" style="white-space: pre" font-family="Charis SIL" font-size="25" letter-spacing="0em"><tspan x="3019" y="114.46">In addition to the three classes mentioned, there are two other special classes in the </tspan><tspan x="3019" y="144.46">Empire, which are described below.</tspan></text><text fill="black" xml:space="preserve" style="white-space: pre" font-family="Charis SIL" font-size="25" letter-spacing="0em"><tspan x="3019" y="204.46">Superior Class
</tspan><tspan x="3019" y="238.46">According to official Imperial explanations, the Superior Class exists to provide blood </tspan><tspan x="3019" y="268.46">loyalty to the Emperor and are required to live within the confines of the Oratorio, </tspan><tspan x="3019" y="298.46">where their freedom of movement is strictly controlled. In exchange, they can acquire </tspan><tspan x="3019" y="328.46">advanced knowledge and enjoy a far more prosperous life than any other class in the </tspan><tspan x="3019" y="358.46">Empire. In effect, the Superior Class is an elite class that enjoys a disproportionate </tspan><tspan x="3019" y="388.46">share of the income generated by the commoners and a ruling class that sits at the top </tspan><tspan x="3019" y="418.46">of the food chain, often in the guise of corrupt bureaucrats who don&apos;t quite fit the </tspan><tspan x="3019" y="448.46">description. </tspan></text><text fill="black" xml:space="preserve" style="white-space: pre" font-family="Charis SIL" font-size="25" letter-spacing="0em"><tspan x="3019" y="508.46">Slaves 
</tspan><tspan x="3019" y="542.46">Slaves are the only class that the Empire officially recognized as having a &quot;status gap.&quot; </tspan><tspan x="3019" y="572.46">Slaves are treated much more harshly than the average citizen and are denied humane </tspan><tspan x="3019" y="602.46">treatment in most quarters. Basically, slaves are sourced from prisoners who have </tspan><tspan x="3019" y="632.46">committed felonies, rebels resisting the Empire, and others. Because the slave class is </tspan><tspan x="3019" y="662.46">hereditary, there is rarely a shortage of slaves, but when additional slaves are needed, </tspan><tspan x="3019" y="692.46">they are often forcibly taken from wandering groups outside the Empire. This is </tspan><tspan x="3019" y="722.46">sometimes referred to as &quot;human hunting&quot; within the Empire and is practiced more or </tspan><tspan x="3019" y="752.46">less openly.</tspan></text><text fill="black" xml:space="preserve" style="white-space: pre" font-family="Charis SIL" font-size="25" letter-spacing="0em"><tspan x="3019" y="812.46">Ordinary citizens, regardless of class, are not allowed to own slaves, which the Empire </tspan><tspan x="3019" y="842.46">explains as a precaution against commoners becoming lazy and not fulfilling their </tspan><tspan x="3019" y="872.46">duties. However, some laborers employed in hazardous labor areas or the clearing of </tspan><tspan x="3019" y="902.46">barren lands may live and work with slaves.</tspan></text><g clip-path="url(#clip0_3894_227)"><path fill-rule="evenodd" clip-rule="evenodd" d="M1675.92 504.766V537.851C1675.92 569.258 1683.69 583.827 1704.65 583.827C1725.61 583.827 1730.82 562.233 1730.82 539.68C1730.82 494.664 1722.31 481.553 1673.58 440.854C1619.79 395.318 1592.08 368.379 1592.08 298.031C1592.08 227.684 1614.66 167 1705.17 167C1801.24 167 1815.46 232.441 1815.46 287.13V314.579H1728.69V285.961C1728.69 256.972 1723.93 242.693 1705.75 242.693C1688.82 242.693 1683.33 257.262 1683.33 284.272C1683.33 313.04 1688.53 327.17 1728.03 357.986C1798.31 413.105 1823.52 444.072 1823.52 522.693C1823.52 601.313 1797.95 659 1703.04 659C1608.13 659 1585.85 604.101 1585.85 533.384V504.766H1675.92ZM494.17 174.614H296V651.985H387.98V445.77H488.16V364.581H387.98V255.803H494.17V174.614ZM625.72 651.905V174.614H533.97V651.905H625.72ZM683.47 174.614H796.4C894.82 174.614 928.83 219.411 928.83 318.236V497.661C928.83 579.939 911.39 651.905 802.7 651.905H683.46V174.614H683.47ZM775.37 577.891H793.32C829.38 577.891 835.31 554.389 835.31 517.207V303.447C835.31 268.234 827.4 249.058 792.58 249.058H775.36V577.891H775.37ZM977.94 651.905H1174.42L1174.35 651.835V571.166H1069.99V441.084H1168.49V360.415H1069.99V255.803H1173.69V174.614H977.94V651.905ZM1417.59 651.905H1218.25V174.614H1310.29V571.606H1417.59V651.915V651.905ZM1546.57 651.905V174.614H1454.82V651.905H1546.57ZM2113.38 262.608C2112.2 321.174 2111.47 425.925 2111.47 499.79L2111.54 499.86V651.905H2200V174.614H2068.6C2063.84 208.739 2058.96 242.353 2054.28 274.559C2044.55 341.559 2035.71 402.463 2030.71 449.128H2028.73C2023.31 384.486 2009.31 265.386 1996.85 174.614H1864.93V651.835H1948.33V503.157C1948.33 429.633 1946.4 339.22 1945.15 280.804C1945.01 273.84 1944.87 267.335 1944.74 261.369H1947.67C1957.64 350.602 1978.23 547.524 1988.79 651.845H2066.76C2079.81 551.411 2100.92 358.076 2110.88 262.618H2113.38V262.608Z" fill="black"/></g><text fill="black" xml:space="preserve" style="white-space: pre" font-family="Charis SIL" font-size="25" letter-spacing="0em"><tspan x="296" y="723.46">In </tspan><tspan x="325.876" y="723.46">the </tspan><tspan x="368.422" y="723.46">past, </tspan><tspan x="428.034" y="723.46">everyone </tspan><tspan x="536.304" y="723.46">living </tspan><tspan x="606.902" y="723.46">in </tspan><tspan x="636.118" y="723.46">the </tspan><tspan x="678.665" y="723.46">Empire </tspan><tspan x="765.572" y="723.46">was </tspan><tspan x="815.272" y="723.46">treated </tspan><tspan x="900.836" y="723.46">as </tspan><tspan x="930.956" y="723.46">an </tspan><tspan x="965.299" y="723.46">equal </tspan><tspan x="1033.09" y="723.46">citizen </tspan><tspan x="1113.84" y="723.46">and </tspan><tspan x="1162.3" y="723.46">enjoyed </tspan><tspan x="1256.7" y="723.46">equal </tspan><tspan x="1324.49" y="723.46">rights, </tspan><tspan x="1402.27" y="723.46">but </tspan><tspan x="1446.33" y="723.46">after </tspan><tspan x="1505.18" y="723.46">the </tspan><tspan x="1547.73" y="723.46">Red </tspan><tspan x="1597.77" y="723.46">Plague, </tspan><tspan x="1686.46" y="723.46">Jake </tspan><tspan x="1744.36" y="723.46">focused </tspan><tspan x="1835.76" y="723.46">on </tspan><tspan x="1870.99" y="723.46">strengthening </tspan><tspan x="2030.45" y="723.46">the </tspan><tspan x="2073" y="723.46">governance </tspan><tspan x="296" y="753.46">structure </tspan><tspan x="406.8" y="753.46">by </tspan><tspan x="445.848" y="753.46">categorizing </tspan><tspan x="593.44" y="753.46">the </tspan><tspan x="640.447" y="753.46">citizens </tspan><tspan x="735.622" y="753.46">of </tspan><tspan x="769.274" y="753.46">the </tspan><tspan x="816.281" y="753.46">entire </tspan><tspan x="892.755" y="753.46">Empire </tspan><tspan x="984.122" y="753.46">into </tspan><tspan x="1039.89" y="753.46">classes. </tspan><tspan x="1132.72" y="753.46">Divided </tspan><tspan x="1230.93" y="753.46">into </tspan><tspan x="1286.7" y="753.46">three </tspan><tspan x="1355.75" y="753.46">classes: </tspan><tspan x="1448.58" y="753.46">laborers, </tspan><tspan x="1556.92" y="753.46">technicians, </tspan><tspan x="1700.46" y="753.46">and </tspan><tspan x="1753.37" y="753.46">soldiers, </tspan><tspan x="1856.97" y="753.46">citizens </tspan><tspan x="1952.14" y="753.46">live </tspan><tspan x="2004.55" y="753.46">within </tspan><tspan x="2088.25" y="753.46">their </tspan><tspan x="2152.64" y="753.46">own </tspan><tspan x="296" y="783.46">compartments </tspan><tspan x="462.456" y="783.46">and </tspan><tspan x="512.261" y="783.46">are </tspan><tspan x="555.817" y="783.46">largely </tspan><tspan x="640.608" y="783.46">cut </tspan><tspan x="683.772" y="783.46">off </tspan><tspan x="722.469" y="783.46">from </tspan><tspan x="784.067" y="783.46">interaction. </tspan><tspan x="920.42" y="783.46">Although </tspan><tspan x="1031.65" y="783.46">the </tspan><tspan x="1075.55" y="783.46">official </tspan><tspan x="1161.22" y="783.46">stance </tspan><tspan x="1239.27" y="783.46">of </tspan><tspan x="1269.81" y="783.46">the </tspan><tspan x="1313.71" y="783.46">Empire </tspan><tspan x="1401.97" y="783.46">is </tspan><tspan x="1428.31" y="783.46">that </tspan><tspan x="1481.17" y="783.46">there </tspan><tspan x="1547.11" y="783.46">is </tspan><tspan x="1573.46" y="783.46">no </tspan><tspan x="1610.03" y="783.46">discrimination </tspan><tspan x="1779.15" y="783.46">between </tspan><tspan x="1880.86" y="783.46">the </tspan><tspan x="1924.75" y="783.46">three </tspan><tspan x="1990.7" y="783.46">classes, </tspan><tspan x="2080.42" y="783.46">the </tspan><tspan x="2124.32" y="783.46">lack </tspan><tspan x="2178.25" y="783.46">of </tspan><tspan x="296" y="813.46">interaction </tspan><tspan x="423.881" y="813.46">in </tspan><tspan x="452.982" y="813.46">practice </tspan><tspan x="548.441" y="813.46">means </tspan><tspan x="626.151" y="813.46">that </tspan><tspan x="677.543" y="813.46">citizens </tspan><tspan x="768.144" y="813.46">of </tspan><tspan x="797.221" y="813.46">each </tspan><tspan x="855.521" y="813.46">class </tspan><tspan x="914.555" y="813.46">are </tspan><tspan x="956.645" y="813.46">not </tspan><tspan x="1000.25" y="813.46">aware </tspan><tspan x="1074.64" y="813.46">of </tspan><tspan x="1103.71" y="813.46">the </tspan><tspan x="1146.15" y="813.46">rights </tspan><tspan x="1216.8" y="813.46">enjoyed </tspan><tspan x="1311.09" y="813.46">by </tspan><tspan x="1345.56" y="813.46">citizens </tspan><tspan x="1436.16" y="813.46">of </tspan><tspan x="1465.24" y="813.46">other </tspan><tspan x="1531.06" y="813.46">classes.</tspan></text><image x="2237" width="773" height="1080" fill="url(#img1719382507439_pattern0_3894_227)" xlink:href="/story/fidelion-4-1/1.png"/><path d="M4254.32 461.885V73.1251H4525.44V155.817H4356.32V226.159H4508.26V308.851H4356.32V461.885H4254.32Z" fill="black"/><path d="M4567.32 461.885V170.315H4668.79V461.885H4567.32ZM4617.78 138.634C4589.87 138.634 4567.32 117.693 4567.32 91.9188C4567.32 66.1446 4589.87 45.2031 4617.78 45.2031C4645.7 45.2031 4668.25 66.1446 4668.25 91.9188C4668.25 117.693 4645.7 138.634 4617.78 138.634Z" fill="black"/><path d="M4828.77 465.644C4765.96 465.644 4713.35 416.78 4713.35 316.369C4713.35 211.124 4769.18 166.556 4827.7 166.556C4871.72 166.556 4898.57 191.794 4909.84 220.79H4911.45V73.1251H5012.92V461.885H4912.53V414.096H4909.84C4898.03 443.092 4870.65 465.644 4828.77 465.644ZM4865.28 387.785C4895.88 387.785 4914.14 359.863 4914.14 315.832C4914.14 271.801 4895.88 244.953 4865.28 244.953C4835.22 244.953 4818.04 271.801 4818.04 315.832C4818.04 360.4 4835.22 387.785 4865.28 387.785Z" fill="black"/><path d="M5205.12 467.255C5112.24 467.255 5055.34 410.874 5055.34 316.906C5055.34 226.696 5112.78 166.556 5202.98 166.556C5289.41 166.556 5346.86 222.4 5346.86 315.832V339.995H5155.73V343.754C5155.73 373.824 5175.06 395.302 5207.27 395.302C5229.28 395.302 5247 385.637 5253.44 368.991H5346.32C5336.12 429.131 5284.58 467.255 5205.12 467.255ZM5155.73 283.077H5252.91C5252.37 256.766 5231.97 238.509 5205.12 238.509C5178.01 238.509 5156.54 257.034 5155.73 283.077Z" fill="black"/><path d="M5491.82 73.1251V461.885H5390.35V73.1251H5491.82Z" fill="black"/><path d="M5546.04 461.885V170.315H5647.51V461.885H5546.04ZM5596.51 138.634C5568.59 138.634 5546.04 117.693 5546.04 91.9188C5546.04 66.1446 5568.59 45.2031 5596.51 45.2031C5624.42 45.2031 5646.97 66.1446 5646.97 91.9188C5646.97 117.693 5624.42 138.634 5596.51 138.634Z" fill="black"/><path d="M5687.77 381.341C5687.77 316.906 5735.56 292.205 5795.15 288.447L5863.33 285.762V262.136C5863.33 246.027 5849.91 236.898 5830.05 236.898C5809.11 236.898 5795.69 246.027 5793 264.283H5699.05C5702.81 211.124 5745.76 166.556 5831.66 166.556C5912.73 166.556 5964.8 206.292 5964.8 262.673V461.885H5869.78V421.076H5867.63C5850.45 452.757 5821.46 466.718 5782.8 466.718C5726.97 466.718 5687.77 439.333 5687.77 381.341ZM5783.34 375.434C5783.34 392.617 5796.76 401.746 5815.55 401.746C5840.78 401.746 5864.41 385.637 5863.87 358.252V342.68C5853.67 342.948 5826.83 344.022 5813.4 345.365C5795.15 347.512 5783.34 359.863 5783.34 375.434Z" fill="black"/><path d="M4254.32 929.756V540.996H4419.68C4506.65 540.996 4563.56 590.397 4563.56 672.552C4563.56 726.248 4538.86 764.372 4496.99 784.24L4576.44 929.756H4465.31L4396.59 800.349H4356.32V929.756H4254.32ZM4356.32 720.341H4396.05C4434.71 720.341 4456.72 706.38 4456.72 672.552C4456.72 638.186 4434.71 622.614 4396.05 622.614H4356.32V720.341Z" fill="black"/><path d="M4743.41 935.126C4650.53 935.126 4593.62 878.745 4593.62 784.777C4593.62 694.567 4651.07 634.428 4741.26 634.428C4827.7 634.428 4885.15 690.272 4885.15 783.703V807.866H4694.02V811.625C4694.02 841.695 4713.35 863.173 4745.56 863.173C4767.57 863.173 4785.29 853.508 4791.73 836.862H4884.61C4874.41 897.002 4822.87 935.126 4743.41 935.126ZM4694.02 750.948H4791.19C4790.66 724.637 4770.26 706.38 4743.41 706.38C4716.3 706.38 4694.82 724.906 4694.02 750.948Z" fill="black"/><path d="M5067.68 1045.2C4980.71 1045.2 4930.24 1005.47 4925.95 949.624H5024.2C5027.42 968.418 5045.67 976.472 5070.37 976.472C5098.82 976.472 5119.22 964.659 5119.22 929.219V879.282H5116.54C5105.27 908.278 5074.66 925.998 5034.4 925.998C4971.58 925.998 4918.97 884.115 4918.97 783.703C4918.97 678.995 4974.8 634.428 5033.32 634.428C5077.35 634.428 5104.19 659.665 5115.47 688.661H5118.15V638.186H5219.62V929.756C5219.62 1003.86 5158.95 1045.2 5067.68 1045.2ZM5070.91 853.508C5101.51 853.508 5119.76 827.734 5119.76 783.703C5119.76 739.672 5101.51 712.824 5070.91 712.824C5040.84 712.824 5023.66 739.672 5023.66 783.703C5023.66 828.271 5040.84 853.508 5070.91 853.508Z" fill="black"/><path d="M5273.84 929.756V638.186H5375.31V929.756H5273.84ZM5324.31 606.506C5296.39 606.506 5273.84 585.564 5273.84 559.79C5273.84 534.016 5296.39 513.074 5324.31 513.074C5352.23 513.074 5374.78 534.016 5374.78 559.79C5374.78 585.564 5352.23 606.506 5324.31 606.506Z" fill="black"/><path d="M5568.59 935.126C5474.64 935.126 5418.26 874.449 5418.26 784.777C5418.26 695.104 5474.64 634.428 5568.59 634.428C5662.54 634.428 5718.38 695.104 5718.38 784.777C5718.38 874.449 5662.54 935.126 5568.59 935.126ZM5569.13 859.951C5597.58 859.951 5614.76 830.419 5614.76 784.24C5614.76 737.524 5597.58 708.528 5569.13 708.528C5539.6 708.528 5521.88 737.524 5521.88 784.24C5521.88 830.419 5539.6 859.951 5569.13 859.951Z" fill="black"/><path d="M5863.87 764.909V929.756H5762.4V638.186H5858.5V692.956H5861.72C5874.61 656.443 5907.89 634.428 5950.84 634.428C6012.58 634.428 6052.85 679.532 6052.31 743.968V929.756H5950.84V764.909C5951.38 734.839 5935.27 717.12 5907.89 717.12C5881.05 717.12 5863.87 734.839 5863.87 764.909Z" fill="black"/><text fill="black" xml:space="preserve" style="white-space: pre" font-family="Charis SIL" font-size="25" letter-spacing="0em"><tspan x="7489.31" y="195.46">Weapons Development
</tspan><tspan x="7043.9" y="229.46">Fidelion&apos;s weapons factories design and produce a wide variety </tspan><tspan x="7040.49" y="259.46">of weapons, primarily based on a single diesel engine. Not only </tspan><tspan x="7044.39" y="289.46">simple weapons are produced here, but also the Empire&apos;s finest </tspan><tspan x="7127.94" y="319.46">weaponry, the &quot;Titans,&quot; such as small bipedal tanks and </tspan><tspan x="7318.68" y="349.46">massive four-legged armored vehicles.</tspan></text><text fill="black" xml:space="preserve" style="white-space: pre" font-family="Charis SIL" font-size="25" letter-spacing="0em"><tspan x="7514.62" y="453.46">Laborer Quarters
</tspan><tspan x="7028.95" y="487.46">The laborers of Fidelion live up to their name and are tasked </tspan><tspan x="7031.25" y="517.46">with providing labor in various areas. Depending on the job, </tspan><tspan x="7118.41" y="547.46">they typically work around 15 hours a day. They are </tspan><tspan x="7029.39" y="577.46">indispensable to Fidelion and ensure its various facilities run </tspan><tspan x="7594.04" y="607.46">smoothly.</tspan></text><text fill="black" xml:space="preserve" style="white-space: pre" font-family="Charis SIL" font-size="25" letter-spacing="0em"><tspan x="7643.28" y="712.46">Slave Quarters
</tspan><tspan x="7009.03" y="746.46">Slaves are primarily made up of rebels and criminals who have rebelled </tspan><tspan x="7005.22" y="776.46">against the Empire or people who have been kidnapped from villages or </tspan><tspan x="7038.13" y="806.46">wandering groups. Unsurprisingly, slave quarters are often much less </tspan><tspan x="7012.08" y="836.46">well-fed and well-behaved than other areas, and access to them is often </tspan><tspan x="7071.7" y="866.46">severely restricted. Slaves typically work harder than workers and </tspan><tspan x="7017.18" y="896.46">sometimes die in the course of their labor. Unsurprisingly, there are no </tspan><tspan x="7522.65" y="926.46">proper burial procedures.</tspan></text><text fill="black" xml:space="preserve" style="white-space: pre" font-family="Charis SIL" font-size="25" letter-spacing="0em"><tspan x="8446" y="71.4604">Military Camps
</tspan><tspan x="8446" y="105.46">These camps are used to train and harden Fidelia&apos;s soldiers, who are </tspan><tspan x="8446" y="135.46">selected from the citizenry on a somewhat irregular basis and without age </tspan><tspan x="8446" y="165.46">restrictions. The intensity of the training is too harsh for the average </tspan><tspan x="8446" y="195.46">person to accept, which is why it&apos;s the site of many casualties. However, it </tspan><tspan x="8446" y="225.46">is not uncommon for civilians to volunteer for military camps, as the </tspan><tspan x="8446" y="255.46">welfare of soldiers is no worse than that of ordinary workers. The soldiers </tspan><tspan x="8446" y="285.46">who complete their training at the camps are considered the strongest </tspan><tspan x="8446" y="315.46">troops in Texas, unrivaled by any outside force.</tspan></text><text fill="black" xml:space="preserve" style="white-space: pre" font-family="Charis SIL" font-size="25" letter-spacing="0em"><tspan x="8503" y="446.46">The Arena
</tspan><tspan x="8503" y="480.46">One of Fidelia&apos;s few forms of entertainment involves gladiators </tspan><tspan x="8503" y="510.46">fighting for their lives — once a week. Defeat in the Arena, no </tspan><tspan x="8503" y="540.46">matter the game, is almost always fatal. For slaves, it was often the </tspan><tspan x="8503" y="570.46">only way to rise in status and gain wealth, and many of them </tspan><tspan x="8503" y="600.46">signed up to fight in the Arena. However, most were forcibly </tspan><tspan x="8503" y="630.46">recruited.</tspan></text><text fill="black" xml:space="preserve" style="white-space: pre" font-family="Charis SIL" font-size="25" letter-spacing="0em"><tspan x="8356" y="726.46">Fidelion
</tspan><tspan x="8356" y="760.46">Smoldering and constantly extracting oil 365 days a year, </tspan><tspan x="8356" y="790.46">Fidelion symbolizes the entire Fidelian Empire and its flagship </tspan><tspan x="8356" y="820.46">oil extraction facility. It is also Jake&apos;s residence; only high-</tspan><tspan x="8356" y="850.46">ranking subjects, such as his generals and top scientists, can live </tspan><tspan x="8356" y="880.46">there.</tspan></text><g style="mix-blend-mode:multiply"><image x="7756" width="687" height="1080" fill="url(#img1719382507439_pattern1_3894_227)" xlink:href="/story/fidelion-4-1/2.png"/></g><image x="5559" width="1418" height="1080" fill="url(#img1719382507439_pattern2_3894_227)" xlink:href="/story/fidelion-4-1/3.png"/><path d="M9508 0H9786.88V68.722H9689.45V323.083H9605.43V68.722H9508V0Z" fill="black"/><path d="M9821.29 0H9906.21V127.18H10025.5V0H10110.9V323.083H10025.5V195.902H9906.21V323.083H9821.29V0Z" fill="black"/><path d="M10154.2 0H10385.3V68.722H10239.2V127.18H10373.2V195.902H10239.2V254.361H10384.9V323.083H10154.2V0Z" fill="black"/><path d="M9727.89 482.434C9724.91 470.832 9718.8 461.833 9709.56 455.436C9700.33 449.04 9688.56 445.842 9674.26 445.842C9659.36 445.842 9646.55 449.486 9635.82 456.775C9625.09 463.915 9616.9 474.402 9611.24 488.235C9605.58 501.92 9602.75 518.283 9602.75 537.323C9602.75 566.626 9608.86 589.385 9621.07 605.598C9633.29 621.663 9650.87 629.696 9673.81 629.696C9693.62 629.696 9708.74 625.382 9719.17 616.754C9729.75 607.978 9735.19 595.93 9735.48 580.609H9675.6V519.919H9817.72V564.097C9817.72 592.806 9811.53 617.721 9799.17 638.844C9786.95 659.817 9769.9 675.882 9748 687.038C9726.1 698.195 9701.07 703.773 9672.91 703.773C9641.78 703.773 9614.29 697.079 9590.46 683.691C9566.62 670.155 9548.07 650.967 9534.82 626.126C9521.71 601.136 9515.15 571.832 9515.15 538.215C9515.15 503.854 9522.08 474.104 9535.93 448.966C9549.79 423.827 9568.63 404.713 9592.47 391.623C9616.45 378.384 9643.12 371.765 9672.47 371.765C9697.5 371.765 9720.36 376.525 9741.07 386.045C9761.78 395.416 9778.54 408.506 9791.35 425.315C9804.16 442.123 9811.76 461.163 9814.14 482.434H9727.89Z" fill="black"/><path d="M9860.17 376.228H9997.83C10021.8 376.228 10042.8 380.616 10060.8 389.392C10079 398.168 10093 410.812 10102.9 427.323C10112.7 443.685 10117.6 463.097 10117.6 485.558C10117.6 507.573 10112.8 526.464 10103.1 542.231C10093.5 557.999 10079.9 570.047 10062.2 578.377L10128.3 699.31H10035.8L9978.39 591.765H9945.09V699.31H9860.17V376.228ZM9978.16 525.274C9994.7 525.274 10007.2 522.076 10015.7 515.68C10024.3 509.283 10028.7 499.243 10028.7 485.558C10028.7 471.576 10024.3 461.163 10015.7 454.321C10007.1 447.478 9994.55 444.057 9978.16 444.057H9945.09V525.274H9978.16Z" fill="black"/><path d="M10156 376.228H10387.1V444.949H10241V503.408H10375V572.13H10241V630.588H10386.6V699.31H10156V376.228Z" fill="black"/><path d="M10419.7 699.31L10527.4 376.228H10643.2L10750.4 699.31H10658.8L10639.4 635.943H10531L10511.8 699.31H10419.7ZM10619.7 571.684L10586.4 463.246H10583.7L10550.7 571.684H10619.7Z" fill="black"/><path d="M10732.1 376.228H11011V444.949H10913.6V699.31H10829.5V444.949H10732.1V376.228Z" fill="black"/><path d="M9727.89 858.662C9724.91 847.059 9718.8 838.06 9709.56 831.664C9700.33 825.268 9688.56 822.07 9674.26 822.07C9659.36 822.07 9646.55 825.714 9635.82 833.003C9625.09 840.143 9616.9 850.629 9611.24 864.463C9605.58 878.148 9602.75 894.51 9602.75 913.55C9602.75 942.854 9608.86 965.612 9621.07 981.826C9633.29 997.891 9650.87 1005.92 9673.81 1005.92C9693.62 1005.92 9708.74 1001.61 9719.17 992.982C9729.75 984.206 9735.19 972.157 9735.48 956.836H9675.6V896.146H9817.72V940.325C9817.72 969.033 9811.53 993.949 9799.17 1015.07C9786.95 1036.04 9769.9 1052.11 9748 1063.27C9726.1 1074.42 9701.07 1080 9672.91 1080C9641.78 1080 9614.29 1073.31 9590.46 1059.92C9566.62 1046.38 9548.07 1027.19 9534.82 1002.35C9521.71 977.363 9515.15 948.06 9515.15 914.443C9515.15 880.082 9522.08 850.332 9535.93 825.193C9549.79 800.055 9568.63 780.94 9592.47 767.851C9616.45 754.612 9643.12 747.993 9672.47 747.993C9697.5 747.993 9720.36 752.753 9741.07 762.272C9761.78 771.644 9778.54 784.734 9791.35 801.542C9804.16 818.351 9811.76 837.391 9814.14 858.662H9727.89Z" fill="black"/><path d="M9837.83 1080L9945.54 756.917H10061.3L10168.6 1080H10076.9L10057.5 1016.63H9949.11L9929.89 1080H9837.83ZM10037.8 952.373L10004.5 843.936H10001.8L9968.78 952.373H10037.8Z" fill="black"/><path d="M10150.2 756.917H10429.1V825.639H10331.7V1080H10247.7V825.639H10150.2V756.917Z" fill="black"/><path d="M10463.5 756.917H10694.6V825.639H10548.4V884.098H10682.5V952.82H10548.4V1011.28H10694.1V1080H10463.5V756.917Z" fill="black"/><image x="11101" width="1750" height="1080" fill="url(#img1719382507439_pattern3_3894_227)" xlink:href="/story/fidelion-4-1/4.png"/><text fill="white" xml:space="preserve" style="white-space: pre" font-family="Charis SIL" font-size="25" letter-spacing="0em"><tspan x="11201" y="134.46">Fidelia&apos;s Great Gate is the only entrance to the city. 
</tspan><tspan x="11201" y="168.46">The gate was built to serve a defensive purpose, protecting the Empire from outside forces, 
</tspan><tspan x="11201" y="202.46">but its grandeur was also intended to show the outside world the Empire&apos;s majesty.</tspan></text><defs><pattern id="img1719382507439_pattern0_3894_227" patternContentUnits="objectBoundingBox" width="1" height="1"><use xlink:href="#image0_3894_227" transform="scale(0.00043122 0.000308642)"/></pattern><pattern id="img1719382507439_pattern1_3894_227" patternContentUnits="objectBoundingBox" width="1" height="1"><use xlink:href="#image1_3894_227" transform="scale(0.000485201 0.000308642)"/></pattern><pattern id="img1719382507439_pattern2_3894_227" patternContentUnits="objectBoundingBox" width="1" height="1"><use xlink:href="#image2_3894_227" transform="scale(0.000705219 0.000925926)"/></pattern><pattern id="img1719382507439_pattern3_3894_227" patternContentUnits="objectBoundingBox" width="1" height="1"><use xlink:href="#image3_3894_227" transform="scale(0.000571429 0.000925926)"/></pattern><clipPath id="clip0_3894_227"><rect width="1904" height="492" fill="white" transform="translate(296 167)"/></clipPath><image id="image0_3894_227" width="2319" height="3240" xlink:href="/story/fidelion-4-1/1.png"/><image id="image1_3894_227" width="2061" height="3240" xlink:href="/story/fidelion-4-1/2.png"/><image id="image2_3894_227" width="1418" height="1080" xlink:href="/story/fidelion-4-1/3.png"/><image id="image3_3894_227" width="1750" height="1080" xlink:href="/story/fidelion-4-1/4.png"/></defs></svg>