<svg width="17318" height="1080" viewBox="0 0 17318 1080" fill="none" xmlns="http://www.w3.org/2000/svg" xmlns:xlink="http://www.w3.org/1999/xlink"><g clip-path="url(#clip0_3305_559)"><rect width="17318" height="1080" fill="black"/><g clip-path="url(#clip1_3305_559)"><path d="M399 0H302V1080H399V0Z" fill="#CA0014"/><image x="399" width="1000" height="1080" fill="url(#img1714055188584_pattern0_3305_559)" xlink:href="/story/fidelion-5/1.png"/><text fill="white" xml:space="preserve" style="white-space: pre" font-family="Pretendard" font-size="220" letter-spacing="0em"><tspan x="1334" y="733.203">FIDELIANS</tspan></text><text fill="white" xml:space="preserve" style="white-space: pre" font-family="Pretendard" font-size="80" letter-spacing="0em"><tspan x="1754.94" y="819.938">Main Character Bio</tspan></text><image x="2599" y="59" width="320" height="769" fill="url(#img1714055188584_pattern1_3305_559)" xlink:href="/story/fidelion-5/2.png"/><text fill="white" xml:space="preserve" style="white-space: pre" font-family="Pretendard" font-size="25" letter-spacing="0em"><tspan x="2619" y="994.664">피델리아의 황제</tspan></text><text fill="white" xml:space="preserve" style="white-space: pre" font-family="Pretendard" font-size="30" font-weight="bold" letter-spacing="0em"><tspan x="2619" y="964.664">Jake
</tspan></text><image x="2981" y="245" width="320" height="769" fill="url(#img1714055188584_pattern2_3305_559)" xlink:href="/story/fidelion-5/3.png"/><text fill="white" xml:space="preserve" style="white-space: pre" font-family="Pretendard" font-size="25" letter-spacing="0em"><tspan x="3001" y="994.664">피델리아의 황후</tspan></text><text fill="white" xml:space="preserve" style="white-space: pre" font-family="Pretendard" font-size="30" font-weight="bold" letter-spacing="0em"><tspan x="3001" y="964.664">Celine
</tspan></text><image x="3363" y="311" width="320" height="769" fill="url(#img1714055188584_pattern3_3305_559)" xlink:href="/story/fidelion-5/4.png"/><text fill="white" xml:space="preserve" style="white-space: pre" font-family="Pretendard" font-size="25" letter-spacing="0em"><tspan x="3383" y="994.664">코삭스의 리더</tspan></text><text fill="white" xml:space="preserve" style="white-space: pre" font-family="Pretendard" font-size="30" font-weight="bold" letter-spacing="0em"><tspan x="3383" y="964.664">Kin
</tspan></text><image x="3745" width="320" height="769" fill="url(#img1714055188584_pattern4_3305_559)" xlink:href="/story/fidelion-5/5.png"/><text fill="white" xml:space="preserve" style="white-space: pre" font-family="Pretendard" font-size="25" letter-spacing="0em"><tspan x="3765" y="994.664">피델리아의 총사령관</tspan></text><text fill="white" xml:space="preserve" style="white-space: pre" font-family="Pretendard" font-size="30" font-weight="bold" letter-spacing="0em"><tspan x="3765" y="964.664">Melphine
</tspan></text><image x="4127" y="349" width="320" height="769" fill="url(#img1714055188584_pattern5_3305_559)" xlink:href="/story/fidelion-5/6.png"/><text fill="white" xml:space="preserve" style="white-space: pre" font-family="Pretendard" font-size="25" letter-spacing="0em"><tspan x="4147" y="994.664">피델리아 엠파이어 제너럴</tspan></text><text fill="white" xml:space="preserve" style="white-space: pre" font-family="Pretendard" font-size="30" font-weight="bold" letter-spacing="0em"><tspan x="4147" y="964.664">Nagano
</tspan></text></g><g clip-path="url(#clip2_3305_559)"><path d="M4703 0H4606V1080H4703V0Z" fill="#CA0014"/><image x="4703" width="5557" height="1080" fill="url(#img1714055188584_pattern6_3305_559)" xlink:href="/story/fidelion-5/7.png"/><image x="4818" width="298" height="782" fill="url(#img1714055188584_pattern7_3305_559)" xlink:href="/story/fidelion-5/8.png"/><text fill="white" xml:space="preserve" style="white-space: pre" font-family="Pretendard" font-size="22" font-weight="bold" letter-spacing="0em"><tspan x="4841" y="73.8203">병사</tspan></text><text fill="white" xml:space="preserve" style="white-space: pre" font-family="Pretendard" font-size="50" font-weight="bold" letter-spacing="0em"><tspan x="4841" y="126.773">PRIVATE</tspan></text><text fill="white" xml:space="preserve" style="white-space: pre" font-family="Pretendard" font-size="20" letter-spacing="0em"><tspan x="4818" y="819.609">Sergeant</tspan></text><text fill="#EEEEEE" xml:space="preserve" style="white-space: pre" font-family="Pretendard" font-size="20" letter-spacing="0em"><tspan x="5081" y="819.609">병장</tspan></text><text fill="white" xml:space="preserve" style="white-space: pre" font-family="Pretendard" font-size="20" letter-spacing="0em"><tspan x="4818" y="842.609">Corporal</tspan></text><text fill="#EEEEEE" xml:space="preserve" style="white-space: pre" font-family="Pretendard" font-size="20" letter-spacing="0em"><tspan x="5081" y="842.609">상병</tspan></text><text fill="white" xml:space="preserve" style="white-space: pre" font-family="Pretendard" font-size="20" letter-spacing="0em"><tspan x="4818" y="865.609">Private First Class</tspan></text><text fill="#EEEEEE" xml:space="preserve" style="white-space: pre" font-family="Pretendard" font-size="20" letter-spacing="0em"><tspan x="5081" y="865.609">일병</tspan></text><text fill="white" xml:space="preserve" style="white-space: pre" font-family="Pretendard" font-size="20" letter-spacing="0em"><tspan x="4818" y="888.609">Private</tspan></text><text fill="#EEEEEE" xml:space="preserve" style="white-space: pre" font-family="Pretendard" font-size="20" letter-spacing="0em"><tspan x="5081" y="888.609">이병</tspan></text><image x="5448" width="298" height="782" fill="url(#img1714055188584_pattern8_3305_559)" xlink:href="/story/fidelion-5/9.png"/><text fill="white" xml:space="preserve" style="white-space: pre" font-family="Pretendard" font-size="22" font-weight="bold" letter-spacing="0em"><tspan x="5471" y="73.8203">위관</tspan></text><text fill="white" xml:space="preserve" style="white-space: pre" font-family="Pretendard" font-size="50" font-weight="bold" letter-spacing="0em"><tspan x="5471" y="126.773">COMPANY 
</tspan><tspan x="5471" y="176.773">OFFICER</tspan></text><text fill="white" xml:space="preserve" style="white-space: pre" font-family="Pretendard" font-size="20" letter-spacing="0em"><tspan x="5448" y="819.609">Captain</tspan></text><text fill="#EEEEEE" xml:space="preserve" style="white-space: pre" font-family="Pretendard" font-size="20" letter-spacing="0em"><tspan x="5711" y="819.609">대위</tspan></text><text fill="white" xml:space="preserve" style="white-space: pre" font-family="Pretendard" font-size="20" letter-spacing="0em"><tspan x="5448" y="842.609">First Lieutenant</tspan></text><text fill="#EEEEEE" xml:space="preserve" style="white-space: pre" font-family="Pretendard" font-size="20" letter-spacing="0em"><tspan x="5711" y="842.609">중위</tspan></text><text fill="white" xml:space="preserve" style="white-space: pre" font-family="Pretendard" font-size="20" letter-spacing="0em"><tspan x="5448" y="865.609">Second Lieutenant</tspan></text><text fill="#EEEEEE" xml:space="preserve" style="white-space: pre" font-family="Pretendard" font-size="20" letter-spacing="0em"><tspan x="5711" y="865.609">소위</tspan></text><image x="5133" width="298" height="782" fill="url(#img1714055188584_pattern9_3305_559)" xlink:href="/story/fidelion-5/10.png"/><text fill="white" xml:space="preserve" style="white-space: pre" font-family="Pretendard" font-size="22" font-weight="bold" letter-spacing="0em"><tspan x="5156" y="73.8203">부사관</tspan></text><text fill="white" xml:space="preserve" style="white-space: pre" font-family="Pretendard" font-size="50" font-weight="bold" letter-spacing="0em"><tspan x="5156" y="126.773">PRIVATE</tspan></text><text fill="white" xml:space="preserve" style="white-space: pre" font-family="Pretendard" font-size="20" letter-spacing="0em"><tspan x="5133" y="819.609">Sergeant Major</tspan></text><text fill="#EEEEEE" xml:space="preserve" style="white-space: pre" font-family="Pretendard" font-size="20" letter-spacing="0em"><tspan x="5396" y="819.609">원사</tspan></text><text fill="white" xml:space="preserve" style="white-space: pre" font-family="Pretendard" font-size="20" letter-spacing="0em"><tspan x="5133" y="842.609">Master Sergeant</tspan></text><text fill="#EEEEEE" xml:space="preserve" style="white-space: pre" font-family="Pretendard" font-size="20" letter-spacing="0em"><tspan x="5396" y="842.609">상사</tspan></text><text fill="white" xml:space="preserve" style="white-space: pre" font-family="Pretendard" font-size="20" letter-spacing="0em"><tspan x="5133" y="865.609">Sergeant First Class</tspan></text><text fill="#EEEEEE" xml:space="preserve" style="white-space: pre" font-family="Pretendard" font-size="20" letter-spacing="0em"><tspan x="5396" y="865.609">중사</tspan></text><text fill="white" xml:space="preserve" style="white-space: pre" font-family="Pretendard" font-size="20" letter-spacing="0em"><tspan x="5133" y="888.609">Staff Sergeant</tspan></text><text fill="#EEEEEE" xml:space="preserve" style="white-space: pre" font-family="Pretendard" font-size="20" letter-spacing="0em"><tspan x="5396" y="888.609">하사</tspan></text><image x="5763" width="298" height="782" fill="url(#img1714055188584_pattern10_3305_559)" xlink:href="/story/fidelion-5/11.png"/><text fill="white" xml:space="preserve" style="white-space: pre" font-family="Pretendard" font-size="22" font-weight="bold" letter-spacing="0em"><tspan x="5786" y="73.8203">영관</tspan></text><text fill="white" xml:space="preserve" style="white-space: pre" font-family="Pretendard" font-size="50" font-weight="bold" letter-spacing="0em"><tspan x="5786" y="126.773">FIELD 
</tspan><tspan x="5786" y="176.773">OFFICER</tspan></text><text fill="white" xml:space="preserve" style="white-space: pre" font-family="Pretendard" font-size="20" letter-spacing="0em"><tspan x="5763" y="819.609">Colonel</tspan></text><text fill="#EEEEEE" xml:space="preserve" style="white-space: pre" font-family="Pretendard" font-size="20" letter-spacing="0em"><tspan x="6026" y="819.609">대령</tspan></text><text fill="white" xml:space="preserve" style="white-space: pre" font-family="Pretendard" font-size="20" letter-spacing="0em"><tspan x="5763" y="842.609">Lieutenant Colonel</tspan></text><text fill="#EEEEEE" xml:space="preserve" style="white-space: pre" font-family="Pretendard" font-size="20" letter-spacing="0em"><tspan x="6026" y="842.609">중령</tspan></text><text fill="white" xml:space="preserve" style="white-space: pre" font-family="Pretendard" font-size="20" letter-spacing="0em"><tspan x="5763" y="865.609">Major</tspan></text><text fill="#EEEEEE" xml:space="preserve" style="white-space: pre" font-family="Pretendard" font-size="20" letter-spacing="0em"><tspan x="6026" y="865.609">소령</tspan></text><image x="6078" width="298" height="782" fill="url(#img1714055188584_pattern11_3305_559)" xlink:href="/story/fidelion-5/12.png"/><text fill="white" xml:space="preserve" style="white-space: pre" font-family="Pretendard" font-size="22" font-weight="bold" letter-spacing="0em"><tspan x="6101" y="73.8203">장군</tspan></text><text fill="white" xml:space="preserve" style="white-space: pre" font-family="Pretendard" font-size="50" font-weight="bold" letter-spacing="0em"><tspan x="6101" y="126.773">GENERAL 
</tspan><tspan x="6101" y="176.773">OFFICER</tspan></text><text fill="white" xml:space="preserve" style="white-space: pre" font-family="Pretendard" font-size="20" letter-spacing="0em"><tspan x="6078" y="819.609">General of the Army</tspan></text><text fill="#EEEEEE" xml:space="preserve" style="white-space: pre" font-family="Pretendard" font-size="20" letter-spacing="0em"><tspan x="6341" y="819.609">원수</tspan></text><text fill="white" xml:space="preserve" style="white-space: pre" font-family="Pretendard" font-size="20" letter-spacing="0em"><tspan x="6078" y="842.609">General</tspan></text><text fill="#EEEEEE" xml:space="preserve" style="white-space: pre" font-family="Pretendard" font-size="20" letter-spacing="0em"><tspan x="6341" y="842.609">대장</tspan></text><text fill="white" xml:space="preserve" style="white-space: pre" font-family="Pretendard" font-size="20" letter-spacing="0em"><tspan x="6078" y="865.609">Lieutenant General</tspan></text><text fill="#EEEEEE" xml:space="preserve" style="white-space: pre" font-family="Pretendard" font-size="20" letter-spacing="0em"><tspan x="6341" y="865.609">중장</tspan></text><text fill="white" xml:space="preserve" style="white-space: pre" font-family="Pretendard" font-size="20" letter-spacing="0em"><tspan x="6078" y="888.609">Major General</tspan></text><text fill="#EEEEEE" xml:space="preserve" style="white-space: pre" font-family="Pretendard" font-size="20" letter-spacing="0em"><tspan x="6341" y="888.609">소장</tspan></text><text fill="white" xml:space="preserve" style="white-space: pre" font-family="Pretendard" font-size="20" letter-spacing="0em"><tspan x="6078" y="911.609">Brigadier General</tspan></text><text fill="#EEEEEE" xml:space="preserve" style="white-space: pre" font-family="Pretendard" font-size="20" letter-spacing="0em"><tspan x="6341" y="911.609">준장</tspan></text></g><image x="10777" y="840" width="651" height="240" fill="url(#img1714055188584_pattern12_3305_559)" xlink:href="/story/fidelion-5/13.png"/><image x="11450" y="29" width="437" height="1022" fill="url(#img1714055188584_pattern13_3305_559)" xlink:href="/story/fidelion-5/14.png"/><text fill="white" xml:space="preserve" style="white-space: pre" font-family="Pretendard" font-size="25" letter-spacing="0em"><tspan x="11920" y="57.8867">다년간 피델리아 제국은 공포정치를 기반으로 </tspan><tspan x="11920" y="87.8867">한 정치체계를 기반으로 국가를 통치했으며, 혹</tspan><tspan x="11920" y="117.887">독하게 훈련을 받은 군인들을 통해 텍사스 전역</tspan><tspan x="11920" y="147.887">에 압도적인 군사적 우위를 확립했다. 코삭스와 </tspan><tspan x="11920" y="177.887">헌터즈와 같은 동맹 집단의 지원까지 가세한 현 </tspan><tspan x="11920" y="207.887">시점에서 제이크 마커스의 독재 체제를 막을 수 </tspan><tspan x="11920" y="237.887">있는 세력은 존재하지 않는 것으로 보인다.</tspan></text><image x="11963" y="316" width="423" height="290" fill="url(#img1714055188584_pattern14_3305_559)" xlink:href="/story/fidelion-5/15.png"/><text fill="white" xml:space="preserve" style="white-space: pre" font-family="Pretendard" font-size="25" letter-spacing="0em"><tspan x="11915" y="668.887">강력한 군사 체제의 중심에는 유능한 인재들이 큰 </tspan><tspan x="11915" y="698.887">역할을 하는데, 이에는 로안 프레드릭 장군과 셀</tspan><tspan x="11915" y="728.887">린 아델 장군의 역할이 간과될 수 없다.</tspan><tspan x="11915" y="758.887"></tspan><tspan x="11915" y="788.887">로안은 제이크의 오른팔로서 오랜 기간 그를 섬겨</tspan><tspan x="11915" y="818.887">왔으며, 여전히 피델리아 제국 최고의 전략가로 </tspan><tspan x="11915" y="848.887">여겨진다.</tspan><tspan x="11915" y="878.887"></tspan><tspan x="11915" y="908.887">피델리아 확장 초기 작은 마을에서 강제 징집된 </tspan><tspan x="11915" y="938.887">인원 중 하나인 셀린은 비록 군인으로서의 경험이</tspan><tspan x="11915" y="968.887">나 정치 지식 등은 매우 결여되었으나, 제이크의 </tspan><tspan x="11915" y="998.887">주목을 받아 누구보다도 빠르게 급성장한 명실상</tspan><tspan x="11915" y="1028.89">부 피델리아 최고 권력의 중심인물이 되었다.</tspan></text><rect width="4482" height="1080" transform="translate(12418)" fill="white"/><image x="12469" width="4380" height="1080" fill="url(#img1714055188584_pattern15_3305_559)" xlink:href="/story/fidelion-5/16.png"/><path d="M13352.4 206H13362V233H13320V206H13329.6V114.6H13320V91.5996L13332.4 87.5996H13352.4V206Z" fill="black"/><path d="M13409.2 206H13418.2V233H13375.6V206H13384.4L13418.4 122.2V114.6H13394.4V132.4H13372.4V87.5996H13443.6V118.2L13409.2 206Z" fill="black"/><path d="M13524.4 213.6C13523.3 218.8 13521.3 223 13518.2 226.2C13515.3 229.266 13511.3 231.533 13506.2 233H13473.8C13468.7 231.533 13464.7 229.266 13461.6 226.2C13458.7 223 13456.7 218.8 13455.6 213.6V188.2H13478.2V200.6C13478.2 203.266 13478.7 205.066 13479.6 206C13480.7 206.8 13481.8 207.466 13483 208H13495C13496.2 207.466 13497.3 206.8 13498.2 206C13499.3 205.066 13499.8 203.266 13499.8 200.6L13500 197V188.4C13500 185.866 13499.7 184.066 13499.2 183C13498.8 181.933 13497.5 180.666 13495.4 179.2L13464.2 159C13461.9 157.4 13459.8 154.933 13457.8 151.6C13455.9 148.266 13455 144.466 13455 140.2V108C13455.5 105.066 13456.5 102.333 13458 99.7996C13459.5 97.2663 13461.1 95.1329 13463 93.3996C13465 91.533 13467.1 90.1329 13469.4 89.1996C13471.8 88.1329 13474.1 87.5996 13476.4 87.5996H13494.4L13500.6 94.3996V87.5996H13523.8V132.4H13500.6V114.6H13484C13482.8 115.666 13481.8 116.8 13481 118C13480.3 119.066 13480 120.933 13480 123.6V137.2C13480 138.933 13480.3 140.333 13480.8 141.4C13481.5 142.466 13482.9 143.733 13485 145.2L13516 165.2C13518.5 166.933 13520.5 169.333 13522 172.4C13523.6 175.466 13524.4 178.333 13524.4 181V213.6Z" fill="black"/><path d="M13588 127.8C13588 124.733 13587.8 122.066 13587.4 119.8C13587 117.533 13585.1 115.8 13581.6 114.6H13566.6V165.2H13581.6C13585.1 164 13587 162.266 13587.4 160C13587.8 157.733 13588 155.066 13588 152V127.8ZM13593 87.5996C13598.1 89.0663 13602.1 91.3996 13605 94.5996C13608 97.6663 13610 101.8 13611 107V163.6C13610.8 165.733 13610.1 167.933 13609 170.2C13608 172.466 13606.5 174.6 13604.6 176.6C13602.9 178.6 13600.8 180.266 13598.2 181.6C13595.8 182.933 13593.1 183.8 13590 184.2H13566.6V206H13575V233H13535.4V206H13543.8V114.6H13535.4V87.5996H13593Z" fill="black"/><text fill="black" xml:space="preserve" style="white-space: pre" font-family="Pretendard" font-size="25" letter-spacing="0em"><tspan x="13315" y="280.887">피델리아의 군 보좌관과 엔지니어</tspan><tspan x="13315" y="310.887">들은 제이크의 지휘 아래 진보된 </tspan><tspan x="13315" y="340.887">병기 기술을 개발하고 발전시키는 </tspan><tspan x="13315" y="370.887">데에 최선을 다해왔다. 
</tspan><tspan x="13315" y="400.887">
</tspan><tspan x="13315" y="430.887">이러한 노력은 당대 기술과 상식 </tspan><tspan x="13315" y="460.887">수준으로는 미치기 어려운, 이족보</tspan><tspan x="13315" y="490.887">행 전투 병기 &apos;티탄&apos;을 만들어낼 수 </tspan><tspan x="13315" y="520.887">있는 우월한 기술력을 확보하는 결</tspan><tspan x="13315" y="550.887">과를 가져왔다.</tspan></text><image x="14827" y="496" width="300" height="323" fill="url(#img1714055188584_pattern16_3305_559)" xlink:href="/story/fidelion-5/17.png"/><path d="M15196.2 718.4V700.6H15177.2V738.8H15195.6V731.4H15209.6V762.4H15195.6V755H15177.2V792H15185.6V819H15146V792H15154.4V700.6H15146V673.6H15218.2V718.4H15196.2Z" fill="black"/><path d="M15299.6 799.6C15298.5 804.8 15296.5 809 15293.4 812.2C15290.5 815.266 15286.5 817.533 15281.4 819H15249C15243.9 817.533 15239.9 815.266 15236.8 812.2C15233.9 809 15231.9 804.8 15230.8 799.6V774.2H15253.4V786.6C15253.4 789.266 15253.9 791.066 15254.8 792C15255.9 792.8 15257 793.466 15258.2 794H15270.2C15271.4 793.466 15272.5 792.8 15273.4 792C15274.5 791.066 15275 789.266 15275 786.6L15275.2 783V774.4C15275.2 771.866 15274.9 770.066 15274.4 769C15274 767.933 15272.7 766.666 15270.6 765.2L15239.4 745C15237.1 743.4 15235 740.933 15233 737.6C15231.1 734.266 15230.2 730.466 15230.2 726.2V694C15230.7 691.066 15231.7 688.333 15233.2 685.8C15234.7 683.266 15236.3 681.133 15238.2 679.4C15240.2 677.533 15242.3 676.133 15244.6 675.2C15247 674.133 15249.3 673.6 15251.6 673.6H15269.6L15275.8 680.4V673.6H15299V718.4H15275.8V700.6H15259.2C15258 701.666 15257 702.8 15256.2 704C15255.5 705.066 15255.2 706.933 15255.2 709.6V723.2C15255.2 724.933 15255.5 726.333 15256 727.4C15256.7 728.466 15258.1 729.733 15260.2 731.2L15291.2 751.2C15293.7 752.933 15295.7 755.333 15297.2 758.4C15298.8 761.466 15299.6 764.333 15299.6 767V799.6Z" fill="black"/><path d="M15312.6 693C15313.7 687.8 15315.7 683.666 15318.6 680.6C15321.7 677.4 15325.8 675.066 15330.8 673.6H15362.6C15367.7 675.066 15371.7 677.4 15374.6 680.6C15377.7 683.666 15379.8 687.8 15380.8 693V736.4C15380.2 738.8 15379.1 740.8 15377.6 742.4C15376.2 744 15374.3 745.533 15372 747C15374.3 748.466 15376.2 750 15377.6 751.6C15379.1 753.2 15380.2 755.2 15380.8 757.6V799.6C15379.8 804.8 15377.7 809 15374.6 812.2C15371.7 815.266 15367.7 817.533 15362.6 819H15330.8C15325.8 817.533 15321.7 815.266 15318.6 812.2C15315.7 809 15313.7 804.8 15312.6 799.6V757.6C15313.3 755.2 15314.4 753.2 15315.8 751.6C15317.3 750 15319.2 748.466 15321.4 747C15319.2 745.533 15317.3 744 15315.8 742.4C15314.4 740.8 15313.3 738.8 15312.6 736.4V693ZM15335.2 784.6C15335.2 787.266 15335.7 789.066 15336.6 790C15337.7 790.8 15338.8 791.466 15340 792H15353.4C15354.6 791.466 15355.7 790.8 15356.6 790C15357.7 789.066 15358.2 787.266 15358.2 784.6V761.8C15358 759.133 15356.8 757.4 15354.8 756.6H15338.6C15336.6 757.4 15335.5 759.133 15335.2 761.8V784.6ZM15335.2 732C15335.5 734.666 15336.6 736.4 15338.6 737.2H15354.8C15356.8 736.4 15358 734.666 15358.2 732V708C15358.2 705.333 15357.7 703.6 15356.6 702.8C15355.7 701.866 15354.6 701.133 15353.4 700.6H15340C15338.8 701.133 15337.7 701.866 15336.6 702.8C15335.7 703.6 15335.2 705.333 15335.2 708V732Z" fill="black"/><text fill="black" xml:space="preserve" style="white-space: pre" font-family="Pretendard" font-size="25" letter-spacing="0em"><tspan x="13957" y="119.887">본 이족보행 탱크는 사실상 피델리아 제국 최강의 전쟁 병기로, 전면에 단일 연장형 자주포와 두 기의 기관총을 장착하고 있다. 본 병기는 기본적으</tspan><tspan x="13957" y="149.887">로 디젤을 연료로 활용하며, 다수의 적군을 상대로도 어마어마한 전투력을 보이기 때문에 피델리아에 저항하는 세력 사이에서는 매우 악명이 높다.
</tspan><tspan x="13957" y="183.887">
</tspan><tspan x="13957" y="217.887">피델리아의 붉은 가스 마스크는 비인간적이고 억압된 피델리온의 철권 체제를 상징하기도 하며, 동시에 독재 구조 아래에 억압당하는 국민들을 표</tspan><tspan x="13957" y="247.887">방하기도 한다. 피델리아 군대에서의 붉은 가스 마스크는 이를 보는 사람으로 하여금 공포와 권력에 대한 탐욕을 떠올리게 하는데, 피델리아에서는 </tspan><tspan x="13957" y="277.887">이를 의도적으로 착용하여 공포정치의 일환으로 활용되기도 한다.
</tspan></text><text fill="black" xml:space="preserve" style="white-space: pre" font-family="Pretendard" font-size="25" letter-spacing="0em"><tspan x="14827" y="873.887">또한 피델리아의 군인은 적들에게 공포를 심어주기 위해 </tspan><tspan x="14827" y="903.887">붉은 가스 마스크를 착용하곤 한다. 빨간색은 죽음, 피, 그</tspan><tspan x="14827" y="933.887">리고 전쟁을 상징한다.</tspan></text><path d="M17111 0H17014V1080H17111V0Z" fill="#CA0014"/></g><defs><pattern id="img1714055188584_pattern0_3305_559" patternContentUnits="objectBoundingBox" width="1" height="1"><use xlink:href="#image0_3305_559" transform="scale(0.001 0.000925926)"/></pattern><pattern id="img1714055188584_pattern1_3305_559" patternContentUnits="objectBoundingBox" width="1" height="1"><use xlink:href="#image1_3305_559" transform="matrix(0.00412908 0 0 0.00171821 -0.707756 0)"/></pattern><pattern id="img1714055188584_pattern2_3305_559" patternContentUnits="objectBoundingBox" width="1" height="1"><use xlink:href="#image2_3305_559" transform="matrix(0.00358675 0 0 0.00149254 -0.687215 0)"/></pattern><pattern id="img1714055188584_pattern3_3305_559" patternContentUnits="objectBoundingBox" width="1" height="1"><use xlink:href="#image3_3305_559" transform="matrix(0.00358675 0 0 0.00149254 -0.714116 0)"/></pattern><pattern id="img1714055188584_pattern4_3305_559" patternContentUnits="objectBoundingBox" width="1" height="1"><use xlink:href="#image4_3305_559" transform="matrix(0.00194743 0 0 0.000810373 -0.701562 0)"/></pattern><pattern id="img1714055188584_pattern5_3305_559" patternContentUnits="objectBoundingBox" width="1" height="1"><use xlink:href="#image5_3305_559" transform="matrix(0.00188038 0 0 0.000782473 -0.701562 0)"/></pattern><pattern id="img1714055188584_pattern6_3305_559" patternContentUnits="objectBoundingBox" width="1" height="1"><use xlink:href="#image6_3305_559" transform="scale(0.000244158 0.00125628)"/></pattern><pattern id="img1714055188584_pattern7_3305_559" patternContentUnits="objectBoundingBox" width="1" height="1"><use xlink:href="#image7_3305_559" transform="matrix(0.003367 0 0 0.00128308 0 -0.0016835)"/></pattern><pattern id="img1714055188584_pattern8_3305_559" patternContentUnits="objectBoundingBox" width="1" height="1"><use xlink:href="#image8_3305_559" transform="scale(0.0033557 0.00127877)"/></pattern><pattern id="img1714055188584_pattern9_3305_559" patternContentUnits="objectBoundingBox" width="1" height="1"><use xlink:href="#image9_3305_559" transform="scale(0.0033557 0.00127877)"/></pattern><pattern id="img1714055188584_pattern10_3305_559" patternContentUnits="objectBoundingBox" width="1" height="1"><use xlink:href="#image10_3305_559" transform="scale(0.0033557 0.00127877)"/></pattern><pattern id="img1714055188584_pattern11_3305_559" patternContentUnits="objectBoundingBox" width="1" height="1"><use xlink:href="#image11_3305_559" transform="scale(0.0033557 0.00127877)"/></pattern><pattern id="img1714055188584_pattern12_3305_559" patternContentUnits="objectBoundingBox" width="1" height="1"><use xlink:href="#image12_3305_559" transform="scale(0.0015361 0.00416667)"/></pattern><pattern id="img1714055188584_pattern13_3305_559" patternContentUnits="objectBoundingBox" width="1" height="1"><use xlink:href="#image13_3305_559" transform="matrix(0.000606061 0 0 0.000259147 0 -0.000283757)"/></pattern><pattern id="img1714055188584_pattern14_3305_559" patternContentUnits="objectBoundingBox" width="1" height="1"><use xlink:href="#image14_3305_559" transform="scale(0.00118203 0.00172414)"/></pattern><pattern id="img1714055188584_pattern15_3305_559" patternContentUnits="objectBoundingBox" width="1" height="1"><use xlink:href="#image15_3305_559" transform="scale(0.000244141 0.000990126)"/></pattern><pattern id="img1714055188584_pattern16_3305_559" patternContentUnits="objectBoundingBox" width="1" height="1"><use xlink:href="#image16_3305_559" transform="matrix(0.00108426 0 0 0.00100705 -0.00201074 0)"/></pattern><clipPath id="clip0_3305_559"><rect width="17318" height="1080" fill="white"/></clipPath><clipPath id="clip1_3305_559"><rect width="4606" height="1080" fill="white"/></clipPath><clipPath id="clip2_3305_559"><rect width="5654" height="1080" fill="white" transform="translate(4606)"/></clipPath><image id="image0_3305_559" width="1000" height="1080" xlink:href="/story/fidelion-5/1.png"/><image id="image1_3305_559" width="585" height="582" xlink:href="/story/fidelion-5/2.png"/><image id="image2_3305_559" width="662" height="670" xlink:href="/story/fidelion-5/3.png"/><image id="image3_3305_559" width="677" height="670" xlink:href="/story/fidelion-5/4.png"/><image id="image4_3305_559" width="1234" height="1234" xlink:href="/story/fidelion-5/5.png"/><image id="image5_3305_559" width="1278" height="1278" xlink:href="/story/fidelion-5/6.png"/><image id="image6_3305_559" width="4096" height="796" xlink:href="/story/fidelion-5/7.png"/><image id="image7_3305_559" width="297" height="782" xlink:href="/story/fidelion-5/8.png"/><image id="image8_3305_559" width="298" height="782" xlink:href="/story/fidelion-5/9.png"/><image id="image9_3305_559" width="298" height="782" xlink:href="/story/fidelion-5/10.png"/><image id="image10_3305_559" width="298" height="782" xlink:href="/story/fidelion-5/11.png"/><image id="image11_3305_559" width="298" height="782" xlink:href="/story/fidelion-5/12.png"/><image id="image12_3305_559" width="651" height="240" xlink:href="/story/fidelion-5/13.png"/><image id="image13_3305_559" width="1650" height="3861" xlink:href="/story/fidelion-5/14.png"/><image id="image14_3305_559" width="846" height="580" xlink:href="/story/fidelion-5/15.png"/><image id="image15_3305_559" width="4096" height="1010" xlink:href="/story/fidelion-5/16.png"/><image id="image16_3305_559" width="926" height="993" xlink:href="/story/fidelion-5/17.png"/></defs></svg>