<svg width="14931" height="1080" viewBox="0 0 14931 1080" fill="none" xmlns="http://www.w3.org/2000/svg" xmlns:xlink="http://www.w3.org/1999/xlink"><g clip-path="url(#clip0_3616_254)"><rect width="14931" height="1080" fill="black"/><image width="4051" height="1080" fill="url(#img1719221787279_pattern0_3616_254)" xlink:href="/story/fidelion-2/1.png"/><image x="3271" width="3505" height="1080" fill="url(#img1719221787279_pattern1_3616_254)" xlink:href="/story/fidelion-2/2.png"/><text fill="white" xml:space="preserve" style="white-space: pre" font-family="Pretendard-Black" font-size="260" letter-spacing="-0.03em"><tspan x="1629" y="261.422">The
</tspan><tspan x="1629" y="473.422">Beginning</tspan></text><text fill="black" xml:space="preserve" style="white-space: pre" font-family="Pretendard" font-size="25" letter-spacing="0em"><tspan x="1694" y="839.887">황무지로 변한 대지를 지나 제이크와 그 추종자들은 과거 텍사스 주였던 곳에 도착한다. 그곳에는 아직 오염되지 </tspan><tspan x="1694" y="871.887">않은 강들을 중심으로 이미 사람들의 거주지가 형성되어 있었다. 식량 생산을 위한 집단 농장이 존재했고, 파손되</tspan><tspan x="1694" y="903.887">지 않은 정유소가 존재하여 석유도 채굴되고 있었다. 문제는, 그 지역에는 이미 지배자가 존재했다는 것이다. ‘울프</tspan><tspan x="1694" y="935.887">갱’은 무장 폭력 조직으로, 농장과 정유소를 비롯한 각종 시설을 독점하고 살아남은 사람들을 노예처럼 부리고 있</tspan><tspan x="1694" y="967.887">었다. 그들은 먹을 것을 구하여 모여든 사람들을 지휘하여 생산 체제를 정비하였지만, 그로 인해 얻어진 생산물들</tspan><tspan x="1694" y="999.887">은 대부분 자신들이 독점하는 불합리한 사회를 구축하고 있었다. 제이크는 그곳에서 기억에 있는 사람을 만나게 된</tspan><tspan x="1694" y="1031.89">다. 과거 자신의 아버지의 절친한 지인이자 멘토였던 퇴역 장성 ‘나가노’ 장군이었다.</tspan></text><text fill="black" xml:space="preserve" style="white-space: pre" font-family="Pretendard" font-size="25" letter-spacing="0em"><tspan x="2976" y="100.887">나가노 가는 조상 대대로 마커스 가와 친분을 맺어 </tspan><tspan x="2976" y="132.887">온 유서 깊은 군인 가문으로, 나가노 역시 제이크</tspan><tspan x="2976" y="164.887">를 기억하고 있었다. 본디 불합리한 것을 인정하지 </tspan><tspan x="2976" y="196.887">못하는 그는, 울프갱 치하에서 어려움을 겪는 가운</tspan><tspan x="2976" y="228.887">데에도 반격의 기회를 노리며 그에게 불만을 가진 </tspan><tspan x="2976" y="260.887">사람들을 모으고 있었다. 나가노 장군에게 찾아간 </tspan><tspan x="2976" y="292.887">제이크는 양자의 힘을 합하여 울프갱을 몰아내고</tspan><tspan x="2976" y="324.887">자 제안한다. 처음에는 너무 젊은 제이크의 실력과 </tspan><tspan x="2976" y="356.887">인성을 탐탁치 않게 여겼던 나가노였지만, 이내 그</tspan><tspan x="2976" y="388.887">는 제이크에게서 들은 이야기와 자신의 경험을 토</tspan><tspan x="2976" y="420.887">대로, 제이크가 수하들을 끌어들인 방법과 얼마나 </tspan><tspan x="2976" y="452.887">그 수하들의 마음을 얻고 있는지를 파악한다.</tspan></text><text fill="white" xml:space="preserve" style="white-space: pre" font-family="Pretendard" font-size="25" letter-spacing="0em"><tspan x="3197" y="692.887">제이크가 뛰어난 지도자의 자질을 갖고 있음을 깨달은 나가노는, 자신과 제이크가 동등한 관계에서 두 무리를 형</tspan><tspan x="3197" y="724.887">성하여 울프갱에게 대항하는 것보다 제이크 한 명의 휘하에서 싸우는 것이 더 유리할 것이라 판단하고, 자진하여 </tspan><tspan x="3197" y="756.887">스스로 모은 사람들을 데리고서 제이크의 집단에 합류할 것을 결정한다. 맨주먹으로 벙커 안에서 자신의 조직을 </tspan><tspan x="3197" y="788.887">만들어낸 제이크와 백전연마의 전투 경험으로 다져진 나가노 장군에게 있어서, 폭력 조직에 불과한 울프갱은 빈틈</tspan><tspan x="3197" y="820.887">투성이의 집단에 지나지 않았다. 나가노와 추종자들은 거짓으로 울프갱에게 복종하는 척 하면서 순식간에 사람들</tspan><tspan x="3197" y="852.887">을 장악하여 태세를 갖추었고, 모든 준비가 갖춰지자 곧바로 반기를 들었다. 비록 시설과 물자를 장악하고 무기도 </tspan><tspan x="3197" y="884.887">충분했던 울프갱이었지만, 자신들의 모든 상황을 손바닥 안에 있는 듯 파악하며 대책까지 세워 놓은 제이크를 당</tspan><tspan x="3197" y="916.887">해낼 수가 없었다. 결국 그들은 무기와 물자는 물론 목숨까지 빼앗기는 결과를 맞이했고, 제이크와 추종자들은 ‘해</tspan><tspan x="3197" y="948.887">방군’으로서 거주민들의 환영을 받게 되었다.</tspan></text><text fill="white" xml:space="preserve" style="white-space: pre" font-family="Pretendard" font-size="25" letter-spacing="0em"><tspan x="5528" y="572.887">구 텍사스 시민들은 제이크가 그 지역의 새로운 지도자가 되어 주기를 바랐다. 모두를 이끄는 역할</tspan><tspan x="5528" y="604.887">을 받아들인 제이크는 울프갱 일당이 엉망으로 사용하고 있던 정유시설을 다시금 정비하여 효율 높</tspan><tspan x="5528" y="636.887">게 석유를 생산했고, 황폐화된 농장을 여러 군데 되살려 식량 공급에 박차를 가했다. 한편으로 무기</tspan><tspan x="5528" y="668.887">와 차량을 정비하여 외부에서 무법자들이 습격하는 것을 막고 사람들을 지켰으며, 전쟁 전의 기기나 </tspan><tspan x="5528" y="700.887">시설 중 이용할 수 있는 것들을 찾아내어 활용하기 위한 전문 인력들을 따로 추려내 기초적인 기술 </tspan><tspan x="5528" y="732.887">발전의 토대를 마련하였다. 
</tspan><tspan x="5528" y="768.887">
</tspan><tspan x="5528" y="804.887">어느 한 분야에 전문적인 지식을 지니고 있지는 않았지만 제이크가 지닌 판단력과 결단력, 그리고 </tspan><tspan x="5528" y="836.887">사람을 끌어들이는 카리스마는 휘하의 사람들로 하여금 기꺼이 그 지시를 따르게 하기에 부족함이 </tspan><tspan x="5528" y="868.887">없었다. 과거 울프갱이 지배하고 있던 작은 마을은 어느새 거주지와 식량 생산 지역, 시장까지 갖춘 </tspan><tspan x="5528" y="900.887">자그마한 도시로 발전했다. 제이크는 자신이 일구어낸 그 도시를, ‘피델리아’라고 이름짓는다. 그것</tspan><tspan x="5528" y="932.887">은 그가 벙커 안에서 소년기를 보낼 때 들었던 오페라 ‘피델리오’에서 딴 이름으로, 그는 아름다운 음</tspan><tspan x="5528" y="964.887">율과 조화를 이룬 그 오페라 곡처럼, 자신이 건설하는 도시가 누구 하나만을 위한 도시가 아닌, 구성</tspan><tspan x="5528" y="996.887">원 모두가 조화롭게 의견을 내고 화합하는 이상적인 도시가 될 것이라고 생각했던 것이다.</tspan></text><text fill="white" xml:space="preserve" style="white-space: pre" font-family="Pretendard" font-size="25" letter-spacing="0em"><tspan x="6651" y="108.887">제이크가 울프갱 일당을 몰아낼 당시, 그들이 지배하던 영역에는 약 150제곱킬로미터에 달하는 지역에 걸쳐 사람들이 살아</tspan><tspan x="6651" y="140.887">가고 있었다. 자연히 초기 피델리아의 잠정적인 영토 역시, 그 영역을 대략적인 경계로 잡고 정해지게 되었다. 또한 울프갱 일</tspan><tspan x="6651" y="172.887">당이 지배하던 시절, 그들의 명령을 받아 각기 지역을 맡아 관리하던 자들이 있었다. 제이크는 초기 도시 관리의 편의를 위하</tspan><tspan x="6651" y="204.887">여 이들을 쫓아내지 않고 그대로 지역 대표관으로 고용하는 것을 택했다. 이는 이들이 단지 울프갱 일당의 명령에 따랐을 뿐 </tspan><tspan x="6651" y="236.887">적극적으로 그들의 악행에 가담하지 않았다는 점도 고려한 처사였다. 
</tspan><tspan x="6651" y="272.887">
</tspan><tspan x="6651" y="308.887">제이크는 피델리아를 그 용도에 따라 몇 개의 구역으로 나누고 각 구역을 그들에게 맡겨 관리하게 하였다. 노련한 나가노 장</tspan><tspan x="6651" y="340.887">군만은 과거 악행을 저지르던 무리와 함께하던 자들을 그대로 두는 것이 장래를 향하여 문제를 일으킬 수 있음을 지적했으나 </tspan><tspan x="6651" y="372.887">제이크는 그 조언을 듣지 않았다. 당시의 제이크는 한 명의 절대자로서 도시를 통치하는 것이 아닌, 모두의 힘을 모아서 통치 </tspan><tspan x="6651" y="404.887">체제를 만들어가는 것이 바람직하다고 여기고 있었다. 그것을 위해서라도 이미 지나간 권력 하에서 벌어졌던 일을 현재의 도</tspan><tspan x="6651" y="436.887">시 구성원들에게 과도하게 탓하는 것은, 도시에 과거의 원한을 계속 끌어들이는 일이라 생각했던 것이다. 이는 그가 목표하고 </tspan><tspan x="6651" y="468.887">있던 이상적인 도시 국가를 만들기 위한 것으로서, 당시의 그는 자신의 이상을 다른 사람들도 기꺼이 공유할 거라 여겼기 때</tspan><tspan x="6651" y="500.887">문이었다. 그러나 그런 그의 판단은 통치자로서 맺고 끊는 것을 분명히 하지 못한 치기 어린 과오로서, 이는 오래지 않아 뼈아</tspan><tspan x="6651" y="532.887">픈 결과로 이어지고 말았다.</tspan></text><image x="6684" y="614" width="1242" height="466" fill="url(#img1719221787279_pattern2_3616_254)" xlink:href="/story/fidelion-2/3.png"/><image x="7926" width="1362" height="1080" fill="url(#img1719221787279_pattern3_3616_254)" xlink:href="/story/fidelion-2/4.png"/><text fill="white" xml:space="preserve" style="white-space: pre" font-family="Pretendard" font-size="25" letter-spacing="0em"><tspan x="9004" y="226.887">각 </tspan><tspan x="9032.77" y="226.887">지역의 </tspan><tspan x="9104.76" y="226.887">대표관들이 </tspan><tspan x="9219.96" y="226.887">점차 </tspan><tspan x="9270.34" y="226.887">제이크의 </tspan><tspan x="9363.93" y="226.887">통제에서 </tspan><tspan x="9457.52" y="226.887">벗어나며 </tspan><tspan x="9551.12" y="226.887">문제가 </tspan><tspan x="9623.1" y="226.887">시작되었다. </tspan><tspan x="9744.6" y="226.887">그들은 </tspan><tspan x="9816.59" y="226.887">지역을 </tspan><tspan x="9888.57" y="226.887">관리하고 </tspan><tspan x="9982.16" y="226.887">물자를 </tspan><tspan x="10054.2" y="226.887">생산하여 </tspan><tspan x="10147.7" y="226.887">보다 </tspan><tspan x="10198.1" y="226.887">도시를 </tspan><tspan x="10270.1" y="226.887">윤택하게 </tspan><tspan x="10363.7" y="226.887">해야 </tspan><tspan x="10414.1" y="226.887">할 </tspan><tspan x="10442.9" y="226.887">책임을 </tspan><tspan x="10514.8" y="226.887">지니고 </tspan><tspan x="10586.8" y="226.887">있었음에도, </tspan><tspan x="10708.4" y="226.887">조금씩 </tspan><tspan x="10780.4" y="226.887">울프갱 </tspan><tspan x="10852.4" y="226.887">시</tspan><tspan x="9004" y="258.887">절에 </tspan><tspan x="9054.12" y="258.887">누리던 </tspan><tspan x="9125.84" y="258.887">호사를 </tspan><tspan x="9197.56" y="258.887">누리고자 </tspan><tspan x="9290.89" y="258.887">부정을 </tspan><tspan x="9362.62" y="258.887">저지르기 </tspan><tspan x="9455.95" y="258.887">시작했던 </tspan><tspan x="9549.28" y="258.887">것이다. </tspan><tspan x="9627.3" y="258.887">대표관들은 </tspan><tspan x="9742.24" y="258.887">도시를 </tspan><tspan x="9813.96" y="258.887">위해 </tspan><tspan x="9864.08" y="258.887">납부해야 </tspan><tspan x="9957.41" y="258.887">할 </tspan><tspan x="9985.92" y="258.887">세금을 </tspan><tspan x="10057.6" y="258.887">빼돌려 </tspan><tspan x="10129.4" y="258.887">자신의 </tspan><tspan x="10201.1" y="258.887">재산으로 </tspan><tspan x="10294.4" y="258.887">축적하는 </tspan><tspan x="10387.8" y="258.887">한편, </tspan><tspan x="10444.3" y="258.887">모은 </tspan><tspan x="10494.4" y="258.887">돈을 </tspan><tspan x="10544.5" y="258.887">가지고 </tspan><tspan x="10616.2" y="258.887">개인적인 </tspan><tspan x="10709.6" y="258.887">사병을 </tspan><tspan x="10781.3" y="258.887">조직했다. </tspan><tspan x="9004" y="290.887">정해진 </tspan><tspan x="9075.99" y="290.887">일정에 </tspan><tspan x="9147.97" y="290.887">맞춰 </tspan><tspan x="9198.35" y="290.887">물자를 </tspan><tspan x="9270.34" y="290.887">생산하지 </tspan><tspan x="9363.93" y="290.887">않는 </tspan><tspan x="9414.31" y="290.887">사보타주를 </tspan><tspan x="9529.51" y="290.887">저지르는 </tspan><tspan x="9623.1" y="290.887">것은 </tspan><tspan x="9673.48" y="290.887">물론, </tspan><tspan x="9730.26" y="290.887">도시의 </tspan><tspan x="9802.24" y="290.887">지시에 </tspan><tspan x="9874.23" y="290.887">공공연하게 </tspan><tspan x="9989.43" y="290.887">반발하기까지 </tspan><tspan x="10126.2" y="290.887">하였다. </tspan><tspan x="10204.5" y="290.887">그리고 </tspan><tspan x="10276.5" y="290.887">도시가 </tspan><tspan x="10348.5" y="290.887">점차 </tspan><tspan x="10398.9" y="290.887">커지게 </tspan><tspan x="10470.9" y="290.887">되자 </tspan><tspan x="10521.2" y="290.887">이러한 </tspan><tspan x="10593.2" y="290.887">크고 </tspan><tspan x="10643.6" y="290.887">작은 </tspan><tspan x="10694" y="290.887">반발은 </tspan><tspan x="10766" y="290.887">동시다발적</tspan><tspan x="9004" y="322.887">으로 </tspan><tspan x="9054.12" y="322.887">여러 </tspan><tspan x="9104.23" y="322.887">지역에서 </tspan><tspan x="9197.56" y="322.887">발생하기에 </tspan><tspan x="9312.5" y="322.887">이르렀다. </tspan><tspan x="9412.13" y="322.887">제이크는 </tspan><tspan x="9505.46" y="322.887">크게 </tspan><tspan x="9555.58" y="322.887">당황했지만, </tspan><tspan x="9676.91" y="322.887">이들을 </tspan><tspan x="9748.63" y="322.887">통제하기에는 </tspan><tspan x="9885.18" y="322.887">그의 </tspan><tspan x="9935.29" y="322.887">힘이 </tspan><tspan x="9985.41" y="322.887">충분하지 </tspan><tspan x="10078.7" y="322.887">않았다. </tspan><tspan x="10156.8" y="322.887">단지 </tspan><tspan x="10206.9" y="322.887">시민들의 </tspan><tspan x="10300.2" y="322.887">동등한 </tspan><tspan x="10371.9" y="322.887">대표자일 </tspan><tspan x="10465.3" y="322.887">뿐 </tspan><tspan x="10493.8" y="322.887">하나의 </tspan><tspan x="10565.5" y="322.887">지배자가 </tspan><tspan x="10658.8" y="322.887">되려 </tspan><tspan x="10708.9" y="322.887">하지 </tspan><tspan x="10759.1" y="322.887">않았던 </tspan><tspan x="10830.8" y="322.887">그에</tspan><tspan x="9004" y="354.887">게는 </tspan><tspan x="9053.49" y="354.887">강제적으로 </tspan><tspan x="9167.79" y="354.887">누군가를 </tspan><tspan x="9260.49" y="354.887">처벌할 </tspan><tspan x="9331.59" y="354.887">권한이 </tspan><tspan x="9402.68" y="354.887">없었던 </tspan><tspan x="9473.78" y="354.887">것이다. </tspan><tspan x="9551.17" y="354.887">부정을 </tspan><tspan x="9622.26" y="354.887">저지른 </tspan><tspan x="9693.36" y="354.887">이들에 </tspan><tspan x="9764.45" y="354.887">대한 </tspan><tspan x="9813.94" y="354.887">처벌은 </tspan><tspan x="9885.03" y="354.887">늦어지고, </tspan><tspan x="9984.13" y="354.887">통제의 </tspan><tspan x="10055.2" y="354.887">이탈은 </tspan><tspan x="10126.3" y="354.887">가속화되어 </tspan><tspan x="10240.6" y="354.887">혼란이 </tspan><tspan x="10311.7" y="354.887">가중되던 </tspan><tspan x="10404.4" y="354.887">가운데 </tspan><tspan x="10475.5" y="354.887">도시에 </tspan><tspan x="10546.6" y="354.887">치명적인 </tspan><tspan x="10639.3" y="354.887">사건이 </tspan><tspan x="10710.4" y="354.887">발생한다.
</tspan></text><text fill="white" xml:space="preserve" style="white-space: pre" font-family="Pretendard" font-size="25" letter-spacing="0em"><tspan x="9004" y="407.887">서부 </tspan><tspan x="9053.92" y="407.887">일대를 </tspan><tspan x="9125.45" y="407.887">중심으로, </tspan><tspan x="9224.98" y="407.887">고열과 </tspan><tspan x="9296.5" y="407.887">출혈을 </tspan><tspan x="9368.03" y="407.887">동반하는 </tspan><tspan x="9461.16" y="407.887">정체불명의 </tspan><tspan x="9575.9" y="407.887">치명적 </tspan><tspan x="9647.43" y="407.887">역병이 </tspan><tspan x="9718.95" y="407.887">발생하여 </tspan><tspan x="9812.09" y="407.887">피델리아 </tspan><tspan x="9905.22" y="407.887">전역을 </tspan><tspan x="9976.74" y="407.887">향해 </tspan><tspan x="10026.7" y="407.887">급격히 </tspan><tspan x="10098.2" y="407.887">퍼져나갔다. </tspan><tspan x="10219.2" y="407.887">감염시 </tspan><tspan x="10290.8" y="407.887">전신에 </tspan><tspan x="10362.3" y="407.887">나타나는 </tspan><tspan x="10455.4" y="407.887">붉은 </tspan><tspan x="10505.3" y="407.887">반점으로 </tspan><tspan x="10598.5" y="407.887">인해 </tspan><tspan x="10648.4" y="407.887">이 </tspan><tspan x="10676.7" y="407.887">역병은 </tspan><tspan x="10748.2" y="407.887">‘붉은 </tspan><tspan x="10803.7" y="407.887">역병’으</tspan><tspan x="9004" y="439.887">로 </tspan><tspan x="9032.52" y="439.887">불렸다. </tspan><tspan x="9110.56" y="439.887">제이크는 </tspan><tspan x="9203.9" y="439.887">급히 </tspan><tspan x="9254.04" y="439.887">각 </tspan><tspan x="9282.56" y="439.887">지역의 </tspan><tspan x="9354.3" y="439.887">관리자 </tspan><tspan x="9426.03" y="439.887">회의를 </tspan><tspan x="9497.77" y="439.887">소집하여 </tspan><tspan x="9591.12" y="439.887">문제를 </tspan><tspan x="9662.85" y="439.887">해결하기로 </tspan><tspan x="9777.8" y="439.887">하고 </tspan><tspan x="9827.93" y="439.887">붉은 </tspan><tspan x="9878.07" y="439.887">역병이 </tspan><tspan x="9949.8" y="439.887">퍼진 </tspan><tspan x="9999.93" y="439.887">지역의 </tspan><tspan x="10071.7" y="439.887">철저한 </tspan><tspan x="10143.4" y="439.887">봉쇄와 </tspan><tspan x="10215.1" y="439.887">인접 </tspan><tspan x="10265.3" y="439.887">지역 </tspan><tspan x="10315.4" y="439.887">주민의 </tspan><tspan x="10387.1" y="439.887">소개령을 </tspan><tspan x="10480.5" y="439.887">내린다. </tspan><tspan x="10558.5" y="439.887">이는 </tspan><tspan x="10608.7" y="439.887">병의 </tspan><tspan x="10658.8" y="439.887">확산을 </tspan><tspan x="10730.5" y="439.887">막기 </tspan><tspan x="10780.7" y="439.887">위한 </tspan><tspan x="10830.8" y="439.887">최선</tspan><tspan x="9004" y="471.887">의 </tspan><tspan x="9032.74" y="471.887">조치였으나 </tspan><tspan x="9147.91" y="471.887">질병이 </tspan><tspan x="9219.87" y="471.887">발생한 </tspan><tspan x="9291.82" y="471.887">지역의 </tspan><tspan x="9363.78" y="471.887">대표관은 </tspan><tspan x="9457.34" y="471.887">명령에 </tspan><tspan x="9529.29" y="471.887">불복했을 </tspan><tspan x="9622.86" y="471.887">뿐 </tspan><tspan x="9651.6" y="471.887">아니라 </tspan><tspan x="9723.55" y="471.887">정면으로 </tspan><tspan x="9817.11" y="471.887">그에게 </tspan><tspan x="9889.07" y="471.887">반기를 </tspan><tspan x="9961.03" y="471.887">들고 </tspan><tspan x="10011.4" y="471.887">일어났다. </tspan><tspan x="10111.2" y="471.887">그와 </tspan><tspan x="10161.6" y="471.887">동시에 </tspan><tspan x="10233.5" y="471.887">제이크 </tspan><tspan x="10305.5" y="471.887">체제에서 </tspan><tspan x="10399.1" y="471.887">불만이 </tspan><tspan x="10471" y="471.887">쌓여 </tspan><tspan x="10521.4" y="471.887">있던 </tspan><tspan x="10571.7" y="471.887">다른 </tspan><tspan x="10622.1" y="471.887">지역의 </tspan><tspan x="10694" y="471.887">대표관들도 </tspan><tspan x="10809.2" y="471.887">동조하</tspan><tspan x="9004" y="503.887">여, </tspan><tspan x="9038.69" y="503.887">총 </tspan><tspan x="9066.99" y="503.887">네 </tspan><tspan x="9095.28" y="503.887">개 </tspan><tspan x="9123.58" y="503.887">지역에 </tspan><tspan x="9195.09" y="503.887">걸친 </tspan><tspan x="9244.99" y="503.887">대대적인 </tspan><tspan x="9338.11" y="503.887">반란이 </tspan><tspan x="9409.62" y="503.887">발생하고 </tspan><tspan x="9502.73" y="503.887">만다. </tspan><tspan x="9558.93" y="503.887">반기를 </tspan><tspan x="9630.44" y="503.887">든 </tspan><tspan x="9658.74" y="503.887">지역은 </tspan><tspan x="9730.25" y="503.887">하나같이 </tspan><tspan x="9823.36" y="503.887">울프갱 </tspan><tspan x="9894.87" y="503.887">체제 </tspan><tspan x="9944.77" y="503.887">당시부터 </tspan><tspan x="10037.9" y="503.887">지역을 </tspan><tspan x="10109.4" y="503.887">관리해 </tspan><tspan x="10180.9" y="503.887">왔던 </tspan><tspan x="10230.8" y="503.887">자들이 </tspan><tspan x="10302.3" y="503.887">대표관으로 </tspan><tspan x="10417" y="503.887">앉아 </tspan><tspan x="10466.9" y="503.887">있던 </tspan><tspan x="10516.8" y="503.887">곳들뿐이었다. </tspan><tspan x="10659.5" y="503.887">살고 </tspan><tspan x="10709.4" y="503.887">있는 </tspan><tspan x="10759.3" y="503.887">주민도 </tspan><tspan x="10830.8" y="503.887">많은</tspan><tspan x="9004" y="535.887">데다 </tspan><tspan x="9054.13" y="535.887">자원의 </tspan><tspan x="9125.86" y="535.887">생산 </tspan><tspan x="9175.99" y="535.887">기지와 </tspan><tspan x="9247.72" y="535.887">공장이 </tspan><tspan x="9319.46" y="535.887">대거 </tspan><tspan x="9369.58" y="535.887">지어지고 </tspan><tspan x="9462.92" y="535.887">있던 </tspan><tspan x="9513.05" y="535.887">도시의 </tspan><tspan x="9584.79" y="535.887">심장부였기에 </tspan><tspan x="9721.34" y="535.887">그 </tspan><tspan x="9749.86" y="535.887">반란으로 </tspan><tspan x="9843.2" y="535.887">인한 </tspan><tspan x="9893.33" y="535.887">피해는 </tspan><tspan x="9965.06" y="535.887">이루 </tspan><tspan x="10015.2" y="535.887">말할 </tspan><tspan x="10065.3" y="535.887">수 </tspan><tspan x="10093.8" y="535.887">없이 </tspan><tspan x="10144" y="535.887">클 </tspan><tspan x="10172.5" y="535.887">수밖에 </tspan><tspan x="10244.2" y="535.887">없었다. </tspan><tspan x="10322.3" y="535.887">심지어 </tspan><tspan x="10394" y="535.887">퍼져가는 </tspan><tspan x="10487.3" y="535.887">역병의 </tspan><tspan x="10559.1" y="535.887">기세는 </tspan><tspan x="10630.8" y="535.887">멈추지 </tspan><tspan x="10702.5" y="535.887">않고 </tspan><tspan x="10752.7" y="535.887">동부로 </tspan><tspan x="10824.4" y="535.887">번져, </tspan><tspan x="9004" y="567.887">역병에 </tspan><tspan x="9075.09" y="567.887">감염되지 </tspan><tspan x="9167.79" y="567.887">않았던 </tspan><tspan x="9238.89" y="567.887">지역까지 </tspan><tspan x="9331.59" y="567.887">연달아 </tspan><tspan x="9402.68" y="567.887">감염시키며 </tspan><tspan x="9516.99" y="567.887">혼란은 </tspan><tspan x="9588.08" y="567.887">극에 </tspan><tspan x="9637.57" y="567.887">달하게 </tspan><tspan x="9708.66" y="567.887">되었다.
</tspan></text><path d="M9259.31 628H9307.86V966.809H9259.31V628ZM9645.54 676.517H9814.34V628H9645.54V676.502V676.517ZM9645.54 966.795H9814.34V918.293H9645.54V966.795ZM9810.69 773.755H9664.88V822.257H9810.69V773.755ZM10145.6 966.809H10194.2V628H10145.6V966.809ZM9147.74 821.656V773.154H9052.55V676.502H9172.8V628H9004V966.809H9052.55V821.656H9147.74ZM9943.64 916.341V628H9895.09V966.809H10063.9V918.307H9943.63V916.341H9943.64ZM10610 797.397C10610 890.806 10533.9 966.795 10440.4 966.795C10346.9 966.795 10270.8 890.806 10270.8 797.397C10270.8 703.989 10346.9 628 10440.4 628C10533.9 628 10610 703.989 10610 797.397ZM10561.4 797.397C10561.4 730.727 10507.1 676.487 10440.4 676.487C10373.7 676.487 10319.4 730.727 10319.4 797.397C10319.4 864.067 10373.7 918.307 10440.4 918.307C10507.1 918.307 10561.4 864.067 10561.4 797.397ZM9549.09 686.657C9575.75 717.431 9590.44 756.761 9590.44 797.397C9590.44 838.033 9575.75 877.363 9549.09 908.137C9522.69 938.589 9486.38 958.723 9446.82 964.813C9439.54 965.943 9405.29 966.604 9396.6 966.765V628H9420.84C9421.75 628.029 9438.65 628.719 9446.82 629.981C9486.38 636.071 9522.69 656.206 9549.09 686.657ZM9541.89 797.397C9541.89 769.837 9532.33 742.849 9514.95 721.423C9497.84 700.305 9473.89 685.41 9447.56 679.466L9445.15 678.923V915.886L9447.56 915.343C9473.89 909.399 9497.82 894.489 9514.95 873.386C9532.33 851.96 9541.89 824.972 9541.89 797.412V797.397ZM10684 628.66L10624.9 628.704L10824.3 966.795H10874V628H10825.5V871.493L10821.8 865.183L10684 628.66Z" fill="#CC0000"/><image x="11940" width="1719" height="1080" fill="url(#img1719221787279_pattern4_3616_254)" xlink:href="/story/fidelion-2/5.png"/><text fill="white" xml:space="preserve" style="white-space: pre" font-family="Pretendard" font-size="25" letter-spacing="0em"><tspan x="11120" y="427.887">네 개 지역이 연합한 대표관들의 반란은 예상외로 오래지 않아 진압되었다. 과거 도시의 위기에 대비하여 멜파인과 나가노 장군이 미리 
</tspan><tspan x="11120" y="463.887">예비하여 둔 사병들이 전격적으로 투입되었고, 패닉에서 빠르게 벗어난 제이크가 도시 외부에서 용병을 고용하여 대대적인 반격에 나
</tspan><tspan x="11120" y="499.887">섰기 때문이었다. 더불어 제이크가 적극적인 대처를 통해 붉은 역병의 확산을 막음으로써 시민들의 지지가 확고해져, 전염이 더 이상
</tspan><tspan x="11120" y="535.887"> 확산되지 않은 것도 큰 요인이었다. 네 개 지역의 반란군은 패퇴를 거듭하다 지리멸렬하게 해산되었고, 주모자들은 체포되었다. 비
</tspan><tspan x="11120" y="571.887">록 반란은 진압되었으나 자신의 이상주의적 도시계획이 뿌리째 흔들린 제이크는 큰 충격을 받았다. 그는 모두가 의견을 공유하고 
</tspan><tspan x="11120" y="607.887">나눔으로써 이상적인 공동체를 만들 수 있다고 생각했던 자신의 발상이 벙커 안에서 꾸었던 소년의 몽상에 지나지 않음을 알았
</tspan><tspan x="11120" y="643.887">고, 이상적인 사회를 만들기 위해서는 그 사회의 중심이 되는 강력한 힘이 우선되어야 함을 깨닫는다. 그리고 자신이 그 중심
</tspan><tspan x="11120" y="679.887">이 되기로 결정한 제이크는, 반란을 일으킨 주모자들을 전원 공개처형 하는 것으로 그 첫걸음을 내딛게 된다.</tspan></text><text fill="white" xml:space="preserve" style="white-space: pre" font-family="Pretendard" font-size="25" letter-spacing="0em"><tspan x="13100" y="88.8867">제이크의 처사가 잔혹하다고 여기는 이들도 있었으나, 제이크는 모든 반발을 억눌렀다. 사회의 혼란을 조기에 잠재우기 위해서는 어떤 조치도 부족하지 않다고 
</tspan><tspan x="13100" y="124.887"> 여긴 그는 더 이상 주저하지 않았다. 그는 기존의 대표관 제도를 없애고 모든 지역을 중앙 정부에서 관리하도록 개편, 지역 관리를 통하여 통치하는 방식을 
</tspan><tspan x="13100" y="160.887">    택하였다. 그리고 그 정부의 중심에 제이크 본인을 놓으며, 경쟁자가 없는 최고통치자의 자리에 스스로 앉게 된다. 그리고 도시의 크기가 주변부로 퍼져나
</tspan><tspan x="13100" y="196.887">     가 사방 약 500제곱킬로미터에 달했을 때, 그는 피델리아 제국의 건국과 함께 자신이 초대 황제의 자리에 올랐음을 선언하게 된다. 불만을 가진 이들도 
</tspan><tspan x="13100" y="232.887">      있었지만, 그 목소리는 더 이상 피델리아에는 들리지 않았다. 통일된 규율만이 공동체를 유지하는 유일무이한 수단임을 깨달은 제이크는 자신에 반대하는 
</tspan><tspan x="13100" y="268.887">       목소리가 확산되지 않도록 강력하게 탄압하고 통제하는 수단을 택했다. 피델리아는 하나의 작은 도시에서 제국으로 거듭났고, 제이크는 그 중심에 선 황
</tspan><tspan x="13100" y="304.887">         제로서 모두를 지배하는 통치자가 된 것이다.
</tspan></text><text fill="white" xml:space="preserve" style="white-space: pre" font-family="Pretendard" font-size="25" letter-spacing="0em"><tspan x="13160" y="442.887">이후, 제이크는 더 이상 사람들에게 자신의 모습을 드러내지 않았다. 피델리아 중심에 세운 거대한 탑 속에 기거하며, 그는 공식적
</tspan><tspan x="13160" y="478.887"> 인 선전 행사 등 극히 제한된 경우를 제외하면 가능한 한 자신의 존재를 보이지 않는 쪽을 택했다. 그와 접할 수 있는 것은 충성스
</tspan><tspan x="13160" y="514.887">  럽고 오랜 부하인 멜파인를 비롯한 일부에 한하게 되었다. 「제국의 황제는 완전하고 강하며, 또한 초인이어야 한다.」 피델리아의 
</tspan><tspan x="13160" y="550.887">   체제가 잡히고 나라의 기틀이 완성된 이후에도 제이크의 통치는 이어졌지만, 제국 신민들은 그에 대해 겉모습을 제외하면 거의 
</tspan><tspan x="13160" y="586.887">   알지 못한다. 의도적으로 만들어진 신비 속에 존재하며, 그는 살아 있는 불멸의 황제로서 오늘도 제국을 통치하고 있다.</tspan></text></g><defs><pattern id="img1719221787279_pattern0_3616_254" patternContentUnits="objectBoundingBox" width="1" height="1"><use xlink:href="#image0_3616_254" transform="scale(0.000244141 0.000915753)"/></pattern><pattern id="img1719221787279_pattern1_3616_254" patternContentUnits="objectBoundingBox" width="1" height="1"><use xlink:href="#image1_3616_254" transform="scale(0.000244161 0.000792393)"/></pattern><pattern id="img1719221787279_pattern2_3616_254" patternContentUnits="objectBoundingBox" width="1" height="1"><use xlink:href="#image2_3616_254" transform="scale(0.000402576 0.00107296)"/></pattern><pattern id="img1719221787279_pattern3_3616_254" patternContentUnits="objectBoundingBox" width="1" height="1"><use xlink:href="#image3_3616_254" transform="scale(0.000734214 0.000925926)"/></pattern><pattern id="img1719221787279_pattern4_3616_254" patternContentUnits="objectBoundingBox" width="1" height="1"><use xlink:href="#image4_3616_254" transform="scale(0.000581734 0.000925926)"/></pattern><clipPath id="clip0_3616_254"><rect width="14931" height="1080" fill="white"/></clipPath><image id="image0_3616_254" width="4096" height="1092" xlink:href="/story/fidelion-2/1.png"/><image id="image1_3616_254" width="4096" height="1262" xlink:href="/story/fidelion-2/2.png"/><image id="image2_3616_254" width="2484" height="932" xlink:href="/story/fidelion-2/3.png"/><image id="image3_3616_254" width="1362" height="1080" xlink:href="/story/fidelion-2/4.png"/><image id="image4_3616_254" width="1719" height="1080" xlink:href="/story/fidelion-2/5.png"/></defs></svg>