<svg width="9686" height="1080" viewBox="0 0 9686 1080" fill="none" xmlns="http://www.w3.org/2000/svg" xmlns:xlink="http://www.w3.org/1999/xlink"><g clip-path="url(#clip0_4038_405)"><rect width="9686" height="1080" fill="black"/><g clip-path="url(#clip1_4038_405)"><image width="763" height="1080" fill="url(#img1720071782349_pattern0_4038_405)" xlink:href="/story/fidelion-6/1.png"/></g><path fill-rule="evenodd" clip-rule="evenodd" d="M1447.78 579.443V140H1447.77H1281.51V579.443C1280.63 630.728 1257.63 657.253 1218.72 657.253C1179.81 657.253 1156.81 631.606 1155.04 582.98H987.006C986.119 727.989 1086.05 789 1208.1 789C1348.72 789 1446.89 705.002 1447.78 579.443ZM1644.77 140L1431.62 780.152H1613.81L1651.84 654.593H1866.75L1904.78 780.152H2086.08L1873.83 140H1644.77ZM1761.5 312.412L1827.83 527.27H1690.75L1756.2 312.412H1761.5ZM2127.13 140H2295.16V401.721H2304L2502.11 140H2699.33L2479.99 425.595L2703.74 780.152H2502.1L2354.41 536.995L2295.15 613.033V780.143H2127.12V140H2127.13ZM3187 140H2729.77V780.152H3186.11V643.991H2897.8V528.157H3163.12V391.995H2897.8V276.162H3187V140Z" fill="white"/><text fill="white" xml:space="preserve" style="white-space: pre" font-family="Pretendard" font-size="25" letter-spacing="0em"><tspan x="987" y="853.887">피델리온의 </tspan><tspan x="1101.91" y="853.887">황제 </tspan><tspan x="1152" y="853.887">제이크는 </tspan><tspan x="1245.31" y="853.887">고상한 </tspan><tspan x="1317.01" y="853.887">가문에서 </tspan><tspan x="1410.31" y="853.887">자라났다. </tspan><tspan x="1509.92" y="853.887">어떤 </tspan><tspan x="1560.01" y="853.887">지식이든 </tspan><tspan x="1653.32" y="853.887">빠르게 </tspan><tspan x="1725.02" y="853.887">습득할 </tspan><tspan x="1796.72" y="853.887">수 </tspan><tspan x="1825.2" y="853.887">있는 </tspan><tspan x="1875.29" y="853.887">소질을 </tspan><tspan x="1946.99" y="853.887">지닌 </tspan><tspan x="1997.09" y="853.887">제이크는 </tspan><tspan x="2090.39" y="853.887">영재 </tspan><tspan x="2140.48" y="853.887">교육을 </tspan><tspan x="2212.18" y="853.887">받으며 </tspan><tspan x="2283.88" y="853.887">성장해 </tspan><tspan x="2355.58" y="853.887">왔는데, </tspan><tspan x="2433.68" y="853.887">특히 </tspan><tspan x="2483.77" y="853.887">어머니로부터 </tspan><tspan x="2620.29" y="853.887">받은 </tspan><tspan x="2670.38" y="853.887">영적인 </tspan><tspan x="2742.08" y="853.887">통찰력과 </tspan><tspan x="2835.38" y="853.887">예술적인 </tspan><tspan x="2928.69" y="853.887">재능은 </tspan><tspan x="3000.39" y="853.887">그를 </tspan><tspan x="3050.48" y="853.887">독특한 </tspan><tspan x="3122.18" y="853.887">존재로 </tspan><tspan x="987" y="885.887">만들었다.  </tspan><tspan x="1092.53" y="885.887">다른 </tspan><tspan x="1142.27" y="885.887">면모도 </tspan><tspan x="1213.62" y="885.887">존재했다. </tspan><tspan x="1312.87" y="885.887">그의 </tspan><tspan x="1362.61" y="885.887">가문 </tspan><tspan x="1412.35" y="885.887">조상들로부터 </tspan><tspan x="1548.52" y="885.887">전해진 </tspan><tspan x="1619.87" y="885.887">독재적인 </tspan><tspan x="1712.82" y="885.887">성향과 </tspan><tspan x="1784.17" y="885.887">차가운 </tspan><tspan x="1855.52" y="885.887">면모 </tspan><tspan x="1905.26" y="885.887">역시 </tspan><tspan x="1955" y="885.887">물려받은 </tspan><tspan x="2047.95" y="885.887">제이크는, </tspan><tspan x="2147.3" y="885.887">자기 </tspan><tspan x="2197.04" y="885.887">가족 </tspan><tspan x="2246.79" y="885.887">및 </tspan><tspan x="2274.92" y="885.887">반려동물을 </tspan><tspan x="2389.48" y="885.887">제외한 </tspan><tspan x="2460.83" y="885.887">다른 </tspan><tspan x="2510.57" y="885.887">생명에게는 </tspan><tspan x="2625.13" y="885.887">다소 </tspan><tspan x="2674.87" y="885.887">차가운 </tspan><tspan x="2746.22" y="885.887">모습을 </tspan><tspan x="2817.57" y="885.887">보여주기도 </tspan><tspan x="2932.13" y="885.887">했다. </tspan><tspan x="2988.17" y="885.887">그의 </tspan><tspan x="3037.91" y="885.887">어린 </tspan><tspan x="3087.65" y="885.887">시절, </tspan><tspan x="3143.79" y="885.887">바쁘</tspan><tspan x="987" y="917.887">고 </tspan><tspan x="1015.49" y="917.887">살갑지 </tspan><tspan x="1087.19" y="917.887">않은 </tspan><tspan x="1137.29" y="917.887">아버지와 </tspan><tspan x="1230.6" y="917.887">집에서 </tspan><tspan x="1302.3" y="917.887">홀로 </tspan><tspan x="1352.4" y="917.887">외로워하며 </tspan><tspan x="1467.31" y="917.887">힘들어하는 </tspan><tspan x="1582.23" y="917.887">어머니의 </tspan><tspan x="1675.53" y="917.887">모습은 </tspan><tspan x="1747.24" y="917.887">그에게 </tspan><tspan x="1818.94" y="917.887">다양한 </tspan><tspan x="1890.64" y="917.887">영향을 </tspan><tspan x="1962.34" y="917.887">미쳤다. </tspan><tspan x="2040.35" y="917.887">특히 </tspan><tspan x="2090.44" y="917.887">어린 </tspan><tspan x="2140.54" y="917.887">제이크가 </tspan><tspan x="2233.85" y="917.887">우연히 </tspan><tspan x="2305.55" y="917.887">어머니의 </tspan><tspan x="2398.86" y="917.887">외도를 </tspan><tspan x="2470.56" y="917.887">목격한 </tspan><tspan x="2542.26" y="917.887">날의 </tspan><tspan x="2592.36" y="917.887">기억은 </tspan><tspan x="2664.06" y="917.887">그의 </tspan><tspan x="2714.16" y="917.887">여성에 </tspan><tspan x="2785.86" y="917.887">대한 </tspan><tspan x="2835.96" y="917.887">관념을 </tspan><tspan x="2907.66" y="917.887">다소 </tspan><tspan x="2957.75" y="917.887">흔들어놓기에 </tspan><tspan x="3094.28" y="917.887">충분했다. </tspan><tspan x="987" y="949.887">이에 </tspan><tspan x="1037.37" y="949.887">따라 </tspan><tspan x="1087.74" y="949.887">제이크는 성인이 </tspan><tspan x="1252.42" y="949.887">된 </tspan><tspan x="1281.18" y="949.887">이후에도 </tspan><tspan x="1374.76" y="949.887">쉽사리 </tspan><tspan x="1446.74" y="949.887">진정한 </tspan><tspan x="1518.71" y="949.887">사랑이라는 </tspan><tspan x="1633.9" y="949.887">감정을 </tspan><tspan x="1705.88" y="949.887">이해하지 </tspan><tspan x="1799.46" y="949.887">못하게 </tspan><tspan x="1871.44" y="949.887">되었다. </tspan><tspan x="1949.71" y="949.887">여성이라는 </tspan><tspan x="2064.9" y="949.887">존재는 </tspan><tspan x="2136.88" y="949.887">언제나 </tspan><tspan x="2208.86" y="949.887">그에게 </tspan><tspan x="2280.83" y="949.887">항상 </tspan><tspan x="2331.2" y="949.887">미스테리한 </tspan><tspan x="2446.39" y="949.887">대상으로 </tspan><tspan x="2539.97" y="949.887">보이기도 </tspan><tspan x="2633.56" y="949.887">하는데, </tspan><tspan x="2711.93" y="949.887">이는 </tspan><tspan x="2762.3" y="949.887">그의 </tspan><tspan x="2812.67" y="949.887">정직해 </tspan><tspan x="2884.65" y="949.887">보이고 </tspan><tspan x="2956.62" y="949.887">고독함이 </tspan><tspan x="3050.2" y="949.887">보이는 </tspan><tspan x="3122.18" y="949.887">눈빛에 </tspan><tspan x="987" y="981.887">매료된 </tspan><tspan x="1058.09" y="981.887">많은 </tspan><tspan x="1107.58" y="981.887">여성 </tspan><tspan x="1157.07" y="981.887">또한 </tspan><tspan x="1206.56" y="981.887">동일하게 </tspan><tspan x="1299.26" y="981.887">느끼는 </tspan><tspan x="1370.35" y="981.887">감정선이기도 </tspan><tspan x="1506.26" y="981.887">하다. </tspan><tspan x="1562.05" y="981.887">술과 </tspan><tspan x="1611.54" y="981.887">담배를 </tspan><tspan x="1682.63" y="981.887">통해 </tspan><tspan x="1732.12" y="981.887">민감한 </tspan><tspan x="1803.21" y="981.887">성격과 </tspan><tspan x="1874.3" y="981.887">불면증과 </tspan><tspan x="1967" y="981.887">싸우는 </tspan><tspan x="2038.1" y="981.887">편이며, </tspan><tspan x="2115.59" y="981.887">때로 </tspan><tspan x="2165.08" y="981.887">마약이나 </tspan><tspan x="2257.78" y="981.887">여성을 </tspan><tspan x="2328.87" y="981.887">통해서 </tspan><tspan x="2399.96" y="981.887">정치와 </tspan><tspan x="2471.06" y="981.887">문화 </tspan><tspan x="2520.54" y="981.887">전반에 </tspan><tspan x="2591.64" y="981.887">대한 </tspan><tspan x="2641.13" y="981.887">영감을 </tspan><tspan x="2712.22" y="981.887">얻으려 </tspan><tspan x="2783.31" y="981.887">하기도 </tspan><tspan x="2854.41" y="981.887">한다.</tspan></text><image x="4484" y="53" width="2178" height="974" fill="url(#img1720071782349_pattern1_4038_405)" xlink:href="/story/fidelion-6/2.png"/><text fill="white" xml:space="preserve" style="white-space: pre" font-family="Pretendard" font-size="30" letter-spacing="0em"><tspan x="6505.14" y="786.664">이름
</tspan><tspan x="6505.14" y="826.664">성별
</tspan><tspan x="6505.14" y="866.664">나이
</tspan><tspan x="6505.14" y="906.664">국적
</tspan><tspan x="6505.14" y="946.664">소속
</tspan><tspan x="6505.14" y="986.664">직급</tspan></text><text fill="white" xml:space="preserve" style="white-space: pre" font-family="Pretendard" font-size="30" letter-spacing="0em"><tspan x="6579" y="786.664">Jake Marcus
</tspan><tspan x="6579" y="826.664">Male
</tspan><tspan x="6579" y="866.664">30s
</tspan><tspan x="6579" y="906.664">영국/미국
</tspan><tspan x="6579" y="946.664">피델리온
</tspan><tspan x="6579" y="986.664">황제</tspan></text><text fill="white" xml:space="preserve" style="white-space: pre" font-family="Pretendard" font-size="25" letter-spacing="0em"><tspan x="7166" y="426.887">어린 시절부터 책으로부터 영감을 얻곤 했던 그는, 성장한 뒤에도 독서를 몇 안 되는 취미로 갖고 있다. 본인의 취</tspan><tspan x="7166" y="458.887">향에 맞는 책을 발견하면 몇 날 며칠을 쉬지 않고 책을 읽곤 하기도 한다. 그로 인해 그의 지식의 수준은 피델리아 </tspan><tspan x="7166" y="490.887">제국 내에서도 손꼽힐 정도로 싶은 편인데, 적은 말수에 비해 한 번 토론을 시작하면 그를 논리로 굴복시킬 수 있는 </tspan><tspan x="7166" y="522.887">사람은 많지 않다. 그는 역사, 경제, 인류학, 정치학에 주로 관심이 많으며, 존경하는 인물로는 피카소, 베토벤, 칼 </tspan><tspan x="7166" y="554.887">포퍼, 프리츠 하버 등이 있다. 이러한 과거의 예술가 혹은 학자 등에게서 받은 영감은 후일 피델리아 제국의 토대가 </tspan><tspan x="7166" y="586.887">되는 이념을 만들 때 많은 영향을 주었다. 특히 그가 영감을 가장 많이 받은 서적은 칼 포퍼의 ‘열린 사회론’이며, 사</tspan><tspan x="7166" y="618.887">실상 피델리아의 초기 기본 이념 뼈대는 이를 기반으로 이루어졌다고 봐도 과언이 아니다.</tspan></text><text fill="white" xml:space="preserve" style="white-space: pre" font-family="Pretendard" font-size="25" letter-spacing="0em"><tspan x="7166" y="677.887">제이크가 </tspan><tspan x="7259.81" y="677.887">추구했던 </tspan><tspan x="7353.61" y="677.887">열린 </tspan><tspan x="7404.2" y="677.887">사회론은 </tspan><tspan x="7498.01" y="677.887">결국 </tspan><tspan x="7548.6" y="677.887">실패로 </tspan><tspan x="7620.8" y="677.887">귀결되게 </tspan><tspan x="7714.6" y="677.887">되는데, </tspan><tspan x="7793.2" y="677.887">그는 </tspan><tspan x="7843.79" y="677.887">이를 </tspan><tspan x="7894.39" y="677.887">깨닫는 </tspan><tspan x="7966.58" y="677.887">과정에서 </tspan><tspan x="8060.39" y="677.887">인류에 </tspan><tspan x="8132.59" y="677.887">대한 </tspan><tspan x="8183.18" y="677.887">애정과 </tspan><tspan x="7166" y="709.887">신뢰를 </tspan><tspan x="7237.11" y="709.887">철저하게 </tspan><tspan x="7329.83" y="709.887">배신당하는 </tspan><tspan x="7444.16" y="709.887">감각을 </tspan><tspan x="7515.27" y="709.887">처음으로 </tspan><tspan x="7607.99" y="709.887">느끼게 </tspan><tspan x="7679.1" y="709.887">된다. </tspan><tspan x="7734.9" y="709.887">대의를 </tspan><tspan x="7806.01" y="709.887">이해하지 </tspan><tspan x="7898.73" y="709.887">못하는 </tspan><tspan x="7969.84" y="709.887">대중을 </tspan><tspan x="8040.96" y="709.887">상대로 </tspan><tspan x="8112.07" y="709.887">어떻게 </tspan><tspan x="8183.18" y="709.887">적절한 </tspan><tspan x="7166" y="741.887">정치체계를 </tspan><tspan x="7280.49" y="741.887">갖추어야 </tspan><tspan x="7373.37" y="741.887">하는지 </tspan><tspan x="7444.65" y="741.887">더욱 </tspan><tspan x="7494.32" y="741.887">깊게 </tspan><tspan x="7543.99" y="741.887">고찰하게 </tspan><tspan x="7636.87" y="741.887">된 </tspan><tspan x="7664.93" y="741.887">그는, </tspan><tspan x="7721" y="741.887">그 </tspan><tspan x="7749.07" y="741.887">과정에서 </tspan><tspan x="7841.95" y="741.887">자신도 </tspan><tspan x="7913.22" y="741.887">알지 </tspan><tspan x="7962.89" y="741.887">못하던 </tspan><tspan x="8034.17" y="741.887">내면의 </tspan><tspan x="8105.45" y="741.887">광기 </tspan><tspan x="8155.12" y="741.887">어린 </tspan><tspan x="8204.79" y="741.887">본인</tspan><tspan x="7166" y="773.887">의 </tspan><tspan x="7195.22" y="773.887">모습을 </tspan><tspan x="7267.65" y="773.887">발견하게 </tspan><tspan x="7361.69" y="773.887">된다. </tspan><tspan x="7418.82" y="773.887">초기의 </tspan><tspan x="7491.25" y="773.887">이상론을 </tspan><tspan x="7585.29" y="773.887">읽고 </tspan><tspan x="7636.12" y="773.887">변질된 </tspan><tspan x="7708.55" y="773.887">리더 </tspan><tspan x="7759.37" y="773.887">- </tspan><tspan x="7777.8" y="773.887">제이크는 </tspan><tspan x="7871.84" y="773.887">새로운 </tspan><tspan x="7944.28" y="773.887">사상과 </tspan><tspan x="8016.71" y="773.887">이념이 </tspan><tspan x="8089.14" y="773.887">피델리온에 </tspan><tspan x="8204.79" y="773.887">필요</tspan><tspan x="7166" y="805.887">하다고 </tspan><tspan x="7237.79" y="805.887">인식, </tspan><tspan x="7294.37" y="805.887">독재정치를 </tspan><tspan x="7409.37" y="805.887">추구하는 </tspan><tspan x="7502.77" y="805.887">피델리즘을 </tspan><tspan x="7617.77" y="805.887">구성하게 </tspan><tspan x="7711.17" y="805.887">된다. </tspan><tspan x="7767.65" y="805.887">현재의 </tspan><tspan x="7839.44" y="805.887">정치 </tspan><tspan x="7889.62" y="805.887">체계 </tspan><tspan x="7939.81" y="805.887">아래, </tspan><tspan x="7996.39" y="805.887">제이크에겐 </tspan><tspan x="8111.39" y="805.887">불가능한 </tspan><tspan x="8204.79" y="805.887">것은 </tspan><tspan x="7166" y="837.887">사실상 </tspan><tspan x="7238.84" y="837.887">존재하지 </tspan><tspan x="7333.29" y="837.887">않는다. </tspan><tspan x="7412.43" y="837.887">하지만 </tspan><tspan x="7485.27" y="837.887">동시에 </tspan><tspan x="7558.12" y="837.887">그는 </tspan><tspan x="7609.35" y="837.887">항상 </tspan><tspan x="7660.59" y="837.887">두려움을 </tspan><tspan x="7755.04" y="837.887">느끼고 </tspan><tspan x="7827.88" y="837.887">있다. </tspan><tspan x="7885.41" y="837.887">자신이 </tspan><tspan x="7958.26" y="837.887">모르는 </tspan><tspan x="8031.1" y="837.887">세상에 </tspan><tspan x="8103.94" y="837.887">대하여, </tspan><tspan x="8183.18" y="837.887">외부의 </tspan><tspan x="7166" y="869.887">적에 </tspan><tspan x="7215.49" y="869.887">대하여, </tspan><tspan x="7292.98" y="869.887">그리고 </tspan><tspan x="7364.07" y="869.887">누구보다도 </tspan><tspan x="7478.38" y="869.887">두려운 </tspan><tspan x="7549.47" y="869.887">본인 </tspan><tspan x="7598.96" y="869.887">자신에 </tspan><tspan x="7670.05" y="869.887">대하여.</tspan></text><image x="6805" y="51" width="224" height="1009" fill="url(#img1720071782349_pattern2_4038_405)" xlink:href="/story/fidelion-6/3.png"/><image x="3475" width="1087" height="1080" fill="url(#img1720071782349_pattern3_4038_405)" xlink:href="/story/fidelion-6/4.png"/><image x="8401" y="38" width="1003" height="1003" fill="url(#img1720071782349_pattern4_4038_405)" xlink:href="/story/fidelion-6/5.png"/></g><defs><pattern id="img1720071782349_pattern0_4038_405" patternContentUnits="objectBoundingBox" width="1" height="1"><use xlink:href="#image0_4038_405" transform="matrix(0.000403496 0 0 0.000285063 -0.0003355 0)"/></pattern><pattern id="img1720071782349_pattern1_4038_405" patternContentUnits="objectBoundingBox" width="1" height="1"><use xlink:href="#image1_4038_405" transform="scale(0.000459137 0.00102669)"/></pattern><pattern id="img1720071782349_pattern2_4038_405" patternContentUnits="objectBoundingBox" width="1" height="1"><use xlink:href="#image2_4038_405" transform="matrix(0.00109972 0 0 0.000244141 -0.00037384 0)"/></pattern><pattern id="img1720071782349_pattern3_4038_405" patternContentUnits="objectBoundingBox" width="1" height="1"><use xlink:href="#image3_4038_405" transform="scale(0.000333333 0.000335494)"/></pattern><pattern id="img1720071782349_pattern4_4038_405" patternContentUnits="objectBoundingBox" width="1" height="1"><use xlink:href="#image4_4038_405" transform="scale(0.000244141)"/></pattern><clipPath id="clip0_4038_405"><rect width="9686" height="1080" fill="white"/></clipPath><clipPath id="clip1_4038_405"><rect width="763" height="1080" fill="white"/></clipPath><image id="image0_4038_405" width="2480" height="3508" xlink:href="/story/fidelion-6/1.png"/><image id="image1_4038_405" width="2178" height="974" xlink:href="/story/fidelion-6/2.png"/><image id="image2_4038_405" width="910" height="4096" xlink:href="/story/fidelion-6/3.png"/><image id="image3_4038_405" width="3000" height="2981" xlink:href="/story/fidelion-6/4.png"/><image id="image4_4038_405" width="4096" height="4096" xlink:href="/story/fidelion-6/5.png"/></defs></svg>