<svg width="10032" height="1080" viewBox="0 0 10032 1080" fill="none" xmlns="http://www.w3.org/2000/svg" xmlns:xlink="http://www.w3.org/1999/xlink"><g clip-path="url(#clip0_3616_3)"><rect width="10032" height="1080" fill="white"/><image x="3086" width="1069" height="1080" fill="url(#img1719305319491_pattern0_3616_3)" xlink:href="/story/fidelion-7-1/1.png"/><path d="M584.555 326.5C580.004 274.952 545.117 240.839 486.72 240.839C410.878 240.839 367.649 299.21 367.649 397C367.649 500.097 411.637 553.161 485.961 553.161C541.325 553.161 576.971 522.839 584.555 474.323L730.928 475.839C723.344 569.839 640.677 679 482.928 679C332.003 679 219 578.935 219 397C219 214.306 335.037 115 482.928 115C619.442 115 718.794 191.565 730.928 326.5H584.555Z" fill="#868686"/><path d="M800.702 671.419V122.581H1192.8V239.323H944.801V338.629H1172.32V455.371H944.801V554.677H1192.04V671.419H800.702Z" fill="#868686"/><path d="M1268.64 671.419V122.581H1412.74V554.677H1636.47V671.419H1268.64Z" fill="#868686"/><path d="M1842.76 122.581V671.419H1698.66V122.581H1842.76Z" fill="#868686"/><path d="M2389.58 122.581V671.419H2268.99L2064.98 375.016H2061.18V671.419H1917.09V122.581H2039.95L2240.93 417.468H2245.48V122.581H2389.58Z" fill="#868686"/><path d="M2463.9 671.419V122.581H2856V239.323H2608V338.629H2835.52V455.371H2608V554.677H2855.24V671.419H2463.9Z" fill="#868686"/><text fill="black" xml:space="preserve" style="white-space: pre" font-family="Pretendard" font-size="25" letter-spacing="0em"><tspan x="1034" y="743.887">셀린은 </tspan><tspan x="1106.05" y="743.887">피델리아 </tspan><tspan x="1199.71" y="743.887">제국에서 </tspan><tspan x="1293.37" y="743.887">크게 </tspan><tspan x="1343.82" y="743.887">떨어지지 </tspan><tspan x="1437.48" y="743.887">않은 </tspan><tspan x="1487.93" y="743.887">작은 </tspan><tspan x="1538.37" y="743.887">마을의 </tspan><tspan x="1610.43" y="743.887">가난한 </tspan><tspan x="1682.48" y="743.887">집안 </tspan><tspan x="1732.92" y="743.887">막내로 </tspan><tspan x="1804.98" y="743.887">태어났다. </tspan><tspan x="1904.94" y="743.887">원래 </tspan><tspan x="1955.38" y="743.887">몸이 </tspan><tspan x="2005.83" y="743.887">쇠약하였던 </tspan><tspan x="2121.1" y="743.887">그녀의 </tspan><tspan x="2193.15" y="743.887">어머니는 </tspan><tspan x="2286.81" y="743.887">셀린을 </tspan><tspan x="2358.86" y="743.887">출산하던 </tspan><tspan x="2452.52" y="743.887">과정에서 </tspan><tspan x="2546.18" y="743.887">심한 </tspan><tspan x="2596.63" y="743.887">출혈로 </tspan><tspan x="2668.68" y="743.887">목숨을 </tspan><tspan x="2740.73" y="743.887">잃게 </tspan><tspan x="2791.18" y="743.887">되었으</tspan><tspan x="1034" y="775.887">며, </tspan><tspan x="1068.71" y="775.887">그녀의 </tspan><tspan x="1140.23" y="775.887">아버지는 </tspan><tspan x="1233.36" y="775.887">셀린 </tspan><tspan x="1283.28" y="775.887">때문에 </tspan><tspan x="1354.8" y="775.887">아내를 </tspan><tspan x="1426.33" y="775.887">잃었다는 </tspan><tspan x="1519.46" y="775.887">생각에 </tspan><tspan x="1590.98" y="775.887">사로잡혀 </tspan><tspan x="1684.11" y="775.887">셀린에게 </tspan><tspan x="1777.24" y="775.887">유독 </tspan><tspan x="1827.16" y="775.887">가혹하게 </tspan><tspan x="1920.29" y="775.887">대했다. </tspan><tspan x="1998.12" y="775.887">그런 </tspan><tspan x="2048.03" y="775.887">셀린을 </tspan><tspan x="2119.56" y="775.887">불쌍하게 </tspan><tspan x="2212.69" y="775.887">여긴 </tspan><tspan x="2262.61" y="775.887">장녀 </tspan><tspan x="2312.52" y="775.887">일레인은 </tspan><tspan x="2405.65" y="775.887">그녀를 </tspan><tspan x="2477.18" y="775.887">남모르게 </tspan><tspan x="2570.31" y="775.887">많이 </tspan><tspan x="2620.23" y="775.887">돕고 </tspan><tspan x="2670.14" y="775.887">보살펴준다. </tspan><tspan x="2791.18" y="775.887">셀린은 </tspan><tspan x="1034" y="807.887">어머니를 </tspan><tspan x="1127.47" y="807.887">닮아 </tspan><tspan x="1177.73" y="807.887">몸이 </tspan><tspan x="1227.99" y="807.887">약하고 </tspan><tspan x="1299.85" y="807.887">말수가 </tspan><tspan x="1371.72" y="807.887">적은 </tspan><tspan x="1421.97" y="807.887">조용한 </tspan><tspan x="1493.84" y="807.887">아이였다. </tspan><tspan x="1593.61" y="807.887">그런 </tspan><tspan x="1643.87" y="807.887">그녀에게 </tspan><tspan x="1737.34" y="807.887">있어서 </tspan><tspan x="1809.2" y="807.887">일레인은 </tspan><tspan x="1902.67" y="807.887">어머니의 </tspan><tspan x="1996.14" y="807.887">역할을 </tspan><tspan x="2068.01" y="807.887">하는, </tspan><tspan x="2124.66" y="807.887">유일한 </tspan><tspan x="2196.53" y="807.887">삶의 </tspan><tspan x="2246.78" y="807.887">지지대였다. </tspan><tspan x="2368.16" y="807.887">그러던 </tspan><tspan x="2440.02" y="807.887">어느 </tspan><tspan x="2490.28" y="807.887">날, </tspan><tspan x="2525.33" y="807.887">마을 </tspan><tspan x="2575.59" y="807.887">전체가 </tspan><tspan x="2647.45" y="807.887">피델리온의 </tspan><tspan x="2762.53" y="807.887">군대에 </tspan><tspan x="2834.39" y="807.887">의</tspan><tspan x="1034" y="839.887">해 </tspan><tspan x="1061.94" y="839.887">습격을 </tspan><tspan x="1133.09" y="839.887">받게 </tspan><tspan x="1182.63" y="839.887">되는데, </tspan><tspan x="1260.18" y="839.887">이는 </tspan><tspan x="1309.72" y="839.887">마을의 </tspan><tspan x="1380.87" y="839.887">촌장과 </tspan><tspan x="1452.02" y="839.887">그를 </tspan><tspan x="1501.57" y="839.887">따르던 </tspan><tspan x="1572.72" y="839.887">무리가 </tspan><tspan x="1643.87" y="839.887">피델리아의 </tspan><tspan x="1758.23" y="839.887">명령을 </tspan><tspan x="1829.38" y="839.887">거부하고 </tspan><tspan x="1922.14" y="839.887">혁명을 </tspan><tspan x="1993.29" y="839.887">꾸몄다는 </tspan><tspan x="2086.04" y="839.887">사실이 </tspan><tspan x="2157.19" y="839.887">발각되었다는 </tspan><tspan x="2293.16" y="839.887">이유였다. </tspan><tspan x="2392.22" y="839.887">자식들을 </tspan><tspan x="2484.97" y="839.887">지키려 </tspan><tspan x="2556.12" y="839.887">피델리아 </tspan><tspan x="2648.88" y="839.887">군에 </tspan><tspan x="2698.42" y="839.887">저항하던 </tspan><tspan x="2791.18" y="839.887">아버지</tspan><tspan x="1034" y="871.887">는 </tspan><tspan x="1062.6" y="871.887">즉결 </tspan><tspan x="1112.81" y="871.887">처형을 </tspan><tspan x="1184.62" y="871.887">당하게 </tspan><tspan x="1256.43" y="871.887">되었고, </tspan><tspan x="1334.64" y="871.887">어린 </tspan><tspan x="1384.85" y="871.887">셀린은 </tspan><tspan x="1456.66" y="871.887">군인들에 </tspan><tspan x="1550.08" y="871.887">의해 </tspan><tspan x="1600.29" y="871.887">피델리아로 </tspan><tspan x="1715.31" y="871.887">강제로 </tspan><tspan x="1787.12" y="871.887">끌려가게 </tspan><tspan x="1880.54" y="871.887">된다. </tspan><tspan x="1937.05" y="871.887">피델리아 </tspan><tspan x="2030.47" y="871.887">제국의 </tspan><tspan x="2102.28" y="871.887">노예로 </tspan><tspan x="2174.09" y="871.887">잡혀 </tspan><tspan x="2224.3" y="871.887">온 </tspan><tspan x="2252.9" y="871.887">셀린은 </tspan><tspan x="2324.71" y="871.887">어린 </tspan><tspan x="2374.92" y="871.887">나이에도 </tspan><tspan x="2468.34" y="871.887">온갖 </tspan><tspan x="2518.54" y="871.887">험한 </tspan><tspan x="2568.75" y="871.887">노동을 </tspan><tspan x="2640.56" y="871.887">해가며 </tspan><tspan x="2712.37" y="871.887">힘든 </tspan><tspan x="2762.58" y="871.887">나날을 </tspan><tspan x="2834.39" y="871.887">보</tspan><tspan x="1034" y="903.887">낸다. </tspan><tspan x="1090.27" y="903.887">매일 </tspan><tspan x="1140.24" y="903.887">지옥 </tspan><tspan x="1190.22" y="903.887">같던 </tspan><tspan x="1240.19" y="903.887">세월을 </tspan><tspan x="1311.77" y="903.887">보내는 </tspan><tspan x="1383.35" y="903.887">일도 </tspan><tspan x="1433.32" y="903.887">힘들었지만, </tspan><tspan x="1554.51" y="903.887">그보다 </tspan><tspan x="1626.09" y="903.887">그 </tspan><tspan x="1654.46" y="903.887">과정에서 </tspan><tspan x="1747.64" y="903.887">언니를 </tspan><tspan x="1819.22" y="903.887">잃은 </tspan><tspan x="1869.2" y="903.887">슬픔이 </tspan><tspan x="1940.78" y="903.887">더욱 </tspan><tspan x="1990.75" y="903.887">컸다. </tspan><tspan x="2047.02" y="903.887">이를 </tspan><tspan x="2096.99" y="903.887">이겨내지 </tspan><tspan x="2190.18" y="903.887">못하고 </tspan><tspan x="2261.76" y="903.887">여러 </tspan><tspan x="2311.73" y="903.887">차례 </tspan><tspan x="2361.7" y="903.887">자살을 </tspan><tspan x="2433.28" y="903.887">시도하였으나 </tspan><tspan x="2569.68" y="903.887">이 </tspan><tspan x="2598.05" y="903.887">역시 </tspan><tspan x="2648.02" y="903.887">번번이 </tspan><tspan x="2719.6" y="903.887">동료나 </tspan><tspan x="2791.18" y="903.887">관리자</tspan><tspan x="1034" y="935.887">에게 </tspan><tspan x="1083.56" y="935.887">발견되어 </tspan><tspan x="1176.34" y="935.887">수포 </tspan><tspan x="1225.91" y="935.887">돌아가게 </tspan><tspan x="1318.68" y="935.887">된다. </tspan><tspan x="1374.55" y="935.887">수년 </tspan><tspan x="1424.11" y="935.887">뒤, </tspan><tspan x="1458.46" y="935.887">그녀는 </tspan><tspan x="1529.63" y="935.887">그녀의 </tspan><tspan x="1600.8" y="935.887">노예 </tspan><tspan x="1650.37" y="935.887">동료들과 </tspan><tspan x="1743.15" y="935.887">함께 </tspan><tspan x="1792.71" y="935.887">책을 </tspan><tspan x="1842.27" y="935.887">돌려 </tspan><tspan x="1891.84" y="935.887">읽거나 </tspan><tspan x="1963.01" y="935.887">맛있는 </tspan><tspan x="2034.18" y="935.887">음식을 </tspan><tspan x="2105.35" y="935.887">만들어 </tspan><tspan x="2176.52" y="935.887">먹는 </tspan><tspan x="2226.08" y="935.887">등 </tspan><tspan x="2254.04" y="935.887">그 </tspan><tspan x="2282" y="935.887">생활에 </tspan><tspan x="2353.17" y="935.887">조금씩 </tspan><tspan x="2424.34" y="935.887">적응을 </tspan><tspan x="2495.51" y="935.887">해나가기 </tspan><tspan x="2588.29" y="935.887">시작했다. </tspan><tspan x="2687.36" y="935.887">그녀가 </tspan><tspan x="2758.54" y="935.887">16살이 </tspan><tspan x="2834.39" y="935.887">되</tspan><tspan x="1034" y="967.887">던 </tspan><tspan x="1062.04" y="967.887">해, </tspan><tspan x="1096.47" y="967.887">그녀는 </tspan><tspan x="1167.72" y="967.887">절친 </tspan><tspan x="1217.37" y="967.887">제이미의 </tspan><tspan x="1310.22" y="967.887">손에 </tspan><tspan x="1359.87" y="967.887">이끌려 </tspan><tspan x="1431.12" y="967.887">제이크의 </tspan><tspan x="1523.98" y="967.887">군대를 </tspan><tspan x="1595.23" y="967.887">환영하는 </tspan><tspan x="1688.08" y="967.887">퍼레이드를 </tspan><tspan x="1802.55" y="967.887">구경하러 </tspan><tspan x="1895.4" y="967.887">나가게 </tspan><tspan x="1966.66" y="967.887">된다. </tspan><tspan x="2022.6" y="967.887">피델리온 </tspan><tspan x="2115.46" y="967.887">광장 </tspan><tspan x="2165.1" y="967.887">속 </tspan><tspan x="2193.14" y="967.887">군중들의 </tspan><tspan x="2285.99" y="967.887">열렬한 </tspan><tspan x="2357.25" y="967.887">환호를 </tspan><tspan x="2428.5" y="967.887">받으며 </tspan><tspan x="2499.75" y="967.887">성문을 </tspan><tspan x="2571" y="967.887">통해 </tspan><tspan x="2620.64" y="967.887">입장하는 </tspan><tspan x="2713.5" y="967.887">제이크를 </tspan><tspan x="2806.36" y="967.887">본 </tspan><tspan x="2834.39" y="967.887">셀</tspan><tspan x="1034" y="999.887">린은, </tspan><tspan x="1089.88" y="999.887">전에는 </tspan><tspan x="1160.98" y="999.887">한 </tspan><tspan x="1188.86" y="999.887">번도 </tspan><tspan x="1238.35" y="999.887">겪어보지 </tspan><tspan x="1331.05" y="999.887">못한 </tspan><tspan x="1380.53" y="999.887">미묘한 </tspan><tspan x="1451.63" y="999.887">감정을 </tspan><tspan x="1522.72" y="999.887">느끼게 </tspan><tspan x="1593.81" y="999.887">된다. </tspan><tspan x="1649.6" y="999.887">그 </tspan><tspan x="1677.48" y="999.887">과정에서 </tspan><tspan x="1770.18" y="999.887">제이크와 </tspan><tspan x="1862.88" y="999.887">셀린의 </tspan><tspan x="1933.98" y="999.887">눈이 </tspan><tspan x="1983.46" y="999.887">마주치게 </tspan><tspan x="2076.16" y="999.887">되는데, </tspan><tspan x="2153.65" y="999.887">기묘한 </tspan><tspan x="2224.75" y="999.887">감정에 </tspan><tspan x="2295.84" y="999.887">휩싸인 </tspan><tspan x="2366.93" y="999.887">셀린은 </tspan><tspan x="2438.03" y="999.887">황급히 </tspan><tspan x="2509.12" y="999.887">고개를 </tspan><tspan x="2580.22" y="999.887">돌려 </tspan><tspan x="2629.7" y="999.887">군중 </tspan><tspan x="2679.19" y="999.887">속을 </tspan><tspan x="2728.68" y="999.887">빠져나간다.</tspan></text><text fill="black" xml:space="preserve" style="white-space: pre" font-family="Pretendard" font-size="30" letter-spacing="0em"><tspan x="4229.14" y="118.664">이름
</tspan><tspan x="4229.14" y="158.664">성별
</tspan><tspan x="4229.14" y="198.664">나이
</tspan><tspan x="4229.14" y="238.664">국적
</tspan><tspan x="4229.14" y="278.664">소속
</tspan><tspan x="4229.14" y="318.664">직급</tspan></text><text fill="black" xml:space="preserve" style="white-space: pre" font-family="Pretendard-SemiBold" font-size="30" letter-spacing="0em"><tspan x="4303" y="118.664">Celine Adele
</tspan><tspan x="4303" y="158.664">Female
</tspan><tspan x="4303" y="198.664">20s
</tspan><tspan x="4303" y="238.664">미국
</tspan><tspan x="4303" y="278.664">피델리온
</tspan><tspan x="4303" y="318.664">황후</tspan></text><image x="4390" y="136" width="1747" height="808" fill="url(#img1719305319491_pattern1_3616_3)" xlink:href="/story/fidelion-7-1/2.png"/><text fill="black" xml:space="preserve" style="white-space: pre" font-family="Pretendard" font-size="25" letter-spacing="0em"><tspan x="6109" y="824.887">퍼레이드로부터 며칠이 지났지만 셀린은 여전히 퍼레이드에서 봤던 제이크의 모습을 생각하며 밤잠을 설치곤 했다. 알 수 없는 </tspan><tspan x="6109" y="856.887">감정에 사무치던 어느 날, 그녀의 집에 군인들이 들이닥쳐 셀린을 사로잡고, 그대로 그녀를 피델리온 타워로 끌고 가게 된다. 영문</tspan><tspan x="6109" y="888.887">도 모른 채 제국의 황제 앞에 소환된 셀린에게, 제이크는 아무런 추가 언급도 없이 그녀의 계급을 시민으로 승격시키고, 그대로 피</tspan><tspan x="6109" y="920.887">델리온 타워 안에서 일할 것을 명한다. 물론 이런 식으로 특진을 받은 사례가 없지는 않지만, 이는 제국 내에서 유례없는 계급 상</tspan><tspan x="6109" y="952.887">승이었고, 당연하게도 타워에서의 그녀에 대한 취급은 그다지 달갑지 못했다. 그녀는 상황에 맞추어 열심히 일하면서 동시에 본</tspan><tspan x="6109" y="984.887">인이 갑작스럽게 본인의 계급으로 승격된 이유에 대해 고민하고, 이따금 과거의 생활을 그리워하면서 힘든 생활을 이어나간다.</tspan></text><g style="mix-blend-mode:multiply"><image x="6553" y="139" width="632" height="632" fill="url(#img1719305319491_pattern2_3616_3)" xlink:href="/story/fidelion-7-1/3.png"/></g><text fill="black" xml:space="preserve" style="white-space: pre" font-family="Pretendard" font-size="25" letter-spacing="0em"><tspan x="7217" y="224.887">셀린은 질투와 시샘 속에서도 궁에서 본인의 업무, 즉 허드렛일에 최선을 다했다. 어느 날 그녀에게 제이크의 집무실을 청소하는 날이 </tspan><tspan x="7217" y="256.887">오게 되는데, 청소 도중 우연히 그녀를 다시 마주치게 된 제이크는 어떤 영문에선지 다음날부터 셀린을 집무실 청소만을 담당하는 역할</tspan><tspan x="7217" y="288.887">로 지정하게 된다. 다른 일꾼들의 시기와 질투에도 셀린은 묵묵히 본인의 업무를 다 완수해 나갔다. 비록 일은 고되고 외로웠지만 자연</tspan><tspan x="7217" y="320.887">스럽게 제이크와 마주치고 대화하는 것은 나쁘지 않은 경험이었다. 제이크는 하녀의 신분인 셀린을 하찮게 대하지 않았고, 셀린의 그를 </tspan><tspan x="7217" y="352.887">향한 궁금증은 점차 커졌다. 자연스럽게 대화를 나누게 되며 제이크와 가까워진 셀린은 점차 제이크에게 연심을 품게 된다. </tspan></text><text fill="black" xml:space="preserve" style="white-space: pre" font-family="Pretendard" font-size="25" letter-spacing="0em"><tspan x="8420" y="413.887">반면, 그녀의 직책은 날이 갈수록 상승해 나갔다. 제이크는 그녀의 재능을 일찍이 눈치채고 그녀를 군인 계급으로 재배정하였는데, 그녀</tspan><tspan x="8420" y="445.887">는 놀라울 정도로 빠르게 군사학을 습득하여 어느 시점부터는 잡일이 아닌 군인으로만의 일을 맡게 되었다. 어느새 그녀는 피델리아의 </tspan><tspan x="8420" y="477.887">군대에서 중요한 한 축으로 자리 잡게 되어갔다. 이러한 모습을 지켜보던 제이크 역시 셀린이 마음 한 곳을 크게 차지하게 되는 것을 느</tspan><tspan x="8420" y="509.887">끼게 된다. 결국 많은 자들의 반대에도 불구, 제이크는 셀린을 황후로 맞이하게 되고, 셀린은 제국의 가장 높은 자리로 올라가게 된다.</tspan></text><image x="7527" y="576" width="2315" height="504" fill="url(#img1719305319491_pattern3_3616_3)" xlink:href="/story/fidelion-7-1/4.png"/></g><defs><pattern id="img1719305319491_pattern0_3616_3" patternContentUnits="objectBoundingBox" width="1" height="1"><use xlink:href="#image0_3616_3" transform="matrix(0.000333539 0 0 0.000330142 -0.000308678 0)"/></pattern><pattern id="img1719305319491_pattern1_3616_3" patternContentUnits="objectBoundingBox" width="1" height="1"><use xlink:href="#image1_3616_3" transform="scale(0.000667557 0.00123762)"/></pattern><pattern id="img1719305319491_pattern2_3616_3" patternContentUnits="objectBoundingBox" width="1" height="1"><use xlink:href="#image2_3616_3" transform="scale(0.000976562)"/></pattern><pattern id="img1719305319491_pattern3_3616_3" patternContentUnits="objectBoundingBox" width="1" height="1"><use xlink:href="#image3_3616_3" transform="scale(0.000244141 0.0011214)"/></pattern><clipPath id="clip0_3616_3"><rect width="10032" height="1080" fill="white"/></clipPath><image id="image0_3616_3" width="3000" height="3029" xlink:href="/story/fidelion-7-1/1.png"/><image id="image1_3616_3" width="1498" height="808" xlink:href="/story/fidelion-7-1/2.png"/><image id="image2_3616_3" width="1024" height="1024" xlink:href="/story/fidelion-7-1/3.png"/><image id="image3_3616_3" width="4096" height="892" xlink:href="/story/fidelion-7-1/4.png"/></defs></svg>