<svg width="13735" height="1080" viewBox="0 0 13735 1080" fill="none" xmlns="http://www.w3.org/2000/svg" xmlns:xlink="http://www.w3.org/1999/xlink"><g clip-path="url(#clip0_3664_12)"><rect width="13735" height="1080" fill="black"/><text fill="white" xml:space="preserve" style="white-space: pre" font-family="Pretendard" font-size="25" letter-spacing="0em"><tspan x="280" y="839.887">피델리아는 </tspan><tspan x="394.522" y="839.887">면적 </tspan><tspan x="444.225" y="839.887">약 </tspan><tspan x="472.321" y="839.887">800제곱킬로미터 </tspan><tspan x="653.396" y="839.887">정도의 </tspan><tspan x="724.705" y="839.887">대지 </tspan><tspan x="774.407" y="839.887">위에 </tspan><tspan x="824.11" y="839.887">세워진 </tspan><tspan x="895.419" y="839.887">도시국가로서, </tspan><tspan x="1037.94" y="839.887">서북부 </tspan><tspan x="1109.25" y="839.887">지역에 </tspan><tspan x="1180.56" y="839.887">위치한 </tspan><tspan x="1251.87" y="839.887">식량 </tspan><tspan x="1301.57" y="839.887">생산을 </tspan><tspan x="1372.88" y="839.887">위한 </tspan><tspan x="1422.59" y="839.887">플랜테이션을 </tspan><tspan x="1558.71" y="839.887">포함하면 </tspan><tspan x="1651.63" y="839.887">실질적으로 </tspan><tspan x="1766.15" y="839.887">힘이 </tspan><tspan x="1815.85" y="839.887">미치는 </tspan><tspan x="1887.16" y="839.887">면적은 </tspan><tspan x="1958.47" y="839.887">약 </tspan><tspan x="1986.57" y="839.887">2,000제곱킬로미터에 </tspan><tspan x="2209.46" y="839.887">달하고 </tspan><tspan x="2280.77" y="839.887">있다. </tspan><tspan x="2336.78" y="839.887">도시 </tspan><tspan x="2386.48" y="839.887">외곽에는 </tspan><tspan x="2479.39" y="839.887">약 </tspan><tspan x="280" y="871.887">3미터의 </tspan><tspan x="367.085" y="871.887">높이로 </tspan><tspan x="438.74" y="871.887">철옹성 </tspan><tspan x="510.396" y="871.887">같은 </tspan><tspan x="560.445" y="871.887">성벽이 </tspan><tspan x="632.1" y="871.887">건설되어 </tspan><tspan x="725.362" y="871.887">있는데, </tspan><tspan x="803.414" y="871.887">이 </tspan><tspan x="831.857" y="871.887">성벽은 </tspan><tspan x="903.512" y="871.887">외부 </tspan><tspan x="953.561" y="871.887">세력의 </tspan><tspan x="1025.22" y="871.887">군사적 </tspan><tspan x="1096.87" y="871.887">침입을 </tspan><tspan x="1168.53" y="871.887">방어할 </tspan><tspan x="1240.18" y="871.887">목적뿐만 </tspan><tspan x="1333.44" y="871.887">아니라 </tspan><tspan x="1405.1" y="871.887">황야에서 </tspan><tspan x="1498.36" y="871.887">도시로 </tspan><tspan x="1570.02" y="871.887">숨어들어오는 </tspan><tspan x="1706.49" y="871.887">밀입국자를 </tspan><tspan x="1821.36" y="871.887">원천 </tspan><tspan x="1871.41" y="871.887">차단할 </tspan><tspan x="1943.06" y="871.887">목적으로 </tspan><tspan x="2036.33" y="871.887">지어진 </tspan><tspan x="2107.98" y="871.887">것에 </tspan><tspan x="2158.03" y="871.887">가깝다고 </tspan><tspan x="2251.29" y="871.887">봐야 </tspan><tspan x="2301.34" y="871.887">한다. </tspan><tspan x="2357.69" y="871.887">높은 </tspan><tspan x="2407.74" y="871.887">성벽은 </tspan><tspan x="2479.39" y="871.887">안</tspan><tspan x="280" y="903.887">쪽이 </tspan><tspan x="329.487" y="903.887">보이지 </tspan><tspan x="400.581" y="903.887">않도록 </tspan><tspan x="471.675" y="903.887">철저히 </tspan><tspan x="542.769" y="903.887">시각 </tspan><tspan x="592.256" y="903.887">정보를 </tspan><tspan x="663.35" y="903.887">차단하여 </tspan><tspan x="756.05" y="903.887">제국에 </tspan><tspan x="827.144" y="903.887">대한 </tspan><tspan x="876.631" y="903.887">정보가 </tspan><tspan x="947.725" y="903.887">외부에 </tspan><tspan x="1018.82" y="903.887">유출되는 </tspan><tspan x="1111.52" y="903.887">것을 </tspan><tspan x="1161.01" y="903.887">막는 </tspan><tspan x="1210.49" y="903.887">역할을 </tspan><tspan x="1281.59" y="903.887">한다. </tspan><tspan x="1337.37" y="903.887">피델리아의 </tspan><tspan x="1451.68" y="903.887">각 </tspan><tspan x="1479.56" y="903.887">지역은 </tspan><tspan x="1550.65" y="903.887">용도에 </tspan><tspan x="1621.75" y="903.887">따라 </tspan><tspan x="1671.24" y="903.887">&apos;구획&apos;으로 </tspan><tspan x="1773.99" y="903.887">나누어져 </tspan><tspan x="1866.69" y="903.887">있고, </tspan><tspan x="1922.58" y="903.887">각 </tspan><tspan x="1950.46" y="903.887">구획은 </tspan><tspan x="2021.55" y="903.887">제국에서 </tspan><tspan x="2114.25" y="903.887">임명한 </tspan><tspan x="2185.35" y="903.887">행정관리에 </tspan><tspan x="2299.65" y="903.887">의해 </tspan><tspan x="2349.14" y="903.887">관리되고 </tspan><tspan x="2441.84" y="903.887">있다.</tspan></text><path d="M307.453 763.717L288 692.27H296.941L311.776 750.099H312.464L327.496 692.27H337.419L352.549 750.099H353.138L367.974 692.27H376.914L357.461 763.717H348.324L332.801 707.171H332.212L316.59 763.717H307.453Z" fill="white"/><path d="M483.042 764.803C467.617 764.803 458.087 753.849 458.087 737.368C458.087 720.888 467.715 709.441 482.256 709.441C493.456 709.441 505.246 716.349 505.246 736.184V739.737H466.536C466.929 751.086 473.512 757.303 483.042 757.303C489.428 757.303 493.456 754.539 495.421 751.184H504.46C501.905 759.276 494.046 764.803 483.042 764.803ZM466.634 732.533H496.698C496.698 723.553 491 716.941 482.256 716.941C473.021 716.941 467.126 724.243 466.634 732.533Z" fill="white"/><path d="M605.184 692.27V763.717H596.734V692.27H605.184Z" fill="white"/><path d="M720.939 764.803C705.809 764.803 696.574 753.257 696.574 737.171C696.574 720.888 706.202 709.441 720.743 709.441C732.14 709.441 740.589 716.151 741.964 726.316H733.515C732.336 721.382 728.013 716.941 720.939 716.941C711.409 716.941 705.023 724.836 705.023 736.875C705.023 749.309 711.213 757.204 720.939 757.204C727.227 757.204 732.041 753.849 733.515 747.928H741.964C740.589 757.5 732.827 764.803 720.939 764.803Z" fill="white"/><path d="M854.674 764.803C840.134 764.803 830.309 753.849 830.309 737.171C830.309 720.493 840.134 709.441 854.674 709.441C869.117 709.441 878.843 720.493 878.843 737.171C878.843 753.849 869.117 764.803 854.674 764.803ZM854.674 757.303C865.383 757.303 870.394 747.829 870.394 737.171C870.394 726.513 865.383 716.941 854.674 716.941C843.769 716.941 838.758 726.513 838.758 737.171C838.758 747.829 843.769 757.303 854.674 757.303Z" fill="white"/><path d="M970.43 763.717V710.132H978.585V718.52H979.272C981.532 712.796 986.641 709.441 993.617 709.441C1000.59 709.441 1005.31 712.796 1007.86 718.52H1008.45C1011.2 712.993 1016.8 709.441 1024.47 709.441C1034 709.441 1040.78 715.263 1040.78 727.895V763.717H1032.33V727.993C1032.33 720.099 1027.32 717.039 1021.52 717.039C1014.05 717.039 1009.83 722.072 1009.83 728.882V763.717H1001.28V727.105C1001.28 721.086 996.957 717.039 990.866 717.039C984.48 717.039 978.879 722.467 978.879 730.263V763.717H970.43Z" fill="white"/><path d="M1157.22 764.803C1141.79 764.803 1132.26 753.849 1132.26 737.368C1132.26 720.888 1141.89 709.441 1156.43 709.441C1167.63 709.441 1179.42 716.349 1179.42 736.184V739.737H1140.71C1141.11 751.086 1147.69 757.303 1157.22 757.303C1163.61 757.303 1167.63 754.539 1169.6 751.184H1178.64C1176.08 759.276 1168.22 764.803 1157.22 764.803ZM1140.81 732.533H1170.88C1170.88 723.553 1165.18 716.941 1156.43 716.941C1147.2 716.941 1141.3 724.243 1140.81 732.533Z" fill="white"/><path d="M1399.93 710.132V717.237H1388.73V748.322C1388.73 755.23 1392.07 756.316 1395.71 756.316C1397.28 756.316 1399.44 756.217 1400.72 756.118V764.013C1399.44 764.211 1397.28 764.408 1394.82 764.408C1387.75 764.408 1380.18 759.967 1380.18 750.493V717.237H1372.13V710.132H1380.18V697.303H1388.73V710.132H1399.93Z" fill="white"/><path d="M1512.54 764.803C1498 764.803 1488.18 753.849 1488.18 737.171C1488.18 720.493 1498 709.441 1512.54 709.441C1526.98 709.441 1536.71 720.493 1536.71 737.171C1536.71 753.849 1526.98 764.803 1512.54 764.803ZM1512.54 757.303C1523.25 757.303 1528.26 747.829 1528.26 737.171C1528.26 726.513 1523.25 716.941 1512.54 716.941C1501.64 716.941 1496.63 726.513 1496.63 737.171C1496.63 747.829 1501.64 757.303 1512.54 757.303Z" fill="white"/><path d="M1735.11 763.717V692.27H1777.95V700.164H1743.96V724.046H1774.71V731.842H1743.96V763.717H1735.11Z" fill="white"/><path d="M1870.52 763.717V710.132H1878.97V763.717H1870.52ZM1874.74 701.25C1871.5 701.25 1868.85 698.783 1868.85 695.625C1868.85 692.467 1871.5 690 1874.74 690C1877.99 690 1880.74 692.467 1880.74 695.625C1880.74 698.783 1877.99 701.25 1874.74 701.25Z" fill="white"/><path d="M1993.05 764.803C1979.79 764.803 1970.36 754.046 1970.36 737.072C1970.36 720.099 1979.79 709.441 1993.15 709.441C2003.47 709.441 2006.81 715.757 2008.58 718.618H2009.17V692.27H2017.71V763.717H2009.46V755.526H2008.58C2006.71 758.487 2003.27 764.803 1993.05 764.803ZM1994.23 757.204C2003.96 757.204 2009.46 748.914 2009.46 736.875C2009.46 725.033 2004.16 717.039 1994.23 717.039C1984.01 717.039 1978.91 725.724 1978.91 736.875C1978.91 748.322 1984.11 757.204 1994.23 757.204Z" fill="white"/><path d="M2135.24 764.803C2119.81 764.803 2110.28 753.849 2110.28 737.368C2110.28 720.888 2119.91 709.441 2134.45 709.441C2145.65 709.441 2157.44 716.349 2157.44 736.184V739.737H2118.73C2119.13 751.086 2125.71 757.303 2135.24 757.303C2141.62 757.303 2145.65 754.539 2147.62 751.184H2156.66C2154.1 759.276 2146.24 764.803 2135.24 764.803ZM2118.83 732.533H2148.89C2148.89 723.553 2143.2 716.941 2134.45 716.941C2125.22 716.941 2119.32 724.243 2118.83 732.533Z" fill="white"/><path d="M2257.38 692.27V763.717H2248.93V692.27H2257.38Z" fill="white"/><path d="M2351.32 763.717V710.132H2359.77V763.717H2351.32ZM2355.55 701.25C2352.31 701.25 2349.65 698.783 2349.65 695.625C2349.65 692.467 2352.31 690 2355.55 690C2358.79 690 2361.54 692.467 2361.54 695.625C2361.54 698.783 2358.79 701.25 2355.55 701.25Z" fill="white"/><path d="M2451.16 748.52C2451.16 736.184 2461.97 733.421 2471.21 732.73C2474.6 732.484 2483.24 732.039 2485.65 731.941V727.599C2485.65 720.789 2481.62 716.842 2473.56 716.842C2466.79 716.842 2462.76 720 2461.58 724.046H2452.74C2453.82 715.461 2462.17 709.441 2473.96 709.441C2480.93 709.441 2494 711.513 2494 728.388V763.717H2485.65V756.414H2485.26C2483.49 760.066 2478.58 765 2469.34 765C2459.22 765 2451.16 758.98 2451.16 748.52ZM2459.61 748.914C2459.61 754.539 2464.33 757.401 2470.81 757.401C2480.34 757.401 2485.65 750.987 2485.65 744.276V738.849L2472.19 739.836C2464.53 740.329 2459.61 743.092 2459.61 748.914Z" fill="white"/><path d="M581.184 197H639.028V601.772H581.184V197ZM1041.36 254.962H1242.48V197H1041.36V254.945V254.962ZM1041.36 601.755H1242.48V543.81H1041.36V601.755ZM1238.12 371.132H1064.4V429.077H1238.12V371.132ZM1637.2 601.772H1695.04V197H1637.2V601.772ZM448.257 428.358V370.414H334.844V254.945H478.115V197H277V601.772H334.844V428.358H448.257ZM1396.53 541.478V197H1338.69V601.772H1539.78V543.827H1396.51V541.478H1396.53ZM2190.4 399.377C2190.4 510.971 2099.78 601.755 1988.38 601.755C1876.98 601.755 1786.35 510.971 1786.35 399.377C1786.35 287.783 1876.98 197 1988.38 197C2099.78 197 2190.4 287.783 2190.4 399.377ZM2132.56 399.377C2132.56 319.727 2067.87 254.927 1988.38 254.927C1908.88 254.927 1844.2 319.727 1844.2 399.377C1844.2 479.027 1908.88 543.827 1988.38 543.827C2067.87 543.827 2132.56 479.027 2132.56 399.377ZM926.445 267.077C958.211 303.843 975.713 350.83 975.713 399.377C975.713 447.925 958.211 494.912 926.445 531.677C894.994 568.057 851.729 592.112 804.597 599.388C795.916 600.738 755.119 601.527 744.757 601.719V197H773.636C774.721 197.035 794.866 197.859 804.597 199.367C851.729 206.643 894.994 230.697 926.445 267.077ZM917.869 399.377C917.869 366.451 906.476 334.209 885.771 308.612C865.381 283.382 836.853 265.587 805.472 258.486L802.601 257.838V540.934L805.472 540.286C836.853 533.185 865.363 515.372 885.771 490.16C906.476 464.563 917.869 432.321 917.869 399.395V399.377ZM2278.59 197.789L2208.24 197.842L2445.84 601.755H2505V197H2447.16V487.899L2442.78 480.36L2278.59 197.789Z" fill="#CC0000"/><text fill="white" xml:space="preserve" style="white-space: pre" font-family="Pretendard" font-size="25" letter-spacing="0em"><tspan x="4890" y="475.887">제이크는 사실상 북아메리카 전역을 통틀어 가장 거대한 석유 시스템을 </tspan><tspan x="4890" y="507.887">통제 중이다. 피델리아는 석유 자원을 기반으로 성장하고 발전해 나간 </tspan><tspan x="4890" y="539.887">국가이다. 그렇기에 그 중심에 건설된 정유 타워, 피델리온은 피델리아 </tspan><tspan x="4890" y="571.887">제국 전체를 대표하는 상징물로서 그 존재의의가 상당히 크다. 피델리온</tspan><tspan x="4890" y="603.887">에서 생산되는 석유의 파급력은 일반인의 상상을 초월할 정도이며, 실제</tspan><tspan x="4890" y="635.887">로 고농도의 에너지를 필요로 하는 거대 운반체계나 탱크, 심지어 이족</tspan><tspan x="4890" y="667.887">보행 병기 등을 움직이는 데에 필수 불가결한 자원이다. 이러한 자원에 </tspan><tspan x="4890" y="699.887">대한 니즈는 내외부를 가리지 않고 지속적으로 존재하며, 이것이 피델리</tspan><tspan x="4890" y="731.887">아 제국의 지속 가능한 부의 원천이라고 할 수 있다.  </tspan><tspan x="4890" y="763.887"> </tspan><tspan x="4890" y="795.887">실질적으로 이 거대한 엔진을 움직이는 것은 피델리아의 노동자들이지</tspan><tspan x="4890" y="827.887">만, 전체의 운영이 정상적으로 이루어지기 위해선 제이크를 따르는 관리</tspan><tspan x="4890" y="859.887">층과 군대가 적재적소에 적합하게 개입되어야만 한다. 이는 외부에서 보</tspan><tspan x="4890" y="891.887">기엔 얼핏 효율적으로 운영되는 운영체계로 보일 수 있으나, 실상은 제</tspan><tspan x="4890" y="923.887">이크가 만들어낸 철권통치 아래에서만 가능한 강제적인 구조로, 피델리</tspan><tspan x="4890" y="955.887">아 내부의 노동구조를 거부하는 시민은 강제 추방 혹은 그 죄의 정도에 </tspan><tspan x="4890" y="987.887">따라 사형까지도 집행될 수 있다.</tspan></text><image x="2776" width="2017" height="1080" fill="url(#img1719222096350_pattern0_3664_12)" xlink:href="/story/fidelion-3/1.png"/><g clip-path="url(#clip1_3664_12)"><path d="M6540.11 129.304V0H6924V129.304H6540.11ZM6104.43 4.93365L6097.18 0H5900V129.304H6283.89L6104.43 4.93365ZM6841.18 722L6540.11 563.919V1080H6673.11V722H6841.18ZM5982.82 722H6150.89V1080H6283.89V563.919L5982.82 722ZM5900 331.576V478.617L6180.04 331.576H5900ZM6924 478.617V331.576H6643.96L6924 478.617Z" fill="#CC0000"/></g><image x="7605" width="1321" height="1080" fill="url(#img1719222096350_pattern1_3664_12)" xlink:href="/story/fidelion-3/2.png"/><text fill="white" xml:space="preserve" style="white-space: pre" font-family="Pretendard" font-size="25" letter-spacing="0em"><tspan x="7162" y="718.887">타워 상부를 지지하는 축으로, 단순한 구조물을 넘어 피델리온을 지탱</tspan><tspan x="7162" y="750.887">하는 힘을 묘사한 구조물로 볼 수 있다. 기본 지지물은 피델리아 제국 </tspan><tspan x="7162" y="782.887">내에 존재하는 노동자, 엔지니어, 군대와 병사들을 상징하며, 거대한 중</tspan><tspan x="7162" y="814.887">앙의 지지축은 석유를 뽑아내는 거대한 시추 파이프를 상징하고 있다.</tspan></text><text fill="white" xml:space="preserve" style="white-space: pre" font-family="Pretendard" font-size="25" letter-spacing="0em"><tspan x="7310" y="510.887">제이크와 상류층의 신민이 거주하며 제국 운영과 </tspan><tspan x="7310" y="542.887">통치의 전반에 관여하는 장소이다. 제국 피델리아</tspan><tspan x="7310" y="574.887">의 컨트롤 타워라고 볼 수 있다.</tspan></text><text fill="white" xml:space="preserve" style="white-space: pre" font-family="Pretendard" font-size="25" letter-spacing="0em"><tspan x="8616" y="149.887">피델리온 타워의 최상부는 피델리아의 이미지를 상징적으로 </tspan><tspan x="8616" y="181.887">보여주고 있으며, 실제로 정유시설이 일부 운영되고 있기도 하</tspan><tspan x="8616" y="213.887">다. 실제로의 활용성이 높다기보다는 피델리아의 상징성을 두</tspan><tspan x="8616" y="245.887">드러지게 보여주는 용도에 더 가깝다고 볼 수 있다. 실제로 피</tspan><tspan x="8616" y="277.887">델리온 타워에서는 언제나 연기가 멈추지 않고 뿜어져 나온다.</tspan></text><image x="9257" width="2710" height="1080" fill="url(#img1719222096350_pattern2_3664_12)" xlink:href="/story/fidelion-3/3.png"/><text fill="white" xml:space="preserve" style="white-space: pre" font-family="Pretendard" font-size="25" letter-spacing="0em"><tspan x="10059" y="907.887">초대 황제 제이크는 과거 부랑자들이 지배하고 있던 도시를 철저하게 해체하고 계획도시로 재설계하였다. 이에 따라 피델리아는 도시 중앙의 탑이 위치한 둥근 중앙 구획을 중심</tspan><tspan x="10059" y="939.887">으로 여덟 구획의 경계선이 뻗어나가는 방사형 도시의 구조를 지니게 되었다. 일반적인 방사형 도시의 형태가 각각의 구획이 서로 연결되는 구조를 가진 것과 상반되게, 피델리아</tspan><tspan x="10059" y="971.887">는 구획 간 이동이 통제되고 있다. 방사형으로 뻗어나간 구획의 경계에는 도로 대신 콘크리트로 구축된 장벽이 자리 잡고 있으며, 구획 사이에는 검문소가 있어서 자유로운 왕래</tspan><tspan x="10059" y="1003.89">가 어렵다. 또한 특수한 용도로 사용되는 몇 개의 구획은 출입이 전면적으로 차단되어 일반인은 진입이 불가하다.</tspan></text><text fill="white" xml:space="preserve" style="white-space: pre" font-family="Pretendard" font-size="25" letter-spacing="0em"><tspan x="11471" y="126.887">건국 초기, 황제 제이크는 프롤레타리아 혁명에서 영감을 얻어 자신의 시민 노동계급을 위한 &apos;노동에 따른 공정한 임금 시스템&apos;을 기반으로 하</tspan><tspan x="11471" y="158.887">는 경제구조를 구성하였고, 이를 토대로 많은 거주자들의 지지를 받는다. 비록 본인의 거주 구역과 하류 계층의 구역이 명확하게 구분되길 원했</tspan><tspan x="11471" y="190.887">다는 점에서 제국 특권층에 대한 보호와, 나아가 신격화를 유도하는 구조라는 비판을 피할 수는 없으나 계층을 명확히 나누어 본인의 역할에 집</tspan><tspan x="11471" y="222.887">중, 이에 따른 만족도를 높이는 구조는 어느 정도 효율적인 사회시스템이라고 볼 수도 있었다. 안타깝게도 시간이 지날수록 이러한 구조는 본래</tspan><tspan x="11471" y="254.887">의 의도와는 다르게 서서히 변질되어 초기와는 다른, 광기에 찬 사회구조를 만들어내게 된다.</tspan></text><image x="12919" width="763" height="1080" fill="url(#img1719222096350_pattern3_3664_12)" xlink:href="/story/fidelion-3/4.png"/></g><defs><pattern id="img1719222096350_pattern0_3664_12" patternContentUnits="objectBoundingBox" width="1" height="1"><use xlink:href="#image0_3664_12" transform="scale(0.000495786 0.000925926)"/></pattern><pattern id="img1719222096350_pattern1_3664_12" patternContentUnits="objectBoundingBox" width="1" height="1"><use xlink:href="#image1_3664_12" transform="scale(0.000252334 0.000308642)"/></pattern><pattern id="img1719222096350_pattern2_3664_12" patternContentUnits="objectBoundingBox" width="1" height="1"><use xlink:href="#image2_3664_12" transform="scale(0.000244194 0.000612745)"/></pattern><pattern id="img1719222096350_pattern3_3664_12" patternContentUnits="objectBoundingBox" width="1" height="1"><use xlink:href="#image3_3664_12" transform="matrix(0.000403496 0 0 0.000285063 -0.0003355 0)"/></pattern><clipPath id="clip0_3664_12"><rect width="13735" height="1080" fill="white"/></clipPath><clipPath id="clip1_3664_12"><rect width="1024" height="1080" fill="white" transform="translate(5900)"/></clipPath><image id="image0_3664_12" width="2017" height="1080" xlink:href="/story/fidelion-3/1.png"/><image id="image1_3664_12" width="3963" height="3240" xlink:href="/story/fidelion-3/2.png"/><image id="image2_3664_12" width="4096" height="1632" xlink:href="/story/fidelion-3/3.png"/><image id="image3_3664_12" width="2480" height="3508" xlink:href="/story/fidelion-3/4.png"/></defs></svg>