<svg width="14931" height="1080" viewBox="0 0 14931 1080" fill="none" xmlns="http://www.w3.org/2000/svg" xmlns:xlink="http://www.w3.org/1999/xlink"><g clip-path="url(#clip0_3798_2157)"><rect width="14931" height="1080" fill="black"/><image width="4051" height="1080" fill="url(#img1719307794880_pattern0_3798_2157)" xlink:href="/story/fidelion-2/1.png"/><image x="3271" width="3505" height="1080" fill="url(#img1719307794880_pattern1_3798_2157)" xlink:href="/story/fidelion-2/2.png"/><text fill="white" xml:space="preserve" style="white-space: pre" font-family="Pretendard-Black" font-size="260" letter-spacing="-0.03em"><tspan x="1629" y="261.422">The
</tspan><tspan x="1629" y="473.422">Beginning</tspan></text><text fill="black" xml:space="preserve" style="white-space: pre" font-family="Noto Serif JP" font-size="25" letter-spacing="0em"><tspan x="1687" y="847.812">荒野を旅した後、ジェイクと彼の追随者たちは、かつてテキサス州だった場所に到着します。そこで</tspan><tspan x="1687" y="879.812">は、すでに汚染されていない川の周囲に人間の居住地が形成されています。食糧生産のための集団農</tspan><tspan x="1687" y="911.812">場があり、被害を受けていない製油所からは石油が抽出されています。問題は、その地域にはすでに</tspan><tspan x="1687" y="943.812">支配者がいたということだ。ウルフギャングは農場や製油所などの施設を独占し、生き残った人々を</tspan><tspan x="1687" y="975.812">奴隷として監禁していた武装暴力組織だった。彼らは食料を求めて集まった人々に生産を組織するよ</tspan><tspan x="1687" y="1007.81">う命じたが、彼らは労働の成果のほとんどを自分たちのために保管した。そこでジェイクは思い出の</tspan><tspan x="1687" y="1039.81">人物に出会う。退役軍人である長野将軍は、かつて父親の親友であり指導者でもありました。</tspan></text><text fill="black" xml:space="preserve" style="white-space: pre" font-family="Noto Serif JP" font-size="25" letter-spacing="0em"><tspan x="2959" y="109.812">永野家は先祖代々マーカス家と親しい由緒</tspan><tspan x="2959" y="141.812">ある軍人一族で、永野もジェイクのことを</tspan><tspan x="2959" y="173.812">覚えていた。物事の理不尽さを認識でき</tspan><tspan x="2959" y="205.812">ず、ヴォルフガングの下で​​苦戦しながらも</tspan><tspan x="2959" y="237.812">反撃を目論んで反対派を集めていた。ジェ</tspan><tspan x="2959" y="269.812">イクは長野将軍に近づき、ヴォルフガング</tspan><tspan x="2959" y="301.812">打倒のために力を合わせることを提案す</tspan><tspan x="2959" y="333.812">る。最初、長野はこの青年のスキルや性格</tspan><tspan x="2959" y="365.812">に懐疑的でしたが、自身の経験やジェイク</tspan><tspan x="2959" y="397.812">から聞いた話を通じて、ジェイクがどのよ</tspan><tspan x="2959" y="429.812">うにして部下を惹きつけ、彼らの心を掴ん</tspan><tspan x="2959" y="461.812">でいるのかを理解します。</tspan></text><text fill="white" xml:space="preserve" style="white-space: pre" font-family="Noto Serif JP" font-size="25" letter-spacing="0em"><tspan x="3197" y="694.812">ジェイクが並外れたリーダーシップの資質を持っていることを認識した長野は、ウルフギャング</tspan><tspan x="3197" y="726.812">と同等の2つのグループとして戦うよりも、ジェイクの指揮下で戦う方が有利であると判断し、彼</tspan><tspan x="3197" y="758.812">は自分の部下を率いてジェイクのグループに加わることを決意する。地下壕で一から組織を作り</tspan><tspan x="3197" y="790.812">上げたジェイクや、歴戦の経験で鍛えられた長野将軍にとって、ウルフギャングはただのチンピ</tspan><tspan x="3197" y="822.812">ラの寄せ集め集団に過ぎない。長野とその追随者たちは、ヴォルフガングへの服従を装ってすぐ</tspan><tspan x="3197" y="854.812">に民衆を掌握し、店を構えたが、準備が整うとすぐに反旗を翻した。ウルフギャングは施設、物</tspan><tspan x="3197" y="886.812">資、豊富な武器を掌握していたが、彼らの状況を熟知し、計画を立てていたジェイクには太刀打</tspan><tspan x="3197" y="918.812">ちできなかった。結局、彼らは武器や物資、命さえも奪われ、ジェイクと彼の追随者たちは地元</tspan><tspan x="3197" y="950.812">住民から「解放者」として歓迎された。</tspan></text><text fill="white" xml:space="preserve" style="white-space: pre" font-family="Noto Serif JP" font-size="25" letter-spacing="0em"><tspan x="5528" y="507.812">オールド・テキサスの住民は、ジェイクを新しいリーダーにしたいと考えていまし</tspan><tspan x="5528" y="539.812">た。リーダーとしての役割を受け入れたジェイクは、石油生産の効率を高めるため</tspan><tspan x="5528" y="571.812">に過労状態のウルフ・ギャングの製油所を再建し、食料供給を増やすために多くの</tspan><tspan x="5528" y="603.812">荒廃した農場を再活性化する。その間、無法者の攻撃を防ぎ住民を保護するため</tspan><tspan x="5528" y="635.812">に、武器と車両は徹底的に改修されました。戦前に利用可能だった機器や施設を特</tspan><tspan x="5528" y="667.812">定して利用するために、専門の職員が選ばれました。これで進歩の基礎が築かれま</tspan><tspan x="5528" y="699.812">した。
</tspan><tspan x="5528" y="735.812">
</tspan><tspan x="5528" y="771.812">彼は特定の分野の専門家ではありませんでしたが、ジェイクの判断力、決意、そし</tspan><tspan x="5528" y="803.812">てカリスマ性は、彼の指揮下にある人々を彼の指示に喜んで従わせるのに十分以上</tspan><tspan x="5528" y="835.812">でした。かつてはウルフギャングが管理する小さな村でしたが、今では住宅、食料</tspan><tspan x="5528" y="867.812">生産地、市場を備えた小さな都市に成長しました。ジェイクは、少年時代に地下壕</tspan><tspan x="5528" y="899.812">で聴いていたオペラ「フィデリオ」にちなんで、自分の街をフィデリアと名付けま</tspan><tspan x="5528" y="931.812">した。彼は、自分が建設する街を、このオペラの美しくメロディックで調和のとれ</tspan><tspan x="5528" y="963.812">た音楽の理想的なバージョンとして、誰もいない街になることを思い描いていま</tspan><tspan x="5528" y="995.812">す。責任者であり、全員が調和しています。</tspan></text><text fill="white" xml:space="preserve" style="white-space: pre" font-family="Noto Serif JP" font-size="25" letter-spacing="0em"><tspan x="6651" y="100.812">ジェイクがウルフギャングを追い出したとき、彼らの領土は約150平方キロメートルに及び、人々は彼らが</tspan><tspan x="6651" y="132.812">支配した地域に住んでいた。当然のことながら、初期のフィデリアの暫定領土もその地域のおおよその境</tspan><tspan x="6651" y="164.812">界線によって定義されました。さらに、ウルフギャングが支配していた時代には、彼らの指揮下にさまざ</tspan><tspan x="6651" y="196.812">まな分野を担当する男たちがいました。ジェイクは、最初の都市管理を容易にするために彼らを追放する</tspan><tspan x="6651" y="228.812">のではなく、地元の代表者として彼らの一部を残すことを選択しました。これは、彼らがウルフギャング</tspan><tspan x="6651" y="260.812">の命令に従っているだけであり、悪事に積極的に参加していないという事実を認めたものである。
</tspan><tspan x="6651" y="296.812">
</tspan><tspan x="6651" y="332.812">ジェイクはフィデリアを用途に応じてセクションに分割し、それぞれのセクションに管理を割り当てまし</tspan><tspan x="6651" y="364.812">た。ベテランの長野将軍だけが、過去に悪事を働いた者たちを同じグループに残すと将来問題が起きる可</tspan><tspan x="6651" y="396.812">能性があると指摘したが、ジェイクはその忠告に従わなかった。当時、ジェイクは、市は単一の絶対的な</tspan><tspan x="6651" y="428.812">ものではなく、集団的な努力によって統治されるべきであり、そうすることは前政権下で起こったことを</tspan><tspan x="6651" y="460.812">現在の市の構成員のせいにすることになると信じていた。過去の恨みを街に永続させるだけだ。それは彼</tspan><tspan x="6651" y="492.812">が目指していた理想の都市国家を作るためであり、当時彼は他の人も自分の理想に共感してくれるだろう</tspan><tspan x="6651" y="524.812">と考えていた。しかし、彼の判断は性急な間違いであることが判明した。彼は自分が統治者として何なの</tspan><tspan x="6651" y="556.812">か、また統治者として何をするつもりがなかったのかを明確にしていなかったためであり、その結果が痛</tspan><tspan x="6651" y="588.812">ましいものになるまでに時間はかからなかった。</tspan></text><image x="6684" y="614" width="1242" height="466" fill="url(#img1719307794880_pattern2_3798_2157)" xlink:href="/story/fidelion-2/3.png"/><image x="7926" width="1362" height="1080" fill="url(#img1719307794880_pattern3_3798_2157)" xlink:href="/story/fidelion-2/4.png"/><text fill="white" xml:space="preserve" style="white-space: pre" font-family="Noto Serif JP" font-size="25" letter-spacing="0em"><tspan x="9004" y="228.812">地区の代表者たちがジェイクのコントロールから徐々に外れていき、問題が生じ始めた。彼らは地区を管理し、都市をさらに豊かにするために商品を生産する責任を</tspan><tspan x="9004" y="260.812">負っていましたが、ヴォルフガング時代の贅沢を楽しむために徐々に自分自身を堕落させ始めました。代議員たちは市に支払うべき税金を吸い上げて自分たちのため</tspan><tspan x="9004" y="292.812">に貯め込み、その金で私設軍隊を組織した。彼らは妨害行為に従事し、予定通りに商品を生産できず、市の命令に公然と反抗した。都市が大きくなるにつれて、これ</tspan><tspan x="9004" y="324.812">らの大小の反乱がさまざまな地域で同時に発生し始めました。ジェイクは非常に動揺しましたが、彼の力は彼らを制御するのに十分ではありませんでした。統治者で</tspan><tspan x="9004" y="356.812">はなく国民の平等な代表として、彼には誰かを力ずくで罰する権限はなかった。罪を犯した者への処罰は遅れ、制御の失速は加速し、ついには混乱が広がる中、壊滅</tspan><tspan x="9004" y="388.812">的な出来事が都市を襲う。</tspan></text><text fill="white" xml:space="preserve" style="white-space: pre" font-family="Noto Serif JP" font-size="25" letter-spacing="0em"><tspan x="9004" y="441.812">西部近隣地域を中心に、高熱と出血を伴う正体不明の致死性の疫病がフィデリア全土に急速に蔓延している。このペストは、感染すると体中に赤い斑点が現れること</tspan><tspan x="9004" y="473.812">から「赤ペスト」と呼ばれています。ジェイクはこの問題に対処するために急いで地方行政官会議を招集し、ペスト流行地域の厳格な隔離と近隣コミュニティからの住</tspan><tspan x="9004" y="505.812">民の導入を命じた。これは病気の蔓延を阻止する最善の措置だったが、感染地域の代表者らは命令に従わなかっただけでなく、彼に対して真っ向から反対した。同時</tspan><tspan x="9004" y="537.812">に、ジェイク政権に不満を募らせた他の地域の代表者も参加し、4つの地域にまたがる本格的な反乱につながった。それぞれの反乱はヴォルフガング政権以来責任者で</tspan><tspan x="9004" y="569.812">あったのと同じ人物によって指導された。この反乱は人口が多く、資源生産基地や工場が数多く建設されていた市の中心部であった市に壊滅的な打撃を与えた。</tspan></text><path d="M9259.31 628H9307.86V966.809H9259.31V628ZM9645.54 676.517H9814.34V628H9645.54V676.502V676.517ZM9645.54 966.795H9814.34V918.293H9645.54V966.795ZM9810.69 773.755H9664.88V822.257H9810.69V773.755ZM10145.6 966.809H10194.2V628H10145.6V966.809ZM9147.74 821.656V773.154H9052.55V676.502H9172.8V628H9004V966.809H9052.55V821.656H9147.74ZM9943.64 916.341V628H9895.09V966.809H10063.9V918.307H9943.63V916.341H9943.64ZM10610 797.397C10610 890.806 10533.9 966.795 10440.4 966.795C10346.9 966.795 10270.8 890.806 10270.8 797.397C10270.8 703.989 10346.9 628 10440.4 628C10533.9 628 10610 703.989 10610 797.397ZM10561.4 797.397C10561.4 730.727 10507.1 676.487 10440.4 676.487C10373.7 676.487 10319.4 730.727 10319.4 797.397C10319.4 864.067 10373.7 918.307 10440.4 918.307C10507.1 918.307 10561.4 864.067 10561.4 797.397ZM9549.09 686.657C9575.75 717.431 9590.44 756.761 9590.44 797.397C9590.44 838.033 9575.75 877.363 9549.09 908.137C9522.69 938.589 9486.38 958.723 9446.82 964.813C9439.54 965.943 9405.29 966.604 9396.6 966.765V628H9420.84C9421.75 628.029 9438.65 628.719 9446.82 629.981C9486.38 636.071 9522.69 656.206 9549.09 686.657ZM9541.89 797.397C9541.89 769.837 9532.33 742.849 9514.95 721.423C9497.84 700.305 9473.89 685.41 9447.56 679.466L9445.15 678.923V915.886L9447.56 915.343C9473.89 909.399 9497.82 894.489 9514.95 873.386C9532.33 851.96 9541.89 824.972 9541.89 797.412V797.397ZM10684 628.66L10624.9 628.704L10824.3 966.795H10874V628H10825.5V871.493L10821.8 865.183L10684 628.66Z" fill="#CC0000"/><image x="11940" width="1719" height="1080" fill="url(#img1719307794880_pattern4_3798_2157)" xlink:href="/story/fidelion-2/5.png"/><text fill="white" xml:space="preserve" style="white-space: pre" font-family="Noto Serif JP" font-size="25" letter-spacing="0em"><tspan x="11120" y="379.812">4地域の代表者の反乱はやがて鎮圧された。これはメルフィンと長野将軍が市内の過去の危機に備えて確保していた</tspan><tspan x="11120" y="411.812">私兵を迅速に配備したことと、ジェイクがパニックから迅速に回復し、大規模な反撃を仕掛けるために市外から傭兵</tspan><tspan x="11120" y="443.812">を雇ったことによるものである。赤ペストの蔓延を阻止するためのジェイクの積極的なアプローチも大きな要因で</tspan><tspan x="11120" y="475.812">あり、それが住民の支持を固め、感染のさらなる拡大を阻止した。 4 つの地域の反乱は敗北して解散し、首謀者
</tspan><tspan x="11120" y="511.812">は逮捕された。反乱は鎮圧されたものの、理想主義的な都市計画が根底から揺るがされ、ジェイクは打ちのめさ
</tspan><tspan x="11120" y="547.812">れた。彼は、誰もが意見やアイデアを共有できる理想的なコミュニティという自分の考えが、地下壕の中の少年
</tspan><tspan x="11120" y="583.812">の夢に過ぎず、理想的な社会を構築するには、その中心に強力な力がなければならないことに気づきました。
</tspan><tspan x="11120" y="619.812">ジェイクはその勢力になることを決意し、反乱軍の指導者全員を公開処刑するという第一歩を踏み出す。</tspan></text><text fill="white" xml:space="preserve" style="white-space: pre" font-family="Noto Serif JP" font-size="25" letter-spacing="0em"><tspan x="13100" y="90.8125">彼の行動は残酷だと考える人もいますが、ジェイクはあらゆる反対を押し切りました。彼はもはや躊躇しませんでした。
</tspan><tspan x="13100" y="126.812"> 彼は古い代議制を廃止し、地方公務員を中心とする中央集権的な政府によって統治されるようにすべての地域を再組織しました。
</tspan><tspan x="13100" y="162.812">   彼はジェイク自身をこの政府の中心に据え、異論のない最高支配者の地位に自らを据えた。そして都市が四方八方約500平方
</tspan><tspan x="13100" y="198.812"> キロメートルの周縁部に広がると、彼は自らを初代皇帝と名乗り、フィデリア帝国を建国した。反対者もいましたが、
</tspan><tspan x="13100" y="234.812">フィデリアでは彼らの声はもう聞こえませんでした。統一された規律がコミュニティを団結させる唯一の方法で
</tspan><tspan x="13100" y="270.812">  あることを認識したジェイクは、反対意見の広がりを防ぐために反対意見を抑圧し、コントロールすることを選択しました。
</tspan><tspan x="13100" y="306.812">   フィデリアは小さな都市から帝国に変貌し、ジェイクがその中心となり、皇帝となり、すべてを支配するようになりました。</tspan></text><text fill="white" xml:space="preserve" style="white-space: pre" font-family="Noto Serif JP" font-size="25" letter-spacing="0em"><tspan x="13160" y="444.812">それ以来、ジェイクは人々に自分自身を簡単に明らかにしなくなりました。
</tspan><tspan x="13160" y="480.812">   フィデリアの中心に建てた大きな塔に住んでいた彼は、公式宣伝イベントなどの非常に限られた機会を除いて、
</tspan><tspan x="13160" y="516.812">     自分の存在をできるだけ目立たないようにすることを好みました。彼の忠実で長年の部下であるメルフィンを含む、
</tspan><tspan x="13160" y="552.812">       選ばれた少数の人だけが彼にアクセスできました。 「帝国の皇帝は完璧で、強くて、超人的でなければなりません。」
</tspan><tspan x="13160" y="588.812">         フィデリアが建国され、国の基礎が築かれた後もジェイクの治世は続いたが、彼の臣民は彼の外見以外のことはほとんど知らなかった。
</tspan><tspan x="13160" y="624.812">            彼は意図的に謎に包まれて存在しており、生きた不死の皇帝として今日も帝国を統治し続けています。</tspan></text></g><defs><pattern id="img1719307794880_pattern0_3798_2157" patternContentUnits="objectBoundingBox" width="1" height="1"><use xlink:href="#image0_3798_2157" transform="scale(0.000244141 0.000915753)"/></pattern><pattern id="img1719307794880_pattern1_3798_2157" patternContentUnits="objectBoundingBox" width="1" height="1"><use xlink:href="#image1_3798_2157" transform="scale(0.000244161 0.000792393)"/></pattern><pattern id="img1719307794880_pattern2_3798_2157" patternContentUnits="objectBoundingBox" width="1" height="1"><use xlink:href="#image2_3798_2157" transform="scale(0.000402576 0.00107296)"/></pattern><pattern id="img1719307794880_pattern3_3798_2157" patternContentUnits="objectBoundingBox" width="1" height="1"><use xlink:href="#image3_3798_2157" transform="scale(0.000734214 0.000925926)"/></pattern><pattern id="img1719307794880_pattern4_3798_2157" patternContentUnits="objectBoundingBox" width="1" height="1"><use xlink:href="#image4_3798_2157" transform="scale(0.000581734 0.000925926)"/></pattern><clipPath id="clip0_3798_2157"><rect width="14931" height="1080" fill="white"/></clipPath><image id="image0_3798_2157" width="4096" height="1092" xlink:href="/story/fidelion-2/1.png"/><image id="image1_3798_2157" width="4096" height="1262" xlink:href="/story/fidelion-2/2.png"/><image id="image2_3798_2157" width="2484" height="932" xlink:href="/story/fidelion-2/3.png"/><image id="image3_3798_2157" width="1362" height="1080" xlink:href="/story/fidelion-2/4.png"/><image id="image4_3798_2157" width="1719" height="1080" xlink:href="/story/fidelion-2/5.png"/></defs></svg>