<svg width="13735" height="1080" viewBox="0 0 13735 1080" fill="none" xmlns="http://www.w3.org/2000/svg" xmlns:xlink="http://www.w3.org/1999/xlink"><g clip-path="url(#clip0_3798_2502)"><rect width="13735" height="1080" fill="black"/><text fill="white" xml:space="preserve" style="white-space: pre" font-family="Charis SIL" font-size="25" letter-spacing="0em"><tspan x="280" y="839.46">Fidelia </tspan><tspan x="366.109" y="839.46">is </tspan><tspan x="394.553" y="839.46">a </tspan><tspan x="418.162" y="839.46">city-state </tspan><tspan x="529.979" y="839.46">built </tspan><tspan x="592.505" y="839.46">on </tspan><tspan x="631.178" y="839.46">a </tspan><tspan x="654.787" y="839.46">landmass </tspan><tspan x="768.02" y="839.46">of </tspan><tspan x="800.663" y="839.46">about </tspan><tspan x="874.492" y="839.46">800 </tspan><tspan x="927.642" y="839.46">square </tspan><tspan x="1011.21" y="839.46">kilometers, </tspan><tspan x="1145.1" y="839.46">with </tspan><tspan x="1206.01" y="839.46">an </tspan><tspan x="1243.81" y="839.46">actual </tspan><tspan x="1321.93" y="839.46">sphere </tspan><tspan x="1405.43" y="839.46">of </tspan><tspan x="1438.07" y="839.46">influence </tspan><tspan x="1550.89" y="839.46">of </tspan><tspan x="1583.53" y="839.46">about </tspan><tspan x="1657.36" y="839.46">2,000 </tspan><tspan x="1731.61" y="839.46">square </tspan><tspan x="1815.18" y="839.46">kilometers, </tspan><tspan x="1949.07" y="839.46">including </tspan><tspan x="2064.06" y="839.46">plantations </tspan><tspan x="2198.31" y="839.46">for </tspan><tspan x="2240.74" y="839.46">food </tspan><tspan x="2301.1" y="839.46">production </tspan><tspan x="2433.23" y="839.46">in </tspan><tspan x="2465.89" y="839.46">the </tspan><tspan x="280" y="869.46">northwestern </tspan><tspan x="435.604" y="869.46">part </tspan><tspan x="489.255" y="869.46">of </tspan><tspan x="519.664" y="869.46">the </tspan><tspan x="563.428" y="869.46">city. </tspan><tspan x="620.082" y="869.46">On </tspan><tspan x="661.209" y="869.46">the </tspan><tspan x="704.972" y="869.46">city&apos;s </tspan><tspan x="768.853" y="869.46">outskirts </tspan><tspan x="872.992" y="869.46">is </tspan><tspan x="899.202" y="869.46">an </tspan><tspan x="934.762" y="869.46">iron </tspan><tspan x="988.584" y="869.46">fortress-like </tspan><tspan x="1127.88" y="869.46">wall </tspan><tspan x="1183.68" y="869.46">about </tspan><tspan x="1255.27" y="869.46">three </tspan><tspan x="1321.08" y="869.46">meters </tspan><tspan x="1403.76" y="869.46">high, </tspan><tspan x="1468.86" y="869.46">built </tspan><tspan x="1529.16" y="869.46">not </tspan><tspan x="1574.09" y="869.46">only </tspan><tspan x="1631.21" y="869.46">to </tspan><tspan x="1661.96" y="869.46">defend </tspan><tspan x="1745.69" y="869.46">against </tspan><tspan x="1833.15" y="869.46">military </tspan><tspan x="1929.95" y="869.46">incursions </tspan><tspan x="2051.35" y="869.46">from </tspan><tspan x="2112.81" y="869.46">outside </tspan><tspan x="2201.71" y="869.46">forces </tspan><tspan x="2275.78" y="869.46">but </tspan><tspan x="2321.05" y="869.46">also </tspan><tspan x="2373.41" y="869.46">to </tspan><tspan x="2404.16" y="869.46">keep </tspan><tspan x="2464.67" y="869.46">out </tspan><tspan x="280" y="899.46">smugglers </tspan><tspan x="398.557" y="899.46">from </tspan><tspan x="458.765" y="899.46">the </tspan><tspan x="501.272" y="899.46">wilderness </tspan><tspan x="625.787" y="899.46">and </tspan><tspan x="674.202" y="899.46">into </tspan><tspan x="725.474" y="899.46">the </tspan><tspan x="767.982" y="899.46">city. </tspan><tspan x="823.38" y="899.46">The </tspan><tspan x="872.382" y="899.46">high </tspan><tspan x="929.22" y="899.46">wall </tspan><tspan x="983.764" y="899.46">serves </tspan><tspan x="1058.62" y="899.46">to </tspan><tspan x="1088.11" y="899.46">prevent </tspan><tspan x="1179.72" y="899.46">information </tspan><tspan x="1318.3" y="899.46">about </tspan><tspan x="1388.63" y="899.46">the </tspan><tspan x="1431.14" y="899.46">Empire </tspan><tspan x="1518.01" y="899.46">from </tspan><tspan x="1578.22" y="899.46">leaking </tspan><tspan x="1666.28" y="899.46">out </tspan><tspan x="1710.01" y="899.46">by </tspan><tspan x="1744.56" y="899.46">completely </tspan><tspan x="1873.57" y="899.46">blocking </tspan><tspan x="1975.79" y="899.46">visual </tspan><tspan x="2048.35" y="899.46">information </tspan><tspan x="2186.93" y="899.46">from </tspan><tspan x="2247.13" y="899.46">the </tspan><tspan x="2289.64" y="899.46">inside. </tspan><tspan x="2369.75" y="899.46">Each </tspan><tspan x="2430.44" y="899.46">region </tspan><tspan x="280" y="929.46">of </tspan><tspan x="309.077" y="929.46">Fidelia </tspan><tspan x="391.621" y="929.46">is </tspan><tspan x="416.499" y="929.46">divided </tspan><tspan x="506.831" y="929.46">into </tspan><tspan x="558.027" y="929.46">&quot;districts&quot; </tspan><tspan x="669.648" y="929.46">for </tspan><tspan x="708.516" y="929.46">different </tspan><tspan x="810.835" y="929.46">purposes, </tspan><tspan x="922.944" y="929.46">and </tspan><tspan x="971.284" y="929.46">an </tspan><tspan x="1005.51" y="929.46">Imperially </tspan><tspan x="1126.8" y="929.46">appointed </tspan><tspan x="1245.06" y="929.46">administrator </tspan><tspan x="1402.71" y="929.46">governs </tspan><tspan x="1496.19" y="929.46">each </tspan><tspan x="1554.49" y="929.46">district.</tspan></text><path d="M307.453 763.717L288 692.27H296.941L311.776 750.099H312.464L327.496 692.27H337.419L352.549 750.099H353.138L367.974 692.27H376.914L357.461 763.717H348.324L332.801 707.171H332.212L316.59 763.717H307.453Z" fill="white"/><path d="M483.042 764.803C467.617 764.803 458.087 753.849 458.087 737.368C458.087 720.888 467.715 709.441 482.256 709.441C493.456 709.441 505.246 716.349 505.246 736.184V739.737H466.536C466.929 751.086 473.512 757.303 483.042 757.303C489.428 757.303 493.456 754.539 495.421 751.184H504.46C501.905 759.276 494.046 764.803 483.042 764.803ZM466.634 732.533H496.698C496.698 723.553 491 716.941 482.256 716.941C473.021 716.941 467.126 724.243 466.634 732.533Z" fill="white"/><path d="M605.184 692.27V763.717H596.734V692.27H605.184Z" fill="white"/><path d="M720.939 764.803C705.809 764.803 696.574 753.257 696.574 737.171C696.574 720.888 706.202 709.441 720.743 709.441C732.14 709.441 740.589 716.151 741.964 726.316H733.515C732.336 721.382 728.013 716.941 720.939 716.941C711.409 716.941 705.023 724.836 705.023 736.875C705.023 749.309 711.213 757.204 720.939 757.204C727.227 757.204 732.041 753.849 733.515 747.928H741.964C740.589 757.5 732.827 764.803 720.939 764.803Z" fill="white"/><path d="M854.674 764.803C840.134 764.803 830.309 753.849 830.309 737.171C830.309 720.493 840.134 709.441 854.674 709.441C869.117 709.441 878.843 720.493 878.843 737.171C878.843 753.849 869.117 764.803 854.674 764.803ZM854.674 757.303C865.383 757.303 870.394 747.829 870.394 737.171C870.394 726.513 865.383 716.941 854.674 716.941C843.769 716.941 838.758 726.513 838.758 737.171C838.758 747.829 843.769 757.303 854.674 757.303Z" fill="white"/><path d="M970.43 763.717V710.132H978.585V718.52H979.272C981.532 712.796 986.641 709.441 993.617 709.441C1000.59 709.441 1005.31 712.796 1007.86 718.52H1008.45C1011.2 712.993 1016.8 709.441 1024.47 709.441C1034 709.441 1040.78 715.263 1040.78 727.895V763.717H1032.33V727.993C1032.33 720.099 1027.32 717.039 1021.52 717.039C1014.05 717.039 1009.83 722.072 1009.83 728.882V763.717H1001.28V727.105C1001.28 721.086 996.957 717.039 990.866 717.039C984.48 717.039 978.879 722.467 978.879 730.263V763.717H970.43Z" fill="white"/><path d="M1157.22 764.803C1141.79 764.803 1132.26 753.849 1132.26 737.368C1132.26 720.888 1141.89 709.441 1156.43 709.441C1167.63 709.441 1179.42 716.349 1179.42 736.184V739.737H1140.71C1141.11 751.086 1147.69 757.303 1157.22 757.303C1163.61 757.303 1167.63 754.539 1169.6 751.184H1178.64C1176.08 759.276 1168.22 764.803 1157.22 764.803ZM1140.81 732.533H1170.88C1170.88 723.553 1165.18 716.941 1156.43 716.941C1147.2 716.941 1141.3 724.243 1140.81 732.533Z" fill="white"/><path d="M1399.93 710.132V717.237H1388.73V748.322C1388.73 755.23 1392.07 756.316 1395.71 756.316C1397.28 756.316 1399.44 756.217 1400.72 756.118V764.013C1399.44 764.211 1397.28 764.408 1394.82 764.408C1387.75 764.408 1380.18 759.967 1380.18 750.493V717.237H1372.13V710.132H1380.18V697.303H1388.73V710.132H1399.93Z" fill="white"/><path d="M1512.54 764.803C1498 764.803 1488.18 753.849 1488.18 737.171C1488.18 720.493 1498 709.441 1512.54 709.441C1526.98 709.441 1536.71 720.493 1536.71 737.171C1536.71 753.849 1526.98 764.803 1512.54 764.803ZM1512.54 757.303C1523.25 757.303 1528.26 747.829 1528.26 737.171C1528.26 726.513 1523.25 716.941 1512.54 716.941C1501.64 716.941 1496.63 726.513 1496.63 737.171C1496.63 747.829 1501.64 757.303 1512.54 757.303Z" fill="white"/><path d="M1735.11 763.717V692.27H1777.95V700.164H1743.96V724.046H1774.71V731.842H1743.96V763.717H1735.11Z" fill="white"/><path d="M1870.52 763.717V710.132H1878.97V763.717H1870.52ZM1874.74 701.25C1871.5 701.25 1868.85 698.783 1868.85 695.625C1868.85 692.467 1871.5 690 1874.74 690C1877.99 690 1880.74 692.467 1880.74 695.625C1880.74 698.783 1877.99 701.25 1874.74 701.25Z" fill="white"/><path d="M1993.05 764.803C1979.79 764.803 1970.36 754.046 1970.36 737.072C1970.36 720.099 1979.79 709.441 1993.15 709.441C2003.47 709.441 2006.81 715.757 2008.58 718.618H2009.17V692.27H2017.71V763.717H2009.46V755.526H2008.58C2006.71 758.487 2003.27 764.803 1993.05 764.803ZM1994.23 757.204C2003.96 757.204 2009.46 748.914 2009.46 736.875C2009.46 725.033 2004.16 717.039 1994.23 717.039C1984.01 717.039 1978.91 725.724 1978.91 736.875C1978.91 748.322 1984.11 757.204 1994.23 757.204Z" fill="white"/><path d="M2135.24 764.803C2119.81 764.803 2110.28 753.849 2110.28 737.368C2110.28 720.888 2119.91 709.441 2134.45 709.441C2145.65 709.441 2157.44 716.349 2157.44 736.184V739.737H2118.73C2119.13 751.086 2125.71 757.303 2135.24 757.303C2141.62 757.303 2145.65 754.539 2147.62 751.184H2156.66C2154.1 759.276 2146.24 764.803 2135.24 764.803ZM2118.83 732.533H2148.89C2148.89 723.553 2143.2 716.941 2134.45 716.941C2125.22 716.941 2119.32 724.243 2118.83 732.533Z" fill="white"/><path d="M2257.38 692.27V763.717H2248.93V692.27H2257.38Z" fill="white"/><path d="M2351.32 763.717V710.132H2359.77V763.717H2351.32ZM2355.55 701.25C2352.31 701.25 2349.65 698.783 2349.65 695.625C2349.65 692.467 2352.31 690 2355.55 690C2358.79 690 2361.54 692.467 2361.54 695.625C2361.54 698.783 2358.79 701.25 2355.55 701.25Z" fill="white"/><path d="M2451.16 748.52C2451.16 736.184 2461.97 733.421 2471.21 732.73C2474.6 732.484 2483.24 732.039 2485.65 731.941V727.599C2485.65 720.789 2481.62 716.842 2473.56 716.842C2466.79 716.842 2462.76 720 2461.58 724.046H2452.74C2453.82 715.461 2462.17 709.441 2473.96 709.441C2480.93 709.441 2494 711.513 2494 728.388V763.717H2485.65V756.414H2485.26C2483.49 760.066 2478.58 765 2469.34 765C2459.22 765 2451.16 758.98 2451.16 748.52ZM2459.61 748.914C2459.61 754.539 2464.33 757.401 2470.81 757.401C2480.34 757.401 2485.65 750.987 2485.65 744.276V738.849L2472.19 739.836C2464.53 740.329 2459.61 743.092 2459.61 748.914Z" fill="white"/><path d="M581.184 197H639.028V601.772H581.184V197ZM1041.36 254.962H1242.48V197H1041.36V254.945V254.962ZM1041.36 601.755H1242.48V543.81H1041.36V601.755ZM1238.12 371.132H1064.4V429.077H1238.12V371.132ZM1637.2 601.772H1695.04V197H1637.2V601.772ZM448.257 428.358V370.414H334.844V254.945H478.115V197H277V601.772H334.844V428.358H448.257ZM1396.53 541.478V197H1338.69V601.772H1539.78V543.827H1396.51V541.478H1396.53ZM2190.4 399.377C2190.4 510.971 2099.78 601.755 1988.38 601.755C1876.98 601.755 1786.35 510.971 1786.35 399.377C1786.35 287.783 1876.98 197 1988.38 197C2099.78 197 2190.4 287.783 2190.4 399.377ZM2132.56 399.377C2132.56 319.727 2067.87 254.927 1988.38 254.927C1908.88 254.927 1844.2 319.727 1844.2 399.377C1844.2 479.027 1908.88 543.827 1988.38 543.827C2067.87 543.827 2132.56 479.027 2132.56 399.377ZM926.445 267.077C958.211 303.843 975.713 350.83 975.713 399.377C975.713 447.925 958.211 494.912 926.445 531.677C894.994 568.057 851.729 592.112 804.597 599.388C795.916 600.738 755.119 601.527 744.757 601.719V197H773.636C774.721 197.035 794.866 197.859 804.597 199.367C851.729 206.643 894.994 230.697 926.445 267.077ZM917.869 399.377C917.869 366.451 906.476 334.209 885.771 308.612C865.381 283.382 836.853 265.587 805.472 258.486L802.601 257.838V540.934L805.472 540.286C836.853 533.185 865.363 515.372 885.771 490.16C906.476 464.563 917.869 432.321 917.869 399.395V399.377ZM2278.59 197.789L2208.24 197.842L2445.84 601.755H2505V197H2447.16V487.899L2442.78 480.36L2278.59 197.789Z" fill="#CC0000"/><text fill="white" xml:space="preserve" style="white-space: pre" font-family="Charis SIL" font-size="25" letter-spacing="0em"><tspan x="4890" y="411.46">Jake controls the largest oil system in virtually all of North </tspan><tspan x="4890" y="441.46">America. Fidelia is a nation that has grown and developed on </tspan><tspan x="4890" y="471.46">the back of its oil resources, so the refinery tower at its </tspan><tspan x="4890" y="501.46">center, the Fidelion, is a symbol of the entire Fidelian </tspan><tspan x="4890" y="531.46">Empire. The impact of the oil produced by the Fidelion is </tspan><tspan x="4890" y="561.46">beyond the average person&apos;s imagination, and in fact, it is an </tspan><tspan x="4890" y="591.46">indispensable resource for powering massive transport </tspan><tspan x="4890" y="621.46">systems, tanks, and even bipedal weaponry that require high </tspan><tspan x="4890" y="651.46">concentrations of energy. The need for these resources is </tspan><tspan x="4890" y="681.46">constant, both internally and externally, and is the source of </tspan><tspan x="4890" y="711.46">the Fidelian Empire&apos;s sustainable wealth.
</tspan><tspan x="4890" y="745.46">
</tspan><tspan x="4890" y="779.46">While the workers of Fidelia are the ones who actually run </tspan><tspan x="4890" y="809.46">the giant engine, the entire operation depends on Jake&apos;s </tspan><tspan x="4890" y="839.46">bureaucracy and military to be in the right place at the right </tspan><tspan x="4890" y="869.46">time. While this may appear to be an efficiently run </tspan><tspan x="4890" y="899.46">operation from the outside, it&apos;s a coercive structure that can </tspan><tspan x="4890" y="929.46">only be enforced under the iron fist of Jake&apos;s rule and citizens </tspan><tspan x="4890" y="959.46">who reject the labor structure within Fidelia can be deported </tspan><tspan x="4890" y="989.46">or even executed depending on the severity of their crime.</tspan></text><image x="2776" width="2017" height="1080" fill="url(#img1719309414106_pattern0_3798_2502)" xlink:href="/story/fidelion-3/1.png"/><g clip-path="url(#clip1_3798_2502)"><path d="M6540.11 129.304V0H6924V129.304H6540.11ZM6104.43 4.93365L6097.18 0H5900V129.304H6283.89L6104.43 4.93365ZM6841.18 722L6540.11 563.919V1080H6673.11V722H6841.18ZM5982.82 722H6150.89V1080H6283.89V563.919L5982.82 722ZM5900 331.576V478.617L6180.04 331.576H5900ZM6924 478.617V331.576H6643.96L6924 478.617Z" fill="#CC0000"/></g><image x="7605" width="1321" height="1080" fill="url(#img1719309414106_pattern1_3798_2502)" xlink:href="/story/fidelion-3/2.png"/><text fill="white" xml:space="preserve" style="white-space: pre" font-family="Charis SIL" font-size="25" letter-spacing="0em"><tspan x="7182" y="700.46">The shaft that supports the top of the tower is more than </tspan><tspan x="7182" y="730.46">just a structure, it is a representation of the forces that </tspan><tspan x="7182" y="760.46">support Fidelion. The underlying supports represent the </tspan><tspan x="7182" y="790.46">workers, engineers, troops, and soldiers that exist within the </tspan><tspan x="7182" y="820.46">Fidelian Empire, while the massive central support shaft </tspan><tspan x="7182" y="850.46">represents the giant drilling pipes that extract oil.</tspan></text><text fill="white" xml:space="preserve" style="white-space: pre" font-family="Charis SIL" font-size="25" letter-spacing="0em"><tspan x="7256" y="492.46">It is where Jake and his upper-class subjects </tspan><tspan x="7256" y="522.46">reside and are involved in all aspects of empire </tspan><tspan x="7256" y="552.46">operations and governance. It can be </tspan><tspan x="7256" y="582.46">considered the control tower of Empire Fidelia.</tspan></text><text fill="white" xml:space="preserve" style="white-space: pre" font-family="Charis SIL" font-size="25" letter-spacing="0em"><tspan x="8616" y="149.46">The top of the Fidelion Tower is an iconic </tspan><tspan x="8616" y="179.46">representation of Fidelia, and it houses a partially </tspan><tspan x="8616" y="209.46">operational oil refinery. It is more of an iconic </tspan><tspan x="8616" y="239.46">symbol of Fidelia than of any practical use. In reality, </tspan><tspan x="8616" y="269.46">the Fidelion Tower is always smoldering and smoky.</tspan></text><image x="9257" width="2710" height="1080" fill="url(#img1719309414106_pattern2_3798_2502)" xlink:href="/story/fidelion-3/3.png"/><text fill="white" xml:space="preserve" style="white-space: pre" font-family="Charis SIL" font-size="25" letter-spacing="0em"><tspan x="10059" y="885.46">The Emperor Jake, overhauled the city&apos;s former vagrant-dominated neighborhoods and redesigned it as a planned city. As a result, Fidelia has a radial </tspan><tspan x="10059" y="915.46">city structure, with the borders of the eight districts radiating out from a round central district with a tower in the center of the city. In contrast to a </tspan><tspan x="10059" y="945.46">typical radial city, where each section is connected to the next, Fidelia has controlled movement between sections. Instead of roads, the radial </tspan><tspan x="10059" y="975.46">boundaries of the compartments are lined with concrete barriers, and there are checkpoints between the compartments, making it difficult to move </tspan><tspan x="10059" y="1005.46">freely. In addition, a few compartments used for specialized purposes are completely gated off and inaccessible to the public.</tspan></text><text fill="white" xml:space="preserve" style="white-space: pre" font-family="Charis SIL" font-size="25" letter-spacing="0em"><tspan x="11471" y="126.46">In the early years of his reign, Emperor Jake was inspired by the proletarian revolution to create an economic structure </tspan><tspan x="11471" y="156.46">based on a &quot;fair wage system based on labor&quot; for his working-class citizens, which gained the support of many residents. </tspan><tspan x="11471" y="186.46">Although it cannot avoid the criticism that it protects and even deifies the imperial privileged class in that it wants to </tspan><tspan x="11471" y="216.46">clearly distinguish between its own residential area and that of the lower classes, it can also be seen as a somewhat </tspan><tspan x="11471" y="246.46">efficient social system that allows people to focus on their roles and thus increase their satisfaction. Unfortunately, as time </tspan><tspan x="11471" y="276.46">passes, this structure slowly degenerates from its original intentions, creating a social structure that is different from the </tspan><tspan x="11471" y="306.46">initial one, a social structure that is full of madness.</tspan></text><image x="12919" width="763" height="1080" fill="url(#img1719309414106_pattern3_3798_2502)" xlink:href="/story/fidelion-3/4.png"/></g><defs><pattern id="img1719309414106_pattern0_3798_2502" patternContentUnits="objectBoundingBox" width="1" height="1"><use xlink:href="#image0_3798_2502" transform="scale(0.000495786 0.000925926)"/></pattern><pattern id="img1719309414106_pattern1_3798_2502" patternContentUnits="objectBoundingBox" width="1" height="1"><use xlink:href="#image1_3798_2502" transform="scale(0.000252334 0.000308642)"/></pattern><pattern id="img1719309414106_pattern2_3798_2502" patternContentUnits="objectBoundingBox" width="1" height="1"><use xlink:href="#image2_3798_2502" transform="scale(0.000244194 0.000612745)"/></pattern><pattern id="img1719309414106_pattern3_3798_2502" patternContentUnits="objectBoundingBox" width="1" height="1"><use xlink:href="#image3_3798_2502" transform="matrix(0.000403496 0 0 0.000285063 -0.0003355 0)"/></pattern><clipPath id="clip0_3798_2502"><rect width="13735" height="1080" fill="white"/></clipPath><clipPath id="clip1_3798_2502"><rect width="1024" height="1080" fill="white" transform="translate(5900)"/></clipPath><image id="image0_3798_2502" width="2017" height="1080" xlink:href="/story/fidelion-3/1.png"/><image id="image1_3798_2502" width="3963" height="3240" xlink:href="/story/fidelion-3/2.png"/><image id="image2_3798_2502" width="4096" height="1632" xlink:href="/story/fidelion-3/3.png"/><image id="image3_3798_2502" width="2480" height="3508" xlink:href="/story/fidelion-3/4.png"/></defs></svg>