<svg width="13019" height="1080" viewBox="0 0 13019 1080" fill="none" xmlns="http://www.w3.org/2000/svg" xmlns:xlink="http://www.w3.org/1999/xlink"><rect width="13020" height="1080" fill="#CC0000"/><text fill="black" xml:space="preserve" style="white-space: pre" font-family="Pretendard" font-size="25" letter-spacing="0em"><tspan x="3019" y="114.887">제국에는 언급된 세 계급 외에도 두 가지의 특수 계층이 존재하는데, 이는 아래와 같다.</tspan></text><text fill="black" xml:space="preserve" style="white-space: pre" font-family="Pretendard" font-size="25" letter-spacing="0em"><tspan x="3019" y="176.887">상급신민 </tspan><tspan x="3019" y="208.887">공식적인 제국의 설명에 따르면, 상급신민은 황제에게 피의 충성을 바치기 위해 존재하는 계급으로, </tspan><tspan x="3019" y="240.887">오라토리오 구획 내에서만 살아가야 하며 생활의 자유가 엄격히 통제된다. 그 대신 고급 지식의 습득</tspan><tspan x="3019" y="272.887">이 허용되며 제국 내 그 어떤 계급과 비교해서도 훨씬 윤택한 생활을 누릴 수 있다. 사실상 상급신민은 </tspan><tspan x="3019" y="304.887">일반시민들로부터 얻은 소득을 일방적으로 향유하는 엘리트 계급이자 먹이사슬의 최상단에 위치한 </tspan><tspan x="3019" y="336.887">지배계급이라고 볼 수 있으며, 실제로 그 설명과는 다르게 타락한 관료의 모습을 자주 보이곤 한다.</tspan></text><text fill="black" xml:space="preserve" style="white-space: pre" font-family="Pretendard" font-size="25" letter-spacing="0em"><tspan x="3019" y="398.887">노예 </tspan><tspan x="3019" y="430.887">노예는 제국이 공식적으로 ‘신분상의 격차’가 존재한다고 인정한 유일한 계급이다. 노예의 처우는 일</tspan><tspan x="3019" y="462.887">반 시민에 비해 매우 박하고, 대부분의 구획에서 인간적인 대우를 받지 못한다. 기본적으로 노예는 중</tspan><tspan x="3019" y="494.887">죄를 지은 죄수나 제국에 저항하는 반란군 등에서 강제차출된 인원 등으로 공급된다. 노예 계급은 강</tspan><tspan x="3019" y="526.887">제세습되는 구조를 가지고 있기에 노예의 수가 부족한 경우는 그다지 많지 않으나, 노예의 추가적인 </tspan><tspan x="3019" y="558.887">공급이 필요한 경우 제국 밖의 방랑자 집단에서 강제로 차출하는 경우도 종종 있다. 이를 두고 제국 내</tspan><tspan x="3019" y="590.887">에선 속칭 &apos;인간 사냥&apos;이라고도 부르는데, 이는 어느정도 공공연하게 시행되는 행위이기도 하다.</tspan></text><text fill="black" xml:space="preserve" style="white-space: pre" font-family="Pretendard" font-size="25" letter-spacing="0em"><tspan x="3019" y="652.887">계급의 상하관계와 무관하게 일반 시민은 노예를 소유할 수 있는 자격이 존재하지 않는데, 제국은 이</tspan><tspan x="3019" y="684.887">를 두고 일반 시민이 나태해져서 본연의 임무를 다하지 않는 것에 대한 예방이라고 설명하고 있다. 다</tspan><tspan x="3019" y="716.887">만 일부 극히 위험한 노동지역이나 척박한 땅의 개간 등에 고용되는 인부들은 노예와 함께 생활하며 </tspan><tspan x="3019" y="748.887">일하는 경우는 있을 수 있다.</tspan></text><g clip-path="url(#clip0_3757_729)"><path fill-rule="evenodd" clip-rule="evenodd" d="M1675.92 504.766V537.851C1675.92 569.258 1683.69 583.827 1704.65 583.827C1725.61 583.827 1730.82 562.233 1730.82 539.68C1730.82 494.664 1722.31 481.553 1673.58 440.854C1619.79 395.318 1592.08 368.379 1592.08 298.031C1592.08 227.684 1614.66 167 1705.17 167C1801.24 167 1815.46 232.441 1815.46 287.13V314.579H1728.69V285.961C1728.69 256.972 1723.93 242.693 1705.75 242.693C1688.82 242.693 1683.33 257.262 1683.33 284.272C1683.33 313.04 1688.53 327.17 1728.03 357.986C1798.31 413.105 1823.52 444.072 1823.52 522.693C1823.52 601.313 1797.95 659 1703.04 659C1608.13 659 1585.85 604.101 1585.85 533.384V504.766H1675.92ZM494.17 174.614H296V651.985H387.98V445.77H488.16V364.581H387.98V255.803H494.17V174.614ZM625.72 651.905V174.614H533.97V651.905H625.72ZM683.47 174.614H796.4C894.82 174.614 928.83 219.411 928.83 318.236V497.661C928.83 579.939 911.39 651.905 802.7 651.905H683.46V174.614H683.47ZM775.37 577.891H793.32C829.38 577.891 835.31 554.389 835.31 517.207V303.447C835.31 268.234 827.4 249.058 792.58 249.058H775.36V577.891H775.37ZM977.94 651.905H1174.42L1174.35 651.835V571.166H1069.99V441.084H1168.49V360.415H1069.99V255.803H1173.69V174.614H977.94V651.905ZM1417.59 651.905H1218.25V174.614H1310.29V571.606H1417.59V651.915V651.905ZM1546.57 651.905V174.614H1454.82V651.905H1546.57ZM2113.38 262.608C2112.2 321.174 2111.47 425.925 2111.47 499.79L2111.54 499.86V651.905H2200V174.614H2068.6C2063.84 208.739 2058.96 242.353 2054.28 274.559C2044.55 341.559 2035.71 402.463 2030.71 449.128H2028.73C2023.31 384.486 2009.31 265.386 1996.85 174.614H1864.93V651.835H1948.33V503.157C1948.33 429.633 1946.4 339.22 1945.15 280.804C1945.01 273.84 1944.87 267.335 1944.74 261.369H1947.67C1957.64 350.602 1978.23 547.524 1988.79 651.845H2066.76C2079.81 551.411 2100.92 358.076 2110.88 262.618H2113.38V262.608Z" fill="black"/></g><text fill="black" xml:space="preserve" style="white-space: pre" font-family="Pretendard" font-size="25" letter-spacing="0em"><tspan x="296" y="723.887">과거 </tspan><tspan x="345.729" y="723.887">제국에 </tspan><tspan x="417.065" y="723.887">살던 </tspan><tspan x="466.794" y="723.887">사람들은 </tspan><tspan x="559.736" y="723.887">모두 </tspan><tspan x="609.466" y="723.887">평등한 </tspan><tspan x="680.801" y="723.887">시민으로 </tspan><tspan x="773.743" y="723.887">대우받았고 </tspan><tspan x="888.292" y="723.887">동등한 </tspan><tspan x="959.628" y="723.887">권리를 </tspan><tspan x="1030.96" y="723.887">누렸으나, </tspan><tspan x="1130.3" y="723.887">붉은 </tspan><tspan x="1180.03" y="723.887">역병 </tspan><tspan x="1229.76" y="723.887">사태 </tspan><tspan x="1279.49" y="723.887">이후로 </tspan><tspan x="1350.83" y="723.887">제이크는 </tspan><tspan x="1443.77" y="723.887">전체 </tspan><tspan x="1493.5" y="723.887">제국 </tspan><tspan x="1543.23" y="723.887">시민들을 </tspan><tspan x="1636.17" y="723.887">계급화하여 </tspan><tspan x="1750.72" y="723.887">지배구조를 </tspan><tspan x="1865.27" y="723.887">강화하는 </tspan><tspan x="1958.21" y="723.887">데에 </tspan><tspan x="2007.94" y="723.887">주력하였다. </tspan><tspan x="2128.78" y="723.887">노동자, </tspan><tspan x="296" y="755.887">기술자, </tspan><tspan x="374.336" y="755.887">군인의 </tspan><tspan x="446.275" y="755.887">세 </tspan><tspan x="475.001" y="755.887">계급으로 </tspan><tspan x="568.547" y="755.887">나눠진 </tspan><tspan x="640.487" y="755.887">시민들은 </tspan><tspan x="734.032" y="755.887">각자의 </tspan><tspan x="805.972" y="755.887">구획 </tspan><tspan x="856.304" y="755.887">내에서만 </tspan><tspan x="949.85" y="755.887">생활하며, </tspan><tspan x="1049.79" y="755.887">상호 </tspan><tspan x="1100.13" y="755.887">교류가 </tspan><tspan x="1172.06" y="755.887">대부분 </tspan><tspan x="1244" y="755.887">차단된 </tspan><tspan x="1315.94" y="755.887">상태에서 </tspan><tspan x="1409.49" y="755.887">살아가게 </tspan><tspan x="1503.03" y="755.887">된다. </tspan><tspan x="1559.67" y="755.887">비록 </tspan><tspan x="1610" y="755.887">제국의 </tspan><tspan x="1681.94" y="755.887">공식적인 </tspan><tspan x="1775.48" y="755.887">입장으로는 </tspan><tspan x="1890.64" y="755.887">세 </tspan><tspan x="1919.36" y="755.887">계급 </tspan><tspan x="1969.7" y="755.887">사이에 </tspan><tspan x="2041.63" y="755.887">차별은 </tspan><tspan x="2113.57" y="755.887">존재하지 </tspan><tspan x="296" y="787.887">않는 </tspan><tspan x="345.487" y="787.887">것처럼 </tspan><tspan x="416.581" y="787.887">설명되곤 </tspan><tspan x="509.281" y="787.887">하나, </tspan><tspan x="565.165" y="787.887">실질적으로 </tspan><tspan x="679.472" y="787.887">교류가 </tspan><tspan x="750.565" y="787.887">차단된 </tspan><tspan x="821.659" y="787.887">탓에 </tspan><tspan x="871.146" y="787.887">각 </tspan><tspan x="899.027" y="787.887">계급의 </tspan><tspan x="970.121" y="787.887">시민들은 </tspan><tspan x="1062.82" y="787.887">서로 </tspan><tspan x="1112.31" y="787.887">다른 </tspan><tspan x="1161.8" y="787.887">계급의 </tspan><tspan x="1232.89" y="787.887">시민이 </tspan><tspan x="1303.98" y="787.887">누리는 </tspan><tspan x="1375.08" y="787.887">권리에 </tspan><tspan x="1446.17" y="787.887">대해 </tspan><tspan x="1495.66" y="787.887">잘 </tspan><tspan x="1523.54" y="787.887">알지 </tspan><tspan x="1573.03" y="787.887">못한다.</tspan></text><image x="2237" width="773" height="1080" fill="url(#img1719222488998_pattern0_3757_729)" xlink:href="/story/fidelion-4-1/1.png"/><path d="M4254.32 461.885V73.1251H4525.44V155.817H4356.32V226.159H4508.26V308.851H4356.32V461.885H4254.32Z" fill="black"/><path d="M4567.32 461.885V170.315H4668.79V461.885H4567.32ZM4617.78 138.634C4589.87 138.634 4567.32 117.693 4567.32 91.9188C4567.32 66.1446 4589.87 45.2031 4617.78 45.2031C4645.7 45.2031 4668.25 66.1446 4668.25 91.9188C4668.25 117.693 4645.7 138.634 4617.78 138.634Z" fill="black"/><path d="M4828.77 465.644C4765.96 465.644 4713.35 416.78 4713.35 316.369C4713.35 211.124 4769.18 166.556 4827.7 166.556C4871.72 166.556 4898.57 191.794 4909.84 220.79H4911.45V73.1251H5012.92V461.885H4912.53V414.096H4909.84C4898.03 443.092 4870.65 465.644 4828.77 465.644ZM4865.28 387.785C4895.88 387.785 4914.14 359.863 4914.14 315.832C4914.14 271.801 4895.88 244.953 4865.28 244.953C4835.22 244.953 4818.04 271.801 4818.04 315.832C4818.04 360.4 4835.22 387.785 4865.28 387.785Z" fill="black"/><path d="M5205.12 467.255C5112.24 467.255 5055.34 410.874 5055.34 316.906C5055.34 226.696 5112.78 166.556 5202.98 166.556C5289.41 166.556 5346.86 222.4 5346.86 315.832V339.995H5155.73V343.754C5155.73 373.824 5175.06 395.302 5207.27 395.302C5229.28 395.302 5247 385.637 5253.44 368.991H5346.32C5336.12 429.131 5284.58 467.255 5205.12 467.255ZM5155.73 283.077H5252.91C5252.37 256.766 5231.97 238.509 5205.12 238.509C5178.01 238.509 5156.54 257.034 5155.73 283.077Z" fill="black"/><path d="M5491.82 73.1251V461.885H5390.35V73.1251H5491.82Z" fill="black"/><path d="M5546.04 461.885V170.315H5647.51V461.885H5546.04ZM5596.51 138.634C5568.59 138.634 5546.04 117.693 5546.04 91.9188C5546.04 66.1446 5568.59 45.2031 5596.51 45.2031C5624.42 45.2031 5646.97 66.1446 5646.97 91.9188C5646.97 117.693 5624.42 138.634 5596.51 138.634Z" fill="black"/><path d="M5687.77 381.341C5687.77 316.906 5735.56 292.205 5795.15 288.447L5863.33 285.762V262.136C5863.33 246.027 5849.91 236.898 5830.05 236.898C5809.11 236.898 5795.69 246.027 5793 264.283H5699.05C5702.81 211.124 5745.76 166.556 5831.66 166.556C5912.73 166.556 5964.8 206.292 5964.8 262.673V461.885H5869.78V421.076H5867.63C5850.45 452.757 5821.46 466.718 5782.8 466.718C5726.97 466.718 5687.77 439.333 5687.77 381.341ZM5783.34 375.434C5783.34 392.617 5796.76 401.746 5815.55 401.746C5840.78 401.746 5864.41 385.637 5863.87 358.252V342.68C5853.67 342.948 5826.83 344.022 5813.4 345.365C5795.15 347.512 5783.34 359.863 5783.34 375.434Z" fill="black"/><path d="M4254.32 929.756V540.996H4419.68C4506.65 540.996 4563.56 590.397 4563.56 672.552C4563.56 726.248 4538.86 764.372 4496.99 784.24L4576.44 929.756H4465.31L4396.59 800.349H4356.32V929.756H4254.32ZM4356.32 720.341H4396.05C4434.71 720.341 4456.72 706.38 4456.72 672.552C4456.72 638.186 4434.71 622.614 4396.05 622.614H4356.32V720.341Z" fill="black"/><path d="M4743.41 935.126C4650.53 935.126 4593.62 878.745 4593.62 784.777C4593.62 694.567 4651.07 634.428 4741.26 634.428C4827.7 634.428 4885.15 690.272 4885.15 783.703V807.866H4694.02V811.625C4694.02 841.695 4713.35 863.173 4745.56 863.173C4767.57 863.173 4785.29 853.508 4791.73 836.862H4884.61C4874.41 897.002 4822.87 935.126 4743.41 935.126ZM4694.02 750.948H4791.19C4790.66 724.637 4770.26 706.38 4743.41 706.38C4716.3 706.38 4694.82 724.906 4694.02 750.948Z" fill="black"/><path d="M5067.68 1045.2C4980.71 1045.2 4930.24 1005.47 4925.95 949.624H5024.2C5027.42 968.418 5045.67 976.472 5070.37 976.472C5098.82 976.472 5119.22 964.659 5119.22 929.219V879.282H5116.54C5105.27 908.278 5074.66 925.998 5034.4 925.998C4971.58 925.998 4918.97 884.115 4918.97 783.703C4918.97 678.995 4974.8 634.428 5033.32 634.428C5077.35 634.428 5104.19 659.665 5115.47 688.661H5118.15V638.186H5219.62V929.756C5219.62 1003.86 5158.95 1045.2 5067.68 1045.2ZM5070.91 853.508C5101.51 853.508 5119.76 827.734 5119.76 783.703C5119.76 739.672 5101.51 712.824 5070.91 712.824C5040.84 712.824 5023.66 739.672 5023.66 783.703C5023.66 828.271 5040.84 853.508 5070.91 853.508Z" fill="black"/><path d="M5273.84 929.756V638.186H5375.31V929.756H5273.84ZM5324.31 606.506C5296.39 606.506 5273.84 585.564 5273.84 559.79C5273.84 534.016 5296.39 513.074 5324.31 513.074C5352.23 513.074 5374.78 534.016 5374.78 559.79C5374.78 585.564 5352.23 606.506 5324.31 606.506Z" fill="black"/><path d="M5568.59 935.126C5474.64 935.126 5418.26 874.449 5418.26 784.777C5418.26 695.104 5474.64 634.428 5568.59 634.428C5662.54 634.428 5718.38 695.104 5718.38 784.777C5718.38 874.449 5662.54 935.126 5568.59 935.126ZM5569.13 859.951C5597.58 859.951 5614.76 830.419 5614.76 784.24C5614.76 737.524 5597.58 708.528 5569.13 708.528C5539.6 708.528 5521.88 737.524 5521.88 784.24C5521.88 830.419 5539.6 859.951 5569.13 859.951Z" fill="black"/><path d="M5863.87 764.909V929.756H5762.4V638.186H5858.5V692.956H5861.72C5874.61 656.443 5907.89 634.428 5950.84 634.428C6012.58 634.428 6052.85 679.532 6052.31 743.968V929.756H5950.84V764.909C5951.38 734.839 5935.27 717.12 5907.89 717.12C5881.05 717.12 5863.87 734.839 5863.87 764.909Z" fill="black"/><text fill="black" xml:space="preserve" style="white-space: pre" font-family="Pretendard" font-size="25" letter-spacing="0em"><tspan x="7635.3" y="195.887">무기 개발
</tspan><tspan x="7038.67" y="231.887">피델리온의 무기 공장은 주로 한 디젤 엔진을 기반으로 다양한 무기를 설</tspan><tspan x="7044.92" y="263.887">계하고 생산한다. 단순한 무기뿐만 아니라 제국이 자랑하는 최고의 병기 </tspan><tspan x="7033.79" y="295.887">‘티탄’ 역시 이곳에서 생산되는데, 대표적인 예시로 이족보행 소형 탱크나 </tspan><tspan x="7088.08" y="327.887">네 다리로 움직이는 거대한 장갑차 등이 티탄 카테고리에 해당된다.</tspan></text><text fill="black" xml:space="preserve" style="white-space: pre" font-family="Pretendard" font-size="25" letter-spacing="0em"><tspan x="7524.48" y="451.887">노동자 거주지역
</tspan><tspan x="6962" y="487.887">피델리온의 노동자들은 그 이름에 걸맞게 다양한 분야에서 노동력을 공급하</tspan><tspan x="6960.49" y="519.887">는 임무를 맡는다. 직무에 따라 다소 차이는 있으나 일반적으로 일일 15시간</tspan><tspan x="6967.25" y="551.887">가량을 일하는 것이 기본이다. &apos;피델리온&apos;을 비롯한 다양한 시설들이 원활하</tspan><tspan x="7184.27" y="583.887">게 움직이는 데에는 이들의 역할이 필수 불가결하다.</tspan></text><text fill="black" xml:space="preserve" style="white-space: pre" font-family="Pretendard" font-size="25" letter-spacing="0em"><tspan x="7619.81" y="712.887">노예 거주 구역
</tspan><tspan x="6973.57" y="748.887">노예는 주로 제국에 반기를 든 반란군이나 범죄자, 혹은 마을이나 방랑 집단에서 납</tspan><tspan x="6973.67" y="780.887">치된 사람들로 구성되어 있다. 당연한 일이지만 노예의 거주 구역은 다른 지역에 비</tspan><tspan x="6967.3" y="812.887">해 공급되는 음식이나 복지 수준이 매우 낮으며, 이에 대한 출입 역시 크게 제한되는 </tspan><tspan x="6973.55" y="844.887">경우가 많다. 노예는 일반적으로 노동자보다도 더 힘든 노동을 하며, 이따금 노동과</tspan><tspan x="7016.59" y="876.887">정에서 사망하기도 한다. 당연하게도 제대로 된 장례 절차는 존재하지 않는다.
</tspan></text><text fill="black" xml:space="preserve" style="white-space: pre" font-family="Pretendard" font-size="25" letter-spacing="0em"><tspan x="8436" y="106.887">군대 캠프
</tspan><tspan x="8436" y="142.887">피델리아의 군인들을 훈련하고 단련시키기 위한 캠프로, 시민 중 연령 제한 없이 다소 </tspan><tspan x="8436" y="174.887">불규칙적으로 선별, 차출된다. 훈련 강도가 일반인이 받아들일 수 없을 정도로 혹독하기 </tspan><tspan x="8436" y="206.887">때문에 다수의 사상자가 계속해서 발생하는 장소이기도 하다. 하지만 군인이 될 경우 일</tspan><tspan x="8436" y="238.887">반 노동자보다 그 복지 수준이 나쁘지 않은 수준이기에 일반 시민 사이에서는 군대 캠프</tspan><tspan x="8436" y="270.887">에 자발적으로 지원하는 경우도 적지 않다. 캠프에서 훈련을 완료한 군인들은 외부 세력 </tspan><tspan x="8436" y="302.887">그 어떤 곳과 비교해도 부족함이 없는 텍사스 최강의 부대가 된다고 볼 수 있다.</tspan></text><text fill="black" xml:space="preserve" style="white-space: pre" font-family="Pretendard" font-size="25" letter-spacing="0em"><tspan x="8478" y="415.887">아레나
</tspan><tspan x="8478" y="451.887">피델리아에 존재하는 몇 안 되는 오락거리 중 하나로, 주에 한 번씩 검투사들의 </tspan><tspan x="8478" y="483.887">목숨을 건 혈투가 이곳에서 이루어지고, 어떤 게임이건 아레나에서의 패배는 </tspan><tspan x="8478" y="515.887">대부분 죽음과 직결된다. 노예의 입장에서는 신분 상승과 부를 거머쥘 수 있는 </tspan><tspan x="8478" y="547.887">유일한 길이라고도 할 수 있기 때문에 아레나의 검투사로 지원하는 노예들도 </tspan><tspan x="8478" y="579.887">상당수 존재한다. 물론 대부분의 경우는 강제로 징집된다. </tspan></text><text fill="black" xml:space="preserve" style="white-space: pre" font-family="Pretendard" font-size="25" letter-spacing="0em"><tspan x="8385" y="712.887">피델리온
</tspan><tspan x="8385" y="748.887">365일 연기가 짙게 피어오르며 지속적으로 석유를 추출하는 피델리온은 </tspan><tspan x="8385" y="780.887">피델리아 제국 전체를 상징하는 건물이자 대표 석유추출 시설이다. 제이크</tspan><tspan x="8385" y="812.887">의 거주지이기도 하며, 그를 따르는 장군 및 엘리트 과학자들과 같은 상급 </tspan><tspan x="8385" y="844.887">신민만이 거주가 허가된 곳이다.</tspan></text><g style="mix-blend-mode:multiply"><image x="7756" width="687" height="1080" fill="url(#img1719222488998_pattern1_3757_729)" xlink:href="/story/fidelion-4-1/2.png"/></g><image x="5559" width="1418" height="1080" fill="url(#img1719222488998_pattern2_3757_729)" xlink:href="/story/fidelion-4-1/3.png"/><path d="M9508 0H9786.88V68.722H9689.45V323.083H9605.43V68.722H9508V0Z" fill="black"/><path d="M9821.29 0H9906.21V127.18H10025.5V0H10110.9V323.083H10025.5V195.902H9906.21V323.083H9821.29V0Z" fill="black"/><path d="M10154.2 0H10385.3V68.722H10239.2V127.18H10373.2V195.902H10239.2V254.361H10384.9V323.083H10154.2V0Z" fill="black"/><path d="M9727.89 482.434C9724.91 470.832 9718.8 461.833 9709.56 455.436C9700.33 449.04 9688.56 445.842 9674.26 445.842C9659.36 445.842 9646.55 449.486 9635.82 456.775C9625.09 463.915 9616.9 474.402 9611.24 488.235C9605.58 501.92 9602.75 518.283 9602.75 537.323C9602.75 566.626 9608.86 589.385 9621.07 605.598C9633.29 621.663 9650.87 629.696 9673.81 629.696C9693.62 629.696 9708.74 625.382 9719.17 616.754C9729.75 607.978 9735.19 595.93 9735.48 580.609H9675.6V519.919H9817.72V564.097C9817.72 592.806 9811.53 617.721 9799.17 638.844C9786.95 659.817 9769.9 675.882 9748 687.038C9726.1 698.195 9701.07 703.773 9672.91 703.773C9641.78 703.773 9614.29 697.079 9590.46 683.691C9566.62 670.155 9548.07 650.967 9534.82 626.126C9521.71 601.136 9515.15 571.832 9515.15 538.215C9515.15 503.854 9522.08 474.104 9535.93 448.966C9549.79 423.827 9568.63 404.713 9592.47 391.623C9616.45 378.384 9643.12 371.765 9672.47 371.765C9697.5 371.765 9720.36 376.525 9741.07 386.045C9761.78 395.416 9778.54 408.506 9791.35 425.315C9804.16 442.123 9811.76 461.163 9814.14 482.434H9727.89Z" fill="black"/><path d="M9860.17 376.228H9997.83C10021.8 376.228 10042.8 380.616 10060.8 389.392C10079 398.168 10093 410.812 10102.9 427.323C10112.7 443.685 10117.6 463.097 10117.6 485.558C10117.6 507.573 10112.8 526.464 10103.1 542.231C10093.5 557.999 10079.9 570.047 10062.2 578.377L10128.3 699.31H10035.8L9978.39 591.765H9945.09V699.31H9860.17V376.228ZM9978.16 525.274C9994.7 525.274 10007.2 522.076 10015.7 515.68C10024.3 509.283 10028.7 499.243 10028.7 485.558C10028.7 471.576 10024.3 461.163 10015.7 454.321C10007.1 447.478 9994.55 444.057 9978.16 444.057H9945.09V525.274H9978.16Z" fill="black"/><path d="M10156 376.228H10387.1V444.949H10241V503.408H10375V572.13H10241V630.588H10386.6V699.31H10156V376.228Z" fill="black"/><path d="M10419.7 699.31L10527.4 376.228H10643.2L10750.4 699.31H10658.8L10639.4 635.943H10531L10511.8 699.31H10419.7ZM10619.7 571.684L10586.4 463.246H10583.7L10550.7 571.684H10619.7Z" fill="black"/><path d="M10732.1 376.228H11011V444.949H10913.6V699.31H10829.5V444.949H10732.1V376.228Z" fill="black"/><path d="M9727.89 858.662C9724.91 847.059 9718.8 838.06 9709.56 831.664C9700.33 825.268 9688.56 822.07 9674.26 822.07C9659.36 822.07 9646.55 825.714 9635.82 833.003C9625.09 840.143 9616.9 850.629 9611.24 864.463C9605.58 878.148 9602.75 894.51 9602.75 913.55C9602.75 942.854 9608.86 965.612 9621.07 981.826C9633.29 997.891 9650.87 1005.92 9673.81 1005.92C9693.62 1005.92 9708.74 1001.61 9719.17 992.982C9729.75 984.206 9735.19 972.157 9735.48 956.836H9675.6V896.146H9817.72V940.325C9817.72 969.033 9811.53 993.949 9799.17 1015.07C9786.95 1036.04 9769.9 1052.11 9748 1063.27C9726.1 1074.42 9701.07 1080 9672.91 1080C9641.78 1080 9614.29 1073.31 9590.46 1059.92C9566.62 1046.38 9548.07 1027.19 9534.82 1002.35C9521.71 977.363 9515.15 948.06 9515.15 914.443C9515.15 880.082 9522.08 850.332 9535.93 825.193C9549.79 800.055 9568.63 780.94 9592.47 767.851C9616.45 754.612 9643.12 747.993 9672.47 747.993C9697.5 747.993 9720.36 752.753 9741.07 762.272C9761.78 771.644 9778.54 784.734 9791.35 801.542C9804.16 818.351 9811.76 837.391 9814.14 858.662H9727.89Z" fill="black"/><path d="M9837.83 1080L9945.54 756.917H10061.3L10168.6 1080H10076.9L10057.5 1016.63H9949.11L9929.89 1080H9837.83ZM10037.8 952.373L10004.5 843.936H10001.8L9968.78 952.373H10037.8Z" fill="black"/><path d="M10150.2 756.917H10429.1V825.639H10331.7V1080H10247.7V825.639H10150.2V756.917Z" fill="black"/><path d="M10463.5 756.917H10694.6V825.639H10548.4V884.098H10682.5V952.82H10548.4V1011.28H10694.1V1080H10463.5V756.917Z" fill="black"/><image x="11101" width="1750" height="1080" fill="url(#img1719222488998_pattern3_3757_729)" xlink:href="/story/fidelion-4-1/4.png"/><text fill="white" xml:space="preserve" style="white-space: pre" font-family="Pretendard" font-size="25" letter-spacing="0em"><tspan x="11201" y="134.887">피델리아의 거대 성문은 피델리아 도시로 진입할 수 있는 유일한 출입구이다. 
</tspan><tspan x="11201" y="170.887">성문은 외부 세력으로부터 제국을 보호하는 방어적인 목적 수행을 위해 구축되었으나, 
</tspan><tspan x="11201" y="206.887">더 나아가 그 웅장함을 토대로 제국의 위엄을 외부 세력에 보여주고자 하는 목적도 존재한다.</tspan></text><defs><pattern id="img1719222488998_pattern0_3757_729" patternContentUnits="objectBoundingBox" width="1" height="1"><use xlink:href="#image0_3757_729" transform="scale(0.00043122 0.000308642)"/></pattern><pattern id="img1719222488998_pattern1_3757_729" patternContentUnits="objectBoundingBox" width="1" height="1"><use xlink:href="#image1_3757_729" transform="scale(0.000485201 0.000308642)"/></pattern><pattern id="img1719222488998_pattern2_3757_729" patternContentUnits="objectBoundingBox" width="1" height="1"><use xlink:href="#image2_3757_729" transform="scale(0.000705219 0.000925926)"/></pattern><pattern id="img1719222488998_pattern3_3757_729" patternContentUnits="objectBoundingBox" width="1" height="1"><use xlink:href="#image3_3757_729" transform="scale(0.000571429 0.000925926)"/></pattern><clipPath id="clip0_3757_729"><rect width="1904" height="492" fill="white" transform="translate(296 167)"/></clipPath><image id="image0_3757_729" width="2319" height="3240" xlink:href="/story/fidelion-4-1/fidelion-4-1/1.png"/><image id="image1_3757_729" width="2061" height="3240" xlink:href="/story/fidelion-4-1/fidelion-4-1/2.png"/><image id="image2_3757_729" width="1418" height="1080" xlink:href="/story/fidelion-4-1/fidelion-4-1/3.png"/><image id="image3_3757_729" width="1750" height="1080" xlink:href="/story/fidelion-4-1/fidelion-4-1/4.png"/></defs></svg>