<svg width="26050" height="1152" viewBox="0 0 26050 1152" fill="none" xmlns="http://www.w3.org/2000/svg" xmlns:xlink="http://www.w3.org/1999/xlink"><rect x="25832" y="81" width="185" height="204" fill="url(#img1671273595472_pattern0)"/><text fill="black" xml:space="preserve" style="white-space: pre" font-family="Charter" font-size="25" letter-spacing="-0.015em"><tspan x="25535" y="731.747">The fighting ability of Quasars is not enough to </tspan><tspan x="25535" y="758.747">stand against the empire because they lack </tspan><tspan x="25535" y="785.747">asymmetric power like the Titan. However, there </tspan><tspan x="25535" y="812.747">is a good chance of defeating other battles if the </tspan><tspan x="25535" y="839.747">empire does not have the Titan on the </tspan><tspan x="25535" y="866.747">battlefield.</tspan></text><rect x="25567" y="428" width="430" height="258" fill="url(#img1671273595472_pattern1)"/><rect x="24832" y="277" width="671" height="661" fill="url(#img1671273595472_pattern2)"/><text fill="black" xml:space="preserve" style="white-space: pre" font-family="Charter" font-size="25" letter-spacing="-0.015em"><tspan x="24312" y="742.747">Since the empire has many soldiers, Quasars </tspan><tspan x="24312" y="769.747">fighting ability is excellent, has outstanding </tspan><tspan x="24312" y="796.747">officers, and they have Turner Cobain </tspan><tspan x="24312" y="823.747">leading them. Their combat performance is </tspan><tspan x="24312" y="850.747">outstanding. The knowledge they possess is </tspan><tspan x="24312" y="877.747">from the Imperial days when they could </tspan><tspan x="24312" y="904.747">exert their power with sufficient support. </tspan><tspan x="24312" y="931.747">They are in a position where they must adapt </tspan><tspan x="24312" y="958.747">to command a small elite force and achieve </tspan><tspan x="24312" y="985.747">results.</tspan></text><rect x="24299" y="479" width="597" height="236" fill="url(#img1671273595472_pattern3)"/><rect x="23267" y="468" width="975" height="562" fill="url(#img1671273595472_pattern4)"/><rect x="23685" y="77" width="477" height="391" fill="url(#img1671273595472_pattern5)"/><rect x="23244" y="253" width="306" height="256" fill="url(#img1671273595472_pattern6)"/><text fill="black" xml:space="preserve" style="white-space: pre" font-family="Charter" font-size="25" letter-spacing="0.01em"><tspan x="23263" y="118.747">Quasars have about 5,000 </tspan><tspan x="23263" y="145.747">professional soldiers, but because non-</tspan><tspan x="23263" y="172.747">professional soldiers can fight, the </tspan><tspan x="23263" y="199.747">entire group of 20,000 can be </tspan><tspan x="23263" y="226.747">considered a resistance group.</tspan></text><rect x="22593" y="33" width="604" height="1046" fill="url(#img1671273595472_pattern7)"/><rect x="21330" y="721" width="1014" height="335" fill="url(#img1671273595472_pattern8)"/><text fill="black" xml:space="preserve" style="white-space: pre" font-family="Charter" font-size="25" letter-spacing="0.01em"><tspan x="20884" y="763.747">Turner led his army, newly joined </tspan><tspan x="20884" y="790.747">empire soldiers, and even civilians to </tspan><tspan x="20884" y="817.747">the west. They were out of reach from </tspan><tspan x="20884" y="844.747">the empire, to establish a base for the </tspan><tspan x="20884" y="871.747">resistance. They established a group of </tspan><tspan x="20884" y="898.747">rebels that fights against the empire. </tspan><tspan x="20884" y="925.747">Since then, those who were wary of the </tspan><tspan x="20884" y="952.747">empire’s expansion or had already been </tspan><tspan x="20884" y="979.747">harmed by the Empire’s sword have </tspan><tspan x="20884" y="1006.75">joined the Quasars.</tspan></text><rect x="20782" y="79" width="1608" height="639" fill="url(#img1671273595472_pattern9)"/><rect x="18899" y="383" width="1873" height="712" fill="url(#img1671273595472_pattern10)"/><text fill="black" xml:space="preserve" style="white-space: pre" font-family="Charter" font-size="25" letter-spacing="0em"><tspan x="19978" y="195.747">Turner Cobain, an old Fidelian Empire general, </tspan><tspan x="19978" y="222.747">became the leader of the resistance called </tspan><tspan x="19978" y="249.747">Quasars. The Quasars is an independent </tspan><tspan x="19978" y="276.747">organization that rebels against the Fidelian </tspan><tspan x="19978" y="303.747">Empire.</tspan></text><rect x="19664" y="88" width="248" height="274" fill="url(#img1671273595472_pattern11)"/><text fill="black" xml:space="preserve" style="white-space: pre" font-family="Charter" font-size="25" letter-spacing="0em"><tspan x="18013" y="748.747">Gary uses connections inside and outside the </tspan><tspan x="18013" y="775.747">Empire to team up with other assassin groups </tspan><tspan x="18013" y="802.747">for joint operations when a large-scale force is </tspan><tspan x="18013" y="829.747">unavoidably required.</tspan></text><rect x="18091" y="339" width="261" height="369" fill="url(#img1671273595472_pattern12)"/><rect x="18265" y="97" width="235" height="158" fill="url(#img1671273595472_pattern13)"/><rect x="17280" y="207" width="721" height="730" fill="url(#img1671273595472_pattern14)"/><rect x="16728" y="467" width="628" height="265" fill="url(#img1671273595472_pattern15)"/><text fill="black" xml:space="preserve" style="white-space: pre" font-family="Charter" font-size="25" letter-spacing="0em"><tspan x="16768" y="747.747">All lounge staff members are professional </tspan><tspan x="16768" y="774.747">killers with sufficient combat expertise of an </tspan><tspan x="16768" y="801.747">entire army platoon. However, because they </tspan><tspan x="16768" y="828.747">lack superhuman abilities and their armed </tspan><tspan x="16768" y="855.747">forces are trained specifically for surprise, </tspan><tspan x="16768" y="882.747">disturbance, and assassination that emphasize </tspan><tspan x="16768" y="909.747">confidentiality, they are unsuited for large-</tspan><tspan x="16768" y="936.747">scale conflicts.</tspan></text><rect x="15942" y="327" width="677" height="731" fill="url(#img1671273595472_pattern16)"/><text fill="black" xml:space="preserve" style="white-space: pre" font-family="Charter" font-size="25" letter-spacing="0em"><tspan x="16244" y="152.747">Many people fear her because her family </tspan><tspan x="16244" y="179.747">has been honing and passing down their </tspan><tspan x="16244" y="206.747">unique killing techniques since ancient </tspan><tspan x="16244" y="233.747">times, and her killing skills are at a level </tspan><tspan x="16244" y="260.747">that does not tarnish the family’s name.</tspan></text><text fill="black" xml:space="preserve" style="white-space: pre" font-family="Charter" font-size="25" letter-spacing="0em"><tspan x="15753" y="153.747">During his time in the military, </tspan><tspan x="15753" y="180.747">Gary was a highly skilled </tspan><tspan x="15753" y="207.747">assassin and mercenary, but </tspan><tspan x="15753" y="234.747">now that he’s retired, he lacks </tspan><tspan x="15753" y="261.747">the strength to fight. Instead, </tspan><tspan x="15753" y="288.747">Misa, a half-Japanese-</tspan><tspan x="15753" y="315.747">Caucasian bartender always </tspan><tspan x="15753" y="342.747">supports Gary and defends him </tspan><tspan x="15753" y="369.747">at all costs. She is his most </tspan><tspan x="15753" y="396.747">trusted employee.</tspan></text><rect x="15004" y="15" width="689" height="1080" fill="url(#img1671273595472_pattern17)"/><rect x="14553" y="791" width="349" height="301" fill="url(#img1671273595472_pattern18)"/><text fill="black" xml:space="preserve" style="white-space: pre" font-family="Charter" font-size="25" letter-spacing="0.01em"><tspan x="13734" y="830.747">Although Gary Haddenberg is the captain, there is a culture </tspan><tspan x="13734" y="857.747">in the lounge where employees have the freedom of speech to </tspan><tspan x="13734" y="884.747">voice their opinions without fear of repercussions when they </tspan><tspan x="13734" y="911.747">advance to a more critical position within the company.</tspan></text><rect x="13730" y="58" width="1203" height="726" fill="url(#img1671273595472_pattern19)"/><rect x="13378" y="114" width="339" height="950" fill="url(#img1671273595472_pattern20)"/><text fill="black" xml:space="preserve" style="white-space: pre" font-family="Charter" font-size="25" letter-spacing="0.01em"><tspan x="13235" y="702.747">Each member of </tspan><tspan x="13235" y="729.747">Gary’s Lounge is </tspan><tspan x="13235" y="756.747">in charge of a </tspan><tspan x="13235" y="783.747">specific position </tspan><tspan x="13235" y="810.747">because it is a </tspan><tspan x="13235" y="837.747">minority, and the </tspan><tspan x="13235" y="864.747">distribution of </tspan><tspan x="13235" y="891.747">each role is done </tspan><tspan x="13235" y="918.747">so.</tspan></text><rect x="13228" y="104" width="167" height="167" fill="url(#img1671273595472_pattern21)"/><path d="M13102.5 0.5V1152" stroke="black"/><text fill="black" xml:space="preserve" style="white-space: pre" font-family="Charter" font-size="25" letter-spacing="0em"><tspan x="12479" y="328.747">Due to his frequent interactions with empire-</tspan><tspan x="12479" y="355.747">wide traders, Gary has easy access to </tspan><tspan x="12479" y="382.747">information. These traders provide access to </tspan><tspan x="12479" y="409.747">general information, and “advanced” </tspan><tspan x="12479" y="436.747">information is frequently obtained from </tspan><tspan x="12479" y="463.747">special people like imperial officials, corporate </tspan><tspan x="12479" y="490.747">representatives, and military officials.
</tspan><tspan x="12479" y="517.747">
</tspan><tspan x="12479" y="544.747">Usually, this information is sold for a very high </tspan><tspan x="12479" y="571.747">price, therefore running the pub is financially </tspan><tspan x="12479" y="598.747">easy. The ten or so clerks are all professional </tspan><tspan x="12479" y="625.747">hitmen that Gary knows personally and </tspan><tspan x="12479" y="652.747">because he wants to maintain it in that way, 
</tspan><tspan x="12479" y="679.747">he doesn’t hire or increase staff.
</tspan><tspan x="12479" y="706.747">
</tspan><tspan x="12479" y="733.747">In the unlikely event that the company needs </tspan><tspan x="12479" y="760.747">to hire new employees due to death or for </tspan><tspan x="12479" y="787.747">another reason, Gary is strict with the </tspan><tspan x="12479" y="814.747">interview process for new recruits because he </tspan><tspan x="12479" y="841.747">needs to understand their capabilities of </tspan><tspan x="12479" y="868.747">taking on dangerous responsibilities and roles </tspan><tspan x="12479" y="895.747">under any conditions. Additionally, once a </tspan><tspan x="12479" y="922.747">member joins, the member cannot leave at </tspan><tspan x="12479" y="949.747">any time, and withdrawal is only permitted in </tspan><tspan x="12479" y="976.747">a small number of unique circumstances.</tspan></text><rect x="12582" y="67" width="411" height="186" fill="url(#img1671273595472_pattern22)"/><rect x="11168" y="15" width="1277" height="1080" fill="url(#img1671273595472_pattern23)"/><text fill="white" xml:space="preserve" style="white-space: pre" font-family="Charter" font-size="25" letter-spacing="0em"><tspan x="11561" y="696.747">Even when someone has knowledge of Gary’s </tspan><tspan x="11561" y="723.747">Lounge, they frequently only have a limited </tspan><tspan x="11561" y="750.747">understanding of it, and very few of them are </tspan><tspan x="11561" y="777.747">aware of the assassination plot.</tspan></text><rect x="9905" y="15" width="1112" height="1080" fill="url(#img1671273595472_pattern24)"/><text fill="black" xml:space="preserve" style="white-space: pre" font-family="Charter" font-size="25" letter-spacing="0em"><tspan x="9673.83" y="548.747">Gary’s Lounge was </tspan><tspan x="9622.26" y="575.747">established by a former </tspan><tspan x="9650.17" y="602.747">assassin named Gary </tspan><tspan x="9628.39" y="629.747">Haddenberg. Although </tspan><tspan x="9632.47" y="656.747">it’s in a shape of a pub </tspan><tspan x="9638.65" y="683.747">and is currently open, </tspan><tspan x="9615.6" y="710.747">sales of intelligence and </tspan><tspan x="9646.29" y="737.747">information generate </tspan><tspan x="9665.16" y="764.747">most of it’s income. </tspan><tspan x="9718.02" y="791.747">They carry out </tspan><tspan x="9634.93" y="818.747">assassination missions </tspan><tspan x="9611.4" y="845.747">for a few clients and sell </tspan><tspan x="9612.57" y="872.747">information obtained by </tspan><tspan x="9668.06" y="899.747">mediating between </tspan><tspan x="9614.55" y="926.747">various organizations to </tspan><tspan x="9637.11" y="953.747">receive funds or fulfill </tspan><tspan x="9780.05" y="980.747">requests.</tspan></text><rect x="9307" y="173" width="332" height="223" fill="url(#img1671273595472_pattern25)"/><rect x="7635" y="534" width="1360" height="412" fill="url(#img1671273595472_pattern26)"/><text fill="black" xml:space="preserve" style="white-space: pre" font-family="Helvetica" font-size="55" font-weight="bold" letter-spacing="0em"><tspan x="7632" y="505.973">New beginnings</tspan></text><rect x="8132" y="118" width="360" height="386" fill="url(#img1671273595472_pattern27)"/><text fill="black" xml:space="preserve" style="white-space: pre" font-family="Charter" font-size="25" letter-spacing="0em"><tspan x="6765" y="695.747">Their military might is enough to make even </tspan><tspan x="6765" y="722.747">veterans with moderate fighting skills </tspan><tspan x="6765" y="749.747">tremble, and some estimate that only a few </tspan><tspan x="6765" y="776.747">thousand will be able to deal with half of </tspan><tspan x="6765" y="803.747">Fidelia’s entire army. Kin manages sufficient </tspan><tspan x="6765" y="830.747">operating funds to secure adequate weapons </tspan><tspan x="6765" y="857.747">and distributes standard weapons so that </tspan><tspan x="6765" y="884.747">there is no significant difference in combat </tspan><tspan x="6765" y="911.747">power between new and veteran </tspan><tspan x="6765" y="938.747">mercenaries.</tspan></text><rect x="6843" y="362" width="320" height="305" fill="url(#img1671273595472_pattern28)"/><rect x="7057" y="65" width="167" height="212" fill="url(#img1671273595472_pattern29)"/><rect x="6041" y="308" width="686" height="631" fill="url(#img1671273595472_pattern30)"/><text fill="black" xml:space="preserve" style="white-space: pre" font-family="Charter" font-size="25" letter-spacing="0em"><tspan x="5519" y="702.747">Obtaining weapons for mercenaries to use </tspan><tspan x="5519" y="729.747">individually was a kind of an iron rule in </tspan><tspan x="5519" y="756.747">the post-war era. Still, since the current </tspan><tspan x="5519" y="783.747">Kossacks are actively receiving Fidelia’s </tspan><tspan x="5519" y="810.747">support, a certain amount of ‘welfare’s </tspan><tspan x="5519" y="837.747">guaranteed in that area. As the most </tspan><tspan x="5519" y="864.747">outstanding primary combat power, this </tspan><tspan x="5519" y="891.747">generous procurement of military support </tspan><tspan x="5519" y="918.747">made them the strongest army of all </tspan><tspan x="5519" y="945.747">current factions.</tspan></text><rect x="5492" y="457" width="556" height="229" fill="url(#img1671273595472_pattern31)"/><rect x="5013" y="653" width="328" height="382" fill="url(#img1671273595472_pattern32)"/><rect x="4999" y="330" width="423" height="349" fill="url(#img1671273595472_pattern33)"/><rect x="4331" y="147" width="639" height="493" fill="url(#img1671273595472_pattern34)"/><text fill="black" xml:space="preserve" style="white-space: pre" font-family="Charter" font-size="25" letter-spacing="0em"><tspan x="4964" y="154.747">Whether you are Kin or an </tspan><tspan x="4964" y="181.747">officer, you cannot issue an </tspan><tspan x="4964" y="208.747">order that directly contradicts </tspan><tspan x="4964" y="235.747">the will of the employer who </tspan><tspan x="4964" y="262.747">commissioned you in each </tspan><tspan x="4964" y="289.747">battle. Trust is directly related </tspan><tspan x="4964" y="316.747">to life as a mercenary.</tspan></text><text fill="black" xml:space="preserve" style="white-space: pre" font-family="Charter" font-size="25" letter-spacing="-0.03em"><tspan x="4535" y="710.747">Kin is the commander, and he </tspan><tspan x="4535" y="737.747">commands all three battalions. All </tspan><tspan x="4535" y="764.747">three battalions consist of about 50 </tspan><tspan x="4535" y="791.747">soldiers and 1 leader; each called a </tspan><tspan x="4535" y="818.747">battalion officer. During the battle, the </tspan><tspan x="4535" y="845.747">battalion officers determine the </tspan><tspan x="4535" y="872.747">situation of each battle in an extremely </tspan><tspan x="4535" y="899.747">detailed manner. When Kin receives a </tspan><tspan x="4535" y="926.747">commission from the empire, his only </tspan><tspan x="4535" y="953.747">role is to distribute tasks to his </tspan><tspan x="4535" y="980.747">battalions accordingly.</tspan></text><rect x="4240" y="496" width="262" height="435" fill="url(#img1671273595472_pattern35)"/><rect x="3037" y="432" width="621" height="663" fill="url(#img1671273595472_pattern36)"/><rect x="3617" y="191" width="594" height="904" fill="url(#img1671273595472_pattern37)"/><rect x="2339" y="15" width="672" height="1080" fill="url(#img1671273595472_pattern38)"/><text fill="black" xml:space="preserve" style="white-space: pre" font-family="Charter" font-size="25" letter-spacing="0em"><tspan x="1913.85" y="723.747">This overwhelming fighting power, </tspan><tspan x="1883.75" y="750.747">however, is sometimes accepted as an </tspan><tspan x="1868.73" y="777.747">arrogant image by others. They show a </tspan><tspan x="1901.18" y="804.747">significantly condescending attitude </tspan><tspan x="1882.16" y="831.747">toward those with less fighting power </tspan><tspan x="1941.61" y="858.747">than themselves. This attitude is </tspan><tspan x="1842.34" y="885.747">repulsive not only to Fidelia’s citizens but </tspan><tspan x="1899.93" y="912.747">also to the Imperial Army of Fidelia. </tspan><tspan x="1851.23" y="939.747">However, because their armed forces are </tspan><tspan x="1882.48" y="966.747">so outstanding, they do not engage in </tspan><tspan x="1844.46" y="993.747">socially controversial acts. It’s not easy to </tspan><tspan x="1880.87" y="1020.75">show hostility towards Kossacks, even </tspan><tspan x="2136.53" y="1047.75">within Fidelia.</tspan></text><rect x="1889" y="15" width="424" height="665" fill="url(#img1671273595472_pattern39)"/><rect x="712" y="15" width="1066" height="1080" fill="url(#img1671273595472_pattern40)"/><text fill="black" xml:space="preserve" style="white-space: pre" font-family="Charter" font-size="25" letter-spacing="0em"><tspan x="426.282" y="754.747">Kin Verlice gathered the </tspan><tspan x="401.233" y="781.747">scattered mercenaries and </tspan><tspan x="352.576" y="808.747">united them, establishing their </tspan><tspan x="405.311" y="835.747">identity as Kossacks. Each </tspan><tspan x="451.233" y="862.747">mercenary unit in the </tspan><tspan x="385.389" y="889.747">organization has a different </tspan><tspan x="386.194" y="916.747">story and direction. Despite </tspan><tspan x="394.056" y="943.747">their various features, they </tspan><tspan x="382.386" y="970.747">have one trait: their combat </tspan><tspan x="343.934" y="997.747">power is truly ‘overwhelmingly’ </tspan><tspan x="582.361" y="1024.75">powerful.</tspan></text><text fill="black" xml:space="preserve" style="white-space: pre" font-family="Charter" font-size="25" letter-spacing="0em"><tspan x="381.217" y="224.747">The Kossacks, known as the </tspan><tspan x="451.822" y="251.747">faction with the most </tspan><tspan x="362.564" y="278.747">dominant fighting skills, such </tspan><tspan x="454.264" y="305.747">as melee combat and </tspan><tspan x="433.243" y="332.747">marksmanship, tend to </tspan><tspan x="373.185" y="359.747">maintain the image of a unit </tspan><tspan x="404.142" y="386.747">worthy of this reputation. </tspan><tspan x="355.631" y="413.747">From the outside, they appear </tspan><tspan x="413.663" y="440.747">cold and frightening, the </tspan><tspan x="398.722" y="467.747">mercenary team devoid of </tspan><tspan x="459.488" y="494.747">emotion due to their </tspan><tspan x="436.979" y="521.747">systematic, thoroughly </tspan><tspan x="366.788" y="548.747">educated manner. They don’t </tspan><tspan x="371.207" y="575.747">usually show much emotion, </tspan><tspan x="442.96" y="602.747">and they are infinitely </tspan><tspan x="388.688" y="629.747">mechanical, relentless, and </tspan><tspan x="357.413" y="656.747">ruthless regarding their goals. </tspan><tspan x="363.785" y="683.747">Temporarily, the Kossacks are </tspan><tspan x="355.655" y="710.747">solely working for the empire.</tspan></text><rect y="869" width="313" height="170" fill="url(#img1671273595472_pattern41)"/><rect x="35" y="113" width="255" height="323" fill="url(#img1671273595472_pattern42)"/><defs><pattern id="img1671273595472_pattern0" patternContentUnits="objectBoundingBox" width="1" height="1"><use xlink:href="#image0_761_6" transform="translate(-0.00289274) scale(0.000269215 0.000244141)"/></pattern><pattern id="img1671273595472_pattern1" patternContentUnits="objectBoundingBox" width="1" height="1"><use xlink:href="#image1_761_6" transform="translate(0 -0.00250684) scale(0.000455789 0.000759648)"/></pattern><pattern id="img1671273595472_pattern2" patternContentUnits="objectBoundingBox" width="1" height="1"><use xlink:href="#image2_761_6" transform="scale(0.000745156 0.00075643)"/></pattern><pattern id="img1671273595472_pattern3" patternContentUnits="objectBoundingBox" width="1" height="1"><use xlink:href="#image3_761_6" transform="translate(-0.00336573) scale(0.000335577 0.000848896)"/></pattern><pattern id="img1671273595472_pattern4" patternContentUnits="objectBoundingBox" width="1" height="1"><use xlink:href="#image4_761_6" transform="translate(-0.000385953) scale(0.000286344 0.000496771)"/></pattern><pattern id="img1671273595472_pattern5" patternContentUnits="objectBoundingBox" width="1" height="1"><use xlink:href="#image5_761_6" transform="scale(0.00059453 0.000725297)"/></pattern><pattern id="img1671273595472_pattern6" patternContentUnits="objectBoundingBox" width="1" height="1"><use xlink:href="#image6_761_6" transform="scale(0.000379525 0.000453651)"/></pattern><pattern id="img1671273595472_pattern7" patternContentUnits="objectBoundingBox" width="1" height="1"><use xlink:href="#image7_761_6" transform="scale(0.000827815 0.000478011)"/></pattern><pattern id="img1671273595472_pattern8" patternContentUnits="objectBoundingBox" width="1" height="1"><use xlink:href="#image8_761_6" transform="translate(-0.000761373) scale(0.0002971 0.000899281)"/></pattern><pattern id="img1671273595472_pattern9" patternContentUnits="objectBoundingBox" width="1" height="1"><use xlink:href="#image9_761_6" transform="scale(0.000310945 0.000782473)"/></pattern><pattern id="img1671273595472_pattern10" patternContentUnits="objectBoundingBox" width="1" height="1"><use xlink:href="#image10_761_6" transform="translate(0 -0.00123692) scale(0.000267523 0.00070375)"/></pattern><pattern id="img1671273595472_pattern11" patternContentUnits="objectBoundingBox" width="1" height="1"><use xlink:href="#image0_761_6" transform="translate(-0.00386687) scale(0.000269736 0.000244141)"/></pattern><pattern id="img1671273595472_pattern12" patternContentUnits="objectBoundingBox" width="1" height="1"><use xlink:href="#image11_761_6" transform="translate(-0.000748477) scale(0.00072206 0.000510725)"/></pattern><pattern id="img1671273595472_pattern13" patternContentUnits="objectBoundingBox" width="1" height="1"><use xlink:href="#image12_761_6" transform="translate(0 -0.00165104) scale(0.000244141 0.000363121)"/></pattern><pattern id="img1671273595472_pattern14" patternContentUnits="objectBoundingBox" width="1" height="1"><use xlink:href="#image13_761_6" transform="scale(0.000693481 0.000684932)"/></pattern><pattern id="img1671273595472_pattern15" patternContentUnits="objectBoundingBox" width="1" height="1"><use xlink:href="#image14_761_6" transform="translate(0 -0.00121509) scale(0.000333333 0.000789937)"/></pattern><pattern id="img1671273595472_pattern16" patternContentUnits="objectBoundingBox" width="1" height="1"><use xlink:href="#image15_761_6" transform="translate(-0.00116879) scale(0.000600202 0.000555864)"/></pattern><pattern id="img1671273595472_pattern17" patternContentUnits="objectBoundingBox" width="1" height="1"><use xlink:href="#image16_761_6" transform="translate(-6.32164e-05 -0.0194444) scale(0.00048668 0.000310484)"/></pattern><pattern id="img1671273595472_pattern18" patternContentUnits="objectBoundingBox" width="1" height="1"><use xlink:href="#image17_761_6" transform="translate(0 -0.000394399) scale(0.000636537 0.000738045)"/></pattern><pattern id="img1671273595472_pattern19" patternContentUnits="objectBoundingBox" width="1" height="1"><use xlink:href="#image18_761_6" transform="scale(0.000383656 0.000635728)"/></pattern><pattern id="img1671273595472_pattern20" patternContentUnits="objectBoundingBox" width="1" height="1"><use xlink:href="#image19_761_6" transform="scale(0.00147493 0.000526316)"/></pattern><pattern id="img1671273595472_pattern21" patternContentUnits="objectBoundingBox" width="1" height="1"><use xlink:href="#image20_761_6" transform="scale(0.000333333)"/></pattern><pattern id="img1671273595472_pattern22" patternContentUnits="objectBoundingBox" width="1" height="1"><use xlink:href="#image21_761_6" transform="translate(0 -0.00299236) scale(0.000877193 0.00193831)"/></pattern><pattern id="img1671273595472_pattern23" patternContentUnits="objectBoundingBox" width="1" height="1"><use xlink:href="#image22_761_6" transform="translate(-0.000576649 -0.0925926) scale(0.000388496 0.00045936)"/></pattern><pattern id="img1671273595472_pattern24" patternContentUnits="objectBoundingBox" width="1" height="1"><use xlink:href="#image23_761_6" transform="translate(0 -0.0138889) scale(0.000447628 0.000460891)"/></pattern><pattern id="img1671273595472_pattern25" patternContentUnits="objectBoundingBox" width="1" height="1"><use xlink:href="#image12_761_6" transform="translate(0 -0.00213924) scale(0.000244141 0.000363474)"/></pattern><pattern id="img1671273595472_pattern26" patternContentUnits="objectBoundingBox" width="1" height="1"><use xlink:href="#image24_761_6" transform="scale(0.000367647 0.00121359)"/></pattern><pattern id="img1671273595472_pattern27" patternContentUnits="objectBoundingBox" width="1" height="1"><use xlink:href="#image25_761_6" transform="scale(0.00107991 0.00100717)"/></pattern><pattern id="img1671273595472_pattern28" patternContentUnits="objectBoundingBox" width="1" height="1"><use xlink:href="#image26_761_6" transform="scale(0.000514369 0.000539665)"/></pattern><pattern id="img1671273595472_pattern29" patternContentUnits="objectBoundingBox" width="1" height="1"><use xlink:href="#image27_761_6" transform="translate(0 -0.000553217) scale(0.00031027 0.000244411)"/></pattern><pattern id="img1671273595472_pattern30" patternContentUnits="objectBoundingBox" width="1" height="1"><use xlink:href="#image28_761_6" transform="scale(0.000728863 0.000792393)"/></pattern><pattern id="img1671273595472_pattern31" patternContentUnits="objectBoundingBox" width="1" height="1"><use xlink:href="#image29_761_6" transform="translate(-0.000645552) scale(0.000381009 0.000925069)"/></pattern><pattern id="img1671273595472_pattern32" patternContentUnits="objectBoundingBox" width="1" height="1"><use xlink:href="#image30_761_6" transform="scale(0.000705716 0.000605955)"/></pattern><pattern id="img1671273595472_pattern33" patternContentUnits="objectBoundingBox" width="1" height="1"><use xlink:href="#image31_761_6" transform="translate(0 -0.00122283) scale(0.000615385 0.000745867)"/></pattern><pattern id="img1671273595472_pattern34" patternContentUnits="objectBoundingBox" width="1" height="1"><use xlink:href="#image32_761_6" transform="scale(0.000285325 0.000369822)"/></pattern><pattern id="img1671273595472_pattern35" patternContentUnits="objectBoundingBox" width="1" height="1"><use xlink:href="#image33_761_6" transform="translate(0 -0.00218375) scale(0.00133511 0.000804137)"/></pattern><pattern id="img1671273595472_pattern36" patternContentUnits="objectBoundingBox" width="1" height="1"><use xlink:href="#image34_761_6" transform="scale(0.000386431 0.000361951)"/></pattern><pattern id="img1671273595472_pattern37" patternContentUnits="objectBoundingBox" width="1" height="1"><use xlink:href="#image35_761_6" transform="translate(-0.000726203) scale(0.00064777 0.000425636)"/></pattern><pattern id="img1671273595472_pattern38" patternContentUnits="objectBoundingBox" width="1" height="1"><use xlink:href="#image36_761_6" transform="translate(0 -0.0300284) scale(0.000554939 0.000345295)"/></pattern><pattern id="img1671273595472_pattern39" patternContentUnits="objectBoundingBox" width="1" height="1"><use xlink:href="#image37_761_6" transform="translate(-0.000431579) scale(0.000808452 0.000515464)"/></pattern><pattern id="img1671273595472_pattern40" patternContentUnits="objectBoundingBox" width="1" height="1"><use xlink:href="#image38_761_6" transform="scale(0.000438212 0.000432526)"/></pattern><pattern id="img1671273595472_pattern41" patternContentUnits="objectBoundingBox" width="1" height="1"><use xlink:href="#image39_761_6" transform="translate(0 -0.000899188) scale(0.000673401 0.00123985)"/></pattern><pattern id="img1671273595472_pattern42" patternContentUnits="objectBoundingBox" width="1" height="1"><use xlink:href="#image27_761_6" transform="translate(0 -0.00165749) scale(0.00031027 0.00024495)"/></pattern><image id="image0_761_6" width="3736" height="4096" xlink:href="/story/3-3/1.png"/><image id="image1_761_6" width="2194" height="1323" xlink:href="/story/3-3/2.png"/><image id="image2_761_6" width="1342" height="1322" xlink:href="/story/3-3/3.png"/><image id="image3_761_6" width="3000" height="1178" xlink:href="/story/3-3/4.png"/><image id="image4_761_6" width="3495" height="2013" xlink:href="/story/3-3/5.png"/><image id="image5_761_6" width="1682" height="1379" xlink:href="/story/3-3/6.png"/><image id="image6_761_6" width="2636" height="2256" xlink:href="/story/3-3/7.png"/><image id="image7_761_6" width="1208" height="2092" xlink:href="/story/3-3/8.png"/><image id="image8_761_6" width="3371" height="1112" xlink:href="/story/3-3/9.png"/><image id="image9_761_6" width="3216" height="1278" xlink:href="/story/3-3/10.png"/><image id="image10_761_6" width="3738" height="1646" xlink:href="/story/3-3/11.png"/><image id="image11_761_6" width="1387" height="1958" xlink:href="/story/3-3/12.png"/><image id="image12_761_6" width="4096" height="2763" xlink:href="/story/3-3/13.png"/><image id="image13_761_6" width="1460" height="1460" xlink:href="/story/3-3/14.png"/><image id="image14_761_6" width="3000" height="1269" xlink:href="/story/3-3/15.png"/><image id="image15_761_6" width="1670" height="1799" xlink:href="/story/3-3/16.png"/><image id="image16_761_6" width="2055" height="3352" xlink:href="/story/3-3/17.png"/><image id="image17_761_6" width="1571" height="1356" xlink:href="/story/3-3/18.png"/><image id="image18_761_6" width="2607" height="1573" xlink:href="/story/3-3/19.png"/><image id="image19_761_6" width="678" height="1900" xlink:href="/story/3-3/20.png"/><image id="image20_761_6" width="3000" height="3000" xlink:href="/story/3-3/21.png"/><image id="image21_761_6" width="1140" height="519" xlink:href="/story/3-3/22.png"/><image id="image22_761_6" width="2577" height="2570" xlink:href="/story/3-3/23.png"/><image id="image23_761_6" width="2234" height="2234" xlink:href="/story/3-3/24.png"/><image id="image24_761_6" width="2720" height="824" xlink:href="/story/3-3/25.png"/><image id="image25_761_6" width="926" height="993" xlink:href="/story/3-3/26.png"/><image id="image26_761_6" width="1945" height="1853" xlink:href="/story/3-3/27.png"/><image id="image27_761_6" width="3223" height="4096" xlink:href="/story/3-3/28.png"/><image id="image28_761_6" width="1372" height="1262" xlink:href="/story/3-3/29.png"/><image id="image29_761_6" width="2628" height="1081" xlink:href="/story/3-3/30.png"/><image id="image30_761_6" width="1417" height="1651" xlink:href="/story/3-3/31.png"/><image id="image31_761_6" width="1625" height="1344" xlink:href="/story/3-3/32.png"/><image id="image32_761_6" width="3505" height="2704" xlink:href="/story/3-3/33.png"/><image id="image33_761_6" width="749" height="1249" xlink:href="/story/3-3/34.png"/><image id="image34_761_6" width="2589" height="3017" xlink:href="/story/3-3/35.png"/><image id="image35_761_6" width="1546" height="2404" xlink:href="/story/3-3/36.png"/><image id="image36_761_6" width="1802" height="3070" xlink:href="/story/3-3/37.png"/><image id="image37_761_6" width="1238" height="1940" xlink:href="/story/3-3/38.png"/><image id="image38_761_6" width="2312" height="2312" xlink:href="/story/3-3/39.png"/><image id="image39_761_6" width="1485" height="808" xlink:href="/story/3-3/40.png"/></defs></svg>