<svg width="25240" height="1082" viewBox="0 0 25240 1082" fill="none" xmlns="http://www.w3.org/2000/svg" xmlns:xlink="http://www.w3.org/1999/xlink"><rect x="24784" y="343" width="423" height="326" fill="url(#img1671273249791_pattern0)"/><rect x="25060" y="54" width="160" height="196" fill="url(#img1671273249791_pattern1)"/><rect x="24026" y="212" width="720" height="728" fill="url(#img1671273249791_pattern2)"/><text fill="black" xml:space="preserve" style="white-space: pre" font-family="Charter" font-size="25" letter-spacing="0em"><tspan x="24727" y="696.747">When confronted by an enemy, the Blattas </tspan><tspan x="24727" y="723.747">make the wise decision of standing down and </tspan><tspan x="24727" y="750.747">avoiding contact if they are fully aware that </tspan><tspan x="24727" y="777.747">their opponent is more powerful, has access to </tspan><tspan x="24727" y="804.747">more weapons, and has a larger army. The </tspan><tspan x="24727" y="831.747">ability to read the war situation on a small </tspan><tspan x="24727" y="858.747">battlefield is exceptional. Member sacrifices </tspan><tspan x="24727" y="885.747">are uncommon even if the battle situation </tspan><tspan x="24727" y="912.747">becomes unfavorable.</tspan></text><text fill="black" xml:space="preserve" style="white-space: pre" font-family="Charter" font-size="25" letter-spacing="0em"><tspan x="23529" y="695.747">Blattas was an improvised group with little </tspan><tspan x="23529" y="722.747">combat power. The strategy is based on </tspan><tspan x="23529" y="749.747">surprise attacks on survivors, which they </tspan><tspan x="23529" y="776.747">rarely fight against trained groups. The </tspan><tspan x="23529" y="803.747">weapons are pre-war firearms, and their </tspan><tspan x="23529" y="830.747">fighting ability is even lower because they </tspan><tspan x="23529" y="857.747">did not distribute them to all personnel </tspan><tspan x="23529" y="884.747">due to a lack of weapons.</tspan></text><rect x="23486" y="431" width="608" height="227" fill="url(#img1671273249791_pattern3)"/><text fill="black" xml:space="preserve" style="white-space: pre" font-family="Charter" font-size="25" letter-spacing="0em"><tspan x="22507" y="871.747">Most orphans follow Lahar because his command is remarkably good, but if his </tspan><tspan x="22507" y="898.747">order goes a little wrong, the irritable orphans will soon rebel against him. Most </tspan><tspan x="22507" y="925.747">of them are teenage boys and girls, and they are difficult to control because they </tspan><tspan x="22507" y="952.747">are impatient and do not consider the future.</tspan></text><rect x="22516" y="267" width="786" height="570" fill="url(#img1671273249791_pattern4)"/><text fill="black" xml:space="preserve" style="white-space: pre" font-family="Charter" font-size="25" letter-spacing="0em"><tspan x="22538" y="103.747">The population was sustained by plunder without a resident. </tspan><tspan x="22538" y="130.747">Nonetheless, Blattas’ ability to grow to nearly 100 people was entirely </tspan><tspan x="22538" y="157.747">due to Lahar’s ability to pinpoint the location of each ‘water source.’ </tspan><tspan x="22538" y="184.747">Lahar discovered that targeting and attacking the water source where </tspan><tspan x="22538" y="211.747">survivors came and went was more efficient than wandering through </tspan><tspan x="22538" y="238.747">the wilderness.</tspan></text><rect x="22001" y="1" width="472" height="1082" fill="url(#img1671273249791_pattern5)"/><rect x="21782" y="747" width="195" height="275" fill="url(#img1671273249791_pattern6)"/><text fill="black" xml:space="preserve" style="white-space: pre" font-family="Charter" font-size="25" letter-spacing="0em"><tspan x="21657" y="234.747">Based on his long treacherous </tspan><tspan x="21657" y="261.747">experience in the cave, he </tspan><tspan x="21657" y="288.747">learned how to conserve </tspan><tspan x="21657" y="315.747">supplies and survive in </tspan><tspan x="21657" y="342.747">confined spaces while also </tspan><tspan x="21657" y="369.747">learning to take the lives of </tspan><tspan x="21657" y="396.747">others to survive. Based on </tspan><tspan x="21657" y="423.747">these principles, he keeps a </tspan><tspan x="21657" y="450.747">small group together by </tspan><tspan x="21657" y="477.747">traveling back and forth in the </tspan><tspan x="21657" y="504.747">wilderness, stealing items from </tspan><tspan x="21657" y="531.747">the survivors, and distributing </tspan><tspan x="21657" y="558.747">them to his “family.”</tspan></text><text fill="black" xml:space="preserve" style="white-space: pre" font-family="Charter" font-size="25" letter-spacing="0em"><tspan x="21109" y="521.747">Lahar had previously </tspan><tspan x="21109" y="548.747">lived in a small cave </tspan><tspan x="21109" y="575.747">with a group of </tspan><tspan x="21109" y="602.747">survivors. The </tspan><tspan x="21109" y="629.747">survivors in the cave </tspan><tspan x="21109" y="656.747">fought over limited </tspan><tspan x="21109" y="683.747">food, killing all but </tspan><tspan x="21109" y="710.747">Lahar and a few </tspan><tspan x="21109" y="737.747">children. Lahar </tspan><tspan x="21109" y="764.747">survived the nuclear </tspan><tspan x="21109" y="791.747">winter in a cave full of </tspan><tspan x="21109" y="818.747">corpses, then rose to </tspan><tspan x="21109" y="845.747">the surface with the </tspan><tspan x="21109" y="872.747">remaining children. </tspan><tspan x="21109" y="899.747">They discovered their </tspan><tspan x="21109" y="926.747">identity through the </tspan><tspan x="21109" y="953.747">cave’s totem and the </tspan><tspan x="21109" y="980.747">hieroglyphics written </tspan><tspan x="21109" y="1007.75">on the wall.</tspan></text><rect x="21116" y="147" width="227" height="321" fill="url(#img1671273249791_pattern7)"/><rect x="20390" y="1" width="685" height="1082" fill="url(#img1671273249791_pattern8)"/><rect x="19617" y="317" width="730" height="765" fill="url(#img1671273249791_pattern9)"/><text fill="black" xml:space="preserve" style="white-space: pre" font-family="Charter" font-size="25" letter-spacing="0em"><tspan x="19826.3" y="133.747">Blattas is an orphan group that does everything </tspan><tspan x="19896.8" y="160.747">to survive. Blattas name derives from the </tspan><tspan x="19906.9" y="187.747">meaning of desert cockroach, and Lahar </tspan><tspan x="19924.3" y="214.747">genuinely believes that surviving in an </tspan><tspan x="19902.1" y="241.747">apocalyptic world is his only motivation.</tspan></text><rect x="18450" y="65" width="951" height="950" fill="url(#img1671273249791_pattern10)"/><rect x="19220" y="514" width="310" height="310" fill="url(#img1671273249791_pattern11)"/><rect x="18257" y="114" width="364" height="364" fill="url(#img1671273249791_pattern12)"/><text fill="black" xml:space="preserve" style="white-space: pre" font-family="Charter" font-size="25" letter-spacing="0em"><tspan x="18186.6" y="549.747">In the early survivor </tspan><tspan x="18149.9" y="576.747">population, there was a </tspan><tspan x="18096.3" y="603.747">group of wandering orphans </tspan><tspan x="18138.5" y="630.747">during the post-war. The </tspan><tspan x="18132" y="657.747">children had no access to </tspan><tspan x="18114.1" y="684.747">food or water, nor did they </tspan><tspan x="18113.8" y="711.747">have access to small places </tspan><tspan x="18111.1" y="738.747">with water that did exist in </tspan><tspan x="18101.3" y="765.747">the wasteland. The majority </tspan><tspan x="18097.7" y="792.747">of them were doomed to die </tspan><tspan x="18081.5" y="819.747">in the desert or the grassland. </tspan><tspan x="18099.7" y="846.747">Then, a leader named Lahar </tspan><tspan x="18094.5" y="873.747">formed a group with the lost </tspan><tspan x="18135.4" y="900.747">children and called them </tspan><tspan x="18086.3" y="927.747">Blattas for them to live better </tspan><tspan x="18351.3" y="954.747">lives.</tspan></text><rect x="17830" y="105" width="270" height="332" fill="url(#img1671273249791_pattern13)"/><rect x="17284" y="47" width="160" height="188" fill="url(#img1671273249791_pattern14)"/><text fill="black" xml:space="preserve" style="white-space: pre" font-family="Charter" font-size="25" letter-spacing="0em"><tspan x="16965" y="721.747">The Caballeros are willing to fight for </tspan><tspan x="16965" y="748.747">vengeance and their family. They have the will </tspan><tspan x="16965" y="775.747">to face any enemy, even if they go into the </tspan><tspan x="16965" y="802.747">battlefield bare-fisted. It would be a </tspan><tspan x="16965" y="829.747">considerable duty to face them head-on, even </tspan><tspan x="16965" y="856.747">for the empire.</tspan></text><rect x="16942" y="422" width="527" height="279" fill="url(#img1671273249791_pattern15)"/><rect x="16237" y="336" width="686" height="589" fill="url(#img1671273249791_pattern16)"/><text fill="black" xml:space="preserve" style="white-space: pre" font-family="Charter" font-size="25" letter-spacing="0em"><tspan x="15735" y="711.747">People should not underestimate the </tspan><tspan x="15735" y="738.747">Caballeros’ fighting ability because they </tspan><tspan x="15735" y="765.747">stand together as apostles of justice and </tspan><tspan x="15735" y="792.747">are unafraid of entering the battlefield. </tspan><tspan x="15735" y="819.747">They only had the Fidelian Empire as an </tspan><tspan x="15735" y="846.747">enemy. Still, they regarded all groups other </tspan><tspan x="15735" y="873.747">than themselves as barbaric and needing </tspan><tspan x="15735" y="900.747">enlightenment.</tspan></text><rect x="15713" y="399" width="611" height="291" fill="url(#img1671273249791_pattern17)"/><rect x="14565" y="320" width="1067" height="739" fill="url(#img1671273249791_pattern18)"/><rect x="15299" y="85" width="407" height="158" fill="url(#img1671273249791_pattern19)"/><text fill="black" xml:space="preserve" style="white-space: pre" font-family="Charter" font-size="25" letter-spacing="0em"><tspan x="14866" y="78.7468">They mostly live near crumbling </tspan><tspan x="14866" y="105.747">cathedrals or cemeteries (European-style </tspan><tspan x="14866" y="132.747">architecture) and travel on fast </tspan><tspan x="14866" y="159.747">motorcycles and cars decorated with </tspan><tspan x="14866" y="186.747">European knightly designs. Although </tspan><tspan x="14866" y="213.747">they use firearms as their primary </tspan><tspan x="14866" y="240.747">weapon, they are ready to use other </tspan><tspan x="14866" y="267.747">weapons if necessary.</tspan></text><rect x="14511" y="17" width="351" height="321" fill="url(#img1671273249791_pattern20)"/><rect x="13882" y="710" width="655" height="349" fill="url(#img1671273249791_pattern21)"/><text fill="black" xml:space="preserve" style="white-space: pre" font-family="Charter" font-size="25" letter-spacing="0em"><tspan x="13897" y="584.747">The Caballeros organization values all of the </tspan><tspan x="13897" y="611.747">organization’s “symbolism.”Despite the post-war era’s </tspan><tspan x="13897" y="638.747">primary focus being firearm combat, they wear </tspan><tspan x="13897" y="665.747">anachronistic iron armor, which also serves as a barrier to </tspan><tspan x="13897" y="692.747">obtaining usable combat power.</tspan></text><rect x="14319" y="174" width="218" height="355" fill="url(#img1671273249791_pattern22)"/><rect x="13912" y="13" width="379" height="534" fill="url(#img1671273249791_pattern23)"/><rect x="13389" y="661" width="411" height="393" fill="url(#img1671273249791_pattern24)"/><text fill="black" xml:space="preserve" style="white-space: pre" font-family="Charter" font-size="25" letter-spacing="0em"><tspan x="13389" y="450.747">Caballeros, who see themselves as the </tspan><tspan x="13389" y="477.747">only justice, have no intention of </tspan><tspan x="13389" y="504.747">establishing an equal relationship with </tspan><tspan x="13389" y="531.747">any other faction. They will lash out </tspan><tspan x="13389" y="558.747">mercilessly at those who attempt to do </tspan><tspan x="13389" y="585.747">so, even if it’s not the empire.</tspan></text><rect x="13599" y="23" width="205" height="392" fill="url(#img1671273249791_pattern25)"/><rect x="12866" y="614" width="390" height="467" fill="url(#img1671273249791_pattern26)"/><rect x="12050" y="1" width="790" height="1080" fill="url(#img1671273249791_pattern27)"/><rect x="12768" y="227" width="579" height="404" fill="url(#img1671273249791_pattern28)"/><text fill="black" xml:space="preserve" style="white-space: pre" font-family="Charter" font-size="25" letter-spacing="0em"><tspan x="12887" y="70.7468">Caballeros also acts as a private security unit within their </tspan><tspan x="12887" y="97.7468">reach. Their actions resemble the Japanese Yakuza, who </tspan><tspan x="12887" y="124.747">was close to local authorities or civilians in the pre-war </tspan><tspan x="12887" y="151.747">era. This does not imply that the Caballeros consider </tspan><tspan x="12887" y="178.747">others equally; instead, they accept their existence as </tspan><tspan x="12887" y="205.747">beings providing protection.</tspan></text><rect x="10937" y="1" width="968" height="1080" fill="url(#img1671273249791_pattern29)"/><rect x="11592" y="1" width="915" height="535" fill="url(#img1671273249791_pattern30)"/><rect x="10586" y="726" width="343" height="323" fill="url(#img1671273249791_pattern31)"/><text fill="black" xml:space="preserve" style="white-space: pre" font-family="Charter" font-size="25" letter-spacing="0em"><tspan x="10144.5" y="774.747">Caballeros is an anti-imperial army that </tspan><tspan x="10149.1" y="801.747">shows no hostility toward non-imperial </tspan><tspan x="10262" y="828.747">civilians. They have a special </tspan><tspan x="10209.4" y="855.747">relationship with the surrounding </tspan><tspan x="10202.1" y="882.747">groups of survivors. If the group is </tspan><tspan x="10180.5" y="909.747">protected by the Caballeros then the </tspan><tspan x="10157" y="936.747">Caballeros actively protects them from </tspan><tspan x="10151.9" y="963.747">the Fidelian Empire, desert marauders, </tspan><tspan x="10159.4" y="990.747">or looters swarming in the wilderness.</tspan></text><rect x="10170" y="475" width="703" height="246" fill="url(#img1671273249791_pattern32)"/><text fill="black" xml:space="preserve" style="white-space: pre" font-family="Charter" font-size="25" letter-spacing="0em"><tspan x="10535" y="147.747">The Caballeros is an organization </tspan><tspan x="10535" y="174.747">led by a Spanish-American named </tspan><tspan x="10535" y="201.747">Morales Fiago; they are a post-</tspan><tspan x="10535" y="228.747">war organization that arose </tspan><tspan x="10535" y="255.747">immediately after the nuclear </tspan><tspan x="10535" y="282.747">winter. The empire refers to them </tspan><tspan x="10535" y="309.747">as gangsters, but they never refer </tspan><tspan x="10535" y="336.747">to themselves as such and </tspan><tspan x="10535" y="363.747">consider themselves the apostles </tspan><tspan x="10535" y="390.747">of mercy who enforce justice </tspan><tspan x="10535" y="417.747">against the unjust empire.</tspan></text><rect x="10138" y="63" width="312" height="367" fill="url(#img1671273249791_pattern33)"/><rect x="8951" y="1" width="929" height="1080" fill="url(#img1671273249791_pattern34)"/><text fill="black" xml:space="preserve" style="white-space: pre" font-family="Charter" font-size="25" letter-spacing="0em"><tspan x="8408" y="691.747">It’s a big drawback that replacing their troops </tspan><tspan x="8408" y="718.747">is almost impossible when they lose their </tspan><tspan x="8408" y="745.747">soldiers on the battlefield. This is because </tspan><tspan x="8408" y="772.747">Zaikasha consists of soldiers with exceptional </tspan><tspan x="8408" y="799.747">and unique individual abilities, primarily </tspan><tspan x="8408" y="826.747">trained when they were in the empire.
</tspan><tspan x="8408" y="853.747">
</tspan><tspan x="8408" y="880.747">To put it bluntly, if even one casualty occurs in </tspan><tspan x="8408" y="907.747">Zaikasha, it leads to irreversible and </tspan><tspan x="8408" y="934.747">permanent weakening of the unit.</tspan></text><rect x="8456" y="402" width="398" height="267" fill="url(#img1671273249791_pattern35)"/><rect x="8735" y="39" width="152" height="179" fill="url(#img1671273249791_pattern36)"/><rect x="7679" y="260" width="695" height="656" fill="url(#img1671273249791_pattern37)"/><rect x="7153" y="442" width="611" height="228" fill="url(#img1671273249791_pattern38)"/><text fill="black" xml:space="preserve" style="white-space: pre" font-family="Charter" font-size="25" letter-spacing="0em"><tspan x="7177" y="692.747">Zaikasha is a special unit built for missions </tspan><tspan x="7177" y="719.747">that require a high degree of </tspan><tspan x="7177" y="746.747">organizational combat power, such as </tspan><tspan x="7177" y="773.747">infiltrating enemy lines and assassinating </tspan><tspan x="7177" y="800.747">key figures. They have excellent combat </tspan><tspan x="7177" y="827.747">power as individuals, but when a whole </tspan><tspan x="7177" y="854.747">group of them unite to perform a mission, </tspan><tspan x="7177" y="881.747">their abilities are multiplied. Zaikasha is </tspan><tspan x="7177" y="908.747">the result of systematically operating </tspan><tspan x="7177" y="935.747">soldiers with strong individuals.</tspan></text><rect x="6500" y="792" width="580" height="289" fill="url(#img1671273249791_pattern39)"/><text fill="black" xml:space="preserve" style="white-space: pre" font-family="Charter" font-size="25" letter-spacing="0em"><tspan x="6479" y="610.747">Rio is cautious of issuing orders because, although </tspan><tspan x="6479" y="637.747">Zaikasha has freedom of speech and can disagree </tspan><tspan x="6479" y="664.747">with Rio, they still obey “every” single order he gives.
</tspan><tspan x="6479" y="691.747">
</tspan><tspan x="6479" y="718.747">This is a dangerous procedure because even if the </tspan><tspan x="6479" y="745.747">soldiers know their lives may be jeopardized, they </tspan><tspan x="6479" y="772.747">will still serve and follow Rio’s orders no matter </tspan><tspan x="6479" y="799.747">what.</tspan></text><rect x="6173" y="568" width="260" height="474" fill="url(#img1671273249791_pattern40)"/><rect x="6147" y="30" width="928" height="538" fill="url(#img1671273249791_pattern41)"/><rect x="5321" y="1" width="784" height="1082" fill="url(#img1671273249791_pattern42)"/><text fill="white" xml:space="preserve" style="white-space: pre" font-family="Charter" font-size="25" letter-spacing="0em"><tspan x="5363" y="891.747">They secure abandoned buildings in the desert as shelters </tspan><tspan x="5363" y="918.747">and negotiate with other groups to gain more resources. All </tspan><tspan x="5363" y="945.747">policies, such as food procurement, shelter security, and </tspan><tspan x="5363" y="972.747">resource supply, are carried out by a detailed military-style </tspan><tspan x="5363" y="999.747">plan. To secure resources, they sometimes do things similar </tspan><tspan x="5363" y="1026.75">to mercenaries.</tspan></text><text fill="black" xml:space="preserve" style="white-space: pre" font-family="Charter" font-size="25" letter-spacing="0em"><tspan x="4437.54" y="73.7468">Rio took overall command of </tspan><tspan x="4481.83" y="100.747">the organization because </tspan><tspan x="4508.59" y="127.747">most of Zaikasha were </tspan><tspan x="4485.86" y="154.747">members of Officer Rio’s </tspan><tspan x="4485.18" y="181.747">direct unit who followed </tspan><tspan x="4430.46" y="208.747">after witnessing his charisma.
</tspan><tspan x="4754" y="235.747">
</tspan><tspan x="4460.98" y="262.747">Rio, of course, can’t decide </tspan><tspan x="4432.64" y="289.747">everything on his own, so the </tspan><tspan x="4434.54" y="316.747">units under his command are </tspan><tspan x="4447.63" y="343.747">divided into few platoons to </tspan><tspan x="4497.82" y="370.747">separate his workloads.</tspan></text><rect x="4480" y="390" width="680" height="680" fill="url(#img1671273249791_pattern43)"/><rect x="4771" y="34" width="513" height="520" fill="url(#img1671273249791_pattern44)"/><text fill="black" xml:space="preserve" style="white-space: pre" font-family="Charter" font-size="25" letter-spacing="0em"><tspan x="3700.2" y="959.747">However, Jake’s policy of running the empire was far from what </tspan><tspan x="3699.61" y="986.747">Rio had envisioned. He led his loyal followers to flee the empire </tspan><tspan x="4129.05" y="1013.75">and form the Resistance.</tspan></text><rect x="3487" y="58" width="906" height="859" fill="url(#img1671273249791_pattern45)"/><rect x="2586" y="111" width="849" height="910" fill="url(#img1671273249791_pattern46)"/><text fill="black" xml:space="preserve" style="white-space: pre" font-family="Charter" font-size="25" letter-spacing="0em"><tspan x="2202" y="688.747">This anti-imperial organization </tspan><tspan x="2202" y="715.747">founded by Rio Crassus, a Fidelian </tspan><tspan x="2202" y="742.747">Empire officer. Rio is a young soldier </tspan><tspan x="2202" y="769.747">who rose to prominence during the </tspan><tspan x="2202" y="796.747">empire’s early days. He efficiently led </tspan><tspan x="2202" y="823.747">his subordinates with excellent </tspan><tspan x="2202" y="850.747">tactical command and strategy and </tspan><tspan x="2202" y="877.747">contributed significantly to the </tspan><tspan x="2202" y="904.747">establishment of the empire.</tspan></text><rect x="2213" y="437" width="379" height="197" fill="url(#img1671273249791_pattern47)"/><text fill="black" xml:space="preserve" style="white-space: pre" font-family="Charter" font-size="25" letter-spacing="0em"><tspan x="2239" y="177.747">The Zaikasha unit is one of the </tspan><tspan x="2239" y="204.747">empire’s elite units, and each </tspan><tspan x="2239" y="231.747">member has undergone rigorous </tspan><tspan x="2239" y="258.747">training to perform special </tspan><tspan x="2239" y="285.747">missions. All members are well-</tspan><tspan x="2239" y="312.747">trained soldiers, but they know </tspan><tspan x="2239" y="339.747">their respective roles because </tspan><tspan x="2239" y="366.747">they have experience with </tspan><tspan x="2239" y="393.747">unique missions in the group.</tspan></text><rect x="1720" y="825" width="484" height="188" fill="url(#img1671273249791_pattern48)"/><rect x="1725" y="35" width="323" height="380" fill="url(#img1671273249791_pattern49)"/><rect width="1651" height="1083" fill="url(#img1671273249791_pattern50)"/><defs><pattern id="img1671273249791_pattern0" patternContentUnits="objectBoundingBox" width="1" height="1"><use xlink:href="#image0_761_5" transform="translate(0 -0.00191017) scale(0.000397141 0.000515308)"/></pattern><pattern id="img1671273249791_pattern1" patternContentUnits="objectBoundingBox" width="1" height="1"><use xlink:href="#image1_761_5" transform="translate(0 -0.0011501) scale(0.00029976 0.000244702)"/></pattern><pattern id="img1671273249791_pattern2" patternContentUnits="objectBoundingBox" width="1" height="1"><use xlink:href="#image2_761_5" transform="scale(0.000694444 0.000686813)"/></pattern><pattern id="img1671273249791_pattern3" patternContentUnits="objectBoundingBox" width="1" height="1"><use xlink:href="#image3_761_5" transform="translate(-0.000935693) scale(0.000347631 0.000931099)"/></pattern><pattern id="img1671273249791_pattern4" patternContentUnits="objectBoundingBox" width="1" height="1"><use xlink:href="#image4_761_5" transform="scale(0.000419185 0.000578035)"/></pattern><pattern id="img1671273249791_pattern5" patternContentUnits="objectBoundingBox" width="1" height="1"><use xlink:href="#image5_761_5" transform="translate(-8.27595e-06 -0.062037) scale(0.000608283 0.000265842)"/></pattern><pattern id="img1671273249791_pattern6" patternContentUnits="objectBoundingBox" width="1" height="1"><use xlink:href="#image6_761_5" transform="translate(0 -0.00222909) scale(0.000738552 0.000523701)"/></pattern><pattern id="img1671273249791_pattern7" patternContentUnits="objectBoundingBox" width="1" height="1"><use xlink:href="#image6_761_5" transform="translate(0 -0.000865096) scale(0.000738552 0.000522279)"/></pattern><pattern id="img1671273249791_pattern8" patternContentUnits="objectBoundingBox" width="1" height="1"><use xlink:href="#image7_761_5" transform="translate(0 -0.0429329) scale(0.000440917 0.000279656)"/></pattern><pattern id="img1671273249791_pattern9" patternContentUnits="objectBoundingBox" width="1" height="1"><use xlink:href="#image8_761_5" transform="scale(0.00026455 0.000252447)"/></pattern><pattern id="img1671273249791_pattern10" patternContentUnits="objectBoundingBox" width="1" height="1"><use xlink:href="#image9_761_5" transform="scale(0.00052356)"/></pattern><pattern id="img1671273249791_pattern11" patternContentUnits="objectBoundingBox" width="1" height="1"><use xlink:href="#image10_761_5" transform="translate(0 -0.000586166) scale(0.000586166)"/></pattern><pattern id="img1671273249791_pattern12" patternContentUnits="objectBoundingBox" width="1" height="1"><use xlink:href="#image11_761_5" transform="scale(0.00137363)"/></pattern><pattern id="img1671273249791_pattern13" patternContentUnits="objectBoundingBox" width="1" height="1"><use xlink:href="#image1_761_5" transform="translate(-0.000737847) scale(0.000300203 0.000244141)"/></pattern><pattern id="img1671273249791_pattern14" patternContentUnits="objectBoundingBox" width="1" height="1"><use xlink:href="#image12_761_5" transform="translate(0 -0.000568272) scale(0.000287191 0.000244418)"/></pattern><pattern id="img1671273249791_pattern15" patternContentUnits="objectBoundingBox" width="1" height="1"><use xlink:href="#image13_761_5" transform="translate(0 -0.00234435) scale(0.000490677 0.000926835)"/></pattern><pattern id="img1671273249791_pattern16" patternContentUnits="objectBoundingBox" width="1" height="1"><use xlink:href="#image14_761_5" transform="scale(0.000728863 0.000848896)"/></pattern><pattern id="img1671273249791_pattern17" patternContentUnits="objectBoundingBox" width="1" height="1"><use xlink:href="#image15_761_5" transform="translate(0 -0.00195244) scale(0.000339098 0.000711989)"/></pattern><pattern id="img1671273249791_pattern18" patternContentUnits="objectBoundingBox" width="1" height="1"><use xlink:href="#image16_761_5" transform="translate(-0.000458748) scale(0.000346818 0.000500751)"/></pattern><pattern id="img1671273249791_pattern19" patternContentUnits="objectBoundingBox" width="1" height="1"><use xlink:href="#image17_761_5" transform="translate(0 -0.000524815) scale(0.00123762 0.00318806)"/></pattern><pattern id="img1671273249791_pattern20" patternContentUnits="objectBoundingBox" width="1" height="1"><use xlink:href="#image18_761_5" transform="scale(0.00117097 0.00128041)"/></pattern><pattern id="img1671273249791_pattern21" patternContentUnits="objectBoundingBox" width="1" height="1"><use xlink:href="#image19_761_5" transform="translate(-0.00158311) scale(0.000491989 0.000923361)"/></pattern><pattern id="img1671273249791_pattern22" patternContentUnits="objectBoundingBox" width="1" height="1"><use xlink:href="#image20_761_5" transform="translate(0 -0.000780502) scale(0.00125945 0.000773406)"/></pattern><pattern id="img1671273249791_pattern23" patternContentUnits="objectBoundingBox" width="1" height="1"><use xlink:href="#image21_761_5" transform="translate(0 -0.00121716) scale(0.000720981 0.000511707)"/></pattern><pattern id="img1671273249791_pattern24" patternContentUnits="objectBoundingBox" width="1" height="1"><use xlink:href="#image22_761_5" transform="scale(0.00121655 0.00127226)"/></pattern><pattern id="img1671273249791_pattern25" patternContentUnits="objectBoundingBox" width="1" height="1"><use xlink:href="#image23_761_5" transform="translate(-0.002091) scale(0.00111824 0.000584795)"/></pattern><pattern id="img1671273249791_pattern26" patternContentUnits="objectBoundingBox" width="1" height="1"><use xlink:href="#image24_761_5" transform="translate(0 -0.00180612) scale(0.000778816 0.000650403)"/></pattern><pattern id="img1671273249791_pattern27" patternContentUnits="objectBoundingBox" width="1" height="1"><use xlink:href="#image25_761_5" transform="translate(-0.0139241 -0.0142331) scale(0.000634496 0.000464122)"/></pattern><pattern id="img1671273249791_pattern28" patternContentUnits="objectBoundingBox" width="1" height="1"><use xlink:href="#image26_761_5" transform="translate(-0.000341211) scale(0.00085092 0.00121951)"/></pattern><pattern id="img1671273249791_pattern29" patternContentUnits="objectBoundingBox" width="1" height="1"><use xlink:href="#image27_761_5" transform="translate(0 -0.0240741) scale(0.000517443 0.000463782)"/></pattern><pattern id="img1671273249791_pattern30" patternContentUnits="objectBoundingBox" width="1" height="1"><use xlink:href="#image28_761_5" transform="translate(-0.00072666) scale(0.000518351 0.000886525)"/></pattern><pattern id="img1671273249791_pattern31" patternContentUnits="objectBoundingBox" width="1" height="1"><use xlink:href="#image29_761_5" transform="translate(-0.000278106) scale(0.00120575 0.00128041)"/></pattern><pattern id="img1671273249791_pattern32" patternContentUnits="objectBoundingBox" width="1" height="1"><use xlink:href="#image30_761_5" transform="translate(-0.00221047) scale(0.00024522 0.000700771)"/></pattern><pattern id="img1671273249791_pattern33" patternContentUnits="objectBoundingBox" width="1" height="1"><use xlink:href="#image12_761_5" transform="scale(0.000287191 0.000244152)"/></pattern><pattern id="img1671273249791_pattern34" patternContentUnits="objectBoundingBox" width="1" height="1"><use xlink:href="#image31_761_5" transform="scale(0.000538213 0.000462963)"/></pattern><pattern id="img1671273249791_pattern35" patternContentUnits="objectBoundingBox" width="1" height="1"><use xlink:href="#image32_761_5" transform="translate(-0.000460672) scale(0.000564217 0.000841043)"/></pattern><pattern id="img1671273249791_pattern36" patternContentUnits="objectBoundingBox" width="1" height="1"><use xlink:href="#image33_761_5" transform="translate(-0.00126969) scale(0.000287508 0.000244141)"/></pattern><pattern id="img1671273249791_pattern37" patternContentUnits="objectBoundingBox" width="1" height="1"><use xlink:href="#image34_761_5" transform="scale(0.000719424 0.000762195)"/></pattern><pattern id="img1671273249791_pattern38" patternContentUnits="objectBoundingBox" width="1" height="1"><use xlink:href="#image35_761_5" transform="scale(0.000343925 0.000921659)"/></pattern><pattern id="img1671273249791_pattern39" patternContentUnits="objectBoundingBox" width="1" height="1"><use xlink:href="#image36_761_5" transform="scale(0.000862069 0.0017301)"/></pattern><pattern id="img1671273249791_pattern40" patternContentUnits="objectBoundingBox" width="1" height="1"><use xlink:href="#image37_761_5" transform="translate(0 -0.00204735) scale(0.000985222 0.000540417)"/></pattern><pattern id="img1671273249791_pattern41" patternContentUnits="objectBoundingBox" width="1" height="1"><use xlink:href="#image38_761_5" transform="translate(0 -0.000364082) scale(0.000355492 0.000613191)"/></pattern><pattern id="img1671273249791_pattern42" patternContentUnits="objectBoundingBox" width="1" height="1"><use xlink:href="#image39_761_5" transform="translate(0 -0.0185185) scale(0.000637755 0.000462963)"/></pattern><pattern id="img1671273249791_pattern43" patternContentUnits="objectBoundingBox" width="1" height="1"><use xlink:href="#image40_761_5" transform="scale(0.000631313)"/></pattern><pattern id="img1671273249791_pattern44" patternContentUnits="objectBoundingBox" width="1" height="1"><use xlink:href="#image41_761_5" transform="translate(0 -0.000483406) scale(0.000457038 0.000450886)"/></pattern><pattern id="img1671273249791_pattern45" patternContentUnits="objectBoundingBox" width="1" height="1"><use xlink:href="#image42_761_5" transform="scale(0.000435919 0.00045977)"/></pattern><pattern id="img1671273249791_pattern46" patternContentUnits="objectBoundingBox" width="1" height="1"><use xlink:href="#image43_761_5" transform="scale(0.00033339 0.000311042)"/></pattern><pattern id="img1671273249791_pattern47" patternContentUnits="objectBoundingBox" width="1" height="1"><use xlink:href="#image44_761_5" transform="translate(-0.00147037) scale(0.000763273 0.00146843)"/></pattern><pattern id="img1671273249791_pattern48" patternContentUnits="objectBoundingBox" width="1" height="1"><use xlink:href="#image45_761_5" transform="scale(0.00103306 0.00265957)"/></pattern><pattern id="img1671273249791_pattern49" patternContentUnits="objectBoundingBox" width="1" height="1"><use xlink:href="#image33_761_5" transform="translate(-0.000775506) scale(0.000287224 0.000244141)"/></pattern><pattern id="img1671273249791_pattern50" patternContentUnits="objectBoundingBox" width="1" height="1"><use xlink:href="#image46_761_5" transform="translate(0 -0.00030303) scale(0.00030303 0.000463244)"/></pattern><image id="image0_761_5" width="2518" height="1948" xlink:href="/story/3-2/1.png"/><image id="image1_761_5" width="3336" height="4096" xlink:href="/story/3-2/2.png"/><image id="image2_761_5" width="1440" height="1456" xlink:href="/story/3-2/3.png"/><image id="image3_761_5" width="2882" height="1074" xlink:href="/story/3-2/4.png"/><image id="image4_761_5" width="2386" height="1730" xlink:href="/story/3-2/5.png"/><image id="image5_761_5" width="1644" height="4096" xlink:href="/story/3-2/6.png"/><image id="image6_761_5" width="1354" height="1918" xlink:href="/story/3-2/7.png"/><image id="image7_761_5" width="2268" height="3863" xlink:href="/story/3-2/8.png"/><image id="image8_761_5" width="3780" height="4096" xlink:href="/story/3-2/9.png"/><image id="image9_761_5" width="1910" height="1908" xlink:href="/story/3-2/10.png"/><image id="image10_761_5" width="1706" height="1708" xlink:href="/story/3-2/11.png"/><image id="image11_761_5" width="728" height="728" xlink:href="/story/3-2/12.png"/><image id="image12_761_5" width="3482" height="4096" xlink:href="/story/3-2/13.png"/><image id="image13_761_5" width="2038" height="1084" xlink:href="/story/3-2/14.png"/><image id="image14_761_5" width="1372" height="1178" xlink:href="/story/3-2/15.png"/><image id="image15_761_5" width="2949" height="1410" xlink:href="/story/3-2/16.png"/><image id="image16_761_5" width="2886" height="1997" xlink:href="/story/3-2/17.png"/><image id="image17_761_5" width="808" height="314" xlink:href="/story/3-2/18.png"/><image id="image18_761_5" width="854" height="781" xlink:href="/story/3-2/19.png"/><image id="image19_761_5" width="2039" height="1083" xlink:href="/story/3-2/20.png"/><image id="image20_761_5" width="794" height="1295" xlink:href="/story/3-2/21.png"/><image id="image21_761_5" width="1387" height="1959" xlink:href="/story/3-2/22.png"/><image id="image22_761_5" width="822" height="786" xlink:href="/story/3-2/23.png"/><image id="image23_761_5" width="898" height="1710" xlink:href="/story/3-2/24.png"/><image id="image24_761_5" width="1284" height="1655" xlink:href="/story/3-2/25.png"/><image id="image25_761_5" width="1598" height="2192" xlink:href="/story/3-2/26.png"/><image id="image26_761_5" width="1176" height="820" xlink:href="/story/3-2/27.png"/><image id="image27_761_5" width="2260" height="2260" xlink:href="/story/3-2/28.png"/><image id="image28_761_5" width="1932" height="1128" xlink:href="/story/3-2/29.png"/><image id="image29_761_5" width="854" height="781" xlink:href="/story/3-2/30.png"/><image id="image30_761_5" width="4096" height="1427" xlink:href="/story/3-2/31.png"/><image id="image31_761_5" width="1858" height="2160" xlink:href="/story/3-2/32.png"/><image id="image32_761_5" width="1774" height="1189" xlink:href="/story/3-2/33.png"/><image id="image33_761_5" width="3487" height="4096" xlink:href="/story/3-2/34.png"/><image id="image34_761_5" width="1390" height="1312" xlink:href="/story/3-2/35.png"/><image id="image35_761_5" width="2908" height="1085" xlink:href="/story/3-2/36.png"/><image id="image36_761_5" width="1160" height="832" xlink:href="/story/3-2/37.png"/><image id="image37_761_5" width="1015" height="1858" xlink:href="/story/3-2/38.png"/><image id="image38_761_5" width="2813" height="1632" xlink:href="/story/3-2/39.png"/><image id="image39_761_5" width="1568" height="2254" xlink:href="/story/3-2/40.png"/><image id="image40_761_5" width="1584" height="1584" xlink:href="/story/3-2/41.png"/><image id="image41_761_5" width="2188" height="2220" xlink:href="/story/3-2/42.png"/><image id="image42_761_5" width="2295" height="2175" xlink:href="/story/3-2/43.png"/><image id="image43_761_5" width="3000" height="3215" xlink:href="/story/3-2/44.png"/><image id="image44_761_5" width="1314" height="681" xlink:href="/story/3-2/45.png"/><image id="image45_761_5" width="968" height="376" xlink:href="/story/3-2/46.png"/><image id="image46_761_5" width="3300" height="2160" xlink:href="/story/3-2/47.png"/></defs></svg>