<svg width="25448" height="1080" viewBox="0 0 25448 1080" fill="none" xmlns="http://www.w3.org/2000/svg" xmlns:xlink="http://www.w3.org/1999/xlink"><image x="25280" y="41" width="154" height="178" fill="url(#img1672562790149_pattern0)" xlink:href="/story/3-1/1.png"/><text fill="black" xml:space="preserve" style="white-space: pre" font-family="Charter" font-size="25" letter-spacing="0em"><tspan x="24972" y="696.747">Despite having a reputation for being weak </tspan><tspan x="24972" y="723.747">in the eyes of outsiders, the Nine Fingers </tspan><tspan x="24972" y="750.747">are formidable in battle due to their close-</tspan><tspan x="24972" y="777.747">combat skills and loyalty to one another. </tspan><tspan x="24972" y="804.747">They often employ surprise attacks to draw </tspan><tspan x="24972" y="831.747">their opponents into hand-to-hand combat.</tspan></text><image x="25001" y="444" width="441" height="231" fill="url(#img1672562790149_pattern1)" xlink:href="/story/3-1/2.png"/><image x="24219" y="198" width="729" height="722" fill="url(#img1672562790149_pattern2)" xlink:href="/story/3-1/3.png"/><text fill="black" xml:space="preserve" style="white-space: pre" font-family="Charter" font-size="25" letter-spacing="0em"><tspan x="23734" y="693.747">The Nine Fingers, a group consisting of </tspan><tspan x="23734" y="720.747">gladiators and other individuals who fled </tspan><tspan x="23734" y="747.747">the Fidelian Empire, are not well-versed in </tspan><tspan x="23734" y="774.747">the use of firearms. Instead, they rely on </tspan><tspan x="23734" y="801.747">hand-to-hand combat techniques, such as </tspan><tspan x="23734" y="828.747">using swords, shields, and whips, which </tspan><tspan x="23734" y="855.747">they learned while fighting in the empire&apos;s </tspan><tspan x="23734" y="882.747">arenas.</tspan></text><image x="23701" y="424" width="572" height="232" rx="84" fill="url(#img1672562790149_pattern3)" xlink:href="/story/3-1/4.png"/><image x="22486" y="711" width="1100" height="357" fill="url(#img1672562790149_pattern4)" xlink:href="/story/3-1/5.png"/><image x="23030" y="10" width="621" height="749" fill="url(#img1672562790149_pattern5)" xlink:href="/story/3-1/6.png"/><image x="22816" y="335" width="324" height="437" fill="url(#img1672562790149_pattern6)" xlink:href="/story/3-1/7.png"/><image x="22382" y="397" width="453" height="310" fill="url(#img1672562790149_pattern7)" xlink:href="/story/3-1/8.png"/><text fill="black" xml:space="preserve" style="white-space: pre" font-family="Charter" font-size="25" letter-spacing="0em"><tspan x="22463" y="116.747">The Nine Fingers, a group of </tspan><tspan x="22463" y="143.747">mercenaries led by Leopart the 3rd </tspan><tspan x="22463" y="170.747">and eight comrades, will do whatever </tspan><tspan x="22463" y="197.747">it takes to survive, including stealing </tspan><tspan x="22463" y="224.747">weapons and money, robbing other </tspan><tspan x="22463" y="251.747">groups, and fishing for food. They are </tspan><tspan x="22463" y="278.747">not afraid of taking risks to obtain </tspan><tspan x="22463" y="305.747">essential supplies like food, water, </tspan><tspan x="22463" y="332.747">and weapons.</tspan></text><image x="21292" width="1089" height="1080" fill="url(#img1672562790149_pattern8)" xlink:href="/story/3-1/9.png"/><text fill="black" xml:space="preserve" style="white-space: pre" font-family="Charter" font-size="25" letter-spacing="0em"><tspan x="20742.3" y="857.747">Leopart the 3rd, a champion gladiator, fled the </tspan><tspan x="20695" y="884.747">empire in search of freedom and joined forces with </tspan><tspan x="20672.2" y="911.747">other slave fighters in the same arena, destroying the </tspan><tspan x="20759.2" y="938.747">space and stealing weapons from the empire.</tspan></text><text fill="black" xml:space="preserve" style="white-space: pre" font-family="Charter" font-size="25" letter-spacing="0em"><tspan x="20061" y="854.747">Gladiators were slave entertainers who </tspan><tspan x="20061" y="881.747">fought in the empire&apos;s arenas for the </tspan><tspan x="20061" y="908.747">enjoyment of the noble class. They were </tspan><tspan x="20061" y="935.747">treated as disposable goods and were </tspan><tspan x="20061" y="962.747">expected to be used up and discarded </tspan><tspan x="20061" y="989.747">quickly.</tspan></text><image x="20027" y="111" width="1237" height="700" fill="url(#img1672562790149_pattern9)" xlink:href="/story/3-1/10.png"/><image x="18902" width="1099" height="1080" fill="url(#img1672562790149_pattern10)" xlink:href="/story/3-1/11.png"/><text fill="black" xml:space="preserve" style="white-space: pre" font-family="Charter" font-size="26" letter-spacing="0em"><tspan x="18482" y="758.617">The Nine Fingers is a group of nine </tspan><tspan x="18482" y="786.617">people, led by Leopart the 3rd, </tspan><tspan x="18482" y="814.617">who fled the Fidelian Empire. It is </tspan><tspan x="18482" y="842.617">composed of gladiators from </tspan><tspan x="18482" y="870.617">Fidelian&apos;s arenas, slave workers, </tspan><tspan x="18482" y="898.617">and a few other civilians who </tspan><tspan x="18482" y="926.617">joined along the way.</tspan></text><image x="18226" y="54" width="314" height="364" fill="url(#img1672562790149_pattern11)" xlink:href="/story/3-1/1.png"/><image x="16993" y="22" width="746" height="799" fill="url(#img1672562790149_pattern12)" xlink:href="/story/3-1/12.png"/><image x="16995" y="832" width="744" height="225" fill="url(#img1672562790149_pattern13)" xlink:href="/story/3-1/13.png"/><text transform="translate(16909 1061) rotate(-90)" fill="black" xml:space="preserve" style="white-space: pre" font-family="Helvetica" font-size="67" font-weight="bold" letter-spacing="0em"><tspan x="0" y="59.613">New beginnings</tspan></text><text fill="black" xml:space="preserve" style="white-space: pre" font-family="Charter" font-size="25" letter-spacing="0em"><tspan x="16137" y="696.747">Biff was always worried about being betrayed </tspan><tspan x="16137" y="723.747">and the empire did not care about who became </tspan><tspan x="16137" y="750.747">the leader of the Hunters, so he did not train </tspan><tspan x="16137" y="777.747">his subordinates to be too strong. He knew that </tspan><tspan x="16137" y="804.747">having subordinates with very high combat </tspan><tspan x="16137" y="831.747">abilities could be dangerous for him, given the </tspan><tspan x="16137" y="858.747">nature of the missions that the Hunters </tspan><tspan x="16137" y="885.747">accepted from the empire.</tspan></text><image x="16280" y="371" width="256" height="295" fill="url(#img1672562790149_pattern14)" xlink:href="/story/3-1/14.png"/><image x="16492" y="45" width="130" height="172" fill="url(#img1672562790149_pattern15)" xlink:href="/story/3-1/15.png"/><image x="15442" y="206" width="683" height="709" fill="url(#img1672562790149_pattern16)" xlink:href="/story/3-1/16.png"/><image x="14915" y="439" width="546" height="244" fill="url(#img1672562790149_pattern17)" xlink:href="/story/3-1/17.png"/><text fill="black" xml:space="preserve" style="white-space: pre" font-family="Charter" font-size="25" letter-spacing="0em"><tspan x="14924" y="711.747">Biff, the leader of the Hunters, and a few </tspan><tspan x="14924" y="738.747">other members with superior fighting </tspan><tspan x="14924" y="765.747">abilities, have exploited corruption to gain </tspan><tspan x="14924" y="792.747">power within the group. Despite this, the </tspan><tspan x="14924" y="819.747">majority of the Hunters struggle to </tspan><tspan x="14924" y="846.747">effectively use older firearms and rely on </tspan><tspan x="14924" y="873.747">the support of the empire.</tspan></text><image x="13880" y="668" width="431" height="354" fill="url(#img1672562790149_pattern18)" xlink:href="/story/3-1/18.png"/><text fill="black" xml:space="preserve" style="white-space: pre" font-family="Charter" font-size="25" letter-spacing="0em"><tspan x="14431.8" y="810.747">Their leader, Biff, is accompanied by a </tspan><tspan x="14434.4" y="837.747">small group of loyal, corrupt convicts. </tspan><tspan x="14481.7" y="864.747">While the Hunters are technically </tspan><tspan x="14437" y="891.747">monitored by the empire, they have a </tspan><tspan x="14443.4" y="918.747">reputation for disregarding rules and </tspan><tspan x="14651.3" y="945.747">lacking discipline.</tspan></text><image x="14256" width="593" height="776" fill="url(#img1672562790149_pattern19)" xlink:href="/story/3-1/19.png"/><text fill="black" xml:space="preserve" style="white-space: pre" font-family="Charter" font-size="25" letter-spacing="0em"><tspan x="13902" y="87.7468">The Fidelian Empire considers </tspan><tspan x="13902" y="114.747">the Hunters to be an </tspan><tspan x="13902" y="141.747">invaluable part of their </tspan><tspan x="13902" y="168.747">military, and as such, they </tspan><tspan x="13902" y="195.747">regularly replenish their ranks </tspan><tspan x="13902" y="222.747">by selecting some of their </tspan><tspan x="13902" y="249.747">slaves to join the group.
</tspan><tspan x="13902" y="276.747">
</tspan><tspan x="13902" y="303.747">These missions are typically </tspan><tspan x="13902" y="330.747">dirty or brutal tasks that the </tspan><tspan x="13902" y="357.747">empire cannot openly </tspan><tspan x="13902" y="384.747">perform, such as hunting </tspan><tspan x="13902" y="411.747">down escaped slaves or </tspan><tspan x="13902" y="438.747">suppressing survivor </tspan><tspan x="13902" y="465.747">settlements that do not </tspan><tspan x="13902" y="492.747">comply with the empire&apos;s </tspan><tspan x="13902" y="519.747">orders. The Hunters rely on </tspan><tspan x="13902" y="546.747">the empire for almost all of </tspan><tspan x="13902" y="573.747">their funding and rarely </tspan><tspan x="13902" y="600.747">interact with other groups.</tspan></text><image x="13185" y="60" width="665" height="989" fill="url(#img1672562790149_pattern20)" xlink:href="/story/3-1/20.png"/><image x="12560" y="799" width="549" height="254" fill="url(#img1672562790149_pattern21)" xlink:href="/story/3-1/21.png"/><image x="12554" y="211" width="423" height="597" fill="url(#img1672562790149_pattern22)" xlink:href="/story/3-1/22.png"/><text fill="black" xml:space="preserve" style="white-space: pre" font-family="Charter" font-size="25" letter-spacing="0em"><tspan x="12558" y="92.7468">They receive almost all of their requests </tspan><tspan x="12558" y="119.747">from the empire and rely on them for </tspan><tspan x="12558" y="146.747">their operating funds, as they rarely </tspan><tspan x="12558" y="173.747">interact with other groups.</tspan></text><image x="11771" y="24" width="752" height="1044" fill="url(#img1672562790149_pattern23)" xlink:href="/story/3-1/23.png"/><image x="11391" y="571" width="308" height="482" fill="url(#img1672562790149_pattern24)" xlink:href="/story/3-1/24.png"/><text fill="black" xml:space="preserve" style="white-space: pre" font-family="Charter" font-size="25" letter-spacing="0em"><tspan x="11367" y="99.7468">Biff, the former slave camp&apos;s </tspan><tspan x="11367" y="126.747">mercenary commander, is a greedy </tspan><tspan x="11367" y="153.747">and cunning individual who was </tspan><tspan x="11367" y="180.747">previously enslaved by the empire. </tspan><tspan x="11367" y="207.747">However, due to his strength and </tspan><tspan x="11367" y="234.747">proper manners, the empire </tspan><tspan x="11367" y="261.747">recognized him and freed him, </tspan><tspan x="11367" y="288.747">giving him the task of leading the </tspan><tspan x="11367" y="315.747">Hunters.
</tspan><tspan x="11367" y="342.747">
</tspan><tspan x="11367" y="369.747">The Hunters are typically assigned </tspan><tspan x="11367" y="396.747">dirty and brutal missions that the </tspan><tspan x="11367" y="423.747">empire cannot openly perform, </tspan><tspan x="11367" y="450.747">such as hunting runaway enslaved </tspan><tspan x="11367" y="477.747">people and suppressing survivors&apos; </tspan><tspan x="11367" y="504.747">settlements that do not obey the </tspan><tspan x="11367" y="531.747">empire with minimal force.</tspan></text><image x="10688" y="852" width="575" height="199" fill="url(#img1672562790149_pattern25)" xlink:href="/story/3-1/25.png"/><image x="10946" y="77" width="295" height="389" fill="url(#img1672562790149_pattern26)" xlink:href="/story/3-1/15.png"/><text fill="black" xml:space="preserve" style="white-space: pre" font-family="Charter" font-size="25" letter-spacing="0em"><tspan x="10563" y="461.747">The Fidelian Empire is facing a </tspan><tspan x="10563" y="488.747">chronic shortage of troops as it </tspan><tspan x="10563" y="515.747">works to strengthen the </tspan><tspan x="10563" y="542.747">organization.
</tspan><tspan x="10563" y="569.747">
</tspan><tspan x="10563" y="596.747">With insufficient resources to </tspan><tspan x="10563" y="623.747">maintain and operate a regular </tspan><tspan x="10563" y="650.747">army, the empire has become </tspan><tspan x="10563" y="677.747">accustomed to hiring and using </tspan><tspan x="10563" y="704.747">understaffed soldiers.
</tspan><tspan x="10563" y="731.747">
</tspan><tspan x="10563" y="758.747">The Hunters are an exclusive </tspan><tspan x="10563" y="785.747">military group tasked with </tspan><tspan x="10563" y="812.747">relatively simple duties.</tspan></text><image x="9520" y="32" width="1012" height="1012" fill="url(#img1672562790149_pattern27)" xlink:href="/story/3-1/26.png"/><image x="9029" y="366" width="354" height="374" fill="url(#img1672562790149_pattern28)" xlink:href="/story/3-1/27.png"/><text fill="black" xml:space="preserve" style="white-space: pre" font-family="Charter" font-size="25" letter-spacing="0em"><tspan x="8954" y="693.747">Their weapons are mainly guns from the </tspan><tspan x="8954" y="720.747">pre-war era, which are obtained through </tspan><tspan x="8954" y="747.747">looting and procured by moving to and </tspan><tspan x="8954" y="774.747">from the desert. They are armed with these </tspan><tspan x="8954" y="801.747">weapons and have superior combat power </tspan><tspan x="8954" y="828.747">compared to other organizations.</tspan></text><image x="9254" y="49" width="163" height="168" fill="url(#img1672562790149_pattern29)" xlink:href="/story/3-1/28.png"/><image x="8174" y="245" width="732" height="686" fill="url(#img1672562790149_pattern30)" xlink:href="/story/3-1/29.png"/><image x="7662" y="440" width="571" height="240" fill="url(#img1672562790149_pattern31)" xlink:href="/story/3-1/30.png"/><text fill="black" xml:space="preserve" style="white-space: pre" font-family="Charter" font-size="25" letter-spacing="0em"><tspan x="7699" y="693.747">Jack&apos;N Boyz have a tendency to attack first, </tspan><tspan x="7699" y="720.747">believing that they will have the advantage in </tspan><tspan x="7699" y="747.747">victory. However, their fighting style is rarely </tspan><tspan x="7699" y="774.747">used in prolonged battles or against large </tspan><tspan x="7699" y="801.747">numbers of trained troops. Their victory </tspan><tspan x="7699" y="828.747">depends on being the first to spot the enemy </tspan><tspan x="7699" y="855.747">and the first to flee.</tspan></text><image x="7203" y="779" width="398" height="277" fill="url(#img1672562790149_pattern32)" xlink:href="/story/3-1/31.png"/><text fill="black" xml:space="preserve" style="white-space: pre" font-family="Charter" font-size="25" letter-spacing="0em"><tspan x="6689" y="659.747">Each member is assigned to a subordinate unit based on their roles in </tspan><tspan x="6689" y="686.747">combat, search, and procurement. Combat units receive preferential </tspan><tspan x="6689" y="713.747">treatment compared to non-combat units. While the cadres and units are </tspan><tspan x="6689" y="740.747">nominally divided, all decisions are virtually made by Jack Grey.</tspan></text><image x="5854" y="606" width="770" height="456" fill="url(#img1672562790149_pattern33)" xlink:href="/story/3-1/32.png"/><image x="6548" width="1107" height="605" fill="url(#img1672562790149_pattern34)" xlink:href="/story/3-1/33.png"/><image x="6116" y="121" width="425" height="460" fill="url(#img1672562790149_pattern35)" xlink:href="/story/3-1/34.png"/><text fill="black" xml:space="preserve" style="white-space: pre" font-family="Charter" font-size="25" letter-spacing="0em"><tspan x="5864" y="296.747">Jack&apos;N Boyz mostly live </tspan><tspan x="5864" y="323.747">in cars and motorcycles </tspan><tspan x="5864" y="350.747">and prefer to stay in one </tspan><tspan x="5864" y="377.747">place for short periods </tspan><tspan x="5864" y="404.747">of time.
</tspan><tspan x="5864" y="431.747">
</tspan><tspan x="5864" y="458.747">As a result, many of </tspan><tspan x="5864" y="485.747">them have converted </tspan><tspan x="5864" y="512.747">camping cars or buses </tspan><tspan x="5864" y="539.747">into temporary living </tspan><tspan x="5864" y="566.747">quarters.</tspan></text><image x="3969" width="1309" height="1080" fill="url(#img1672562790149_pattern36)" xlink:href="/story/3-1/35.png"/><image x="5277" width="538" height="1080" fill="url(#img1672562790149_pattern37)" xlink:href="/story/3-1/36.png"/><text fill="white" xml:space="preserve" style="white-space: pre" font-family="Charter" font-size="25" letter-spacing="0em"><tspan x="5008" y="87.7468">Their leader, Jack Grey, was the state sheriff of Dallas and had </tspan><tspan x="5008" y="114.747">a happy, harmonious family life after the war. His wife and </tspan><tspan x="5008" y="141.747">kids were the most important thing to him. However, his </tspan><tspan x="5008" y="168.747">happiness was short-lived when his family was tragically killed </tspan><tspan x="5008" y="195.747">by a violent gang.
</tspan><tspan x="5008" y="222.747">
</tspan><tspan x="5008" y="249.747">The overwhelming guilt over being unable to protect his </tspan><tspan x="5008" y="276.747">family transforms Jack into a different person.</tspan></text><text fill="white" xml:space="preserve" style="white-space: pre" font-family="Charter" font-size="25" letter-spacing="0em"><tspan x="4075" y="880.747">Mobility is a priority for Jack&apos;N Boyz, who ride </tspan><tspan x="4075" y="907.747">motorcycles and drive classic Mustang-like </tspan><tspan x="4075" y="934.747">muscle cars. They dress in long, dark coats and </tspan><tspan x="4075" y="961.747">hats, with small patterns hanging from their </tspan><tspan x="4075" y="988.747">hats or coats like pins.</tspan></text><image x="3173" y="476" width="757" height="604" fill="url(#img1672562790149_pattern38)" xlink:href="/story/3-1/37.png"/><image x="3624" y="19" width="282" height="340" fill="url(#img1672562790149_pattern39)" xlink:href="/story/3-1/38.png"/><text fill="black" xml:space="preserve" style="white-space: pre" font-family="Charter" font-size="25" letter-spacing="-0.02em"><tspan x="3201" y="237.747">The organization consists of </tspan><tspan x="3201" y="264.747">approximately 100 to 150 people, </tspan><tspan x="3201" y="291.747">including individuals of various </tspan><tspan x="3201" y="318.747">ethnicities, criminals, ex-military </tspan><tspan x="3201" y="345.747">personnel, and mercenaries between </tspan><tspan x="3201" y="372.747">the ages of 20 and 35. They aim to bury </tspan><tspan x="3201" y="399.747">their own free culture beneath their </tspan><tspan x="3201" y="426.747">weapons and past.</tspan></text><image x="2554" width="608" height="1080" fill="url(#img1672562790149_pattern40)" xlink:href="/story/3-1/39.png"/><text fill="white" xml:space="preserve" style="white-space: pre" font-family="Charter" font-size="25" letter-spacing="-0.02em"><tspan x="2633" y="797.747">Jack&apos;N Boyz is an organization of outlaws </tspan><tspan x="2633" y="824.747">led by the criminal Jack Grey, who </tspan><tspan x="2633" y="851.747">escaped from Fidelia&apos;s prison. Most of the </tspan><tspan x="2633" y="878.747">initial members are from the Fidelian </tspan><tspan x="2633" y="905.747">Empire and were sentenced to death </tspan><tspan x="2633" y="932.747">under the strict laws of the empire, but </tspan><tspan x="2633" y="959.747">escaped with Jack Grey while serving </tspan><tspan x="2633" y="986.747">their sentences.</tspan></text><image x="2139" y="748" width="374" height="290" fill="url(#img1672562790149_pattern41)" xlink:href="/story/3-1/40.png"/><image x="2154" y="63" width="339" height="349" fill="url(#img1672562790149_pattern42)" xlink:href="/story/3-1/28.png"/><text fill="black" xml:space="preserve" style="white-space: pre" font-family="Charter" font-size="25" letter-spacing="-0.02em"><tspan x="1014" y="928.747">Engine Houston is the first project to be pursued in our IP. With </tspan><tspan x="1014" y="955.747">your NFT as your identity and symbol of Township, we invite </tspan><tspan x="1014" y="982.747">you to a Free-to-play game where you can earn tokens for your </tspan><tspan x="1014" y="1009.75">accomplishments.</tspan></text><image x="1474" y="673" width="176" height="194" fill="url(#img1672562790149_pattern43)" xlink:href="/story/3-1/41.png"/><image x="1231" y="698" width="217" height="146" fill="url(#img1672562790149_pattern44)" xlink:href="/story/3-1/42.png"/><image x="1015" y="659" width="169" height="214" fill="url(#img1672562790149_pattern45)" xlink:href="/story/3-1/43.png"/><image x="1487" y="425" width="148" height="182" fill="url(#img1672562790149_pattern46)" xlink:href="/story/3-1/44.png"/><image x="1246" y="411" width="180" height="212" fill="url(#img1672562790149_pattern47)" xlink:href="/story/3-1/45.png"/><image x="1011" y="397" width="186" height="219" fill="url(#img1672562790149_pattern48)" xlink:href="/story/3-1/46.png"/><image x="1458" y="136" width="191" height="221" fill="url(#img1672562790149_pattern49)" xlink:href="/story/3-1/1.png"/><image x="1252" y="146" width="170" height="224" fill="url(#img1672562790149_pattern50)" xlink:href="/story/3-1/15.png"/><image x="993" y="146" width="213" height="220" fill="url(#img1672562790149_pattern51)" xlink:href="/story/3-1/28.png"/><path d="M891.5 0V1080" stroke="black"/><text fill="black" xml:space="preserve" style="white-space: pre" font-family="Helvetica Neue" font-size="45" letter-spacing="0em"><tspan x="0" y="1020.63">Scroll &amp; Drag.</tspan></text><image x="132" y="138" width="585" height="806" fill="url(#img1672562790149_pattern52)" xlink:href="/story/3-1/47.png"/><text fill="black" xml:space="preserve" style="white-space: pre" font-family="Helvetica Neue" font-size="45" letter-spacing="0em"><tspan x="0" y="79.6275">Harrier</tspan></text><defs><pattern id="img1672562790149_pattern0" patternContentUnits="objectBoundingBox" width="1" height="1"><use xlink:href="#image0_759_4" transform="translate(0 -0.00222936) scale(0.000283447 0.000245229)"/></pattern><pattern id="img1672562790149_pattern1" patternContentUnits="objectBoundingBox" width="1" height="1"><use xlink:href="#image1_759_4" transform="translate(-0.00277193) scale(0.000266299 0.000508388)"/></pattern><pattern id="img1672562790149_pattern2" patternContentUnits="objectBoundingBox" width="1" height="1"><use xlink:href="#image2_759_4" transform="scale(0.000685871 0.000692521)"/></pattern><pattern id="img1672562790149_pattern3" patternContentUnits="objectBoundingBox" width="1" height="1"><use xlink:href="#image3_759_4" transform="translate(0 -0.00091092) scale(0.000333333 0.000821839)"/></pattern><pattern id="img1672562790149_pattern4" patternContentUnits="objectBoundingBox" width="1" height="1"><use xlink:href="#image4_759_4" transform="translate(0 -0.00309117) scale(0.000260824 0.00080366)"/></pattern><pattern id="img1672562790149_pattern5" patternContentUnits="objectBoundingBox" width="1" height="1"><use xlink:href="#image5_759_4" transform="translate(-0.00048923) scale(0.000386329 0.000320307)"/></pattern><pattern id="img1672562790149_pattern6" patternContentUnits="objectBoundingBox" width="1" height="1"><use xlink:href="#image6_759_4" transform="translate(-0.00064344) scale(0.00114302 0.000847458)"/></pattern><pattern id="img1672562790149_pattern7" patternContentUnits="objectBoundingBox" width="1" height="1"><use xlink:href="#image7_759_4" transform="translate(-0.00153107) scale(0.000578467 0.000845309)"/></pattern><pattern id="img1672562790149_pattern8" patternContentUnits="objectBoundingBox" width="1" height="1"><use xlink:href="#image8_759_4" transform="translate(-0.000242206 -0.00648148) scale(0.000433861 0.000437477)"/></pattern><pattern id="img1672562790149_pattern9" patternContentUnits="objectBoundingBox" width="1" height="1"><use xlink:href="#image9_759_4" transform="scale(0.000244141 0.000431431)"/></pattern><pattern id="img1672562790149_pattern10" patternContentUnits="objectBoundingBox" width="1" height="1"><use xlink:href="#image10_759_4" transform="translate(0 -0.00833333) scale(0.000452899 0.000460866)"/></pattern><pattern id="img1672562790149_pattern11" patternContentUnits="objectBoundingBox" width="1" height="1"><use xlink:href="#image0_759_4" transform="translate(0 -0.000760011) scale(0.000283447 0.000244512)"/></pattern><pattern id="img1672562790149_pattern12" patternContentUnits="objectBoundingBox" width="1" height="1"><use xlink:href="#image11_759_4" transform="scale(0.000670241 0.000625782)"/></pattern><pattern id="img1672562790149_pattern13" patternContentUnits="objectBoundingBox" width="1" height="1"><use xlink:href="#image12_759_4" transform="translate(0 -0.00107602) scale(0.000438596 0.00145029)"/></pattern><pattern id="img1672562790149_pattern14" patternContentUnits="objectBoundingBox" width="1" height="1"><use xlink:href="#image13_759_4" transform="translate(-0.00312314) scale(0.000608739 0.000528262)"/></pattern><pattern id="img1672562790149_pattern15" patternContentUnits="objectBoundingBox" width="1" height="1"><use xlink:href="#image14_759_4" transform="translate(-0.00212966) scale(0.000323017 0.000244141)"/></pattern><pattern id="img1672562790149_pattern16" patternContentUnits="objectBoundingBox" width="1" height="1"><use xlink:href="#image15_759_4" transform="scale(0.000732064 0.000705219)"/></pattern><pattern id="img1672562790149_pattern17" patternContentUnits="objectBoundingBox" width="1" height="1"><use xlink:href="#image16_759_4" transform="translate(-0.000993775) scale(0.000333996 0.000747384)"/></pattern><pattern id="img1672562790149_pattern18" patternContentUnits="objectBoundingBox" width="1" height="1"><use xlink:href="#image17_759_4" transform="scale(0.00116009 0.00141243)"/></pattern><pattern id="img1672562790149_pattern19" patternContentUnits="objectBoundingBox" width="1" height="1"><use xlink:href="#image18_759_4" transform="translate(-0.000234872 -0.0064433) scale(0.000474606 0.000362682)"/></pattern><pattern id="img1672562790149_pattern20" patternContentUnits="objectBoundingBox" width="1" height="1"><use xlink:href="#image19_759_4" transform="translate(0 -0.00111636) scale(0.000363901 0.000244686)"/></pattern><pattern id="img1672562790149_pattern21" patternContentUnits="objectBoundingBox" width="1" height="1"><use xlink:href="#image20_759_4" transform="translate(-0.000244862) scale(0.000447446 0.000967118)"/></pattern><pattern id="img1672562790149_pattern22" patternContentUnits="objectBoundingBox" width="1" height="1"><use xlink:href="#image21_759_4" transform="translate(0 -0.000386548) scale(0.000545554 0.000386548)"/></pattern><pattern id="img1672562790149_pattern23" patternContentUnits="objectBoundingBox" width="1" height="1"><use xlink:href="#image22_759_4" transform="scale(0.000364478 0.000262536)"/></pattern><pattern id="img1672562790149_pattern24" patternContentUnits="objectBoundingBox" width="1" height="1"><use xlink:href="#image23_759_4" transform="scale(0.000666223 0.000425719)"/></pattern><pattern id="img1672562790149_pattern25" patternContentUnits="objectBoundingBox" width="1" height="1"><use xlink:href="#image24_759_4" transform="translate(-0.00104752) scale(0.000502303 0.00145138)"/></pattern><pattern id="img1672562790149_pattern26" patternContentUnits="objectBoundingBox" width="1" height="1"><use xlink:href="#image14_759_4" transform="translate(-0.000447315) scale(0.000321935 0.000244141)"/></pattern><pattern id="img1672562790149_pattern27" patternContentUnits="objectBoundingBox" width="1" height="1"><use xlink:href="#image25_759_4" transform="scale(0.000488281)"/></pattern><pattern id="img1672562790149_pattern28" patternContentUnits="objectBoundingBox" width="1" height="1"><use xlink:href="#image26_759_4" transform="scale(0.000710732 0.000672725)"/></pattern><pattern id="img1672562790149_pattern29" patternContentUnits="objectBoundingBox" width="1" height="1"><use xlink:href="#image27_759_4" transform="translate(0 -0.000894283) scale(0.00025208 0.000244577)"/></pattern><pattern id="img1672562790149_pattern30" patternContentUnits="objectBoundingBox" width="1" height="1"><use xlink:href="#image28_759_4" transform="scale(0.00068306 0.000728863)"/></pattern><pattern id="img1672562790149_pattern31" patternContentUnits="objectBoundingBox" width="1" height="1"><use xlink:href="#image29_759_4" transform="translate(-0.00203348) scale(0.000349971 0.000832639)"/></pattern><pattern id="img1672562790149_pattern32" patternContentUnits="objectBoundingBox" width="1" height="1"><use xlink:href="#image30_759_4" transform="translate(-0.000604186) scale(0.000737267 0.00105932)"/></pattern><pattern id="img1672562790149_pattern33" patternContentUnits="objectBoundingBox" width="1" height="1"><use xlink:href="#image31_759_4" transform="scale(0.000632911 0.00106873)"/></pattern><pattern id="img1672562790149_pattern34" patternContentUnits="objectBoundingBox" width="1" height="1"><use xlink:href="#image32_759_4" transform="translate(-8.10692e-05 -0.0495868) scale(0.000334279 0.000611647)"/></pattern><pattern id="img1672562790149_pattern35" patternContentUnits="objectBoundingBox" width="1" height="1"><use xlink:href="#image33_759_4" transform="translate(-0.000365499) scale(0.000574802 0.000531067)"/></pattern><pattern id="img1672562790149_pattern36" patternContentUnits="objectBoundingBox" width="1" height="1"><use xlink:href="#image34_759_4" transform="translate(0 -0.0833333) scale(0.000379363 0.000459802)"/></pattern><pattern id="img1672562790149_pattern37" patternContentUnits="objectBoundingBox" width="1" height="1"><use xlink:href="#image35_759_4" transform="translate(0 -0.0506974) scale(0.000536481 0.000267247)"/></pattern><pattern id="img1672562790149_pattern38" patternContentUnits="objectBoundingBox" width="1" height="1"><use xlink:href="#image36_759_4" transform="translate(0 -0.000574241) scale(0.00065814 0.000824855)"/></pattern><pattern id="img1672562790149_pattern39" patternContentUnits="objectBoundingBox" width="1" height="1"><use xlink:href="#image37_759_4" transform="translate(-0.000673869) scale(0.000751199 0.000623053)"/></pattern><pattern id="img1672562790149_pattern40" patternContentUnits="objectBoundingBox" width="1" height="1"><use xlink:href="#image38_759_4" transform="translate(0 -0.0259259) scale(0.000822368 0.000462963)"/></pattern><pattern id="img1672562790149_pattern41" patternContentUnits="objectBoundingBox" width="1" height="1"><use xlink:href="#image39_759_4" transform="translate(-0.00136374) scale(0.000778515 0.00100402)"/></pattern><pattern id="img1672562790149_pattern42" patternContentUnits="objectBoundingBox" width="1" height="1"><use xlink:href="#image27_759_4" transform="translate(0 -0.00146661) scale(0.00025208 0.000244857)"/></pattern><pattern id="img1672562790149_pattern43" patternContentUnits="objectBoundingBox" width="1" height="1"><use xlink:href="#image40_759_4" transform="translate(-0.00269664) scale(0.00026911 0.000244141)"/></pattern><pattern id="img1672562790149_pattern44" patternContentUnits="objectBoundingBox" width="1" height="1"><use xlink:href="#image41_759_4" transform="translate(0 -0.00130013) scale(0.000244141 0.000362867)"/></pattern><pattern id="img1672562790149_pattern45" patternContentUnits="objectBoundingBox" width="1" height="1"><use xlink:href="#image42_759_4" transform="translate(0 -0.00181377) scale(0.00031027 0.000245026)"/></pattern><pattern id="img1672562790149_pattern46" patternContentUnits="objectBoundingBox" width="1" height="1"><use xlink:href="#image43_759_4" transform="translate(-0.000778611) scale(0.000300227 0.000244141)"/></pattern><pattern id="img1672562790149_pattern47" patternContentUnits="objectBoundingBox" width="1" height="1"><use xlink:href="#image44_759_4" transform="translate(-0.000613064) scale(0.000287543 0.000244141)"/></pattern><pattern id="img1672562790149_pattern48" patternContentUnits="objectBoundingBox" width="1" height="1"><use xlink:href="#image45_759_4" transform="translate(-0.00117936) scale(0.000287456 0.000244141)"/></pattern><pattern id="img1672562790149_pattern49" patternContentUnits="objectBoundingBox" width="1" height="1"><use xlink:href="#image0_759_4" transform="translate(0 -0.00169812) scale(0.000283447 0.00024497)"/></pattern><pattern id="img1672562790149_pattern50" patternContentUnits="objectBoundingBox" width="1" height="1"><use xlink:href="#image14_759_4" transform="scale(0.000321691 0.000244141)"/></pattern><pattern id="img1672562790149_pattern51" patternContentUnits="objectBoundingBox" width="1" height="1"><use xlink:href="#image27_759_4" transform="scale(0.000252164 0.000244141)"/></pattern><pattern id="img1672562790149_pattern52" patternContentUnits="objectBoundingBox" width="1" height="1"><use xlink:href="#image46_759_4" transform="translate(0 -0.000319249) scale(0.000860585 0.000624618)"/></pattern><image id="image0_759_4" width="3528" height="4096" xlink:href="/story/3-1/1.png"/><image id="image1_759_4" width="3776" height="1967" xlink:href="/story/3-1/2.png"/><image id="image2_759_4" width="1458" height="1444" xlink:href="/story/3-1/3.png"/><image id="image3_759_4" width="3000" height="1219" xlink:href="/story/3-1/4.png"/><image id="image4_759_4" width="3834" height="1252" xlink:href="/story/3-1/5.png"/><image id="image5_759_4" width="2591" height="3122" xlink:href="/story/3-1/6.png"/><image id="image6_759_4" width="876" height="1180" xlink:href="/story/3-1/7.png"/><image id="image7_759_4" width="1734" height="1183" xlink:href="/story/3-1/8.png"/><image id="image8_759_4" width="2306" height="2307" xlink:href="/story/3-1/9.png"/><image id="image9_759_4" width="4096" height="2318" xlink:href="/story/3-1/10.png"/><image id="image10_759_4" width="2208" height="2208" xlink:href="/story/3-1/11.png"/><image id="image11_759_4" width="1492" height="1598" xlink:href="/story/3-1/12.png"/><image id="image12_759_4" width="2280" height="691" xlink:href="/story/3-1/13.png"/><image id="image13_759_4" width="1653" height="1893" xlink:href="/story/3-1/14.png"/><image id="image14_759_4" width="3109" height="4096" xlink:href="/story/3-1/15.png"/><image id="image15_759_4" width="1366" height="1418" xlink:href="/story/3-1/16.png"/><image id="image16_759_4" width="3000" height="1338" xlink:href="/story/3-1/17.png"/><image id="image17_759_4" width="862" height="708" xlink:href="/story/3-1/18.png"/><image id="image18_759_4" width="2108" height="2775" xlink:href="/story/3-1/19.png"/><image id="image19_759_4" width="2748" height="4096" xlink:href="/story/3-1/20.png"/><image id="image20_759_4" width="2236" height="1034" xlink:href="/story/3-1/21.png"/><image id="image21_759_4" width="1833" height="2589" xlink:href="/story/3-1/22.png"/><image id="image22_759_4" width="2744" height="3809" xlink:href="/story/3-1/23.png"/><image id="image23_759_4" width="1501" height="2350" xlink:href="/story/3-1/24.png"/><image id="image24_759_4" width="1995" height="689" xlink:href="/story/3-1/25.png"/><image id="image25_759_4" width="2048" height="2048" xlink:href="/story/3-1/26.png"/><image id="image26_759_4" width="1407" height="1487" xlink:href="/story/3-1/27.png"/><image id="image27_759_4" width="3967" height="4096" xlink:href="/story/3-1/28.png"/><image id="image28_759_4" width="1464" height="1372" xlink:href="/story/3-1/29.png"/><image id="image29_759_4" width="2869" height="1201" xlink:href="/story/3-1/30.png"/><image id="image30_759_4" width="1358" height="944" xlink:href="/story/3-1/31.png"/><image id="image31_759_4" width="1580" height="936" xlink:href="/story/3-1/32.png"/><image id="image32_759_4" width="2992" height="1716" xlink:href="/story/3-1/33.png"/><image id="image33_759_4" width="1741" height="1883" xlink:href="/story/3-1/34.png"/><image id="image34_759_4" width="2636" height="2636" xlink:href="/story/3-1/35.png"/><image id="image35_759_4" width="1864" height="4000" xlink:href="/story/3-1/36.png"/><image id="image36_759_4" width="1678" height="1290" xlink:href="/story/3-1/37.png"/><image id="image37_759_4" width="1333" height="1605" xlink:href="/story/3-1/38.png"/><image id="image38_759_4" width="1216" height="2302" xlink:href="/story/3-1/39.png"/><image id="image39_759_4" width="1288" height="996" xlink:href="/story/3-1/40.png"/><image id="image40_759_4" width="3736" height="4096" xlink:href="/story/3-1/41.png"/><image id="image41_759_4" width="4096" height="2763" xlink:href="/story/3-1/42.png"/><image id="image42_759_4" width="3223" height="4096" xlink:href="/story/3-1/43.png"/><image id="image43_759_4" width="3336" height="4096" xlink:href="/story/3-1/44.png"/><image id="image44_759_4" width="3482" height="4096" xlink:href="/story/3-1/45.png"/><image id="image45_759_4" width="3487" height="4096" xlink:href="/story/3-1/46.png"/><image id="image46_759_4" width="1162" height="1602" xlink:href="/story/3-1/47.png"/></defs></svg>