<svg width="26050" height="1080" viewBox="0 0 26050 1080" fill="none" xmlns="http://www.w3.org/2000/svg" xmlns:xlink="http://www.w3.org/1999/xlink">
<image x="25832" y="66" width="185" height="204" fill="url(#img1672753869386_pattern0)" xlink:href="/story/3-3/1.png" preserveAspectRatio="xMidYMid slice"/>
<text fill="black" xml:space="preserve" style="white-space: pre" font-family="NotoSerif-ExtraLight-KR" font-size="25" letter-spacing="-0.015em">
<tspan x="25535" y="716.747">쿼사즈는 제국 외부에서 강력한 티탄 무기를 만드
</tspan>
<tspan x="25535" y="743.747">는 데 필요한 도면과 지식을 가진 유일한 그룹이
</tspan>
<tspan x="25535" y="770.747">며, 각 세력들의 군사력을 체계적으로 모아 만들
</tspan>
<tspan x="25535" y="797.747">어진 “반 피델리아 세력 연방”으로, 사실상 피델
</tspan>
<tspan x="25535" y="824.747">리아에 저항할 수 있는 유일한 군대에 해당한다고
</tspan>
    <tspan x="25535" y="854.747">볼 수 있다.
</tspan></text>
<image x="25567" y="413" width="430" height="258" fill="url(#img1672753869386_pattern1)" xlink:href="/story/3-3/2.png" preserveAspectRatio="xMidYMid slice"/>
<image x="24832" y="262" width="671" height="661" fill="url(#img1672753869386_pattern2)" xlink:href="/story/3-3/3.png" preserveAspectRatio="xMidYMid slice"/>
<text fill="black" xml:space="preserve" style="white-space: pre" font-family="NotoSerif-ExtraLight-KR" font-size="25" letter-spacing="-0.015em">
<tspan x="24312" y="727.747">제국 출신 군인들이 다수 있는 만큼 전투 능력
</tspan>
<tspan x="24312" y="754.747">은 매우 우수하나 그들이 보유한 지식은 충분
</tspan>
<tspan x="24312" y="781.747">한 지원하에 힘을 발휘하는 제국 시절의 지식
</tspan>
<tspan x="24312" y="808.747">이기 때문에, 저항군이 된 현재는 소수정예 병
</tspan>
<tspan x="24312" y="835.747">력을 지휘하여 성과를 내는 데에는 다소 적응
</tspan>
<tspan x="24312" y="862.747">이 필요한 상태에 있다.
</tspan>
<tspan x="24312" y="916.747">쿼사즈의 전투 능력은 물론 제국에 맞상대할
</tspan>
<tspan x="24312" y="943.747">정도는 아니지만, 그것은 병사의 머릿수 부족
</tspan>
    <tspan x="24312" y="973.747">보다는 티탄즈와 같은 비대칭전력의 부족에
</tspan>
    <tspan x="24312" y="1003.747">기인하는 것으로, 티탄을 동원할 수 없는 국지
</tspan>
    <tspan x="24312" y="1033.747">전 등에서는 승리할 가능성도 충분히 있다.
</tspan>
</text>
<image x="24299" y="464" width="597" height="236" fill="url(#img1672753869386_pattern3)" xlink:href="/story/3-3/4.png" preserveAspectRatio="xMidYMid slice"/>
<image x="23267" y="453" width="975" height="562" fill="url(#img1672753869386_pattern4)" xlink:href="/story/3-3/5.png" preserveAspectRatio="xMidYMid slice"/>
<image x="23685" y="62" width="477" height="391" fill="url(#img1672753869386_pattern5)" xlink:href="/story/3-3/6.png" preserveAspectRatio="xMidYMid slice"/>
<image x="23244" y="238" width="306" height="256" fill="url(#img1672753869386_pattern6)" xlink:href="/story/3-3/7.png" preserveAspectRatio="xMidYMid slice"/>
<text fill="black" xml:space="preserve" style="white-space: pre" font-family="NotoSerif-ExtraLight-KR" font-size="25" letter-spacing="0.01em">
<tspan x="23263" y="103.747">쿼사즈에는 약 5천 명의 직업군인이 있
</tspan>
<tspan x="23263" y="130.747">지만, 직업군인 출신이 아닌 자들도 싸울
</tspan>
<tspan x="23263" y="157.747">수 있기 때문에 사실상 2만의 집단 전체
</tspan>
<tspan x="23263" y="184.747">가 저항군이라 볼 수 있다.
</tspan></text>
<image x="22593" y="18" width="604" height="1046" fill="url(#img1672753869386_pattern7)" xlink:href="/story/3-3/8.png" preserveAspectRatio="xMidYMid slice"/>
<image x="21330" y="706" width="1014" height="335" fill="url(#img1672753869386_pattern8)" xlink:href="/story/3-3/9.png" preserveAspectRatio="xMidYMid slice"/>
<text fill="black" xml:space="preserve" style="white-space: pre" font-family="NotoSerif-ExtraLight-KR" font-size="25" letter-spacing="0.01em">
<tspan x="20884" y="748.747">터너는 그가 이끌던 대대를 비롯해 새로
</tspan>
<tspan x="20884" y="775.747">이 제국에서 합류한 군인들, 그리고 그보
</tspan>
<tspan x="20884" y="802.747">다 많은 수의 민간인들을 이끌고 제국의
</tspan>
<tspan x="20884" y="829.747">손이 미치지 않는 서부로 이동하여 저항
</tspan>
<tspan x="20884" y="856.747">군의 거점을 마련하고 ‘쿼사즈’라는 이름
</tspan>
<tspan x="20884" y="883.747">으로 반 피델리아 제국의 기치를 올린다.
</tspan>
<tspan x="20884" y="910.747">이후 제국의 확장에 경계심을 느끼거나
</tspan>
<tspan x="20884" y="937.747">이미 제국의 칼에 피해를 입은 자들이 쿼
</tspan>
<tspan x="20884" y="964.747">사즈에 차례로 합류하여 집단의 크기는
</tspan>
<tspan x="20884" y="991.747">처음의 20배 이상 증가했으며, 계속 증가
</tspan>
    <tspan x="20884" y="1021.747">중에 있다.
</tspan></text>
<image x="20782" y="64" width="1608" height="639" fill="url(#img1672753869386_pattern9)" xlink:href="/story/3-3/10.png" preserveAspectRatio="xMidYMid slice"/>
<image x="18899" y="368" width="1873" height="712" fill="url(#img1672753869386_pattern10)" xlink:href="/story/3-3/11.png" preserveAspectRatio="xMidYMid slice"/>
<text fill="black" xml:space="preserve" style="white-space: pre" font-family="NotoSerif-ExtraLight-KR" font-size="25" letter-spacing="0em">
<tspan x="19978" y="180.747">쿼사즈는 피델리아 제국 출신 노장군 터너 코베인
</tspan>
<tspan x="19978" y="207.747">을 주축으로 제국에서 분리되어 나온 독립적인 조
</tspan>
<tspan x="19978" y="234.747">직이다.
</tspan></text>
<image x="19664" y="73" width="248" height="274" fill="url(#img1672753869386_pattern11)" xlink:href="/story/3-3/1.png" preserveAspectRatio="xMidYMid slice"/>
<text fill="black" xml:space="preserve" style="white-space: pre" font-family="NotoSerif-ExtraLight-KR" font-size="25" letter-spacing="0em">
<tspan x="18013" y="733.747">부득이하게 대규모의 무력을 필요로 할 경우, 게
</tspan>
<tspan x="18013" y="760.747">리는 제국 내외에 존재하는 연줄을 활용하여 다
</tspan>
<tspan x="18013" y="787.747">른 암살자 집단과 연계하여 연합작전을 펼치곤
</tspan>
<tspan x="18013" y="814.747">한다.
</tspan></text>
<image x="18091" y="324" width="261" height="369" fill="url(#img1672753869386_pattern12)" xlink:href="/story/3-3/12.png" preserveAspectRatio="xMidYMid slice"/>
<image x="18265" y="82" width="235" height="158" fill="url(#img1672753869386_pattern13)" xlink:href="/story/3-3/13.png" preserveAspectRatio="xMidYMid slice"/>
<image x="17280" y="192" width="721" height="730" fill="url(#img1672753869386_pattern14)" xlink:href="/story/3-3/14.png" preserveAspectRatio="xMidYMid slice"/>
<image x="16728" y="452" width="628" height="265" fill="url(#img1672753869386_pattern15)" xlink:href="/story/3-3/15.png" preserveAspectRatio="xMidYMid slice"/>
<text fill="black" xml:space="preserve" style="white-space: pre" font-family="NotoSerif-ExtraLight-KR" font-size="25" letter-spacing="0em">
<tspan x="16768" y="732.747">다만 이들이 지닌 무력은 어디까지나 비닉성을
</tspan>
<tspan x="16768" y="759.747">중시한 기습과 교란, 암살에 특화된 것으로서,
</tspan>
<tspan x="16768" y="786.747">초인적인 힘을 지닌 것도 아니므로 대규모 접전
</tspan>
<tspan x="16768" y="813.747">에는 적합하지 않다.

</tspan></text>
<image x="15942" y="312" width="677" height="731" fill="url(#img1672753869386_pattern16)" xlink:href="/story/3-3/16.png" preserveAspectRatio="xMidYMid slice"/>
<text fill="black" xml:space="preserve" style="white-space: pre" font-family="NotoSerif-ExtraLight-KR" font-size="25" letter-spacing="0em">
<tspan x="16244" y="137.747">바텐더 미사는 대대로 내려오는 가문의 암
</tspan>
<tspan x="16244" y="164.747">살 기술을 승계 해왔고, 사실상 라운지 내
</tspan>
<tspan x="16244" y="191.747">에서도 가장 실력 좋은 암살자로 인정받고
</tspan>
    <tspan x="16244" y="221.747">있다. 그녀의 최우선 목표는 그들의 리더
</tspan>
    <tspan x="16244" y="251.747">인 게리를, 모든 것을 걸고 지키는 것이다.
</tspan></text>
<text fill="black" xml:space="preserve" style="white-space: pre" font-family="NotoSerif-ExtraLight-KR" font-size="25" letter-spacing="0em">
<tspan x="15753" y="138.747">「마스터」 게리는 현역 시절에
</tspan>
<tspan x="15753" y="165.747">일당백의 실력을 지닌 용병이자
</tspan>
<tspan x="15753" y="192.747">암살자였으나, 은퇴한 지금 그만
</tspan>
<tspan x="15753" y="219.747">한 전투력을 지니고 있지는 않다.
</tspan>
<tspan x="15753" y="246.747">대신 그를 지키는 「바텐더」 미
</tspan>
<tspan x="15753" y="273.747">사가 그 전투기술을 일부 배웠고,
</tspan>
<tspan x="15753" y="300.747">뛰어난 재능으로 전성기의 그에
</tspan>
    <tspan x="15753" y="330.747">버금가는 실력을 지니고 있다.
</tspan></text>
<image x="15004" width="689" height="1080" fill="url(#img1672753869386_pattern17)" xlink:href="/story/3-3/17.png" preserveAspectRatio="xMidYMid slice"/>
<image x="14553" y="776" width="349" height="301" fill="url(#img1672753869386_pattern18)" xlink:href="/story/3-3/18.png" preserveAspectRatio="xMidYMid slice"/>
<text fill="black" xml:space="preserve" style="white-space: pre" font-family="NotoSerif-ExtraLight-KR" font-size="25" letter-spacing="0.01em">
<tspan x="13734" y="815.747">일단 대장은 게리 하덴베르그이지만, 라운지의 모든 직원은 한
</tspan>
<tspan x="13734" y="842.747">가족과 같은 연대를 이루고 있기 때문에 조직의 중대사가 되면
</tspan>
<tspan x="13734" y="869.747">각자 기탄없이 의견을 낼 수 있는 분위기가 갖춰져 있다.
</tspan>
</text>
<image x="13730" y="43" width="1203" height="726" fill="url(#img1672753869386_pattern19)" xlink:href="/story/3-3/19.png" preserveAspectRatio="xMidYMid slice"/>
<image x="13378" y="99" width="339" height="950" fill="url(#img1672753869386_pattern20)" xlink:href="/story/3-3/20.png" preserveAspectRatio="xMidYMid slice"/>
<text fill="black" xml:space="preserve" style="white-space: pre" font-family="NotoSerif-ExtraLight-KR" font-size="25" letter-spacing="0.01em">
<tspan x="13235" y="687.747">게리스라운지는 소
</tspan>
<tspan x="13235" y="714.747">수정예이기 때문에
</tspan>
<tspan x="13235" y="741.747">각각의 일원이 각
</tspan>
<tspan x="13235" y="768.747">자 주어진 직책을
</tspan>
<tspan x="13235" y="795.747">담당하며, 각각의
</tspan>
<tspan x="13235" y="822.747">직책에는 그에 따
</tspan>
    <tspan x="13235" y="852.747">른 역할분배가 이
</tspan>
    <tspan x="13235" y="882.747">루어져 있다.
</tspan></text>
<image x="13228" y="89" width="167" height="167" fill="url(#img1672753869386_pattern21)" xlink:href="/story/3-3/21.png" preserveAspectRatio="xMidYMid slice"/><path d="M13102.5 0V1080" stroke="black"/>
<text fill="black" xml:space="preserve" style="white-space: pre" font-family="NotoSerif-ExtraLight-KR" font-size="25" letter-spacing="0em">
<tspan x="12479" y="313.747">게리는 주기적으로 제국 내 상인들과 폭넓게 교류
</tspan>
<tspan x="12479" y="340.747">하고 있기 때문에 정보를 쉽게 얻을 수 있는 위치에 
</tspan>
<tspan x="12479" y="367.747">있다. 일반적인 정보는 이들 상인들을 통해 얻으
</tspan>
<tspan x="12479" y="394.747">며, ‘고급’ 정보는 제국 관료, 기업 대표, 군 간부 등
</tspan>
<tspan x="12479" y="421.747">특수한 인간들을 통해 얻는 경우가 많다.
</tspan>
<tspan x="12479" y="475.747">대개 이러한 정보들은 매우 비싸게 팔리기 때문에
</tspan>
<tspan x="12479" y="502.747">주점 운영에 어려움을 겪고 있지는 않으며, 열 명
</tspan>
<tspan x="12479" y="529.747">남짓한 점원들은 모두 게리가 개인적으로 알고 있
</tspan>
<tspan x="12479" y="556.747">는 프로 히트맨들이기 때문에 일반적인 방식으로
</tspan>
<tspan x="12479" y="583.747">는 고용인을 채용하거나 늘리지 않는다.
</tspan>
<tspan x="12479" y="637.747">사망, 혹은 다른 이유로 드물게 조직에 새로운 손
</tspan>
<tspan x="12479" y="664.747">이 필요할 경우, 게리는 사전에 철저히 준비된 정
</tspan>
<tspan x="12479" y="691.747">보를 바탕으로 ‘면접’을 실시하여 동료를 보충한다.
</tspan>
<tspan x="12479" y="745.747">또한 일단 입단하면 그 구성원은 마음대로 빠져나
</tspan>
<tspan x="12479" y="772.747">갈 수 없으며, 탈퇴는 극히 일부 특별한 경우에만
</tspan>
<tspan x="12479" y="799.747">가능하다.
</tspan></text>
<image x="12582" y="52" width="411" height="186" fill="url(#img1672753869386_pattern22)" xlink:href="/story/3-3/22.png" preserveAspectRatio="xMidYMid slice"/>
<image x="11168" width="1277" height="1080" fill="url(#img1672753869386_pattern23)" xlink:href="/story/3-3/23.png" preserveAspectRatio="xMidYMid slice"/>
<text fill="white" xml:space="preserve" style="white-space: pre" font-family="NotoSerif-ExtraLight-KR" font-size="25" letter-spacing="0em">
<tspan x="11561" y="681.747">게리스라운지에 대해 어느 정도 아는 사람들의 경
</tspan>
<tspan x="11561" y="708.747">우에도 정보상으로만 파악하는 경우가 많고, 암살
</tspan>
<tspan x="11561" y="735.747">임무에 대해서는 아는 이들이 적다.
</tspan></text>
<image x="9905" width="1112" height="1080" fill="url(#img1672753869386_pattern24)" xlink:href="/story/3-3/24.png" preserveAspectRatio="xMidYMid slice"/>
<text fill="black" xml:space="preserve" style="white-space: pre" font-family="NotoSerif-ExtraLight-KR" font-size="25" letter-spacing="0em">
<tspan x="9631.49" y="475.747">전직 ‘암살자’ 게리 하덴
</tspan>
<tspan x="9668.15" y="502.747">베르그가 차린 주점.  
</tspan>
<tspan x="9620.76" y="556.747">주점의 형태를 취하고 있
</tspan>
<tspan x="9615" y="583.747">고 실제로 영업도 하고 있
</tspan>
<tspan x="9612.67" y="610.747">지만, 주된 수익은 첩보와 
</tspan>
<tspan x="9620.56" y="637.747">정보 판매를 통해 얻는다. 
</tspan>
<tspan x="9625.61" y="691.747">여러 조직들을 중개하며 
</tspan>
<tspan x="9620.99" y="718.747">얻은 정보들을 팔아 돈을
</tspan>
<tspan x="9620" y="745.747">얻거나 의뢰를 받기도 하
</tspan>
<tspan x="9638.2" y="772.747">며, 극히 일부의 고객을
</tspan>
<tspan x="9620.82" y="799.747">상대로는 암살 임무도 수 
</tspan>
<tspan x="9753.93" y="826.747">행하고 있다. 
</tspan>
<tspan x="9877" y="988.747">&#10;
</tspan></text>
<image x="9307" y="158" width="332" height="223" fill="url(#img1672753869386_pattern25)" xlink:href="/story/3-3/13.png" preserveAspectRatio="xMidYMid slice"/>
<image x="7635" y="519" width="1360" height="412" fill="url(#img1672753869386_pattern26)" xlink:href="/story/3-3/25.png" preserveAspectRatio="xMidYMid slice"/>
<text fill="black" xml:space="preserve" style="white-space: pre" font-family="Helvetica" font-size="55" font-weight="bold" letter-spacing="0em">
<tspan x="7632" y="490.973">New beginnings
</tspan></text>
<image x="8132" y="103" width="360" height="386" fill="url(#img1672753869386_pattern27)" xlink:href="/story/3-3/26.png" preserveAspectRatio="xMidYMid slice"/>
<text fill="black" xml:space="preserve" style="white-space: pre" font-family="NotoSerif-ExtraLight-KR" font-size="25" letter-spacing="0em">
<tspan x="6765" y="680.747">그들의 군사력은 웬만한 전투력을 가진 베테랑
</tspan>
<tspan x="6765" y="707.747">들도 혀를 내두르게 할 정도이며, 혹자는 몇 천
</tspan>
<tspan x="6765" y="734.747">밖에 되지 않는 그들만으로도 피델리아 전체 
</tspan>
<tspan x="6765" y="761.747">군대의 절반을 상대할 수 있을 것이라고 예측 
</tspan>
<tspan x="6765" y="788.747">하기도 한다.
</tspan>
<tspan x="6765" y="815.747">&#10;
</tspan>
<tspan x="6765" y="842.747">킨은 풍족한 운영자금을 관리하여 무기를 넉넉 
</tspan>
<tspan x="6765" y="869.747">하게 확보하고 있고, 신입 용병과 베테랑 사이 
</tspan>
<tspan x="6765" y="896.747">에 너무 전투력 차이가 나지 않도록 공용 무기 
</tspan>
<tspan x="6765" y="923.747">를 지급하고 있다. 
</tspan></text>
<image x="6843" y="347" width="320" height="305" fill="url(#img1672753869386_pattern28)" xlink:href="/story/3-3/27.png" preserveAspectRatio="xMidYMid slice"/>
<image x="7057" y="50" width="167" height="212" fill="url(#img1672753869386_pattern29)" xlink:href="/story/3-3/28.png" preserveAspectRatio="xMidYMid slice"/>
<image x="6041" y="293" width="686" height="631" fill="url(#img1672753869386_pattern30)" xlink:href="/story/3-3/29.png" preserveAspectRatio="xMidYMid slice"/>
<text fill="black" xml:space="preserve" style="white-space: pre" font-family="NotoSerif-ExtraLight-KR" font-size="25" letter-spacing="0em">
<tspan x="5519" y="690.747">용병들이 사용할 무기는 각자 조달하는 것이 
</tspan>
<tspan x="5519" y="720.747">일종의 전후 시대의 철칙으로 통하고 있었지
</tspan>
<tspan x="5519" y="750.747">만, 현 코삭스는 피델리아의 지원을 적극적
</tspan>
<tspan x="5519" y="780.747">으로 받고 있기 때문에 그 부분에 있어서 어
</tspan>
<tspan x="5519" y="810.747">느 정도의 ‘복지’를 보장하고 있다. 그리고 기
</tspan>
<tspan x="5519" y="840.747">본적인 전투력이 가장 뛰어난 그들의 입장에
</tspan>
<tspan x="5519" y="870.747">서, 이러한 무력 지원의 아낌없는 조달은 사
</tspan>
<tspan x="5519" y="900.747">실상 그들을 현 모든 팩션을 통틀어 가장 강
</tspan>
<tspan x="5519" y="930.747">한 군대로 만들었다.
</tspan></text>
<image x="5492" y="432" width="556" height="229" fill="url(#img1672753869386_pattern31)" xlink:href="/story/3-3/30.png" preserveAspectRatio="xMidYMid slice"/>
<image x="5013" y="638" width="328" height="382" fill="url(#img1672753869386_pattern32)" xlink:href="/story/3-3/31.png" preserveAspectRatio="xMidYMid slice"/>
<image x="4999" y="315" width="423" height="349" fill="url(#img1672753869386_pattern33)" xlink:href="/story/3-3/32.png" preserveAspectRatio="xMidYMid slice"/>
<image x="4331" y="132" width="639" height="493" fill="url(#img1672753869386_pattern34)" xlink:href="/story/3-3/33.png" preserveAspectRatio="xMidYMid slice"/>
<text fill="black" xml:space="preserve" style="white-space: pre" font-family="NotoSerif-ExtraLight-KR" font-size="25" letter-spacing="0em">
<tspan x="4964" y="60.7468">또한 공통적으로, 설령 킨이나 백인대장이라 
</tspan>
<tspan x="4964" y="87.7468">해도 각 전투에서 의뢰를 한 고용주의 의사에
</tspan>
<tspan x="4964" y="114.747">정면으로 반대하는 식의 명령은 내릴 수 없 
</tspan>
<tspan x="4964" y="141.747">다. 용병으로서 신뢰는 생명에 직결되기 때문 
</tspan>
<tspan x="4964" y="168.747">이다.&#10;
</tspan></text>
<text fill="black" xml:space="preserve" style="white-space: pre" font-family="NotoSerif-ExtraLight-KR" font-size="25" letter-spacing="-0.03em">
<tspan x="4535" y="695.747">킨은 코삭스의 지도자로서 조직 내 세 
</tspan>
<tspan x="4535" y="722.747">개의 대대를 관리하며, 각 대대는 대략 
</tspan>
<tspan x="4535" y="749.747">50명의 병사와 대대장이라고 불리는 지 
</tspan>
<tspan x="4535" y="776.747">도자로 구성되어 있다.
 
</tspan>
<tspan x="4535" y="830.747">&#10;
</tspan>
<tspan x="4535" y="857.747">코삭스가 피델리아 제국으로부터 임무
</tspan>
<tspan x="4535" y="884.747">를 받으면, 킨은 대대들의 기술과 능력
</tspan>
<tspan x="4535" y="911.747">을 기반으로 각 대대에 작업을 할당한 
</tspan>
<tspan x="4535" y="938.747">다. 그다음 대대장들은 각 임무의 특수  
</tspan>
<tspan x="4535" y="965.747">요구사항을 평가하고 그에 맞는 전략을 
</tspan>
<tspan x="4535" y="992.747">개발한다. 
</tspan>
</text>
<image x="4240" y="481" width="262" height="435" fill="url(#img1672753869386_pattern35)" xlink:href="/story/3-3/34.png" preserveAspectRatio="xMidYMid slice"/>
<image x="3037" y="417" width="621" height="663" fill="url(#img1672753869386_pattern36)" xlink:href="/story/3-3/35.png" preserveAspectRatio="xMidYMid slice"/>
<image x="3617" y="176" width="594" height="904" fill="url(#img1672753869386_pattern37)" xlink:href="/story/3-3/36.png" preserveAspectRatio="xMidYMid slice"/>
<image x="2339" width="672" height="1080" fill="url(#img1672753869386_pattern38)" xlink:href="/story/3-3/37.png" preserveAspectRatio="xMidYMid slice"/>
<text fill="black" xml:space="preserve" style="white-space: pre" font-family="NotoSerif-ExtraLight-KR" font-size="25" letter-spacing="0em">
<tspan x="1823.81" y="708.747">다만 이러한 압도적인 전투력은 다른 이들로 하
</tspan>
<tspan x="1836.09" y="735.747">여금 거만하고 오만한 이미지로 받아들여지기
</tspan>
<tspan x="1845.26" y="762.747">도 하며, 실제로도 본인들보다 낮은 전투력을
</tspan>
<tspan x="1815.73" y="789.747">가진 이들에 대해 상당히 깔보는 듯한 태도를 보
</tspan>
<tspan x="1820.54" y="816.747">이기도 한다. 당연하게도 이러한 태도는 피델리
</tspan>
<tspan x="1833.74" y="843.747">아의 시민뿐만 아니라 피델리아 제국군에게도
</tspan>
<tspan x="2178" y="870.747">반감을 산다.
</tspan>
<tspan x="1836.16" y="897.747">&#10; 
</tspan>
<tspan x="1833.98" y="924.747">하지만 그들의 무력이 워낙 출중하다는 점, 딱
</tspan>
<tspan x="1818.52" y="951.747">히 사회적으로 물의가 되는 행위를 하지 않는다
</tspan>
<tspan x="1820.95" y="978.747">는 점, 그리고 제국의 악명높은 장군 '셀린'이 사
</tspan>
<tspan x="1818.8" y="1005.75">실상 코삭스 부대의 관리를 진행하고 있다는 점
</tspan>
<tspan x="1832.11" y="1032.75">때문에 피델리아 내부에서도 쉽게 드러내놓고
</tspan>
<tspan x="1922.11" y="1059.75">적대감을 보이지는 못하는 상황이다.
</tspan>
    <tspan x="1982.11" y="1089.75">
</tspan></text>
<image x="1889" width="424" height="665" fill="url(#img1672753869386_pattern39)" xlink:href="/story/3-3/38.png" preserveAspectRatio="xMidYMid slice"/>
<image x="712" width="1066" height="1080" fill="url(#img1672753869386_pattern40)" xlink:href="/story/3-3/39.png" preserveAspectRatio="xMidYMid slice"/>
<text fill="black" xml:space="preserve" style="white-space: pre" font-family="NotoSerif-ExtraLight-KR" font-size="25" letter-spacing="0em">
<tspan x="425.742" y="570.747">킨은 뿔뿔이 흩어져 있 
</tspan>
<tspan x="431.742" y="600.747">던 용병들을 규합하여
</tspan>
<tspan x="408.352" y="630.747">하나로 모이게 만들었으 
</tspan>
<tspan x="413.097" y="660.747">며, ‘코삭스’라는 타이틀
</tspan>
<tspan x="404.896" y="690.747">아래에 정체성을 확보할 
</tspan>
<tspan x="414.894" y="720.747">수 있도록 하였다. 여러 
</tspan>
<tspan x="405.622" y="750.747">용병부대의 규합으로 이 
</tspan>
<tspan x="422.821" y="780.747">루어진 단체인 만큼 저 
</tspan>
<tspan x="423.923" y="810.747">마다의 다른 사연이 있
</tspan>
<tspan x="415.979" y="840.747">고, 다른 지향점이 존재
</tspan>
<tspan x="415.979" y="870.747">한다. 이렇게 다양한 특
</tspan>
    <tspan x="415.979" y="900.747">징을 지닌 그들도 한 가
</tspan>
    <tspan x="420.979" y="930.747">지의 특징이 존재하니,
</tspan>
    <tspan x="405.979" y="960.747">그것은 그들의 전투력이
</tspan>
    <tspan x="418.979" y="990.747">가히 ‘압도적으로’ 강하
</tspan>
    <tspan x="529.979" y="1020.747">다는 것이다.
</tspan></text>
<text fill="black" xml:space="preserve" style="white-space: pre" font-family="NotoSerif-ExtraLight-KR" font-size="25" letter-spacing="0em">
<tspan x="370.045" y="90.747">근접 투술이나 사격술 등, 모
</tspan>
<tspan x="377.045" y="120.747">든 팩션을 통틀어 가장 강력 
</tspan>
<tspan x="377.045" y="150.747">한 전투 능력을 지닌 부대로
</tspan>
<tspan x="384.045" y="180.747">성에 걸맞은 부대의 이미지
</tspan>
<tspan x="368.045" y="210.747">를 유지하고 있는 편이다. 조 
</tspan>
<tspan x="390.045" y="240.747">직적으로 철저하게 교육된 
</tspan>
<tspan x="383.045" y="270.747">방식에 의해 그들은 외부에 
</tspan>
<tspan x="368.045" y="300.747">서 보기에 감정이 결여된, 냉 
</tspan>
<tspan x="390.045" y="330.747">정하고 차가운 용병부대의 
</tspan>
<tspan x="375.045" y="360.747">이미지를 갖고 있다. 평소에 
</tspan>
<tspan x="385.045" y="390.747">도 그다지 감정을 드러내는 
</tspan>
<tspan x="385.045" y="420.747">편이 아니지만 특히 본인들 
</tspan>
<tspan x="383.045" y="450.747">의 목표를 위해서라면 한없 
</tspan>
    <tspan x="375.045" y="480.747">이 기계적이고 단호하며, 자
</tspan>
    <tspan x="430.045" y="510.747">비심을 보이지 않는다.
</tspan></text>
<image y="854" width="313" height="170" fill="url(#img1672753869386_pattern41)" xlink:href="/story/3-3/40.png" preserveAspectRatio="xMidYMid slice"/>
<image x="35" y="98" width="255" height="323" fill="url(#img1672753869386_pattern42)" xlink:href="/story/3-3/28.png" preserveAspectRatio="xMidYMid slice"/><defs><pattern id="img1672753869386_pattern0" patternContentUnits="objectBoundingBox" width="1" height="1"><use xlink:href="#image0_761_6" transform="translate(-0.00289274) scale(0.000269215 0.000244141)"/></pattern><pattern id="img1672753869386_pattern1" patternContentUnits="objectBoundingBox" width="1" height="1"><use xlink:href="#image1_761_6" transform="translate(0 -0.00250684) scale(0.000455789 0.000759648)"/></pattern><pattern id="img1672753869386_pattern2" patternContentUnits="objectBoundingBox" width="1" height="1"><use xlink:href="#image2_761_6" transform="scale(0.000745156 0.00075643)"/></pattern><pattern id="img1672753869386_pattern3" patternContentUnits="objectBoundingBox" width="1" height="1"><use xlink:href="#image3_761_6" transform="translate(-0.00336573) scale(0.000335577 0.000848896)"/></pattern><pattern id="img1672753869386_pattern4" patternContentUnits="objectBoundingBox" width="1" height="1"><use xlink:href="#image4_761_6" transform="translate(-0.000385953) scale(0.000286344 0.000496771)"/></pattern><pattern id="img1672753869386_pattern5" patternContentUnits="objectBoundingBox" width="1" height="1"><use xlink:href="#image5_761_6" transform="scale(0.00059453 0.000725297)"/></pattern><pattern id="img1672753869386_pattern6" patternContentUnits="objectBoundingBox" width="1" height="1"><use xlink:href="#image6_761_6" transform="scale(0.000379525 0.000453651)"/></pattern><pattern id="img1672753869386_pattern7" patternContentUnits="objectBoundingBox" width="1" height="1"><use xlink:href="#image7_761_6" transform="scale(0.000827815 0.000478011)"/></pattern><pattern id="img1672753869386_pattern8" patternContentUnits="objectBoundingBox" width="1" height="1"><use xlink:href="#image8_761_6" transform="translate(-0.000761373) scale(0.0002971 0.000899281)"/></pattern><pattern id="img1672753869386_pattern9" patternContentUnits="objectBoundingBox" width="1" height="1"><use xlink:href="#image9_761_6" transform="scale(0.000310945 0.000782473)"/></pattern><pattern id="img1672753869386_pattern10" patternContentUnits="objectBoundingBox" width="1" height="1"><use xlink:href="#image10_761_6" transform="translate(0 -0.00123692) scale(0.000267523 0.00070375)"/></pattern><pattern id="img1672753869386_pattern11" patternContentUnits="objectBoundingBox" width="1" height="1"><use xlink:href="#image0_761_6" transform="translate(-0.00386687) scale(0.000269736 0.000244141)"/></pattern><pattern id="img1672753869386_pattern12" patternContentUnits="objectBoundingBox" width="1" height="1"><use xlink:href="#image11_761_6" transform="translate(-0.000748477) scale(0.00072206 0.000510725)"/></pattern><pattern id="img1672753869386_pattern13" patternContentUnits="objectBoundingBox" width="1" height="1"><use xlink:href="#image12_761_6" transform="translate(0 -0.00165104) scale(0.000244141 0.000363121)"/></pattern><pattern id="img1672753869386_pattern14" patternContentUnits="objectBoundingBox" width="1" height="1"><use xlink:href="#image13_761_6" transform="scale(0.000693481 0.000684932)"/></pattern><pattern id="img1672753869386_pattern15" patternContentUnits="objectBoundingBox" width="1" height="1"><use xlink:href="#image14_761_6" transform="translate(0 -0.00121509) scale(0.000333333 0.000789937)"/></pattern><pattern id="img1672753869386_pattern16" patternContentUnits="objectBoundingBox" width="1" height="1"><use xlink:href="#image15_761_6" transform="translate(-0.00116879) scale(0.000600202 0.000555864)"/></pattern><pattern id="img1672753869386_pattern17" patternContentUnits="objectBoundingBox" width="1" height="1"><use xlink:href="#image16_761_6" transform="translate(-6.32164e-05 -0.0194444) scale(0.00048668 0.000310484)"/></pattern><pattern id="img1672753869386_pattern18" patternContentUnits="objectBoundingBox" width="1" height="1"><use xlink:href="#image17_761_6" transform="translate(0 -0.000394399) scale(0.000636537 0.000738045)"/></pattern><pattern id="img1672753869386_pattern19" patternContentUnits="objectBoundingBox" width="1" height="1"><use xlink:href="#image18_761_6" transform="scale(0.000383656 0.000635728)"/></pattern><pattern id="img1672753869386_pattern20" patternContentUnits="objectBoundingBox" width="1" height="1"><use xlink:href="#image19_761_6" transform="scale(0.00147493 0.000526316)"/></pattern><pattern id="img1672753869386_pattern21" patternContentUnits="objectBoundingBox" width="1" height="1"><use xlink:href="#image20_761_6" transform="scale(0.000333333)"/></pattern><pattern id="img1672753869386_pattern22" patternContentUnits="objectBoundingBox" width="1" height="1"><use xlink:href="#image21_761_6" transform="translate(0 -0.00299236) scale(0.000877193 0.00193831)"/></pattern><pattern id="img1672753869386_pattern23" patternContentUnits="objectBoundingBox" width="1" height="1"><use xlink:href="#image22_761_6" transform="translate(-0.000576649 -0.0925926) scale(0.000388496 0.00045936)"/></pattern><pattern id="img1672753869386_pattern24" patternContentUnits="objectBoundingBox" width="1" height="1"><use xlink:href="#image23_761_6" transform="translate(0 -0.0138889) scale(0.000447628 0.000460891)"/></pattern><pattern id="img1672753869386_pattern25" patternContentUnits="objectBoundingBox" width="1" height="1"><use xlink:href="#image12_761_6" transform="translate(0 -0.00213924) scale(0.000244141 0.000363474)"/></pattern><pattern id="img1672753869386_pattern26" patternContentUnits="objectBoundingBox" width="1" height="1"><use xlink:href="#image24_761_6" transform="scale(0.000367647 0.00121359)"/></pattern><pattern id="img1672753869386_pattern27" patternContentUnits="objectBoundingBox" width="1" height="1"><use xlink:href="#image25_761_6" transform="scale(0.00107991 0.00100717)"/></pattern><pattern id="img1672753869386_pattern28" patternContentUnits="objectBoundingBox" width="1" height="1"><use xlink:href="#image26_761_6" transform="scale(0.000514369 0.000539665)"/></pattern><pattern id="img1672753869386_pattern29" patternContentUnits="objectBoundingBox" width="1" height="1"><use xlink:href="#image27_761_6" transform="translate(0 -0.000553217) scale(0.00031027 0.000244411)"/></pattern><pattern id="img1672753869386_pattern30" patternContentUnits="objectBoundingBox" width="1" height="1"><use xlink:href="#image28_761_6" transform="scale(0.000728863 0.000792393)"/></pattern><pattern id="img1672753869386_pattern31" patternContentUnits="objectBoundingBox" width="1" height="1"><use xlink:href="#image29_761_6" transform="translate(-0.000645552) scale(0.000381009 0.000925069)"/></pattern><pattern id="img1672753869386_pattern32" patternContentUnits="objectBoundingBox" width="1" height="1"><use xlink:href="#image30_761_6" transform="scale(0.000705716 0.000605955)"/></pattern><pattern id="img1672753869386_pattern33" patternContentUnits="objectBoundingBox" width="1" height="1"><use xlink:href="#image31_761_6" transform="translate(0 -0.00122283) scale(0.000615385 0.000745867)"/></pattern><pattern id="img1672753869386_pattern34" patternContentUnits="objectBoundingBox" width="1" height="1"><use xlink:href="#image32_761_6" transform="scale(0.000285325 0.000369822)"/></pattern><pattern id="img1672753869386_pattern35" patternContentUnits="objectBoundingBox" width="1" height="1"><use xlink:href="#image33_761_6" transform="translate(0 -0.00218375) scale(0.00133511 0.000804137)"/></pattern><pattern id="img1672753869386_pattern36" patternContentUnits="objectBoundingBox" width="1" height="1"><use xlink:href="#image34_761_6" transform="scale(0.000386431 0.000361951)"/></pattern><pattern id="img1672753869386_pattern37" patternContentUnits="objectBoundingBox" width="1" height="1"><use xlink:href="#image35_761_6" transform="translate(-0.000726203) scale(0.00064777 0.000425636)"/></pattern><pattern id="img1672753869386_pattern38" patternContentUnits="objectBoundingBox" width="1" height="1"><use xlink:href="#image36_761_6" transform="translate(0 -0.0300284) scale(0.000554939 0.000345295)"/></pattern><pattern id="img1672753869386_pattern39" patternContentUnits="objectBoundingBox" width="1" height="1"><use xlink:href="#image37_761_6" transform="translate(-0.000431579) scale(0.000808452 0.000515464)"/></pattern><pattern id="img1672753869386_pattern40" patternContentUnits="objectBoundingBox" width="1" height="1"><use xlink:href="#image38_761_6" transform="scale(0.000438212 0.000432526)"/></pattern><pattern id="img1672753869386_pattern41" patternContentUnits="objectBoundingBox" width="1" height="1"><use xlink:href="#image39_761_6" transform="translate(0 -0.000899188) scale(0.000673401 0.00123985)"/></pattern><pattern id="img1672753869386_pattern42" patternContentUnits="objectBoundingBox" width="1" height="1"><use xlink:href="#image27_761_6" transform="translate(0 -0.00165749) scale(0.00031027 0.00024495)"/></pattern>
<image id="image0_761_6" width="3736" height="4096" xlink:href="/story/3-3/1.png"/>
<image id="image1_761_6" width="2194" height="1323" xlink:href="/story/3-3/2.png"/>
<image id="image2_761_6" width="1342" height="1322" xlink:href="/story/3-3/3.png"/>
<image id="image3_761_6" width="3000" height="1178" xlink:href="/story/3-3/4.png"/>
<image id="image4_761_6" width="3495" height="2013" xlink:href="/story/3-3/5.png"/>
<image id="image5_761_6" width="1682" height="1379" xlink:href="/story/3-3/6.png"/>
<image id="image6_761_6" width="2636" height="2256" xlink:href="/story/3-3/7.png"/>
<image id="image7_761_6" width="1208" height="2092" xlink:href="/story/3-3/8.png"/>
<image id="image8_761_6" width="3371" height="1112" xlink:href="/story/3-3/9.png"/>
<image id="image9_761_6" width="3216" height="1278" xlink:href="/story/3-3/10.png"/>
<image id="image10_761_6" width="3738" height="1646" xlink:href="/story/3-3/11.png"/>
<image id="image11_761_6" width="1387" height="1958" xlink:href="/story/3-3/12.png"/>
<image id="image12_761_6" width="4096" height="2763" xlink:href="/story/3-3/13.png"/>
<image id="image13_761_6" width="1460" height="1460" xlink:href="/story/3-3/14.png"/>
<image id="image14_761_6" width="3000" height="1269" xlink:href="/story/3-3/15.png"/>
<image id="image15_761_6" width="1670" height="1799" xlink:href="/story/3-3/16.png"/>
<image id="image16_761_6" width="2055" height="3352" xlink:href="/story/3-3/17.png"/>
<image id="image17_761_6" width="1571" height="1356" xlink:href="/story/3-3/18.png"/>
<image id="image18_761_6" width="2607" height="1573" xlink:href="/story/3-3/19.png"/>
<image id="image19_761_6" width="678" height="1900" xlink:href="/story/3-3/20.png"/>
<image id="image20_761_6" width="3000" height="3000" xlink:href="/story/3-3/21.png"/>
<image id="image21_761_6" width="1140" height="519" xlink:href="/story/3-3/22.png"/>
<image id="image22_761_6" width="2577" height="2570" xlink:href="/story/3-3/23.png"/>
<image id="image23_761_6" width="2234" height="2234" xlink:href="/story/3-3/24.png"/>
<image id="image24_761_6" width="2720" height="824" xlink:href="/story/3-3/25.png"/>
<image id="image25_761_6" width="926" height="993" xlink:href="/story/3-3/26.png"/>
<image id="image26_761_6" width="1945" height="1853" xlink:href="/story/3-3/27.png"/>
<image id="image27_761_6" width="3223" height="4096" xlink:href="/story/3-3/28.png"/>
<image id="image28_761_6" width="1372" height="1262" xlink:href="/story/3-3/29.png"/>
<image id="image29_761_6" width="2628" height="1081" xlink:href="/story/3-3/30.png"/>
<image id="image30_761_6" width="1417" height="1651" xlink:href="/story/3-3/31.png"/>
<image id="image31_761_6" width="1625" height="1344" xlink:href="/story/3-3/32.png"/>
<image id="image32_761_6" width="3505" height="2704" xlink:href="/story/3-3/33.png"/>
<image id="image33_761_6" width="749" height="1249" xlink:href="/story/3-3/34.png"/>
<image id="image34_761_6" width="2589" height="3017" xlink:href="/story/3-3/35.png"/>
<image id="image35_761_6" width="1546" height="2404" xlink:href="/story/3-3/36.png"/>
<image id="image36_761_6" width="1802" height="3070" xlink:href="/story/3-3/37.png"/>
<image id="image37_761_6" width="1238" height="1940" xlink:href="/story/3-3/38.png"/>
<image id="image38_761_6" width="2312" height="2312" xlink:href="/story/3-3/39.png"/>
<image id="image39_761_6" width="1485" height="808" xlink:href="/story/3-3/40.png"/></defs></svg>