<svg width="25448" height="1202" viewBox="0 0 25448 1202" fill="none" xmlns="http://www.w3.org/2000/svg" xmlns:xlink="http://www.w3.org/1999/xlink"><rect x="25280" y="54" width="154" height="178" fill="url(#img1671272888172_pattern0)"/><text fill="black" xml:space="preserve" style="white-space: pre" font-family="Charter" font-size="25" letter-spacing="0em"><tspan x="24972" y="709.747">The Nine Fingers has a weak reputation </tspan><tspan x="24972" y="736.747">towards outsiders due to their notorious </tspan><tspan x="24972" y="763.747">hand-to-hand combat ability, but on the </tspan><tspan x="24972" y="790.747">battlefield they are considered powerful. </tspan><tspan x="24972" y="817.747">During combat they always stick with each </tspan><tspan x="24972" y="844.747">other till the last moment.</tspan></text><rect x="25001" y="457" width="441" height="231" fill="url(#img1671272888172_pattern1)"/><rect x="24219" y="211" width="729" height="722" fill="url(#img1671272888172_pattern2)"/><text fill="black" xml:space="preserve" style="white-space: pre" font-family="Charter" font-size="25" letter-spacing="0em"><tspan x="23734" y="706.747">The Nine Fingers are unfamiliar with using </tspan><tspan x="23734" y="733.747">firearms because these gladiators only used </tspan><tspan x="23734" y="760.747">swords, shields, and whips to protect </tspan><tspan x="23734" y="787.747">themselves while trapped in Fidelia’s </tspan><tspan x="23734" y="814.747">arena. As a result, they fight primarily in </tspan><tspan x="23734" y="841.747">surprise hand-to-hand combat to draw the </tspan><tspan x="23734" y="868.747">opponent into the hand-to-hand combat </tspan><tspan x="23734" y="895.747">battlefield.</tspan></text><rect x="23701" y="437" width="572" height="232" rx="84" fill="url(#img1671272888172_pattern3)"/><rect x="22486" y="724" width="1100" height="357" fill="url(#img1671272888172_pattern4)"/><rect x="23030" y="23" width="621" height="749" fill="url(#img1671272888172_pattern5)"/><rect x="22816" y="348" width="324" height="437" fill="url(#img1671272888172_pattern6)"/><rect x="22382" y="410" width="453" height="310" fill="url(#img1671272888172_pattern7)"/><text fill="black" xml:space="preserve" style="white-space: pre" font-family="Charter" font-size="25" letter-spacing="0em"><tspan x="22463" y="129.747">The Nine Fingers work as </tspan><tspan x="22463" y="156.747">mercenaries, stealing weapons and </tspan><tspan x="22463" y="183.747">receiving money, robbing survivors of </tspan><tspan x="22463" y="210.747">other groups by traveling back and </tspan><tspan x="22463" y="237.747">forth along rivers, catching fish for </tspan><tspan x="22463" y="264.747">food, and so on. They are not afraid </tspan><tspan x="22463" y="291.747">of risking their lives to secure </tspan><tspan x="22463" y="318.747">essential supplies such as food, water, </tspan><tspan x="22463" y="345.747">weapons, etc. They are willing to go </tspan><tspan x="22463" y="372.747">to any length to survive.</tspan></text><rect x="21292" y="13" width="1089" height="1080" fill="url(#img1671272888172_pattern8)"/><text fill="black" xml:space="preserve" style="white-space: pre" font-family="Charter" font-size="25" letter-spacing="0em"><tspan x="20754.4" y="870.747">Leopart the 3rd was the champion among the </tspan><tspan x="20669.8" y="897.747">gladiators for the longest time. Despite solidifying his </tspan><tspan x="20688.8" y="924.747">position as the strongest, he was convinced that the </tspan><tspan x="20664.8" y="951.747">empire would eventually force a generational change. </tspan><tspan x="20662.5" y="978.747">He fled the empire for freedom and joined forces with </tspan><tspan x="20676.9" y="1005.75">other slave fighters in the same arena. Destroyed the </tspan><tspan x="20819.1" y="1032.75">space and looted the empire’s weapons.</tspan></text><text fill="black" xml:space="preserve" style="white-space: pre" font-family="Charter" font-size="25" letter-spacing="0em"><tspan x="20061" y="867.747">The Fidelian Empire ran several arenas for </tspan><tspan x="20061" y="894.747">its noble class&apos; entertainment, and &apos;fighter </tspan><tspan x="20061" y="921.747">slaves&apos; were often called gladiators who </tspan><tspan x="20061" y="948.747">fought in these arenas. The gladiators had </tspan><tspan x="20061" y="975.747">the characteristics of both slaves and </tspan><tspan x="20061" y="1002.75">entertainers. They were treated like used </tspan><tspan x="20061" y="1029.75">merchandise that was consumed and </tspan><tspan x="20061" y="1056.75">vanished quickly.</tspan></text><rect x="20027" y="124" width="1237" height="700" fill="url(#img1671272888172_pattern9)"/><rect x="18902" y="13" width="1099" height="1080" fill="url(#img1671272888172_pattern10)"/><text fill="black" xml:space="preserve" style="white-space: pre" font-family="Charter" font-size="26" letter-spacing="0em"><tspan x="18482" y="771.617">The Nine Fingers indicates Leopart </tspan><tspan x="18482" y="799.617">the 3rd and 8 comrades who led </tspan><tspan x="18482" y="827.617">the process of fleeting the empire. </tspan><tspan x="18482" y="855.617">Nine Fingers is primarily consisted </tspan><tspan x="18482" y="883.617">of gladiators from Fidelian’s arena, </tspan><tspan x="18482" y="911.617">slave workers, and a few random </tspan><tspan x="18482" y="939.617">civilians who joined along the way.</tspan></text><rect x="18226" y="67" width="314" height="364" fill="url(#img1671272888172_pattern11)"/><rect x="16993" y="35" width="746" height="799" fill="url(#img1671272888172_pattern12)"/><rect x="16995" y="845" width="744" height="225" fill="url(#img1671272888172_pattern13)"/><text transform="translate(16909 1074) rotate(-90)" fill="black" xml:space="preserve" style="white-space: pre" font-family="Helvetica" font-size="67" font-weight="bold" letter-spacing="0em"><tspan x="0" y="59.613">New beginnings</tspan></text><text fill="black" xml:space="preserve" style="white-space: pre" font-family="Charter" font-size="25" letter-spacing="0em"><tspan x="16137" y="709.747">Biff was always concerned about betrayal, and </tspan><tspan x="16137" y="736.747">the empire didn&apos;t care who became the </tspan><tspan x="16137" y="763.747">Hunters&apos; leader, so he didn&apos;t try to train overly </tspan><tspan x="16137" y="790.747">strong subordinates. Given the nature of the </tspan><tspan x="16137" y="817.747">request that the commanding group accepts in </tspan><tspan x="16137" y="844.747">the first place, he is well aware that each </tspan><tspan x="16137" y="871.747">member&apos;s excessively high combat ability is </tspan><tspan x="16137" y="898.747">somewhat poisonous for himself.</tspan></text><rect x="16280" y="384" width="256" height="295" fill="url(#img1671272888172_pattern14)"/><rect x="16492" y="58" width="130" height="172" fill="url(#img1671272888172_pattern15)"/><rect x="15442" y="219" width="683" height="709" fill="url(#img1671272888172_pattern16)"/><rect x="14915" y="452" width="546" height="244" fill="url(#img1671272888172_pattern17)"/><text fill="black" xml:space="preserve" style="white-space: pre" font-family="Charter" font-size="25" letter-spacing="0em"><tspan x="14924" y="724.747">The average soldiers in the Hunters can </tspan><tspan x="14924" y="751.747">barely handle old-generation firearms. </tspan><tspan x="14924" y="778.747">However, they still need more support from </tspan><tspan x="14924" y="805.747">the empire. The truth is a few members </tspan><tspan x="14924" y="832.747">have more fighting power than others, </tspan><tspan x="14924" y="859.747">including Biff, and they take advantage of </tspan><tspan x="14924" y="886.747">corruption by being the gang&apos;s leader.</tspan></text><rect x="13880" y="681" width="431" height="354" fill="url(#img1671272888172_pattern18)"/><text fill="black" xml:space="preserve" style="white-space: pre" font-family="Charter" font-size="25" letter-spacing="0em"><tspan x="14411" y="823.747">Biff is the Hunters leader, and about ten </tspan><tspan x="14425.5" y="850.747">‘loyal corrupted convicts closely follow </tspan><tspan x="14441.6" y="877.747">him. Hunters is an empire-monitored </tspan><tspan x="14431" y="904.747">organization, so it cannot be called an </tspan><tspan x="14405.7" y="931.747">outlaw group. They have no intention of </tspan><tspan x="14484.6" y="958.747">following rules, and their level of </tspan><tspan x="14624.8" y="985.747">discipline is shallow.</tspan></text><rect x="14256" y="13" width="593" height="776" fill="url(#img1671272888172_pattern19)"/><text fill="black" xml:space="preserve" style="white-space: pre" font-family="Charter" font-size="25" letter-spacing="0em"><tspan x="13902" y="169.747">The Fidelian Empire selects </tspan><tspan x="13902" y="196.747">some of its slaves and sends </tspan><tspan x="13902" y="223.747">them to the Hunters as a </tspan><tspan x="13902" y="250.747">revival ceremony to replace </tspan><tspan x="13902" y="277.747">their troops regularly. This is </tspan><tspan x="13902" y="304.747">due to the empire’s view of </tspan><tspan x="13902" y="331.747">the Hunters as 
</tspan><tspan x="13902" y="358.747">indispensable.
</tspan><tspan x="13902" y="385.747">
</tspan><tspan x="13902" y="412.747">For operations that are likely </tspan><tspan x="13902" y="439.747">to be dangerous, material </tspan><tspan x="13902" y="466.747">support is provided most for </tspan><tspan x="13902" y="493.747">old-generation weapons and </tspan><tspan x="13902" y="520.747">exclusively not for Titans.</tspan></text><rect x="13185" y="73" width="665" height="989" fill="url(#img1671272888172_pattern20)"/><rect x="12560" y="812" width="549" height="254" fill="url(#img1671272888172_pattern21)"/><rect x="12554" y="224" width="423" height="597" fill="url(#img1671272888172_pattern22)"/><text fill="black" xml:space="preserve" style="white-space: pre" font-family="Charter" font-size="25" letter-spacing="0em"><tspan x="12558" y="105.747">They receive almost all requests from the </tspan><tspan x="12558" y="132.747">empire, and because they rarely interact </tspan><tspan x="12558" y="159.747">with other groups, their operating funds </tspan><tspan x="12558" y="186.747">depend entirely on the empire.</tspan></text><rect x="11771" y="37" width="752" height="1044" fill="url(#img1671272888172_pattern23)"/><rect x="11391" y="584" width="308" height="482" fill="url(#img1671272888172_pattern24)"/><text fill="black" xml:space="preserve" style="white-space: pre" font-family="Charter" font-size="25" letter-spacing="0em"><tspan x="11367" y="112.747">The former slave camp’s </tspan><tspan x="11367" y="139.747">mercenary commander, ‘Biff,’ is </tspan><tspan x="11367" y="166.747">greedy and cunning. The empire </tspan><tspan x="11367" y="193.747">previously enslaved him, but the </tspan><tspan x="11367" y="220.747">empire recognized him for his </tspan><tspan x="11367" y="247.747">strength and proper manners. He </tspan><tspan x="11367" y="274.747">was freed and given the task of </tspan><tspan x="11367" y="301.747">leading the Hunters.
</tspan><tspan x="11367" y="328.747">
</tspan><tspan x="11367" y="355.747">The missions assigned to the </tspan><tspan x="11367" y="382.747">Hunters are usually dirty and </tspan><tspan x="11367" y="409.747">brutal that the empire cannot </tspan><tspan x="11367" y="436.747">openly perform, primarily hunting </tspan><tspan x="11367" y="463.747">runaway enslaved people and </tspan><tspan x="11367" y="490.747">suppressing survivors’ settlements </tspan><tspan x="11367" y="517.747">that do not obey the empire with </tspan><tspan x="11367" y="544.747">little force.</tspan></text><rect x="10688" y="865" width="575" height="199" fill="url(#img1671272888172_pattern25)"/><rect x="10946" y="90" width="295" height="389" fill="url(#img1671272888172_pattern26)"/><text fill="black" xml:space="preserve" style="white-space: pre" font-family="Charter" font-size="25" letter-spacing="0em"><tspan x="10563" y="474.747">The Fidelian Empire is </tspan><tspan x="10563" y="501.747">experiencing a chronic shortage </tspan><tspan x="10563" y="528.747">of troops as it works to </tspan><tspan x="10563" y="555.747">strengthen the organization.
</tspan><tspan x="10563" y="582.747">
</tspan><tspan x="10563" y="609.747">The empire, which does not </tspan><tspan x="10563" y="636.747">have enough resources to </tspan><tspan x="10563" y="663.747">maintain and operate a regular </tspan><tspan x="10563" y="690.747">army, is accustomed to hiring </tspan><tspan x="10563" y="717.747">and using insufficient soldiers.
</tspan><tspan x="10563" y="744.747">
</tspan><tspan x="10563" y="771.747">The Hunters are an exclusive </tspan><tspan x="10563" y="798.747">military group dedicated to </tspan><tspan x="10563" y="825.747">relatively less complicated </tspan><tspan x="10563" y="852.747">chores.</tspan></text><rect x="9520" y="45" width="1012" height="1012" fill="url(#img1671272888172_pattern27)"/><rect x="9029" y="379" width="354" height="374" fill="url(#img1671272888172_pattern28)"/><text fill="black" xml:space="preserve" style="white-space: pre" font-family="Charter" font-size="25" letter-spacing="0em"><tspan x="8954" y="706.747">Their weapons are mainly guns from the </tspan><tspan x="8954" y="733.747">pre-war era. Although gunpowder and </tspan><tspan x="8954" y="760.747">bullets are obtained by looting, they are </tspan><tspan x="8954" y="787.747">often procured by themselves, specifically </tspan><tspan x="8954" y="814.747">by moving to and from the desert. They are </tspan><tspan x="8954" y="841.747">armed with such weapons and have </tspan><tspan x="8954" y="868.747">combat power superior to all </tspan><tspan x="8954" y="895.747">organizations.</tspan></text><rect x="9254" y="62" width="163" height="168" fill="url(#img1671272888172_pattern29)"/><rect x="8174" y="258" width="732" height="686" fill="url(#img1671272888172_pattern30)"/><rect x="7662" y="453" width="571" height="240" fill="url(#img1671272888172_pattern31)"/><text fill="black" xml:space="preserve" style="white-space: pre" font-family="Charter" font-size="25" letter-spacing="0em"><tspan x="7699" y="706.747">It’s their instinct to always attack first because </tspan><tspan x="7699" y="733.747">they believe that they will have the advantage </tspan><tspan x="7699" y="760.747">of winning. However, their fighting is rarely </tspan><tspan x="7699" y="787.747">used in protracted battles or battles against </tspan><tspan x="7699" y="814.747">large numbers of trained troops. Their victory </tspan><tspan x="7699" y="841.747">depends on being the first to spot the enemy </tspan><tspan x="7699" y="868.747">and the first to flee.</tspan></text><rect x="7203" y="792" width="398" height="277" fill="url(#img1671272888172_pattern32)"/><text fill="black" xml:space="preserve" style="white-space: pre" font-family="Charter" font-size="25" letter-spacing="0em"><tspan x="6689" y="672.747">Each member was assigned a subordinate unit according to combat, search, </tspan><tspan x="6689" y="699.747">and procurement roles. In addition, combat units receive preferential </tspan><tspan x="6689" y="726.747">treatment compared to non-combat units. Although nominally, the cadres </tspan><tspan x="6689" y="753.747">and units are divided, virtually all decisions are made by Jack Grey.</tspan></text><rect x="5854" y="619" width="770" height="456" fill="url(#img1671272888172_pattern33)"/><rect x="6548" y="13" width="1107" height="605" fill="url(#img1671272888172_pattern34)"/><rect x="6116" y="134" width="425" height="460" fill="url(#img1671272888172_pattern35)"/><text fill="black" xml:space="preserve" style="white-space: pre" font-family="Charter" font-size="25" letter-spacing="0em"><tspan x="5864" y="338.747">They mostly live in cars </tspan><tspan x="5864" y="365.747">and motorcycles and </tspan><tspan x="5864" y="392.747">prefer to stay in one </tspan><tspan x="5864" y="419.747">place for a short time. </tspan><tspan x="5864" y="446.747">As a result, the majority </tspan><tspan x="5864" y="473.747">of Jack’N Boyz has </tspan><tspan x="5864" y="500.747">converted camping cars </tspan><tspan x="5864" y="527.747">or buses into temporary </tspan><tspan x="5864" y="554.747">residence facilities.</tspan></text><rect x="3969" y="13" width="1309" height="1080" fill="url(#img1671272888172_pattern36)"/><rect x="5277" y="13" width="538" height="1080" fill="url(#img1671272888172_pattern37)"/><text fill="white" xml:space="preserve" style="white-space: pre" font-family="Charter" font-size="25" letter-spacing="0em"><tspan x="5008" y="100.747">Their leader, Jack Grey was the state sheriff of Dallas.
</tspan><tspan x="5008" y="127.747">He had a happy, harmonious family life after the war. His wife </tspan><tspan x="5008" y="154.747">and kids were more important to him than anything else. </tspan><tspan x="5008" y="181.747">However, the happiness of his life didn’t last long. One day he </tspan><tspan x="5008" y="208.747">tragically lost his family to a violent gang.
</tspan><tspan x="5008" y="235.747">
</tspan><tspan x="5008" y="262.747">Jack gradually transforms into a different person due to his </tspan><tspan x="5008" y="289.747">overwhelming guilt over being unable to protect his family.</tspan></text><text fill="white" xml:space="preserve" style="white-space: pre" font-family="Charter" font-size="25" letter-spacing="0em"><tspan x="4075" y="893.747">Mobility is a priority for Jack’N Boyz. They ride </tspan><tspan x="4075" y="920.747">motorcycles and drive classic Mustang-like </tspan><tspan x="4075" y="947.747">muscle cars. They dress in long, dark coats and </tspan><tspan x="4075" y="974.747">hats, and their small patterns hang from their </tspan><tspan x="4075" y="1001.75">hats or coats like pins.</tspan></text><rect x="3173" y="489" width="757" height="604" fill="url(#img1671272888172_pattern38)"/><rect x="3624" y="32" width="282" height="340" fill="url(#img1671272888172_pattern39)"/><text fill="black" xml:space="preserve" style="white-space: pre" font-family="Charter" font-size="25" letter-spacing="-0.02em"><tspan x="3201" y="263.747">Jack’N Boyz consists of about 100 to </tspan><tspan x="3201" y="290.747">150 people, including multi-ethnic </tspan><tspan x="3201" y="317.747">people, criminals, ex-military, and </tspan><tspan x="3201" y="344.747">mercenaries between the ages of 20 </tspan><tspan x="3201" y="371.747">and 35. Their own free culture is </tspan><tspan x="3201" y="398.747">intended to be buried beneath their </tspan><tspan x="3201" y="425.747">weapons and past.</tspan></text><rect x="2554" y="13" width="608" height="1080" fill="url(#img1671272888172_pattern40)"/><text fill="white" xml:space="preserve" style="white-space: pre" font-family="Charter" font-size="25" letter-spacing="-0.02em"><tspan x="2633" y="810.747">Jack’N Boyz is an organization of outlaws </tspan><tspan x="2633" y="837.747">led by criminal Jack Grey, who escaped </tspan><tspan x="2633" y="864.747">Fidelia’s Prison. Most of the initial </tspan><tspan x="2633" y="891.747">members are from the Fidelian Empire, </tspan><tspan x="2633" y="918.747">and they were sentenced to death under </tspan><tspan x="2633" y="945.747">the substantial laws of the Empire and </tspan><tspan x="2633" y="972.747">escaped with Jack Grey while serving </tspan><tspan x="2633" y="999.747">their sentences.</tspan></text><rect x="2139" y="761" width="374" height="290" fill="url(#img1671272888172_pattern41)"/><rect x="2154" y="76" width="339" height="349" fill="url(#img1671272888172_pattern42)"/><text fill="black" xml:space="preserve" style="white-space: pre" font-family="Charter" font-size="25" letter-spacing="-0.02em"><tspan x="1014" y="941.747">Engine Houston is the first project to be pursued in our IP. With </tspan><tspan x="1014" y="968.747">your NFT as your identity and symbol of Township, we invite </tspan><tspan x="1014" y="995.747">you to a Free-to-play game where you can earn tokens for your </tspan><tspan x="1014" y="1022.75">accomplishments.</tspan></text><rect x="1474" y="686" width="176" height="194" fill="url(#img1671272888172_pattern43)"/><rect x="1231" y="711" width="217" height="146" fill="url(#img1671272888172_pattern44)"/><rect x="1015" y="672" width="169" height="214" fill="url(#img1671272888172_pattern45)"/><rect x="1487" y="438" width="148" height="182" fill="url(#img1671272888172_pattern46)"/><rect x="1246" y="424" width="180" height="212" fill="url(#img1671272888172_pattern47)"/><rect x="1011" y="410" width="186" height="219" fill="url(#img1671272888172_pattern48)"/><rect x="1458" y="149" width="191" height="221" fill="url(#img1671272888172_pattern49)"/><rect x="1252" y="159" width="170" height="224" fill="url(#img1671272888172_pattern50)"/><rect x="993" y="159" width="213" height="220" fill="url(#img1671272888172_pattern51)"/><path d="M891.5 0.5V1202" stroke="black"/><text fill="black" xml:space="preserve" style="white-space: pre" font-family="Helvetica Neue" font-size="45" letter-spacing="0em"><tspan x="0" y="1033.63">Scroll &amp; Drag.</tspan></text><rect x="132" y="151" width="585" height="806" fill="url(#img1671272888172_pattern52)"/><text fill="black" xml:space="preserve" style="white-space: pre" font-family="Helvetica Neue" font-size="45" letter-spacing="0em"><tspan x="0" y="92.6275">Harrier</tspan></text><defs><pattern id="img1671272888172_pattern0" patternContentUnits="objectBoundingBox" width="1" height="1"><use xlink:href="#image0_759_4" transform="translate(0 -0.00222936) scale(0.000283447 0.000245229)"/></pattern><pattern id="img1671272888172_pattern1" patternContentUnits="objectBoundingBox" width="1" height="1"><use xlink:href="#image1_759_4" transform="translate(-0.00277193) scale(0.000266299 0.000508388)"/></pattern><pattern id="img1671272888172_pattern2" patternContentUnits="objectBoundingBox" width="1" height="1"><use xlink:href="#image2_759_4" transform="scale(0.000685871 0.000692521)"/></pattern><pattern id="img1671272888172_pattern3" patternContentUnits="objectBoundingBox" width="1" height="1"><use xlink:href="#image3_759_4" transform="translate(0 -0.00091092) scale(0.000333333 0.000821839)"/></pattern><pattern id="img1671272888172_pattern4" patternContentUnits="objectBoundingBox" width="1" height="1"><use xlink:href="#image4_759_4" transform="translate(0 -0.00309117) scale(0.000260824 0.00080366)"/></pattern><pattern id="img1671272888172_pattern5" patternContentUnits="objectBoundingBox" width="1" height="1"><use xlink:href="#image5_759_4" transform="translate(-0.00048923) scale(0.000386329 0.000320307)"/></pattern><pattern id="img1671272888172_pattern6" patternContentUnits="objectBoundingBox" width="1" height="1"><use xlink:href="#image6_759_4" transform="translate(-0.00064344) scale(0.00114302 0.000847458)"/></pattern><pattern id="img1671272888172_pattern7" patternContentUnits="objectBoundingBox" width="1" height="1"><use xlink:href="#image7_759_4" transform="translate(-0.00153107) scale(0.000578467 0.000845309)"/></pattern><pattern id="img1671272888172_pattern8" patternContentUnits="objectBoundingBox" width="1" height="1"><use xlink:href="#image8_759_4" transform="translate(-0.000242206 -0.00648148) scale(0.000433861 0.000437477)"/></pattern><pattern id="img1671272888172_pattern9" patternContentUnits="objectBoundingBox" width="1" height="1"><use xlink:href="#image9_759_4" transform="scale(0.000244141 0.000431431)"/></pattern><pattern id="img1671272888172_pattern10" patternContentUnits="objectBoundingBox" width="1" height="1"><use xlink:href="#image10_759_4" transform="translate(0 -0.00833333) scale(0.000452899 0.000460866)"/></pattern><pattern id="img1671272888172_pattern11" patternContentUnits="objectBoundingBox" width="1" height="1"><use xlink:href="#image0_759_4" transform="translate(0 -0.000760011) scale(0.000283447 0.000244512)"/></pattern><pattern id="img1671272888172_pattern12" patternContentUnits="objectBoundingBox" width="1" height="1"><use xlink:href="#image11_759_4" transform="scale(0.000670241 0.000625782)"/></pattern><pattern id="img1671272888172_pattern13" patternContentUnits="objectBoundingBox" width="1" height="1"><use xlink:href="#image12_759_4" transform="translate(0 -0.00107602) scale(0.000438596 0.00145029)"/></pattern><pattern id="img1671272888172_pattern14" patternContentUnits="objectBoundingBox" width="1" height="1"><use xlink:href="#image13_759_4" transform="translate(-0.00312314) scale(0.000608739 0.000528262)"/></pattern><pattern id="img1671272888172_pattern15" patternContentUnits="objectBoundingBox" width="1" height="1"><use xlink:href="#image14_759_4" transform="translate(-0.00212966) scale(0.000323017 0.000244141)"/></pattern><pattern id="img1671272888172_pattern16" patternContentUnits="objectBoundingBox" width="1" height="1"><use xlink:href="#image15_759_4" transform="scale(0.000732064 0.000705219)"/></pattern><pattern id="img1671272888172_pattern17" patternContentUnits="objectBoundingBox" width="1" height="1"><use xlink:href="#image16_759_4" transform="translate(-0.000993775) scale(0.000333996 0.000747384)"/></pattern><pattern id="img1671272888172_pattern18" patternContentUnits="objectBoundingBox" width="1" height="1"><use xlink:href="#image17_759_4" transform="scale(0.00116009 0.00141243)"/></pattern><pattern id="img1671272888172_pattern19" patternContentUnits="objectBoundingBox" width="1" height="1"><use xlink:href="#image18_759_4" transform="translate(-0.000234872 -0.0064433) scale(0.000474606 0.000362682)"/></pattern><pattern id="img1671272888172_pattern20" patternContentUnits="objectBoundingBox" width="1" height="1"><use xlink:href="#image19_759_4" transform="translate(0 -0.00111636) scale(0.000363901 0.000244686)"/></pattern><pattern id="img1671272888172_pattern21" patternContentUnits="objectBoundingBox" width="1" height="1"><use xlink:href="#image20_759_4" transform="translate(-0.000244862) scale(0.000447446 0.000967118)"/></pattern><pattern id="img1671272888172_pattern22" patternContentUnits="objectBoundingBox" width="1" height="1"><use xlink:href="#image21_759_4" transform="translate(0 -0.000386548) scale(0.000545554 0.000386548)"/></pattern><pattern id="img1671272888172_pattern23" patternContentUnits="objectBoundingBox" width="1" height="1"><use xlink:href="#image22_759_4" transform="scale(0.000364478 0.000262536)"/></pattern><pattern id="img1671272888172_pattern24" patternContentUnits="objectBoundingBox" width="1" height="1"><use xlink:href="#image23_759_4" transform="scale(0.000666223 0.000425719)"/></pattern><pattern id="img1671272888172_pattern25" patternContentUnits="objectBoundingBox" width="1" height="1"><use xlink:href="#image24_759_4" transform="translate(-0.00104752) scale(0.000502303 0.00145138)"/></pattern><pattern id="img1671272888172_pattern26" patternContentUnits="objectBoundingBox" width="1" height="1"><use xlink:href="#image14_759_4" transform="translate(-0.000447315) scale(0.000321935 0.000244141)"/></pattern><pattern id="img1671272888172_pattern27" patternContentUnits="objectBoundingBox" width="1" height="1"><use xlink:href="#image25_759_4" transform="scale(0.000488281)"/></pattern><pattern id="img1671272888172_pattern28" patternContentUnits="objectBoundingBox" width="1" height="1"><use xlink:href="#image26_759_4" transform="scale(0.000710732 0.000672725)"/></pattern><pattern id="img1671272888172_pattern29" patternContentUnits="objectBoundingBox" width="1" height="1"><use xlink:href="#image27_759_4" transform="translate(0 -0.000894283) scale(0.00025208 0.000244577)"/></pattern><pattern id="img1671272888172_pattern30" patternContentUnits="objectBoundingBox" width="1" height="1"><use xlink:href="#image28_759_4" transform="scale(0.00068306 0.000728863)"/></pattern><pattern id="img1671272888172_pattern31" patternContentUnits="objectBoundingBox" width="1" height="1"><use xlink:href="#image29_759_4" transform="translate(-0.00203348) scale(0.000349971 0.000832639)"/></pattern><pattern id="img1671272888172_pattern32" patternContentUnits="objectBoundingBox" width="1" height="1"><use xlink:href="#image30_759_4" transform="translate(-0.000604186) scale(0.000737267 0.00105932)"/></pattern><pattern id="img1671272888172_pattern33" patternContentUnits="objectBoundingBox" width="1" height="1"><use xlink:href="#image31_759_4" transform="scale(0.000632911 0.00106873)"/></pattern><pattern id="img1671272888172_pattern34" patternContentUnits="objectBoundingBox" width="1" height="1"><use xlink:href="#image32_759_4" transform="translate(-8.10692e-05 -0.0495868) scale(0.000334279 0.000611647)"/></pattern><pattern id="img1671272888172_pattern35" patternContentUnits="objectBoundingBox" width="1" height="1"><use xlink:href="#image33_759_4" transform="translate(-0.000365499) scale(0.000574802 0.000531067)"/></pattern><pattern id="img1671272888172_pattern36" patternContentUnits="objectBoundingBox" width="1" height="1"><use xlink:href="#image34_759_4" transform="translate(0 -0.0833333) scale(0.000379363 0.000459802)"/></pattern><pattern id="img1671272888172_pattern37" patternContentUnits="objectBoundingBox" width="1" height="1"><use xlink:href="#image35_759_4" transform="translate(0 -0.0506974) scale(0.000536481 0.000267247)"/></pattern><pattern id="img1671272888172_pattern38" patternContentUnits="objectBoundingBox" width="1" height="1"><use xlink:href="#image36_759_4" transform="translate(0 -0.000574241) scale(0.00065814 0.000824855)"/></pattern><pattern id="img1671272888172_pattern39" patternContentUnits="objectBoundingBox" width="1" height="1"><use xlink:href="#image37_759_4" transform="translate(-0.000673869) scale(0.000751199 0.000623053)"/></pattern><pattern id="img1671272888172_pattern40" patternContentUnits="objectBoundingBox" width="1" height="1"><use xlink:href="#image38_759_4" transform="translate(0 -0.0259259) scale(0.000822368 0.000462963)"/></pattern><pattern id="img1671272888172_pattern41" patternContentUnits="objectBoundingBox" width="1" height="1"><use xlink:href="#image39_759_4" transform="translate(-0.00136374) scale(0.000778515 0.00100402)"/></pattern><pattern id="img1671272888172_pattern42" patternContentUnits="objectBoundingBox" width="1" height="1"><use xlink:href="#image27_759_4" transform="translate(0 -0.00146661) scale(0.00025208 0.000244857)"/></pattern><pattern id="img1671272888172_pattern43" patternContentUnits="objectBoundingBox" width="1" height="1"><use xlink:href="#image40_759_4" transform="translate(-0.00269664) scale(0.00026911 0.000244141)"/></pattern><pattern id="img1671272888172_pattern44" patternContentUnits="objectBoundingBox" width="1" height="1"><use xlink:href="#image41_759_4" transform="translate(0 -0.00130013) scale(0.000244141 0.000362867)"/></pattern><pattern id="img1671272888172_pattern45" patternContentUnits="objectBoundingBox" width="1" height="1"><use xlink:href="#image42_759_4" transform="translate(0 -0.00181377) scale(0.00031027 0.000245026)"/></pattern><pattern id="img1671272888172_pattern46" patternContentUnits="objectBoundingBox" width="1" height="1"><use xlink:href="#image43_759_4" transform="translate(-0.000778611) scale(0.000300227 0.000244141)"/></pattern><pattern id="img1671272888172_pattern47" patternContentUnits="objectBoundingBox" width="1" height="1"><use xlink:href="#image44_759_4" transform="translate(-0.000613064) scale(0.000287543 0.000244141)"/></pattern><pattern id="img1671272888172_pattern48" patternContentUnits="objectBoundingBox" width="1" height="1"><use xlink:href="#image45_759_4" transform="translate(-0.00117936) scale(0.000287456 0.000244141)"/></pattern><pattern id="img1671272888172_pattern49" patternContentUnits="objectBoundingBox" width="1" height="1"><use xlink:href="#image0_759_4" transform="translate(0 -0.00169812) scale(0.000283447 0.00024497)"/></pattern><pattern id="img1671272888172_pattern50" patternContentUnits="objectBoundingBox" width="1" height="1"><use xlink:href="#image14_759_4" transform="scale(0.000321691 0.000244141)"/></pattern><pattern id="img1671272888172_pattern51" patternContentUnits="objectBoundingBox" width="1" height="1"><use xlink:href="#image27_759_4" transform="scale(0.000252164 0.000244141)"/></pattern><pattern id="img1671272888172_pattern52" patternContentUnits="objectBoundingBox" width="1" height="1"><use xlink:href="#image46_759_4" transform="translate(0 -0.000319249) scale(0.000860585 0.000624618)"/></pattern><image id="image0_759_4" width="3528" height="4096" xlink:href="/story/3-1/1.png"/><image id="image1_759_4" width="3776" height="1967" xlink:href="/story/3-1/2.png"/><image id="image2_759_4" width="1458" height="1444" xlink:href="/story/3-1/3.png"/><image id="image3_759_4" width="3000" height="1219" xlink:href="/story/3-1/4.png"/><image id="image4_759_4" width="3834" height="1252" xlink:href="/story/3-1/5.png"/><image id="image5_759_4" width="2591" height="3122" xlink:href="/story/3-1/6.png"/><image id="image6_759_4" width="876" height="1180" xlink:href="/story/3-1/7.png"/><image id="image7_759_4" width="1734" height="1183" xlink:href="/story/3-1/8.png"/><image id="image8_759_4" width="2306" height="2307" xlink:href="/story/3-1/9.png"/><image id="image9_759_4" width="4096" height="2318" xlink:href="/story/3-1/10.png"/><image id="image10_759_4" width="2208" height="2208" xlink:href="/story/3-1/11.png"/><image id="image11_759_4" width="1492" height="1598" xlink:href="/story/3-1/12.png"/><image id="image12_759_4" width="2280" height="691" xlink:href="/story/3-1/13.png"/><image id="image13_759_4" width="1653" height="1893" xlink:href="/story/3-1/14.png"/><image id="image14_759_4" width="3109" height="4096" xlink:href="/story/3-1/15.png"/><image id="image15_759_4" width="1366" height="1418" xlink:href="/story/3-1/16.png"/><image id="image16_759_4" width="3000" height="1338" xlink:href="/story/3-1/17.png"/><image id="image17_759_4" width="862" height="708" xlink:href="/story/3-1/18.png"/><image id="image18_759_4" width="2108" height="2775" xlink:href="/story/3-1/19.png"/><image id="image19_759_4" width="2748" height="4096" xlink:href="/story/3-1/20.png"/><image id="image20_759_4" width="2236" height="1034" xlink:href="/story/3-1/21.png"/><image id="image21_759_4" width="1833" height="2589" xlink:href="/story/3-1/22.png"/><image id="image22_759_4" width="2744" height="3809" xlink:href="/story/3-1/23.png"/><image id="image23_759_4" width="1501" height="2350" xlink:href="/story/3-1/24.png"/><image id="image24_759_4" width="1995" height="689" xlink:href="/story/3-1/25.png"/><image id="image25_759_4" width="2048" height="2048" xlink:href="/story/3-1/26.png"/><image id="image26_759_4" width="1407" height="1487" xlink:href="/story/3-1/27.png"/><image id="image27_759_4" width="3967" height="4096" xlink:href="/story/3-1/28.png"/><image id="image28_759_4" width="1464" height="1372" xlink:href="/story/3-1/29.png"/><image id="image29_759_4" width="2869" height="1201" xlink:href="/story/3-1/30.png"/><image id="image30_759_4" width="1358" height="944" xlink:href="/story/3-1/31.png"/><image id="image31_759_4" width="1580" height="936" xlink:href="/story/3-1/32.png"/><image id="image32_759_4" width="2992" height="1716" xlink:href="/story/3-1/33.png"/><image id="image33_759_4" width="1741" height="1883" xlink:href="/story/3-1/34.png"/><image id="image34_759_4" width="2636" height="2636" xlink:href="/story/3-1/35.png"/><image id="image35_759_4" width="1864" height="4000" xlink:href="/story/3-1/36.png"/><image id="image36_759_4" width="1678" height="1290" xlink:href="/story/3-1/37.png"/><image id="image37_759_4" width="1333" height="1605" xlink:href="/story/3-1/38.png"/><image id="image38_759_4" width="1216" height="2302" xlink:href="/story/3-1/39.png"/><image id="image39_759_4" width="1288" height="996" xlink:href="/story/3-1/40.png"/><image id="image40_759_4" width="3736" height="4096" xlink:href="/story/3-1/41.png"/><image id="image41_759_4" width="4096" height="2763" xlink:href="/story/3-1/42.png"/><image id="image42_759_4" width="3223" height="4096" xlink:href="/story/3-1/43.png"/><image id="image43_759_4" width="3336" height="4096" xlink:href="/story/3-1/44.png"/><image id="image44_759_4" width="3482" height="4096" xlink:href="/story/3-1/45.png"/><image id="image45_759_4" width="3487" height="4096" xlink:href="/story/3-1/46.png"/><image id="image46_759_4" width="1162" height="1602" xlink:href="/story/3-1/47.png"/></defs></svg>