<svg width="26050" height="1080" viewBox="0 0 26050 1080" fill="none" xmlns="http://www.w3.org/2000/svg" xmlns:xlink="http://www.w3.org/1999/xlink"><image x="25832" y="66" width="185" height="204" fill="url(#img1672562862144_pattern0)" xlink:href="/story/3-3/1.png"/><text fill="black" xml:space="preserve" style="white-space: pre" font-family="Charter" font-size="25" letter-spacing="-0.015em"><tspan x="25535" y="716.747">The Quasars are the only group outside of the </tspan><tspan x="25535" y="743.747">Empire that has the blueprint and knowledge </tspan><tspan x="25535" y="770.747">necessary to create the powerful Titan weapon. </tspan><tspan x="25535" y="797.747">This makes them the only group with a chance </tspan><tspan x="25535" y="824.747">of defeating the Empire in a long-term conflict.</tspan></text><image x="25567" y="413" width="430" height="258" fill="url(#img1672562862144_pattern1)" xlink:href="/story/3-3/2.png"/><image x="24832" y="262" width="671" height="661" fill="url(#img1672562862144_pattern2)" xlink:href="/story/3-3/3.png"/><text fill="black" xml:space="preserve" style="white-space: pre" font-family="Charter" font-size="25" letter-spacing="-0.015em"><tspan x="24312" y="727.747">Despite their impressive fighting ability, the </tspan><tspan x="24312" y="754.747">Quasars are not strong enough to stand up to </tspan><tspan x="24312" y="781.747">the Empire on their own, especially since the </tspan><tspan x="24312" y="808.747">Empire has access to the powerful Titan </tspan><tspan x="24312" y="835.747">weapon.
</tspan><tspan x="24312" y="862.747">
</tspan><tspan x="24312" y="889.747">However, the Quasars have a good chance of </tspan><tspan x="24312" y="916.747">winning against other battles if the Empire </tspan><tspan x="24312" y="943.747">does not have the Titan on the battlefield.</tspan></text><image x="24299" y="464" width="597" height="236" fill="url(#img1672562862144_pattern3)" xlink:href="/story/3-3/4.png"/><image x="23267" y="453" width="975" height="562" fill="url(#img1672562862144_pattern4)" xlink:href="/story/3-3/5.png"/><image x="23685" y="62" width="477" height="391" fill="url(#img1672562862144_pattern5)" xlink:href="/story/3-3/6.png"/><image x="23244" y="238" width="306" height="256" fill="url(#img1672562862144_pattern6)" xlink:href="/story/3-3/7.png"/><text fill="black" xml:space="preserve" style="white-space: pre" font-family="Charter" font-size="25" letter-spacing="0.01em"><tspan x="23263" y="103.747">The group consists of around 5,000 </tspan><tspan x="23263" y="130.747">professional soldiers, but the entire </tspan><tspan x="23263" y="157.747">group of 20,000, including non-</tspan><tspan x="23263" y="184.747">professional soldiers, can be </tspan><tspan x="23263" y="211.747">considered a resistance group.</tspan></text><image x="22593" y="18" width="604" height="1046" fill="url(#img1672562862144_pattern7)" xlink:href="/story/3-3/8.png"/><image x="21330" y="706" width="1014" height="335" fill="url(#img1672562862144_pattern8)" xlink:href="/story/3-3/9.png"/><text fill="black" xml:space="preserve" style="white-space: pre" font-family="Charter" font-size="25" letter-spacing="0.01em"><tspan x="20884" y="748.747">He led his army, along with newly </tspan><tspan x="20884" y="775.747">recruited Empire soldiers and civilians, </tspan><tspan x="20884" y="802.747">westward to establish a base for the </tspan><tspan x="20884" y="829.747">Quasars.
</tspan><tspan x="20884" y="856.747">
</tspan><tspan x="20884" y="883.747">Many people who are opposed to the </tspan><tspan x="20884" y="910.747">Empire&apos;s expansion or have been </tspan><tspan x="20884" y="937.747">harmed by the Empire have joined the </tspan><tspan x="20884" y="964.747">Quasars since its establishment. The </tspan><tspan x="20884" y="991.747">group is made up of rebels who are </tspan><tspan x="20884" y="1018.75">committed to fighting against the </tspan><tspan x="20884" y="1045.75">Empire.</tspan></text><image x="20782" y="64" width="1608" height="639" fill="url(#img1672562862144_pattern9)" xlink:href="/story/3-3/10.png"/><image x="18899" y="368" width="1873" height="712" fill="url(#img1672562862144_pattern10)" xlink:href="/story/3-3/11.png"/><text fill="black" xml:space="preserve" style="white-space: pre" font-family="Charter" font-size="25" letter-spacing="0em"><tspan x="19978" y="180.747">Turner Cobain, an old Fidelian Empire general, </tspan><tspan x="19978" y="207.747">became the leader of the resistance called </tspan><tspan x="19978" y="234.747">Quasars. The Quasars is an independent </tspan><tspan x="19978" y="261.747">organization that rebels against the Fidelian </tspan><tspan x="19978" y="288.747">Empire.</tspan></text><image x="19664" y="73" width="248" height="274" fill="url(#img1672562862144_pattern11)" xlink:href="/story/3-3/1.png"/><text fill="black" xml:space="preserve" style="white-space: pre" font-family="Charter" font-size="25" letter-spacing="0em"><tspan x="18013" y="733.747">Gary uses connections inside and outside the </tspan><tspan x="18013" y="760.747">Empire to team up with other assassin groups </tspan><tspan x="18013" y="787.747">for joint operations when a large-scale force is </tspan><tspan x="18013" y="814.747">unavoidably required.</tspan></text><image x="18091" y="324" width="261" height="369" fill="url(#img1672562862144_pattern12)" xlink:href="/story/3-3/12.png"/><image x="18265" y="82" width="235" height="158" fill="url(#img1672562862144_pattern13)" xlink:href="/story/3-3/13.png"/><image x="17280" y="192" width="721" height="730" fill="url(#img1672562862144_pattern14)" xlink:href="/story/3-3/14.png"/><image x="16728" y="452" width="628" height="265" fill="url(#img1672562862144_pattern15)" xlink:href="/story/3-3/15.png"/><text fill="black" xml:space="preserve" style="white-space: pre" font-family="Charter" font-size="25" letter-spacing="0em"><tspan x="16768" y="732.747">The lounge staff at Gary&apos;s establishment are </tspan><tspan x="16768" y="759.747">also professional killers with extensive combat </tspan><tspan x="16768" y="786.747">expertise, but they are better suited for covert </tspan><tspan x="16768" y="813.747">operations rather than large-scale conflicts.
</tspan></text><image x="15942" y="312" width="677" height="731" fill="url(#img1672562862144_pattern16)" xlink:href="/story/3-3/16.png"/><text fill="black" xml:space="preserve" style="white-space: pre" font-family="Charter" font-size="25" letter-spacing="0em"><tspan x="16244" y="137.747">Misa fiercely defends Gary at all times </tspan><tspan x="16244" y="164.747">and is highly skilled in killing techniques </tspan><tspan x="16244" y="191.747">that have been passed down in her </tspan><tspan x="16244" y="218.747">family for centuries</tspan></text><text fill="black" xml:space="preserve" style="white-space: pre" font-family="Charter" font-size="25" letter-spacing="0em"><tspan x="15753" y="138.747">Gary is a retired military </tspan><tspan x="15753" y="165.747">assassin and mercenary who is </tspan><tspan x="15753" y="192.747">no longer physically able to </tspan><tspan x="15753" y="219.747">fight. However, he is fortunate </tspan><tspan x="15753" y="246.747">to have Misa, a half-Japanese-</tspan><tspan x="15753" y="273.747">Caucasian bartender, as his </tspan><tspan x="15753" y="300.747">most trusted employee.</tspan></text><image x="15004" width="689" height="1080" fill="url(#img1672562862144_pattern17)" xlink:href="/story/3-3/17.png"/><image x="14553" y="776" width="349" height="301" fill="url(#img1672562862144_pattern18)" xlink:href="/story/3-3/18.png"/><text fill="black" xml:space="preserve" style="white-space: pre" font-family="Charter" font-size="25" letter-spacing="0.01em"><tspan x="13734" y="815.747">Despite Gary&apos;s position as the leader, the members of Gary&apos;s </tspan><tspan x="13734" y="842.747">Lounge are encouraged to speak their minds and express </tspan><tspan x="13734" y="869.747">their opinions without fear of repercussions as they advance </tspan><tspan x="13734" y="896.747">in the company.</tspan></text><image x="13730" y="43" width="1203" height="726" fill="url(#img1672562862144_pattern19)" xlink:href="/story/3-3/19.png"/><image x="13378" y="99" width="339" height="950" fill="url(#img1672562862144_pattern20)" xlink:href="/story/3-3/20.png"/><text fill="black" xml:space="preserve" style="white-space: pre" font-family="Charter" font-size="25" letter-spacing="0.01em"><tspan x="13235" y="687.747">Each member is </tspan><tspan x="13235" y="714.747">assigned a </tspan><tspan x="13235" y="741.747">specific position </tspan><tspan x="13235" y="768.747">within the </tspan><tspan x="13235" y="795.747">organization due </tspan><tspan x="13235" y="822.747">to its small size.</tspan></text><image x="13228" y="89" width="167" height="167" fill="url(#img1672562862144_pattern21)" xlink:href="/story/3-3/21.png"/><path d="M13102.5 0V1080" stroke="black"/><text fill="black" xml:space="preserve" style="white-space: pre" font-family="Charter" font-size="25" letter-spacing="0em"><tspan x="12479" y="313.747">Gary has extensive connections with empire-</tspan><tspan x="12479" y="340.747">wide traders, who provide him with access to </tspan><tspan x="12479" y="367.747">a wide range of information, including </tspan><tspan x="12479" y="394.747">advanced insights obtained from sources such </tspan><tspan x="12479" y="421.747">as imperial officials, corporate representatives, </tspan><tspan x="12479" y="448.747">and military officials.
</tspan><tspan x="12479" y="475.747">
</tspan><tspan x="12479" y="502.747">This valuable information is sold at a high </tspan><tspan x="12479" y="529.747">price, contributing to the financial success of </tspan><tspan x="12479" y="556.747">the pub.
</tspan><tspan x="12479" y="583.747">
</tspan><tspan x="12479" y="610.747">Gary has assembled a team of around ten </tspan><tspan x="12479" y="637.747">professional hitmen that he personally knows </tspan><tspan x="12479" y="664.747">and trusts. He is selective in his hiring process </tspan><tspan x="12479" y="691.747">and only brings on new recruits who can </tspan><tspan x="12479" y="718.747">handle the dangerous responsibilities and </tspan><tspan x="12479" y="745.747">roles required by the company.
</tspan><tspan x="12479" y="772.747">
</tspan><tspan x="12479" y="799.747">Once a member joins, they are not allowed to </tspan><tspan x="12479" y="826.747">leave unless under exceptional circumstances.</tspan></text><image x="12582" y="52" width="411" height="186" fill="url(#img1672562862144_pattern22)" xlink:href="/story/3-3/22.png"/><image x="11168" width="1277" height="1080" fill="url(#img1672562862144_pattern23)" xlink:href="/story/3-3/23.png"/><text fill="white" xml:space="preserve" style="white-space: pre" font-family="Charter" font-size="25" letter-spacing="0em"><tspan x="11561" y="681.747">Even when someone has knowledge of Gary’s </tspan><tspan x="11561" y="708.747">Lounge, they frequently only have a limited </tspan><tspan x="11561" y="735.747">understanding of it, and very few of them are </tspan><tspan x="11561" y="762.747">aware of the assassination plot.
</tspan></text><image x="9905" width="1112" height="1080" fill="url(#img1672562862144_pattern24)" xlink:href="/story/3-3/24.png"/><text fill="black" xml:space="preserve" style="white-space: pre" font-family="Charter" font-size="25" letter-spacing="0em"><tspan x="9631.49" y="475.747">Gary&apos;s Lounge is a pub </tspan><tspan x="9634.69" y="502.747">that was founded by a </tspan><tspan x="9628.17" y="529.747">former assassin named </tspan><tspan x="9676.85" y="556.747">Gary Haddenberg.
</tspan><tspan x="9877" y="583.747">
</tspan><tspan x="9618.21" y="610.747">While it appears to be a </tspan><tspan x="9654.98" y="637.747">typical pub, its main </tspan><tspan x="9616.72" y="664.747">source of income comes </tspan><tspan x="9705.74" y="691.747">from the sale of </tspan><tspan x="9703.05" y="718.747">intelligence and </tspan><tspan x="9740.99" y="745.747">information.
</tspan><tspan x="9877" y="772.747">
</tspan><tspan x="9704.2" y="799.747">The lounge also </tspan><tspan x="9646.82" y="826.747">occasionally takes on </tspan><tspan x="9634.93" y="853.747">assassination missions </tspan><tspan x="9652.85" y="880.747">for select clients and </tspan><tspan x="9680.08" y="907.747">mediates between </tspan><tspan x="9615.16" y="934.747">various organizations in </tspan><tspan x="9610.28" y="961.747">exchange for funds or to </tspan><tspan x="9714.62" y="988.747">fulfill requests.
</tspan></text><image x="9307" y="158" width="332" height="223" fill="url(#img1672562862144_pattern25)" xlink:href="/story/3-3/13.png"/><image x="7635" y="519" width="1360" height="412" fill="url(#img1672562862144_pattern26)" xlink:href="/story/3-3/25.png"/><text fill="black" xml:space="preserve" style="white-space: pre" font-family="Helvetica" font-size="55" font-weight="bold" letter-spacing="0em"><tspan x="7632" y="490.973">New beginnings</tspan></text><image x="8132" y="103" width="360" height="386" fill="url(#img1672562862144_pattern27)" xlink:href="/story/3-3/26.png"/><text fill="black" xml:space="preserve" style="white-space: pre" font-family="Charter" font-size="25" letter-spacing="0em"><tspan x="6765" y="680.747">The Kossacks are a formidable force, with </tspan><tspan x="6765" y="707.747">each individual possessing enough fighting </tspan><tspan x="6765" y="734.747">skill to intimidate even veteran soldiers. It is </tspan><tspan x="6765" y="761.747">estimated that only a few thousand would be </tspan><tspan x="6765" y="788.747">able to stand against half of Fidelia&apos;s entire </tspan><tspan x="6765" y="815.747">army. Kin, the leader of the mercenaries, has </tspan><tspan x="6765" y="842.747">ensured that all members have access to </tspan><tspan x="6765" y="869.747">adequate weapons through careful </tspan><tspan x="6765" y="896.747">management of operating funds. By </tspan><tspan x="6765" y="923.747">providing standard weapons to all members, </tspan><tspan x="6765" y="950.747">there is no significant difference in combat </tspan><tspan x="6765" y="977.747">power between new and veteran </tspan><tspan x="6765" y="1004.75">mercenaries.</tspan></text><image x="6843" y="347" width="320" height="305" fill="url(#img1672562862144_pattern28)" xlink:href="/story/3-3/27.png"/><image x="7057" y="50" width="167" height="212" fill="url(#img1672562862144_pattern29)" xlink:href="/story/3-3/28.png"/><image x="6041" y="293" width="686" height="631" fill="url(#img1672562862144_pattern30)" xlink:href="/story/3-3/29.png"/><text fill="black" xml:space="preserve" style="white-space: pre" font-family="Charter" font-size="25" letter-spacing="0em"><tspan x="5519" y="687.747">&quot;In the post-war era, it was crucial for </tspan><tspan x="5519" y="714.747">mercenaries to obtain their own weapons. </tspan><tspan x="5519" y="741.747">However, the Kossacks have been receiving </tspan><tspan x="5519" y="768.747">active support from Fidelia, which has </tspan><tspan x="5519" y="795.747">ensured a certain level of &apos;welfare&apos; in terms </tspan><tspan x="5519" y="822.747">of weapon procurement. This generous </tspan><tspan x="5519" y="849.747">military support, combined with their </tspan><tspan x="5519" y="876.747">already exceptional combat power, has </tspan><tspan x="5519" y="903.747">made the Kossacks the strongest army </tspan><tspan x="5519" y="930.747">among all current factions.</tspan></text><image x="5492" y="442" width="556" height="229" fill="url(#img1672562862144_pattern31)" xlink:href="/story/3-3/30.png"/><image x="5013" y="638" width="328" height="382" fill="url(#img1672562862144_pattern32)" xlink:href="/story/3-3/31.png"/><image x="4999" y="315" width="423" height="349" fill="url(#img1672562862144_pattern33)" xlink:href="/story/3-3/32.png"/><image x="4331" y="132" width="639" height="493" fill="url(#img1672562862144_pattern34)" xlink:href="/story/3-3/33.png"/><text fill="black" xml:space="preserve" style="white-space: pre" font-family="Charter" font-size="25" letter-spacing="0em"><tspan x="4964" y="60.7468">The trust of the employer is important </tspan><tspan x="4964" y="87.7468">for the Kossacks as mercenaries, as </tspan><tspan x="4964" y="114.747">their livelihood depends on it. </tspan><tspan x="4964" y="141.747">Therefore, they do not issue orders that </tspan><tspan x="4964" y="168.747">go against the wishes of the employer </tspan><tspan x="4964" y="195.747">who hired them for a particular battle.
</tspan><tspan x="4964" y="222.747">
</tspan><tspan x="4964" y="249.747">Both Kin, the commander, and the </tspan><tspan x="4964" y="276.747">officers in charge of the battalions </tspan><tspan x="4964" y="303.747">must adhere to this principle.</tspan></text><text fill="black" xml:space="preserve" style="white-space: pre" font-family="Charter" font-size="25" letter-spacing="-0.03em"><tspan x="4535" y="695.747">Kin is the leader of the Kossacks and is </tspan><tspan x="4535" y="722.747">responsible for managing the </tspan><tspan x="4535" y="749.747">organization&apos;s three battalions, each </tspan><tspan x="4535" y="776.747">comprising around 50 soldiers and a </tspan><tspan x="4535" y="803.747">leader known as a battalion officer.
</tspan><tspan x="4535" y="830.747">
</tspan><tspan x="4535" y="857.747">When the Kossacks receive a job from </tspan><tspan x="4535" y="884.747">the Fidelian Empire, Kin assigns tasks </tspan><tspan x="4535" y="911.747">to the appropriate battalions based on </tspan><tspan x="4535" y="938.747">their skills and abilities. The battalion </tspan><tspan x="4535" y="965.747">officers then assess the specific needs of </tspan><tspan x="4535" y="992.747">each mission and develop strategies </tspan><tspan x="4535" y="1019.75">accordingly.</tspan></text><image x="4240" y="481" width="262" height="435" fill="url(#img1672562862144_pattern35)" xlink:href="/story/3-3/34.png"/><image x="3037" y="417" width="621" height="663" fill="url(#img1672562862144_pattern36)" xlink:href="/story/3-3/35.png"/><image x="3617" y="176" width="594" height="904" fill="url(#img1672562862144_pattern37)" xlink:href="/story/3-3/36.png"/><image x="2339" width="672" height="1080" fill="url(#img1672562862144_pattern38)" xlink:href="/story/3-3/37.png"/><text fill="black" xml:space="preserve" style="white-space: pre" font-family="Charter" font-size="25" letter-spacing="0em"><tspan x="1823.81" y="708.747">They tend to be mechanical and ruthless in </tspan><tspan x="1873.47" y="735.747">achieving their goals and are currently </tspan><tspan x="1904.64" y="762.747">working exclusively for the Fidelian </tspan><tspan x="1839.39" y="789.747">Empire. Despite their reputation, they are </tspan><tspan x="1867.83" y="816.747">sometimes seen as arrogant, showing a </tspan><tspan x="1824.98" y="843.747">condescending attitude towards those with </tspan><tspan x="2061.46" y="870.747">lesser fighting power.
</tspan><tspan x="2294" y="897.747">
</tspan><tspan x="1836.16" y="924.747">Despite this, they are widely respected for </tspan><tspan x="1850.98" y="951.747">their impressive military capabilities and </tspan><tspan x="1842.8" y="978.747">tend to avoid social controversy. It can be </tspan><tspan x="1885.53" y="1005.75">difficult to show hostility towards the </tspan><tspan x="1828.47" y="1032.75">Kossacks, even within the Fidelian Empire.</tspan></text><image x="1889" width="424" height="665" fill="url(#img1672562862144_pattern39)" xlink:href="/story/3-3/38.png"/><image x="712" width="1066" height="1080" fill="url(#img1672562862144_pattern40)" xlink:href="/story/3-3/39.png"/><text fill="black" xml:space="preserve" style="white-space: pre" font-family="Charter" font-size="25" letter-spacing="0em"><tspan x="397.742" y="739.747">The Kossacks were formed </tspan><tspan x="411.316" y="766.747">when Kin Verlice brought </tspan><tspan x="387.171" y="793.747">together various mercenary </tspan><tspan x="341.297" y="820.747">groups and gave them a unified </tspan><tspan x="370.96" y="847.747">identity. Each unit within the </tspan><tspan x="419.593" y="874.747">organization has its own </tspan><tspan x="427.894" y="901.747">unique background and </tspan><tspan x="349.622" y="928.747">purpose, but they all share one </tspan><tspan x="378.821" y="955.747">defining characteristic: their </tspan><tspan x="507.923" y="982.747">combat ability is </tspan><tspan x="439.979" y="1009.75">“exceptionally” strong.</tspan></text><text fill="black" xml:space="preserve" style="white-space: pre" font-family="Charter" font-size="25" letter-spacing="0em"><tspan x="380.045" y="209.747">The Kossacks are known for </tspan><tspan x="436.661" y="236.747">their excellent fighting </tspan><tspan x="356.144" y="263.747">abilities, including proficiency </tspan><tspan x="455.729" y="290.747">in melee combat and </tspan><tspan x="396.207" y="317.747">marksmanship. They are a </tspan><tspan x="457.096" y="344.747">mercenary team that </tspan><tspan x="398.307" y="371.747">maintains a reputation for </tspan><tspan x="375.162" y="398.747">being cold and intimidating, </tspan><tspan x="386.783" y="425.747">with a systematic and well-</tspan><tspan x="389.591" y="452.747">educated approach to their </tspan><tspan x="378.922" y="479.747">tasks. They are not prone to </tspan><tspan x="396.549" y="506.747">showing emotions and are </tspan><tspan x="487.027" y="533.747">often described as </tspan><tspan x="388.688" y="560.747">mechanical, relentless, and </tspan><tspan x="401.139" y="587.747">ruthless in achieving their </tspan><tspan x="362.979" y="614.747">goals. Currently, the Kossacks </tspan><tspan x="389.64" y="641.747">are working exclusively for </tspan><tspan x="462.516" y="668.747">the Fidelian Empire.</tspan></text><image y="854" width="313" height="170" fill="url(#img1672562862144_pattern41)" xlink:href="/story/3-3/40.png"/><image x="35" y="98" width="255" height="323" fill="url(#img1672562862144_pattern42)" xlink:href="/story/3-3/28.png"/><defs><pattern id="img1672562862144_pattern0" patternContentUnits="objectBoundingBox" width="1" height="1"><use xlink:href="#image0_761_6" transform="translate(-0.00289274) scale(0.000269215 0.000244141)"/></pattern><pattern id="img1672562862144_pattern1" patternContentUnits="objectBoundingBox" width="1" height="1"><use xlink:href="#image1_761_6" transform="translate(0 -0.00250684) scale(0.000455789 0.000759648)"/></pattern><pattern id="img1672562862144_pattern2" patternContentUnits="objectBoundingBox" width="1" height="1"><use xlink:href="#image2_761_6" transform="scale(0.000745156 0.00075643)"/></pattern><pattern id="img1672562862144_pattern3" patternContentUnits="objectBoundingBox" width="1" height="1"><use xlink:href="#image3_761_6" transform="translate(-0.00336573) scale(0.000335577 0.000848896)"/></pattern><pattern id="img1672562862144_pattern4" patternContentUnits="objectBoundingBox" width="1" height="1"><use xlink:href="#image4_761_6" transform="translate(-0.000385953) scale(0.000286344 0.000496771)"/></pattern><pattern id="img1672562862144_pattern5" patternContentUnits="objectBoundingBox" width="1" height="1"><use xlink:href="#image5_761_6" transform="scale(0.00059453 0.000725297)"/></pattern><pattern id="img1672562862144_pattern6" patternContentUnits="objectBoundingBox" width="1" height="1"><use xlink:href="#image6_761_6" transform="scale(0.000379525 0.000453651)"/></pattern><pattern id="img1672562862144_pattern7" patternContentUnits="objectBoundingBox" width="1" height="1"><use xlink:href="#image7_761_6" transform="scale(0.000827815 0.000478011)"/></pattern><pattern id="img1672562862144_pattern8" patternContentUnits="objectBoundingBox" width="1" height="1"><use xlink:href="#image8_761_6" transform="translate(-0.000761373) scale(0.0002971 0.000899281)"/></pattern><pattern id="img1672562862144_pattern9" patternContentUnits="objectBoundingBox" width="1" height="1"><use xlink:href="#image9_761_6" transform="scale(0.000310945 0.000782473)"/></pattern><pattern id="img1672562862144_pattern10" patternContentUnits="objectBoundingBox" width="1" height="1"><use xlink:href="#image10_761_6" transform="translate(0 -0.00123692) scale(0.000267523 0.00070375)"/></pattern><pattern id="img1672562862144_pattern11" patternContentUnits="objectBoundingBox" width="1" height="1"><use xlink:href="#image0_761_6" transform="translate(-0.00386687) scale(0.000269736 0.000244141)"/></pattern><pattern id="img1672562862144_pattern12" patternContentUnits="objectBoundingBox" width="1" height="1"><use xlink:href="#image11_761_6" transform="translate(-0.000748477) scale(0.00072206 0.000510725)"/></pattern><pattern id="img1672562862144_pattern13" patternContentUnits="objectBoundingBox" width="1" height="1"><use xlink:href="#image12_761_6" transform="translate(0 -0.00165104) scale(0.000244141 0.000363121)"/></pattern><pattern id="img1672562862144_pattern14" patternContentUnits="objectBoundingBox" width="1" height="1"><use xlink:href="#image13_761_6" transform="scale(0.000693481 0.000684932)"/></pattern><pattern id="img1672562862144_pattern15" patternContentUnits="objectBoundingBox" width="1" height="1"><use xlink:href="#image14_761_6" transform="translate(0 -0.00121509) scale(0.000333333 0.000789937)"/></pattern><pattern id="img1672562862144_pattern16" patternContentUnits="objectBoundingBox" width="1" height="1"><use xlink:href="#image15_761_6" transform="translate(-0.00116879) scale(0.000600202 0.000555864)"/></pattern><pattern id="img1672562862144_pattern17" patternContentUnits="objectBoundingBox" width="1" height="1"><use xlink:href="#image16_761_6" transform="translate(-6.32164e-05 -0.0194444) scale(0.00048668 0.000310484)"/></pattern><pattern id="img1672562862144_pattern18" patternContentUnits="objectBoundingBox" width="1" height="1"><use xlink:href="#image17_761_6" transform="translate(0 -0.000394399) scale(0.000636537 0.000738045)"/></pattern><pattern id="img1672562862144_pattern19" patternContentUnits="objectBoundingBox" width="1" height="1"><use xlink:href="#image18_761_6" transform="scale(0.000383656 0.000635728)"/></pattern><pattern id="img1672562862144_pattern20" patternContentUnits="objectBoundingBox" width="1" height="1"><use xlink:href="#image19_761_6" transform="scale(0.00147493 0.000526316)"/></pattern><pattern id="img1672562862144_pattern21" patternContentUnits="objectBoundingBox" width="1" height="1"><use xlink:href="#image20_761_6" transform="scale(0.000333333)"/></pattern><pattern id="img1672562862144_pattern22" patternContentUnits="objectBoundingBox" width="1" height="1"><use xlink:href="#image21_761_6" transform="translate(0 -0.00299236) scale(0.000877193 0.00193831)"/></pattern><pattern id="img1672562862144_pattern23" patternContentUnits="objectBoundingBox" width="1" height="1"><use xlink:href="#image22_761_6" transform="translate(-0.000576649 -0.0925926) scale(0.000388496 0.00045936)"/></pattern><pattern id="img1672562862144_pattern24" patternContentUnits="objectBoundingBox" width="1" height="1"><use xlink:href="#image23_761_6" transform="translate(0 -0.0138889) scale(0.000447628 0.000460891)"/></pattern><pattern id="img1672562862144_pattern25" patternContentUnits="objectBoundingBox" width="1" height="1"><use xlink:href="#image12_761_6" transform="translate(0 -0.00213924) scale(0.000244141 0.000363474)"/></pattern><pattern id="img1672562862144_pattern26" patternContentUnits="objectBoundingBox" width="1" height="1"><use xlink:href="#image24_761_6" transform="scale(0.000367647 0.00121359)"/></pattern><pattern id="img1672562862144_pattern27" patternContentUnits="objectBoundingBox" width="1" height="1"><use xlink:href="#image25_761_6" transform="scale(0.00107991 0.00100717)"/></pattern><pattern id="img1672562862144_pattern28" patternContentUnits="objectBoundingBox" width="1" height="1"><use xlink:href="#image26_761_6" transform="scale(0.000514369 0.000539665)"/></pattern><pattern id="img1672562862144_pattern29" patternContentUnits="objectBoundingBox" width="1" height="1"><use xlink:href="#image27_761_6" transform="translate(0 -0.000553217) scale(0.00031027 0.000244411)"/></pattern><pattern id="img1672562862144_pattern30" patternContentUnits="objectBoundingBox" width="1" height="1"><use xlink:href="#image28_761_6" transform="scale(0.000728863 0.000792393)"/></pattern><pattern id="img1672562862144_pattern31" patternContentUnits="objectBoundingBox" width="1" height="1"><use xlink:href="#image29_761_6" transform="translate(-0.000645552) scale(0.000381009 0.000925069)"/></pattern><pattern id="img1672562862144_pattern32" patternContentUnits="objectBoundingBox" width="1" height="1"><use xlink:href="#image30_761_6" transform="scale(0.000705716 0.000605955)"/></pattern><pattern id="img1672562862144_pattern33" patternContentUnits="objectBoundingBox" width="1" height="1"><use xlink:href="#image31_761_6" transform="translate(0 -0.00122283) scale(0.000615385 0.000745867)"/></pattern><pattern id="img1672562862144_pattern34" patternContentUnits="objectBoundingBox" width="1" height="1"><use xlink:href="#image32_761_6" transform="scale(0.000285325 0.000369822)"/></pattern><pattern id="img1672562862144_pattern35" patternContentUnits="objectBoundingBox" width="1" height="1"><use xlink:href="#image33_761_6" transform="translate(0 -0.00218375) scale(0.00133511 0.000804137)"/></pattern><pattern id="img1672562862144_pattern36" patternContentUnits="objectBoundingBox" width="1" height="1"><use xlink:href="#image34_761_6" transform="scale(0.000386431 0.000361951)"/></pattern><pattern id="img1672562862144_pattern37" patternContentUnits="objectBoundingBox" width="1" height="1"><use xlink:href="#image35_761_6" transform="translate(-0.000726203) scale(0.00064777 0.000425636)"/></pattern><pattern id="img1672562862144_pattern38" patternContentUnits="objectBoundingBox" width="1" height="1"><use xlink:href="#image36_761_6" transform="translate(0 -0.0300284) scale(0.000554939 0.000345295)"/></pattern><pattern id="img1672562862144_pattern39" patternContentUnits="objectBoundingBox" width="1" height="1"><use xlink:href="#image37_761_6" transform="translate(-0.000431579) scale(0.000808452 0.000515464)"/></pattern><pattern id="img1672562862144_pattern40" patternContentUnits="objectBoundingBox" width="1" height="1"><use xlink:href="#image38_761_6" transform="scale(0.000438212 0.000432526)"/></pattern><pattern id="img1672562862144_pattern41" patternContentUnits="objectBoundingBox" width="1" height="1"><use xlink:href="#image39_761_6" transform="translate(0 -0.000899188) scale(0.000673401 0.00123985)"/></pattern><pattern id="img1672562862144_pattern42" patternContentUnits="objectBoundingBox" width="1" height="1"><use xlink:href="#image27_761_6" transform="translate(0 -0.00165749) scale(0.00031027 0.00024495)"/></pattern><image id="image0_761_6" width="3736" height="4096" xlink:href="/story/3-3/1.png"/><image id="image1_761_6" width="2194" height="1323" xlink:href="/story/3-3/2.png"/><image id="image2_761_6" width="1342" height="1322" xlink:href="/story/3-3/3.png"/><image id="image3_761_6" width="3000" height="1178" xlink:href="/story/3-3/4.png"/><image id="image4_761_6" width="3495" height="2013" xlink:href="/story/3-3/5.png"/><image id="image5_761_6" width="1682" height="1379" xlink:href="/story/3-3/6.png"/><image id="image6_761_6" width="2636" height="2256" xlink:href="/story/3-3/7.png"/><image id="image7_761_6" width="1208" height="2092" xlink:href="/story/3-3/8.png"/><image id="image8_761_6" width="3371" height="1112" xlink:href="/story/3-3/9.png"/><image id="image9_761_6" width="3216" height="1278" xlink:href="/story/3-3/10.png"/><image id="image10_761_6" width="3738" height="1646" xlink:href="/story/3-3/11.png"/><image id="image11_761_6" width="1387" height="1958" xlink:href="/story/3-3/12.png"/><image id="image12_761_6" width="4096" height="2763" xlink:href="/story/3-3/13.png"/><image id="image13_761_6" width="1460" height="1460" xlink:href="/story/3-3/14.png"/><image id="image14_761_6" width="3000" height="1269" xlink:href="/story/3-3/15.png"/><image id="image15_761_6" width="1670" height="1799" xlink:href="/story/3-3/16.png"/><image id="image16_761_6" width="2055" height="3352" xlink:href="/story/3-3/17.png"/><image id="image17_761_6" width="1571" height="1356" xlink:href="/story/3-3/18.png"/><image id="image18_761_6" width="2607" height="1573" xlink:href="/story/3-3/19.png"/><image id="image19_761_6" width="678" height="1900" xlink:href="/story/3-3/20.png"/><image id="image20_761_6" width="3000" height="3000" xlink:href="/story/3-3/21.png"/><image id="image21_761_6" width="1140" height="519" xlink:href="/story/3-3/22.png"/><image id="image22_761_6" width="2577" height="2570" xlink:href="/story/3-3/23.png"/><image id="image23_761_6" width="2234" height="2234" xlink:href="/story/3-3/24.png"/><image id="image24_761_6" width="2720" height="824" xlink:href="/story/3-3/25.png"/><image id="image25_761_6" width="926" height="993" xlink:href="/story/3-3/26.png"/><image id="image26_761_6" width="1945" height="1853" xlink:href="/story/3-3/27.png"/><image id="image27_761_6" width="3223" height="4096" xlink:href="/story/3-3/28.png"/><image id="image28_761_6" width="1372" height="1262" xlink:href="/story/3-3/29.png"/><image id="image29_761_6" width="2628" height="1081" xlink:href="/story/3-3/30.png"/><image id="image30_761_6" width="1417" height="1651" xlink:href="/story/3-3/31.png"/><image id="image31_761_6" width="1625" height="1344" xlink:href="/story/3-3/32.png"/><image id="image32_761_6" width="3505" height="2704" xlink:href="/story/3-3/33.png"/><image id="image33_761_6" width="749" height="1249" xlink:href="/story/3-3/34.png"/><image id="image34_761_6" width="2589" height="3017" xlink:href="/story/3-3/35.png"/><image id="image35_761_6" width="1546" height="2404" xlink:href="/story/3-3/36.png"/><image id="image36_761_6" width="1802" height="3070" xlink:href="/story/3-3/37.png"/><image id="image37_761_6" width="1238" height="1940" xlink:href="/story/3-3/38.png"/><image id="image38_761_6" width="2312" height="2312" xlink:href="/story/3-3/39.png"/><image id="image39_761_6" width="1485" height="808" xlink:href="/story/3-3/40.png"/></defs></svg>