<svg width="1920" height="1080" viewBox="0 0 1920 1080" fill="none" xmlns="http://www.w3.org/2000/svg" xmlns:xlink="http://www.w3.org/1999/xlink"><rect width="1920" height="1080" fill="black"/><image x="281" y="521" width="1360" height="412" fill="url(#img1672500122631_pattern0)" xlink:href="/story/main/1.png"/><image x="774" y="106" width="365" height="388" fill="url(#img1672500122631_pattern1)" xlink:href="/story/main/2.png"/><path d="M308.252 485H300.883L286.479 459.95V485H279.613V449.733H287.341L301.385 474.353V449.733H308.252V485ZM336.915 477.344C336.74 478.891 335.934 480.462 334.499 482.057C332.265 484.593 329.139 485.861 325.12 485.861C321.802 485.861 318.875 484.793 316.339 482.655C313.803 480.518 312.535 477.041 312.535 472.224C312.535 467.71 313.675 464.248 315.956 461.84C318.253 459.431 321.228 458.227 324.88 458.227C327.05 458.227 329.004 458.634 330.742 459.447C332.481 460.261 333.916 461.545 335.049 463.299C336.07 464.847 336.732 466.641 337.035 468.683C337.21 469.879 337.282 471.602 337.25 473.851H319.401C319.497 476.466 320.319 478.301 321.866 479.354C322.807 480.007 323.939 480.334 325.263 480.334C326.667 480.334 327.807 479.936 328.685 479.138C329.163 478.708 329.586 478.109 329.953 477.344H336.915ZM330.168 469.353C330.056 467.55 329.506 466.186 328.517 465.261C327.544 464.32 326.332 463.85 324.88 463.85C323.301 463.85 322.073 464.344 321.196 465.333C320.334 466.322 319.792 467.662 319.569 469.353H330.168ZM361.654 485L357.563 466.003L353.424 485H346.342L339.021 458.921H346.342L350.409 477.631L354.166 458.921H361.08L365.052 477.703L369.119 458.921H376.225L368.665 485H361.654ZM410.295 485H394.313V449.733H411.444C415.766 449.797 418.829 451.049 420.631 453.49C421.716 454.989 422.258 456.784 422.258 458.873C422.258 461.026 421.716 462.757 420.631 464.065C420.025 464.799 419.132 465.469 417.952 466.075C419.754 466.729 421.11 467.765 422.019 469.185C422.944 470.605 423.407 472.327 423.407 474.353C423.407 476.443 422.88 478.317 421.828 479.976C421.158 481.076 420.32 482.001 419.315 482.751C418.183 483.612 416.843 484.202 415.296 484.521C413.765 484.84 412.098 485 410.295 485ZM410.128 469.472H401.347V478.875H410.008C411.556 478.875 412.76 478.668 413.621 478.253C415.184 477.487 415.966 476.02 415.966 473.851C415.966 472.016 415.208 470.756 413.693 470.07C412.847 469.688 411.659 469.488 410.128 469.472ZM413.789 462.749C414.746 462.175 415.224 461.146 415.224 459.663C415.224 458.02 414.586 456.935 413.31 456.409C412.209 456.042 410.806 455.858 409.099 455.858H401.347V463.634H410.008C411.556 463.634 412.816 463.339 413.789 462.749ZM451.376 477.344C451.201 478.891 450.395 480.462 448.959 482.057C446.726 484.593 443.6 485.861 439.581 485.861C436.263 485.861 433.336 484.793 430.8 482.655C428.264 480.518 426.996 477.041 426.996 472.224C426.996 467.71 428.136 464.248 430.417 461.84C432.714 459.431 435.689 458.227 439.341 458.227C441.511 458.227 443.465 458.634 445.203 459.447C446.942 460.261 448.377 461.545 449.51 463.299C450.531 464.847 451.193 466.641 451.496 468.683C451.671 469.879 451.743 471.602 451.711 473.851H433.862C433.958 476.466 434.779 478.301 436.327 479.354C437.268 480.007 438.4 480.334 439.724 480.334C441.128 480.334 442.268 479.936 443.146 479.138C443.624 478.708 444.047 478.109 444.414 477.344H451.376ZM444.629 469.353C444.517 467.55 443.967 466.186 442.978 465.261C442.005 464.32 440.793 463.85 439.341 463.85C437.762 463.85 436.534 464.344 435.657 465.333C434.795 466.322 434.253 467.662 434.03 469.353H444.629ZM463.698 489.57C464.431 490.192 465.668 490.503 467.406 490.503C469.863 490.503 471.506 489.681 472.335 488.039C472.877 486.986 473.148 485.215 473.148 482.727V481.052C472.494 482.169 471.793 483.006 471.043 483.564C469.687 484.601 467.925 485.12 465.755 485.12C462.406 485.12 459.726 483.947 457.716 481.603C455.722 479.242 454.726 476.052 454.726 472.032C454.726 468.156 455.691 464.902 457.621 462.271C459.551 459.623 462.286 458.299 465.827 458.299C467.135 458.299 468.276 458.498 469.249 458.897C470.907 459.583 472.247 460.843 473.268 462.677V458.921H479.896V483.66C479.896 487.026 479.329 489.562 478.197 491.269C476.251 494.203 472.518 495.671 467 495.671C463.666 495.671 460.946 495.017 458.841 493.709C456.735 492.401 455.571 490.447 455.348 487.847H462.765C462.956 488.645 463.267 489.219 463.698 489.57ZM462.549 476.1C463.474 478.301 465.133 479.401 467.526 479.401C469.121 479.401 470.469 478.803 471.569 477.607C472.67 476.395 473.22 474.473 473.22 471.841C473.22 469.368 472.694 467.486 471.641 466.194C470.604 464.902 469.209 464.256 467.454 464.256C465.062 464.256 463.411 465.381 462.501 467.63C462.023 468.826 461.784 470.302 461.784 472.056C461.784 473.571 462.039 474.919 462.549 476.1ZM493.294 458.921V485H486.379V458.921H493.294ZM493.294 449.518V455.811H486.379V449.518H493.294ZM512.195 463.969C509.882 463.969 508.295 464.95 507.434 466.912C506.987 467.949 506.764 469.273 506.764 470.884V485H499.969V458.969H506.549V462.773C507.426 461.433 508.256 460.468 509.037 459.878C510.441 458.825 512.219 458.299 514.373 458.299C517.068 458.299 519.269 459.009 520.976 460.428C522.699 461.832 523.56 464.169 523.56 467.438V485H516.574V469.137C516.574 467.765 516.39 466.713 516.023 465.979C515.354 464.639 514.077 463.969 512.195 463.969ZM542.15 463.969C539.838 463.969 538.25 464.95 537.389 466.912C536.943 467.949 536.719 469.273 536.719 470.884V485H529.924V458.969H536.504V462.773C537.381 461.433 538.211 460.468 538.992 459.878C540.396 458.825 542.174 458.299 544.328 458.299C547.023 458.299 549.224 459.009 550.931 460.428C552.654 461.832 553.515 464.169 553.515 467.438V485H546.529V469.137C546.529 467.765 546.345 466.713 545.979 465.979C545.309 464.639 544.033 463.969 542.15 463.969ZM566.842 458.921V485H559.927V458.921H566.842ZM566.842 449.518V455.811H559.927V449.518H566.842ZM585.743 463.969C583.43 463.969 581.843 464.95 580.982 466.912C580.535 467.949 580.312 469.273 580.312 470.884V485H573.517V458.969H580.097V462.773C580.974 461.433 581.803 460.468 582.585 459.878C583.989 458.825 585.767 458.299 587.92 458.299C590.616 458.299 592.817 459.009 594.524 460.428C596.247 461.832 597.108 464.169 597.108 467.438V485H590.122V469.137C590.122 467.765 589.938 466.713 589.571 465.979C588.901 464.639 587.625 463.969 585.743 463.969ZM610.793 489.57C611.527 490.192 612.763 490.503 614.502 490.503C616.958 490.503 618.601 489.681 619.431 488.039C619.973 486.986 620.244 485.215 620.244 482.727V481.052C619.59 482.169 618.888 483.006 618.139 483.564C616.783 484.601 615.02 485.12 612.851 485.12C609.501 485.12 606.822 483.947 604.812 481.603C602.818 479.242 601.821 476.052 601.821 472.032C601.821 468.156 602.786 464.902 604.716 462.271C606.646 459.623 609.382 458.299 612.923 458.299C614.231 458.299 615.371 458.498 616.344 458.897C618.003 459.583 619.343 460.843 620.364 462.677V458.921H626.991V483.66C626.991 487.026 626.425 489.562 625.292 491.269C623.347 494.203 619.614 495.671 614.095 495.671C610.762 495.671 608.042 495.017 605.937 493.709C603.831 492.401 602.667 490.447 602.443 487.847H609.86C610.052 488.645 610.363 489.219 610.793 489.57ZM609.645 476.1C610.57 478.301 612.229 479.401 614.622 479.401C616.217 479.401 617.564 478.803 618.665 477.607C619.766 476.395 620.316 474.473 620.316 471.841C620.316 469.368 619.79 467.486 618.737 466.194C617.7 464.902 616.304 464.256 614.55 464.256C612.157 464.256 610.506 465.381 609.597 467.63C609.119 468.826 608.879 470.302 608.879 472.056C608.879 473.571 609.135 474.919 609.645 476.1ZM651.348 460.117C653.389 461.425 654.562 463.674 654.865 466.864H648.046C647.95 465.987 647.703 465.293 647.304 464.783C646.555 463.858 645.278 463.395 643.476 463.395C641.993 463.395 640.932 463.626 640.294 464.089C639.672 464.551 639.361 465.094 639.361 465.716C639.361 466.497 639.696 467.064 640.366 467.415C641.036 467.781 643.404 468.411 647.472 469.305C650.183 469.943 652.217 470.908 653.573 472.2C654.913 473.508 655.583 475.143 655.583 477.104C655.583 479.688 654.618 481.802 652.688 483.445C650.773 485.072 647.807 485.885 643.787 485.885C639.688 485.885 636.657 485.024 634.695 483.301C632.749 481.563 631.776 479.354 631.776 476.674H638.691C638.834 477.886 639.146 478.747 639.624 479.258C640.469 480.167 642.033 480.622 644.313 480.622C645.653 480.622 646.714 480.422 647.496 480.023C648.293 479.625 648.692 479.027 648.692 478.229C648.692 477.463 648.373 476.881 647.735 476.482C647.097 476.084 644.728 475.398 640.629 474.425C637.678 473.691 635.597 472.774 634.384 471.673C633.172 470.589 632.566 469.026 632.566 466.984C632.566 464.575 633.507 462.51 635.389 460.787C637.287 459.049 639.951 458.179 643.38 458.179C646.634 458.179 649.29 458.825 651.348 460.117Z" fill="white"/><defs><pattern id="img1672500122631_pattern0" patternContentUnits="objectBoundingBox" width="1" height="1"><use xlink:href="#image0_642_18" transform="scale(0.000367647 0.00121359)"/></pattern><pattern id="img1672500122631_pattern1" patternContentUnits="objectBoundingBox" width="1" height="1"><use xlink:href="#image1_642_18" transform="translate(0 -0.00439341) scale(0.00107991 0.0010159)"/></pattern><image id="image0_642_18" width="2720" height="824" xlink:href="/story/main/1.png"/><image id="image1_642_18" width="926" height="993" xlink:href="/story/main/2.png"/></defs></svg>