<?xml version="1.0" encoding="utf-8"?>
<!-- Generator: Adobe Illustrator 26.5.0, SVG Export Plug-In . SVG Version: 6.00 Build 0)  -->
<svg version="1.1" id="Layer_1" xmlns="http://www.w3.org/2000/svg" xmlns:xlink="http://www.w3.org/1999/xlink" x="0px" y="0px"
	 viewBox="0 0 222.2 238.3" style="enable-background:new 0 0 222.2 238.3;" xml:space="preserve">
<polygon points="222.2,159.1 222.2,106 160.1,73.4 222.2,73.4 222.2,29 140.7,29 140.7,7.1 140.7,2.3 140.7,0 138.5,0 133.6,0 
	48.2,0 46,0 43,0 45.5,1.7 45.5,1.7 84.9,29 0,29 0,73.4 62.1,73.4 0,106 0,169 0,169 0,238.3 55.7,238.3 55.7,159.1 18.8,159.1 
	84.9,124.4 84.9,238.3 140.7,238.3 140.7,126.2 203.4,159.1 166.5,159.1 166.5,238.3 222.2,238.3 "/>
</svg>
