<?xml version="1.0" encoding="utf-8"?>
<!-- Generator: Adobe Illustrator 27.1.0, SVG Export Plug-In . SVG Version: 6.00 Build 0)  -->
<svg version="1.1" id="Layer_1" xmlns="http://www.w3.org/2000/svg" xmlns:xlink="http://www.w3.org/1999/xlink" x="0px" y="0px"
	 viewBox="0 0 514 607" style="enable-background:new 0 0 514 607;" xml:space="preserve">
<style type="text/css">
	.st0{fill:#FFFFFF;}
	.st1{enable-background:new    ;}
</style>
<g>
	<polygon class="st0" points="47.5,474.8 47.5,498.6 47.5,521.8 47.5,545.6 47.5,607 73.7,607 73.7,545.6 96.3,545.6 96.3,521.8 
		73.7,521.8 73.7,498.6 96.3,498.6 96.3,474.8 73.7,474.8 	"/>
	<polygon class="st0" points="290.4,474.8 264.2,474.8 264.2,583.2 264.2,607 290.4,607 309.6,607 309.6,583.2 290.4,583.2 	"/>
	<rect x="317.6" y="474.8" class="st0" width="26.2" height="132.2"/>
	<path class="st0" d="M385.7,474.8h-7.8h-18.8h-7.4V607h7.4h18.8h7.8h22.3h3.8V474.8h-3.8H385.7z M377.9,583.2v-84.6h7.8v84.6H377.9
		z"/>
	<rect x="104.3" y="474.8" class="st0" width="26.2" height="132.2"/>
	<polygon class="st0" points="207.4,474.8 206.5,474.8 206.5,607 207.4,607 232.6,607 256.2,607 256.2,583.2 232.6,583.2 
		232.6,547.6 256.2,547.6 256.2,523.8 232.6,523.8 232.6,498.6 256.2,498.6 256.2,474.8 232.6,474.8 	"/>
	<path class="st0" d="M141.8,474.8h-0.2h-3.1h-2.1v24h2.1V607h26.2l33.9-4.1V498.6v-18.1v-5.7h-33.9H141.8z M172.3,498.6v83.7
		l-7.8,0.2v-84L172.3,498.6L172.3,498.6z"/>
	<polygon class="st0" points="457.8,474.8 457.8,517.3 447.5,474.8 445.9,474.8 443.5,474.8 419.8,474.8 419.8,607 445.9,607 
		445.9,555.6 457.8,606.6 457.8,607 484,607 484,474.8 	"/>
</g>
<polygon class="st0" points="484.8,313.1 484.8,208.6 362.6,144.4 484.8,144.4 484.8,57.1 324.5,57.1 324.5,14 324.5,4.5 324.5,0 
	320.1,0 310.5,0 142.4,0 138.1,0 132.2,0 137.1,3.3 137.1,3.3 214.6,57.1 47.6,57.1 47.6,144.4 169.8,144.4 47.6,208.6 47.6,332.6 
	47.6,332.6 47.6,468.9 157.2,468.9 157.2,313.1 84.6,313.1 214.6,244.8 214.6,468.9 324.5,468.9 324.5,248.3 447.8,313.1 
	375.2,313.1 375.2,468.9 484.8,468.9 "/>
<g class="st1">
	<path class="st0" d="M25.8,586.1v5.4L7.6,601.9h18.2v5H0.2v-5.6l17.9-10.2H0.2v-5H25.8z"/>
	<path class="st0" d="M20.3,565.2c1.1,0.1,2.3,0.7,3.4,1.8c1.8,1.6,2.8,3.9,2.8,6.8c0,2.4-0.8,4.5-2.3,6.4c-1.6,1.8-4.1,2.8-7.6,2.8
		c-3.3,0-5.8-0.8-7.6-2.5c-1.8-1.7-2.6-3.8-2.6-6.5c0-1.6,0.3-3,0.9-4.3c0.6-1.3,1.5-2.3,2.8-3.1c1.1-0.7,2.4-1.2,3.9-1.4
		c0.9-0.1,2.1-0.2,3.8-0.2v13c1.9-0.1,3.2-0.7,4-1.8c0.5-0.7,0.7-1.5,0.7-2.5c0-1-0.3-1.9-0.9-2.5c-0.3-0.3-0.7-0.7-1.3-0.9V565.2z
		 M14.4,570.1c-1.3,0.1-2.3,0.5-3,1.2c-0.7,0.7-1,1.6-1,2.7c0,1.2,0.4,2,1.1,2.7c0.7,0.6,1.7,1,2.9,1.2V570.1z"/>
	<path class="st0" d="M25.8,547.2l-13.8,3l13.8,3v5.2l-19,5.3v-5.3l13.6-3l-13.6-2.7v-5l13.7-2.9l-13.7-3v-5.2l19,5.5V547.2z"/>
	<path class="st0" d="M26.3,513.6c0,1.6-0.3,2.8-0.9,3.8c-0.4,0.6-1,1.2-2,1.8h2.4v4.9H0.2v-4.9h9.1c-0.9-0.6-1.6-1.3-2-2.1
		c-0.6-0.9-0.9-2-0.9-3.4c0-2.5,0.9-4.5,2.7-5.9c1.8-1.4,4.1-2.1,7-2.1c3,0,5.4,0.7,7.3,2.1C25.4,509.2,26.3,511.1,26.3,513.6z
		 M16.6,510.9c-1.3,0-2.5,0.2-3.3,0.5c-1.7,0.7-2.5,1.9-2.5,3.7c0,1.8,0.8,3,2.5,3.7c0.9,0.3,2,0.5,3.4,0.5c1.6,0,3-0.4,4-1.1
		s1.6-1.8,1.6-3.3c0-1.3-0.5-2.3-1.6-3C19.7,511.3,18.3,510.9,16.6,510.9z"/>
	<path class="st0" d="M20.3,485.9c1.1,0.1,2.3,0.7,3.4,1.8c1.8,1.6,2.8,3.9,2.8,6.8c0,2.4-0.8,4.5-2.3,6.4s-4.1,2.8-7.6,2.8
		c-3.3,0-5.8-0.8-7.6-2.5c-1.8-1.7-2.6-3.8-2.6-6.5c0-1.6,0.3-3,0.9-4.3c0.6-1.3,1.5-2.3,2.8-3.1c1.1-0.7,2.4-1.2,3.9-1.4
		c0.9-0.1,2.1-0.2,3.8-0.2v13c1.9-0.1,3.2-0.7,4-1.8c0.5-0.7,0.7-1.5,0.7-2.5c0-1-0.3-1.9-0.9-2.5c-0.3-0.3-0.7-0.7-1.3-0.9V485.9z
		 M14.4,490.8c-1.3,0.1-2.3,0.5-3,1.2c-0.7,0.7-1,1.6-1,2.7c0,1.1,0.4,2,1.1,2.7c0.7,0.6,1.7,1,2.9,1.2V490.8z"/>
	<path class="st0" d="M29.2,477c0.5-0.5,0.7-1.4,0.7-2.7c0-1.8-0.6-3-1.8-3.6c-0.8-0.4-2.1-0.6-3.9-0.6H23c0.8,0.5,1.4,1,1.8,1.5
		c0.8,1,1.1,2.3,1.1,3.8c0,2.4-0.9,4.4-2.6,5.8s-4,2.2-7,2.2c-2.8,0-5.2-0.7-7.1-2.1s-2.9-3.4-2.9-6c0-1,0.1-1.8,0.4-2.5
		c0.5-1.2,1.4-2.2,2.8-2.9H6.8v-4.8h18c2.5,0,4.3,0.4,5.5,1.2c2.1,1.4,3.2,4.1,3.2,8.2c0,2.4-0.5,4.4-1.4,5.9
		c-1,1.5-2.4,2.4-4.3,2.5v-5.4C28.5,477.5,28.9,477.3,29.2,477z M19.4,477.8c1.6-0.7,2.4-1.9,2.4-3.6c0-1.2-0.4-2.1-1.3-2.9
		c-0.9-0.8-2.3-1.2-4.2-1.2c-1.8,0-3.2,0.4-4.1,1.1c-0.9,0.8-1.4,1.8-1.4,3.1c0,1.7,0.8,2.9,2.5,3.6c0.9,0.3,1.9,0.5,3.2,0.5
		C17.5,478.3,18.5,478.2,19.4,477.8z"/>
	<path class="st0" d="M0,455.4h4.6v5H0V455.4z M6.8,455.4h19v5h-19V455.4z"/>
	<path class="st0" d="M10.5,441.7c0,1.7,0.7,2.8,2.1,3.5c0.8,0.3,1.7,0.5,2.9,0.5h10.3v4.9h-19v-4.8h2.8c-1-0.6-1.7-1.2-2.1-1.8
		c-0.8-1-1.2-2.3-1.2-3.9c0-2,0.5-3.6,1.5-4.8c1-1.2,2.7-1.9,5.1-1.9h12.8v5.1H14.3c-1,0-1.8,0.1-2.3,0.4
		C11,439.4,10.5,440.3,10.5,441.7z"/>
	<path class="st0" d="M10.5,419.9c0,1.7,0.7,2.8,2.1,3.5c0.8,0.3,1.7,0.5,2.9,0.5h10.3v4.9h-19V424h2.8c-1-0.6-1.7-1.2-2.1-1.8
		c-0.8-1-1.2-2.3-1.2-3.9c0-2,0.5-3.6,1.5-4.8c1-1.2,2.7-1.9,5.1-1.9h12.8v5.1H14.3c-1,0-1.8,0.1-2.3,0.4
		C11,417.6,10.5,418.5,10.5,419.9z"/>
	<path class="st0" d="M0,401.9h4.6v5H0V401.9z M6.8,401.9h19v5h-19V401.9z"/>
	<path class="st0" d="M10.5,388.2c0,1.7,0.7,2.8,2.1,3.5c0.8,0.3,1.7,0.5,2.9,0.5h10.3v4.9h-19v-4.8h2.8c-1-0.6-1.7-1.2-2.1-1.8
		c-0.8-1-1.2-2.3-1.2-3.9c0-2,0.5-3.6,1.5-4.8c1-1.2,2.7-1.9,5.1-1.9h12.8v5.1H14.3c-1,0-1.8,0.1-2.3,0.4
		C11,385.9,10.5,386.8,10.5,388.2z"/>
	<path class="st0" d="M29.2,370c0.5-0.5,0.7-1.4,0.7-2.7c0-1.8-0.6-3-1.8-3.6c-0.8-0.4-2.1-0.6-3.9-0.6H23c0.8,0.5,1.4,1,1.8,1.5
		c0.8,1,1.1,2.3,1.1,3.8c0,2.4-0.9,4.4-2.6,5.8c-1.7,1.5-4,2.2-7,2.2c-2.8,0-5.2-0.7-7.1-2.1c-1.9-1.4-2.9-3.4-2.9-6
		c0-1,0.1-1.8,0.4-2.5c0.5-1.2,1.4-2.2,2.8-2.9H6.8v-4.8h18c2.5,0,4.3,0.4,5.5,1.2c2.1,1.4,3.2,4.1,3.2,8.2c0,2.4-0.5,4.4-1.4,5.9
		c-1,1.5-2.4,2.4-4.3,2.5v-5.4C28.5,370.5,28.9,370.3,29.2,370z M19.4,370.8c1.6-0.7,2.4-1.9,2.4-3.6c0-1.2-0.4-2.1-1.3-2.9
		s-2.3-1.2-4.2-1.2c-1.8,0-3.2,0.4-4.1,1.1c-0.9,0.8-1.4,1.8-1.4,3.1c0,1.7,0.8,2.9,2.5,3.6c0.9,0.3,1.9,0.5,3.2,0.5
		C17.5,371.3,18.5,371.2,19.4,370.8z"/>
	<path class="st0" d="M7.7,340.4c1-1.5,2.6-2.3,4.9-2.6v5c-0.6,0.1-1.1,0.2-1.5,0.5c-0.7,0.5-1,1.5-1,2.8c0,1.1,0.2,1.8,0.5,2.3
		c0.3,0.5,0.7,0.7,1.2,0.7c0.6,0,1-0.2,1.2-0.7c0.3-0.5,0.7-2.2,1.4-5.2c0.5-2,1.2-3.5,2.1-4.4c1-1,2.1-1.5,3.6-1.5
		c1.9,0,3.4,0.7,4.6,2.1c1.2,1.4,1.8,3.6,1.8,6.5c0,3-0.6,5.2-1.9,6.6c-1.3,1.4-2.9,2.1-4.8,2.1v-5c0.9-0.1,1.5-0.3,1.9-0.7
		c0.7-0.6,1-1.8,1-3.4c0-1-0.1-1.8-0.4-2.3c-0.3-0.6-0.7-0.9-1.3-0.9c-0.6,0-1,0.2-1.3,0.7c-0.3,0.5-0.8,2.2-1.5,5.2
		c-0.5,2.1-1.2,3.7-2,4.5c-0.8,0.9-1.9,1.3-3.4,1.3c-1.8,0-3.3-0.7-4.5-2.1c-1.3-1.4-1.9-3.3-1.9-5.8C6.3,343.9,6.8,341.9,7.7,340.4
		z"/>
</g>
<g class="st1">
	<path class="st0" d="M494.4,606.3v-5.8c0-2,0.7-3.5,2.1-4.6c1.3-1,2.9-1.5,4.9-1.5c1.5,0,2.9,0.3,4.2,0.9c2.2,1,3.3,2.7,3.3,5.2
		v5.8H494.4z M507.2,600.9c0-0.7-0.1-1.2-0.2-1.6c-0.3-0.7-0.7-1.4-1.5-1.8c-0.6-0.4-1.3-0.7-2.2-0.8c-0.5-0.1-1.1-0.1-1.5-0.1
		c-1.8,0-3.2,0.3-4.2,1c-1,0.7-1.5,1.8-1.5,3.4v3.4h11.1V600.9z"/>
	<path class="st0" d="M494.4,590.1v-1.8h2v1.8H494.4z M498.3,590.1v-1.8h10.5v1.8H498.3z"/>
	<path class="st0" d="M498.3,583.5v-1.7h1.8c-0.4-0.1-0.8-0.5-1.3-1c-0.5-0.5-0.8-1.2-0.8-1.9c0,0,0-0.1,0-0.2c0-0.1,0-0.2,0-0.4
		h1.9c0,0.1,0,0.2,0,0.3s0,0.2,0,0.3c0,0.9,0.3,1.6,0.9,2.1c0.6,0.5,1.2,0.7,2,0.7h6.1v1.8H498.3z"/>
	<path class="st0" d="M498.6,568.3c0.4-0.7,0.8-1.2,1.4-1.6c0.5-0.4,1.2-0.6,1.9-0.7c0.5-0.1,1.3-0.2,2.3-0.2v7.7
		c1.1,0,1.9-0.3,2.6-0.8c0.6-0.5,1-1.2,1-2.2c0-0.9-0.3-1.7-0.9-2.2c-0.4-0.3-0.8-0.5-1.2-0.7V566c0.4,0,0.8,0.2,1.3,0.5
		s0.9,0.5,1.2,0.9c0.5,0.5,0.9,1.2,1.1,2c0.1,0.4,0.2,0.9,0.2,1.4c0,1.3-0.5,2.4-1.4,3.3c-1,0.9-2.3,1.4-4,1.4
		c-1.7,0-3.1-0.5-4.1-1.4c-1.1-0.9-1.6-2.1-1.6-3.6C498.1,569.8,498.2,569,498.6,568.3z M502.7,567.7c-0.8,0.1-1.4,0.2-1.8,0.5
		c-0.9,0.5-1.3,1.3-1.3,2.4c0,0.8,0.3,1.5,0.9,2c0.6,0.5,1.3,0.8,2.2,0.9V567.7z"/>
	<path class="st0" d="M498.9,554.6c0.6-0.7,1.6-1.2,3-1.3v1.7c-0.7,0.1-1.2,0.3-1.6,0.7c-0.4,0.4-0.6,1-0.6,1.8
		c0,1.1,0.6,1.9,1.7,2.4c0.7,0.3,1.6,0.5,2.6,0.5c1.1,0,1.9-0.2,2.7-0.7c0.7-0.4,1.1-1.2,1.1-2.1c0-0.7-0.2-1.3-0.7-1.8
		c-0.4-0.4-1.1-0.7-1.8-0.9v-1.7c1.4,0.2,2.4,0.7,3.1,1.5c0.6,0.8,1,1.8,1,3c0,1.4-0.5,2.5-1.5,3.3c-1,0.8-2.3,1.2-3.8,1.2
		c-1.9,0-3.3-0.4-4.3-1.4c-1-0.9-1.5-2-1.5-3.4C498,556.4,498.3,555.4,498.9,554.6z"/>
	<path class="st0" d="M495.4,549.2v-1.8h2.9v-1.7h1.5v1.7h6.9c0.4,0,0.6-0.1,0.7-0.4c0.1-0.1,0.1-0.4,0.1-0.7c0-0.1,0-0.2,0-0.3
		c0-0.1,0-0.2,0-0.3h1.4c0.1,0.2,0.1,0.4,0.1,0.6c0,0.2,0,0.5,0,0.7c0,0.8-0.2,1.4-0.6,1.7c-0.4,0.3-1,0.4-1.7,0.4h-7v1.4h-1.5v-1.4
		H495.4z"/>
	<path class="st0" d="M498.6,535.4c0.4-0.7,0.8-1.2,1.4-1.6c0.5-0.4,1.2-0.6,1.9-0.7c0.5-0.1,1.3-0.2,2.3-0.2v7.7
		c1.1,0,1.9-0.3,2.6-0.8c0.6-0.5,1-1.2,1-2.2c0-0.9-0.3-1.7-0.9-2.2c-0.4-0.3-0.8-0.5-1.2-0.7v-1.7c0.4,0,0.8,0.2,1.3,0.5
		s0.9,0.5,1.2,0.9c0.5,0.5,0.9,1.2,1.1,2c0.1,0.4,0.2,0.9,0.2,1.4c0,1.3-0.5,2.4-1.4,3.3c-1,0.9-2.3,1.4-4,1.4
		c-1.7,0-3.1-0.5-4.1-1.4c-1.1-0.9-1.6-2.1-1.6-3.6C498.1,536.8,498.2,536.1,498.6,535.4z M502.7,534.8c-0.8,0.1-1.4,0.2-1.8,0.5
		c-0.9,0.5-1.3,1.3-1.3,2.4c0,0.8,0.3,1.5,0.9,2c0.6,0.5,1.3,0.8,2.2,0.9V534.8z"/>
	<path class="st0" d="M498.6,522.9c0.2-0.3,0.5-0.7,1-1.1h-5.3v-1.7h14.5v1.6h-1.5c0.7,0.4,1.1,0.9,1.4,1.5c0.3,0.6,0.4,1.2,0.4,1.9
		c0,1.2-0.5,2.2-1.5,3c-1,0.9-2.3,1.3-4,1.3c-1.5,0-2.9-0.4-4-1.2c-1.1-0.8-1.7-1.9-1.7-3.4C498.1,524.1,498.3,523.4,498.6,522.9z
		 M506.5,526.8c0.8-0.5,1.1-1.2,1.1-2.3c0-0.8-0.4-1.5-1.1-2c-0.7-0.5-1.7-0.8-3-0.8c-1.3,0-2.3,0.3-3,0.8c-0.6,0.5-1,1.2-1,2
		c0,0.9,0.3,1.6,1,2.2s1.7,0.8,3,0.8C504.8,527.6,505.8,527.3,506.5,526.8z"/>
	<path class="st0" d="M494.3,508v-1.7h5.3c-0.5-0.4-0.9-0.9-1.2-1.4c-0.3-0.5-0.4-1.1-0.4-1.8c0-1.3,0.5-2.4,1.4-3.2s2.2-1.2,4-1.2
		c1.7,0,3.1,0.4,4.2,1.2c1.1,0.8,1.7,1.9,1.7,3.4c0,0.8-0.2,1.5-0.6,2c-0.2,0.3-0.6,0.7-1.1,1.1h1.4v1.6H494.3z M506.5,501.2
		c-0.8-0.5-1.8-0.7-3-0.7c-1.1,0-2,0.2-2.8,0.7c-0.7,0.5-1.1,1.2-1.1,2.1c0,0.8,0.3,1.5,0.9,2.1c0.6,0.6,1.6,0.9,3,0.9
		c1,0,1.8-0.1,2.4-0.4c1.2-0.5,1.7-1.3,1.7-2.6C507.6,502.4,507.2,501.7,506.5,501.2z"/>
	<path class="st0" d="M498.3,488v-2c0.7,0.2,2.2,0.8,4.6,1.7c1.8,0.6,3.3,1.2,4.4,1.6c2.7,1,4.3,1.7,4.9,2.2
		c0.6,0.4,0.9,1.1,0.9,2.2c0,0.2,0,0.4,0,0.6c0,0.1-0.1,0.3-0.1,0.5h-1.6c0.1-0.3,0.1-0.5,0.2-0.7c0-0.1,0-0.3,0-0.4
		c0-0.3-0.1-0.6-0.2-0.7c-0.1-0.2-0.2-0.3-0.4-0.4c-0.1,0-0.3-0.2-0.8-0.4c-0.5-0.2-0.8-0.4-1.1-0.4l-10.9,3.9v-2l8.6-2.8L498.3,488
		z"/>
	<path class="st0" d="M494.4,474.6v-2h6v-7.4h-6v-2h14.5v2h-6.8v7.4h6.8v2H494.4z"/>
	<path class="st0" d="M499.4,450.7c0.9-0.9,2.2-1.4,4-1.4c1.7,0,3.1,0.4,4.2,1.2c1.1,0.8,1.7,2.1,1.7,3.8c0,1.4-0.5,2.6-1.5,3.4
		c-1,0.8-2.3,1.3-4,1.3c-1.8,0-3.2-0.4-4.2-1.3c-1.1-0.9-1.6-2.1-1.6-3.6C498,452.7,498.4,451.6,499.4,450.7z M506.4,451.8
		c-0.9-0.4-1.9-0.6-3-0.6c-1,0-1.8,0.2-2.4,0.5c-1,0.5-1.5,1.3-1.5,2.6c0,1.1,0.4,1.9,1.2,2.3c0.8,0.5,1.8,0.7,3,0.7
		c1.1,0,2.1-0.2,2.8-0.7c0.7-0.5,1.1-1.3,1.1-2.3C507.7,453,507.3,452.2,506.4,451.8z"/>
	<path class="st0" d="M494.4,445.1v-1.7h8.4l-4.5-4.6v-2.3l3.9,4.1l6.6-4.3v2.3l-5.4,3.3l1.4,1.5h4v1.7H494.4z"/>
	<path class="st0" d="M498.3,426.4v-2c0.7,0.2,2.2,0.8,4.6,1.7c1.8,0.6,3.3,1.2,4.4,1.6c2.7,1,4.3,1.7,4.9,2.2
		c0.6,0.4,0.9,1.1,0.9,2.2c0,0.2,0,0.4,0,0.6c0,0.1-0.1,0.3-0.1,0.5h-1.6c0.1-0.3,0.1-0.5,0.2-0.7c0-0.1,0-0.3,0-0.4
		c0-0.3-0.1-0.6-0.2-0.7c-0.1-0.2-0.2-0.3-0.4-0.4c-0.1,0-0.3-0.2-0.8-0.4c-0.5-0.2-0.8-0.4-1.1-0.4l-10.9,3.9v-2l8.6-2.8
		L498.3,426.4z"/>
	<path class="st0" d="M499.4,413.2c0.9-0.9,2.2-1.4,4-1.4c1.7,0,3.1,0.4,4.2,1.2c1.1,0.8,1.7,2.1,1.7,3.8c0,1.4-0.5,2.6-1.5,3.4
		c-1,0.8-2.3,1.3-4,1.3c-1.8,0-3.2-0.4-4.2-1.3c-1.1-0.9-1.6-2.1-1.6-3.6C498,415.3,498.4,414.2,499.4,413.2z M506.4,414.3
		c-0.9-0.4-1.9-0.6-3-0.6c-1,0-1.8,0.2-2.4,0.5c-1,0.5-1.5,1.3-1.5,2.6c0,1.1,0.4,1.9,1.2,2.3c0.8,0.5,1.8,0.7,3,0.7
		c1.1,0,2.1-0.2,2.8-0.7c0.7-0.5,1.1-1.3,1.1-2.3C507.7,415.6,507.3,414.8,506.4,414.3z"/>
	<path class="st0" d="M494.4,399.8v-2h12.8v-7.3h1.7v9.2H494.4z"/>
	<path class="st0" d="M494.4,386.8V385h2v1.8H494.4z M498.3,386.8V385h10.5v1.8H498.3z"/>
	<path class="st0" d="M498.3,380.3v-1.8h1.5c-0.5-0.4-0.9-0.8-1.1-1.1c-0.4-0.6-0.6-1.2-0.6-2c0-0.8,0.2-1.5,0.6-2
		c0.2-0.3,0.6-0.6,1-0.8c-0.6-0.4-1-0.9-1.3-1.4c-0.3-0.5-0.4-1.1-0.4-1.8c0-1.4,0.5-2.4,1.5-2.9c0.6-0.3,1.3-0.4,2.2-0.4h7v1.8
		h-7.3c-0.7,0-1.2,0.2-1.5,0.5s-0.4,0.8-0.4,1.3c0,0.7,0.2,1.3,0.7,1.8s1.2,0.8,2.3,0.8h6.1v1.8H502c-0.7,0-1.2,0.1-1.6,0.3
		c-0.5,0.3-0.7,0.8-0.7,1.5c0,0.7,0.3,1.3,0.8,1.8s1.5,0.8,2.8,0.8h5.6v1.8H498.3z"/>
</g>
</svg>
