<?xml version="1.0" encoding="utf-8"?>
<!-- Generator: Adobe Illustrator 27.1.0, SVG Export Plug-In . SVG Version: 6.00 Build 0)  -->
<svg version="1.1" id="Layer_1" xmlns="http://www.w3.org/2000/svg" xmlns:xlink="http://www.w3.org/1999/xlink" x="0px" y="0px"
	 viewBox="0 0 514 607" style="enable-background:new 0 0 514 607;" xml:space="preserve">
<style type="text/css">
	.st0{fill:#FFFFFF;}
	.st1{font-family:'Helvetica-Bold';}
	.st2{font-size:35.6786px;}
	.st3{font-family:'Helvetica';}
	.st4{font-size:20.1974px;}
	.st5{letter-spacing:2;}
</style>
<g>
	<polygon class="st0" points="47.5,474.83 47.5,498.62 47.5,521.84 47.5,545.63 47.5,607.01 73.68,607.01 73.68,545.63 
		96.34,545.63 96.34,521.84 73.68,521.84 73.68,498.62 96.34,498.62 96.34,474.83 73.68,474.83 	"/>
	<polygon class="st0" points="290.37,474.83 264.19,474.83 264.19,583.22 264.19,607.01 290.37,607.01 309.61,607.01 309.61,583.22 
		290.37,583.22 	"/>
	<rect x="317.59" y="474.83" class="st0" width="26.18" height="132.17"/>
	<path class="st0" d="M385.67,474.83h-7.82h-18.76h-7.42v132.17h7.42h18.76h7.82h22.27h3.83V474.83h-3.83H385.67z M377.85,583.22
		v-84.6h7.82v84.6H377.85z"/>
	<rect x="104.33" y="474.83" class="st0" width="26.18" height="132.17"/>
	<polygon class="st0" points="207.44,474.83 206.49,474.83 206.49,607.01 207.44,607.01 232.59,607.01 256.21,607.01 256.21,583.22 
		232.59,583.22 232.59,547.62 256.21,547.62 256.21,523.84 232.59,523.84 232.59,498.62 256.21,498.62 256.21,474.83 232.59,474.83 
			"/>
	<path class="st0" d="M141.76,474.83h-0.24h-3.11h-2.08v24.02h2.08v108.15h26.18l33.92-4.07V498.62V480.5v-5.67h-33.92H141.76z
		 M172.33,498.62v83.72l-7.82,0.24v-83.96H172.33z"/>
	<polygon class="st0" points="457.82,474.83 457.82,517.29 447.45,474.83 445.93,474.83 443.53,474.83 419.75,474.83 419.75,607.01 
		445.93,607.01 445.93,555.61 457.82,606.61 457.82,607.01 484,607.01 484,474.83 	"/>
</g>
<polygon class="st0" points="484.83,313.08 484.83,208.59 362.63,144.44 484.83,144.44 484.83,57.07 324.45,57.07 324.45,13.97 
	324.45,4.53 324.45,0 320.13,0 310.48,0 142.43,0 138.1,0 132.2,0 137.12,3.35 137.12,3.35 214.65,57.07 47.59,57.07 47.59,144.44 
	169.79,144.44 47.59,208.59 47.59,332.56 47.59,332.56 47.59,468.93 157.19,468.93 157.19,313.08 84.58,313.08 214.65,244.79 
	214.65,468.93 324.45,468.93 324.45,248.34 447.84,313.08 375.22,313.08 375.22,468.93 484.83,468.93 "/>
<text transform="matrix(6.123234e-17 -1 1 6.123234e-17 25.8384 609.5469)" class="st0 st1 st2">New beginnings</text>
<text transform="matrix(6.123234e-17 -1 1 6.123234e-17 508.8623 607.9541)" class="st0 st3 st4 st5">Directed by Hokyo Lim</text>
</svg>
