<svg width="1126" height="374" viewBox="0 0 1126 374" fill="none" xmlns="http://www.w3.org/2000/svg">
<path d="M301.016 367H0.289062C3.73438 337.305 14.1523 309.414 31.543 283.328C49.0977 257.078 81.9102 226.152 129.98 190.551C159.348 168.73 178.133 152.16 186.336 140.84C194.539 129.52 198.641 118.773 198.641 108.602C198.641 97.6094 194.539 88.2578 186.336 80.5469C178.297 72.6719 168.125 68.7344 155.82 68.7344C143.023 68.7344 132.523 72.7539 124.32 80.793C116.281 88.832 110.867 103.023 108.078 123.367L7.67188 115.246C11.6094 87.0273 18.8281 65.043 29.3281 49.293C39.8281 33.3789 54.5938 21.2383 73.625 12.8711C92.8203 4.33984 119.316 0.0742188 153.113 0.0742188C188.387 0.0742188 215.785 4.09375 235.309 12.1328C254.996 20.1719 270.418 32.5586 281.574 49.293C292.895 65.8633 298.555 84.4844 298.555 105.156C298.555 127.141 292.074 148.141 279.113 168.156C266.316 188.172 242.938 210.156 208.977 234.109C188.797 248.055 175.262 257.816 168.371 263.395C161.645 268.973 153.688 276.273 144.5 285.297H301.016V367ZM293.436 185.137C293.436 116.559 305.741 68.5703 330.35 41.1719C355.123 13.7734 392.776 0.0742188 443.307 0.0742188C467.588 0.0742188 487.522 3.10937 503.108 9.17969C518.694 15.0859 531.409 22.8789 541.252 32.5586C551.096 42.0742 558.807 52.1641 564.385 62.8281C570.127 73.3281 574.721 85.6328 578.166 99.7422C584.893 126.648 588.256 154.703 588.256 183.906C588.256 249.367 577.182 297.273 555.034 327.625C532.885 357.977 494.741 373.152 440.6 373.152C410.248 373.152 385.721 368.312 367.018 358.633C348.315 348.953 332.975 334.762 320.998 316.059C312.303 302.77 305.495 284.641 300.573 261.672C295.815 238.539 293.436 213.027 293.436 185.137ZM392.858 185.383C392.858 231.32 396.877 262.738 404.916 279.637C413.12 296.371 424.932 304.738 440.354 304.738C450.526 304.738 459.303 301.211 466.686 294.156C474.233 286.938 479.729 275.617 483.174 260.195C486.784 244.773 488.588 220.738 488.588 188.09C488.588 140.184 484.487 108.027 476.284 91.6211C468.245 75.0508 456.104 66.7656 439.862 66.7656C423.291 66.7656 411.315 75.2148 403.932 92.1133C396.549 108.848 392.858 139.938 392.858 185.383ZM639.493 173.078C623.743 164.711 612.259 155.359 605.04 145.023C595.196 130.914 590.274 114.672 590.274 96.2969C590.274 66.1094 604.466 41.418 632.848 22.2227C654.997 7.45703 684.282 0.0742188 720.704 0.0742188C768.938 0.0742188 804.54 9.26172 827.509 27.6367C850.641 46.0117 862.208 69.1445 862.208 97.0352C862.208 113.277 857.614 128.453 848.427 142.562C841.536 153.062 830.708 163.234 815.942 173.078C835.466 182.43 849.985 194.816 859.501 210.238C869.18 225.66 874.02 242.723 874.02 261.426C874.02 279.473 869.837 296.371 861.47 312.121C853.266 327.707 843.095 339.766 830.954 348.297C818.977 356.828 803.966 363.062 785.919 367C768.036 371.102 748.923 373.152 728.579 373.152C690.352 373.152 661.149 368.641 640.97 359.617C620.79 350.594 605.45 337.305 594.95 319.75C584.45 302.195 579.2 282.59 579.2 260.934C579.2 239.77 584.122 221.887 593.966 207.285C603.809 192.52 618.985 181.117 639.493 173.078ZM684.528 102.203C684.528 114.672 688.384 124.762 696.095 132.473C703.97 140.02 714.388 143.793 727.348 143.793C738.833 143.793 748.266 140.02 755.649 132.473C763.032 124.926 766.723 115.164 766.723 103.188C766.723 90.7188 762.868 80.6289 755.157 72.918C747.446 65.043 737.602 61.1055 725.626 61.1055C713.485 61.1055 703.559 64.9609 695.848 72.6719C688.302 80.2188 684.528 90.0625 684.528 102.203ZM679.114 257.488C679.114 273.402 683.954 286.445 693.634 296.617C703.313 306.625 714.388 311.629 726.856 311.629C738.833 311.629 749.579 306.543 759.095 296.371C768.61 286.035 773.368 272.992 773.368 257.242C773.368 241.328 768.528 228.285 758.848 218.113C749.333 207.941 738.259 202.855 725.626 202.855C713.157 202.855 702.247 207.777 692.895 217.621C683.708 227.465 679.114 240.754 679.114 257.488ZM864.964 185.137C864.964 116.559 877.269 68.5703 901.878 41.1719C926.652 13.7734 964.304 0.0742188 1014.84 0.0742188C1039.12 0.0742188 1059.05 3.10937 1074.64 9.17969C1090.22 15.0859 1102.94 22.8789 1112.78 32.5586C1122.62 42.0742 1130.34 52.1641 1135.91 62.8281C1141.66 73.3281 1146.25 85.6328 1149.69 99.7422C1156.42 126.648 1159.78 154.703 1159.78 183.906C1159.78 249.367 1148.71 297.273 1126.56 327.625C1104.41 357.977 1066.27 373.152 1012.13 373.152C981.777 373.152 957.249 368.312 938.546 358.633C919.843 348.953 904.503 334.762 892.527 316.059C883.831 302.77 877.023 284.641 872.101 261.672C867.343 238.539 864.964 213.027 864.964 185.137ZM964.386 185.383C964.386 231.32 968.405 262.738 976.445 279.637C984.648 296.371 996.46 304.738 1011.88 304.738C1022.05 304.738 1030.83 301.211 1038.21 294.156C1045.76 286.938 1051.26 275.617 1054.7 260.195C1058.31 244.773 1060.12 220.738 1060.12 188.09C1060.12 140.184 1056.01 108.027 1047.81 91.6211C1039.77 75.0508 1027.63 66.7656 1011.39 66.7656C994.82 66.7656 982.843 75.2148 975.46 92.1133C968.077 108.848 964.386 139.938 964.386 185.383Z" fill="white"/>
</svg>
