<svg width="1087" height="509" viewBox="0 0 1087 509" fill="none" xmlns="http://www.w3.org/2000/svg">
<path d="M614.414 247.18H413.602C415.406 263.258 419.754 275.234 426.645 283.109C436.324 294.43 448.957 300.09 464.543 300.09C474.387 300.09 483.738 297.629 492.598 292.707C498.012 289.59 503.836 284.094 510.07 276.219L608.754 285.324C593.66 311.574 575.449 330.441 554.121 341.926C532.793 353.246 502.195 358.906 462.328 358.906C427.711 358.906 400.477 354.066 380.625 344.387C360.773 334.543 344.285 319.039 331.16 297.875C318.199 276.547 311.719 251.527 311.719 222.816C311.719 181.965 324.762 148.906 350.848 123.641C377.098 98.375 413.273 85.7422 459.375 85.7422C496.781 85.7422 526.312 91.4023 547.969 102.723C569.625 114.043 586.113 130.449 597.434 151.941C608.754 173.434 614.414 201.406 614.414 235.859V247.18ZM512.531 199.191C510.562 179.832 505.312 165.969 496.781 157.602C488.414 149.234 477.34 145.051 463.559 145.051C447.645 145.051 434.93 151.367 425.414 164C419.344 171.875 415.488 183.605 413.848 199.191H512.531ZM701.334 176.305L605.604 166.215C609.213 149.48 614.381 136.355 621.108 126.84C627.998 117.16 637.842 108.793 650.639 101.738C659.827 96.6523 672.459 92.7148 688.538 89.9258C704.616 87.1367 722.006 85.7422 740.709 85.7422C770.733 85.7422 794.85 87.4648 813.061 90.9102C831.272 94.1914 846.448 101.164 858.588 111.828C867.12 119.211 873.846 129.711 878.768 143.328C883.69 156.781 886.151 169.66 886.151 181.965V297.383C886.151 309.688 886.889 319.367 888.366 326.422C890.006 333.312 893.452 342.172 898.702 353H804.694C800.92 346.273 798.459 341.188 797.311 337.742C796.163 334.133 795.014 328.555 793.866 321.008C780.741 333.641 767.698 342.664 754.737 348.078C737.018 355.297 716.428 358.906 692.967 358.906C661.795 358.906 638.088 351.688 621.846 337.25C605.768 322.812 597.729 305.012 597.729 283.848C597.729 263.996 603.553 247.672 615.202 234.875C626.85 222.078 648.342 212.562 679.678 206.328C717.248 198.781 741.612 193.531 752.768 190.578C763.924 187.461 775.737 183.441 788.205 178.52C788.205 166.215 785.663 157.602 780.577 152.68C775.491 147.758 766.549 145.297 753.752 145.297C737.346 145.297 725.041 147.922 716.838 153.172C710.44 157.273 705.272 164.984 701.334 176.305ZM788.205 228.969C774.424 233.891 760.069 238.238 745.139 242.012C724.795 247.426 711.916 252.758 706.502 258.008C700.924 263.422 698.135 269.574 698.135 276.465C698.135 284.34 700.842 290.82 706.256 295.906C711.834 300.828 719.955 303.289 730.62 303.289C741.776 303.289 752.112 300.582 761.627 295.168C771.307 289.754 778.116 283.191 782.053 275.48C786.155 267.605 788.205 257.434 788.205 244.965V228.969ZM896.782 91.6484H990.544V134.469C999.567 115.93 1008.84 103.215 1018.35 96.3242C1028.03 89.2695 1039.93 85.7422 1054.04 85.7422C1068.8 85.7422 1084.96 90.3359 1102.52 99.5234L1071.51 170.891C1059.7 165.969 1050.34 163.508 1043.45 163.508C1030.33 163.508 1020.16 168.922 1012.94 179.75C1002.6 195.008 997.434 223.555 997.434 265.391V353H896.782V91.6484Z" fill="white"/>
<path d="M1.21875 -7.77344H125.004L197.848 114.043L270.691 -7.77344H393.738L253.465 201.898V353H141.738V201.898L1.21875 -7.77344Z" fill="white"/>
</svg>
