<?xml version="1.0" encoding="utf-8"?>
<!-- Generator: Adobe Illustrator 27.1.1, SVG Export Plug-In . SVG Version: 6.00 Build 0)  -->
<svg version="1.1" id="Layer_1" xmlns="http://www.w3.org/2000/svg" xmlns:xlink="http://www.w3.org/1999/xlink" x="0px" y="0px"
	 viewBox="0 0 127.14 96.36" style="enable-background:new 0 0 127.14 96.36;" xml:space="preserve">
<g id="图层_2">
	<g id="Discord_Logos">
		<g id="Discord_Logo_-_Large_-_White">
			<path d="M107.7,8.07C99.35,4.25,90.53,1.53,81.47,0c-1.24,2.22-2.36,4.5-3.36,6.83c-9.65-1.45-19.46-1.45-29.11,0
				C48,4.5,46.88,2.22,45.64,0c-9.06,1.55-17.89,4.27-26.25,8.09C2.79,32.65-1.71,56.6,0.54,80.21l0,0
				c9.72,7.18,20.6,12.65,32.17,16.15c2.6-3.5,4.91-7.22,6.89-11.11c-3.76-1.4-7.39-3.14-10.85-5.18c0.91-0.66,1.8-1.34,2.66-2
				c20.37,9.58,43.95,9.58,64.32,0c0.87,0.71,1.76,1.39,2.66,2c-3.46,2.05-7.1,3.78-10.87,5.19c1.98,3.89,4.28,7.6,6.89,11.1
				c11.58-3.49,22.47-8.95,32.19-16.14l0,0C129.24,52.84,122.09,29.11,107.7,8.07z M42.45,65.69C36.18,65.69,31,60,31,53
				s5-12.74,11.43-12.74S54,46,53.89,53S48.84,65.69,42.45,65.69z M84.69,65.69C78.41,65.69,73.25,60,73.25,53s5-12.74,11.44-12.74
				S96.23,46,96.12,53S91.08,65.69,84.69,65.69z"/>
		</g>
	</g>
</g>
</svg>
