<?xml version="1.0" encoding="utf-8"?>
<!-- Generator: Adobe Illustrator 27.1.1, SVG Export Plug-In . SVG Version: 6.00 Build 0)  -->
<svg version="1.1" id="Layer_1" xmlns="http://www.w3.org/2000/svg" xmlns:xlink="http://www.w3.org/1999/xlink" x="0px" y="0px"
	 viewBox="0 0 172 247" style="enable-background:new 0 0 172 247;" xml:space="preserve">
<style type="text/css">
	.st0{fill:none;stroke:#000000;stroke-width:15.081;stroke-miterlimit:10;}
</style>
<g id="Group">
	<path id="Rectangle_55" class="st0" d="M164,46.5c0,21.26-17.24,38.5-38.5,38.5H86V8h39.5C146.76,8,164,25.24,164,46.5L164,46.5z"
		/>
	<path id="Rectangle_55_x5F_2" class="st0" d="M8,46.5C8,67.76,25.24,85,46.5,85H86V8H46.5C25.24,8,8,25.24,8,46.5L8,46.5z"/>
	<path id="Rectangle_55_x5F_3" class="st0" d="M8,123.5C8,144.76,25.24,162,46.5,162H86V85H46.5C25.24,85,8,102.24,8,123.5L8,123.5z
		"/>
	<path id="Rectangle_55_x5F_4" class="st0" d="M8,200.5C8,221.76,25.49,239,46.75,239l0,0C68.29,239,86,221.54,86,200v-38H46.5
		C25.24,162,8,179.24,8,200.5L8,200.5z"/>
	<path id="Rectangle_55_x5F_5" class="st0" d="M86,123.5c0,21.26,17.24,38.5,38.5,38.5h1c21.26,0,38.5-17.24,38.5-38.5l0,0
		c0-21.26-17.24-38.5-38.5-38.5h-1C103.24,85,86,102.24,86,123.5L86,123.5z"/>
</g>
</svg>
