<svg width="78" height="23" viewBox="0 0 78 23" fill="none" xmlns="http://www.w3.org/2000/svg">
<path d="M0.285156 0.525391L10.1436 0.525391C12.0869 0.525391 13.6543 0.789063 14.8457 1.31641C16.0469 1.84375 17.0381 2.60059 17.8193 3.58691C18.6006 4.57324 19.167 5.7207 19.5186 7.0293C19.8701 8.33789 20.0459 9.72461 20.0459 11.1895C20.0459 13.4844 19.7822 15.2666 19.2549 16.5361C18.7373 17.7959 18.0146 18.8555 17.0869 19.7148C16.1592 20.5645 15.1631 21.1309 14.0986 21.4141C12.6436 21.8047 11.3252 22 10.1436 22H0.285156L0.285156 0.525391ZM6.9209 5.38867L6.9209 17.1221H8.54687C9.93359 17.1221 10.9199 16.9707 11.5059 16.668C12.0918 16.3555 12.5508 15.8184 12.8828 15.0566C13.2148 14.2852 13.3809 13.04 13.3809 11.3213C13.3809 9.0459 13.0098 7.48828 12.2676 6.64844C11.5254 5.80859 10.2949 5.38867 8.57617 5.38867H6.9209ZM33.6215 0.525391L40.2426 0.525391L40.2426 13.3281C40.2426 14.5977 40.0424 15.7988 39.642 16.9316C39.2514 18.0547 38.6313 19.041 37.7816 19.8906C36.9418 20.7305 36.058 21.3213 35.1303 21.6631C33.8412 22.1416 32.2934 22.3809 30.4867 22.3809C29.4418 22.3809 28.2992 22.3076 27.059 22.1611C25.8285 22.0146 24.7982 21.7266 23.9682 21.2969C23.1381 20.8574 22.3764 20.2373 21.683 19.4365C20.9994 18.6357 20.5307 17.8105 20.2768 16.9609C19.8666 15.5938 19.6615 14.3828 19.6615 13.3281V0.525391L26.2826 0.525391V13.6357C26.2826 14.8076 26.6049 15.7256 27.2494 16.3896C27.9037 17.0439 28.807 17.3711 29.9594 17.3711C31.102 17.3711 31.9955 17.0488 32.64 16.4043C33.2943 15.75 33.6215 14.8271 33.6215 13.6357L33.6215 0.525391ZM39.5799 14.8955L45.8934 14.5C46.0301 15.5254 46.3084 16.3066 46.7283 16.8438C47.4119 17.7129 48.3885 18.1475 49.658 18.1475C50.6053 18.1475 51.3328 17.9277 51.8406 17.4883C52.3582 17.0391 52.617 16.5215 52.617 15.9355C52.617 15.3789 52.3729 14.8809 51.8846 14.4414C51.3963 14.002 50.2635 13.5869 48.4861 13.1963C45.576 12.542 43.5008 11.6729 42.2605 10.5889C41.0105 9.50488 40.3855 8.12305 40.3855 6.44336C40.3855 5.33984 40.7029 4.2998 41.3377 3.32324C41.9822 2.33691 42.9441 1.56543 44.2234 1.00879C45.5125 0.442383 47.2752 0.15918 49.5115 0.15918C52.2557 0.15918 54.3455 0.671875 55.7811 1.69727C57.2264 2.71289 58.0857 4.33398 58.3592 6.56055L52.1043 6.92676C51.9383 5.95996 51.5867 5.25684 51.0496 4.81738C50.5223 4.37793 49.7898 4.1582 48.8523 4.1582C48.0809 4.1582 47.4998 4.32422 47.1092 4.65625C46.7186 4.97852 46.5232 5.37402 46.5232 5.84277C46.5232 6.18457 46.6844 6.49219 47.0066 6.76563C47.3191 7.04883 48.0613 7.3125 49.2332 7.55664C52.1336 8.18164 54.2088 8.81641 55.4588 9.46094C56.7186 10.0957 57.6316 10.8867 58.198 11.834C58.7742 12.7813 59.0623 13.8408 59.0623 15.0127C59.0623 16.3896 58.6814 17.6592 57.9197 18.8213C57.158 19.9834 56.0936 20.8672 54.7264 21.4727C53.3592 22.0684 51.6355 22.3662 49.5555 22.3662C45.9031 22.3662 43.3738 21.6631 41.9676 20.2568C40.5613 18.8506 39.7654 17.0635 39.5799 14.8955ZM57.008 0.525391L77.1789 0.525391V5.82813L70.4113 5.82813V22L63.7756 22V5.82813H57.008V0.525391Z" fill="white"/>
</svg>
