<?xml version="1.0" encoding="utf-8"?>
<!-- Generator: Adobe Illustrator 27.1.0, SVG Export Plug-In . SVG Version: 6.00 Build 0)  -->
<svg version="1.1" id="Layer_1" xmlns="http://www.w3.org/2000/svg" xmlns:xlink="http://www.w3.org/1999/xlink" x="0px" y="0px"
	 viewBox="0 0 546.9 165.6" style="enable-background:new 0 0 546.9 165.6;" xml:space="preserve">
<style type="text/css">
	.st00{fill: currentColor;}
</style>
<g>
	<polygon class="st00" points="0,0 0,29.8 0,58.9 0,88.7 0,165.6 32.8,165.6 32.8,88.7 61.2,88.7 61.2,58.9 32.8,58.9 32.8,29.8 
		61.2,29.8 61.2,0 32.8,0 	"/>
	<polygon class="st00" points="304.3,0 271.5,0 271.5,135.8 271.5,165.6 304.3,165.6 328.4,165.6 328.4,135.8 304.3,135.8 	"/>
	<rect x="338.4" y="0" class="st00" width="32.8" height="165.6"/>
	<path class="st00" d="M423.7,0h-9.8h-23.5h-9.3v165.6h9.3h23.5h9.8h27.9h4.8V0h-4.8H423.7z M413.9,135.8v-106h9.8v106H413.9z"/>
	<rect x="71.2" y="0" class="st00" width="32.8" height="165.6"/>
	<polygon class="st00" points="200.4,0 199.2,0 199.2,165.6 200.4,165.6 231.9,165.6 261.5,165.6 261.5,135.8 231.9,135.8 
		231.9,91.2 261.5,91.2 261.5,61.4 231.9,61.4 231.9,29.8 261.5,29.8 261.5,0 231.9,0 	"/>
	<path class="st00" d="M118.1,0h-0.3h-3.9h-2.6v30.1h2.6v135.5h32.8l42.5-5.1V29.8V7.1V0h-42.5H118.1z M156.4,29.8v104.9l-9.8,0.3
		V29.8H156.4z"/>
	<polygon class="st00" points="514.1,0 514.1,53.2 501.1,0 499.2,0 496.2,0 466.4,0 466.4,165.6 499.2,165.6 499.2,101.2 
		514.1,165.1 514.1,165.6 546.9,165.6 546.9,0 	"/>
</g>
</svg>
