<svg xmlns="http://www.w3.org/2000/svg" width="20" height="20" viewBox="0 0 20 20" fill="none">
    <path d="M0.302848 7.59738C1.62909 2.23485 7.0454 -1.03128 12.406 0.295432C17.7667 1.62214 21.0317 7.04037 19.7054 12.4029C18.3792 17.7604 12.9629 21.0316 7.60222 19.7049C2.24665 18.3731 -1.02339 12.9549 0.302848 7.59738Z" fill="#F1F2F2"/>
    <path d="M19.2454 6.19682H11.5056V7.72608H19.7415C19.6149 7.20451 19.4529 6.69307 19.2454 6.19682ZM17.2712 3.13324H11.5056V4.66756H18.4557C18.1115 4.12068 17.7167 3.60417 17.2712 3.13324ZM2.78383 16.9118H17.2206C17.666 16.4459 18.071 15.9344 18.4253 15.3825H1.58414C1.93342 15.9294 2.33331 16.4408 2.78383 16.9118ZM12.4066 0.292466C12.108 0.21651 11.8043 0.160808 11.5056 0.115234V1.60398H15.4337C14.5276 1.01659 13.5102 0.56591 12.4066 0.292466ZM19.9743 9.2604H11.5056V10.7947H19.9693C20.0097 10.2732 20.0097 9.76171 19.9743 9.2604ZM0.784347 13.8532H19.2302C19.4226 13.3874 19.5845 12.9063 19.706 12.3999C19.7111 12.3746 19.7162 12.3493 19.7263 12.3189H0.283203C0.409753 12.8455 0.576805 13.357 0.784347 13.8532ZM7.60283 19.7019C8.19508 19.8487 8.78734 19.9399 9.37453 19.9753H10.6451C12.3358 19.869 13.9506 19.3272 15.3477 18.441H4.65169C5.53754 19.0082 6.52969 19.4386 7.60283 19.7019Z" fill="#EF3827"/>
    <path d="M10.7482 10.2265L10.5305 10.0695L10.3128 10.2265L10.3938 9.97331L10.1761 9.81633H10.4444L10.5254 9.56314L10.6064 9.81633H10.8747L10.657 9.97331L10.7482 10.2265ZM9.68514 2.17004L9.76612 2.42323L9.54845 2.26625L9.3308 2.42323L9.41178 2.17004L9.19412 2.01306H9.4624L9.5434 1.75988L9.62438 2.01306H9.89267L9.68514 2.17004ZM9.68514 4.47405L9.76612 4.72724L9.54845 4.57027L9.3308 4.72724L9.41178 4.47405L9.19412 4.31708H9.4624L9.5434 4.06389L9.62438 4.31708H9.89267L9.68514 4.47405ZM9.66995 6.72743L9.75093 6.98062L9.53328 6.82364L9.31561 6.98062L9.3966 6.72743L9.17894 6.57046H9.44722L9.52821 6.31727L9.60921 6.57046H9.87748L9.66995 6.72743ZM9.73069 9.20868L9.51302 9.0517L9.29536 9.20868L9.37635 8.95549L9.15868 8.79851H9.42697L9.50797 8.54533L9.58895 8.79851H9.85724L9.63957 8.95549L9.73069 9.20868ZM8.66768 3.28407L8.74867 3.53726L8.531 3.38028L8.31334 3.53726L8.39433 3.28407L8.17667 3.12709H8.44495L8.52594 2.8739L8.60693 3.12709H8.87522L8.66768 3.28407ZM8.66768 5.51719L8.74867 5.77038L8.531 5.6134L8.31334 5.77038L8.39433 5.51719L8.17667 5.36021H8.44495L8.52594 5.10703L8.60693 5.36021H8.87522L8.66768 5.51719ZM8.66768 7.79589L8.74867 8.04907L8.531 7.8921L8.31334 8.04907L8.39433 7.79589L8.17667 7.63891H8.44495L8.52594 7.38572L8.60693 7.63891H8.87522L8.66768 7.79589ZM8.75373 10.2265L8.53606 10.0695L8.3184 10.2265L8.39939 9.97331L8.18172 9.81633H8.45001L8.531 9.56314L8.61199 9.81633H8.88028L8.66261 9.97331L8.75373 10.2265ZM7.69071 2.17004L7.77171 2.42323L7.55404 2.26625L7.33637 2.42323L7.41737 2.17004L7.1997 2.01306H7.46799L7.54897 1.75988L7.62997 2.01306H7.89826L7.69071 2.17004ZM7.69071 4.47405L7.77171 4.72724L7.55404 4.57027L7.33637 4.72724L7.41737 4.47405L7.1997 4.31708H7.46799L7.54897 4.06389L7.62997 4.31708H7.89826L7.69071 4.47405ZM7.67047 6.72743L7.75145 6.98062L7.5338 6.82364L7.31613 6.98062L7.39711 6.72743L7.17946 6.57046H7.44773L7.52873 6.31727L7.60973 6.57046H7.878L7.67047 6.72743ZM7.73121 9.20868L7.51354 9.0517L7.29587 9.20868L7.37687 8.95549L7.1592 8.79851H7.42749L7.50849 8.54533L7.58947 8.79851H7.85776L7.64009 8.95549L7.73121 9.20868ZM6.66819 1.05601L6.74919 1.3092L6.53152 1.15222L6.31385 1.3092L6.39485 1.05601L6.17718 0.899035H6.44547L6.52645 0.645846L6.60745 0.899035H6.87574L6.66819 1.05601ZM6.66819 3.28407L6.74919 3.53726L6.53152 3.38028L6.31385 3.53726L6.39485 3.28407L6.17718 3.12709H6.44547L6.52645 2.8739L6.60745 3.12709H6.87574L6.66819 3.28407ZM6.66819 5.51719L6.74919 5.77038L6.53152 5.6134L6.31385 5.77038L6.39485 5.51719L6.17718 5.36021H6.44547L6.52645 5.10703L6.60745 5.36021H6.87574L6.66819 5.51719ZM6.66819 7.79589L6.74919 8.04907L6.53152 7.8921L6.31385 8.04907L6.39485 7.79589L6.17718 7.63891H6.44547L6.52645 7.38572L6.60745 7.63891H6.87574L6.66819 7.79589ZM6.75424 10.2265L6.53658 10.0695L6.31892 10.2265L6.39991 9.97331L6.18224 9.81633H6.45052L6.53152 9.56314L6.61251 9.81633H6.88079L6.66313 9.97331L6.75424 10.2265ZM5.69123 2.08902L5.77222 2.34221L5.55456 2.18523L5.33689 2.34221L5.41789 2.08902L5.20022 1.93204H5.46851L5.54949 1.67886L5.63049 1.93204H5.89877L5.69123 2.08902ZM5.69123 4.39304L5.77222 4.64622L5.55456 4.48925L5.33689 4.64622L5.41789 4.39304L5.20022 4.23606H5.46851L5.54949 3.98287L5.63049 4.23606H5.89877L5.69123 4.39304ZM5.67098 6.64641L5.75197 6.8996L5.53431 6.74263L5.31665 6.8996L5.39763 6.64641L5.17998 6.48944H5.44825L5.52925 6.23625L5.61024 6.48944H5.87852L5.67098 6.64641ZM5.73173 9.13272L5.51406 8.97575L5.29639 9.13272L5.37739 8.87953L5.15972 8.72256H5.42801L5.509 8.46937L5.58999 8.72256H5.85828L5.64061 8.87953L5.73173 9.13272ZM4.67378 3.28407L4.75476 3.53726L4.53709 3.38028L4.31944 3.53726L4.40042 3.28407L4.18275 3.12709H4.45104L4.53709 2.8739L4.61809 3.12709H4.88638L4.67378 3.28407ZM4.67378 5.51719L4.75476 5.77038L4.53709 5.6134L4.31944 5.77038L4.40042 5.51719L4.18275 5.36021H4.45104L4.53709 5.10703L4.61809 5.36021H4.88638L4.67378 5.51719ZM4.67378 7.79589L4.75476 8.04907L4.53709 7.8921L4.31944 8.04907L4.40042 7.79589L4.18275 7.63891H4.45104L4.53709 7.38572L4.61809 7.63891H4.88638L4.67378 7.79589ZM4.75476 10.2265L4.53709 10.0695L4.31944 10.2265L4.40042 9.97331L4.18275 9.81633H4.45104L4.53709 9.56314L4.61809 9.81633H4.88638L4.66871 9.97331L4.75476 10.2265ZM3.69175 4.37278L3.77274 4.62597L3.55507 4.46899L3.33741 4.62597L3.4184 4.37278L3.20074 4.2158H3.46902L3.55001 3.96262L3.631 4.2158H3.89929L3.69175 4.37278ZM3.6715 6.62616L3.75249 6.87934L3.53483 6.72237L3.31716 6.87934L3.39815 6.62616L3.18049 6.46918H3.44877L3.52976 6.21599L3.61076 6.46918H3.87904L3.6715 6.62616ZM3.73731 9.1074L3.51964 8.95043L3.30198 9.1074L3.38297 8.85421L3.1653 8.69724H3.43359L3.51458 8.44405L3.59557 8.69724H3.86386L3.64619 8.85421L3.73731 9.1074ZM8.45001 0.899035L8.531 0.645846L8.61199 0.899035H8.88028L8.66261 1.05601L8.7436 1.3092L8.52594 1.15222L8.30827 1.3092L8.38927 1.05601L8.1716 0.899035H8.45001ZM10.4495 7.63891L10.5305 7.38572L10.6115 7.63891H10.8798L10.6621 7.79589L10.7431 8.04907L10.5254 7.8921L10.3078 8.04907L10.3887 7.79589L10.1711 7.63891H10.4495ZM10.4495 5.36021L10.5305 5.10703L10.6115 5.36021H10.8798L10.6621 5.51719L10.7431 5.77038L10.5254 5.6134L10.3078 5.77038L10.3887 5.51719L10.1711 5.36021H10.4495ZM10.4495 3.12709L10.5305 2.8739L10.6115 3.12709H10.8798L10.6621 3.28407L10.7431 3.53726L10.5254 3.38028L10.3078 3.53726L10.3887 3.28407L10.1711 3.12709H10.4495ZM10.4495 0.899035L10.5305 0.645846L10.6115 0.899035H10.8798L10.6621 1.05601L10.7431 1.3092L10.5254 1.15222L10.3078 1.3092L10.3887 1.05601L10.1711 0.899035H10.4495ZM2.67429 5.51719L2.75528 5.77038L2.53761 5.6134L2.31996 5.77038L2.40094 5.51719L2.18327 5.36021H2.45156L2.53256 5.10703L2.61354 5.36021H2.88183L2.67429 5.51719ZM2.67429 7.79589L2.75528 8.04907L2.53761 7.8921L2.31996 8.04907L2.40094 7.79589L2.18327 7.63891H2.45156L2.53256 7.38572L2.61354 7.63891H2.88183L2.67429 7.79589ZM2.75528 10.2265L2.53761 10.0695L2.31996 10.2265L2.40094 9.97331L2.18327 9.81633H2.45156L2.53256 9.56314L2.61354 9.81633H2.88183L2.66416 9.97331L2.75528 10.2265ZM1.67202 6.58564L1.753 6.83883L1.53535 6.68186L1.31768 6.83883L1.39867 6.58564L1.18101 6.42867H1.44929L1.53028 6.17548L1.61128 6.42867H1.87955L1.67202 6.58564ZM1.73783 9.06689L1.52016 8.90991L1.30249 9.06689L1.38349 8.8137L1.16582 8.65673H1.43411L1.51509 8.40354L1.59609 8.65673H1.86438L1.64671 8.8137L1.73783 9.06689ZM0.760863 10.2265L0.543195 10.0695L0.325528 10.2265L0.406524 9.97331L0.188857 9.81633H0.457144L0.538128 9.56314L0.619125 9.81633H0.887413L0.669745 9.97331L0.760863 10.2265ZM11.5075 0.11415C11.4113 0.0989591 10.6823 0.01794 10.5811 0.0078125L8.7841 0.0736378C6.92129 0.301507 5.17491 1.05601 3.73731 2.21055L3.77274 2.32195L3.68162 2.25612C3.3526 2.5245 3.03875 2.8182 2.74009 3.12709H2.88689L2.66923 3.28407L2.75022 3.53726L2.53256 3.38028L2.44651 3.44104C2.24403 3.67398 2.05167 3.91704 1.8745 4.16517H1.90486L1.84412 4.21074C1.79856 4.27151 1.75808 4.33733 1.71252 4.3981L1.76819 4.57533L1.65176 4.48925C1.04433 5.41085 0.578627 6.45399 0.300218 7.58827C0.295156 7.60346 0.295158 7.61866 0.290096 7.63385H0.457144L0.538128 7.38066L0.619125 7.63385H0.887413L0.669745 7.79082L0.750742 8.04401L0.533074 7.88704L0.315406 8.04401L0.396403 7.79082L0.269853 7.69967C0.0218163 8.74281 -0.0490613 9.78595 0.0319304 10.7987H11.4973V0.11415H11.5075Z" fill="#223C72"/>
</svg>