<svg xmlns="http://www.w3.org/2000/svg" width="20" height="20" viewBox="0 0 20 20" fill="none">
    <path d="M0.297054 7.59739C1.62363 2.23486 7.04134 -1.03128 12.4034 0.295432C17.7654 1.62214 21.0312 7.04037 19.7046 12.4029C18.378 17.7604 12.9603 21.0316 7.5983 19.7049C2.23629 18.3731 -1.03459 12.9549 0.297054 7.59739Z" fill="#F1F2F2"/>
    <path d="M13.9995 9.42835C14.1868 11.5197 12.6525 13.3629 10.5612 13.5553C8.47491 13.7477 6.62664 12.2084 6.43421 10.117C6.24179 8.03075 7.78118 6.18247 9.87251 5.99005C11.9638 5.80269 13.8071 7.34208 13.9995 9.42835Z" fill="#EF3827"/>
    <path d="M6.97225 7.81445C6.43043 8.71074 6.714 9.87541 7.61028 10.4172C8.50657 10.9591 9.67124 10.6755 10.2131 9.7792C10.7549 8.88291 11.9196 8.59934 12.8158 9.14116C13.7121 9.68298 13.9957 10.8476 13.4539 11.7439C12.3702 13.5365 10.0358 14.1087 8.24832 13.02C6.46081 11.9364 5.8886 9.60703 6.97225 7.81445Z" fill="#223C72"/>
    <path d="M4.05223 14.0164L5.03957 15.4799L5.53576 15.1507L4.54843 13.6873L4.05223 14.0164ZM3.89527 13.7835L4.39147 13.4493L3.40413 11.9859L2.90793 12.315L3.89527 13.7835ZM2.14844 12.8315L4.28008 15.9913L4.77121 15.6622L2.63957 12.5024L2.14844 12.8315ZM3.66742 11.8086L5.79906 14.9684L6.29019 14.6342L4.15856 11.4744L3.66742 11.8086ZM16.7661 7.74242L15.7788 6.27899L15.2876 6.6132L16.275 8.07663L16.7661 7.74242ZM15.6218 6.04606L14.6345 4.58263L14.1433 4.91684L15.1307 6.38027L15.6218 6.04606ZM17.794 7.04869L18.2851 6.71448L17.2978 5.25105L16.8066 5.58526L17.794 7.04869ZM17.1408 5.01811L16.1535 3.55469L15.6623 3.8889L16.6497 5.35233L17.1408 5.01811ZM17.5256 7.23098L15.399 4.07119L14.9028 4.40033L17.0345 7.56013L17.5256 7.23098ZM15.6623 15.6571L16.1535 15.9862L17.1408 14.5228L16.6446 14.1886L15.6623 15.6571ZM16.8066 13.9607L17.2978 14.2899L18.2851 12.8264L17.7889 12.4973L16.8066 13.9607ZM15.8902 13.6822L14.9028 15.1457L15.394 15.4799L16.3813 14.0164L15.8902 13.6822ZM17.5256 12.3201L17.0345 11.9859L16.0471 13.4493L16.5383 13.7835L17.5256 12.3201ZM15.1307 13.1708L14.1433 14.6342L14.6395 14.9684L15.6269 13.505L15.1307 13.1708ZM15.7788 13.2721L16.7661 11.8086L16.275 11.4744L15.2876 12.9379L15.7788 13.2721ZM3.66742 7.74242L4.15856 8.07157L6.29019 4.91178L5.79906 4.58263L3.66742 7.74242ZM3.39906 7.56013L5.5307 4.40033L5.03451 4.07119L2.90286 7.23098L3.39906 7.56013ZM4.77121 3.8889L4.28008 3.55469L2.14844 6.71448L2.63957 7.04869L4.77121 3.8889Z" fill="#3D3D3E"/>
</svg>