<svg width="25259" height="1080" viewBox="0 0 25259 1080" fill="none" xmlns="http://www.w3.org/2000/svg" xmlns:xlink="http://www.w3.org/1999/xlink">
<rect x="24784" y="342" width="423" height="326" fill="url(#pattern0)"/>
<rect x="25060" y="53" width="160" height="196" fill="url(#pattern1)"/>
<rect x="24026" y="211" width="720" height="728" fill="url(#pattern2)"/>
<text fill="black" xml:space="preserve" style="white-space: pre" font-family="Charter" font-size="25" letter-spacing="0em"><tspan x="24746" y="694.747">If the Blattas believe they are at a </tspan><tspan x="24746" y="721.747">disadvantage against their opponent, they will </tspan><tspan x="24746" y="748.747">choose to retreat and avoid engagement. They </tspan><tspan x="24746" y="775.747">understand their limitations strongly and are </tspan><tspan x="24746" y="802.747">unwilling to risk their members&#39; lives </tspan><tspan x="24746" y="829.747">needlessly. Even in unfavorable battle </tspan><tspan x="24746" y="856.747">conditions, they can minimize casualties and </tspan><tspan x="24746" y="883.747">prioritize the safety of their group.&#10;</tspan></text>
<text fill="black" xml:space="preserve" style="white-space: pre" font-family="Charter" font-size="25" letter-spacing="0em"><tspan x="23529" y="694.747">Blattas is a group that relies on surprise </tspan><tspan x="23529" y="721.747">attacks to compensate for their low </tspan><tspan x="23529" y="748.747">combat power. They mainly target </tspan><tspan x="23529" y="775.747">untrained groups and use pre-war firearms </tspan><tspan x="23529" y="802.747">as their weapons. However, not all group </tspan><tspan x="23529" y="829.747">members are equipped with firearms due </tspan><tspan x="23529" y="856.747">to a lack of weapons, further diminishing </tspan><tspan x="23529" y="883.747">their fighting ability.</tspan></text>
<rect x="23486" y="430" width="608" height="227" fill="url(#pattern3)"/>
<text fill="black" xml:space="preserve" style="white-space: pre" font-family="Charter" font-size="25" letter-spacing="0em"><tspan x="22507" y="870.747">The orphans highly value Lahar&#39;s leadership skills but may become rebellious if </tspan><tspan x="22507" y="897.747">his decisions don&#39;t align with their expectations. The majority of Blattas members </tspan><tspan x="22507" y="924.747">are teenagers who are impulsive and don&#39;t think about long-term consequences, </tspan><tspan x="22507" y="951.747">which makes them difficult to manage.&#10;</tspan></text>
<rect x="22516" y="266" width="786" height="570" fill="url(#pattern4)"/>
<text fill="black" xml:space="preserve" style="white-space: pre" font-family="Charter" font-size="25" letter-spacing="0em"><tspan x="22538" y="102.747">Blattas have grown their group to nearly 100 thanks to Lahar&#39;s ability </tspan><tspan x="22538" y="129.747">to locate water sources. Instead of wandering through the wilderness, </tspan><tspan x="22538" y="156.747">Lahar realized that targeting and attacking water sources where other </tspan><tspan x="22538" y="183.747">survivors gathered was more effective. As a result, the group has </tspan><tspan x="22538" y="210.747">survived through plundering and has no permanent residence.</tspan></text>
<rect x="22001" width="472" height="1080" fill="url(#pattern5)"/>
<rect x="21782" y="746" width="195" height="275" fill="url(#pattern6)"/>
<text fill="black" xml:space="preserve" style="white-space: pre" font-family="Charter" font-size="25" letter-spacing="0em"><tspan x="21657" y="233.747">Lahar has developed survival </tspan><tspan x="21657" y="260.747">skills, including the ability to </tspan><tspan x="21657" y="287.747">conserve resources and survive </tspan><tspan x="21657" y="314.747">in confined spaces, through his </tspan><tspan x="21657" y="341.747">experiences in the cave.&#10;</tspan><tspan x="21657" y="368.747">&#10;</tspan><tspan x="21657" y="395.747">He also learned how to take </tspan><tspan x="21657" y="422.747">the lives of others to stay. </tspan><tspan x="21657" y="449.747">Using these principles, he leads </tspan><tspan x="21657" y="476.747">a small group through the </tspan><tspan x="21657" y="503.747">wilderness by stealing from </tspan><tspan x="21657" y="530.747">other survivors and </tspan><tspan x="21657" y="557.747">distributing the items among </tspan><tspan x="21657" y="584.747">his &#34;family.&#34;</tspan></text>
<text fill="black" xml:space="preserve" style="white-space: pre" font-family="Charter" font-size="25" letter-spacing="0em"><tspan x="21109" y="520.747">Lahar survived the </tspan><tspan x="21109" y="547.747">nuclear winter in a </tspan><tspan x="21109" y="574.747">cave full of corpses </tspan><tspan x="21109" y="601.747">and a few children. &#10;</tspan><tspan x="21109" y="628.747">&#10;</tspan><tspan x="21109" y="655.747">They discovered their </tspan><tspan x="21109" y="682.747">identity through the </tspan><tspan x="21109" y="709.747">cave&#39;s totem and the </tspan><tspan x="21109" y="736.747">hieroglyphics written </tspan><tspan x="21109" y="763.747">on the wall.</tspan></text>
<rect x="21116" y="146" width="227" height="321" fill="url(#pattern7)"/>
<rect x="20390" width="685" height="1080" fill="url(#pattern8)"/>
<rect x="19617" y="315" width="730" height="765" fill="url(#pattern9)"/>
<text fill="black" xml:space="preserve" style="white-space: pre" font-family="Charter" font-size="25" letter-spacing="0em"><tspan x="19896.1" y="132.747">Blattas is a group of orphans who will do </tspan><tspan x="19847.1" y="159.747">anything to survive. The group&#39;s name, which </tspan><tspan x="19857.7" y="186.747">means desert cockroach, reflects their leader </tspan><tspan x="19813.3" y="213.747">Lahar&#39;s belief that survival is the only motivation </tspan><tspan x="20081.1" y="240.747">in an apocalyptic world.</tspan></text>
<rect x="18450" y="64" width="951" height="950" fill="url(#pattern10)"/>
<rect x="19220" y="513" width="310" height="310" fill="url(#pattern11)"/>
<rect x="18257" y="113" width="364" height="364" fill="url(#pattern12)"/>
<text fill="black" xml:space="preserve" style="white-space: pre" font-family="Charter" font-size="25" letter-spacing="0em"><tspan x="18065.5" y="548.747">Lahar formed the group Blattas </tspan><tspan x="18054.8" y="575.747">in the early days of the post-war </tspan><tspan x="18061.7" y="602.747">when many wandering orphans </tspan><tspan x="18056.4" y="629.747">had no food, water, or shelter in </tspan><tspan x="18094.8" y="656.747">the wasteland. Most of these </tspan><tspan x="18094.1" y="683.747">children were likely to die in </tspan><tspan x="18108.4" y="710.747">the desert or grassland, but </tspan><tspan x="18090.5" y="737.747">Lahar brought them together </tspan><tspan x="18114.9" y="764.747">and gave them a chance to </tspan><tspan x="18203.7" y="791.747">survive and thrive.&#10;</tspan><tspan x="18407" y="818.747">&#10;</tspan><tspan x="18057.4" y="845.747">The name Blattas was chosen to </tspan><tspan x="18062" y="872.747">symbolize their new beginnings </tspan><tspan x="18086.5" y="899.747">and the hope for a better life.</tspan></text>
<rect x="17830" y="104" width="270" height="332" fill="url(#pattern13)"/>
<rect x="17284" y="46" width="160" height="188" fill="url(#pattern14)"/>
<text fill="black" xml:space="preserve" style="white-space: pre" font-family="Charter" font-size="25" letter-spacing="0em"><tspan x="16965" y="720.747">Their determination and willingness to fight </tspan><tspan x="16965" y="747.747">bare-handed make them a formidable force, </tspan><tspan x="16965" y="774.747">even for the empire. However, it would be a </tspan><tspan x="16965" y="801.747">tough challenge to face them head-on.&#10;</tspan></text>
<rect x="16942" y="421" width="527" height="279" fill="url(#pattern15)"/>
<rect x="16237" y="335" width="686" height="589" fill="url(#pattern16)"/>
<text fill="black" xml:space="preserve" style="white-space: pre" font-family="Charter" font-size="25" letter-spacing="0em"><tspan x="15735" y="710.747">The Caballeros are known for their </tspan><tspan x="15735" y="737.747">impressive fighting skills and commitment </tspan><tspan x="15735" y="764.747">to justice.&#10;</tspan><tspan x="15735" y="791.747">&#10;</tspan><tspan x="15735" y="818.747">However, they only see the Fidelian </tspan><tspan x="15735" y="845.747">Empire as their enemy and view all other </tspan><tspan x="15735" y="872.747">groups as needing enlightenment. Despite </tspan><tspan x="15735" y="899.747">this, they are willing to fight for their </tspan><tspan x="15735" y="926.747">family and for vengeance.</tspan></text>
<rect x="15713" y="398" width="611" height="291" fill="url(#pattern17)"/>
<rect x="14565" y="319" width="1067" height="739" fill="url(#pattern18)"/>
<rect x="15299" y="84" width="407" height="158" fill="url(#pattern19)"/>
<text fill="black" xml:space="preserve" style="white-space: pre" font-family="Charter" font-size="25" letter-spacing="0em"><tspan x="14866" y="77.7468">While their primary weapon is firearms, </tspan><tspan x="14866" y="104.747">they are also ready to use other weapons </tspan><tspan x="14866" y="131.747">if necessary. Despite the post-war era&#39;s </tspan><tspan x="14866" y="158.747">focus on guns, the Caballeros prioritize </tspan><tspan x="14866" y="185.747">aesthetics over practicality.&#10;</tspan></text>
<rect x="14511" y="16" width="351" height="321" fill="url(#pattern20)"/>
<rect x="13882" y="709" width="655" height="349" fill="url(#pattern21)"/>
<text fill="black" xml:space="preserve" style="white-space: pre" font-family="Charter" font-size="25" letter-spacing="0em"><tspan x="13897" y="583.747">The Caballeros organization values symbolism and can </tspan><tspan x="13897" y="610.747">often be found near crumbling cathedrals or cemeteries. </tspan><tspan x="13897" y="637.747">They travel on fast motorcycles and cars decorated with </tspan><tspan x="13897" y="664.747">European knightly designs and usually wear </tspan><tspan x="13897" y="691.747">anachronistic iron armor.&#10;</tspan></text>
<rect x="14319" y="173" width="218" height="355" fill="url(#pattern22)"/>
<rect x="13912" y="12" width="379" height="534" fill="url(#pattern23)"/>
<rect x="13389" y="660" width="411" height="393" fill="url(#pattern24)"/>
<text fill="black" xml:space="preserve" style="white-space: pre" font-family="Charter" font-size="25" letter-spacing="0em"><tspan x="13389" y="449.747">As such, they are unwilling to form </tspan><tspan x="13389" y="476.747">equal relationships with other factions </tspan><tspan x="13389" y="503.747">and will fiercely attack those who try, </tspan><tspan x="13389" y="530.747">even if they are not affiliated with the </tspan><tspan x="13389" y="557.747">empire.</tspan></text>
<rect x="13599" y="22" width="205" height="392" fill="url(#pattern25)"/>
<rect x="12866" y="613" width="390" height="467" fill="url(#pattern26)"/>
<rect x="12050" width="790" height="1080" fill="url(#pattern27)"/>
<rect x="12768" y="226" width="579" height="404" fill="url(#pattern28)"/>
<text fill="black" xml:space="preserve" style="white-space: pre" font-family="Charter" font-size="25" letter-spacing="0em"><tspan x="12887" y="54.7468">The Caballeros work as a private security force in their </tspan><tspan x="12887" y="81.7468">territory, similar to the Japanese Yakuza, who were </tspan><tspan x="12887" y="108.747">connected to local authorities or civilians in the pre-war </tspan><tspan x="12887" y="135.747">period. However, this does not mean that the Caballeros </tspan><tspan x="12887" y="162.747">see all other groups as equals; instead, they view </tspan><tspan x="12887" y="189.747">themselves as the sole source of justice and protection.&#10;</tspan></text>
<rect x="10937" width="968" height="1080" fill="url(#pattern29)"/>
<rect x="11592" width="915" height="535" fill="url(#pattern30)"/>
<rect x="10586" y="725" width="343" height="323" fill="url(#pattern31)"/>
<text fill="black" xml:space="preserve" style="white-space: pre" font-family="Charter" font-size="25" letter-spacing="0em"><tspan x="10191.8" y="780.747">The Caballeros are an anti-imperial </tspan><tspan x="10173.5" y="807.747">army that does not seek conflict with </tspan><tspan x="10186.6" y="834.747">non-imperial civilians. Instead, they </tspan><tspan x="10151.4" y="861.747">have a special relationship with nearby </tspan><tspan x="10189.2" y="888.747">survivor groups, offering protection </tspan><tspan x="10222.9" y="915.747">from the Fidelian Empire, desert </tspan><tspan x="10231.1" y="942.747">raiders, and other looters in the </tspan><tspan x="10454.2" y="969.747">wilderness.&#10;</tspan></text>
<rect x="10170" y="474" width="703" height="246" fill="url(#pattern32)"/>
<text fill="black" xml:space="preserve" style="white-space: pre" font-family="Charter" font-size="25" letter-spacing="0em"><tspan x="10535" y="146.747">The Caballeros is an organization </tspan><tspan x="10535" y="173.747">led by Morales Fiago, a Spanish-</tspan><tspan x="10535" y="200.747">American, that was formed in the </tspan><tspan x="10535" y="227.747">aftermath of the nuclear winter.&#10;</tspan><tspan x="10535" y="254.747">&#10;</tspan><tspan x="10535" y="281.747">While the Fidelian Empire views </tspan><tspan x="10535" y="308.747">the Caballeros as gangsters, they </tspan><tspan x="10535" y="335.747">see themselves as the guardians of </tspan><tspan x="10535" y="362.747">justice who stand against the </tspan><tspan x="10535" y="389.747">unjust empire.</tspan></text>
<rect x="10138" y="62" width="312" height="367" fill="url(#pattern33)"/>
<rect x="8951" width="929" height="1080" fill="url(#pattern34)"/>
<text fill="black" xml:space="preserve" style="white-space: pre" font-family="Charter" font-size="25" letter-spacing="0em"><tspan x="8408" y="690.747">One major drawback is that replacing their </tspan><tspan x="8408" y="717.747">troops is almost impossible when they suffer </tspan><tspan x="8408" y="744.747">losses on the battlefield. This is because </tspan><tspan x="8408" y="771.747">Zaikasha comprises soldiers with unique </tspan><tspan x="8408" y="798.747">individual abilities who were primarily trained </tspan><tspan x="8408" y="825.747">while in the empire.&#10;</tspan><tspan x="8408" y="852.747">&#10;</tspan><tspan x="8408" y="879.747">Essentially, if even one member of Zaikasha is </tspan><tspan x="8408" y="906.747">lost, it leads to irreparable and permanent </tspan><tspan x="8408" y="933.747">weakening of the unit.</tspan></text>
<rect x="8456" y="401" width="398" height="267" fill="url(#pattern35)"/>
<rect x="8735" y="38" width="152" height="179" fill="url(#pattern36)"/>
<rect x="7679" y="259" width="695" height="656" fill="url(#pattern37)"/>
<rect x="7153" y="441" width="611" height="228" fill="url(#pattern38)"/>
<text fill="black" xml:space="preserve" style="white-space: pre" font-family="Charter" font-size="25" letter-spacing="0em"><tspan x="7177" y="691.747">Zaikasha is a specialized unit designed for </tspan><tspan x="7177" y="718.747">missions requiring high organizational </tspan><tspan x="7177" y="745.747">combat power, such as infiltrating enemy </tspan><tspan x="7177" y="772.747">lines and assassinating key figures.&#10;</tspan><tspan x="7177" y="799.747">&#10;</tspan><tspan x="7177" y="826.747">While they are individually skilled </tspan><tspan x="7177" y="853.747">fighters, their abilities are multiplied when </tspan><tspan x="7177" y="880.747">they work together as a group. Zaikasha </tspan><tspan x="7177" y="907.747">comprises soldiers with unique individual </tspan><tspan x="7177" y="934.747">skills primarily trained in the empire.</tspan></text>
<rect x="6500" y="791" width="580" height="289" fill="url(#pattern39)"/>
<text fill="black" xml:space="preserve" style="white-space: pre" font-family="Charter" font-size="25" letter-spacing="0em"><tspan x="6479" y="609.747">Rio is careful with issuing orders, as the members of </tspan><tspan x="6479" y="636.747">Zaikasha are expected to follow every one of his </tspan><tspan x="6479" y="663.747">commands, even if it may put their lives at risk.&#10;</tspan><tspan x="6479" y="690.747">&#10;</tspan><tspan x="6479" y="717.747">Despite being free to express their opinions and </tspan><tspan x="6479" y="744.747">disagree with Rio, they still follow his orders without </tspan><tspan x="6479" y="771.747">question.</tspan></text>
<rect x="6173" y="567" width="260" height="474" fill="url(#pattern40)"/>
<rect x="6147" y="29" width="928" height="538" fill="url(#pattern41)"/>
<rect x="5321" width="784" height="1080" fill="url(#pattern42)"/>
<text fill="white" xml:space="preserve" style="white-space: pre" font-family="Charter" font-size="25" letter-spacing="0em"><tspan x="5363" y="881.747">The Resistance, led by Rio, establishes shelters in abandoned </tspan><tspan x="5363" y="908.747">buildings in the desert and works to gain more resources </tspan><tspan x="5363" y="935.747">through negotiations with other groups.&#10;</tspan><tspan x="5363" y="962.747">&#10;</tspan><tspan x="5363" y="989.747">They have a military-style plan for securing resources and </tspan><tspan x="5363" y="1016.75">managing tasks such as food procurement and shelter security, </tspan><tspan x="5363" y="1043.75">and they may take on mercenary-like missions at times.</tspan></text>
<text fill="black" xml:space="preserve" style="white-space: pre" font-family="Charter" font-size="25" letter-spacing="0em"><tspan x="4559.62" y="49.7468">Rio was made the </tspan><tspan x="4412.94" y="76.7468">organization&#39;s leader due to his </tspan><tspan x="4413.96" y="103.747">charisma, which inspired many </tspan><tspan x="4438.74" y="130.747">members of his direct unit to </tspan><tspan x="4498.48" y="157.747">follow him and join the </tspan><tspan x="4633.81" y="184.747">Resistance.&#10;</tspan><tspan x="4754" y="211.747">&#10;</tspan><tspan x="4422.58" y="238.747">However, he cannot handle all </tspan><tspan x="4408.86" y="265.747">decision-making independently, </tspan><tspan x="4508.03" y="292.747">so the teams under his </tspan><tspan x="4466.74" y="319.747">command are divided into </tspan><tspan x="4434.2" y="346.747">smaller platoons to distribute </tspan><tspan x="4546.46" y="373.747">his responsibilities.&#10;</tspan></text>
<rect x="4480" y="389" width="680" height="680" fill="url(#pattern43)"/>
<rect x="4771" y="27" width="513" height="520" fill="url(#pattern44)"/>
<text fill="black" xml:space="preserve" style="white-space: pre" font-family="Charter" font-size="25" letter-spacing="0em"><tspan x="3673.73" y="958.747">However, Jake&#x2019;s plan of running the empire was far from what Rio </tspan><tspan x="3746.66" y="985.747">envisioned. Disagreeing with Jake&#39;s approach to leading the </tspan><tspan x="3703.08" y="1012.75">kingdom, Rio gathered his loyal followers and fled to create the </tspan><tspan x="4206.74" y="1039.75">Resistance group.&#10;</tspan></text>
<rect x="3487" y="57" width="906" height="859" fill="url(#pattern45)"/>
<rect x="2586" y="110" width="849" height="910" fill="url(#pattern46)"/>
<text fill="black" xml:space="preserve" style="white-space: pre" font-family="Charter" font-size="25" letter-spacing="0em"><tspan x="2202" y="687.747">Rio Crassus, a former officer in the </tspan><tspan x="2202" y="714.747">Fidelian Empire, founded the unit. </tspan><tspan x="2202" y="741.747">Crassus, a young and talented </tspan><tspan x="2202" y="768.747">soldier, played a crucial role in the </tspan><tspan x="2202" y="795.747">early days of the empire through his </tspan><tspan x="2202" y="822.747">exceptional tactical command and </tspan><tspan x="2202" y="849.747">strategic planning.</tspan></text>
<rect x="2213" y="436" width="379" height="197" fill="url(#pattern47)"/>
<text fill="black" xml:space="preserve" style="white-space: pre" font-family="Charter" font-size="25" letter-spacing="0em"><tspan x="2239" y="176.747">The Zaikasha unit is an elite unit </tspan><tspan x="2239" y="203.747">of the Fidelian Empire, </tspan><tspan x="2239" y="230.747">comprised of soldiers who have </tspan><tspan x="2239" y="257.747">undergone rigorous training to </tspan><tspan x="2239" y="284.747">carry out specialized missions. As </tspan><tspan x="2239" y="311.747">a result, each member is skilled </tspan><tspan x="2239" y="338.747">and has experience in their </tspan><tspan x="2239" y="365.747">particular role within the unit.</tspan></text>
<rect x="1720" y="824" width="484" height="188" fill="url(#pattern48)"/>
<rect x="1725" y="34" width="323" height="380" fill="url(#pattern49)"/>
<rect width="1651" height="1080" fill="url(#pattern50)"/>
<defs>
<pattern id="pattern0" patternContentUnits="objectBoundingBox" width="1" height="1">
<use xlink:href="#image0_761_5" transform="matrix(0.000397141 0 0 0.000515308 0 -0.00191017)"/>
</pattern>
<pattern id="pattern1" patternContentUnits="objectBoundingBox" width="1" height="1">
<use xlink:href="#image1_761_5" transform="matrix(0.00029976 0 0 0.000244702 0 -0.0011501)"/>
</pattern>
<pattern id="pattern2" patternContentUnits="objectBoundingBox" width="1" height="1">
<use xlink:href="#image2_761_5" transform="scale(0.000694444 0.000686813)"/>
</pattern>
<pattern id="pattern3" patternContentUnits="objectBoundingBox" width="1" height="1">
<use xlink:href="#image3_761_5" transform="matrix(0.000347631 0 0 0.000931099 -0.000935693 0)"/>
</pattern>
<pattern id="pattern4" patternContentUnits="objectBoundingBox" width="1" height="1">
<use xlink:href="#image4_761_5" transform="scale(0.000419185 0.000578035)"/>
</pattern>
<pattern id="pattern5" patternContentUnits="objectBoundingBox" width="1" height="1">
<use xlink:href="#image5_761_5" transform="matrix(0.000608283 0 0 0.000265842 -8.27595e-06 -0.062037)"/>
</pattern>
<pattern id="pattern6" patternContentUnits="objectBoundingBox" width="1" height="1">
<use xlink:href="#image6_761_5" transform="matrix(0.000738552 0 0 0.000523701 0 -0.00222909)"/>
</pattern>
<pattern id="pattern7" patternContentUnits="objectBoundingBox" width="1" height="1">
<use xlink:href="#image6_761_5" transform="matrix(0.000738552 0 0 0.000522279 0 -0.000865096)"/>
</pattern>
<pattern id="pattern8" patternContentUnits="objectBoundingBox" width="1" height="1">
<use xlink:href="#image7_761_5" transform="matrix(0.000440917 0 0 0.000279656 0 -0.0429329)"/>
</pattern>
<pattern id="pattern9" patternContentUnits="objectBoundingBox" width="1" height="1">
<use xlink:href="#image8_761_5" transform="scale(0.00026455 0.000252447)"/>
</pattern>
<pattern id="pattern10" patternContentUnits="objectBoundingBox" width="1" height="1">
<use xlink:href="#image9_761_5" transform="scale(0.00052356)"/>
</pattern>
<pattern id="pattern11" patternContentUnits="objectBoundingBox" width="1" height="1">
<use xlink:href="#image10_761_5" transform="translate(0 -0.000586166) scale(0.000586166)"/>
</pattern>
<pattern id="pattern12" patternContentUnits="objectBoundingBox" width="1" height="1">
<use xlink:href="#image11_761_5" transform="scale(0.00137363)"/>
</pattern>
<pattern id="pattern13" patternContentUnits="objectBoundingBox" width="1" height="1">
<use xlink:href="#image1_761_5" transform="matrix(0.000300203 0 0 0.000244141 -0.000737847 0)"/>
</pattern>
<pattern id="pattern14" patternContentUnits="objectBoundingBox" width="1" height="1">
<use xlink:href="#image12_761_5" transform="matrix(0.000287191 0 0 0.000244418 0 -0.000568272)"/>
</pattern>
<pattern id="pattern15" patternContentUnits="objectBoundingBox" width="1" height="1">
<use xlink:href="#image13_761_5" transform="matrix(0.000490677 0 0 0.000926835 0 -0.00234435)"/>
</pattern>
<pattern id="pattern16" patternContentUnits="objectBoundingBox" width="1" height="1">
<use xlink:href="#image14_761_5" transform="scale(0.000728863 0.000848896)"/>
</pattern>
<pattern id="pattern17" patternContentUnits="objectBoundingBox" width="1" height="1">
<use xlink:href="#image15_761_5" transform="matrix(0.000339098 0 0 0.000711989 0 -0.00195244)"/>
</pattern>
<pattern id="pattern18" patternContentUnits="objectBoundingBox" width="1" height="1">
<use xlink:href="#image16_761_5" transform="matrix(0.000346818 0 0 0.000500751 -0.000458748 0)"/>
</pattern>
<pattern id="pattern19" patternContentUnits="objectBoundingBox" width="1" height="1">
<use xlink:href="#image17_761_5" transform="matrix(0.00123762 0 0 0.00318806 0 -0.000524815)"/>
</pattern>
<pattern id="pattern20" patternContentUnits="objectBoundingBox" width="1" height="1">
<use xlink:href="#image18_761_5" transform="scale(0.00117097 0.00128041)"/>
</pattern>
<pattern id="pattern21" patternContentUnits="objectBoundingBox" width="1" height="1">
<use xlink:href="#image19_761_5" transform="matrix(0.000491989 0 0 0.000923361 -0.00158311 0)"/>
</pattern>
<pattern id="pattern22" patternContentUnits="objectBoundingBox" width="1" height="1">
<use xlink:href="#image20_761_5" transform="matrix(0.00125945 0 0 0.000773406 0 -0.000780502)"/>
</pattern>
<pattern id="pattern23" patternContentUnits="objectBoundingBox" width="1" height="1">
<use xlink:href="#image21_761_5" transform="matrix(0.000720981 0 0 0.000511707 0 -0.00121716)"/>
</pattern>
<pattern id="pattern24" patternContentUnits="objectBoundingBox" width="1" height="1">
<use xlink:href="#image22_761_5" transform="scale(0.00121655 0.00127226)"/>
</pattern>
<pattern id="pattern25" patternContentUnits="objectBoundingBox" width="1" height="1">
<use xlink:href="#image23_761_5" transform="matrix(0.00111824 0 0 0.000584795 -0.002091 0)"/>
</pattern>
<pattern id="pattern26" patternContentUnits="objectBoundingBox" width="1" height="1">
<use xlink:href="#image24_761_5" transform="matrix(0.000778816 0 0 0.000650403 0 -0.00180612)"/>
</pattern>
<pattern id="pattern27" patternContentUnits="objectBoundingBox" width="1" height="1">
<use xlink:href="#image25_761_5" transform="matrix(0.000634496 0 0 0.000464122 -0.0139241 -0.0142331)"/>
</pattern>
<pattern id="pattern28" patternContentUnits="objectBoundingBox" width="1" height="1">
<use xlink:href="#image26_761_5" transform="matrix(0.00085092 0 0 0.00121951 -0.000341211 0)"/>
</pattern>
<pattern id="pattern29" patternContentUnits="objectBoundingBox" width="1" height="1">
<use xlink:href="#image27_761_5" transform="matrix(0.000517443 0 0 0.000463782 0 -0.0240741)"/>
</pattern>
<pattern id="pattern30" patternContentUnits="objectBoundingBox" width="1" height="1">
<use xlink:href="#image28_761_5" transform="matrix(0.000518351 0 0 0.000886525 -0.00072666 0)"/>
</pattern>
<pattern id="pattern31" patternContentUnits="objectBoundingBox" width="1" height="1">
<use xlink:href="#image29_761_5" transform="matrix(0.00120575 0 0 0.00128041 -0.000278106 0)"/>
</pattern>
<pattern id="pattern32" patternContentUnits="objectBoundingBox" width="1" height="1">
<use xlink:href="#image30_761_5" transform="matrix(0.00024522 0 0 0.000700771 -0.00221047 0)"/>
</pattern>
<pattern id="pattern33" patternContentUnits="objectBoundingBox" width="1" height="1">
<use xlink:href="#image12_761_5" transform="scale(0.000287191 0.000244152)"/>
</pattern>
<pattern id="pattern34" patternContentUnits="objectBoundingBox" width="1" height="1">
<use xlink:href="#image31_761_5" transform="scale(0.000538213 0.000462963)"/>
</pattern>
<pattern id="pattern35" patternContentUnits="objectBoundingBox" width="1" height="1">
<use xlink:href="#image32_761_5" transform="matrix(0.000564217 0 0 0.000841043 -0.000460672 0)"/>
</pattern>
<pattern id="pattern36" patternContentUnits="objectBoundingBox" width="1" height="1">
<use xlink:href="#image33_761_5" transform="matrix(0.000287508 0 0 0.000244141 -0.00126969 0)"/>
</pattern>
<pattern id="pattern37" patternContentUnits="objectBoundingBox" width="1" height="1">
<use xlink:href="#image34_761_5" transform="scale(0.000719424 0.000762195)"/>
</pattern>
<pattern id="pattern38" patternContentUnits="objectBoundingBox" width="1" height="1">
<use xlink:href="#image35_761_5" transform="scale(0.000343925 0.000921659)"/>
</pattern>
<pattern id="pattern39" patternContentUnits="objectBoundingBox" width="1" height="1">
<use xlink:href="#image36_761_5" transform="scale(0.000862069 0.0017301)"/>
</pattern>
<pattern id="pattern40" patternContentUnits="objectBoundingBox" width="1" height="1">
<use xlink:href="#image37_761_5" transform="matrix(0.000985222 0 0 0.000540417 0 -0.00204735)"/>
</pattern>
<pattern id="pattern41" patternContentUnits="objectBoundingBox" width="1" height="1">
<use xlink:href="#image38_761_5" transform="matrix(0.000355492 0 0 0.000613191 0 -0.000364082)"/>
</pattern>
<pattern id="pattern42" patternContentUnits="objectBoundingBox" width="1" height="1">
<use xlink:href="#image39_761_5" transform="matrix(0.000637755 0 0 0.000462963 0 -0.0185185)"/>
</pattern>
<pattern id="pattern43" patternContentUnits="objectBoundingBox" width="1" height="1">
<use xlink:href="#image40_761_5" transform="scale(0.000631313)"/>
</pattern>
<pattern id="pattern44" patternContentUnits="objectBoundingBox" width="1" height="1">
<use xlink:href="#image41_761_5" transform="matrix(0.000457038 0 0 0.000450886 0 -0.000483406)"/>
</pattern>
<pattern id="pattern45" patternContentUnits="objectBoundingBox" width="1" height="1">
<use xlink:href="#image42_761_5" transform="scale(0.000435919 0.00045977)"/>
</pattern>
<pattern id="pattern46" patternContentUnits="objectBoundingBox" width="1" height="1">
<use xlink:href="#image43_761_5" transform="scale(0.00033339 0.000311042)"/>
</pattern>
<pattern id="pattern47" patternContentUnits="objectBoundingBox" width="1" height="1">
<use xlink:href="#image44_761_5" transform="matrix(0.000763273 0 0 0.00146843 -0.00147037 0)"/>
</pattern>
<pattern id="pattern48" patternContentUnits="objectBoundingBox" width="1" height="1">
<use xlink:href="#image45_761_5" transform="scale(0.00103306 0.00265957)"/>
</pattern>
<pattern id="pattern49" patternContentUnits="objectBoundingBox" width="1" height="1">
<use xlink:href="#image33_761_5" transform="matrix(0.000287224 0 0 0.000244141 -0.000775506 0)"/>
</pattern>
<pattern id="pattern50" patternContentUnits="objectBoundingBox" width="1" height="1">
<use xlink:href="#image46_761_5" transform="matrix(0.00030303 0 0 0.000463244 0 -0.00030303)"/>
</pattern></defs>
</svg>
